<?xml version="1.0" encoding="UTF-8" standalone="no"?>
<!-- Generator: Adobe Illustrator 22.1.0, SVG Export Plug-In . SVG Version: 6.00 Build 0)  -->

<svg
   xmlns:dc="http://purl.org/dc/elements/1.1/"
   xmlns:cc="http://creativecommons.org/ns#"
   xmlns:rdf="http://www.w3.org/1999/02/22-rdf-syntax-ns#"
   xmlns:svg="http://www.w3.org/2000/svg"
   xmlns="http://www.w3.org/2000/svg"
   xmlns:sodipodi="http://sodipodi.sourceforge.net/DTD/sodipodi-0.dtd"
   xmlns:inkscape="http://www.inkscape.org/namespaces/inkscape"
   version="1.1"
   id="svg10"
   x="0px"
   y="0px"
   viewBox="0 0 599.99999 600"
   xml:space="preserve"
   sodipodi:docname="Behance_logo.svg"
   width="600"
   height="600"
   inkscape:version="0.92.1 r15371"><metadata
     id="metadata21"><rdf:RDF><cc:Work
         rdf:about=""><dc:format>image/svg+xml</dc:format><dc:type
           rdf:resource="http://purl.org/dc/dcmitype/StillImage" /><dc:title></dc:title></cc:Work></rdf:RDF></metadata><defs
     id="defs19" /><sodipodi:namedview
     pagecolor="#ffffff"
     bordercolor="#666666"
     borderopacity="1"
     objecttolerance="10"
     gridtolerance="10"
     guidetolerance="10"
     inkscape:pageopacity="0"
     inkscape:pageshadow="2"
     inkscape:window-width="640"
     inkscape:window-height="480"
     id="namedview17"
     showgrid="false"
     fit-margin-top="0"
     fit-margin-left="0"
     fit-margin-right="0"
     fit-margin-bottom="0"
     inkscape:zoom="0.23025782"
     inkscape:cx="396.27469"
     inkscape:cy="305.58984"
     inkscape:current-layer="svg10" /><path
     d="M 73.830076,0 C 32.928098,0 0,32.9281 0,73.83008 V 526.16993 C 0,567.0719 32.928098,600 73.830076,600 H 526.16992 C 567.0719,600 600,567.0719 600,526.16993 V 73.83008 C 600,32.9281 567.0719,0 526.16992,0 Z m 43.962894,185.55079 h 106 c 10.5,0 20.19961,0.79921 29.09961,3.19921 8.9,1.6 16.20117,4.90039 22.70117,8.90039 6.5,4 11.29961,9.7 14.59961,17 3.2,7.3 4.90039,16.2004 4.90039,25.9004 0,11.3 -2.40157,21.00078 -8.10156,28.30078 -4.90001,7.3 -12.89922,13.79961 -22.69922,18.59961 13.8,4 24.29921,11.3 30.69922,21 6.4,9.7 10.5,21.7996 10.5,35.5996 0,11.3 -2.40001,20.99961 -6.5,29.09961 -4,8.1 -10.49883,15.40118 -17.79883,20.20118 -7.3,4.9 -16.20039,8.89882 -25.90039,11.29882 -9.7,2.4 -19.39961,4 -29.09961,4 l -108.40039,0.20118 z m 237.90039,15.40039 h 90.59961 V 222.75 h -90.59961 z m -188.5,22.69921 V 276.25 c 0,-0.1 50.09961,-0.0996 50.09961,-0.0996 8.9,0 16.20078,-2.4 21.80078,-6.5 5.6,-4.1 8.09961,-11.29921 8.09961,-20.19921 0,-4.9 -0.80039,-9.7004 -2.40039,-12.90039 -1.6,-3.2 -4.00079,-5.69961 -7.30078,-8.09961 -3.20001,-1.6 -6.5,-3.2 -10.5,-4 -4,-0.8 -8.09844,-0.80079 -12.89844,-0.80079 z m 237,19.20118 c 13.8,0 25.90039,2.39961 36.40039,8.09961 10.5,5.7 18.59961,12.09882 25.09961,21.79882 6.5,8.90001 11.29961,19.40118 14.59961,30.70118 1.6,11.3 2.39961,22.6996 1.59961,35.5996 H 364.59375 c 0,13.20001 4.79883,25.30079 11.29883,31.80079 6.5,6.5 16.19961,9.69921 29.09961,9.69921 8.89999,1e-5 17,-2.4 23.5,-6.5 6.49999,-4.9 10.50156,-9.6996 12.10156,-14.5996 h 39.59961 c -6.5,19.4 -16.19961,33.1996 -29.09961,42.0996 -12.9,8.1 -28.30039,12.9004 -46.90039,12.9004 -12.9,0 -24.30078,-2.4 -34.80078,-6.5 -10.5,-4 -18.60039,-9.70079 -25.90039,-17.80079 -7.3,-7.3 -12.89922,-16.19921 -16.19922,-26.69921 -4,-10.5 -5.69922,-21.80079 -5.69922,-34.80079 0,-12.1 1.59922,-23.5 5.69922,-34 4.1,-10.5 9.7,-19.4 17,-27.5 7.3,-7.3 16.20039,-13.79882 25.90039,-17.79882 10.5,-4 21,-6.5 34,-6.5 z m -2.40039,34.09961 c -7.3,0 -12.90079,1.6 -17.80078,4 -4.90001,2.4 -8.09883,5.70039 -11.29883,8.90039 -3.2,3.2 -4.90117,7.29882 -5.70117,11.29882 -0.8,4 -1.59961,7.3 -1.59961,10.5 h 72.80078 c -1.6,-12 -5.70078,-20.09882 -11.30078,-25.79882 -5.7,-5.7 -14.59961,-8.90039 -25.09961,-8.90039 z M 167.19336,309.25 v 62.30078 h 52.5 v 0.0996 c 4.9,0 9.69883,-0.7996 13.79883,-1.59961 4,-0.79999 8.10078,-2.40039 11.30078,-4.90039 3.2,-2.5 5.69961,-4.90039 8.09961,-8.90039 1.6,-4 3.20117,-8.89961 3.20117,-14.59961 0,-11.3 -3.20117,-19.39961 -9.70117,-25.09961 -6.5,-4.89999 -15.4004,-7.30078 -25.9004,-7.30078 z"
     id="rect23"
     inkscape:connector-curvature="0" /></svg>