<?xml version="1.0" encoding="UTF-8" standalone="no"?>
<!-- Generator: Adobe Illustrator 21.0.0, SVG Export Plug-In . SVG Version: 6.00 Build 0)  -->

<svg
   xmlns:dc="http://purl.org/dc/elements/1.1/"
   xmlns:cc="http://creativecommons.org/ns#"
   xmlns:rdf="http://www.w3.org/1999/02/22-rdf-syntax-ns#"
   xmlns:svg="http://www.w3.org/2000/svg"
   xmlns="http://www.w3.org/2000/svg"
   xmlns:sodipodi="http://sodipodi.sourceforge.net/DTD/sodipodi-0.dtd"
   xmlns:inkscape="http://www.inkscape.org/namespaces/inkscape"
   version="1.1"
   id="Layer_1"
   x="0px"
   y="0px"
   viewBox="0 0 36 36"
   xml:space="preserve"
   sodipodi:docname="LinkedIn_Logo_2013.svg"
   width="36"
   height="36"
   inkscape:version="0.92.1 r15371"><metadata
     id="metadata41"><rdf:RDF><cc:Work
         rdf:about=""><dc:format>image/svg+xml</dc:format><dc:type
           rdf:resource="http://purl.org/dc/dcmitype/StillImage" /><dc:title></dc:title></cc:Work></rdf:RDF></metadata><defs
     id="defs39" /><sodipodi:namedview
     pagecolor="#ffffff"
     bordercolor="#666666"
     borderopacity="1"
     objecttolerance="10"
     gridtolerance="10"
     guidetolerance="10"
     inkscape:pageopacity="0"
     inkscape:pageshadow="2"
     inkscape:window-width="640"
     inkscape:window-height="480"
     id="namedview37"
     showgrid="false"
     fit-margin-top="0"
     fit-margin-left="0"
     fit-margin-right="0"
     fit-margin-bottom="0"
     inkscape:zoom="1.915037"
     inkscape:cx="18.173468"
     inkscape:cy="18"
     inkscape:current-layer="Layer_1" /><style
     type="text/css"
     id="style2">
	.st0{fill:#006192;}
	.st1{fill:#FFFFFF;}
</style><path
     d="M 2.691772,0 C 1.195911,0 0,1.1996094 0,2.5996094 V 33.400391 C 0,34.800391 1.195911,36 2.691772,36 H 33.308228 C 34.804089,36 36,34.800391 36,33.400391 V 2.5996094 C 36,1.1996094 34.804089,0 33.308228,0 Z m 5.3854887,5 c 1.6953091,0 3.0910573,1.3996094 3.0910573,3.0996094 0,1.7 -1.3957482,3.0996096 -3.0910573,3.0996096 -1.6953092,0 -3.0910572,-1.3996096 -3.0910572,-3.0996096 C 4.9862035,6.2996094 6.3819515,5 8.0772607,5 Z m 16.2558013,8 c 5.385099,0 6.382729,3.599219 6.382729,8.199219 v 9.40039 h -5.286153 v -8.40039 c 0,-2 -7.78e-4,-4.59961 -2.793052,-4.59961 -2.792274,0 -3.190393,2.200391 -3.190393,4.400391 v 8.5 H 14.16004 v -17 h 4.986203 v 2.300781 h 0.10128 C 19.945592,14.400781 21.740236,13 24.333062,13 Z M 5.3854887,13.5 H 10.669698 V 30.699219 H 5.3854887 Z"
     id="path26"
     inkscape:connector-curvature="0" /></svg>