<?xml version="1.0" encoding="UTF-8" standalone="no"?>
<!-- Generator: Adobe Illustrator 21.1.0, SVG Export Plug-In . SVG Version: 6.00 Build 0)  -->

<svg
   xmlns:dc="http://purl.org/dc/elements/1.1/"
   xmlns:cc="http://creativecommons.org/ns#"
   xmlns:rdf="http://www.w3.org/1999/02/22-rdf-syntax-ns#"
   xmlns:svg="http://www.w3.org/2000/svg"
   xmlns="http://www.w3.org/2000/svg"
   xmlns:sodipodi="http://sodipodi.sourceforge.net/DTD/sodipodi-0.dtd"
   xmlns:inkscape="http://www.inkscape.org/namespaces/inkscape"
   version="1.1"
   id="Layer_1"
   x="0px"
   y="0px"
   viewBox="0 0 121.4009 85"
   xml:space="preserve"
   inkscape:version="0.91+devel+osxmenu r12922"
   sodipodi:docname="YouTube_Logo_2017.svg"
   width="121.4009"
   height="85"><metadata
     id="metadata4758"><rdf:RDF><cc:Work
         rdf:about=""><dc:format>image/svg+xml</dc:format><dc:type
           rdf:resource="http://purl.org/dc/dcmitype/StillImage" /><dc:title></dc:title></cc:Work></rdf:RDF></metadata><defs
     id="defs4756" /><sodipodi:namedview
     pagecolor="#ffffff"
     bordercolor="#666666"
     borderopacity="1"
     objecttolerance="10"
     gridtolerance="10"
     guidetolerance="10"
     inkscape:pageopacity="0"
     inkscape:pageshadow="2"
     inkscape:window-width="1694"
     inkscape:window-height="904"
     id="namedview4754"
     showgrid="false"
     fit-margin-top="0"
     fit-margin-left="0"
     fit-margin-right="0"
     fit-margin-bottom="0"
     inkscape:zoom="3.9695459"
     inkscape:cx="-35.142558"
     inkscape:cy="22.346561"
     inkscape:window-x="26"
     inkscape:window-y="23"
     inkscape:window-maximized="0"
     inkscape:current-layer="Layer_1" /><style
     type="text/css"
     id="style4728">
	.st0{fill:#FF0000;}
	.st1{fill:#FFFFFF;}
	.st2{fill:#282828;}
</style><path
     d="m 60.699219,0 c 0,0 -38,0 -47.5,2.5 C 8.0992188,3.9 3.9,8.1007812 2.5,13.300781 0,22.800781 0,42.5 0,42.5 c 0,0 0,19.799219 2.5,29.199219 1.4,5.2 5.4992188,9.301172 10.699219,10.701172 9.6,2.6 47.5,2.599609 47.5,2.599609 0,0 38,0 47.500001,-2.5 5.2,-1.4 9.30117,-5.499219 10.70117,-10.699219 2.5,-9.5 2.5,-29.201172 2.5,-29.201172 0,0 0.1,-19.798828 -2.5,-29.298828 -1.4,-5.1999998 -5.50117,-9.3011716 -10.70117,-10.7011716 C 98.699219,-3.9062496e-4 60.699219,0 60.699219,0 Z M 48.599609,24.300781 80.199219,42.5 l -31.59961,18.199219 0,-36.398438 z"
     id="path4732"
     inkscape:connector-curvature="0" /></svg>