<?xml version="1.0" encoding="UTF-8" standalone="no"?>
<!-- Created with Inkscape (http://www.inkscape.org/) -->

<svg
   xmlns:dc="http://purl.org/dc/elements/1.1/"
   xmlns:cc="http://creativecommons.org/ns#"
   xmlns:rdf="http://www.w3.org/1999/02/22-rdf-syntax-ns#"
   xmlns:svg="http://www.w3.org/2000/svg"
   xmlns="http://www.w3.org/2000/svg"
   xmlns:xlink="http://www.w3.org/1999/xlink"
   xmlns:sodipodi="http://sodipodi.sourceforge.net/DTD/sodipodi-0.dtd"
   xmlns:inkscape="http://www.inkscape.org/namespaces/inkscape"
   width="887.73444"
   height="207.50551"
   viewBox="0 0 234.87973 54.902501"
   version="1.1"
   id="svg1219"
   inkscape:version="0.92.4 (5da689c313, 2019-01-14)"
   sodipodi:docname="hp_stpresents.svg">
  <defs
     id="defs1213">
    <radialGradient
       inkscape:collect="always"
       xlink:href="#linearGradient1340"
       id="radialGradient5470"
       gradientUnits="userSpaceOnUse"
       gradientTransform="matrix(1,0,0,0.60762944,-1.6798942,-133.68843)"
       cx="148.5"
       cy="100.26408"
       fx="148.5"
       fy="100.26408"
       r="95.19812" />
    <linearGradient
       inkscape:collect="always"
       id="linearGradient1340">
      <stop
         style="stop-color:#03012b;stop-opacity:1"
         offset="0"
         id="stop1336" />
      <stop
         style="stop-color:#3c126d;stop-opacity:0.17777778"
         offset="1"
         id="stop1338" />
    </linearGradient>
    <filter
       inkscape:collect="always"
       style="color-interpolation-filters:sRGB"
       id="filter5051"
       x="-0.019291554"
       width="1.0385832"
       y="-0.03174888"
       height="1.0634978">
      <feGaussianBlur
         inkscape:collect="always"
         stdDeviation="1.530433"
         id="feGaussianBlur5053" />
    </filter>
    <filter
       inkscape:collect="always"
       style="color-interpolation-filters:sRGB"
       id="filter5464"
       x="-0.013763337"
       width="1.0275267"
       y="-0.093663327"
       height="1.1873266">
      <feGaussianBlur
         inkscape:collect="always"
         stdDeviation="0.82859741"
         id="feGaussianBlur5466" />
    </filter>
  </defs>
  <sodipodi:namedview
     id="base"
     pagecolor="#ffffff"
     bordercolor="#666666"
     borderopacity="1.0"
     inkscape:pageopacity="0.0"
     inkscape:pageshadow="2"
     inkscape:zoom="0.35"
     inkscape:cx="429.58152"
     inkscape:cy="215.18134"
     inkscape:document-units="px"
     inkscape:current-layer="layer1"
     showgrid="false"
     units="px"
     fit-margin-top="0"
     fit-margin-left="0"
     fit-margin-right="0"
     fit-margin-bottom="0" />
  <metadata
     id="metadata1216">
    <rdf:RDF>
      <cc:Work
         rdf:about="">
        <dc:format>image/svg+xml</dc:format>
        <dc:type
           rdf:resource="http://purl.org/dc/dcmitype/StillImage" />
        <dc:title></dc:title>
      </cc:Work>
    </rdf:RDF>
  </metadata>
  <g
     inkscape:label="Layer 1"
     inkscape:groupmode="layer"
     id="layer1"
     transform="translate(7.8267763,-150.86422)">
    <g
       transform="translate(-99.593117,213.88025)"
       id="g1183">
      <ellipse
         transform="matrix(1.1878071,0,0,0.44622959,34.81225,-3.0948723)"
         style="opacity:0.73000004;fill:url(#radialGradient5470);fill-opacity:1;stroke:none;stroke-width:0.21585476;stroke-linecap:round;stroke-linejoin:miter;stroke-miterlimit:4;stroke-dasharray:none;stroke-opacity:1;filter:url(#filter5051)"
         id="ellipse5468"
         cx="146.8201"
         cy="-72.765022"
         rx="95.19812"
         ry="57.845181" />
      <g
         id="g5458"
         transform="matrix(0.98065562,0,0,0.98081546,69.291273,45.97916)"
         style="fill:#000000;stroke-width:1.21123779;filter:url(#filter5464)">
        <g
           inkscape:export-ydpi="403.31766"
           inkscape:export-xdpi="403.31766"
           inkscape:export-filename="/Users/logan/Dropbox/SPLITelevision/Logo/Green-L.png"
           style="fill:#000000;fill-opacity:1;stroke-width:2.02840018"
           transform="matrix(0.47276065,0,0,0.47276065,-47.703807,-151.02792)"
           id="g5454">
          <path
             inkscape:connector-curvature="0"
             style="fill:#000000;fill-opacity:1;fill-rule:nonzero;stroke:none;stroke-width:2.02840018"
             d="m 466.26367,210.58398 -5.34375,1.30664 14.62305,58.55274 -2.51172,1.91992 -1.91992,2.01563 3.83984,3.83984 2.01563,-1.91992 c 1.08911,-1.08911 2.35559,-1.6211 3.83984,-1.6211 1.46397,0 2.79073,0.53199 3.93555,1.6211 l 2.02148,1.91992 3.81445,-3.83984 -1.89843,-2.01563 c -0.81049,-0.71426 -1.64165,-1.36777 -2.53321,-1.91992 l 14.64454,-58.55274 -5.35938,-1.30664 -14.625,58.13672 z m -129.09765,0.61719 c -0.74975,0 -1.44319,0.25399 -2.01563,0.79102 -0.55215,0.55216 -0.81055,1.20567 -0.81055,1.91992 0,0.76997 0.25821,1.44321 0.81055,2.01562 0.57244,0.55215 1.26588,0.81055 2.01563,0.81055 0.83074,0 1.44373,-0.25855 1.91992,-0.81055 0.49644,-0.57241 0.81054,-1.24565 0.81054,-2.01562 0,-0.75477 -0.3141,-1.40832 -0.81054,-1.91992 -0.51164,-0.53695 -1.12463,-0.79102 -1.91992,-0.79102 z m 5.44531,0 v 2.71094 c 0,1.77804 -0.49584,3.08475 -1.50391,4.03711 -0.99285,0.98778 -2.27988,1.51953 -3.9414,1.51953 h -2.82618 v 22.00391 h 2.82618 c 1.17014,0 2.21852,0.37662 3.22656,1.00976 1.46396,0.97259 2.21875,2.4556 2.21875,4.55274 0,1.75778 -0.49584,3.16724 -1.50391,4.13476 -0.99285,0.97258 -2.27988,1.40235 -3.9414,1.40235 h -2.82618 v 22.10546 h 2.82618 c 1.17014,0 2.21852,0.37666 3.22656,1.00977 1.46396,0.98782 2.21875,2.45168 2.21875,4.54883 v 2.73047 h 30.49023 v -5.5586 h -25.24609 c -0.4154,-2.17821 -1.40955,-3.90033 -2.91406,-5.14648 -1.51968,-1.30692 -3.1656,-2.21377 -5.04493,-2.73047 v -11.71094 c 1.87933,-0.49644 3.50625,-1.32639 4.92969,-2.51172 1.60074,-1.42851 2.6139,-3.30827 3.0293,-5.5625 h 8.58594 v -5.3457 h -8.58594 c -0.4154,-2.27448 -1.34853,-4.09174 -2.8125,-5.33789 -1.48422,-1.30692 -3.18613,-2.23989 -5.14649,-2.73633 v -11.61523 c 2.15796,-0.45086 3.96106,-1.51923 5.44532,-3.125 1.16508,-1.42345 2.01723,-3.02404 2.51367,-4.84766 h 25.24609 v -5.53711 z m 33.91406,0 v 63.47656 h 2.82813 c 1.17018,0 2.21852,0.37666 3.22656,1.00977 1.46396,0.98782 2.21875,2.45168 2.21875,4.54883 v 2.73047 h 30.49023 v -5.5586 h -25.22851 c -0.43567,-2.17821 -1.42829,-3.90033 -2.92774,-5.14648 -1.52474,-1.30692 -3.16639,-2.21377 -5.05078,-2.73047 v -58.33008 z m 45.01953,0 c -0.75477,0 -1.42877,0.25399 -2.02148,0.79102 -0.55215,0.55216 -0.81055,1.20567 -0.81055,1.91992 0,0.76997 0.25859,1.44321 0.81055,2.01562 0.59271,0.55215 1.26671,0.81055 2.02148,0.81055 0.85104,0 1.44295,-0.25855 1.91406,-0.81055 0.5167,-0.57241 0.81641,-1.24565 0.81641,-2.01562 0,-0.75477 -0.29982,-1.40832 -0.81641,-1.91992 -0.49137,-0.53695 -1.1238,-0.79102 -1.91406,-0.79102 z m 5.46094,0 v 2.71094 c 0,1.77804 -0.51731,3.08475 -1.52539,4.03711 -0.96752,0.98778 -2.25373,1.51953 -3.93555,1.51953 h -2.83203 v 22.00391 h 2.83203 c 1.16512,0 2.23221,0.37662 3.24024,1.00976 1.46397,0.97259 2.2207,2.4556 2.2207,4.55274 0,1.75778 -0.51731,3.16724 -1.52539,4.13476 -0.96752,0.97258 -2.25373,1.40235 -3.93555,1.40235 h -2.83203 v 22.10546 h 2.83203 c 1.16512,0 2.23221,0.37666 3.24024,1.00977 1.46397,0.98782 2.2207,2.45168 2.2207,4.54883 v 2.73047 h 30.46875 v -5.5586 h -25.22656 c -0.41541,-2.17821 -1.40297,-3.90033 -2.92774,-5.14648 -1.50448,-1.30692 -3.14529,-2.21377 -5.04492,-2.73047 v -11.71094 c 1.89963,-0.49644 3.51991,-1.32639 4.94336,-2.51172 1.6058,-1.42851 2.61389,-3.30827 3.0293,-5.5625 h 8.58593 v -5.3457 h -8.58593 c -0.41541,-2.27448 -1.36807,-4.09174 -2.83203,-5.33789 -1.48422,-1.30692 -3.16503,-2.23989 -5.14063,-2.73633 v -11.61523 c 2.17315,-0.45086 3.97545,-1.51923 5.43945,-3.125 1.16507,-1.42345 2.03677,-3.02404 2.53321,-4.84766 h 25.22656 v -5.53711 z m 77.30469,0 v 5.53711 h 8.6875 c 0.49644,2.00092 1.42862,3.64174 2.73047,5.04492 1.28671,1.44877 2.98852,2.47688 5.14648,2.92774 v 44.72461 c -2.15796,0.51164 -3.85977,1.51896 -5.14648,3.02343 -1.30185,1.52478 -2.23403,3.14586 -2.73047,4.94922 h -8.6875 v 5.5586 h 13.83593 v -2.73047 c 0,-1.22585 0.37471,-2.25514 1.00782,-3.22266 0.91181,-1.52477 2.39477,-2.33594 4.55273,-2.33594 1.66152,0 3.04539,0.55283 4.0332,1.52539 1.01311,0.96756 1.50391,2.27546 1.50391,4.03321 v 2.73047 h 13.83398 v -5.5586 h -8.59179 c -0.49138,-1.89962 -1.34154,-3.56122 -2.51172,-4.94922 -1.2664,-1.46396 -3.14538,-2.43076 -5.55664,-3.02343 v -44.72461 c 2.17315,-0.45086 4.07242,-1.51923 5.55664,-3.125 1.17018,-1.42345 2.02034,-3.02404 2.51172,-4.84766 h 8.59179 v -5.53711 h -13.83398 v 2.71094 c 0,1.77804 -0.4908,3.08475 -1.50391,4.03711 -0.98781,0.98778 -2.37168,1.51953 -4.0332,1.51953 -1.74259,0 -3.02904,-0.53175 -4.03711,-1.51953 -0.99284,-0.95236 -1.52344,-2.25907 -1.52344,-4.03711 v -2.71094 z m 19.39648,0 c -0.77507,0 -1.44903,0.25399 -2.02148,0.79102 -0.55215,0.55216 -0.81055,1.20567 -0.81055,1.91992 0,0.76997 0.25859,1.44321 0.81055,2.01562 0.57245,0.55215 1.24641,0.81055 2.02148,0.81055 0.83074,0 1.5414,-0.25855 2.01758,-0.81055 0.4964,-0.57241 0.69336,-1.24565 0.69336,-2.01562 0,-0.75477 -0.25815,-1.40832 -0.79492,-1.91992 -0.51163,-0.53695 -1.16631,-0.79102 -1.91602,-0.79102 z m 38.85938,0 c -6.86393,0 -11.97111,2.31407 -15.45118,7.06055 -2.61389,3.44463 -3.93945,7.53847 -3.93945,12.20898 0,3.02921 0.63157,6.05784 2.01953,9.08203 1.42345,3.02925 3.5819,5.52252 6.37305,7.36133 -0.0608,1.06885 0.1579,2.25825 0.59375,3.54492 l 5.14062,-1.7207 c -0.2177,-0.63322 -0.29296,-1.21125 -0.29296,-1.82422 0,-0.45588 0.0756,-0.90617 0.19726,-1.5039 0.15723,-0.63319 0.6329,-1.34384 1.30664,-2.01758 l -4.13867,-3.73828 -1.10938,1.51953 c -1.97558,-1.85911 -3.36259,-4.09239 -4.03124,-6.86328 -0.18218,-0.49644 -0.21757,-1.08943 -0.29883,-1.72266 -0.0609,-0.63318 -0.11796,-1.36242 -0.19922,-2.11719 0,-3.99678 1.13051,-7.22274 3.52148,-9.79101 2.43658,-2.59362 5.89645,-3.94141 10.3086,-3.94141 4.49321,0 7.97797,1.34779 10.29297,3.94141 2.35549,2.56827 3.52148,5.79423 3.52148,9.79101 v 2.73047 h 5.56055 v -2.73047 c 0,-4.41218 -1.38782,-8.50598 -4.03711,-12.20898 -3.50544,-4.74648 -8.62594,-7.06055 -15.33789,-7.06055 z m 19.375,0 v 5.53711 h 8.68359 c 0.49644,2.00092 1.40791,3.64174 2.71484,5.04492 1.30185,1.44877 3.00419,2.47688 5.16211,2.92774 v 44.72461 c -2.15792,0.51164 -3.86026,1.51896 -5.16211,3.02343 -1.30693,1.52478 -2.2184,3.14586 -2.71484,4.94922 h -8.68359 v 5.5586 h 13.83007 v -2.73047 c 0,-1.22585 0.37467,-2.25514 1.00782,-3.22266 0.91181,-1.52477 2.3955,-2.33594 4.5332,-2.33594 1.68177,0 3.06452,0.55283 4.03711,1.52539 1.00807,0.96756 1.52539,2.27546 1.52539,4.03321 v 2.73047 h 13.83008 v -5.5586 h -8.58789 c -0.49645,-1.89962 -1.34664,-3.56122 -2.51172,-4.94922 -1.2664,-1.46396 -3.16647,-2.43076 -5.5625,-3.02343 v -44.72461 c 2.17821,-0.45086 4.07828,-1.51923 5.5625,-3.125 1.16508,-1.42345 2.01527,-3.02404 2.51172,-4.84766 h 8.58789 v -5.53711 H 606.875 v 2.71094 c 0,1.77804 -0.51732,3.08475 -1.52539,4.03711 -0.97259,0.98778 -2.35534,1.51953 -4.03711,1.51953 -1.7223,0 -3.02908,-0.53175 -4.03711,-1.51953 -0.96756,-0.95236 -1.50391,-2.25907 -1.50391,-4.03711 v -2.71094 z m 19.37109,0 c -0.75477,0 -1.42375,0.25399 -2.02148,0.79102 -0.55215,0.55216 -0.78907,1.20567 -0.78907,1.91992 0,0.76997 0.23692,1.44321 0.78907,2.01562 0.59773,0.55215 1.26671,0.81055 2.02148,0.81055 0.85103,0 1.56169,-0.25855 2.01758,-0.81055 0.5167,-0.57241 0.71289,-1.24565 0.71289,-2.01562 0,-0.75477 -0.27862,-1.40832 -0.81055,-1.91992 -0.49644,-0.53695 -1.14996,-0.79102 -1.91992,-0.79102 z m 38.76172,0 c -0.74971,0 -1.42297,0.25399 -2.01563,0.79102 -0.55722,0.55216 -0.81054,1.20567 -0.81054,1.91992 0,0.76997 0.25325,1.44321 0.81054,2.01562 0.59266,0.55215 1.26592,0.81055 2.01563,0.81055 0.83078,0 1.54533,-0.25855 2.02148,-0.81055 0.51163,-0.57241 0.70899,-1.24565 0.70899,-2.01562 0,-0.75477 -0.27371,-1.40832 -0.81055,-1.91992 -0.49644,-0.53695 -1.16515,-0.79102 -1.91992,-0.79102 z m 42.30859,0 c -0.77507,0 -1.44397,0.25399 -2.02148,0.79102 -0.55215,0.55216 -0.81055,1.20567 -0.81055,1.91992 0,0.76997 0.25859,1.44321 0.81055,2.01562 0.57751,0.55215 1.24641,0.81055 2.02148,0.81055 0.83074,0 1.52425,-0.25855 2.01563,-0.81055 0.49644,-0.57241 0.69531,-1.24565 0.69531,-2.01562 0,-0.75477 -0.25855,-1.40832 -0.81055,-1.91992 -0.49644,-0.53695 -1.15069,-0.79102 -1.90039,-0.79102 z m -48.46289,0.39453 -3.125,1.51953 c -3.45982,1.76284 -6.03257,4.27663 -7.67383,7.46289 -1.64632,3.14574 -2.41601,6.45302 -2.41601,9.89258 v 33.20508 c 0,4.41215 1.3473,8.42864 4.03711,12.11133 3.48012,4.76674 8.54411,7.17969 15.33203,7.17969 6.80821,0 12.0524,-2.41295 15.55273,-7.17969 2.55307,-3.48514 3.83985,-7.48133 3.83985,-12.11133 V 230.4707 c 0,-1.68181 -0.25303,-3.36314 -0.70899,-5.04492 -0.43563,-1.68177 -1.08918,-3.28237 -1.91992,-4.84766 -0.85104,-1.60071 -1.8808,-3.06562 -3.12695,-4.33203 -1.23092,-1.26641 -2.65389,-2.27983 -4.23438,-3.13086 l -3.24609,-1.51953 -0.69531,3.43946 c -0.31408,1.24615 -1.00755,2.27982 -2.01563,3.13086 -1.00807,0.84593 -2.1789,1.30273 -3.44531,1.30273 -2.9887,0 -4.70977,-1.50562 -5.33789,-4.43359 z m 42.28906,0 -3.12695,1.51953 c -3.44463,1.76284 -6.03719,4.27662 -7.6582,7.46289 -1.64126,3.14574 -2.43164,6.45302 -2.43164,9.89258 v 52.4961 h 5.55664 v -52.4961 c 0.19767,-1.60074 0.38096,-2.9275 0.59375,-3.93554 0.71422,-2.66959 2.06011,-4.88878 3.93945,-6.67188 2.17821,3.38385 5.24319,5.05078 9.30078,5.05078 3.97651,0 7.08277,-1.66693 9.28125,-5.05078 1.91985,1.82362 3.3026,4.13877 4.03711,6.86914 0.11641,0.51163 0.15645,0.98787 0.19727,1.6211 0.076,0.63318 0.217,1.36747 0.29297,2.11718 v 52.4961 h 5.5625 v -52.4961 c 0,-1.68181 -0.25911,-3.36314 -0.71485,-5.04492 -0.41541,-1.68177 -1.06888,-3.28237 -1.91992,-4.84766 -0.85103,-1.60072 -1.85859,-3.06562 -3.125,-4.33203 -1.22589,-1.26641 -2.64882,-2.27983 -4.23437,-3.13086 l -3.22266,-1.51953 -0.81445,3.43946 c -0.29367,1.24615 -0.90798,2.27982 -1.91602,3.13086 -1.01314,0.84593 -2.17768,1.30273 -3.42383,1.30273 -3.009,0 -4.73006,-1.50562 -5.36328,-4.43359 z m -45.41406,8.26758 c 2.17821,3.38385 5.24201,5.05078 9.2793,5.05078 3.99677,0 7.1081,-1.66693 9.28125,-5.05078 1.94015,1.82362 3.32213,4.13877 4.05664,6.86914 0.11641,0.51163 0.13837,0.98787 0.19922,1.6211 0.0809,0.63318 0.19754,1.36747 0.29883,2.11718 v 33.20508 c 0,4.01703 -1.23132,7.29895 -3.64258,9.89258 -2.35551,2.57333 -5.77927,3.83984 -10.19141,3.83984 -6.78792,0 -11.14043,-2.88759 -13.12109,-8.78906 -0.49138,-1.38289 -0.70899,-3.04377 -0.70899,-4.94336 V 230.4707 c 0.2177,-1.60074 0.39548,-2.9275 0.61329,-3.93554 0.70916,-2.66959 2.03591,-4.88878 3.93554,-6.67188 z m -57.64258,23.82813 -5.33789,1.71875 c 0.15685,0.43566 0.29297,0.9315 0.29297,1.5039 0,0.63323 -0.13612,1.24671 -0.29297,1.82422 -0.14174,0.59267 -0.47619,1.26592 -1.10937,2.01563 l 4.13281,3.73828 1.00781,-1.5 c 1.91989,1.7983 3.30766,4.05256 4.03711,6.84375 0.1217,0.51669 0.16369,1.08946 0.19922,1.72265 0.0809,0.63322 0.19754,1.36242 0.29883,2.11719 0,4.01703 -1.22698,7.29895 -3.62305,9.89258 -2.37577,2.57333 -5.77925,3.83984 -10.1914,3.83984 -6.78285,0 -11.15921,-2.88759 -13.13477,-8.78906 -0.49644,-1.38289 -0.69531,-3.04377 -0.69531,-4.94336 v -2.70898 h -5.56055 v 2.70898 c 0,4.41215 1.34726,8.42864 4.03711,12.11133 3.48518,4.76674 8.57067,7.17969 15.35352,7.17969 6.80822,0 11.93521,-2.41295 15.43554,-7.17969 2.55307,-3.48514 3.93946,-7.48133 3.93946,-12.11133 0,-3.02925 -0.73426,-6.05277 -2.11719,-9.08203 -1.38795,-3.02925 -3.42393,-5.50226 -6.1543,-7.36133 0,-0.97259 -0.17622,-2.15812 -0.51562,-3.54101 h -0.002 z m -235.98632,0.70898 c -1.89963,0 -2.82618,0.83141 -2.82618,2.63477 0,0.85104 0.25821,1.50398 0.81055,2.01562 0.57244,0.47618 1.26588,0.69531 2.01563,0.69531 1.80332,0 2.73046,-0.91263 2.73046,-2.71093 0,-0.77503 -0.3141,-1.32778 -0.81054,-1.82422 -0.51164,-0.53189 -1.12463,-0.81055 -1.91992,-0.81055 z m 84.3789,0 c -1.8844,0 -2.83203,0.83141 -2.83203,2.63477 0,0.85104 0.25859,1.50398 0.81055,2.01562 0.59271,0.47618 1.26671,0.69531 2.02148,0.69531 1.7983,0 2.73047,-0.91263 2.73047,-2.71093 0,-0.77503 -0.29982,-1.32778 -0.81641,-1.82422 -0.49137,-0.53189 -1.1238,-0.81055 -1.91406,-0.81055 z m 141.02149,0 c -1.89959,0 -2.82618,0.83141 -2.82618,2.63477 0,0.85104 0.25855,1.50398 0.81055,2.01562 0.57241,0.47618 1.24566,0.69531 2.01563,0.69531 1.80336,0 2.71484,-0.91263 2.71484,-2.71093 0,-0.77503 -0.25939,-1.32778 -0.81641,-1.82422 -0.49138,-0.53189 -1.14366,-0.81055 -1.89843,-0.81055 z M 337.16602,277.4082 c -0.74975,0 -1.44319,0.27862 -2.01563,0.81055 -0.55215,0.55215 -0.81055,1.22736 -0.81055,2.01758 0,0.85104 0.25821,1.50284 0.81055,2.01953 0.57244,0.47615 1.26588,0.71094 2.01563,0.71094 0.79529,0 1.40828,-0.21453 1.91992,-0.71094 0.49644,-0.53695 0.81054,-1.26472 0.81054,-2.01953 0,-0.79022 -0.27366,-1.46543 -0.81054,-2.01758 -0.55215,-0.5319 -1.2057,-0.81055 -1.91992,-0.81055 z m 42.1875,0 c -0.74971,0 -1.44518,0.27862 -2.01758,0.81055 -0.55216,0.55215 -0.81055,1.22736 -0.81055,2.01758 0,0.85104 0.25858,1.50284 0.81055,2.01953 0.5724,0.47615 1.26787,0.71094 2.01758,0.71094 0.79532,0 1.40632,-0.21453 1.91796,-0.71094 0.49644,-0.53695 0.81055,-1.26472 0.81055,-2.01953 0,-0.79022 -0.27367,-1.46543 -0.81055,-2.01758 -0.55216,-0.5319 -1.20371,-0.81055 -1.91796,-0.81055 z m 42.1914,0 c -0.75477,0 -1.42877,0.27862 -2.02148,0.81055 -0.55215,0.55215 -0.81055,1.22736 -0.81055,2.01758 0,0.85104 0.25859,1.50284 0.81055,2.01953 0.59271,0.47615 1.26671,0.71094 2.02148,0.71094 0.79026,0 1.42269,-0.21453 1.91406,-0.71094 0.5167,-0.53695 0.81641,-1.26472 0.81641,-2.01953 0,-0.79022 -0.27941,-1.46543 -0.81641,-2.01758 -0.55215,-0.5319 -1.20487,-0.81055 -1.91406,-0.81055 z m 59.26172,0 c -0.77506,0 -1.38803,0.27862 -1.91992,0.81055 -0.55722,0.55215 -0.81055,1.22736 -0.81055,2.01758 0,0.85104 0.25329,1.50284 0.81055,2.01953 0.53189,0.47615 1.14486,0.71094 1.91992,0.71094 0.79023,0 1.50399,-0.21453 2.01563,-0.71094 0.53696,-0.53695 0.79101,-1.26472 0.79101,-2.01953 0,-0.79022 -0.31431,-1.46543 -0.88672,-2.01758 -0.55721,-0.5319 -1.21072,-0.81055 -1.91992,-0.81055 z m 42.90039,0 c -0.77507,0 -1.44903,0.27862 -2.02148,0.81055 -0.55215,0.55215 -0.81055,1.22736 -0.81055,2.01758 0,0.85104 0.25859,1.50284 0.81055,2.01953 0.57245,0.47615 1.24641,0.71094 2.02148,0.71094 0.74971,0 1.40439,-0.21453 1.91602,-0.71094 0.53696,-0.53695 0.79492,-1.26472 0.79492,-2.01953 0,-0.79022 -0.25815,-1.46543 -0.79492,-2.01758 -0.55215,-0.5319 -1.20687,-0.81055 -1.91602,-0.81055 z m 77.60547,0 c -0.75477,0 -1.42375,0.27862 -2.02148,0.81055 -0.55215,0.55215 -0.78907,1.22736 -0.78907,2.01758 0,0.85104 0.23692,1.50284 0.78907,2.01953 0.59773,0.47615 1.26671,0.71094 2.02148,0.71094 0.76996,0 1.42348,-0.21453 1.91992,-0.71094 0.5319,-0.53695 0.81055,-1.26472 0.81055,-2.01953 0,-0.79022 -0.27862,-1.46543 -0.81055,-2.01758 -0.55721,-0.5319 -1.21073,-0.81055 -1.91992,-0.81055 z"
             id="path5450"
             transform="matrix(0.26458334,0,0,0.26458334,227.50845,78.235867)" />
          <path
             inkscape:connector-curvature="0"
             style="fill:#000000;fill-opacity:1;fill-rule:nonzero;stroke:none;stroke-width:2.02840018"
             d="m 95.007812,194.53516 c -8.448442,4.6e-4 -14.780848,2.94886 -19.076171,8.78906 -3.206552,4.2551 -4.847657,9.27944 -4.847657,15.03906 0,3.69789 0.892177,7.45766 2.634766,11.20117 1.717229,3.75867 4.310509,6.6652 7.775391,8.87891 -0.101292,1.30692 0.09551,2.81259 0.591797,4.43359 l 6.46875,-2.01562 c -0.25852,-0.74971 -0.414063,-1.54505 -0.414063,-2.21875 0,-0.63323 0.136185,-1.28306 0.318359,-2.01758 0.157228,-0.74974 0.612354,-1.46341 1.503907,-2.31445 l -5.050782,-4.7461 -1.402343,2.01563 c -2.451779,-2.21874 -4.016879,-5.12612 -4.847657,-8.58594 -0.17726,-0.61292 -0.314724,-1.24645 -0.416015,-2.02148 -0.08088,-0.7497 -0.217568,-1.64186 -0.298828,-2.60938 0,-4.92884 1.484646,-8.96559 4.453125,-12.11133 2.968441,-3.18629 7.182139,-4.75195 12.607421,-4.75195 5.501288,0 9.752778,1.56566 12.624998,4.75195 2.90766,3.14574 4.33008,7.18249 4.33008,12.11133 v 3.32422 h 6.86914 v -3.32422 c 0,-5.42528 -1.66163,-10.44962 -4.94922,-15.03906 -4.33076,-5.84019 -10.64235,-8.78859 -18.873044,-8.78906 h -0.002 z m 32.314458,0 c -0.95233,0 -1.72129,0.40018 -2.43555,1.10937 -0.6737,0.67374 -1.00781,1.48371 -1.00781,2.31445 0,0.99288 0.33426,1.82402 1.00781,2.53321 0.71426,0.67374 1.48322,1.00781 2.43555,1.00781 1.02833,0 1.9159,-0.33422 2.51367,-1.00781 0.63318,-0.70919 0.90625,-1.54033 0.90625,-2.53321 0,-0.90675 -0.35427,-1.77696 -1.00781,-2.41015 -0.63318,-0.65348 -1.46485,-1.01367 -2.41211,-1.01367 z m 6.74804,0 v 3.42382 c 0,2.19847 -0.59709,3.84125 -1.80273,5.04688 -1.22589,1.19044 -2.90894,1.82226 -4.94531,1.82226 h -3.44336 v 27.05079 h 3.44336 c 1.46396,0 2.78705,0.45153 4.0332,1.22656 1.78311,1.22589 2.71484,3.14469 2.71484,5.73828 0,2.15289 -0.59709,3.83621 -1.80273,5.04687 -1.22589,1.18534 -2.90894,1.7168 -4.94531,1.7168 h -3.44336 v 37.35938 h 6.86328 v -30.98828 c 2.315,-0.59267 4.33629,-1.66032 6.05859,-3.14454 1.97559,-1.72229 3.22158,-3.91611 3.73828,-6.64648 h 7.25782 c 5.68358,0 10.64969,-1.64621 14.94531,-4.84766 5.87614,-4.29566 8.7832,-10.60815 8.7832,-18.97656 0,-8.37346 -2.9276,-14.68481 -8.88477,-18.98047 -4.29057,-3.18123 -9.26145,-4.84765 -14.84374,-4.84765 z m 42.5,0 v 78.22265 h 3.52539 c 1.47916,0 2.8066,0.43635 4.05274,1.22657 1.78307,1.17012 2.71094,3.05015 2.71094,5.63867 v 3.34375 h 37.45898 v -6.86524 h -31.08789 c -0.51163,-2.64933 -1.70024,-4.74698 -3.53906,-6.37304 -1.85907,-1.58045 -3.95725,-2.7296 -6.25196,-3.32227 v -71.87109 z m 52.79492,0 V 201.5 h 10.70313 c 0.57751,2.39604 1.72231,4.39847 3.32812,6.15625 1.58044,1.7831 3.65666,2.94719 6.35157,3.54492 v 55.10352 c -2.69491,0.59773 -4.77113,1.78347 -6.35157,3.64258 -1.60581,1.85907 -2.75061,3.92033 -3.32812,6.15429 h -10.70313 v 6.86524 h 17.05469 v -3.34375 c 0,-1.46396 0.29894,-2.80615 1.10938,-4.03711 1.08911,-1.89963 3.04965,-2.82813 5.75976,-2.82813 2.0364,0 3.65726,0.61473 4.84766,1.82031 1.20563,1.22589 1.79883,2.90723 1.79883,5.04493 l 0.12109,3.34375 h 16.95508 v -6.86524 h -10.60156 c -0.63323,-2.315 -1.60585,-4.3304 -3.0293,-6.05273 -1.56529,-1.80336 -3.83965,-3.07044 -6.76758,-3.74414 v -55.10352 c 2.68985,-0.59773 4.94902,-1.86425 6.76758,-3.83984 1.42345,-1.72229 2.39607,-3.62233 3.0293,-5.86133 h 10.60156 v -6.96484 h -17.07617 v 3.42382 c 0,2.19847 -0.5932,3.84125 -1.79883,5.04688 -1.1904,1.19044 -2.81125,1.82226 -4.84766,1.82226 -2.15796,0 -3.83933,-0.63182 -5.04492,-1.82226 -1.24615,-1.20563 -1.82422,-2.84841 -1.82422,-5.04688 v -3.42382 z m 23.92383,0 c -0.99285,0 -1.85946,0.40018 -2.5332,1.10937 -0.6737,0.67374 -1.00781,1.48371 -1.00781,2.31445 0,0.99288 0.33426,1.82402 1.00781,2.53321 0.67374,0.67374 1.54035,1.00781 2.5332,1.00781 1.00807,0 1.7218,-0.33422 2.31446,-1.00781 0.63323,-0.70919 1.00976,-1.54033 1.00976,-2.53321 0,-0.90675 -0.33617,-1.77696 -1.00976,-2.41015 -0.63318,-0.65348 -1.40772,-1.01367 -2.31446,-1.01367 z m 28.76758,0 V 201.5 h 10.78516 c 0.59267,2.39604 1.62704,4.39847 3.24804,6.15625 1.58044,1.7831 3.75742,2.94719 6.44727,3.54492 v 71.76563 h 6.76758 v -71.76563 c 2.67462,-0.59773 4.94902,-1.86425 6.76758,-3.83984 1.40825,-1.72229 2.49377,-3.62233 3.12695,-5.86133 h 10.58594 v -6.96484 h -17.15235 v 3.42382 c 0,2.19847 -0.59637,3.84125 -1.82226,5.04688 -1.16508,1.19044 -2.79172,1.82226 -4.82813,1.82226 -2.15796,0 -3.84051,-0.63182 -5.0664,-1.82226 -1.22585,-1.20563 -1.79883,-2.84841 -1.79883,-5.04688 v -3.42382 z m 23.92578,0 c -0.98778,0 -1.76296,0.40018 -2.43164,1.10937 -0.67373,0.67374 -1.01367,1.48371 -1.01367,2.31445 0,0.99288 0.33994,1.82402 1.01367,2.53321 0.66868,0.67374 1.44386,1.00781 2.43164,1.00781 1.00807,0 1.81825,-0.33422 2.41602,-1.00781 0.63319,-0.70919 0.90625,-1.54033 0.90625,-2.53321 0,-0.90675 -0.35428,-1.77696 -1.00781,-2.41015 -0.63319,-0.65348 -1.40265,-1.01367 -2.31446,-1.01367 z M 140.53906,201.5 h 7.25782 c 4.92881,0 8.9675,1.40798 12.11328,4.33594 3.18625,2.90767 4.75195,7.10206 4.75195,12.52734 0,8.36841 -3.58305,13.7485 -10.80664,16.14453 -1.74255,0.59267 -3.75882,0.91211 -6.05859,0.91211 h -7.25782 c -0.5167,-2.73037 -1.74271,-4.94931 -3.54101,-6.57031 -1.80336,-1.58555 -3.85983,-2.63389 -6.25586,-3.22656 v -14.52344 c 2.315,-0.5927 4.33629,-1.54508 6.05859,-3.0293 1.97559,-1.72233 3.22158,-3.91594 3.73828,-6.57031 z m -32.61328,33.10938 -6.44726,2.11718 c 0.15723,0.51164 0.19726,1.04813 0.19726,1.7168 0,0.81555 -0.04,1.66826 -0.19726,2.41797 -0.17726,0.73451 -0.67413,1.50269 -1.42383,2.42969 l 5.04492,4.63671 1.32812,-1.90039 c 2.39101,2.25419 3.95611,5.06585 4.84766,8.46485 0.13682,0.63323 0.29308,1.32696 0.39453,2.11719 0.076,0.77501 0.217,1.62645 0.29297,2.5332 0,4.90858 -1.50371,9.02664 -4.43164,12.21289 -2.90766,3.14578 -7.10126,4.74609 -12.521484,4.74609 -8.373467,0 -13.754322,-3.66161 -16.150391,-10.90039 -0.592668,-1.72229 -0.912109,-3.74359 -0.912109,-6.05859 v -3.34375 h -6.863282 v 3.34375 c 0,5.42528 1.661634,10.46988 4.949219,15.03906 4.290557,5.83559 10.603096,8.78516 18.976563,8.78516 8.327884,0 14.638444,-2.94957 18.974614,-8.78516 3.18628,-4.33111 4.84765,-9.36051 4.84765,-15.03906 0,-3.69789 -0.91048,-7.36121 -2.63281,-11.09961 -1.72229,-3.73845 -4.19505,-6.74654 -7.5586,-8.98047 0,-1.23095 -0.29954,-2.71565 -0.71484,-4.45312 z m -12.916014,0.81054 c -2.31496,0 -3.425782,1.14428 -3.425782,3.42383 0,1.00803 0.333885,1.79846 1.007813,2.43164 0.65348,0.59271 1.445384,0.91211 2.417969,0.91211 2.213707,0 3.341797,-1.10983 3.341796,-3.34375 0,-0.95233 -0.359547,-1.78284 -1.007812,-2.41602 -0.633184,-0.67374 -1.427237,-1.00781 -2.333984,-1.00781 z m 32.312504,0 c -2.33526,0 -3.44336,1.14428 -3.44336,3.42383 0,1.00803 0.33426,1.79846 1.00781,2.43164 0.71426,0.59271 1.48322,0.91211 2.43555,0.91211 2.25418,0 3.41992,-1.10983 3.41992,-3.34375 0,-0.95233 -0.35427,-1.78284 -1.00781,-2.41602 -0.63318,-0.67374 -1.46485,-1.00781 -2.41211,-1.00781 z m 52.77343,40.68164 c -0.91181,0 -1.80332,0.39512 -2.51758,1.10938 -0.66861,0.6737 -1.00781,1.46485 -1.00781,2.41211 0,1.01314 0.3392,1.80232 1.00781,2.43554 0.71426,0.59267 1.60577,0.90821 2.51758,0.90821 0.96756,0 1.6969,-0.29513 2.33008,-0.90821 0.65348,-0.67374 1.01367,-1.50347 1.01367,-2.43554 0,-0.94726 -0.29949,-1.73841 -1.01367,-2.41211 -0.66867,-0.71426 -1.44359,-1.10938 -2.33008,-1.10938 z m 73.19336,0 c -0.99285,0 -1.85946,0.39512 -2.5332,1.10938 -0.6737,0.6737 -1.00781,1.46485 -1.00781,2.41211 0,1.01314 0.33426,1.80232 1.00781,2.43554 0.67374,0.59267 1.54035,0.90821 2.5332,0.90821 0.90674,0 1.68128,-0.29513 2.31446,-0.90821 0.67374,-0.67374 1.00976,-1.50347 1.00976,-2.43554 0,-0.94726 -0.39511,-1.73841 -1.10937,-2.41211 -0.67374,-0.71426 -1.38408,-1.10938 -2.21485,-1.10938 z"
             transform="matrix(0.26458334,0,0,0.26458334,227.50845,78.235867)"
             id="path5452" />
        </g>
        <path
           id="path5456"
           transform="matrix(0.26458333,0,0,0.26458333,-7.4083716,-130.40828)"
           d="m 802.75977,140.16992 c -0.35785,-0.0335 -0.72777,0.0441 -1.09375,0.21875 -1.15027,0.54899 -2.30058,2.01789 -3.60157,4.25977 -1.019,1.756 -1.86104,3.4986 -3.30664,6.79883 -0.68867,1.57223 -1.32889,2.99915 -1.80859,4.04492 -0.24,0.52288 -0.44063,0.95287 -0.58399,1.24804 -0.051,0.10523 -0.082,0.17528 -0.11718,0.24415 -0.0862,0.006 -0.1789,0.007 -0.31836,0.0137 -0.35717,0.017 -0.87395,0.0358 -1.51953,0.0527 -1.29113,0.034 -3.09288,0.0667 -5.18946,0.0957 -4.19323,0.058 -9.55128,0.10273 -14.29882,0.10352 -14.42378,0.002 -34.83457,-0.38083 -49.55469,-0.93164 -0.4419,-0.0166 -0.85881,-0.0303 -1.17383,-0.0371 -0.15761,-0.003 -0.29197,-0.005 -0.39258,-0.006 -0.0503,-1.8e-4 -0.0887,-8.1e-4 -0.125,0 -0.0378,8.1e-4 -0.0382,-0.005 -0.14062,0.0137 -0.28347,0.0535 -0.38875,0.16978 -0.51563,0.29492 -0.12699,0.12511 -0.23949,0.24911 -0.31055,0.48047 -0.20787,0.67328 0.30147,1.35222 0.98243,1.44727 h 0.008 c 0.0896,0.0125 0.10599,0.009 0.1914,0.0137 0.0854,0.005 0.19812,0.01 0.33985,0.0156 0.28346,0.0125 0.67368,0.0331 1.14453,0.0508 0.94171,0.0355 2.20335,0.0816 3.54297,0.12695 2.67923,0.0908 5.67846,0.17876 7.10742,0.21289 0.72499,0.0174 4.01234,0.10349 6.1875,0.16211 2.05852,0.0555 10.91767,0.23704 13.4707,0.27344 6.06531,0.0863 13.01787,0.1507 15.35547,0.14843 0.3885,-3.7e-4 1.85774,0.005 3.26172,0.008 6.80788,0.0129 15.22512,-0.0689 20.41211,-0.19922 0.17991,-0.005 0.31007,-0.005 0.46484,-0.008 -0.16743,0.36291 -0.38213,0.8292 -0.67187,1.44531 -0.62982,1.33935 -1.52235,3.21883 -2.55469,5.38281 -0.80606,1.68974 -1.86575,3.92242 -2.36133,4.96094 -2.10587,4.41388 -3.7318,7.94087 -4.48242,9.76562 -0.22715,0.55203 -0.50209,1.23686 -0.61914,1.52149 -0.093,0.22564 -0.138,0.32183 -0.28125,0.52344 -0.14324,0.2016 -0.39268,0.4999 -0.84765,1.04101 -3.26707,3.88505 -5.63851,6.15623 -7.10157,6.93164 -0.47081,0.24953 -0.68863,0.26165 -0.66406,0.2793 -0.0227,-0.054 -0.059,-0.14572 -0.0957,-0.31641 -0.12019,-0.55998 -0.11495,-1.637 0.0801,-3.12304 0.19503,-1.48605 0.56285,-3.3963 1.09961,-5.69922 0.16366,-0.7024 0.67815,-2.79046 1.13672,-4.6211 0.82972,-3.31426 1.30515,-5.27482 1.55078,-6.59179 0.24567,-1.31698 0.25899,-2.02753 0.1543,-2.70118 -0.3964,-2.54908 -3.02358,-4.58648 -6.39258,-5.25585 -2.66252,-0.52902 -5.63843,-0.21963 -8.36328,0.85546 -0.8208,0.32383 -1.34943,0.62958 -2.02929,1.17383 -0.87508,0.70058 -1.73324,2.02426 -2.5918,3.24805 0.37871,-1.70709 0.84993,-3.85951 0.9375,-4.52539 0.0703,-0.53486 -0.24669,-1.05595 -0.76758,-1.2168 -0.23131,-0.0716 -0.39097,-0.10613 -0.67969,-0.0234 -0.22223,0.064 -0.54719,0.29513 -0.67187,0.58399 -0.12473,0.28887 -0.17864,0.61876 -0.28711,1.20312 -0.98763,5.32704 -2.10343,9.16128 -3.66211,12.61524 -1.40043,3.10301 -3.17708,5.83322 -5.25586,8.09765 -1.43717,1.56548 -2.45043,2.36718 -5.0332,3.96485 -3.12673,1.93412 -5.48894,2.62808 -7.61133,2.33203 -2.47718,-0.34553 -4.61531,-2.2274 -6.18555,-5.63086 -0.10583,-0.22964 -0.19816,-0.45306 -0.25976,-0.61328 0.0529,-0.0476 0.0977,-0.0857 0.16992,-0.14844 0.23508,-0.20402 0.56232,-0.47293 0.91601,-0.75977 6.27315,-5.08775 9.61542,-9.09606 10.59961,-12.92578 0.58496,-2.27627 0.73726,-3.89261 0.47266,-5.40429 -0.25777,-1.47228 -0.98049,-2.62488 -2.04492,-3.27735 -1.06443,-0.65247 -2.43426,-0.78898 -3.89649,-0.37695 -2.81854,0.79426 -5.44287,3.34832 -7.375,6.99805 -0.70571,1.33309 -1.03754,2.16963 -1.60156,4.00195 -0.591,1.92133 -0.83086,3.069 -0.95313,4.59961 -0.17007,2.13202 0.0299,3.64095 0.79688,6.02344 0.0612,0.1898 0.11656,0.35664 0.15625,0.49414 -0.0832,0.0661 -0.17461,0.13089 -0.30273,0.22851 -0.33449,0.25452 -0.79929,0.60281 -1.33008,0.99024 -1.0616,0.77484 -2.37551,1.71044 -3.38672,2.40625 -1.0218,0.70303 -2.18978,1.49024 -3.10938,2.0957 -0.38925,0.25629 -0.69833,0.45559 -0.96679,0.62695 -0.13153,-1.60789 -0.5982,-4.83887 -1.01172,-6.90039 -0.58889,-2.93616 -1.41591,-6.30238 -2.43555,-9.92187 l -0.25781,-0.91602 0.36133,-0.50976 c 1.70369,-2.39368 3.26204,-5.06225 4.09765,-7.03516 0.21733,-0.51289 0.42182,-1.15276 0.58203,-1.75586 0.16026,-0.60311 0.2737,-1.13381 0.28125,-1.54297 0.0302,-1.66335 -0.7467,-3.12538 -2.10351,-3.80859 -1.9841,-0.99911 -4.76137,-0.33986 -6.45899,1.42383 -0.72827,0.75672 -1.27879,1.88904 -1.42578,2.93164 -0.0945,0.67083 -0.0801,1.34793 0.14063,2.43554 0.22072,1.08762 0.64017,2.61571 1.36523,5.13086 0.1954,0.67774 0.37033,1.30548 0.49414,1.76368 0.062,0.22907 0.11669,0.41875 0.14844,0.54687 -0.034,0.0462 -0.0645,0.0832 -0.11133,0.14649 -0.13946,0.18829 -0.33164,0.44104 -0.53906,0.70898 -4.71689,6.09109 -10.55807,11.65944 -15.77344,15.05273 -2.27599,1.48089 -4.14973,2.28712 -5.85547,2.55274 -3.10318,0.48329 -5.57005,-0.84085 -7.54297,-4.13281 l -0.0234,-0.0371 0.38476,-0.35547 c 2.04303,-1.90458 4.11463,-4.22331 5.6543,-6.33203 2.33934,-3.20399 3.94806,-6.43475 4.73828,-9.56055 0.83369,-3.29727 0.67379,-5.84272 -0.67773,-7.45508 -0.47513,-0.56684 -0.95272,-0.89962 -1.66992,-1.16016 -0.83815,-0.30425 -1.56195,-0.36108 -2.50196,-0.21289 -2.68781,0.4237 -5.38561,2.65522 -7.38086,5.91993 -0.93528,1.53016 -1.50955,2.77747 -2.13476,4.6289 -1.09248,3.23394 -1.44955,6.31802 -0.97461,8.8125 0.24491,1.2865 0.97397,3.50971 1.5957,4.90235 l 0.13281,0.30273 -0.90039,0.73828 c -2.49989,2.04317 -4.39296,3.31889 -6.70312,4.5332 -2.36863,1.24506 -3.21511,1.49484 -5.18946,1.52735 -1.15105,0.0189 -1.50589,-0.0256 -2.56835,-0.35352 -0.85894,-0.26475 -0.89294,-0.27797 -1.19727,-0.49609 -1.14524,-0.82042 -1.54302,-1.9555 -1.29883,-4.02344 0.0881,-0.74715 0.47284,-2.10263 0.9082,-3.12109 1.64108,-3.83889 5.13203,-9.76172 9.47852,-16.05664 0.82942,-1.20117 0.95304,-1.35378 1.49219,-1.85938 1.36104,-1.27643 1.96465,-1.99185 2.27343,-2.80469 0.10999,-0.28917 0.17768,-0.53372 0.17579,-0.79882 -0.002,-0.2651 -0.12208,-0.55285 -0.30274,-0.73047 -0.46643,-0.45837 -1.24525,-0.42567 -1.74219,0 -0.40743,0.34896 -0.97931,1.07507 -1.82226,2.20117 -0.19805,0.2643 -0.39848,0.51582 -0.55469,0.71484 -0.15609,0.19903 -0.31728,0.39076 -0.27344,0.34766 -0.27515,0.26876 -1.48168,1.20214 -2.85547,2.19922 -1.37378,0.99708 -2.95755,2.10022 -4.13476,2.86523 -1.30118,0.84563 -1.75362,1.13613 -3.02539,1.94141 -0.77344,0.48975 -1.53423,0.96486 -1.64649,1.0332 -1.37639,0.83769 -1.94552,1.11131 -2.50976,1.35742 l 0.0586,-0.20703 c 0.4266,-1.55269 0.59692,-2.5443 0.64258,-3.875 0.10696,-3.12877 -0.93345,-5.66573 -2.99023,-6.97656 -0.61713,-0.39335 -1.61979,-0.69777 -2.35547,-0.72266 -1.37122,-0.0461 -2.68086,0.46882 -3.64649,1.43946 -1.42117,1.42805 -1.95633,3.71525 -1.54882,6.15625 0.4312,2.58293 1.72132,4.79529 3.60156,6.05273 0.75171,0.50272 1.62432,0.7381 2.58398,0.91602 -0.0567,0.0939 -0.098,0.16264 -0.17773,0.29492 -0.97693,1.6235 -2.61987,3.30622 -4.28907,4.38477 -1.12089,0.72425 -3.43723,1.82266 -5.68359,2.67187 -0.55185,0.20859 -1.47808,0.53048 -2.25976,0.79102 -0.14967,0.0498 -0.24691,0.0807 -0.38282,0.125 1.4928,-2.87397 2.68647,-6.3855 3.13672,-9.50782 0.15194,-1.05188 0.23992,-2.36234 0.20703,-3.15234 -0.18822,-4.29133 -2.81542,-8.41931 -6.47461,-10.10547 -0.78308,-0.36087 -2.06296,-0.70216 -2.86328,-0.74609 -1.78076,-0.0978 -3.25441,0.23705 -4.92383,1.11523 -1.40821,0.74078 -2.45144,1.55001 -3.77148,2.91602 -0.90705,0.93863 -1.91544,2.59679 -2.89453,4.08203 0.57233,-2.04702 1.04028,-3.81296 1.24805,-4.99805 0.23773,-1.35645 0.30815,-2.19263 -0.0312,-2.83398 -0.0612,-0.11539 -0.1406,-0.25776 -0.30274,-0.36914 -0.16214,-0.11135 -0.30847,-0.13547 -0.44922,-0.16211 -0.27175,-0.0515 -0.60604,-0.0107 -0.83398,0.13281 -0.21166,0.13209 -0.37915,0.3788 -0.44336,0.62695 -0.0643,0.24817 -0.069,0.50419 -0.0527,0.82617 0.0608,1.14828 -0.65158,4.23483 -2.42773,9.81055 -1.75514,5.51002 -2.31273,7.07385 -3.31445,9.33203 -4.26871,9.62217 -9.18157,22.54105 -13.41211,35.24024 l -0.34766,1.02734 0.58399,0.26563 0.10937,0.0508 h 0.0234 c 0.14778,0.0597 0.31716,0.12159 0.50976,0.18554 l 0.85547,0.28711 0.31836,-0.7539 c 0.27099,-0.62805 2.3105,-5.72394 3.71875,-9.29297 2.57163,-6.51713 4.41983,-11.59411 6.44531,-17.02344 0.054,0.32175 0.17153,0.68033 0.32422,0.96875 0.70976,1.34152 2.30467,2.15369 4.38477,2.53906 2.08014,0.38538 4.69287,0.33944 7.58984,-0.16211 2.31886,-0.40141 3.63022,-0.77539 4.95899,-1.43359 2.26488,-1.12194 4.31089,-2.97827 6.19336,-5.57227 l 0.32617,-0.44335 1.29101,-0.37696 c 3.8668,-1.12812 7.96354,-2.85433 10.06836,-4.27344 2.24844,-1.51593 4.00223,-3.45222 5.32227,-5.87695 l 0.31055,-0.56836 0.27343,-0.0664 c 0.65261,-0.16029 1.42067,-0.43265 2.07422,-0.73829 0.72495,-0.33902 2.59134,-1.49552 4.7168,-2.85546 1.63631,-1.04697 3.13676,-2.07046 4.48828,-2.99805 -2.36277,3.62978 -4.78462,7.66081 -6.12695,10.38672 -0.84008,1.70606 -1.15625,2.46298 -1.58008,3.82422 -0.42422,1.36244 -0.50558,1.81594 -0.56836,2.95898 -0.12208,2.22917 0.6279,4.03504 2.14844,5.1543 1.5205,1.11926 3.73047,1.55639 6.48242,1.32812 0.91835,-0.0762 1.58681,-0.23052 2.54492,-0.57617 2.68471,-0.96851 6.27204,-3.22205 9.67773,-6.03906 0.16706,-0.13822 0.29748,-0.2444 0.42969,-0.35352 0.0386,0.0581 0.0674,0.0974 0.10938,0.16211 1.10823,1.70219 2.40198,2.96671 3.91406,3.8086 0.83021,0.4622 2.14444,0.88486 3.07031,0.98242 2.80456,0.29556 5.8152,-0.68322 9.22656,-2.90821 5.30374,-3.45922 10.90488,-8.70914 15.67188,-14.68359 0.16479,-0.20663 0.23194,-0.30389 0.36914,-0.47851 0.0816,0.28671 0.11483,0.37491 0.28906,1.01171 1.63968,5.99929 2.68005,11.45082 2.9668,15.44922 l 0.0293,0.36914 -0.34571,0.22071 c -0.91143,0.58294 -4.33258,2.68314 -5.10156,3.13086 -0.20296,0.11814 -0.72261,0.42226 -1.1582,0.67968 -0.43457,0.25694 -0.7742,0.46132 -0.79688,0.47266 l -0.008,0.006 h -0.008 c -0.0661,0.0348 -0.0483,0.0291 -0.10352,0.0606 -0.0552,0.0317 -0.13591,0.0793 -0.22851,0.13281 -0.18558,0.10707 -0.43049,0.24954 -0.70118,0.40625 -2.43303,1.40845 -3.29147,1.88708 -6.12695,3.40234 -0.66516,0.35543 -1.29424,0.68742 -1.77148,0.94531 -0.47724,0.25792 -0.75693,0.4074 -0.88672,0.48633 -3.64452,2.21845 -6.52078,5.66741 -7.58789,9.16211 -0.30614,1.00257 -0.42508,1.78534 -0.39258,2.61328 0.0718,1.74636 0.88684,3.19645 2.40039,4.31055 1.40935,1.03737 3.15841,1.50161 4.9668,1.33594 4.33134,-0.39671 9.55714,-4.07327 15.52539,-10.65235 1.41868,-1.56394 2.09116,-2.51033 2.79687,-3.94922 0.5099,-1.04027 1.27076,-3.52583 1.48438,-4.79882 0.29971,-1.78582 0.44276,-3.81456 0.41211,-5.86719 -0.008,-0.45362 -0.002,-0.73895 0.008,-0.87891 0.0113,-0.009 0.003,-0.007 0.0156,-0.0156 0.082,-0.0559 0.19407,-0.12916 0.33203,-0.2207 0.27552,-0.18316 0.64187,-0.4252 1.0332,-0.67969 2.68603,-1.74692 5.96257,-4.02928 8.12109,-5.6543 0.099,-0.0746 0.17126,-0.12621 0.25782,-0.19141 0.35187,0.74252 1.02287,2.00261 1.37304,2.52344 0.82761,1.23083 1.81061,2.27691 2.85742,3.02735 0.79408,0.56931 1.50707,0.91165 2.50196,1.21875 1.46245,0.45145 2.75954,0.51642 4.37109,0.2207 2.08381,-0.38238 3.81617,-1.1532 6.61328,-2.91602 2.5767,-1.6239 3.94425,-2.79272 5.75781,-4.93164 0.16706,-0.1971 0.44753,-0.6125 0.70118,-0.94336 -0.008,0.0208 -0.008,0.0217 -0.0156,0.043 -0.81131,2.6501 -1.45729,4.95142 -1.77148,6.3125 -0.0563,0.24272 -0.10087,0.40353 -0.10352,0.58985 -0.003,0.18859 0.0701,0.38763 0.13477,0.50976 0.12283,0.23218 0.4157,0.46602 0.67773,0.54688 0.13304,0.041 0.28059,0.0813 0.46485,0.0586 0.18444,-0.0227 0.32242,-0.10479 0.43554,-0.17773 l 0.38477,-0.25 0.29492,-1.13086 c 1.67346,-6.40772 3.47697,-11.79873 5.30078,-15.94336 1.82377,-4.14464 3.68866,-7.03842 5.36719,-8.41602 1.09028,-0.89482 3.6694,-1.71121 5.99219,-1.78711 1.20737,-0.0395 1.9888,0.0567 3.19726,0.39258 1.18972,0.33063 1.68396,0.55219 2.42188,1.08398 0.80296,0.57864 1.37157,1.38033 1.51172,1.98633 0.1387,0.60064 -0.0911,2.29438 -1.23829,6.87891 -1.57303,6.28596 -2.05993,8.39845 -2.42968,10.51172 -0.39712,2.2697 -0.54326,3.94896 -0.38282,5.18945 0.0801,0.62024 0.23773,1.1343 0.50782,1.55078 0.26986,0.41648 0.67145,0.72148 1.13086,0.86328 0.68303,0.21083 1.43672,0.0896 2.24414,-0.30273 0.80742,-0.39226 1.69744,-1.05453 2.76758,-2.00781 0.89975,-0.80148 2.55975,-2.58553 3.77929,-3.96289 0.0265,0.65065 0.0525,1.26529 0.24414,1.91796 0.72185,2.45757 2.58248,4.23503 4.9375,4.65821 1.70861,0.30701 3.44251,-0.0441 5.26367,-1.02539 0.94867,-0.51118 1.41062,-0.8485 3.22657,-2.39258 6.97549,-5.93118 16.41369,-14.65741 20.9707,-19.38477 0.12435,-0.12888 0.2177,-0.21412 0.32617,-0.32422 0.0646,0.21767 0.12155,0.41968 0.20508,0.70899 0.24983,0.86794 0.56675,1.99272 0.84961,3.04101 1.14667,4.24933 1.91847,7.77153 2.39844,10.88086 0.12056,0.78126 0.23016,1.54929 0.30273,2.13282 0.0378,0.29178 0.0658,0.53551 0.082,0.70898 0.002,0.0257 0.004,0.0362 0.008,0.0586 -0.0438,0.0344 -0.0786,0.0564 -0.14062,0.10352 -0.21317,0.16226 -0.5239,0.39443 -0.91406,0.67969 -0.78032,0.57051 -1.87264,1.3578 -3.11524,2.24414 -2.48519,1.77266 -5.58222,3.94981 -8.03906,5.64648 -4.44669,3.07061 -4.72299,3.27918 -6.07617,4.48828 -2.41251,2.1557 -4.43426,4.64282 -5.625,6.94727 -0.48537,0.93716 -0.98024,2.49374 -1.01172,3.40234 -0.034,0.93456 0.13584,1.76035 0.53125,2.50977 0.27402,0.51923 0.48111,0.79158 0.98242,1.26367 0.72329,0.68114 1.42974,1.14852 2.23633,1.48242 2.33102,0.96507 5.06544,0.61278 8.07617,-0.9375 3.01074,-1.55028 6.3458,-4.29657 10.02539,-8.21484 2.25188,-2.39786 2.96844,-3.37317 3.82227,-5.18359 0.47879,-1.01406 1.09319,-3.01452 1.32226,-4.27344 0.45842,-2.52164 0.58571,-5.461 0.36914,-8.42188 l -0.0508,-0.66601 0.9668,-0.71485 c 4.07955,-3.02467 8.46211,-6.48751 11.11719,-8.78515 0.37882,-0.32784 0.60856,-0.52947 0.78125,-0.77539 0.17272,-0.24594 0.22983,-0.58847 0.19922,-0.82618 -0.0476,-0.37069 -0.28821,-0.61799 -0.55274,-0.76757 -0.26457,-0.1496 -0.59742,-0.22435 -0.9375,-0.10352 -0.17008,0.0604 -0.15966,0.0801 -0.21484,0.11914 -0.0552,0.039 -0.11405,0.0842 -0.1836,0.13867 -0.13908,0.109 -0.30831,0.24915 -0.48046,0.39844 -2.3757,2.05493 -5.5451,4.59744 -9.07227,7.26367 -0.96586,0.73013 -1.52359,1.1436 -1.9043,1.42578 -0.003,-0.0253 -0.004,-0.0405 -0.008,-0.0664 -0.57498,-4.446 -1.73799,-9.53761 -3.86133,-16.91211 -0.0907,-0.31574 -0.17812,-0.6094 -0.23633,-0.82031 -0.0113,-0.04 -0.0101,-0.0618 -0.0215,-0.0957 0.10696,-0.11943 0.25767,-0.28025 0.41992,-0.45703 2.15838,-2.35003 3.66193,-4.23276 4.65039,-5.82422 0.29783,-0.47768 0.42906,-0.77816 0.65039,-1.48437 l 0.29492,-0.9375 -0.125,-0.78125 c -0.24453,-1.55754 -1.21528,-2.7201 -2.67187,-3.16797 -1.34079,-0.41257 -2.86997,-0.22094 -4.21484,0.49414 -2.0044,1.06583 -3.15825,2.96354 -3.07813,5.12305 0.0378,1.00562 0.38153,2.4947 1.20899,5.36718 l 0.31054,1.0625 -1.1582,1.18946 c -5.07712,5.21048 -13.13536,12.66428 -20.83203,19.26562 -1.64145,1.40791 -2.05824,1.71269 -2.92383,2.17774 -0.80549,0.43274 -1.3491,0.63378 -2.05859,0.76171 -0.93907,0.1694 -1.21917,0.15058 -2.11133,-0.12695 -0.71059,-0.22053 -0.70597,-0.21027 -1.07031,-0.47851 -0.54596,-0.40199 -0.93486,-0.85042 -1.26368,-1.46875 -0.35074,-0.65893 -0.44204,-0.92935 -0.56836,-1.71289 -0.15269,-0.94477 -0.0644,-2.02955 0.27344,-3.12305 0.1954,-0.63496 0.15382,-0.54963 0.50196,-0.98242 5.07257,-6.30445 11.86848,-16.2948 15.94531,-23.4375 0.19275,-0.33721 0.37228,-0.64886 0.50195,-0.8711 0.034,-0.0574 0.0556,-0.0879 0.082,-0.13281 0.0302,-0.001 0.0512,0.002 0.0879,0 0.21581,-0.009 0.5111,-0.018 0.83399,-0.0293 1.67712,-0.0601 4.13984,-0.18436 6.28125,-0.30273 1.07074,-0.0592 2.06729,-0.11928 2.83593,-0.16992 0.76868,-0.0506 1.28058,-0.0815 1.52735,-0.11719 0.89507,-0.12941 1.27283,-1.27705 0.62695,-1.91211 -0.12548,-0.12321 -0.38339,-0.28228 -0.64062,-0.31055 -0.25739,-0.0283 -0.52943,-0.006 -1.02735,0.0293 -1.8449,0.13149 -4.38199,0.27042 -6.45117,0.36914 -1.03461,0.0494 -1.95138,0.091 -2.60547,0.11133 -0.0922,0.003 -0.13396,0.006 -0.21484,0.008 10e-4,-0.002 -10e-4,-0.006 0,-0.008 0.55366,-1.03979 1.2369,-2.45507 1.64648,-3.41797 0.82462,-1.93811 1.81612,-5.227 2.20703,-7.33789 0.29443,-1.58871 0.38019,-2.8299 0.22266,-3.78711 -0.15761,-0.95721 -0.6426,-1.69713 -1.41797,-1.94141 v 0.002 c -0.11608,-0.0364 -0.23423,-0.0611 -0.35351,-0.0723 z m -0.4961,2.70117 c 0.0633,0.62077 0.0339,1.48462 -0.22851,2.92188 -0.18369,1.00028 -1.28432,4.77203 -1.72657,5.89844 -0.30689,0.78198 -0.92941,2.11346 -1.49218,3.24804 -0.2812,0.5673 -0.54412,1.09101 -0.75196,1.46875 -0.10053,0.18282 -0.18959,0.3281 -0.25195,0.42774 -0.0854,0.005 -0.17669,0.01 -0.30859,0.0156 -0.32089,0.0144 -0.75923,0.0293 -1.23243,0.043 l -1.08593,0.0293 0.008,0.008 c -0.14324,0.005 -0.3102,0.0122 -0.41406,0.0156 0.20107,-0.43635 0.46206,-0.99566 0.8789,-1.92774 0.53322,-1.19239 1.11105,-2.50641 1.41016,-3.19531 1.13068,-2.6039 2.21267,-4.76889 3.16602,-6.3711 0.82891,-1.39305 1.50744,-2.14048 2.02929,-2.58203 z m 15.88672,15.13868 c 0.59271,-0.0163 1.03987,0.12899 1.35156,0.36914 0.31181,0.24015 0.51223,0.58494 0.58203,1.08593 0.0688,0.49549 0.0498,0.6141 -0.25781,1.20313 -0.55105,1.05609 -1.64262,2.52253 -3.34375,4.47265 -0.32995,0.37827 -0.56609,0.64452 -0.79101,0.89258 l -0.0801,-0.27343 c -0.64093,-2.23683 -0.97239,-3.7818 -0.99805,-4.45118 -0.004,-0.13356 0.0552,-0.49729 0.16406,-0.83984 0.10885,-0.34254 0.26694,-0.68994 0.38282,-0.85742 0.61719,-0.89018 1.87501,-1.57096 2.99023,-1.60156 z m -21.64453,1.16601 c -0.12246,0.21472 -0.24325,0.42185 -0.39844,0.6875 -2.54063,4.35055 -6.13656,9.64426 -9.46289,14.32813 0.9281,-1.96468 1.96069,-4.13722 3.38867,-7.125 0.85251,-1.78354 2.05785,-4.33302 2.68555,-5.66797 0.31294,-0.66562 0.60293,-1.27364 0.8125,-1.71289 0.0903,-0.18913 0.15777,-0.32492 0.21484,-0.44336 0.0987,-0.004 0.20076,-0.01 0.33985,-0.0137 0.36926,-0.0113 0.85034,-0.0258 1.33594,-0.0371 0.39431,-0.009 0.75652,-0.01 1.08398,-0.0156 z m -85.22266,0.41992 v 0.002 c -0.2594,0.0732 -0.52197,0.15199 -0.78125,0.23437 0.17615,-0.0818 0.35723,-0.1505 0.54297,-0.20898 0.0797,-0.011 0.15863,-0.0103 0.23828,-0.0274 z m 1.09961,0.31836 c 0.43608,0.008 1.10061,0.29875 1.29102,0.49414 0.31521,0.32349 0.51468,0.90178 0.47265,1.59571 -0.0401,0.66416 -0.39097,1.78006 -1.04101,3.13671 -0.65004,1.35666 -1.58516,2.96642 -2.75391,4.7168 -0.0189,0.0284 -0.033,0.0465 -0.0508,0.0742 -0.13909,-0.45078 -0.30676,-1.00571 -0.48633,-1.63867 -0.39647,-1.39733 -0.82107,-3.0153 -0.98242,-3.77344 -0.25512,-1.19806 -0.22153,-1.83854 0.0801,-2.50195 0.55612,-1.22332 2.02964,-2.12962 3.4707,-2.10352 z m -26.49414,3.83203 c 0.65329,0.0696 1.09244,0.37212 1.41797,0.95899 0.32542,0.58688 0.50124,1.48968 0.43555,2.6582 -0.059,1.04901 -0.20253,1.72543 -0.70899,3.37305 -0.49496,1.61194 -0.67938,2.07862 -1.34375,3.41015 -1.64553,3.29844 -4.53524,7.07009 -7.81054,10.17188 -0.0752,0.071 -0.13081,0.11492 -0.19922,0.17773 -0.0635,-0.15329 -0.12363,-0.29152 -0.19922,-0.49414 -0.23358,-0.62405 -0.49844,-1.43285 -0.70703,-2.14843 -0.46473,-1.59466 -0.5732,-2.43905 -0.4961,-3.92774 0.0805,-1.55037 0.32854,-2.87146 0.87891,-4.64258 0.68632,-2.20726 1.55068,-3.97948 2.73242,-5.61718 1.92174,-2.66312 4.31044,-4.0999 6,-3.91993 z m 48.76758,0.33399 c 0.66615,0.0228 1.12073,0.28231 1.45898,0.75781 0.45098,0.634 0.67563,1.77016 0.50196,3.35938 -0.17008,1.5535 -0.77517,3.53701 -1.37305,4.59765 -1.50678,2.67262 -4.27664,5.6499 -8.68164,9.25781 -0.28346,0.23211 -0.52428,0.42223 -0.73828,0.58985 -0.0378,-0.11743 -0.063,-0.20957 -0.10156,-0.3457 -0.15194,-0.53391 -0.31346,-1.17497 -0.37696,-1.52149 -0.36208,-1.97156 -0.13609,-4.32764 0.72266,-7.10937 0.57736,-1.87075 1.17819,-3.2025 2.14844,-4.76758 1.6521,-2.66495 3.89653,-4.45756 5.69922,-4.76172 0.27228,-0.0459 0.51818,-0.0642 0.74023,-0.0566 z m -104.23047,1.04297 c 0.24967,-0.005 0.49606,0.007 0.74024,0.0332 h 0.002 c 0.41594,0.0445 1.70302,0.45051 2.1543,0.69336 2.05549,1.10602 3.73984,3.29236 4.46679,5.85351 0.40453,1.42481 0.46171,2.58407 0.19922,4.60547 -0.21014,1.61489 -0.48239,2.73432 -1.14453,4.76172 -0.78081,2.39342 -1.42441,3.85047 -2.49609,5.64063 l -0.33204,0.55273 -0.25781,0.0664 c -3.58635,0.92226 -7.30801,1.54082 -13.2207,2.18554 -3.44462,0.37561 -3.72481,0.41382 -4.89453,0.60547 -1.45236,0.2377 -2.44454,0.51498 -3.13086,1.01172 0.82273,-2.22577 1.98221,-5.11979 2.71094,-7.16015 0.37905,-1.06136 0.66235,-1.73495 1.23242,-2.93946 2.6129,-5.51987 4.8689,-9.3985 6.7539,-11.65625 0.40566,-0.48582 1.43991,-1.54719 1.875,-1.92578 1.72951,-1.50552 3.59413,-2.29449 5.3418,-2.32812 z m 18.38086,0.71875 c 0.63897,0.0279 1.21233,0.29003 1.70898,0.75976 0.66225,0.62632 1.17043,1.64015 1.34376,2.93164 0.23281,1.73702 -0.0642,4.07059 -0.7754,6.00196 l -0.16992,0.47851 c -0.0771,1.9e-4 -0.32859,-0.007 -0.53125,-0.0293 -1.58339,-0.17541 -2.82745,-1.13008 -3.74414,-2.97461 -0.97402,-1.95967 -1.0539,-4.4044 -0.3164,-5.72852 0.38573,-0.69257 1.16247,-1.26157 1.82226,-1.38867 0.22708,-0.0438 0.44912,-0.0601 0.66211,-0.0508 z m -16.9375,24.25586 v 0.002 c -0.12964,0.1429 -0.25487,0.28476 -0.37695,0.41211 -1.13205,1.18051 -2.1523,1.95582 -3.4336,2.62109 -1.21923,0.6331 -2.56132,1.01312 -4.86328,1.37305 -2.35691,0.36847 -4.50693,0.41323 -6.1875,0.14062 -0.27061,-0.0439 -0.6912,-0.14035 -1.0625,-0.24414 -0.37153,-0.10382 -0.73879,-0.24651 -0.75976,-0.25781 -0.42509,-0.22881 -0.67541,-0.37253 -0.82032,-0.48828 -0.14475,-0.11573 -0.20415,-0.19474 -0.3164,-0.38281 -0.10054,-0.16846 -0.10497,-0.33952 -0.125,-0.35547 0.0227,-0.0144 0.0339,-0.0201 0.0664,-0.0371 0.15156,-0.0761 0.38538,-0.16108 0.65625,-0.23633 0.66339,-0.18433 2.36997,-0.44801 4.6211,-0.69336 5.16601,-0.56302 7.25182,-0.83384 9.66992,-1.26172 1.00513,-0.17786 2.01,-0.3953 2.93164,-0.59179 z m 186.79883,0.62109 c 0.0151,0.30085 0.0182,0.53018 0.0371,1.18945 0.10923,4.38636 -0.56651,7.86973 -1.98633,10.45899 -0.63148,1.15171 -1.29289,1.9578 -3.45508,4.21484 -5.77032,6.0236 -10.48038,8.7948 -13.76562,8.48242 -1.11837,-0.10635 -2.02813,-0.54276 -2.91016,-1.40234 -0.76082,-0.74135 -0.93867,-1.40441 -0.67187,-2.66602 0.34053,-1.60952 1.74358,-3.93201 3.86132,-6.20703 1.96041,-2.10598 2.72621,-2.71239 7.61914,-6.08398 3.27338,-2.25562 6.48786,-4.52222 9.50782,-6.70899 0.63673,-0.46107 1.22324,-0.88917 1.66015,-1.20312 0.0427,-0.0306 0.0638,-0.0458 0.10352,-0.0742 z m -105.91602,3.79492 c -7e-5,0.0921 8.3e-4,0.15698 0,0.25781 -0.004,0.559 -0.0196,1.22661 -0.0449,1.66797 -0.11716,2.08318 -0.35757,3.49739 -0.87109,5.16797 -0.56051,1.82487 -1.17965,3.05635 -2.10352,4.19922 -1.19149,1.47401 -3.84296,4.20678 -5.7207,5.88477 -4.08877,3.65377 -7.57806,5.39531 -10.23828,5.31445 -7.2e-4,-2e-5 -0.008,3e-5 -0.008,0 -0.10847,-0.004 -0.57569,-0.0944 -0.99609,-0.20703 -0.42338,-0.11339 -0.87463,-0.27737 -0.94531,-0.31641 -0.76717,-0.42408 -1.50886,-1.14751 -1.78711,-1.66992 -0.51371,-0.96493 -0.42494,-2.457 0.30273,-4.14062 0.7276,-1.68362 2.06697,-3.52354 3.85352,-5.12305 1.19921,-1.07362 1.81232,-1.47083 4.17187,-2.7168 3.53564,-1.86703 6.67762,-3.65048 11.27149,-6.40039 0.48608,-0.29091 1.91089,-1.16924 3.11523,-1.91797 z m 89.20313,20.80078 c -0.11064,0.0287 -0.22307,0.0639 -0.33203,0.0879 -0.0135,0.002 -0.0255,-2e-4 -0.0391,0.002 0.12151,-0.0218 0.24838,-0.0637 0.3711,-0.0899 z"
           style="fill:#000000;stroke:none;stroke-width:1.21314514;stroke-miterlimit:4;stroke-dasharray:none;stroke-opacity:1"
           inkscape:connector-curvature="0" />
      </g>
      <g
         style="stroke-width:1.21123779"
         transform="matrix(0.98065562,0,0,0.98081546,69.291276,44.72186)"
         id="g5448">
        <g
           id="g4637-4-5"
           transform="matrix(0.47276065,0,0,0.47276065,-47.703807,-151.02792)"
           style="fill:#ffffff;fill-opacity:1;stroke-width:2.02840018"
           inkscape:export-filename="/Users/logan/Dropbox/SPLITelevision/Logo/Green-L.png"
           inkscape:export-xdpi="403.31766"
           inkscape:export-ydpi="403.31766">
          <path
             transform="matrix(0.26458334,0,0,0.26458334,227.50845,78.235867)"
             id="path4617-2-4"
             d="m 466.26367,210.58398 -5.34375,1.30664 14.62305,58.55274 -2.51172,1.91992 -1.91992,2.01563 3.83984,3.83984 2.01563,-1.91992 c 1.08911,-1.08911 2.35559,-1.6211 3.83984,-1.6211 1.46397,0 2.79073,0.53199 3.93555,1.6211 l 2.02148,1.91992 3.81445,-3.83984 -1.89843,-2.01563 c -0.81049,-0.71426 -1.64165,-1.36777 -2.53321,-1.91992 l 14.64454,-58.55274 -5.35938,-1.30664 -14.625,58.13672 z m -129.09765,0.61719 c -0.74975,0 -1.44319,0.25399 -2.01563,0.79102 -0.55215,0.55216 -0.81055,1.20567 -0.81055,1.91992 0,0.76997 0.25821,1.44321 0.81055,2.01562 0.57244,0.55215 1.26588,0.81055 2.01563,0.81055 0.83074,0 1.44373,-0.25855 1.91992,-0.81055 0.49644,-0.57241 0.81054,-1.24565 0.81054,-2.01562 0,-0.75477 -0.3141,-1.40832 -0.81054,-1.91992 -0.51164,-0.53695 -1.12463,-0.79102 -1.91992,-0.79102 z m 5.44531,0 v 2.71094 c 0,1.77804 -0.49584,3.08475 -1.50391,4.03711 -0.99285,0.98778 -2.27988,1.51953 -3.9414,1.51953 h -2.82618 v 22.00391 h 2.82618 c 1.17014,0 2.21852,0.37662 3.22656,1.00976 1.46396,0.97259 2.21875,2.4556 2.21875,4.55274 0,1.75778 -0.49584,3.16724 -1.50391,4.13476 -0.99285,0.97258 -2.27988,1.40235 -3.9414,1.40235 h -2.82618 v 22.10546 h 2.82618 c 1.17014,0 2.21852,0.37666 3.22656,1.00977 1.46396,0.98782 2.21875,2.45168 2.21875,4.54883 v 2.73047 h 30.49023 v -5.5586 h -25.24609 c -0.4154,-2.17821 -1.40955,-3.90033 -2.91406,-5.14648 -1.51968,-1.30692 -3.1656,-2.21377 -5.04493,-2.73047 v -11.71094 c 1.87933,-0.49644 3.50625,-1.32639 4.92969,-2.51172 1.60074,-1.42851 2.6139,-3.30827 3.0293,-5.5625 h 8.58594 v -5.3457 h -8.58594 c -0.4154,-2.27448 -1.34853,-4.09174 -2.8125,-5.33789 -1.48422,-1.30692 -3.18613,-2.23989 -5.14649,-2.73633 v -11.61523 c 2.15796,-0.45086 3.96106,-1.51923 5.44532,-3.125 1.16508,-1.42345 2.01723,-3.02404 2.51367,-4.84766 h 25.24609 v -5.53711 z m 33.91406,0 v 63.47656 h 2.82813 c 1.17018,0 2.21852,0.37666 3.22656,1.00977 1.46396,0.98782 2.21875,2.45168 2.21875,4.54883 v 2.73047 h 30.49023 v -5.5586 h -25.22851 c -0.43567,-2.17821 -1.42829,-3.90033 -2.92774,-5.14648 -1.52474,-1.30692 -3.16639,-2.21377 -5.05078,-2.73047 v -58.33008 z m 45.01953,0 c -0.75477,0 -1.42877,0.25399 -2.02148,0.79102 -0.55215,0.55216 -0.81055,1.20567 -0.81055,1.91992 0,0.76997 0.25859,1.44321 0.81055,2.01562 0.59271,0.55215 1.26671,0.81055 2.02148,0.81055 0.85104,0 1.44295,-0.25855 1.91406,-0.81055 0.5167,-0.57241 0.81641,-1.24565 0.81641,-2.01562 0,-0.75477 -0.29982,-1.40832 -0.81641,-1.91992 -0.49137,-0.53695 -1.1238,-0.79102 -1.91406,-0.79102 z m 5.46094,0 v 2.71094 c 0,1.77804 -0.51731,3.08475 -1.52539,4.03711 -0.96752,0.98778 -2.25373,1.51953 -3.93555,1.51953 h -2.83203 v 22.00391 h 2.83203 c 1.16512,0 2.23221,0.37662 3.24024,1.00976 1.46397,0.97259 2.2207,2.4556 2.2207,4.55274 0,1.75778 -0.51731,3.16724 -1.52539,4.13476 -0.96752,0.97258 -2.25373,1.40235 -3.93555,1.40235 h -2.83203 v 22.10546 h 2.83203 c 1.16512,0 2.23221,0.37666 3.24024,1.00977 1.46397,0.98782 2.2207,2.45168 2.2207,4.54883 v 2.73047 h 30.46875 v -5.5586 h -25.22656 c -0.41541,-2.17821 -1.40297,-3.90033 -2.92774,-5.14648 -1.50448,-1.30692 -3.14529,-2.21377 -5.04492,-2.73047 v -11.71094 c 1.89963,-0.49644 3.51991,-1.32639 4.94336,-2.51172 1.6058,-1.42851 2.61389,-3.30827 3.0293,-5.5625 h 8.58593 v -5.3457 h -8.58593 c -0.41541,-2.27448 -1.36807,-4.09174 -2.83203,-5.33789 -1.48422,-1.30692 -3.16503,-2.23989 -5.14063,-2.73633 v -11.61523 c 2.17315,-0.45086 3.97545,-1.51923 5.43945,-3.125 1.16507,-1.42345 2.03677,-3.02404 2.53321,-4.84766 h 25.22656 v -5.53711 z m 77.30469,0 v 5.53711 h 8.6875 c 0.49644,2.00092 1.42862,3.64174 2.73047,5.04492 1.28671,1.44877 2.98852,2.47688 5.14648,2.92774 v 44.72461 c -2.15796,0.51164 -3.85977,1.51896 -5.14648,3.02343 -1.30185,1.52478 -2.23403,3.14586 -2.73047,4.94922 h -8.6875 v 5.5586 h 13.83593 v -2.73047 c 0,-1.22585 0.37471,-2.25514 1.00782,-3.22266 0.91181,-1.52477 2.39477,-2.33594 4.55273,-2.33594 1.66152,0 3.04539,0.55283 4.0332,1.52539 1.01311,0.96756 1.50391,2.27546 1.50391,4.03321 v 2.73047 h 13.83398 v -5.5586 h -8.59179 c -0.49138,-1.89962 -1.34154,-3.56122 -2.51172,-4.94922 -1.2664,-1.46396 -3.14538,-2.43076 -5.55664,-3.02343 v -44.72461 c 2.17315,-0.45086 4.07242,-1.51923 5.55664,-3.125 1.17018,-1.42345 2.02034,-3.02404 2.51172,-4.84766 h 8.59179 v -5.53711 h -13.83398 v 2.71094 c 0,1.77804 -0.4908,3.08475 -1.50391,4.03711 -0.98781,0.98778 -2.37168,1.51953 -4.0332,1.51953 -1.74259,0 -3.02904,-0.53175 -4.03711,-1.51953 -0.99284,-0.95236 -1.52344,-2.25907 -1.52344,-4.03711 v -2.71094 z m 19.39648,0 c -0.77507,0 -1.44903,0.25399 -2.02148,0.79102 -0.55215,0.55216 -0.81055,1.20567 -0.81055,1.91992 0,0.76997 0.25859,1.44321 0.81055,2.01562 0.57245,0.55215 1.24641,0.81055 2.02148,0.81055 0.83074,0 1.5414,-0.25855 2.01758,-0.81055 0.4964,-0.57241 0.69336,-1.24565 0.69336,-2.01562 0,-0.75477 -0.25815,-1.40832 -0.79492,-1.91992 -0.51163,-0.53695 -1.16631,-0.79102 -1.91602,-0.79102 z m 38.85938,0 c -6.86393,0 -11.97111,2.31407 -15.45118,7.06055 -2.61389,3.44463 -3.93945,7.53847 -3.93945,12.20898 0,3.02921 0.63157,6.05784 2.01953,9.08203 1.42345,3.02925 3.5819,5.52252 6.37305,7.36133 -0.0608,1.06885 0.1579,2.25825 0.59375,3.54492 l 5.14062,-1.7207 c -0.2177,-0.63322 -0.29296,-1.21125 -0.29296,-1.82422 0,-0.45588 0.0756,-0.90617 0.19726,-1.5039 0.15723,-0.63319 0.6329,-1.34384 1.30664,-2.01758 l -4.13867,-3.73828 -1.10938,1.51953 c -1.97558,-1.85911 -3.36259,-4.09239 -4.03124,-6.86328 -0.18218,-0.49644 -0.21757,-1.08943 -0.29883,-1.72266 -0.0609,-0.63318 -0.11796,-1.36242 -0.19922,-2.11719 0,-3.99678 1.13051,-7.22274 3.52148,-9.79101 2.43658,-2.59362 5.89645,-3.94141 10.3086,-3.94141 4.49321,0 7.97797,1.34779 10.29297,3.94141 2.35549,2.56827 3.52148,5.79423 3.52148,9.79101 v 2.73047 h 5.56055 v -2.73047 c 0,-4.41218 -1.38782,-8.50598 -4.03711,-12.20898 -3.50544,-4.74648 -8.62594,-7.06055 -15.33789,-7.06055 z m 19.375,0 v 5.53711 h 8.68359 c 0.49644,2.00092 1.40791,3.64174 2.71484,5.04492 1.30185,1.44877 3.00419,2.47688 5.16211,2.92774 v 44.72461 c -2.15792,0.51164 -3.86026,1.51896 -5.16211,3.02343 -1.30693,1.52478 -2.2184,3.14586 -2.71484,4.94922 h -8.68359 v 5.5586 h 13.83007 v -2.73047 c 0,-1.22585 0.37467,-2.25514 1.00782,-3.22266 0.91181,-1.52477 2.3955,-2.33594 4.5332,-2.33594 1.68177,0 3.06452,0.55283 4.03711,1.52539 1.00807,0.96756 1.52539,2.27546 1.52539,4.03321 v 2.73047 h 13.83008 v -5.5586 h -8.58789 c -0.49645,-1.89962 -1.34664,-3.56122 -2.51172,-4.94922 -1.2664,-1.46396 -3.16647,-2.43076 -5.5625,-3.02343 v -44.72461 c 2.17821,-0.45086 4.07828,-1.51923 5.5625,-3.125 1.16508,-1.42345 2.01527,-3.02404 2.51172,-4.84766 h 8.58789 v -5.53711 H 606.875 v 2.71094 c 0,1.77804 -0.51732,3.08475 -1.52539,4.03711 -0.97259,0.98778 -2.35534,1.51953 -4.03711,1.51953 -1.7223,0 -3.02908,-0.53175 -4.03711,-1.51953 -0.96756,-0.95236 -1.50391,-2.25907 -1.50391,-4.03711 v -2.71094 z m 19.37109,0 c -0.75477,0 -1.42375,0.25399 -2.02148,0.79102 -0.55215,0.55216 -0.78907,1.20567 -0.78907,1.91992 0,0.76997 0.23692,1.44321 0.78907,2.01562 0.59773,0.55215 1.26671,0.81055 2.02148,0.81055 0.85103,0 1.56169,-0.25855 2.01758,-0.81055 0.5167,-0.57241 0.71289,-1.24565 0.71289,-2.01562 0,-0.75477 -0.27862,-1.40832 -0.81055,-1.91992 -0.49644,-0.53695 -1.14996,-0.79102 -1.91992,-0.79102 z m 38.76172,0 c -0.74971,0 -1.42297,0.25399 -2.01563,0.79102 -0.55722,0.55216 -0.81054,1.20567 -0.81054,1.91992 0,0.76997 0.25325,1.44321 0.81054,2.01562 0.59266,0.55215 1.26592,0.81055 2.01563,0.81055 0.83078,0 1.54533,-0.25855 2.02148,-0.81055 0.51163,-0.57241 0.70899,-1.24565 0.70899,-2.01562 0,-0.75477 -0.27371,-1.40832 -0.81055,-1.91992 -0.49644,-0.53695 -1.16515,-0.79102 -1.91992,-0.79102 z m 42.30859,0 c -0.77507,0 -1.44397,0.25399 -2.02148,0.79102 -0.55215,0.55216 -0.81055,1.20567 -0.81055,1.91992 0,0.76997 0.25859,1.44321 0.81055,2.01562 0.57751,0.55215 1.24641,0.81055 2.02148,0.81055 0.83074,0 1.52425,-0.25855 2.01563,-0.81055 0.49644,-0.57241 0.69531,-1.24565 0.69531,-2.01562 0,-0.75477 -0.25855,-1.40832 -0.81055,-1.91992 -0.49644,-0.53695 -1.15069,-0.79102 -1.90039,-0.79102 z m -48.46289,0.39453 -3.125,1.51953 c -3.45982,1.76284 -6.03257,4.27663 -7.67383,7.46289 -1.64632,3.14574 -2.41601,6.45302 -2.41601,9.89258 v 33.20508 c 0,4.41215 1.3473,8.42864 4.03711,12.11133 3.48012,4.76674 8.54411,7.17969 15.33203,7.17969 6.80821,0 12.0524,-2.41295 15.55273,-7.17969 2.55307,-3.48514 3.83985,-7.48133 3.83985,-12.11133 V 230.4707 c 0,-1.68181 -0.25303,-3.36314 -0.70899,-5.04492 -0.43563,-1.68177 -1.08918,-3.28237 -1.91992,-4.84766 -0.85104,-1.60071 -1.8808,-3.06562 -3.12695,-4.33203 -1.23092,-1.26641 -2.65389,-2.27983 -4.23438,-3.13086 l -3.24609,-1.51953 -0.69531,3.43946 c -0.31408,1.24615 -1.00755,2.27982 -2.01563,3.13086 -1.00807,0.84593 -2.1789,1.30273 -3.44531,1.30273 -2.9887,0 -4.70977,-1.50562 -5.33789,-4.43359 z m 42.28906,0 -3.12695,1.51953 c -3.44463,1.76284 -6.03719,4.27662 -7.6582,7.46289 -1.64126,3.14574 -2.43164,6.45302 -2.43164,9.89258 v 52.4961 h 5.55664 v -52.4961 c 0.19767,-1.60074 0.38096,-2.9275 0.59375,-3.93554 0.71422,-2.66959 2.06011,-4.88878 3.93945,-6.67188 2.17821,3.38385 5.24319,5.05078 9.30078,5.05078 3.97651,0 7.08277,-1.66693 9.28125,-5.05078 1.91985,1.82362 3.3026,4.13877 4.03711,6.86914 0.11641,0.51163 0.15645,0.98787 0.19727,1.6211 0.076,0.63318 0.217,1.36747 0.29297,2.11718 v 52.4961 h 5.5625 v -52.4961 c 0,-1.68181 -0.25911,-3.36314 -0.71485,-5.04492 -0.41541,-1.68177 -1.06888,-3.28237 -1.91992,-4.84766 -0.85103,-1.60072 -1.85859,-3.06562 -3.125,-4.33203 -1.22589,-1.26641 -2.64882,-2.27983 -4.23437,-3.13086 l -3.22266,-1.51953 -0.81445,3.43946 c -0.29367,1.24615 -0.90798,2.27982 -1.91602,3.13086 -1.01314,0.84593 -2.17768,1.30273 -3.42383,1.30273 -3.009,0 -4.73006,-1.50562 -5.36328,-4.43359 z m -45.41406,8.26758 c 2.17821,3.38385 5.24201,5.05078 9.2793,5.05078 3.99677,0 7.1081,-1.66693 9.28125,-5.05078 1.94015,1.82362 3.32213,4.13877 4.05664,6.86914 0.11641,0.51163 0.13837,0.98787 0.19922,1.6211 0.0809,0.63318 0.19754,1.36747 0.29883,2.11718 v 33.20508 c 0,4.01703 -1.23132,7.29895 -3.64258,9.89258 -2.35551,2.57333 -5.77927,3.83984 -10.19141,3.83984 -6.78792,0 -11.14043,-2.88759 -13.12109,-8.78906 -0.49138,-1.38289 -0.70899,-3.04377 -0.70899,-4.94336 V 230.4707 c 0.2177,-1.60074 0.39548,-2.9275 0.61329,-3.93554 0.70916,-2.66959 2.03591,-4.88878 3.93554,-6.67188 z m -57.64258,23.82813 -5.33789,1.71875 c 0.15685,0.43566 0.29297,0.9315 0.29297,1.5039 0,0.63323 -0.13612,1.24671 -0.29297,1.82422 -0.14174,0.59267 -0.47619,1.26592 -1.10937,2.01563 l 4.13281,3.73828 1.00781,-1.5 c 1.91989,1.7983 3.30766,4.05256 4.03711,6.84375 0.1217,0.51669 0.16369,1.08946 0.19922,1.72265 0.0809,0.63322 0.19754,1.36242 0.29883,2.11719 0,4.01703 -1.22698,7.29895 -3.62305,9.89258 -2.37577,2.57333 -5.77925,3.83984 -10.1914,3.83984 -6.78285,0 -11.15921,-2.88759 -13.13477,-8.78906 -0.49644,-1.38289 -0.69531,-3.04377 -0.69531,-4.94336 v -2.70898 h -5.56055 v 2.70898 c 0,4.41215 1.34726,8.42864 4.03711,12.11133 3.48518,4.76674 8.57067,7.17969 15.35352,7.17969 6.80822,0 11.93521,-2.41295 15.43554,-7.17969 2.55307,-3.48514 3.93946,-7.48133 3.93946,-12.11133 0,-3.02925 -0.73426,-6.05277 -2.11719,-9.08203 -1.38795,-3.02925 -3.42393,-5.50226 -6.1543,-7.36133 0,-0.97259 -0.17622,-2.15812 -0.51562,-3.54101 h -0.002 z m -235.98632,0.70898 c -1.89963,0 -2.82618,0.83141 -2.82618,2.63477 0,0.85104 0.25821,1.50398 0.81055,2.01562 0.57244,0.47618 1.26588,0.69531 2.01563,0.69531 1.80332,0 2.73046,-0.91263 2.73046,-2.71093 0,-0.77503 -0.3141,-1.32778 -0.81054,-1.82422 -0.51164,-0.53189 -1.12463,-0.81055 -1.91992,-0.81055 z m 84.3789,0 c -1.8844,0 -2.83203,0.83141 -2.83203,2.63477 0,0.85104 0.25859,1.50398 0.81055,2.01562 0.59271,0.47618 1.26671,0.69531 2.02148,0.69531 1.7983,0 2.73047,-0.91263 2.73047,-2.71093 0,-0.77503 -0.29982,-1.32778 -0.81641,-1.82422 -0.49137,-0.53189 -1.1238,-0.81055 -1.91406,-0.81055 z m 141.02149,0 c -1.89959,0 -2.82618,0.83141 -2.82618,2.63477 0,0.85104 0.25855,1.50398 0.81055,2.01562 0.57241,0.47618 1.24566,0.69531 2.01563,0.69531 1.80336,0 2.71484,-0.91263 2.71484,-2.71093 0,-0.77503 -0.25939,-1.32778 -0.81641,-1.82422 -0.49138,-0.53189 -1.14366,-0.81055 -1.89843,-0.81055 z M 337.16602,277.4082 c -0.74975,0 -1.44319,0.27862 -2.01563,0.81055 -0.55215,0.55215 -0.81055,1.22736 -0.81055,2.01758 0,0.85104 0.25821,1.50284 0.81055,2.01953 0.57244,0.47615 1.26588,0.71094 2.01563,0.71094 0.79529,0 1.40828,-0.21453 1.91992,-0.71094 0.49644,-0.53695 0.81054,-1.26472 0.81054,-2.01953 0,-0.79022 -0.27366,-1.46543 -0.81054,-2.01758 -0.55215,-0.5319 -1.2057,-0.81055 -1.91992,-0.81055 z m 42.1875,0 c -0.74971,0 -1.44518,0.27862 -2.01758,0.81055 -0.55216,0.55215 -0.81055,1.22736 -0.81055,2.01758 0,0.85104 0.25858,1.50284 0.81055,2.01953 0.5724,0.47615 1.26787,0.71094 2.01758,0.71094 0.79532,0 1.40632,-0.21453 1.91796,-0.71094 0.49644,-0.53695 0.81055,-1.26472 0.81055,-2.01953 0,-0.79022 -0.27367,-1.46543 -0.81055,-2.01758 -0.55216,-0.5319 -1.20371,-0.81055 -1.91796,-0.81055 z m 42.1914,0 c -0.75477,0 -1.42877,0.27862 -2.02148,0.81055 -0.55215,0.55215 -0.81055,1.22736 -0.81055,2.01758 0,0.85104 0.25859,1.50284 0.81055,2.01953 0.59271,0.47615 1.26671,0.71094 2.02148,0.71094 0.79026,0 1.42269,-0.21453 1.91406,-0.71094 0.5167,-0.53695 0.81641,-1.26472 0.81641,-2.01953 0,-0.79022 -0.27941,-1.46543 -0.81641,-2.01758 -0.55215,-0.5319 -1.20487,-0.81055 -1.91406,-0.81055 z m 59.26172,0 c -0.77506,0 -1.38803,0.27862 -1.91992,0.81055 -0.55722,0.55215 -0.81055,1.22736 -0.81055,2.01758 0,0.85104 0.25329,1.50284 0.81055,2.01953 0.53189,0.47615 1.14486,0.71094 1.91992,0.71094 0.79023,0 1.50399,-0.21453 2.01563,-0.71094 0.53696,-0.53695 0.79101,-1.26472 0.79101,-2.01953 0,-0.79022 -0.31431,-1.46543 -0.88672,-2.01758 -0.55721,-0.5319 -1.21072,-0.81055 -1.91992,-0.81055 z m 42.90039,0 c -0.77507,0 -1.44903,0.27862 -2.02148,0.81055 -0.55215,0.55215 -0.81055,1.22736 -0.81055,2.01758 0,0.85104 0.25859,1.50284 0.81055,2.01953 0.57245,0.47615 1.24641,0.71094 2.02148,0.71094 0.74971,0 1.40439,-0.21453 1.91602,-0.71094 0.53696,-0.53695 0.79492,-1.26472 0.79492,-2.01953 0,-0.79022 -0.25815,-1.46543 -0.79492,-2.01758 -0.55215,-0.5319 -1.20687,-0.81055 -1.91602,-0.81055 z m 77.60547,0 c -0.75477,0 -1.42375,0.27862 -2.02148,0.81055 -0.55215,0.55215 -0.78907,1.22736 -0.78907,2.01758 0,0.85104 0.23692,1.50284 0.78907,2.01953 0.59773,0.47615 1.26671,0.71094 2.02148,0.71094 0.76996,0 1.42348,-0.21453 1.91992,-0.71094 0.5319,-0.53695 0.81055,-1.26472 0.81055,-2.01953 0,-0.79022 -0.27862,-1.46543 -0.81055,-2.01758 -0.55721,-0.5319 -1.21073,-0.81055 -1.91992,-0.81055 z"
             style="fill:#ffffff;fill-opacity:1;fill-rule:nonzero;stroke:none;stroke-width:2.02840018"
             inkscape:connector-curvature="0" />
          <path
             id="path4605-6-3"
             transform="matrix(0.26458334,0,0,0.26458334,227.50845,78.235867)"
             d="m 95.007812,194.53516 c -8.448442,4.6e-4 -14.780848,2.94886 -19.076171,8.78906 -3.206552,4.2551 -4.847657,9.27944 -4.847657,15.03906 0,3.69789 0.892177,7.45766 2.634766,11.20117 1.717229,3.75867 4.310509,6.6652 7.775391,8.87891 -0.101292,1.30692 0.09551,2.81259 0.591797,4.43359 l 6.46875,-2.01562 c -0.25852,-0.74971 -0.414063,-1.54505 -0.414063,-2.21875 0,-0.63323 0.136185,-1.28306 0.318359,-2.01758 0.157228,-0.74974 0.612354,-1.46341 1.503907,-2.31445 l -5.050782,-4.7461 -1.402343,2.01563 c -2.451779,-2.21874 -4.016879,-5.12612 -4.847657,-8.58594 -0.17726,-0.61292 -0.314724,-1.24645 -0.416015,-2.02148 -0.08088,-0.7497 -0.217568,-1.64186 -0.298828,-2.60938 0,-4.92884 1.484646,-8.96559 4.453125,-12.11133 2.968441,-3.18629 7.182139,-4.75195 12.607421,-4.75195 5.501288,0 9.752778,1.56566 12.624998,4.75195 2.90766,3.14574 4.33008,7.18249 4.33008,12.11133 v 3.32422 h 6.86914 v -3.32422 c 0,-5.42528 -1.66163,-10.44962 -4.94922,-15.03906 -4.33076,-5.84019 -10.64235,-8.78859 -18.873044,-8.78906 h -0.002 z m 32.314458,0 c -0.95233,0 -1.72129,0.40018 -2.43555,1.10937 -0.6737,0.67374 -1.00781,1.48371 -1.00781,2.31445 0,0.99288 0.33426,1.82402 1.00781,2.53321 0.71426,0.67374 1.48322,1.00781 2.43555,1.00781 1.02833,0 1.9159,-0.33422 2.51367,-1.00781 0.63318,-0.70919 0.90625,-1.54033 0.90625,-2.53321 0,-0.90675 -0.35427,-1.77696 -1.00781,-2.41015 -0.63318,-0.65348 -1.46485,-1.01367 -2.41211,-1.01367 z m 6.74804,0 v 3.42382 c 0,2.19847 -0.59709,3.84125 -1.80273,5.04688 -1.22589,1.19044 -2.90894,1.82226 -4.94531,1.82226 h -3.44336 v 27.05079 h 3.44336 c 1.46396,0 2.78705,0.45153 4.0332,1.22656 1.78311,1.22589 2.71484,3.14469 2.71484,5.73828 0,2.15289 -0.59709,3.83621 -1.80273,5.04687 -1.22589,1.18534 -2.90894,1.7168 -4.94531,1.7168 h -3.44336 v 37.35938 h 6.86328 v -30.98828 c 2.315,-0.59267 4.33629,-1.66032 6.05859,-3.14454 1.97559,-1.72229 3.22158,-3.91611 3.73828,-6.64648 h 7.25782 c 5.68358,0 10.64969,-1.64621 14.94531,-4.84766 5.87614,-4.29566 8.7832,-10.60815 8.7832,-18.97656 0,-8.37346 -2.9276,-14.68481 -8.88477,-18.98047 -4.29057,-3.18123 -9.26145,-4.84765 -14.84374,-4.84765 z m 42.5,0 v 78.22265 h 3.52539 c 1.47916,0 2.8066,0.43635 4.05274,1.22657 1.78307,1.17012 2.71094,3.05015 2.71094,5.63867 v 3.34375 h 37.45898 v -6.86524 h -31.08789 c -0.51163,-2.64933 -1.70024,-4.74698 -3.53906,-6.37304 -1.85907,-1.58045 -3.95725,-2.7296 -6.25196,-3.32227 v -71.87109 z m 52.79492,0 V 201.5 h 10.70313 c 0.57751,2.39604 1.72231,4.39847 3.32812,6.15625 1.58044,1.7831 3.65666,2.94719 6.35157,3.54492 v 55.10352 c -2.69491,0.59773 -4.77113,1.78347 -6.35157,3.64258 -1.60581,1.85907 -2.75061,3.92033 -3.32812,6.15429 h -10.70313 v 6.86524 h 17.05469 v -3.34375 c 0,-1.46396 0.29894,-2.80615 1.10938,-4.03711 1.08911,-1.89963 3.04965,-2.82813 5.75976,-2.82813 2.0364,0 3.65726,0.61473 4.84766,1.82031 1.20563,1.22589 1.79883,2.90723 1.79883,5.04493 l 0.12109,3.34375 h 16.95508 v -6.86524 h -10.60156 c -0.63323,-2.315 -1.60585,-4.3304 -3.0293,-6.05273 -1.56529,-1.80336 -3.83965,-3.07044 -6.76758,-3.74414 v -55.10352 c 2.68985,-0.59773 4.94902,-1.86425 6.76758,-3.83984 1.42345,-1.72229 2.39607,-3.62233 3.0293,-5.86133 h 10.60156 v -6.96484 h -17.07617 v 3.42382 c 0,2.19847 -0.5932,3.84125 -1.79883,5.04688 -1.1904,1.19044 -2.81125,1.82226 -4.84766,1.82226 -2.15796,0 -3.83933,-0.63182 -5.04492,-1.82226 -1.24615,-1.20563 -1.82422,-2.84841 -1.82422,-5.04688 v -3.42382 z m 23.92383,0 c -0.99285,0 -1.85946,0.40018 -2.5332,1.10937 -0.6737,0.67374 -1.00781,1.48371 -1.00781,2.31445 0,0.99288 0.33426,1.82402 1.00781,2.53321 0.67374,0.67374 1.54035,1.00781 2.5332,1.00781 1.00807,0 1.7218,-0.33422 2.31446,-1.00781 0.63323,-0.70919 1.00976,-1.54033 1.00976,-2.53321 0,-0.90675 -0.33617,-1.77696 -1.00976,-2.41015 -0.63318,-0.65348 -1.40772,-1.01367 -2.31446,-1.01367 z m 28.76758,0 V 201.5 h 10.78516 c 0.59267,2.39604 1.62704,4.39847 3.24804,6.15625 1.58044,1.7831 3.75742,2.94719 6.44727,3.54492 v 71.76563 h 6.76758 v -71.76563 c 2.67462,-0.59773 4.94902,-1.86425 6.76758,-3.83984 1.40825,-1.72229 2.49377,-3.62233 3.12695,-5.86133 h 10.58594 v -6.96484 h -17.15235 v 3.42382 c 0,2.19847 -0.59637,3.84125 -1.82226,5.04688 -1.16508,1.19044 -2.79172,1.82226 -4.82813,1.82226 -2.15796,0 -3.84051,-0.63182 -5.0664,-1.82226 -1.22585,-1.20563 -1.79883,-2.84841 -1.79883,-5.04688 v -3.42382 z m 23.92578,0 c -0.98778,0 -1.76296,0.40018 -2.43164,1.10937 -0.67373,0.67374 -1.01367,1.48371 -1.01367,2.31445 0,0.99288 0.33994,1.82402 1.01367,2.53321 0.66868,0.67374 1.44386,1.00781 2.43164,1.00781 1.00807,0 1.81825,-0.33422 2.41602,-1.00781 0.63319,-0.70919 0.90625,-1.54033 0.90625,-2.53321 0,-0.90675 -0.35428,-1.77696 -1.00781,-2.41015 -0.63319,-0.65348 -1.40265,-1.01367 -2.31446,-1.01367 z M 140.53906,201.5 h 7.25782 c 4.92881,0 8.9675,1.40798 12.11328,4.33594 3.18625,2.90767 4.75195,7.10206 4.75195,12.52734 0,8.36841 -3.58305,13.7485 -10.80664,16.14453 -1.74255,0.59267 -3.75882,0.91211 -6.05859,0.91211 h -7.25782 c -0.5167,-2.73037 -1.74271,-4.94931 -3.54101,-6.57031 -1.80336,-1.58555 -3.85983,-2.63389 -6.25586,-3.22656 v -14.52344 c 2.315,-0.5927 4.33629,-1.54508 6.05859,-3.0293 1.97559,-1.72233 3.22158,-3.91594 3.73828,-6.57031 z m -32.61328,33.10938 -6.44726,2.11718 c 0.15723,0.51164 0.19726,1.04813 0.19726,1.7168 0,0.81555 -0.04,1.66826 -0.19726,2.41797 -0.17726,0.73451 -0.67413,1.50269 -1.42383,2.42969 l 5.04492,4.63671 1.32812,-1.90039 c 2.39101,2.25419 3.95611,5.06585 4.84766,8.46485 0.13682,0.63323 0.29308,1.32696 0.39453,2.11719 0.076,0.77501 0.217,1.62645 0.29297,2.5332 0,4.90858 -1.50371,9.02664 -4.43164,12.21289 -2.90766,3.14578 -7.10126,4.74609 -12.521484,4.74609 -8.373467,0 -13.754322,-3.66161 -16.150391,-10.90039 -0.592668,-1.72229 -0.912109,-3.74359 -0.912109,-6.05859 v -3.34375 h -6.863282 v 3.34375 c 0,5.42528 1.661634,10.46988 4.949219,15.03906 4.290557,5.83559 10.603096,8.78516 18.976563,8.78516 8.327884,0 14.638444,-2.94957 18.974614,-8.78516 3.18628,-4.33111 4.84765,-9.36051 4.84765,-15.03906 0,-3.69789 -0.91048,-7.36121 -2.63281,-11.09961 -1.72229,-3.73845 -4.19505,-6.74654 -7.5586,-8.98047 0,-1.23095 -0.29954,-2.71565 -0.71484,-4.45312 z m -12.916014,0.81054 c -2.31496,0 -3.425782,1.14428 -3.425782,3.42383 0,1.00803 0.333885,1.79846 1.007813,2.43164 0.65348,0.59271 1.445384,0.91211 2.417969,0.91211 2.213707,0 3.341797,-1.10983 3.341796,-3.34375 0,-0.95233 -0.359547,-1.78284 -1.007812,-2.41602 -0.633184,-0.67374 -1.427237,-1.00781 -2.333984,-1.00781 z m 32.312504,0 c -2.33526,0 -3.44336,1.14428 -3.44336,3.42383 0,1.00803 0.33426,1.79846 1.00781,2.43164 0.71426,0.59271 1.48322,0.91211 2.43555,0.91211 2.25418,0 3.41992,-1.10983 3.41992,-3.34375 0,-0.95233 -0.35427,-1.78284 -1.00781,-2.41602 -0.63318,-0.67374 -1.46485,-1.00781 -2.41211,-1.00781 z m 52.77343,40.68164 c -0.91181,0 -1.80332,0.39512 -2.51758,1.10938 -0.66861,0.6737 -1.00781,1.46485 -1.00781,2.41211 0,1.01314 0.3392,1.80232 1.00781,2.43554 0.71426,0.59267 1.60577,0.90821 2.51758,0.90821 0.96756,0 1.6969,-0.29513 2.33008,-0.90821 0.65348,-0.67374 1.01367,-1.50347 1.01367,-2.43554 0,-0.94726 -0.29949,-1.73841 -1.01367,-2.41211 -0.66867,-0.71426 -1.44359,-1.10938 -2.33008,-1.10938 z m 73.19336,0 c -0.99285,0 -1.85946,0.39512 -2.5332,1.10938 -0.6737,0.6737 -1.00781,1.46485 -1.00781,2.41211 0,1.01314 0.33426,1.80232 1.00781,2.43554 0.67374,0.59267 1.54035,0.90821 2.5332,0.90821 0.90674,0 1.68128,-0.29513 2.31446,-0.90821 0.67374,-0.67374 1.00976,-1.50347 1.00976,-2.43554 0,-0.94726 -0.39511,-1.73841 -1.10937,-2.41211 -0.67374,-0.71426 -1.38408,-1.10938 -2.21485,-1.10938 z"
             style="fill:#ffffff;fill-opacity:1;fill-rule:nonzero;stroke:none;stroke-width:2.02840018"
             inkscape:connector-curvature="0" />
        </g>
        <path
           inkscape:connector-curvature="0"
           style="fill:#ffffff;stroke:none;stroke-width:1.21314514;stroke-miterlimit:4;stroke-dasharray:none;stroke-opacity:1"
           d="m 802.75977,140.16992 c -0.35785,-0.0335 -0.72777,0.0441 -1.09375,0.21875 -1.15027,0.54899 -2.30058,2.01789 -3.60157,4.25977 -1.019,1.756 -1.86104,3.4986 -3.30664,6.79883 -0.68867,1.57223 -1.32889,2.99915 -1.80859,4.04492 -0.24,0.52288 -0.44063,0.95287 -0.58399,1.24804 -0.051,0.10523 -0.082,0.17528 -0.11718,0.24415 -0.0862,0.006 -0.1789,0.007 -0.31836,0.0137 -0.35717,0.017 -0.87395,0.0358 -1.51953,0.0527 -1.29113,0.034 -3.09288,0.0667 -5.18946,0.0957 -4.19323,0.058 -9.55128,0.10273 -14.29882,0.10352 -14.42378,0.002 -34.83457,-0.38083 -49.55469,-0.93164 -0.4419,-0.0166 -0.85881,-0.0303 -1.17383,-0.0371 -0.15761,-0.003 -0.29197,-0.005 -0.39258,-0.006 -0.0503,-1.8e-4 -0.0887,-8.1e-4 -0.125,0 -0.0378,8.1e-4 -0.0382,-0.005 -0.14062,0.0137 -0.28347,0.0535 -0.38875,0.16978 -0.51563,0.29492 -0.12699,0.12511 -0.23949,0.24911 -0.31055,0.48047 -0.20787,0.67328 0.30147,1.35222 0.98243,1.44727 h 0.008 c 0.0896,0.0125 0.10599,0.009 0.1914,0.0137 0.0854,0.005 0.19812,0.01 0.33985,0.0156 0.28346,0.0125 0.67368,0.0331 1.14453,0.0508 0.94171,0.0355 2.20335,0.0816 3.54297,0.12695 2.67923,0.0908 5.67846,0.17876 7.10742,0.21289 0.72499,0.0174 4.01234,0.10349 6.1875,0.16211 2.05852,0.0555 10.91767,0.23704 13.4707,0.27344 6.06531,0.0863 13.01787,0.1507 15.35547,0.14843 0.3885,-3.7e-4 1.85774,0.005 3.26172,0.008 6.80788,0.0129 15.22512,-0.0689 20.41211,-0.19922 0.17991,-0.005 0.31007,-0.005 0.46484,-0.008 -0.16743,0.36291 -0.38213,0.8292 -0.67187,1.44531 -0.62982,1.33935 -1.52235,3.21883 -2.55469,5.38281 -0.80606,1.68974 -1.86575,3.92242 -2.36133,4.96094 -2.10587,4.41388 -3.7318,7.94087 -4.48242,9.76562 -0.22715,0.55203 -0.50209,1.23686 -0.61914,1.52149 -0.093,0.22564 -0.138,0.32183 -0.28125,0.52344 -0.14324,0.2016 -0.39268,0.4999 -0.84765,1.04101 -3.26707,3.88505 -5.63851,6.15623 -7.10157,6.93164 -0.47081,0.24953 -0.68863,0.26165 -0.66406,0.2793 -0.0227,-0.054 -0.059,-0.14572 -0.0957,-0.31641 -0.12019,-0.55998 -0.11495,-1.637 0.0801,-3.12304 0.19503,-1.48605 0.56285,-3.3963 1.09961,-5.69922 0.16366,-0.7024 0.67815,-2.79046 1.13672,-4.6211 0.82972,-3.31426 1.30515,-5.27482 1.55078,-6.59179 0.24567,-1.31698 0.25899,-2.02753 0.1543,-2.70118 -0.3964,-2.54908 -3.02358,-4.58648 -6.39258,-5.25585 -2.66252,-0.52902 -5.63843,-0.21963 -8.36328,0.85546 -0.8208,0.32383 -1.34943,0.62958 -2.02929,1.17383 -0.87508,0.70058 -1.73324,2.02426 -2.5918,3.24805 0.37871,-1.70709 0.84993,-3.85951 0.9375,-4.52539 0.0703,-0.53486 -0.24669,-1.05595 -0.76758,-1.2168 -0.23131,-0.0716 -0.39097,-0.10613 -0.67969,-0.0234 -0.22223,0.064 -0.54719,0.29513 -0.67187,0.58399 -0.12473,0.28887 -0.17864,0.61876 -0.28711,1.20312 -0.98763,5.32704 -2.10343,9.16128 -3.66211,12.61524 -1.40043,3.10301 -3.17708,5.83322 -5.25586,8.09765 -1.43717,1.56548 -2.45043,2.36718 -5.0332,3.96485 -3.12673,1.93412 -5.48894,2.62808 -7.61133,2.33203 -2.47718,-0.34553 -4.61531,-2.2274 -6.18555,-5.63086 -0.10583,-0.22964 -0.19816,-0.45306 -0.25976,-0.61328 0.0529,-0.0476 0.0977,-0.0857 0.16992,-0.14844 0.23508,-0.20402 0.56232,-0.47293 0.91601,-0.75977 6.27315,-5.08775 9.61542,-9.09606 10.59961,-12.92578 0.58496,-2.27627 0.73726,-3.89261 0.47266,-5.40429 -0.25777,-1.47228 -0.98049,-2.62488 -2.04492,-3.27735 -1.06443,-0.65247 -2.43426,-0.78898 -3.89649,-0.37695 -2.81854,0.79426 -5.44287,3.34832 -7.375,6.99805 -0.70571,1.33309 -1.03754,2.16963 -1.60156,4.00195 -0.591,1.92133 -0.83086,3.069 -0.95313,4.59961 -0.17007,2.13202 0.0299,3.64095 0.79688,6.02344 0.0612,0.1898 0.11656,0.35664 0.15625,0.49414 -0.0832,0.0661 -0.17461,0.13089 -0.30273,0.22851 -0.33449,0.25452 -0.79929,0.60281 -1.33008,0.99024 -1.0616,0.77484 -2.37551,1.71044 -3.38672,2.40625 -1.0218,0.70303 -2.18978,1.49024 -3.10938,2.0957 -0.38925,0.25629 -0.69833,0.45559 -0.96679,0.62695 -0.13153,-1.60789 -0.5982,-4.83887 -1.01172,-6.90039 -0.58889,-2.93616 -1.41591,-6.30238 -2.43555,-9.92187 l -0.25781,-0.91602 0.36133,-0.50976 c 1.70369,-2.39368 3.26204,-5.06225 4.09765,-7.03516 0.21733,-0.51289 0.42182,-1.15276 0.58203,-1.75586 0.16026,-0.60311 0.2737,-1.13381 0.28125,-1.54297 0.0302,-1.66335 -0.7467,-3.12538 -2.10351,-3.80859 -1.9841,-0.99911 -4.76137,-0.33986 -6.45899,1.42383 -0.72827,0.75672 -1.27879,1.88904 -1.42578,2.93164 -0.0945,0.67083 -0.0801,1.34793 0.14063,2.43554 0.22072,1.08762 0.64017,2.61571 1.36523,5.13086 0.1954,0.67774 0.37033,1.30548 0.49414,1.76368 0.062,0.22907 0.11669,0.41875 0.14844,0.54687 -0.034,0.0462 -0.0645,0.0832 -0.11133,0.14649 -0.13946,0.18829 -0.33164,0.44104 -0.53906,0.70898 -4.71689,6.09109 -10.55807,11.65944 -15.77344,15.05273 -2.27599,1.48089 -4.14973,2.28712 -5.85547,2.55274 -3.10318,0.48329 -5.57005,-0.84085 -7.54297,-4.13281 l -0.0234,-0.0371 0.38476,-0.35547 c 2.04303,-1.90458 4.11463,-4.22331 5.6543,-6.33203 2.33934,-3.20399 3.94806,-6.43475 4.73828,-9.56055 0.83369,-3.29727 0.67379,-5.84272 -0.67773,-7.45508 -0.47513,-0.56684 -0.95272,-0.89962 -1.66992,-1.16016 -0.83815,-0.30425 -1.56195,-0.36108 -2.50196,-0.21289 -2.68781,0.4237 -5.38561,2.65522 -7.38086,5.91993 -0.93528,1.53016 -1.50955,2.77747 -2.13476,4.6289 -1.09248,3.23394 -1.44955,6.31802 -0.97461,8.8125 0.24491,1.2865 0.97397,3.50971 1.5957,4.90235 l 0.13281,0.30273 -0.90039,0.73828 c -2.49989,2.04317 -4.39296,3.31889 -6.70312,4.5332 -2.36863,1.24506 -3.21511,1.49484 -5.18946,1.52735 -1.15105,0.0189 -1.50589,-0.0256 -2.56835,-0.35352 -0.85894,-0.26475 -0.89294,-0.27797 -1.19727,-0.49609 -1.14524,-0.82042 -1.54302,-1.9555 -1.29883,-4.02344 0.0881,-0.74715 0.47284,-2.10263 0.9082,-3.12109 1.64108,-3.83889 5.13203,-9.76172 9.47852,-16.05664 0.82942,-1.20117 0.95304,-1.35378 1.49219,-1.85938 1.36104,-1.27643 1.96465,-1.99185 2.27343,-2.80469 0.10999,-0.28917 0.17768,-0.53372 0.17579,-0.79882 -0.002,-0.2651 -0.12208,-0.55285 -0.30274,-0.73047 -0.46643,-0.45837 -1.24525,-0.42567 -1.74219,0 -0.40743,0.34896 -0.97931,1.07507 -1.82226,2.20117 -0.19805,0.2643 -0.39848,0.51582 -0.55469,0.71484 -0.15609,0.19903 -0.31728,0.39076 -0.27344,0.34766 -0.27515,0.26876 -1.48168,1.20214 -2.85547,2.19922 -1.37378,0.99708 -2.95755,2.10022 -4.13476,2.86523 -1.30118,0.84563 -1.75362,1.13613 -3.02539,1.94141 -0.77344,0.48975 -1.53423,0.96486 -1.64649,1.0332 -1.37639,0.83769 -1.94552,1.11131 -2.50976,1.35742 l 0.0586,-0.20703 c 0.4266,-1.55269 0.59692,-2.5443 0.64258,-3.875 0.10696,-3.12877 -0.93345,-5.66573 -2.99023,-6.97656 -0.61713,-0.39335 -1.61979,-0.69777 -2.35547,-0.72266 -1.37122,-0.0461 -2.68086,0.46882 -3.64649,1.43946 -1.42117,1.42805 -1.95633,3.71525 -1.54882,6.15625 0.4312,2.58293 1.72132,4.79529 3.60156,6.05273 0.75171,0.50272 1.62432,0.7381 2.58398,0.91602 -0.0567,0.0939 -0.098,0.16264 -0.17773,0.29492 -0.97693,1.6235 -2.61987,3.30622 -4.28907,4.38477 -1.12089,0.72425 -3.43723,1.82266 -5.68359,2.67187 -0.55185,0.20859 -1.47808,0.53048 -2.25976,0.79102 -0.14967,0.0498 -0.24691,0.0807 -0.38282,0.125 1.4928,-2.87397 2.68647,-6.3855 3.13672,-9.50782 0.15194,-1.05188 0.23992,-2.36234 0.20703,-3.15234 -0.18822,-4.29133 -2.81542,-8.41931 -6.47461,-10.10547 -0.78308,-0.36087 -2.06296,-0.70216 -2.86328,-0.74609 -1.78076,-0.0978 -3.25441,0.23705 -4.92383,1.11523 -1.40821,0.74078 -2.45144,1.55001 -3.77148,2.91602 -0.90705,0.93863 -1.91544,2.59679 -2.89453,4.08203 0.57233,-2.04702 1.04028,-3.81296 1.24805,-4.99805 0.23773,-1.35645 0.30815,-2.19263 -0.0312,-2.83398 -0.0612,-0.11539 -0.1406,-0.25776 -0.30274,-0.36914 -0.16214,-0.11135 -0.30847,-0.13547 -0.44922,-0.16211 -0.27175,-0.0515 -0.60604,-0.0107 -0.83398,0.13281 -0.21166,0.13209 -0.37915,0.3788 -0.44336,0.62695 -0.0643,0.24817 -0.069,0.50419 -0.0527,0.82617 0.0608,1.14828 -0.65158,4.23483 -2.42773,9.81055 -1.75514,5.51002 -2.31273,7.07385 -3.31445,9.33203 -4.26871,9.62217 -9.18157,22.54105 -13.41211,35.24024 l -0.34766,1.02734 0.58399,0.26563 0.10937,0.0508 h 0.0234 c 0.14778,0.0597 0.31716,0.12159 0.50976,0.18554 l 0.85547,0.28711 0.31836,-0.7539 c 0.27099,-0.62805 2.3105,-5.72394 3.71875,-9.29297 2.57163,-6.51713 4.41983,-11.59411 6.44531,-17.02344 0.054,0.32175 0.17153,0.68033 0.32422,0.96875 0.70976,1.34152 2.30467,2.15369 4.38477,2.53906 2.08014,0.38538 4.69287,0.33944 7.58984,-0.16211 2.31886,-0.40141 3.63022,-0.77539 4.95899,-1.43359 2.26488,-1.12194 4.31089,-2.97827 6.19336,-5.57227 l 0.32617,-0.44335 1.29101,-0.37696 c 3.8668,-1.12812 7.96354,-2.85433 10.06836,-4.27344 2.24844,-1.51593 4.00223,-3.45222 5.32227,-5.87695 l 0.31055,-0.56836 0.27343,-0.0664 c 0.65261,-0.16029 1.42067,-0.43265 2.07422,-0.73829 0.72495,-0.33902 2.59134,-1.49552 4.7168,-2.85546 1.63631,-1.04697 3.13676,-2.07046 4.48828,-2.99805 -2.36277,3.62978 -4.78462,7.66081 -6.12695,10.38672 -0.84008,1.70606 -1.15625,2.46298 -1.58008,3.82422 -0.42422,1.36244 -0.50558,1.81594 -0.56836,2.95898 -0.12208,2.22917 0.6279,4.03504 2.14844,5.1543 1.5205,1.11926 3.73047,1.55639 6.48242,1.32812 0.91835,-0.0762 1.58681,-0.23052 2.54492,-0.57617 2.68471,-0.96851 6.27204,-3.22205 9.67773,-6.03906 0.16706,-0.13822 0.29748,-0.2444 0.42969,-0.35352 0.0386,0.0581 0.0674,0.0974 0.10938,0.16211 1.10823,1.70219 2.40198,2.96671 3.91406,3.8086 0.83021,0.4622 2.14444,0.88486 3.07031,0.98242 2.80456,0.29556 5.8152,-0.68322 9.22656,-2.90821 5.30374,-3.45922 10.90488,-8.70914 15.67188,-14.68359 0.16479,-0.20663 0.23194,-0.30389 0.36914,-0.47851 0.0816,0.28671 0.11483,0.37491 0.28906,1.01171 1.63968,5.99929 2.68005,11.45082 2.9668,15.44922 l 0.0293,0.36914 -0.34571,0.22071 c -0.91143,0.58294 -4.33258,2.68314 -5.10156,3.13086 -0.20296,0.11814 -0.72261,0.42226 -1.1582,0.67968 -0.43457,0.25694 -0.7742,0.46132 -0.79688,0.47266 l -0.008,0.006 h -0.008 c -0.0661,0.0348 -0.0483,0.0291 -0.10352,0.0606 -0.0552,0.0317 -0.13591,0.0793 -0.22851,0.13281 -0.18558,0.10707 -0.43049,0.24954 -0.70118,0.40625 -2.43303,1.40845 -3.29147,1.88708 -6.12695,3.40234 -0.66516,0.35543 -1.29424,0.68742 -1.77148,0.94531 -0.47724,0.25792 -0.75693,0.4074 -0.88672,0.48633 -3.64452,2.21845 -6.52078,5.66741 -7.58789,9.16211 -0.30614,1.00257 -0.42508,1.78534 -0.39258,2.61328 0.0718,1.74636 0.88684,3.19645 2.40039,4.31055 1.40935,1.03737 3.15841,1.50161 4.9668,1.33594 4.33134,-0.39671 9.55714,-4.07327 15.52539,-10.65235 1.41868,-1.56394 2.09116,-2.51033 2.79687,-3.94922 0.5099,-1.04027 1.27076,-3.52583 1.48438,-4.79882 0.29971,-1.78582 0.44276,-3.81456 0.41211,-5.86719 -0.008,-0.45362 -0.002,-0.73895 0.008,-0.87891 0.0113,-0.009 0.003,-0.007 0.0156,-0.0156 0.082,-0.0559 0.19407,-0.12916 0.33203,-0.2207 0.27552,-0.18316 0.64187,-0.4252 1.0332,-0.67969 2.68603,-1.74692 5.96257,-4.02928 8.12109,-5.6543 0.099,-0.0746 0.17126,-0.12621 0.25782,-0.19141 0.35187,0.74252 1.02287,2.00261 1.37304,2.52344 0.82761,1.23083 1.81061,2.27691 2.85742,3.02735 0.79408,0.56931 1.50707,0.91165 2.50196,1.21875 1.46245,0.45145 2.75954,0.51642 4.37109,0.2207 2.08381,-0.38238 3.81617,-1.1532 6.61328,-2.91602 2.5767,-1.6239 3.94425,-2.79272 5.75781,-4.93164 0.16706,-0.1971 0.44753,-0.6125 0.70118,-0.94336 -0.008,0.0208 -0.008,0.0217 -0.0156,0.043 -0.81131,2.6501 -1.45729,4.95142 -1.77148,6.3125 -0.0563,0.24272 -0.10087,0.40353 -0.10352,0.58985 -0.003,0.18859 0.0701,0.38763 0.13477,0.50976 0.12283,0.23218 0.4157,0.46602 0.67773,0.54688 0.13304,0.041 0.28059,0.0813 0.46485,0.0586 0.18444,-0.0227 0.32242,-0.10479 0.43554,-0.17773 l 0.38477,-0.25 0.29492,-1.13086 c 1.67346,-6.40772 3.47697,-11.79873 5.30078,-15.94336 1.82377,-4.14464 3.68866,-7.03842 5.36719,-8.41602 1.09028,-0.89482 3.6694,-1.71121 5.99219,-1.78711 1.20737,-0.0395 1.9888,0.0567 3.19726,0.39258 1.18972,0.33063 1.68396,0.55219 2.42188,1.08398 0.80296,0.57864 1.37157,1.38033 1.51172,1.98633 0.1387,0.60064 -0.0911,2.29438 -1.23829,6.87891 -1.57303,6.28596 -2.05993,8.39845 -2.42968,10.51172 -0.39712,2.2697 -0.54326,3.94896 -0.38282,5.18945 0.0801,0.62024 0.23773,1.1343 0.50782,1.55078 0.26986,0.41648 0.67145,0.72148 1.13086,0.86328 0.68303,0.21083 1.43672,0.0896 2.24414,-0.30273 0.80742,-0.39226 1.69744,-1.05453 2.76758,-2.00781 0.89975,-0.80148 2.55975,-2.58553 3.77929,-3.96289 0.0265,0.65065 0.0525,1.26529 0.24414,1.91796 0.72185,2.45757 2.58248,4.23503 4.9375,4.65821 1.70861,0.30701 3.44251,-0.0441 5.26367,-1.02539 0.94867,-0.51118 1.41062,-0.8485 3.22657,-2.39258 6.97549,-5.93118 16.41369,-14.65741 20.9707,-19.38477 0.12435,-0.12888 0.2177,-0.21412 0.32617,-0.32422 0.0646,0.21767 0.12155,0.41968 0.20508,0.70899 0.24983,0.86794 0.56675,1.99272 0.84961,3.04101 1.14667,4.24933 1.91847,7.77153 2.39844,10.88086 0.12056,0.78126 0.23016,1.54929 0.30273,2.13282 0.0378,0.29178 0.0658,0.53551 0.082,0.70898 0.002,0.0257 0.004,0.0362 0.008,0.0586 -0.0438,0.0344 -0.0786,0.0564 -0.14062,0.10352 -0.21317,0.16226 -0.5239,0.39443 -0.91406,0.67969 -0.78032,0.57051 -1.87264,1.3578 -3.11524,2.24414 -2.48519,1.77266 -5.58222,3.94981 -8.03906,5.64648 -4.44669,3.07061 -4.72299,3.27918 -6.07617,4.48828 -2.41251,2.1557 -4.43426,4.64282 -5.625,6.94727 -0.48537,0.93716 -0.98024,2.49374 -1.01172,3.40234 -0.034,0.93456 0.13584,1.76035 0.53125,2.50977 0.27402,0.51923 0.48111,0.79158 0.98242,1.26367 0.72329,0.68114 1.42974,1.14852 2.23633,1.48242 2.33102,0.96507 5.06544,0.61278 8.07617,-0.9375 3.01074,-1.55028 6.3458,-4.29657 10.02539,-8.21484 2.25188,-2.39786 2.96844,-3.37317 3.82227,-5.18359 0.47879,-1.01406 1.09319,-3.01452 1.32226,-4.27344 0.45842,-2.52164 0.58571,-5.461 0.36914,-8.42188 l -0.0508,-0.66601 0.9668,-0.71485 c 4.07955,-3.02467 8.46211,-6.48751 11.11719,-8.78515 0.37882,-0.32784 0.60856,-0.52947 0.78125,-0.77539 0.17272,-0.24594 0.22983,-0.58847 0.19922,-0.82618 -0.0476,-0.37069 -0.28821,-0.61799 -0.55274,-0.76757 -0.26457,-0.1496 -0.59742,-0.22435 -0.9375,-0.10352 -0.17008,0.0604 -0.15966,0.0801 -0.21484,0.11914 -0.0552,0.039 -0.11405,0.0842 -0.1836,0.13867 -0.13908,0.109 -0.30831,0.24915 -0.48046,0.39844 -2.3757,2.05493 -5.5451,4.59744 -9.07227,7.26367 -0.96586,0.73013 -1.52359,1.1436 -1.9043,1.42578 -0.003,-0.0253 -0.004,-0.0405 -0.008,-0.0664 -0.57498,-4.446 -1.73799,-9.53761 -3.86133,-16.91211 -0.0907,-0.31574 -0.17812,-0.6094 -0.23633,-0.82031 -0.0113,-0.04 -0.0101,-0.0618 -0.0215,-0.0957 0.10696,-0.11943 0.25767,-0.28025 0.41992,-0.45703 2.15838,-2.35003 3.66193,-4.23276 4.65039,-5.82422 0.29783,-0.47768 0.42906,-0.77816 0.65039,-1.48437 l 0.29492,-0.9375 -0.125,-0.78125 c -0.24453,-1.55754 -1.21528,-2.7201 -2.67187,-3.16797 -1.34079,-0.41257 -2.86997,-0.22094 -4.21484,0.49414 -2.0044,1.06583 -3.15825,2.96354 -3.07813,5.12305 0.0378,1.00562 0.38153,2.4947 1.20899,5.36718 l 0.31054,1.0625 -1.1582,1.18946 c -5.07712,5.21048 -13.13536,12.66428 -20.83203,19.26562 -1.64145,1.40791 -2.05824,1.71269 -2.92383,2.17774 -0.80549,0.43274 -1.3491,0.63378 -2.05859,0.76171 -0.93907,0.1694 -1.21917,0.15058 -2.11133,-0.12695 -0.71059,-0.22053 -0.70597,-0.21027 -1.07031,-0.47851 -0.54596,-0.40199 -0.93486,-0.85042 -1.26368,-1.46875 -0.35074,-0.65893 -0.44204,-0.92935 -0.56836,-1.71289 -0.15269,-0.94477 -0.0644,-2.02955 0.27344,-3.12305 0.1954,-0.63496 0.15382,-0.54963 0.50196,-0.98242 5.07257,-6.30445 11.86848,-16.2948 15.94531,-23.4375 0.19275,-0.33721 0.37228,-0.64886 0.50195,-0.8711 0.034,-0.0574 0.0556,-0.0879 0.082,-0.13281 0.0302,-0.001 0.0512,0.002 0.0879,0 0.21581,-0.009 0.5111,-0.018 0.83399,-0.0293 1.67712,-0.0601 4.13984,-0.18436 6.28125,-0.30273 1.07074,-0.0592 2.06729,-0.11928 2.83593,-0.16992 0.76868,-0.0506 1.28058,-0.0815 1.52735,-0.11719 0.89507,-0.12941 1.27283,-1.27705 0.62695,-1.91211 -0.12548,-0.12321 -0.38339,-0.28228 -0.64062,-0.31055 -0.25739,-0.0283 -0.52943,-0.006 -1.02735,0.0293 -1.8449,0.13149 -4.38199,0.27042 -6.45117,0.36914 -1.03461,0.0494 -1.95138,0.091 -2.60547,0.11133 -0.0922,0.003 -0.13396,0.006 -0.21484,0.008 10e-4,-0.002 -10e-4,-0.006 0,-0.008 0.55366,-1.03979 1.2369,-2.45507 1.64648,-3.41797 0.82462,-1.93811 1.81612,-5.227 2.20703,-7.33789 0.29443,-1.58871 0.38019,-2.8299 0.22266,-3.78711 -0.15761,-0.95721 -0.6426,-1.69713 -1.41797,-1.94141 v 0.002 c -0.11608,-0.0364 -0.23423,-0.0611 -0.35351,-0.0723 z m -0.4961,2.70117 c 0.0633,0.62077 0.0339,1.48462 -0.22851,2.92188 -0.18369,1.00028 -1.28432,4.77203 -1.72657,5.89844 -0.30689,0.78198 -0.92941,2.11346 -1.49218,3.24804 -0.2812,0.5673 -0.54412,1.09101 -0.75196,1.46875 -0.10053,0.18282 -0.18959,0.3281 -0.25195,0.42774 -0.0854,0.005 -0.17669,0.01 -0.30859,0.0156 -0.32089,0.0144 -0.75923,0.0293 -1.23243,0.043 l -1.08593,0.0293 0.008,0.008 c -0.14324,0.005 -0.3102,0.0122 -0.41406,0.0156 0.20107,-0.43635 0.46206,-0.99566 0.8789,-1.92774 0.53322,-1.19239 1.11105,-2.50641 1.41016,-3.19531 1.13068,-2.6039 2.21267,-4.76889 3.16602,-6.3711 0.82891,-1.39305 1.50744,-2.14048 2.02929,-2.58203 z m 15.88672,15.13868 c 0.59271,-0.0163 1.03987,0.12899 1.35156,0.36914 0.31181,0.24015 0.51223,0.58494 0.58203,1.08593 0.0688,0.49549 0.0498,0.6141 -0.25781,1.20313 -0.55105,1.05609 -1.64262,2.52253 -3.34375,4.47265 -0.32995,0.37827 -0.56609,0.64452 -0.79101,0.89258 l -0.0801,-0.27343 c -0.64093,-2.23683 -0.97239,-3.7818 -0.99805,-4.45118 -0.004,-0.13356 0.0552,-0.49729 0.16406,-0.83984 0.10885,-0.34254 0.26694,-0.68994 0.38282,-0.85742 0.61719,-0.89018 1.87501,-1.57096 2.99023,-1.60156 z m -21.64453,1.16601 c -0.12246,0.21472 -0.24325,0.42185 -0.39844,0.6875 -2.54063,4.35055 -6.13656,9.64426 -9.46289,14.32813 0.9281,-1.96468 1.96069,-4.13722 3.38867,-7.125 0.85251,-1.78354 2.05785,-4.33302 2.68555,-5.66797 0.31294,-0.66562 0.60293,-1.27364 0.8125,-1.71289 0.0903,-0.18913 0.15777,-0.32492 0.21484,-0.44336 0.0987,-0.004 0.20076,-0.01 0.33985,-0.0137 0.36926,-0.0113 0.85034,-0.0258 1.33594,-0.0371 0.39431,-0.009 0.75652,-0.01 1.08398,-0.0156 z m -85.22266,0.41992 v 0.002 c -0.2594,0.0732 -0.52197,0.15199 -0.78125,0.23437 0.17615,-0.0818 0.35723,-0.1505 0.54297,-0.20898 0.0797,-0.011 0.15863,-0.0103 0.23828,-0.0274 z m 1.09961,0.31836 c 0.43608,0.008 1.10061,0.29875 1.29102,0.49414 0.31521,0.32349 0.51468,0.90178 0.47265,1.59571 -0.0401,0.66416 -0.39097,1.78006 -1.04101,3.13671 -0.65004,1.35666 -1.58516,2.96642 -2.75391,4.7168 -0.0189,0.0284 -0.033,0.0465 -0.0508,0.0742 -0.13909,-0.45078 -0.30676,-1.00571 -0.48633,-1.63867 -0.39647,-1.39733 -0.82107,-3.0153 -0.98242,-3.77344 -0.25512,-1.19806 -0.22153,-1.83854 0.0801,-2.50195 0.55612,-1.22332 2.02964,-2.12962 3.4707,-2.10352 z m -26.49414,3.83203 c 0.65329,0.0696 1.09244,0.37212 1.41797,0.95899 0.32542,0.58688 0.50124,1.48968 0.43555,2.6582 -0.059,1.04901 -0.20253,1.72543 -0.70899,3.37305 -0.49496,1.61194 -0.67938,2.07862 -1.34375,3.41015 -1.64553,3.29844 -4.53524,7.07009 -7.81054,10.17188 -0.0752,0.071 -0.13081,0.11492 -0.19922,0.17773 -0.0635,-0.15329 -0.12363,-0.29152 -0.19922,-0.49414 -0.23358,-0.62405 -0.49844,-1.43285 -0.70703,-2.14843 -0.46473,-1.59466 -0.5732,-2.43905 -0.4961,-3.92774 0.0805,-1.55037 0.32854,-2.87146 0.87891,-4.64258 0.68632,-2.20726 1.55068,-3.97948 2.73242,-5.61718 1.92174,-2.66312 4.31044,-4.0999 6,-3.91993 z m 48.76758,0.33399 c 0.66615,0.0228 1.12073,0.28231 1.45898,0.75781 0.45098,0.634 0.67563,1.77016 0.50196,3.35938 -0.17008,1.5535 -0.77517,3.53701 -1.37305,4.59765 -1.50678,2.67262 -4.27664,5.6499 -8.68164,9.25781 -0.28346,0.23211 -0.52428,0.42223 -0.73828,0.58985 -0.0378,-0.11743 -0.063,-0.20957 -0.10156,-0.3457 -0.15194,-0.53391 -0.31346,-1.17497 -0.37696,-1.52149 -0.36208,-1.97156 -0.13609,-4.32764 0.72266,-7.10937 0.57736,-1.87075 1.17819,-3.2025 2.14844,-4.76758 1.6521,-2.66495 3.89653,-4.45756 5.69922,-4.76172 0.27228,-0.0459 0.51818,-0.0642 0.74023,-0.0566 z m -104.23047,1.04297 c 0.24967,-0.005 0.49606,0.007 0.74024,0.0332 h 0.002 c 0.41594,0.0445 1.70302,0.45051 2.1543,0.69336 2.05549,1.10602 3.73984,3.29236 4.46679,5.85351 0.40453,1.42481 0.46171,2.58407 0.19922,4.60547 -0.21014,1.61489 -0.48239,2.73432 -1.14453,4.76172 -0.78081,2.39342 -1.42441,3.85047 -2.49609,5.64063 l -0.33204,0.55273 -0.25781,0.0664 c -3.58635,0.92226 -7.30801,1.54082 -13.2207,2.18554 -3.44462,0.37561 -3.72481,0.41382 -4.89453,0.60547 -1.45236,0.2377 -2.44454,0.51498 -3.13086,1.01172 0.82273,-2.22577 1.98221,-5.11979 2.71094,-7.16015 0.37905,-1.06136 0.66235,-1.73495 1.23242,-2.93946 2.6129,-5.51987 4.8689,-9.3985 6.7539,-11.65625 0.40566,-0.48582 1.43991,-1.54719 1.875,-1.92578 1.72951,-1.50552 3.59413,-2.29449 5.3418,-2.32812 z m 18.38086,0.71875 c 0.63897,0.0279 1.21233,0.29003 1.70898,0.75976 0.66225,0.62632 1.17043,1.64015 1.34376,2.93164 0.23281,1.73702 -0.0642,4.07059 -0.7754,6.00196 l -0.16992,0.47851 c -0.0771,1.9e-4 -0.32859,-0.007 -0.53125,-0.0293 -1.58339,-0.17541 -2.82745,-1.13008 -3.74414,-2.97461 -0.97402,-1.95967 -1.0539,-4.4044 -0.3164,-5.72852 0.38573,-0.69257 1.16247,-1.26157 1.82226,-1.38867 0.22708,-0.0438 0.44912,-0.0601 0.66211,-0.0508 z m -16.9375,24.25586 v 0.002 c -0.12964,0.1429 -0.25487,0.28476 -0.37695,0.41211 -1.13205,1.18051 -2.1523,1.95582 -3.4336,2.62109 -1.21923,0.6331 -2.56132,1.01312 -4.86328,1.37305 -2.35691,0.36847 -4.50693,0.41323 -6.1875,0.14062 -0.27061,-0.0439 -0.6912,-0.14035 -1.0625,-0.24414 -0.37153,-0.10382 -0.73879,-0.24651 -0.75976,-0.25781 -0.42509,-0.22881 -0.67541,-0.37253 -0.82032,-0.48828 -0.14475,-0.11573 -0.20415,-0.19474 -0.3164,-0.38281 -0.10054,-0.16846 -0.10497,-0.33952 -0.125,-0.35547 0.0227,-0.0144 0.0339,-0.0201 0.0664,-0.0371 0.15156,-0.0761 0.38538,-0.16108 0.65625,-0.23633 0.66339,-0.18433 2.36997,-0.44801 4.6211,-0.69336 5.16601,-0.56302 7.25182,-0.83384 9.66992,-1.26172 1.00513,-0.17786 2.01,-0.3953 2.93164,-0.59179 z m 186.79883,0.62109 c 0.0151,0.30085 0.0182,0.53018 0.0371,1.18945 0.10923,4.38636 -0.56651,7.86973 -1.98633,10.45899 -0.63148,1.15171 -1.29289,1.9578 -3.45508,4.21484 -5.77032,6.0236 -10.48038,8.7948 -13.76562,8.48242 -1.11837,-0.10635 -2.02813,-0.54276 -2.91016,-1.40234 -0.76082,-0.74135 -0.93867,-1.40441 -0.67187,-2.66602 0.34053,-1.60952 1.74358,-3.93201 3.86132,-6.20703 1.96041,-2.10598 2.72621,-2.71239 7.61914,-6.08398 3.27338,-2.25562 6.48786,-4.52222 9.50782,-6.70899 0.63673,-0.46107 1.22324,-0.88917 1.66015,-1.20312 0.0427,-0.0306 0.0638,-0.0458 0.10352,-0.0742 z m -105.91602,3.79492 c -7e-5,0.0921 8.3e-4,0.15698 0,0.25781 -0.004,0.559 -0.0196,1.22661 -0.0449,1.66797 -0.11716,2.08318 -0.35757,3.49739 -0.87109,5.16797 -0.56051,1.82487 -1.17965,3.05635 -2.10352,4.19922 -1.19149,1.47401 -3.84296,4.20678 -5.7207,5.88477 -4.08877,3.65377 -7.57806,5.39531 -10.23828,5.31445 -7.2e-4,-2e-5 -0.008,3e-5 -0.008,0 -0.10847,-0.004 -0.57569,-0.0944 -0.99609,-0.20703 -0.42338,-0.11339 -0.87463,-0.27737 -0.94531,-0.31641 -0.76717,-0.42408 -1.50886,-1.14751 -1.78711,-1.66992 -0.51371,-0.96493 -0.42494,-2.457 0.30273,-4.14062 0.7276,-1.68362 2.06697,-3.52354 3.85352,-5.12305 1.19921,-1.07362 1.81232,-1.47083 4.17187,-2.7168 3.53564,-1.86703 6.67762,-3.65048 11.27149,-6.40039 0.48608,-0.29091 1.91089,-1.16924 3.11523,-1.91797 z m 89.20313,20.80078 c -0.11064,0.0287 -0.22307,0.0639 -0.33203,0.0879 -0.0135,0.002 -0.0255,-2e-4 -0.0391,0.002 0.12151,-0.0218 0.24838,-0.0637 0.3711,-0.0899 z"
           transform="matrix(0.26458333,0,0,0.26458333,-7.4083716,-130.40828)"
           id="path4944" />
      </g>
    </g>
  </g>
</svg>
