<?xml version="1.0" encoding="UTF-8" standalone="no"?>
<!-- Created with Inkscape (http://www.inkscape.org/) -->

<svg
   xmlns:dc="http://purl.org/dc/elements/1.1/"
   xmlns:cc="http://creativecommons.org/ns#"
   xmlns:rdf="http://www.w3.org/1999/02/22-rdf-syntax-ns#"
   xmlns:svg="http://www.w3.org/2000/svg"
   xmlns="http://www.w3.org/2000/svg"
   xmlns:sodipodi="http://sodipodi.sourceforge.net/DTD/sodipodi-0.dtd"
   xmlns:inkscape="http://www.inkscape.org/namespaces/inkscape"
   version="1.1"
   id="svg2"
   xml:space="preserve"
   width="514.07843"
   height="191.0827"
   viewBox="0 0 514.07843 191.08271"
   sodipodi:docname="yis_foot_planet.svg"
   inkscape:version="0.92.1 r15371"><metadata
     id="metadata8"><rdf:RDF><cc:Work
         rdf:about=""><dc:format>image/svg+xml</dc:format><dc:type
           rdf:resource="http://purl.org/dc/dcmitype/StillImage" /><dc:title></dc:title></cc:Work></rdf:RDF></metadata><defs
     id="defs6" /><sodipodi:namedview
     pagecolor="#ffffff"
     bordercolor="#666666"
     borderopacity="1"
     objecttolerance="10"
     gridtolerance="10"
     guidetolerance="10"
     inkscape:pageopacity="0"
     inkscape:pageshadow="2"
     inkscape:window-width="640"
     inkscape:window-height="480"
     id="namedview4"
     showgrid="false"
     fit-margin-top="0"
     fit-margin-left="0"
     fit-margin-right="0"
     fit-margin-bottom="0"
     inkscape:zoom="0.6"
     inkscape:cx="281.71971"
     inkscape:cy="259.31261"
     inkscape:current-layer="g10" /><g
     id="g10"
     inkscape:groupmode="layer"
     inkscape:label="YIS_Fringe_Master"
     transform="matrix(1.3333333,0,0,-1.3333333,0,191.08272)"><path
       inkscape:connector-curvature="0"
       style="color:#000000;font-style:normal;font-variant:normal;font-weight:normal;font-stretch:normal;font-size:medium;line-height:normal;font-family:sans-serif;font-variant-ligatures:normal;font-variant-position:normal;font-variant-caps:normal;font-variant-numeric:normal;font-variant-alternates:normal;font-feature-settings:normal;text-indent:0;text-align:start;text-decoration:none;text-decoration-line:none;text-decoration-style:solid;text-decoration-color:#000000;letter-spacing:normal;word-spacing:normal;text-transform:none;writing-mode:lr-tb;direction:ltr;text-orientation:mixed;dominant-baseline:auto;baseline-shift:baseline;text-anchor:start;white-space:normal;shape-padding:0;clip-rule:nonzero;display:inline;overflow:visible;visibility:visible;opacity:1;isolation:auto;mix-blend-mode:normal;color-interpolation:sRGB;color-interpolation-filters:linearRGB;solid-color:#000000;solid-opacity:1;vector-effect:none;fill:#42005f;fill-opacity:0.1372549;fill-rule:nonzero;stroke:none;stroke-width:9.17294979;stroke-linecap:round;stroke-linejoin:miter;stroke-miterlimit:4;stroke-dasharray:none;stroke-dashoffset:0;stroke-opacity:1;color-rendering:auto;image-rendering:auto;shape-rendering:auto;text-rendering:auto;enable-background:accumulate"
       d="m 416.82067,127.80295 c -0.90986,0.61582 -1.90702,1.04571 -2.87701,1.31539 -1.93975,0.5397 -3.92126,0.61385 -6.11061,0.47998 -4.37875,-0.26784 -9.63183,-1.46634 -15.94208,-3.42403 -11.86425,-3.68079 -27.48344,-10.21298 -45.65689,-18.9021 -24.45005,26.23541 -60.95344,40.44313 -99.07392,34.82125 -61.59137,-9.07985 -104.24454,-66.476096 -95.16474,-128.06737 1.12249,-7.6112108 2.9963,-14.93264554 5.51162,-21.9039577 -16.08308,-12.2190053 -29.05028,-23.1384893 -37.7478,-32.0170353 -4.59822,-4.693703 -8.04422,-8.793419 -10.27077,-12.550609 -1.11323,-1.878571 -1.94053,-3.671663 -2.34397,-5.638019 -0.40361,-1.966271 -0.30774,-4.335597 0.91978,-6.347229 1.03585,-1.69805 2.49225,-2.745878 4.12631,-3.380178 0,0 0.004,-0.0024 0.004,-0.0024 1.63498,-0.632432 3.45316,-0.849917 5.20184,-0.876201 3.50159,-0.05279 7.50554,0.635453 12.28267,1.863159 9.55436,2.455376 22.0882,7.193797 37.02511,13.853771 4.53863,2.023694 9.3659,4.281426 14.31851,6.649199 4.69477,-5.036957 9.81823,-9.644622 15.32796,-13.738415 23.18518,-17.227032 52.92614,-25.622857 83.72175,-21.082881 61.5915,9.079843 104.25196,66.487191 95.17212,128.078561 l 0.005,0.0092 c -1.12175,7.606072 -2.98611,14.920675 -5.49854,21.887165 4.35298,3.307445 8.54886,6.553981 12.41009,9.652283 12.75522,10.234948 22.70217,19.212613 29.25629,26.584947 3.27728,3.6861 5.72109,6.9342 7.27591,10.07204 1.55485,3.13774 2.55456,6.84916 0.47996,10.2492 -0.61532,1.00931 -1.44184,1.80534 -2.35295,2.41919 z m -5.80923,-7.48926 c -0.0683,-0.12797 -0.19171,-0.41553 -0.53336,-1.10562 -0.92973,-1.87591 -2.95127,-4.71664 -5.91839,-8.05408 -5.93412,-6.67497 -15.61365,-15.471824 -28.13784,-25.521385 -3.23732,-2.597646 -6.6809,-5.287659 -10.28609,-8.046883 -3.71472,8.081784 -8.33666,15.600995 -13.72609,22.459328 16.96074,8.02619 31.54624,14.06222 42.20049,17.36765 5.91646,1.8355 10.69423,2.83774 13.77368,3.02601 1.28427,0.0784 2.09024,-0.0183 2.62755,-0.12521 z m -89.61556,-3.7433 c 6.94007,-4.65725 13.31101,-10.14868 18.95572,-16.35161 a 4.5869342,4.5869342 0 0 1 2.52316,-2.903374 C 349.25404,89.76034 354.5854,81.243207 358.63027,71.950044 335.34119,54.614543 305.93281,34.801566 273.17675,14.817513 240.4179,-5.1691559 209.34348,-22.261063 183.27308,-35.040867 c -6.45777,7.91075 -11.78033,16.839656 -15.71239,26.5709573 a 4.5869342,4.5869342 0 0 1 -0.58148,1.4917532 4.5869342,4.5869342 0 0 1 -0.0137,0.018324 c -2.72492,7.06119666 -4.74105,14.5204157 -5.8923,22.3263675 -8.35682,56.68691 30.74223,109.298825 87.429,117.655695 26.57317,3.91892 52.24776,-2.59025 72.893,-16.4503 z m 40.62659,-53.546865 c 1.83991,-5.591327 3.25677,-11.405463 4.14525,-17.429983 8.35683,-56.686728 -30.74607,-109.304421 -87.43267,-117.661207 -28.34345,-4.178423 -55.6605,3.506261 -76.94601,19.321814 -4.31436,3.205432 -8.37036,6.756424 -12.14668,10.599252 25.89849,12.802643 56.32297,29.612433 88.31525,49.1313732 31.98227,19.5120148 60.8362,38.8702888 84.06486,56.0387508 z M 161.12636,-16.65695 c 3.71858,-8.082969 8.34743,-15.602217 13.74094,-22.461109 -4.11439,-1.94944 -8.09297,-3.782832 -11.89392,-5.47763 -14.66631,-6.5394 -26.91995,-11.129264 -35.5705,-13.352423 -4.32528,-1.111585 -7.77638,-1.602607 -9.87001,-1.571104 -0.77122,0.0097 -1.08107,0.02755 -1.2261,0.02294 0.14998,0.521663 0.41783,1.273856 1.06814,2.371668 1.56179,2.636164 4.62643,6.409786 8.93524,10.808449 7.81018,7.972614 19.87246,18.209949 34.81616,29.657746 z"
       id="path50" /></g></svg>