<?xml version="1.0" encoding="UTF-8" standalone="no"?>
<!-- Created with Inkscape (http://www.inkscape.org/) -->

<svg
   xmlns:dc="http://purl.org/dc/elements/1.1/"
   xmlns:cc="http://creativecommons.org/ns#"
   xmlns:rdf="http://www.w3.org/1999/02/22-rdf-syntax-ns#"
   xmlns:svg="http://www.w3.org/2000/svg"
   xmlns="http://www.w3.org/2000/svg"
   xmlns:sodipodi="http://sodipodi.sourceforge.net/DTD/sodipodi-0.dtd"
   xmlns:inkscape="http://www.inkscape.org/namespaces/inkscape"
   id="svg5306"
   version="1.1"
   inkscape:version="0.92.1 r15371"
   xml:space="preserve"
   width="690.82825"
   height="468.63379"
   viewBox="0 0 690.82825 468.63379"
   sodipodi:docname="yesterday in space logo - composite.svg"><metadata
     id="metadata5312"><rdf:RDF><cc:Work
         rdf:about=""><dc:format>image/svg+xml</dc:format><dc:type
           rdf:resource="http://purl.org/dc/dcmitype/StillImage" /><dc:title /></cc:Work></rdf:RDF></metadata><defs
     id="defs5310"><clipPath
       clipPathUnits="userSpaceOnUse"
       id="clipPath5320"><path
         d="M 0,0 590,0 590,590 0,590 0,0 Z"
         id="path5322"
         inkscape:connector-curvature="0" /></clipPath></defs><sodipodi:namedview
     pagecolor="#ffffff"
     bordercolor="#666666"
     borderopacity="1"
     objecttolerance="10"
     gridtolerance="10"
     guidetolerance="10"
     inkscape:pageopacity="0"
     inkscape:pageshadow="2"
     inkscape:window-width="1762"
     inkscape:window-height="947"
     id="namedview5308"
     inkscape:document-units="px"
     showgrid="false"
     fit-margin-top="0"
     fit-margin-left="0"
     fit-margin-right="0"
     fit-margin-bottom="0"
     inkscape:zoom="0.36"
     inkscape:cx="262.28787"
     inkscape:cy="155.84489"
     inkscape:window-x="0"
     inkscape:window-y="23"
     inkscape:window-maximized="0"
     inkscape:current-layer="g5314" /><g
     id="g5314"
     inkscape:groupmode="layer"
     inkscape:label="yesterday in space logo - black"
     transform="matrix(1.3333333,0,0,-1.3333333,-47.334916,621.42056)"><path
       style="color:#000000;font-style:normal;font-variant:normal;font-weight:normal;font-stretch:normal;font-size:medium;line-height:normal;font-family:sans-serif;font-variant-ligatures:none;font-variant-position:normal;font-variant-caps:normal;font-variant-numeric:normal;font-variant-alternates:normal;font-feature-settings:normal;text-indent:0;text-align:start;text-decoration:none;text-decoration-line:none;text-decoration-style:solid;text-decoration-color:#000000;letter-spacing:normal;word-spacing:normal;text-transform:none;direction:ltr;block-progression:tb;writing-mode:lr-tb;baseline-shift:baseline;text-anchor:start;white-space:normal;shape-padding:0;clip-rule:nonzero;display:inline;overflow:visible;visibility:visible;opacity:1;isolation:auto;mix-blend-mode:normal;color-interpolation:sRGB;color-interpolation-filters:linearRGB;solid-color:#000000;solid-opacity:1;fill:#420264;fill-opacity:1;fill-rule:nonzero;stroke:none;stroke-width:4;stroke-linecap:round;stroke-linejoin:miter;stroke-miterlimit:4;stroke-dasharray:none;stroke-dashoffset:0;stroke-opacity:1;color-rendering:auto;image-rendering:auto;shape-rendering:auto;text-rendering:auto;enable-background:accumulate"
       d="M 596.79883 58.554688 C 595.85594 58.568528 594.93405 58.872764 594.18359 59.365234 C 592.18237 60.678514 591.07364 63.013433 590.52148 65.816406 C 589.86792 69.13406 590.82506 73.593784 592.34375 79.527344 C 593.86243 85.46089 596.08398 92.677778 598.45703 100.51758 C 599.17868 102.90166 599.85758 105.5414 600.5918 108.02148 C 597.44978 116.63726 591.73233 122.37714 585.25586 125.98047 C 575.52519 131.39435 563.97004 131.74773 558.42773 129.61914 C 554.15309 127.97703 550.81849 124.10236 548.30859 118.98828 C 548.98761 115.43332 549.61301 111.8162 550.05273 108.20703 C 551.09204 99.675765 551.45831 91.370686 551.08203 84.941406 C 550.8939 81.72678 550.53132 78.990278 549.91016 76.830078 C 549.59958 75.749971 549.23037 74.809475 548.69922 73.986328 C 548.16807 73.163181 547.41191 72.386439 546.31641 72.072266 C 545.33403 71.790532 544.18187 71.995499 543.37109 72.505859 C 542.56032 73.016233 542.00881 73.721979 541.54688 74.509766 C 540.62301 76.085339 540.0249 78.112085 539.56641 80.574219 C 538.64942 85.498499 538.41845 92.123056 539.08398 99.105469 C 539.74952 106.08788 541.31283 113.40704 544.12891 119.62891 C 544.13384 119.64077 544.14115 119.65011 544.14648 119.66211 C 543.2971 123.87211 542.29937 127.90875 541.12891 131.49023 C 538.8758 138.38442 535.87249 143.5438 533.23828 145.19336 C 530.19968 147.09615 528.66791 146.84763 527.00391 145.56641 C 525.33989 144.28517 523.68535 141.36513 522.43359 137.62109 C 522.09725 136.61508 521.95664 135.33961 521.66797 134.24414 C 523.28192 127.52546 524.66188 120.22554 525.42773 112.9707 C 526.48125 102.99138 526.68137 93.891207 525.30273 88.433594 C 524.94745 87.02718 524.67668 85.900979 523.3418 85.074219 C 522.67437 84.660845 521.65409 84.581664 520.95898 84.841797 C 520.26389 85.10193 519.83436 85.515887 519.47461 85.933594 C 518.03566 87.60438 517.21815 90.068789 516.33594 93.230469 C 514.5715 99.553829 513.27472 108.11103 514.02148 113.82227 C 514.69639 118.9852 515.76462 126.92332 517.56641 134.19336 C 517.04539 136.29431 516.59998 138.65369 516.01953 140.47461 C 513.71853 147.69301 508.13079 152.86047 502.18555 155.19727 C 496.24032 157.53407 490.21985 156.99385 486.61328 153.37891 C 479.35553 146.10443 475.45601 136.89271 475.42773 126.875 C 475.71516 124.50885 476.00407 122.12796 476.2832 119.83398 A 2.0003882 2.0003882 0 0 0 476.18945 118.94922 C 477.33245 113.07817 479.76366 107.04057 483.58203 101.04297 C 489.30411 92.055422 496.22316 90.886471 502.14453 91.650391 C 508.06589 92.414297 512.66797 95.394531 512.66797 95.394531 A 2.0001999 2.0001999 0 1 0 514.85938 92.050781 C 514.85937 92.050781 509.62092 88.58234 502.6543 87.683594 C 495.68767 86.784834 486.67162 88.740745 480.20703 98.894531 C 474.58252 107.72907 471.77793 116.8625 471.55078 125.5625 C 470.15398 136.9867 468.56539 148.78215 465.77539 156.83789 C 464.12611 161.59997 462.02254 164.89894 459.88086 166.16016 C 458.81002 166.79078 457.74326 167.02323 456.34766 166.80664 C 454.95206 166.59005 453.21158 165.85563 451.14453 164.36914 C 447.88145 162.02254 445.3614 157.57542 443.31836 152.28711 C 444.93288 145.04983 445.85542 136.75543 446.36523 128.20703 C 447.2181 113.90666 447.06119 99.375452 447.49609 90.572266 C 447.82148 83.981639 447.56256 78.338966 446.91992 74.066406 C 446.5986 71.930113 446.18545 70.14052 445.66016 68.689453 C 445.13488 67.238386 444.61377 66.054502 443.3418 65.228516 C 442.70581 64.815489 441.75625 64.595735 440.92773 64.798828 C 440.0992 65.001935 439.49486 65.49169 439.02539 66.027344 C 438.08647 67.098637 437.48129 68.503264 436.86914 70.462891 C 435.64485 74.382144 434.606 80.541714 433.87109 89.623047 C 433.51575 94.017127 432.55133 109.88964 433.93945 126.43945 C 434.63351 134.71436 435.91029 143.15201 438.19727 150.44922 C 438.43689 151.21382 438.8296 151.7956 439.0918 152.53516 C 438.10764 156.67846 436.96692 160.43478 435.45898 163.08203 C 428.48444 175.32666 422.11424 180.03183 417.16992 181.56641 C 412.22559 183.10097 408.43665 181.63257 406.02734 180.50195 C 403.95378 179.52902 401.36834 176.85035 399.23633 172.97266 C 397.10433 169.09498 395.3743 164.06959 394.58789 158.56055 C 393.01506 147.54245 395.14522 134.69581 404.81641 124.49414 C 413.82427 114.99251 419.57795 114.30783 423.04492 115.31836 C 426.5119 116.32889 428.16602 119.31641 428.16602 119.31641 A 2.0001999 2.0001999 0 1 0 431.68359 117.41602 C 431.68359 117.41602 429.33514 112.98827 424.16211 111.48047 C 418.98908 109.97267 411.46423 111.66453 401.91211 121.74023 C 394.3426 129.72494 390.98087 139.23506 390.28125 148.36914 A 2.0001999 2.0001999 0 0 0 390.05859 149.39648 C 390.20617 155.76826 387.7349 165.37529 384.58008 174.00391 C 381.42525 182.63252 377.49337 190.50233 375.41797 193.26953 C 373.59397 195.7015 369.89214 196.80276 366.5332 195.75391 C 363.17427 194.70505 360.07204 191.72245 359.48828 185.27734 C 359.21889 182.30252 359.8679 176.88534 361.08398 170.79297 C 362.30006 164.7006 364.04716 157.85165 365.83398 151.58008 C 367.3451 146.27622 368.78038 141.92398 370.04492 138.24805 C 370.32706 137.78003 370.80633 137.16661 371.05273 136.72461 C 372.36907 134.36321 373.25586 132.49205 373.25586 130.51367 C 373.25586 130.23341 373.36266 129.98934 372.98242 129.27148 C 372.7923 128.91256 372.25165 128.31901 371.49609 128.19141 C 370.74053 128.06381 370.21479 128.35875 369.94727 128.54492 C 369.41221 128.91727 369.33958 129.13677 369.19922 129.35742 C 369.05886 129.57809 368.94427 129.79629 368.82227 130.04297 C 368.33443 131.02968 367.75615 132.50009 367.05078 134.45898 C 366.86783 134.96706 366.59102 135.96991 366.39453 136.53711 C 365.28425 138.34979 364.12192 140.21565 362.44727 142.49414 C 358.10801 148.39799 352.13557 155.56778 345.75977 162.79102 C 344.56129 164.14868 343.41678 165.0111 342.28711 165.81641 C 342.75304 161.39953 342.44277 157.3142 341.12891 153.81055 C 338.50444 146.81197 333.23737 143.61903 328.44922 144.12305 C 323.66107 144.62707 319.6582 148.82479 319.6582 154.51367 C 319.6582 160.20257 323.1177 166.60691 328.5957 170.04492 C 331.01801 171.56518 333.94715 172.26775 337.02539 172.02148 C 336.41808 174.32991 335.63154 176.72186 334.64453 179.16602 C 330.7972 188.6932 324.21112 198.90384 315.76953 207.51172 C 307.49274 215.95156 299.381 218.02425 292.31445 216.73242 C 288.20767 215.98165 284.48596 213.94055 281.29102 211.25195 C 283.15996 208.21339 285.04077 205.2896 286.83398 202.16602 C 290.04376 196.57498 293.00712 191.02973 295.28516 186.13477 C 297.56321 181.23979 299.17371 177.06721 299.63672 173.82617 C 300.54149 167.49272 297.84097 161.68398 293.48828 158.71484 C 291.31193 157.23028 288.66218 156.46974 285.95508 156.86523 C 283.24796 157.26073 280.57572 158.81031 278.32617 161.50977 C 274.04471 166.64753 270.41579 174.35105 268.79883 182.57617 C 267.18187 190.80129 267.5871 199.61878 271.95703 206.66602 C 273.14003 208.5738 274.57579 210.34278 276.15039 211.99414 C 271.97223 218.65035 267.91768 224.81821 264.93164 228.79297 C 260.48291 234.71474 255.85447 235.7523 252.19336 234.45898 C 248.53227 233.16566 245.53912 229.20514 245.25391 223.6582 C 245.04623 219.61551 246.50408 208.41341 248.42773 195.18164 C 250.74428 190.62623 253.16748 186.02279 255.14258 181.62891 C 258.91187 173.2436 261.95861 165.30106 263.83398 158.17969 C 304.09553 144.25789 361.47117 123.60966 400.67383 106.03516 A 2.0002918 2.0002918 0 0 0 399.03711 102.38477 C 360.84832 119.50475 304.99839 139.6707 264.9043 153.57031 C 265.43989 150.86032 265.77109 148.29519 265.86328 145.9043 C 266.13001 138.992 265.80119 133.60044 265.04492 129.76172 C 264.66678 127.84236 264.19987 126.31078 263.52539 125.08398 C 262.85091 123.85717 261.76924 122.66923 260.14258 122.61523 C 258.51591 122.5613 257.36524 123.62928 256.52734 124.82227 C 255.68946 126.01525 254.98741 127.57525 254.31055 129.61133 C 252.9568 133.68347 251.75893 139.65531 250.86914 147.81641 C 250.47923 151.39213 250.03046 155.09151 249.54688 158.8457 C 229.38442 165.72987 215.43555 170.30859 215.43555 170.30859 A 2.0001999 2.0001999 0 0 0 216.08984 174.2168 A 2.0001999 2.0001999 0 0 0 216.67773 174.11133 C 216.67773 174.11133 229.85987 169.78356 248.94727 163.28125 C 247.59362 173.35933 246.05865 183.63262 244.70117 192.88867 C 244.63967 193.30797 244.60949 193.58941 244.54883 194.00391 C 239.81793 203.26305 234.73341 212.63929 229.35352 221.7207 C 226.11005 227.19578 222.89042 232.3527 219.71484 237.41602 C 218.39003 234.69112 217.12058 231.93113 215.66992 229.30273 C 211.94392 222.55172 208.02631 216.42124 204.44336 210.92383 C 205.91487 206.56185 207.17222 202.37225 207.91797 198.73633 C 209.02561 193.33605 209.41031 189.04539 208.35547 185.88086 C 207.38682 182.9749 205.2871 181.0385 202.9043 180.42578 C 200.52148 179.81305 198.03857 180.36897 195.88672 181.56445 C 191.58299 183.95541 188.22285 189.3326 190.16016 195.14453 C 191.20988 198.29369 194.3671 202.80919 198.48633 209.07227 C 198.95935 209.79147 199.52647 210.69365 200.02148 211.44922 C 199.49634 212.93771 199.06832 214.34917 198.4668 215.88867 C 193.29204 229.13296 185.35048 243.93776 176.14453 254.60352 C 171.61514 259.85113 167.49754 262.368 163.89453 263.26172 C 160.2915 264.15544 157.09154 263.50239 154.09766 261.96484 C 151.71407 260.74072 149.5946 258.86079 147.66602 256.86523 C 148.74044 254.67246 150.06113 252.19401 151.02734 250.12891 C 154.01568 243.74193 156.45035 238.01918 158.10547 233.2207 C 159.76058 228.42222 160.70279 224.63146 160.45117 221.60352 C 160.03749 216.62518 159.11723 212.83483 157.74414 210.00391 C 156.37106 207.17299 154.45782 205.23995 152.15234 204.46484 C 149.84686 203.68975 147.38097 204.17464 145.24805 205.39648 C 143.11513 206.61834 141.20107 208.55635 139.54492 210.98828 C 135.54588 216.86004 133.82952 224.46173 133.66016 231.66797 C 133.49081 238.87421 134.81813 245.6754 137.54297 250.2168 C 138.71872 252.17636 140.53856 254.91931 142.81836 257.62109 C 137.51535 268.2898 131.43133 279.88443 124.77734 291.99805 C 123.45537 294.40473 122.25667 296.51479 120.92383 298.91992 C 119.37924 289.4452 116.88095 279.69239 114.17773 270.04883 C 116.0782 265.39755 117.25586 259.99518 117.25586 253.61133 C 117.25586 235.04306 114.44373 225.08446 110.51953 220.42578 C 109.53849 219.2611 108.445 218.41457 107.21289 217.97852 C 105.98077 217.54248 104.60556 217.58838 103.45898 218.0957 C 101.16585 219.11034 99.866174 221.48003 99.302734 224.33984 C 98.655308 227.62408 99.550368 232.0337 100.99023 237.86523 C 102.4301 243.69678 104.5454 250.77504 106.81445 258.47852 C 107.89524 262.14782 108.93222 266.17665 110.02539 270.05664 C 106.61595 277.48879 100.85807 282.15905 94.439453 285.04297 C 84.194205 289.64621 72.025109 289.21567 66.373047 287.04492 C 61.819556 285.2957 58.519234 281.12458 56.158203 275.47852 C 53.797173 269.83244 52.462948 262.83252 51.785156 256.04297 C 50.429571 242.46386 51.646484 229.80273 51.646484 229.80273 A 2.0001999 2.0001999 0 1 0 47.667969 229.41797 C 47.667969 229.41797 46.403226 242.38319 47.806641 256.44141 C 48.508347 263.47053 49.862453 270.79356 52.466797 277.02148 C 55.071142 283.24942 59.012898 288.50186 64.941406 290.7793 C 72.089345 293.52455 84.721423 293.79317 96.076172 288.69141 C 102.06204 286.00194 107.57561 281.62937 111.49609 275.36133 C 114.20329 285.37963 116.60127 295.39789 117.74609 304.61914 C 102.93904 331.20026 88.313135 356.76919 83.595703 368.14648 C 80.867982 374.72591 79.708783 380.16641 79.900391 384.55078 C 80.091999 388.93514 81.773368 392.4142 84.728516 394.2207 C 86.206096 395.12396 87.901862 395.57566 89.736328 395.63086 C 91.570808 395.68606 93.543066 395.34388 95.572266 394.6582 C 99.630666 393.28687 104.05098 390.53124 108.60352 386.39258 C 117.9169 377.92586 122.0204 365.37921 123.44727 351.31445 C 124.87412 337.24971 123.64894 321.54088 122.04492 306.30273 C 122.01376 306.00729 121.93803 305.68399 121.9043 305.38672 C 124.11054 301.41795 126.09691 297.90399 128.2832 293.92383 C 134.68727 282.2652 140.55195 271.09202 145.76758 260.66797 C 147.69688 262.51124 149.79938 264.25191 152.27148 265.52148 C 155.9201 267.39527 160.24232 268.2893 164.85742 267.14453 C 169.47253 265.99976 174.2693 262.89256 179.16992 257.21484 C 188.82396 246.02994 196.88312 230.93674 202.19336 217.3457 C 202.41501 216.77842 202.55762 216.26668 202.76953 215.70508 C 205.86898 220.52162 209.0891 225.65977 212.16797 231.23828 C 214.01461 234.58415 215.65524 238.03088 217.2207 241.4707 C 205.52578 259.88845 195.57545 273.96542 193.66016 276.50977 C 189.90437 281.49801 186.10836 288.48418 184.25391 295.09961 C 183.32663 298.40732 182.87058 301.62956 183.29102 304.55664 C 183.71146 307.48373 185.17543 310.21055 187.87109 311.73633 C 193.27679 314.79655 199.87092 314.39093 206.2207 309.41016 C 212.57048 304.42937 219.04504 295.15551 225.87891 280.14258 C 231.01432 268.85995 227.74063 255.00831 221.81836 241.63867 C 225.39585 235.96739 229.08976 230.01418 232.79492 223.75977 C 236.25106 217.9257 239.62023 211.89605 242.89648 205.88477 C 241.85299 213.62246 241.07707 220.30673 241.25977 223.86328 C 241.61455 230.76303 245.45172 236.31879 250.86328 238.23047 C 256.27484 240.14215 262.96164 238.07549 268.12891 231.19727 C 271.13621 227.19419 275.08916 221.19988 279.17383 214.7168 C 282.75005 217.61448 286.91888 219.813 291.5957 220.66797 C 299.98416 222.20146 309.64375 219.47461 318.62695 210.31445 C 327.44537 201.32233 334.28779 190.73492 338.35547 180.66211 C 339.71996 177.2832 340.65027 174.00759 341.36133 170.81055 C 343.85819 169.73256 346.35158 168.15915 348.75586 165.43555 C 354.00493 159.48879 358.49318 153.90185 362.57422 148.62695 C 362.36445 149.34466 362.19784 149.74686 361.98828 150.48242 C 360.1796 156.83068 358.40745 163.76101 357.16016 170.00977 C 355.91286 176.25851 355.15325 181.74287 355.50586 185.63672 C 356.2021 193.32361 360.46073 198.04812 365.3418 199.57227 C 370.22286 201.09641 375.64314 199.63597 378.61914 195.66797 C 381.34374 192.03517 385.08881 184.25463 388.33398 175.37891 C 389.61364 171.87897 390.7903 168.2452 391.74805 164.66797 C 392.73231 168.46478 394.10261 171.93964 395.73047 174.90039 C 398.12279 179.25152 400.99773 182.56131 404.32617 184.12305 C 406.3592 185.07709 409.73462 186.39629 413.91992 186.18164 C 415.31502 186.11009 416.79971 185.86957 418.35547 185.38672 C 424.57847 183.45529 431.65944 177.83459 438.93555 165.06055 C 440.01141 163.17183 440.88108 160.92495 441.67383 158.55273 C 443.58399 162.21676 445.81314 165.4611 448.80859 167.61523 C 451.22654 169.35407 453.50975 170.41062 455.73438 170.75586 C 457.95901 171.10111 460.11006 170.66554 461.91016 169.60547 C 465.51036 167.48535 467.76841 163.30975 469.55664 158.14648 C 471.35126 152.96473 472.63309 146.64129 473.66992 139.96875 C 475.67955 145.97062 479.07642 151.48941 483.78125 156.20508 C 488.79468 161.23013 496.63533 161.67646 503.64844 158.91992 C 510.66154 156.16339 517.12913 150.15639 519.82812 141.68945 C 519.82946 141.68545 519.83082 141.67978 519.83203 141.67578 C 521.03292 144.52923 522.44297 147.10285 524.56445 148.73633 C 527.38081 150.90483 531.41926 151.05253 535.36133 148.58398 C 539.70778 145.86221 542.55944 139.99102 544.93164 132.73242 C 545.73424 130.27654 546.35137 127.48863 547.00195 124.75977 C 549.56582 128.62222 552.81627 131.74858 556.99414 133.35352 C 564.25183 136.14092 576.41384 135.4803 587.20117 129.47852 C 593.17043 126.15738 598.57369 121.00391 602.26953 113.91602 C 605.51868 125.28007 608.49694 136.81796 609.79492 147.20117 C 594.99034 173.77752 580.36708 199.3446 575.65039 210.7207 C 572.92232 217.30014 571.76353 222.73866 571.95508 227.12305 C 572.14661 231.50745 573.82407 234.98452 576.7793 236.79102 C 578.25691 237.69427 579.95259 238.14597 581.78711 238.20117 C 583.62163 238.25636 585.59379 237.91614 587.62305 237.23047 C 591.68155 235.85914 596.10175 233.10352 600.6543 228.96484 C 609.96767 220.49814 614.07315 207.95147 615.5 193.88672 C 616.92687 179.82196 615.70362 164.1151 614.09961 148.87695 C 614.06872 148.58349 613.99258 148.25833 613.95898 147.96289 C 616.16556 143.99354 618.14931 140.47683 620.33594 136.49609 C 628.90798 120.89072 637.10538 105.475 643.08203 92.701172 C 646.07035 86.314252 648.50505 80.591409 650.16016 75.792969 C 651.81528 70.994516 652.75552 67.201775 652.50391 64.173828 A 2.0004483 2.0004483 0 1 0 648.51562 64.505859 C 648.66401 66.291593 647.95511 69.907308 646.375 74.488281 C 644.79491 79.069254 642.41152 84.695446 639.45898 91.005859 C 633.55393 103.6267 625.38682 118.9944 616.83203 134.56836 C 615.50499 136.98424 614.2989 139.10328 612.96094 141.51758 C 611.15187 130.58531 608.01645 119.08037 604.74805 108.00391 C 606.22445 103.53659 607.14648 98.521079 607.14648 92.761719 C 607.14648 74.217599 604.77696 64.898346 601.03711 60.697266 C 600.10214 59.646999 598.99511 58.897658 597.74219 58.642578 C 597.42896 58.578805 597.11313 58.550074 596.79883 58.554688 z M 596.69336 62.552734 C 596.77582 62.533463 596.84681 62.54088 596.94336 62.560547 C 597.13647 62.599854 597.5222 62.765862 598.04883 63.357422 C 600.15531 65.723688 603.14648 74.607173 603.14648 92.761719 C 603.14648 95.458732 602.90364 97.92361 602.54883 100.27734 C 602.4604 99.984917 602.37316 99.648102 602.28516 99.357422 C 599.90905 91.507555 597.70013 84.317309 596.2207 78.537109 C 594.74126 72.75691 594.13083 68.19619 594.44727 66.589844 C 594.86509 64.468804 595.824 63.073118 596.37891 62.708984 C 596.51763 62.617964 596.6109 62.572006 596.69336 62.552734 z M 441.64258 69.535156 C 441.77546 69.769703 441.76342 69.672381 441.90039 70.050781 C 442.29003 71.127101 442.67064 72.706149 442.96484 74.662109 C 443.55323 78.574043 443.81265 84.001007 443.49805 90.373047 C 443.05029 99.436527 443.21451 113.8575 442.37305 127.9668 C 442.05037 133.37736 441.36764 138.45807 440.6543 143.42773 C 439.39611 137.92125 438.42659 132.0745 437.92578 126.10352 C 436.56854 109.922 437.51813 94.142532 437.85742 89.947266 C 438.57917 81.028613 439.63047 75.03187 440.68555 71.654297 C 441.05956 70.457004 441.35608 70.03481 441.64258 69.535156 z M 545.32031 76.121094 C 545.34525 76.153627 545.30998 76.107897 545.33984 76.154297 C 545.54938 76.47903 545.82559 77.09804 546.06641 77.935547 C 546.54805 79.610573 546.91212 82.139181 547.08984 85.175781 C 547.44528 91.248968 547.09714 99.392716 546.08203 107.72461 C 545.94008 108.88965 545.68737 110.0311 545.51953 111.19922 C 544.37012 107.15213 543.46802 102.94197 543.06641 98.728516 C 542.43245 92.077262 542.67941 85.704727 543.49805 81.308594 C 543.90737 79.110514 544.48983 77.399936 544.99805 76.533203 C 545.16095 76.25539 545.22631 76.21736 545.32031 76.121094 z M 521.55273 90.916016 C 522.38268 95.516216 522.39738 103.56902 521.44922 112.55078 C 521.01205 116.69209 520.33116 120.9402 519.5918 125.08203 C 518.89481 120.72639 518.40723 116.50764 517.98828 113.30273 C 517.39771 108.78597 518.55059 100.16904 520.1875 94.302734 C 520.66913 92.576668 521.07475 91.978282 521.55273 90.916016 z M 259.95898 126.91992 C 259.98893 126.9685 259.98329 126.94579 260.01953 127.01172 C 260.36666 127.64311 260.7916 128.86272 261.12109 130.53516 C 261.78001 133.88001 262.12382 139.05091 261.86523 145.75195 C 261.75856 148.51845 261.26669 151.66915 260.45117 155.11133 C 258.09045 155.92622 255.96484 156.65444 253.73828 157.41797 C 254.13956 154.32484 254.51586 151.25888 254.84375 148.25195 C 255.71396 140.27037 256.90325 134.49336 258.10742 130.87109 C 258.70952 129.05996 259.33139 127.78746 259.80078 127.11914 C 259.86568 127.02674 259.90711 126.98276 259.95898 126.91992 z M 329.94922 148.08594 C 332.53851 148.27447 335.48117 150.1386 337.38477 155.21484 C 338.62025 158.50944 338.66125 162.98789 337.80664 167.99414 C 337.71251 168.01374 337.60297 168.09479 337.50977 168.11133 C 335.03926 168.54753 332.7817 167.95171 330.7207 166.6582 C 326.59869 164.07122 323.6582 158.42479 323.6582 154.51367 C 323.6582 150.60257 326.05338 148.3995 328.86523 148.10352 C 329.21672 148.06652 329.57932 148.059 329.94922 148.08594 z M 610.50977 154.16211 C 611.83251 167.73843 612.74743 181.39802 611.52148 193.48242 C 610.14834 207.01766 606.25146 218.47258 597.96484 226.00586 C 593.71739 229.86719 589.68598 232.31275 586.3457 233.44141 C 584.67556 234.00574 583.21176 234.23734 581.96289 234.20508 C 580.71401 234.17277 579.67787 233.87567 578.86523 233.37891 C 577.23997 232.3854 576.10281 230.46287 575.94922 226.94727 C 575.79563 223.43167 576.76253 218.47251 579.3418 212.25195 C 583.45849 202.32297 596.70661 178.90202 610.50977 154.16211 z M 259.19531 159.7832 C 257.37785 165.9282 254.73066 172.78821 251.49414 179.98828 C 251.09378 180.87895 250.54415 181.84532 250.12695 182.74609 L 250.125 182.74609 C 251.13815 175.85878 252.1876 168.81376 253.13867 161.85352 C 255.22878 161.13844 256.97741 160.54674 259.19531 159.7832 z M 287.14258 160.76562 C 288.56023 160.70207 289.94443 161.14094 291.23242 162.01953 C 294.1764 164.02773 296.37295 168.39517 295.67773 173.26172 C 295.34073 175.62068 293.86391 179.70773 291.6582 184.44727 C 289.4525 189.1868 286.53514 194.65221 283.36523 200.17383 C 281.73441 203.01453 280.01556 205.67062 278.31055 208.45508 C 277.22237 207.22884 276.21141 205.93578 275.35742 204.55859 C 271.72736 198.7045 271.23628 190.90854 272.72266 183.34766 C 274.20903 175.78678 277.68186 168.5306 281.40039 164.06836 C 283.15084 161.96781 284.90407 161.06223 286.5332 160.82422 C 286.73684 160.79447 286.94006 160.7747 287.14258 160.76562 z M 201.00391 184.18555 C 201.32571 184.19058 201.63086 184.22896 201.91016 184.30078 C 203.02736 184.58805 203.9292 185.25049 204.56055 187.14453 C 205.10569 188.78 205.04745 192.83433 204.00195 197.93164 C 203.46155 200.56639 202.67327 203.52227 201.69922 206.66211 C 197.67285 200.53343 194.49642 195.50491 193.95508 193.88086 C 192.69238 190.09279 194.9338 186.66959 197.83008 185.06055 C 198.91618 184.45714 200.03851 184.17045 201.00391 184.18555 z M 149.64258 208.07812 C 150.07647 208.06026 150.4864 208.12195 150.87891 208.25391 C 151.92559 208.6058 153.0849 209.56339 154.14453 211.74805 C 155.20414 213.93271 156.07852 217.28458 156.46484 221.93359 C 156.61323 223.71931 155.90433 227.33502 154.32422 231.91602 C 152.74411 236.49703 150.35683 242.12311 147.4043 248.43359 C 146.67423 249.99395 145.64921 251.90538 144.85352 253.54492 C 143.35706 251.61634 141.84178 249.60868 140.97266 248.16016 C 138.8975 244.70156 137.50452 238.38448 137.66016 231.76172 C 137.81581 225.13896 139.46865 218.20252 142.84961 213.23828 C 144.2448 211.18956 145.81283 209.6857 147.23828 208.86914 C 148.12919 208.35878 148.91943 208.1079 149.64258 208.07812 z M 105.43555 221.66016 C 105.55719 221.65666 105.69407 221.68265 105.87891 221.74805 C 106.24859 221.87889 106.81229 222.23616 107.45898 223.00391 C 110.0458 226.07489 113.25586 235.48093 113.25586 253.61133 C 113.25586 257.09763 112.83844 260.16422 112.22461 263.01758 C 111.68646 261.16742 111.17893 259.1354 110.65234 257.34766 C 108.38073 249.63547 106.27469 242.581 104.87305 236.9043 C 103.47141 231.22759 102.90526 226.75304 103.22852 225.11328 C 103.63506 223.04976 104.56784 221.98056 105.08008 221.75391 C 105.20813 221.69717 105.3139 221.66366 105.43555 221.66016 z M 219.10547 245.91602 C 223.93186 257.85634 226.26305 269.64381 222.23828 278.48633 C 215.54547 293.18939 209.22051 301.97217 203.75195 306.26172 C 201.01767 308.40649 198.58747 309.49717 196.31836 309.75586 C 194.04927 310.01457 191.93894 309.44112 189.8418 308.25391 C 188.3008 307.38168 187.54698 306.0694 187.24805 303.98828 C 186.94911 301.90716 187.27352 299.14943 188.10547 296.18164 C 189.76935 290.24607 193.41126 283.49044 196.85547 278.91602 C 198.91466 276.18052 208.12186 263.0913 219.10547 245.91602 z M 118.45703 311.58789 C 119.77992 325.16506 120.69284 338.825 119.4668 350.91016 C 118.09366 364.4454 114.19872 375.9003 105.91211 383.43359 C 101.66464 387.29491 97.631189 389.74049 94.291016 390.86914 C 92.620922 391.43346 91.15897 391.66703 89.910156 391.63477 C 88.661356 391.60245 87.62704 391.30339 86.814453 390.80664 C 85.189265 389.81315 84.050127 387.89258 83.896484 384.37695 C 83.742843 380.86131 84.71207 375.89831 87.291016 369.67773 C 91.407869 359.74889 104.6533 336.32893 118.45703 311.58789 z "
       id="path5326"
       transform="matrix(0.75000002,0,0,-0.75000002,35.501188,466.06543)" /><path
       style="color:#000000;font-style:normal;font-variant:normal;font-weight:normal;font-stretch:normal;font-size:medium;line-height:normal;font-family:sans-serif;font-variant-ligatures:none;font-variant-position:normal;font-variant-caps:normal;font-variant-numeric:normal;font-variant-alternates:normal;font-feature-settings:normal;text-indent:0;text-align:start;text-decoration:none;text-decoration-line:none;text-decoration-style:solid;text-decoration-color:#000000;letter-spacing:normal;word-spacing:normal;text-transform:none;direction:ltr;block-progression:tb;writing-mode:lr-tb;baseline-shift:baseline;text-anchor:start;white-space:normal;shape-padding:0;clip-rule:nonzero;display:inline;overflow:visible;visibility:visible;opacity:1;isolation:auto;mix-blend-mode:normal;color-interpolation:sRGB;color-interpolation-filters:linearRGB;solid-color:#000000;solid-opacity:1;fill:#420264;fill-opacity:1;fill-rule:nonzero;stroke:none;stroke-width:2;stroke-linecap:round;stroke-linejoin:round;stroke-miterlimit:4;stroke-dasharray:none;stroke-dashoffset:0;stroke-opacity:1;color-rendering:auto;image-rendering:auto;shape-rendering:auto;text-rendering:auto;enable-background:accumulate"
       d="m 47.28125,269.98438 a 1.0001,1.0001 0 0 0 -0.982422,0.82812 c -0.743196,4.28816 -0.37155,10.44125 -1.328125,15.61133 -0.478288,2.58503 -1.281733,4.88736 -2.605469,6.56445 -1.323736,1.67709 -3.132893,2.79341 -5.964843,3.08008 a 1.0001,1.0001 0 0 0 0,1.99023 c 2.832834,0.28699 4.723555,1.41386 6.130859,3.10547 1.407304,1.69161 2.300844,4.00113 2.841797,6.58399 1.078751,5.15064 0.738795,11.27279 0.912109,15.4375 5.07e-4,0.0122 -5.16e-4,0.0308 0,0.043 a 1.0001,1.0001 0 0 0 1.998047,0.041 c 6.8e-4,-0.016 -6.64e-4,-0.0406 0,-0.0566 0.172202,-4.16416 -0.167754,-10.28848 0.910156,-15.44531 0.541034,-2.58836 1.43425,-4.90213 2.841797,-6.59766 1.407547,-1.69553 3.300555,-2.8244 6.132813,-3.11133 a 1.0001,1.0001 0 0 0 0,-1.99023 c -2.831951,-0.28667 -4.643061,-1.40299 -5.966797,-3.08008 -1.323736,-1.67709 -2.127181,-3.97942 -2.605469,-6.56445 -0.956575,-5.17008 -0.582976,-11.32317 -1.326172,-15.61133 a 1.0001,1.0001 0 0 0 -0.988281,-0.82812 z m 0.002,13.14453 c 0.116521,1.23369 0.12431,2.46162 0.345703,3.6582 0.511463,2.76434 1.376377,5.37995 3.001953,7.43945 0.98444,1.24723 2.365377,2.14806 3.949219,2.83203 -1.618159,0.6829 -3.044234,1.58151 -4.083984,2.83399 -1.67117,2.01309 -2.623317,4.57904 -3.208985,7.29492 -0.585265,-2.7192 -1.542741,-5.28814 -3.21875,-7.30273 -1.039461,-1.24946 -2.463051,-2.14465 -4.080078,-2.82618 1.583082,-0.68396 2.963166,-1.58523 3.947266,-2.83203 1.625576,-2.0595 2.490491,-4.67511 3.001953,-7.43945 0.221393,-1.19658 0.229183,-2.42451 0.345703,-3.6582 z"
       id="path5342"
       inkscape:connector-curvature="0" /><path
       style="color:#000000;font-style:normal;font-variant:normal;font-weight:normal;font-stretch:normal;font-size:medium;line-height:normal;font-family:sans-serif;font-variant-ligatures:none;font-variant-position:normal;font-variant-caps:normal;font-variant-numeric:normal;font-variant-alternates:normal;font-feature-settings:normal;text-indent:0;text-align:start;text-decoration:none;text-decoration-line:none;text-decoration-style:solid;text-decoration-color:#000000;letter-spacing:normal;word-spacing:normal;text-transform:none;direction:ltr;block-progression:tb;writing-mode:lr-tb;baseline-shift:baseline;text-anchor:start;white-space:normal;shape-padding:0;clip-rule:nonzero;display:inline;overflow:visible;visibility:visible;opacity:1;isolation:auto;mix-blend-mode:normal;color-interpolation:sRGB;color-interpolation-filters:linearRGB;solid-color:#000000;solid-opacity:1;fill:#420264;fill-opacity:1;fill-rule:nonzero;stroke:none;stroke-width:2;stroke-linecap:round;stroke-linejoin:round;stroke-miterlimit:4;stroke-dasharray:none;stroke-dashoffset:0;stroke-opacity:1;color-rendering:auto;image-rendering:auto;shape-rendering:auto;text-rendering:auto;enable-background:accumulate"
       d="m 135.22656,114.58984 a 1.0001,1.0001 0 0 0 -0.98437,0.82813 c -0.7432,4.28816 -0.3696,10.44125 -1.32617,15.61133 -0.47829,2.58503 -1.28174,4.88736 -2.60547,6.56445 -1.32374,1.67709 -3.13485,2.79341 -5.9668,3.08008 a 1.0001,1.0001 0 0 0 0,1.99023 c 2.83283,0.28699 4.72551,1.41386 6.13281,3.10547 1.40731,1.69161 2.30085,4.00113 2.8418,6.58399 1.07875,5.15064 0.73684,11.27279 0.91016,15.4375 5e-4,0.0122 -5.2e-4,0.0308 0,0.043 a 1.0001,1.0001 0 0 0 1.99804,0.043 c 4.2e-4,-0.01 -4.1e-4,-0.0252 0,-0.0351 a 1.0001,1.0001 0 0 0 0.002,-0.0469 c 0.17013,-4.16375 -0.16589,-10.27201 0.91015,-15.41992 0.54104,-2.58836 1.43425,-4.90408 2.8418,-6.59961 1.40755,-1.69553 3.2986,-2.8244 6.13086,-3.11133 a 1.0001,1.0001 0 0 0 0,-1.99023 c -2.83195,-0.28667 -4.64111,-1.40299 -5.96485,-3.08008 -1.32373,-1.67709 -2.12718,-3.97942 -2.60546,-6.56445 -0.95658,-5.17008 -0.58493,-11.32317 -1.32813,-15.61133 a 1.0001,1.0001 0 0 0 -0.98633,-0.82813 z m 0.002,13.15039 c 0.11646,1.2317 0.12466,2.4577 0.3457,3.65235 0.51146,2.76434 1.37638,5.3819 3.00195,7.4414 0.98444,1.24723 2.36538,2.14611 3.94922,2.83008 -1.61816,0.6829 -3.04423,1.58151 -4.08398,2.83399 -1.67165,2.01366 -2.62532,4.58012 -3.21094,7.29687 -0.58523,-2.71988 -1.54041,-5.28768 -3.2168,-7.30273 -1.03946,-1.24946 -2.46305,-2.1466 -4.08008,-2.82813 1.58249,-0.68396 2.96344,-1.58362 3.94727,-2.83008 1.62558,-2.0595 2.49049,-4.67706 3.00195,-7.4414 0.22104,-1.19468 0.22924,-2.42062 0.34571,-3.65235 z"
       id="path5346"
       inkscape:connector-curvature="0" /><path
       style="color:#000000;font-style:normal;font-variant:normal;font-weight:normal;font-stretch:normal;font-size:medium;line-height:normal;font-family:sans-serif;font-variant-ligatures:none;font-variant-position:normal;font-variant-caps:normal;font-variant-numeric:normal;font-variant-alternates:normal;font-feature-settings:normal;text-indent:0;text-align:start;text-decoration:none;text-decoration-line:none;text-decoration-style:solid;text-decoration-color:#000000;letter-spacing:normal;word-spacing:normal;text-transform:none;direction:ltr;block-progression:tb;writing-mode:lr-tb;baseline-shift:baseline;text-anchor:start;white-space:normal;shape-padding:0;clip-rule:nonzero;display:inline;overflow:visible;visibility:visible;opacity:1;isolation:auto;mix-blend-mode:normal;color-interpolation:sRGB;color-interpolation-filters:linearRGB;solid-color:#000000;solid-opacity:1;fill:#420264;fill-opacity:1;fill-rule:nonzero;stroke:none;stroke-width:2;stroke-linecap:round;stroke-linejoin:round;stroke-miterlimit:4;stroke-dasharray:none;stroke-dashoffset:0;stroke-opacity:1;color-rendering:auto;image-rendering:auto;shape-rendering:auto;text-rendering:auto;enable-background:accumulate"
       d="m 504.42773,411.80859 a 1.0001,1.0001 0 0 0 -0.98437,0.82813 c -0.7432,4.28816 -0.37155,10.4393 -1.32813,15.60937 -0.47828,2.58504 -1.27978,4.88932 -2.60351,6.56641 -1.32374,1.67709 -3.13485,2.79146 -5.9668,3.07812 a 1.0001,1.0001 0 0 0 0,1.99024 c 2.83284,0.28699 4.72356,1.41581 6.13086,3.10742 1.40731,1.69161 2.3028,3.99918 2.84375,6.58203 1.07875,5.15065 0.73684,11.27279 0.91016,15.4375 5e-4,0.0122 -5.2e-4,0.0308 0,0.043 a 1.0001,1.0001 0 0 0 1.99804,0.043 c 4.7e-4,-0.011 -4.6e-4,-0.028 0,-0.0391 a 1.0001,1.0001 0 0 0 0.002,-0.043 c 0.17013,-4.16375 -0.16784,-10.27202 0.9082,-15.41992 0.54103,-2.58836 1.43425,-4.90213 2.8418,-6.59766 1.40754,-1.69553 3.30055,-2.82635 6.13281,-3.11328 a 1.0001,1.0001 0 0 0 0,-1.99024 c -2.83195,-0.28666 -4.64306,-1.40103 -5.9668,-3.07812 -1.32373,-1.67709 -2.12718,-3.98137 -2.60547,-6.56641 -0.95657,-5.17007 -0.58297,-11.32121 -1.32617,-15.60937 a 1.0001,1.0001 0 0 0 -0.98633,-0.82813 z m 0,13.15039 c 0.11647,1.23173 0.12467,2.45767 0.34571,3.65235 0.51146,2.76434 1.37637,5.37995 3.00195,7.43945 0.98478,1.24766 2.36852,2.1461 3.95313,2.83008 -1.61968,0.6829 -3.04548,1.5826 -4.08594,2.83594 -1.67165,2.01366 -2.62532,4.57818 -3.21094,7.29492 -0.58523,-2.71987 -1.54042,-5.2877 -3.2168,-7.30274 -1.03946,-1.24945 -2.465,-2.14659 -4.08203,-2.82812 1.58308,-0.68397 2.96317,-1.58329 3.94727,-2.83008 1.62557,-2.0595 2.49049,-4.67511 3.00195,-7.43945 0.22104,-1.19465 0.22924,-2.42065 0.3457,-3.65235 z"
       id="path5350"
       inkscape:connector-curvature="0" /><path
       style="color:#000000;font-style:normal;font-variant:normal;font-weight:normal;font-stretch:normal;font-size:medium;line-height:normal;font-family:sans-serif;font-variant-ligatures:none;font-variant-position:normal;font-variant-caps:normal;font-variant-numeric:normal;font-variant-alternates:normal;font-feature-settings:normal;text-indent:0;text-align:start;text-decoration:none;text-decoration-line:none;text-decoration-style:solid;text-decoration-color:#000000;letter-spacing:normal;word-spacing:normal;text-transform:none;direction:ltr;block-progression:tb;writing-mode:lr-tb;baseline-shift:baseline;text-anchor:start;white-space:normal;shape-padding:0;clip-rule:nonzero;display:inline;overflow:visible;visibility:visible;opacity:1;isolation:auto;mix-blend-mode:normal;color-interpolation:sRGB;color-interpolation-filters:linearRGB;solid-color:#000000;solid-opacity:1;fill:#420264;fill-opacity:1;fill-rule:nonzero;stroke:none;stroke-width:2.66666651;stroke-linecap:round;stroke-linejoin:miter;stroke-miterlimit:4;stroke-dasharray:none;stroke-dashoffset:0;stroke-opacity:1;color-rendering:auto;image-rendering:auto;shape-rendering:auto;text-rendering:auto;enable-background:accumulate"
       d="M 679.46484 187.14258 C 679.14546 187.14059 678.83293 187.19636 678.55469 187.28711 C 677.99821 187.4686 677.50655 187.76955 676.99805 188.1543 C 675.98103 188.92379 674.90409 190.05935 673.69141 191.54883 C 671.41143 194.34923 668.68113 198.44443 665.67969 203.47266 C 655.5382 201.05573 644.41419 203.49047 636.08984 210.98633 C 622.63966 223.0965 621.55001 243.85647 633.66016 257.30664 C 635.15679 258.96868 636.78672 260.43969 638.51758 261.72266 C 636.59027 267.2691 635.21007 271.99965 634.5332 275.54883 C 634.17532 277.42517 634.00081 278.9723 634.06641 280.24023 C 634.09923 280.87421 634.18551 281.44145 634.4043 281.98242 C 634.62307 282.52338 635.02947 283.08161 635.65039 283.37109 C 636.17511 283.6158 636.69509 283.63526 637.19336 283.52539 C 637.69164 283.41555 638.16564 283.17576 638.59375 282.90039 C 639.44996 282.34963 640.31054 281.53868 641.26953 280.47266 C 643.18752 278.34062 645.45944 275.17637 648.00391 271.16016 C 648.77705 269.93981 649.58045 268.61637 650.39844 267.24609 C 652.34567 267.71003 654.32953 268.00102 656.32227 268.10547 C 664.7078 268.54498 673.25734 265.79141 679.98242 259.73633 C 693.43265 247.62612 694.52228 226.86231 682.41211 213.41211 L 682.41211 213.41016 C 680.91648 211.74922 679.28797 210.27836 677.55859 208.99609 C 678.0802 207.49479 678.57551 206.03363 679.01172 204.66211 C 680.45268 200.13148 681.41607 196.3572 681.81641 193.51758 C 682.01663 192.09775 682.08556 190.9181 681.95703 189.9082 C 681.82854 188.89832 681.47131 187.8389 680.42188 187.34961 C 680.11048 187.20428 679.78423 187.14456 679.46484 187.14258 z M 679.26367 189.88867 C 679.26769 189.93028 679.28215 190.02088 679.31055 190.24414 C 679.38736 190.84791 679.35701 191.86099 679.17578 193.14648 C 678.81333 195.71748 677.88556 199.40497 676.4707 203.85352 C 676.10498 205.0034 675.70419 206.20882 675.27539 207.45703 C 673.07555 206.09823 670.74629 205.02164 668.33789 204.22852 C 671.15248 199.55586 673.71032 195.74727 675.75781 193.23242 C 676.8948 191.8359 677.89218 190.82438 678.60742 190.2832 C 678.90692 190.0566 679.11674 189.94967 679.26367 189.88867 z M 658.16992 205.21875 C 660.60026 205.22988 663.02522 205.53332 665.39062 206.12695 A 1.3334666 1.3334666 0 0 0 666.46875 206.42383 C 669.2285 207.22635 671.89087 208.43057 674.36523 210.0293 C 671.5167 217.97417 667.58537 227.50365 662.87109 237.61328 C 658.15635 247.72441 653.38213 256.86268 649.12695 264.15234 C 646.29124 263.27661 643.56625 261.97248 641.04883 260.25 A 1.3334666 1.3334666 0 0 0 640.66211 259.97852 C 638.86584 258.70742 637.17767 257.22623 635.64258 255.52148 C 624.49674 243.14232 625.4939 224.11262 637.87305 212.9668 C 643.67579 207.74157 650.94116 205.18565 658.16992 205.21875 z M 676.62305 211.64453 C 677.96832 212.70209 679.247 213.88169 680.43164 215.19727 C 691.57745 227.5764 690.57833 246.60811 678.19922 257.75391 C 672.00963 263.32683 664.15745 265.86248 656.45898 265.45898 C 654.89861 265.3772 653.34517 265.17028 651.8125 264.84766 C 656.02225 257.58026 660.68289 248.61434 665.28711 238.74023 C 669.89004 228.86938 673.76227 219.53926 676.62305 211.64453 z M 640.80859 263.26562 C 643.0098 264.62403 645.3403 265.69973 647.75 266.49219 C 647.0676 267.62629 646.39943 268.71043 645.75195 269.73242 C 643.25359 273.67588 641.02366 276.75908 639.28711 278.68945 C 638.41883 279.65464 637.66429 280.32891 637.15234 280.6582 C 636.96379 280.77952 636.88614 280.82543 636.85156 280.84961 C 636.80399 280.69913 636.74765 280.47398 636.72852 280.10352 C 636.68245 279.21396 636.81702 277.80716 637.15234 276.04883 C 637.76017 272.86169 639.03294 268.44216 640.80859 263.26562 z "
       id="path5354"
       transform="matrix(0.75000002,0,0,-0.75000002,35.501188,466.06543)" /><path
       style="color:#000000;font-style:normal;font-variant:normal;font-weight:normal;font-stretch:normal;font-size:medium;line-height:normal;font-family:sans-serif;font-variant-ligatures:none;font-variant-position:normal;font-variant-caps:normal;font-variant-numeric:normal;font-variant-alternates:normal;font-feature-settings:normal;text-indent:0;text-align:start;text-decoration:none;text-decoration-line:none;text-decoration-style:solid;text-decoration-color:#000000;letter-spacing:normal;word-spacing:normal;text-transform:none;direction:ltr;block-progression:tb;writing-mode:lr-tb;baseline-shift:baseline;text-anchor:start;white-space:normal;shape-padding:0;clip-rule:nonzero;display:inline;overflow:visible;visibility:visible;opacity:1;isolation:auto;mix-blend-mode:normal;color-interpolation:sRGB;color-interpolation-filters:linearRGB;solid-color:#000000;solid-opacity:1;fill:#420264;fill-opacity:1;fill-rule:nonzero;stroke:none;stroke-width:6.66666651;stroke-linecap:round;stroke-linejoin:round;stroke-miterlimit:4;stroke-dasharray:none;stroke-dashoffset:0;stroke-opacity:1;color-rendering:auto;image-rendering:auto;shape-rendering:auto;text-rendering:auto;enable-background:accumulate"
       d="M 534.43164 218.96484 A 3.3336666 3.3336666 0 0 0 533.77148 219.05078 C 533.77148 219.05078 523.60464 221.1842 513.54297 223.91016 C 508.51214 225.27313 503.51944 226.7722 499.68164 228.30273 C 497.76273 229.068 496.14716 229.80925 494.78711 230.73828 C 494.10707 231.2028 493.46743 231.6984 492.87695 232.52539 C 492.28643 233.35239 491.74894 234.851 492.16992 236.29297 C 492.82683 238.54532 497.46055 254.5246 502.30664 269.9043 C 504.72968 277.59415 507.20339 285.13281 509.29102 290.80664 C 510.33483 293.64356 511.27121 296.00232 512.11523 297.77734 C 512.53725 298.66485 512.91672 299.39402 513.40234 300.08984 C 513.64517 300.43776 513.89761 300.78457 514.37305 301.18945 C 514.84849 301.59433 515.72914 302.26493 517.20898 302.10742 C 518.21046 302.00084 518.89576 301.78874 520.1582 301.45508 C 521.42064 301.12141 523.01976 300.67127 524.85352 300.13477 C 528.52105 299.06174 533.12596 297.64476 537.72461 296.16797 C 542.32328 294.69118 546.90788 293.15569 550.54883 291.83398 C 552.36929 291.17312 553.94808 290.57038 555.21484 290.0332 C 556.48159 289.49603 557.19371 289.34269 558.39258 288.31055 A 3.3336666 3.3336666 0 1 0 554.04297 283.25977 C 554.60185 282.77861 553.69635 283.43525 552.61328 283.89453 C 551.53021 284.35381 550.02611 284.9314 548.27148 285.56836 C 544.76222 286.84227 540.23105 288.36256 535.68555 289.82227 C 531.14005 291.28199 526.57482 292.68471 522.98047 293.73633 C 521.1833 294.26213 519.6262 294.70023 518.45508 295.00977 C 518.31417 295.0471 518.35546 295.03294 518.2207 295.06641 C 518.18377 294.99142 518.17485 294.99238 518.13672 294.91211 C 517.46199 293.49311 516.55279 291.24313 515.54492 288.50391 C 513.59049 283.19208 511.21743 275.97425 508.88086 268.57812 C 510.28976 268.2337 511.92085 267.76788 513.74609 267.20117 C 517.54956 266.02025 522.1176 264.43872 526.54297 262.84961 C 535.39373 259.67138 543.66602 256.45898 543.66602 256.45898 A 3.3336666 3.3336666 0 1 0 541.25195 250.24609 C 541.25195 250.24609 533.04026 253.43245 524.29102 256.57422 C 519.91639 258.14511 515.40608 259.70489 511.76953 260.83398 C 509.95126 261.39852 508.34751 261.85527 507.13477 262.14648 C 507.05003 262.16683 506.97715 262.17732 506.89453 262.19531 C 503.08681 249.88193 499.89823 238.93449 499.04492 236.00391 C 499.72574 235.59488 500.69926 235.07481 502.15039 234.49609 C 505.51696 233.15349 510.37976 231.67522 515.28711 230.3457 C 525.10178 227.68666 535.14258 225.57422 535.14258 225.57422 A 3.3336666 3.3336666 0 0 0 534.43164 218.96484 z M 465.84375 242.35352 C 462.4164 242.36282 458.5764 243.20289 454.4043 245.23633 C 446.08071 249.29274 440.18632 254.22043 438.16797 261.56836 C 436.14962 268.91629 437.94656 277.67969 442.70117 289.67773 C 447.47149 301.71537 452.75138 310.07625 459.2793 314.81445 C 462.54326 317.18356 466.15448 318.49576 469.9082 318.79102 C 473.66192 319.08628 477.55938 318.36479 481.40234 316.66992 C 492.36874 311.83358 497.14938 304.70406 498.33789 298.2168 C 499.5264 291.72952 497.43316 286.13757 496.63672 283.91016 A 3.3339374 3.3339374 0 1 0 490.35742 286.1543 C 491.16097 288.40155 492.59079 292.58818 491.7793 297.01758 C 490.9678 301.44696 488.22649 306.37271 478.71289 310.56836 C 472.59482 313.26661 468.02268 312.92042 463.19727 309.41797 C 458.37185 305.9155 453.42742 298.64635 448.90039 287.22266 C 444.35768 275.75936 443.23372 268.29238 444.5957 263.33398 C 445.95769 258.37557 449.74379 254.92472 457.32422 251.23047 C 466.55194 246.73298 471.16771 249.11715 474.56836 252.36914 C 477.96901 255.62113 479.43164 260.10547 479.43164 260.10547 A 3.3336666 3.3336666 0 1 0 485.80273 258.14453 C 485.80273 258.14453 484.06541 252.22478 479.17773 247.55078 C 476.12293 244.62952 471.55599 242.338 465.84375 242.35352 z M 397.32617 260.45508 C 396.95843 260.42928 396.57804 260.45813 396.19922 260.56836 C 394.68394 261.00928 394.17214 261.96557 393.86914 262.53516 C 393.26317 263.67433 393.17549 264.48152 393.00977 265.55664 C 392.67834 267.70689 392.50936 270.61708 392.41016 274.23242 C 392.21173 281.46309 392.34474 291.35482 392.60547 301.37695 C 393.12694 321.42121 394.16797 341.95508 394.16797 341.95508 A 3.3336666 3.3336666 0 0 0 397.61914 345.16211 A 3.3336666 3.3336666 0 0 0 400.82617 341.61523 C 400.82617 341.61523 400.25621 330.33835 399.75 316.41406 C 401.28147 315.95013 405.24355 314.73878 410.56836 312.92383 C 415.91856 311.10024 421.68917 309.04206 425.85352 306.94336 C 429.02557 311.23744 432.47381 315.90298 434.95703 319.26367 C 437.03795 322.07993 438.78374 324.43882 440.04492 326.13086 C 440.67551 326.97689 441.18365 327.65686 441.55859 328.15039 C 441.74607 328.39715 441.90001 328.59357 442.02734 328.75586 C 442.15472 328.91817 442.06899 328.87757 442.5 329.30859 A 3.3336666 3.3336666 0 1 0 447.21484 324.5957 C 447.58591 324.96678 447.36055 324.75604 447.27148 324.64258 C 447.18244 324.52912 447.04479 324.34645 446.86914 324.11523 C 446.51783 323.65283 446.01309 322.98422 445.38867 322.14648 C 444.13985 320.47103 442.39744 318.11453 440.31836 315.30078 C 436.16021 309.67327 430.65957 302.21434 425.05664 294.65039 C 419.45371 287.08643 413.74889 279.41841 409.17578 273.37109 C 406.88923 270.34743 404.88649 267.73118 403.31055 265.7207 C 401.73459 263.71022 400.74564 262.44681 399.85547 261.55664 C 399.41327 261.11444 398.42939 260.53247 397.32617 260.45508 z M 399.27344 271.41211 C 400.63093 273.16375 402.05914 275.01654 403.85742 277.39453 C 408.40433 283.40721 414.10215 291.05919 419.69922 298.61523 C 420.47009 299.65591 421.03687 300.42648 421.80078 301.45898 C 418.31901 303.0443 413.0964 305.01866 408.41797 306.61328 C 404.73315 307.86925 401.73962 308.81868 399.5293 309.50586 C 399.43987 306.73255 399.34265 304.01155 399.26953 301.20117 C 399.01022 291.23529 398.88266 281.39829 399.07422 274.41797 C 399.1109 273.08121 399.21184 272.517 399.27344 271.41211 z M 362.47266 273.02539 C 361.51903 273.01195 360.5558 273.08013 359.61328 273.19922 C 355.84319 273.67561 351.8091 275.0149 347.87695 276.60352 C 340.01267 279.78073 332.41253 284.15234 330.87695 284.9668 C 329.7087 285.58642 329.21337 286.61102 329.00391 287.2793 C 328.79439 287.94759 328.76839 288.45423 328.76172 288.94727 C 328.74907 289.93335 328.88258 290.87758 329.08789 291.98633 C 329.49848 294.20382 330.24468 296.99868 331.23242 300.2832 C 333.20792 306.85227 336.14769 315.30163 339.19727 323.69141 C 345.29641 340.47097 351.83984 356.98047 351.83984 356.98047 A 3.3336666 3.3336666 0 0 0 354.83008 359.12695 A 3.3336666 3.3336666 0 0 0 358.03516 354.52539 C 358.03516 354.52539 352.34673 339.88208 347.05273 325.60352 C 348.63453 325.16632 350.10089 324.82268 352.07422 324.08984 C 355.10194 322.96544 358.48479 321.57796 361.66992 320.22461 C 367.96948 317.54793 373.4172 315.02709 373.53906 314.9707 C 377.50724 313.39519 380.0553 310.02584 380.84766 306.42773 C 381.6486 302.79061 381.07964 298.98271 379.98828 295.24023 C 377.80556 287.7553 373.39316 280.44204 370.01953 276.22852 C 368.11221 273.84613 365.33354 273.06571 362.47266 273.02539 z M 362.25 279.69727 C 363.78786 279.71287 364.56374 280.07892 364.81641 280.39453 C 367.54811 283.80633 371.77694 290.89737 373.58789 297.10742 C 374.49336 300.21246 374.757 303.07517 374.33398 304.99609 C 373.91097 306.91701 373.2191 307.95647 371.02148 308.80078 A 3.3336666 3.3336666 0 0 0 370.81641 308.88672 C 370.81641 308.88672 365.31919 311.43223 359.06445 314.08984 C 355.93708 315.41866 352.62235 316.77387 349.75195 317.83984 C 347.51659 318.66999 346.02222 319.06795 344.77148 319.38477 C 342.03482 311.79303 339.35547 304.13704 337.61914 298.36328 C 336.66721 295.19781 335.96754 292.52648 335.64258 290.77148 C 335.57284 290.39442 335.58309 290.30432 335.54883 290.02539 C 338.38296 288.47603 343.99675 285.36121 350.37305 282.78516 C 354.01341 281.31442 357.68619 280.16359 360.44922 279.81445 C 361.13998 279.72717 361.73738 279.69206 362.25 279.69727 z M 303.86133 293.76758 C 301.2627 293.82031 298.42 294.43514 295.39258 295.72461 C 287.89188 298.9195 283.17852 303.11813 280.93555 307.99609 C 278.69259 312.87405 279.12084 318.08459 280.76172 322.64258 C 282.78224 328.25514 288.30986 330.92195 293.59766 332.33203 C 298.88544 333.74212 304.37272 333.97619 308.05664 333.80078 C 311.04904 333.65827 315.6876 333.99313 319.51758 335.49609 C 323.34756 336.99905 326.23355 339.29965 327.28711 343.72461 C 328.4288 348.51976 327.5165 352.039 325.58203 354.87109 C 323.64756 357.70319 320.50903 359.81235 317.12109 360.89648 C 313.35651 362.10115 308.94772 363.00461 304.81836 361.9668 C 300.689 360.92897 296.4746 358.12752 292.64258 350.42773 A 3.3336666 3.3336666 0 1 0 286.67383 353.39648 C 291.13247 362.35536 297.15539 366.91413 303.19336 368.43164 C 304.70285 368.81103 306.19034 369.01031 307.63867 369.07617 C 311.98367 369.27393 315.97578 368.2626 319.15234 367.24609 C 323.76441 365.77024 328.15902 362.91877 331.08789 358.63086 C 334.01674 354.34297 335.30035 348.58649 333.77539 342.18164 C 332.16228 335.4066 327.0912 331.30806 321.95117 329.29102 C 316.81116 327.27392 311.46588 326.96507 307.73828 327.14258 C 304.70219 327.28715 299.62862 327.0425 295.31641 325.89258 C 291.00421 324.74264 287.89268 322.77219 287.0332 320.38477 C 285.79407 316.94274 285.61911 313.77359 286.99414 310.7832 C 288.36917 307.79283 291.4966 304.6292 298.00391 301.85742 C 301.80001 300.24057 304.5078 300.17946 306.61328 300.7168 C 308.71875 301.25413 310.36392 302.46749 311.7207 304.00195 C 314.43426 307.07086 315.54883 311.13477 315.54883 311.13477 A 3.3336666 3.3336666 0 1 0 322.00977 309.49023 C 322.00977 309.49023 320.72128 304.11506 316.71484 299.58398 C 314.71163 297.31844 311.91624 295.18853 308.26172 294.25586 C 306.89127 293.90611 305.42051 293.73594 303.86133 293.76758 z M 234.44922 312.74023 A 3.333901 3.333901 0 0 0 231.5332 317.5332 C 231.38792 317.23468 231.63537 317.7891 231.85352 318.39648 C 232.07168 319.00387 232.36656 319.85443 232.72266 320.89648 C 233.43486 322.9806 234.39274 325.84286 235.50195 329.2168 C 237.72041 335.96464 240.54895 344.75805 243.2793 353.50586 C 246.00963 362.25369 248.6423 370.96482 250.45898 377.51758 C 250.69154 378.35642 250.77038 378.77348 250.97461 379.53711 C 250.13353 378.74676 249.60086 378.29841 248.64258 377.37695 C 243.21942 372.16218 236.07706 365.01743 228.86133 357.76172 C 221.64561 350.50601 214.35472 343.13463 208.58984 337.41992 C 205.7074 334.56258 203.20753 332.12324 201.26953 330.29883 C 200.30054 329.38663 199.47508 328.62983 198.78516 328.0332 C 198.09525 327.43659 197.73905 327.06141 196.83789 326.57617 C 196.43549 326.35949 195.84445 326.10993 195.00195 326.13086 C 194.15946 326.15185 193.15886 326.60237 192.59961 327.16016 C 191.48112 328.27572 191.54925 329.08244 191.49805 329.62891 C 191.39569 330.72183 191.5382 331.47235 191.71484 332.48828 C 192.06811 334.52016 192.75675 337.23383 193.69336 340.55664 C 195.56659 347.20228 198.42464 356.15956 201.41211 365.18945 C 207.38703 383.24924 213.87695 401.56445 213.87695 401.56445 A 3.3336666 3.3336666 0 0 0 217.11914 403.83008 A 3.3336666 3.3336666 0 0 0 220.16016 399.33984 C 220.16016 399.33984 213.68531 381.06526 207.74023 363.0957 C 204.7677 354.11093 201.9281 345.19341 200.11133 338.74805 C 200.06653 338.58919 200.063 338.54071 200.01953 338.38477 C 201.30046 339.63034 202.35269 340.62588 203.89453 342.1543 C 209.61965 347.82959 216.90855 355.1986 224.13281 362.46289 C 231.35709 369.72718 238.51464 376.88641 244.02148 382.18164 C 246.7749 384.82927 249.10771 387.00572 250.88672 388.54102 C 251.77621 389.30867 252.51212 389.90767 253.20508 390.38867 C 253.55156 390.62918 253.86309 390.84193 254.36523 391.06641 C 254.6163 391.17863 254.91011 391.30819 255.43359 391.38672 C 255.95707 391.46529 256.8962 391.51908 257.90625 390.8457 C 259.69768 389.65142 259.44335 388.57142 259.48828 388.04297 C 259.53321 387.5145 259.50342 387.14493 259.46289 386.74414 C 259.38172 385.94257 259.21725 385.07358 258.99023 384.01367 C 258.53622 381.89389 257.81133 379.08035 256.88477 375.73828 C 255.03166 369.05416 252.38668 360.30521 249.64453 351.51953 C 246.90237 342.73385 244.06366 333.91875 241.83398 327.13672 C 240.71914 323.74571 239.7589 320.86386 239.0332 318.74023 C 238.67036 317.67843 238.36495 316.80717 238.12695 316.14453 C 237.88897 315.48189 237.8218 315.21831 237.52734 314.61328 A 3.333901 3.333901 0 0 0 234.44922 312.74023 z M 173.6543 332.20898 A 3.3336666 3.3336666 0 0 0 170.5918 336.43945 C 170.5918 336.43945 183.88714 387.39712 193.1543 408.91016 A 3.3336666 3.3336666 0 0 0 196.20898 410.9707 A 3.3336666 3.3336666 0 0 0 199.2793 406.27539 C 190.62644 386.18843 177.04102 334.74609 177.04102 334.74609 A 3.3336666 3.3336666 0 0 0 173.6543 332.20898 z "
       transform="matrix(0.75000002,0,0,-0.75000002,35.501188,466.06543)"
       id="path5362" /></g></svg>