<?xml version="1.0" encoding="UTF-8" standalone="no"?>
<!-- Created with Inkscape (http://www.inkscape.org/) -->

<svg
   xmlns:dc="http://purl.org/dc/elements/1.1/"
   xmlns:cc="http://creativecommons.org/ns#"
   xmlns:rdf="http://www.w3.org/1999/02/22-rdf-syntax-ns#"
   xmlns:svg="http://www.w3.org/2000/svg"
   xmlns="http://www.w3.org/2000/svg"
   xmlns:sodipodi="http://sodipodi.sourceforge.net/DTD/sodipodi-0.dtd"
   xmlns:inkscape="http://www.inkscape.org/namespaces/inkscape"
   version="1.1"
   id="svg2"
   xml:space="preserve"
   width="514.07843"
   height="191.0827"
   viewBox="0 0 514.07843 191.08271"
   sodipodi:docname="yis_foot_stars.svg"
   inkscape:version="0.92.1 r15371"><metadata
     id="metadata8"><rdf:RDF><cc:Work
         rdf:about=""><dc:format>image/svg+xml</dc:format><dc:type
           rdf:resource="http://purl.org/dc/dcmitype/StillImage" /><dc:title></dc:title></cc:Work></rdf:RDF></metadata><defs
     id="defs6" /><sodipodi:namedview
     pagecolor="#ffffff"
     bordercolor="#666666"
     borderopacity="1"
     objecttolerance="10"
     gridtolerance="10"
     guidetolerance="10"
     inkscape:pageopacity="0"
     inkscape:pageshadow="2"
     inkscape:window-width="640"
     inkscape:window-height="480"
     id="namedview4"
     showgrid="false"
     fit-margin-top="0"
     fit-margin-left="0"
     fit-margin-right="0"
     fit-margin-bottom="0"
     inkscape:zoom="0.34"
     inkscape:cx="281.71971"
     inkscape:cy="259.31261"
     inkscape:current-layer="g10" /><g
     id="g10"
     inkscape:groupmode="layer"
     inkscape:label="YIS_Fringe_Master"
     transform="matrix(1.3333333,0,0,-1.3333333,0,191.08272)"><path
       style="color:#000000;font-style:normal;font-variant:normal;font-weight:normal;font-stretch:normal;font-size:medium;line-height:normal;font-family:sans-serif;font-variant-ligatures:normal;font-variant-position:normal;font-variant-caps:normal;font-variant-numeric:normal;font-variant-alternates:normal;font-feature-settings:normal;text-indent:0;text-align:start;text-decoration:none;text-decoration-line:none;text-decoration-style:solid;text-decoration-color:#000000;letter-spacing:normal;word-spacing:normal;text-transform:none;writing-mode:lr-tb;direction:ltr;text-orientation:mixed;dominant-baseline:auto;baseline-shift:baseline;text-anchor:start;white-space:normal;shape-padding:0;clip-rule:nonzero;display:inline;overflow:visible;visibility:visible;opacity:1;isolation:auto;mix-blend-mode:normal;color-interpolation:sRGB;color-interpolation-filters:linearRGB;solid-color:#000000;solid-opacity:1;vector-effect:none;fill:#420264;fill-opacity:0.1372549;fill-rule:nonzero;stroke:none;stroke-width:2.66666651;stroke-linecap:round;stroke-linejoin:round;stroke-miterlimit:4;stroke-dasharray:none;stroke-dashoffset:0;stroke-opacity:1;color-rendering:auto;image-rendering:auto;shape-rendering:auto;text-rendering:auto;enable-background:accumulate"
       d="m 48.798828,939.01562 a 1.3334666,1.3334666 0 0 0 -0.07813,0.002 1.3334666,1.3334666 0 0 0 -1.267578,1.30469 c -6.88e-4,0.0163 6.76e-4,0.0404 0,0.0566 -0.231085,5.55294 0.225444,13.71646 -1.212891,20.58398 -0.721272,3.4438 -1.912657,6.52188 -3.789062,8.77734 -1.876405,2.25548 -4.400623,3.76188 -8.177734,4.14454 a 1.3334666,1.3334666 0 0 0 0,2.65039 c 3.775934,0.38221 6.190096,1.8713 7.955078,4.10742 1.764981,2.23612 2.836892,5.30523 3.474609,8.75195 1.275433,6.89343 0.776649,15.09687 1.767578,20.81447 a 1.3334666,1.3334666 0 0 0 1.3125,1.1055 1.3334666,1.3334666 0 0 0 1.316406,-1.1055 c 0.990928,-5.7176 0.494034,-13.92092 1.769532,-20.81447 0.637716,-3.44672 1.709628,-6.51583 3.474609,-8.75195 1.764983,-2.23612 4.177192,-3.72521 7.953125,-4.10742 a 1.3334666,1.3334666 0 0 0 0,-2.65039 c -3.776343,-0.38258 -6.297099,-1.89165 -8.173828,-4.15235 -1.876729,-2.2607 -3.067685,-5.34573 -3.789063,-8.79687 -1.434917,-6.86479 -0.987787,-15.0108 -1.214843,-20.5625 a 1.3334666,1.3334666 0 0 0 -0.002,-0.0645 c -4.96e-4,-0.0117 4.98e-4,-0.029 0,-0.041 a 1.3334666,1.3334666 0 0 0 -1.31836,-1.25196 z m -0.0098,22.69141 c 0.780823,3.62237 2.052363,7.0436 4.28125,9.72852 1.387283,1.67112 3.291615,2.86876 5.451172,3.77929 -2.114116,0.91199 -3.957856,2.11111 -5.271484,3.77539 -2.167435,2.74602 -3.320004,6.23414 -4.001953,9.91993 -0.294716,1.59286 -0.305655,3.22687 -0.460938,4.86914 -0.155284,-1.6423 -0.166216,-3.27624 -0.460937,-4.86914 -0.681951,-3.68579 -1.836472,-7.17391 -4.003906,-9.91993 -1.312683,-1.66308 -3.155576,-2.86147 -5.267578,-3.77343 2.158339,-0.90872 4.058277,-2.10229 5.445312,-3.76953 2.235183,-2.68674 3.508763,-6.11372 4.289062,-9.74024 z M 290.89844,978.6543 a 1.3334666,1.3334666 0 0 0 -0.0762,0.002 1.3334666,1.3334666 0 0 0 -1.26758,1.30273 c -7e-4,0.0163 6.6e-4,0.0423 0,0.0586 -0.2311,5.55294 0.22544,13.71843 -1.21289,20.58587 -0.72127,3.4438 -1.91265,6.5199 -3.78907,8.7754 -1.8764,2.2555 -4.40062,3.7599 -8.17773,4.1426 a 1.3334666,1.3334666 0 0 0 0,2.6543 c 3.77593,0.3822 6.19009,1.8674 7.95508,4.1036 1.76497,2.236 2.83493,5.3091 3.47265,8.7559 1.27544,6.8934 0.7786,15.0949 1.76954,20.8125 a 1.3334666,1.3334666 0 0 0 1.3125,1.1035 1.3334666,1.3334666 0 0 0 1.3164,-1.1035 c 0.99094,-5.7176 0.49409,-13.9191 1.76953,-20.8125 0.63771,-3.4468 1.70769,-6.5198 3.47266,-8.7559 1.76499,-2.2361 4.17914,-3.7213 7.95508,-4.1035 a 1.3334666,1.3334666 0 0 0 0,-2.6543 c -3.77635,-0.3826 -6.2971,-1.8897 -8.17383,-4.1504 -1.87673,-2.2607 -3.0716,-5.3457 -3.79297,-8.797 -1.43473,-6.86378 -0.9841,-15.00881 -1.21094,-20.56048 a 1.3334666,1.3334666 0 0 0 -0.002,-0.0664 c -4.9e-4,-0.0117 5.1e-4,-0.031 0,-0.043 a 1.3334666,1.3334666 0 0 0 -1.32031,-1.25 z m -0.008,22.6914 c 0.78083,3.6224 2.05235,7.0436 4.28126,9.7285 1.38727,1.6711 3.2877,2.8707 5.44726,3.7813 -2.1128,0.9119 -3.95649,2.1099 -5.26953,3.7734 -2.16744,2.746 -3.31805,6.2341 -4,9.9199 -0.2952,1.5955 -0.30948,3.232 -0.46484,4.877 -0.15536,-1.6449 -0.16576,-3.2816 -0.46094,-4.877 -0.68195,-3.6858 -1.83256,-7.1739 -4,-9.9199 -1.31214,-1.6624 -3.15485,-2.8615 -5.26563,-3.7734 2.15604,-0.9087 4.05742,-2.1056 5.44336,-3.7715 2.23568,-2.6873 3.50881,-6.1109 4.28906,-9.7383 z m -139.03124,38.9004 a 1.3334666,1.3334666 0 0 0 -0.0781,0 1.3334666,1.3334666 0 0 0 -1.26563,1.3047 c -6.9e-4,0.016 6.9e-4,0.042 0,0.059 -0.23109,5.553 0.22154,13.7145 -1.21679,20.5821 -0.72127,3.4438 -1.91265,6.5218 -3.78906,8.7773 -1.8764,2.2555 -4.39671,3.7599 -8.17383,4.1426 a 1.3334666,1.3334666 0 0 0 0,2.6543 c 3.77593,0.3822 6.18814,1.8693 7.95312,4.1054 1.76498,2.2362 2.83689,5.3072 3.47461,8.754 1.27543,6.8934 0.7786,15.0969 1.76953,20.8144 a 1.3334666,1.3334666 0 0 0 1.31055,1.1035 1.3334666,1.3334666 0 0 0 1.31836,-1.1035 c 0.99093,-5.7175 0.49214,-13.921 1.76758,-20.8144 0.6377,-3.4468 1.70963,-6.5178 3.47461,-8.754 1.76498,-2.2361 4.17913,-3.7232 7.95508,-4.1054 a 1.3334666,1.3334666 0 0 0 0,-2.6543 c -3.77636,-0.3826 -6.30101,-1.8897 -8.17774,-4.1504 -1.87673,-2.2607 -3.06768,-5.3457 -3.78906,-8.7969 -1.43703,-6.8748 -0.98351,-15.0396 -1.21289,-20.5918 -9.2e-4,-0.022 9.3e-4,-0.056 0,-0.078 a 1.3334666,1.3334666 0 0 0 -1.32031,-1.25 z m -0.008,22.6934 c 0.78083,3.6223 2.05043,7.0436 4.2793,9.7285 1.38633,1.6699 3.28777,2.8687 5.44531,3.7793 -2.11178,0.9119 -3.95304,2.1104 -5.26562,3.7734 -2.16743,2.746 -3.32196,6.2361 -4.00391,9.9219 -0.29519,1.5954 -0.30558,3.232 -0.46094,4.8769 -0.15536,-1.6449 -0.16573,-3.2815 -0.46093,-4.8769 -0.68195,-3.6858 -1.83452,-7.1759 -4.00196,-9.9219 -1.31213,-1.6624 -3.15288,-2.8615 -5.26367,-3.7734 2.15604,-0.9087 4.05546,-2.1056 5.44141,-3.7715 2.23518,-2.6868 3.51072,-6.1098 4.29101,-9.7363 z m 317.72852,2.9199 a 1.3334666,1.3334666 0 0 0 -0.0781,0 1.3334666,1.3334666 0 0 0 -1.26757,1.3047 c -6.9e-4,0.016 6.7e-4,0.04 0,0.057 -0.23109,5.5529 0.22153,13.7164 -1.2168,20.5839 -0.72127,3.4438 -1.91266,6.5219 -3.78906,8.7774 -1.87642,2.2555 -4.39673,3.758 -8.17383,4.1406 a 1.3334666,1.3334666 0 0 0 0,2.6543 c 3.77593,0.3822 6.1901,1.8713 7.95508,4.1074 1.76498,2.2361 2.83493,5.3053 3.47265,8.752 0.38414,2.0762 0.59832,4.2722 0.75,6.4824 h 4.66602 c 0.15143,-2.2102 0.36585,-4.4062 0.75,-6.4824 0.63772,-3.4467 1.70962,-6.5159 3.47461,-8.752 1.76497,-2.2361 4.17908,-3.7252 7.95507,-4.1074 a 1.3334666,1.3334666 0 0 0 0,-2.6543 c -3.77633,-0.3826 -6.301,-1.8877 -8.17773,-4.1484 -1.87673,-2.2607 -3.06768,-5.3458 -3.78906,-8.7969 -1.43472,-6.8639 -0.98409,-15.0069 -1.21094,-20.5586 a 1.3334666,1.3334666 0 0 0 -0.002,-0.059 c -6.2e-4,-0.015 6.2e-4,-0.036 0,-0.051 a 1.3334666,1.3334666 0 0 0 -1.31836,-1.2519 z m -0.01,22.6914 c 0.78083,3.6223 2.05237,7.0436 4.28125,9.7285 1.38743,1.6713 3.28741,2.8707 5.44727,3.7812 -2.11274,0.912 -3.95652,2.11 -5.26953,3.7735 -2.16743,2.746 -3.32196,6.2341 -4.00391,9.9199 -0.29472,1.5929 -0.30566,3.2268 -0.46094,4.8691 -0.15528,-1.6422 -0.16621,-3.2762 -0.46093,-4.8691 -0.68195,-3.6858 -1.83452,-7.1739 -4.00196,-9.9199 -1.31256,-1.6629 -3.15389,-2.8615 -5.26562,-3.7735 2.15733,-0.9087 4.05875,-2.1028 5.44531,-3.7695 2.23519,-2.6867 3.50877,-6.1137 4.28906,-9.7402 z"
       id="path38"
       inkscape:connector-curvature="0"
       transform="matrix(0.75000002,0,0,-0.75000002,0,842.04002)" /></g></svg>