<?xml version="1.0" encoding="UTF-8" standalone="no"?>
<svg
   xmlns:dc="http://purl.org/dc/elements/1.1/"
   xmlns:cc="http://creativecommons.org/ns#"
   xmlns:rdf="http://www.w3.org/1999/02/22-rdf-syntax-ns#"
   xmlns:svg="http://www.w3.org/2000/svg"
   xmlns="http://www.w3.org/2000/svg"
   viewBox="0 0 686.46985 397.2276"
   height="397.2276"
   width="686.46985"
   xml:space="preserve"
   id="svg10"
   version="1.1"><metadata
     id="metadata16"><rdf:RDF><cc:Work
         rdf:about=""><dc:format>image/svg+xml</dc:format><dc:type
           rdf:resource="http://purl.org/dc/dcmitype/StillImage" /><dc:title></dc:title></cc:Work></rdf:RDF></metadata><defs
     id="defs14"><clipPath
       id="clipPath26"
       clipPathUnits="userSpaceOnUse"><path
         id="path24"
         d="M 0,0 H 590 V 590 H 0 Z" /></clipPath></defs><g
     transform="matrix(1.3333333,0,0,-1.3333333,-50.240634,580.87766)"
     id="g18"><g
       transform="rotate(-8.2229108,294.56178,290.32776)"
       id="g228"><path
         id="path30"
         transform="matrix(0.74228936,0.10726853,0.10726853,-0.74228936,-39.832181,544.78951)"
         d="m 703.0293,205.78906 a 3.250325,3.250325 0 0 0 -3.21875,2.67969 c -1.06421,5.65686 -1.78805,13.70027 -4.07032,19.95313 -1.14113,3.12641 -2.64149,5.71473 -4.48632,7.37695 -1.84485,1.6622 -3.96455,2.5843 -7.32032,2.4414 a 3.250325,3.250325 0 0 0 -0.92382,6.40039 c 3.25617,0.81204 4.8967,2.2393 6.08984,4.30079 1.19314,2.06149 1.79643,4.94947 1.92773,8.27734 0.26262,6.65576 -1.39995,14.58983 -1.22461,20.83008 a 3.250325,3.250325 0 0 0 2.78125,3.12305 3.250325,3.250325 0 0 0 3.55664,-2.20704 c 1.93485,-5.9353 2.58453,-14.0151 4.72071,-20.32422 1.06808,-3.15454 2.46736,-5.75516 4.19531,-7.39453 1.72795,-1.63935 3.70574,-2.54342 7.05859,-2.40039 a 3.250325,3.250325 0 0 0 0.92579,-6.39843 c -3.25712,-0.81255 -5.02733,-2.29832 -6.32618,-4.41993 -1.29884,-2.1216 -2.00831,-5.0399 -2.21679,-8.36914 -0.41297,-6.59445 1.13058,-14.41398 1.72461,-20.12695 a 3.250325,3.250325 0 0 0 0.0195,-0.15625 c 9.1e-4,-0.009 0.003,-0.022 0.004,-0.0312 a 3.250325,3.250325 0 0 0 -3.21679,-3.55469 z m -3.96289,30.57032 c 0.4917,1.76068 1.13387,3.4767 2.10351,5.06054 0.70212,1.14689 1.78374,2.06426 2.79297,3.02344 -1.18563,0.63592 -2.44131,1.19662 -3.38281,2.08984 -1.54548,1.46625 -2.72568,3.19533 -3.7168,5.04102 -0.42803,-2.05074 -1.07153,-4.04489 -2.13867,-5.88867 -0.6495,-1.12219 -1.69445,-2.0141 -2.65039,-2.95899 1.23701,-0.63205 2.53266,-1.19967 3.5293,-2.09765 1.38409,-1.24708 2.49035,-2.71547 3.46289,-4.26953 z m -187.20899,7.83007 c -0.1515,-0.004 -0.30179,0.001 -0.45117,0.0156 -1.195,0.11612 -2.08445,0.66729 -2.75195,1.23828 -1.33499,1.14199 -2.15959,2.55832 -3.08399,4.49023 -1.84879,3.86384 -3.76127,9.86429 -5.79883,18.79688 -0.77807,3.41187 -2.89276,13.76661 -4.26953,26.08594 -0.54448,-1.24811 -2.20593,-4.64358 -6.72656,-6.70118 -5.40963,-2.46222 -13.69226,-1.63025 -24.78125,7.12891 -8.80768,6.95743 -13.63085,16.06487 -15.7168,25.17774 a 3.250325,3.250325 0 0 0 -0.43945,1.33007 c -0.72496,5.99414 -4.48328,15.11262 -8.80078,23.12891 -4.31752,8.01629 -9.3951,15.25967 -11.60547,17.46289 -1.72812,1.72248 -5.00171,2.24875 -7.72656,0.94531 -2.72487,-1.30344 -5.08701,-4.11036 -4.76367,-10.18359 0.14352,-2.69481 1.51983,-7.94507 3.57812,-13.75391 2.0583,-5.80884 4.76075,-12.31534 7.41602,-18.24414 2.22362,-4.96501 4.2276,-8.98669 5.98242,-12.40625 0.33051,-0.4054 0.86281,-0.91132 1.16015,-1.30078 1.69221,-2.21653 2.95817,-3.97364 3.31055,-6.41211 0.0517,-0.35782 0.27765,-0.6619 -0.15429,-1.86914 -0.21598,-0.60363 -0.9404,-1.67401 -2.11329,-2.05078 -1.17288,-0.37679 -2.06855,-0.0267 -2.52343,0.20117 -0.90976,0.4558 -1.02735,0.74974 -1.24414,1.00195 -0.21681,0.25222 -0.38076,0.48055 -0.55274,0.73047 -0.68788,0.99974 -1.47245,2.38125 -2.46094,4.23828 -0.24143,0.45359 -0.63594,1.35417 -0.89648,1.85743 -1.31484,1.57569 -2.66527,3.18468 -4.5957,5.14648 -5.09409,5.17684 -12.01001,11.40075 -19.33594,17.62305 -0.49685,0.42195 -0.89249,0.54417 -1.36328,0.88476 0.57098,-3.39469 0.76199,-6.70063 0.0957,-9.74804 -1.68185,-7.6923 -6.90829,-12.17088 -12.33984,-12.38086 -5.43155,-0.20998 -10.5776,3.91546 -11.47071,10.0957 -0.89311,6.18025 1.74144,13.26934 7.05274,17.7793 1.92059,1.63082 4.37896,2.61901 7.02148,3.13867 -0.77666,1.7025 -1.58861,3.41894 -2.60937,5.17187 -5.07786,8.72006 -12.96185,17.78021 -22.41406,24.99024 -9.14813,6.97806 -16.96392,7.73745 -23.375,5.58203 -3.38583,-1.13832 -6.39176,-3.21891 -8.90626,-5.81445 2.07121,-2.49878 4.13567,-4.86057 6.1504,-7.43164 3.99186,-5.09419 7.73471,-10.18244 10.71875,-14.7461 2.98404,-4.56366 5.2205,-8.47999 6.2207,-11.88867 1.93169,-6.58327 -0.003,-13.19001 -4.2793,-17.11133 -2.13801,-1.96065 -4.96081,-3.23914 -8.03711,-3.23437 -3.07629,0.005 -6.25323,1.31328 -9.04687,3.82617 -5.17657,4.65635 -9.94226,11.89305 -12.78907,20.00195 -2.84681,8.1089 -3.77774,17.20515 -0.28515,25.20703 0.80616,1.84701 1.80747,3.63409 2.94531,5.33594 -4.83984,5.6676 -9.46051,10.85357 -12.79687,14.17383 -4.98499,4.96092 -9.0323,5.09861 -11.95703,3.56445 -2.92473,-1.53416 -5.13032,-5.34981 -4.65821,-10.45898 0.3377,-3.65271 3.35039,-14.57171 7.11719,-27.31446 2.90615,-4.12859 5.93077,-8.2887 8.48828,-12.31445 4.80918,-7.57008 8.8918,-14.8197 11.79297,-21.5293 41.81608,-8.02352 101.16557,-20.19305 142.34375,-31.9414 a 3.2504462,3.2504462 0 1 0 -1.78125,-6.25 c -39.47926,11.26364 -96.37169,23.02807 -137.86914,31.04492 0.60144,-1.92373 1.07692,-3.79036 1.4082,-5.58984 1.2646,-6.86806 1.72702,-12.32221 1.51953,-16.38672 -0.10375,-2.03227 -0.34929,-3.71126 -0.91601,-5.22071 -0.56671,-1.50945 -1.71572,-3.32112 -3.94336,-3.71875 -2.22764,-0.39768 -3.88612,0.83238 -5.02344,2.03907 -1.13733,1.20668 -2.08968,2.73419 -3.08398,4.71875 -1.9886,3.96912 -4.04352,9.77083 -6.10547,17.77539 -0.83279,3.2327 -1.73412,6.57222 -2.67188,9.95312 -20.47519,3.8384 -34.61718,6.32227 -34.61718,6.32227 a 3.250325,3.250325 0 0 0 0.14453,6.4375 3.250325,3.250325 0 0 0 0.9707,-0.0332 c 0,0 12.83253,-2.25372 31.51367,-5.73438 -2.61955,9.13888 -5.38541,18.36452 -7.87695,26.74023 -0.1005,0.33746 -0.16238,0.56236 -0.26172,0.89649 -5.95246,8.40021 -12.2627,16.86755 -18.82617,25.01172 -3.49601,4.33795 -6.91138,8.35413 -10.32813,12.40234 -0.73275,-2.1729 -1.35889,-4.39133 -2.1582,-6.50976 -2.65593,-7.03906 -5.56242,-13.48348 -8.26172,-19.32032 1.98104,-3.95247 3.74437,-7.77407 4.9707,-11.17773 1.90137,-5.27727 3.00296,-9.52613 2.32227,-13.30469 -0.60217,-3.34269 -2.71375,-6.00688 -5.36133,-7.11133 -2.64756,-1.10443 -5.49931,-0.85551 -8.03515,0.10938 -5.07171,1.92977 -9.59887,7.32636 -8.39454,14.01172 0.67603,3.75265 3.16557,8.49743 6.34571,15.2832 0.2857,0.60962 0.62404,1.3764 0.91992,2.00977 -0.63978,1.20784 -1.16739,2.34882 -1.86914,3.58593 -6.95842,12.26681 -16.89026,25.69799 -27.36524,34.79688 -5.09931,4.42941 -9.29645,6.18078 -12.66601,6.51758 -3.36955,0.33681 -6.10445,-0.64231 -8.66016,-2.45899 -1.80905,-1.28592 -3.37784,-3.08306 -4.81836,-4.98047 1.20511,-1.7721 2.68545,-3.78053 3.79297,-5.46679 3.8856,-5.91597 7.13291,-11.25961 9.49024,-15.83594 2.35731,-4.57634 3.91149,-8.24049 4.11914,-11.66211 0.30884,-5.08939 -0.056,-9.11017 -1.07813,-12.32227 -1.02213,-3.21209 -2.82781,-5.73159 -5.36914,-7.01562 -2.54133,-1.28404 -5.46561,-1.10928 -7.98828,-0.11133 -2.52268,0.99795 -4.82342,2.75628 -6.9082,5.0332 -5.02947,5.49249 -7.8632,12.9759 -9.0918,20.26368 -1.2286,7.28777 -0.93226,14.3571 1.26758,19.60546 0.81756,1.95056 2.21154,4.73309 3.85937,7.51172 -6.66897,9.6183 -14.17581,19.98005 -22.31445,30.7793 -0.88843,1.17887 -1.69161,2.20415 -2.58398,3.38281 -0.34048,-8.47859 -1.36441,-17.10228 -2.48047,-25.68359 2.51775,-4.39207 4.44285,-9.57674 5.34765,-15.83789 2.67529,-18.5128 1.46256,-28.92361 -2.09765,-34.64649 -0.89006,-1.43071 -1.99217,-2.603 -3.40235,-3.34375 -1.41018,-0.74073 -3.14807,-0.93581 -4.64844,-0.51562 -3.00072,0.84035 -4.79881,3.3859 -5.8496,6.375 -1.28425,3.652 -0.92598,8.1389 -0.33008,14.16601 0.59591,6.02713 1.68068,13.34306 2.82422,21.28907 0.52458,3.64514 0.95463,7.61715 1.46289,11.45508 -4.24035,6.35867 -10.21365,9.85221 -16.61914,11.68554 -10.43285,2.986 -22.26092,0.79235 -27.10743,-1.91992 -3.8537,-2.15803 -6.37769,-6.39892 -7.85742,-12.13281 -1.47998,-5.73488 -1.80475,-12.7487 -1.50781,-19.49024 0.59388,-13.48306 3.58008,-25.74804 3.58008,-25.74804 A 3.250325,3.250325 0 1 0 97.548828,351.832 c 0,0 -3.135362,12.74306 -3.763672,27.00781 -0.314153,7.13237 -0.02513,14.67513 1.710938,21.40235 1.736069,6.72722 5.031116,12.85291 10.974606,16.17969 h 0.004 c 7.11879,3.9839 19.73523,6.02794 32.06836,2.49804 5.72217,-1.63774 11.27826,-4.7324 15.91406,-9.41992 1.05905,9.25856 1.79606,18.36289 1.6582,26.66016 -18.34025,24.02341 -36.3127,47.01755 -42.70898,57.77148 -3.70275,6.22598 -5.70736,11.58363 -6.17187,16.2207 -0.46453,4.63709 0.79649,8.8242 3.83789,11.34571 1.52069,1.26074 3.33443,2.02859 5.32226,2.3789 1.98784,0.35025 4.1521,0.28487 6.375,-0.125 4.44581,-0.81975 9.34833,-2.99263 14.55274,-6.50976 10.78787,-7.29044 16.75663,-19.45068 20.2207,-33.32813 3.46408,-13.87743 4.49505,-29.6671 5.08789,-45.00195 0.007,-0.1783 -0.01,-0.37759 -0.004,-0.55664 2.66396,-3.49981 5.05241,-6.59208 7.69727,-10.10156 7.6109,-10.09898 14.65982,-19.8196 21.09961,-29.02344 1.45732,1.67667 3.08448,3.26499 4.97851,4.61133 3.53059,2.50963 8.01858,4.13424 13.07422,3.6289 5.05564,-0.50534 10.48688,-3.04324 16.28321,-8.07812 11.13481,-9.67202 21.14068,-23.24853 28.37304,-35.86914 2.04385,4.55122 4.11055,9.33431 6.01172,14.37304 1.26332,3.34823 2.28734,6.74676 3.28516,10.12891 -13.98589,16.26233 -25.64692,28.57742 -27.79102,30.70703 -4.54547,4.51384 -9.35958,10.94966 -12.23047,17.4336 -1.43542,3.24197 -2.40936,6.5004 -2.41211,9.7246 -0.003,3.2242 1.21455,6.60064 3.99219,8.75 5.25646,4.06817 12.57859,4.61377 19.87891,0.41797 7.30032,-4.19581 15.10202,-12.59179 24.07031,-26.5625 6.92867,-10.7941 5.75122,-25.04623 1.85547,-39.10937 4.21899,-4.95496 8.56284,-10.11856 12.97851,-15.59766 2.91909,-3.62211 5.74335,-7.41088 8.61524,-11.14844 -1.26895,4.76948 -2.21748,8.8274 -2.4707,11.56641 -0.67467,7.30106 2.51701,13.87895 8.11328,16.81445 5.59626,2.93551 13.19375,1.61732 19.55664,-4.71484 3.36124,-3.34503 7.77509,-8.25755 12.41211,-13.65625 3.07092,3.03336 6.78458,5.46026 11.03906,6.89063 8.48093,2.85131 18.93701,1.40011 29.38867,-6.57227 10.14757,-7.74042 18.53274,-17.34423 24.0918,-26.89063 1.74584,-2.99807 3.11067,-5.97105 4.27344,-8.91601 2.62075,-0.82455 5.27369,-2.08582 7.92773,-4.33984 4.43814,-3.76954 7.9482,-7.20314 11.82422,-10.78516 -2.18393,5.03416 -4.41459,10.24939 -6.14844,15.14258 -2.14483,6.05309 -3.7201,11.38981 -3.94336,15.58203 -0.43105,8.09653 3.38875,13.969 8.45117,16.39062 5.06242,2.42163 11.18127,1.71811 15.11914,-2.20703 3.45566,-3.44447 8.21609,-10.58969 12.73633,-18.98242 1.11368,-2.06775 2.19925,-4.19229 3.21875,-6.33398 0.48015,2.40423 1.11625,4.68044 1.89844,6.76367 1.80446,4.80585 4.2401,8.70084 7.67188,10.96094 1.94083,1.27791 5.32404,3.19226 9.7832,3.60937 1.48639,0.13903 3.09451,0.11163 4.80664,-0.16016 6.84848,-1.08712 14.9192,-5.88635 24.06445,-17.63867 0.8545,-1.09806 1.54548,-2.52734 2.30664,-3.8164 1.31774,3.01734 2.99688,5.72086 5.2461,7.88867 2.24162,2.16051 4.50126,3.65781 6.90429,4.39453 2.40305,0.73672 4.94118,0.59701 7.11914,-0.29492 4.35591,-1.78387 7.27063,-5.8578 9.83985,-10.83008 2.00184,-3.87422 3.77144,-8.45057 5.39648,-13.33594 1.41727,4.81158 3.70593,9.40523 6.84961,13.6211 4.61527,6.18945 12.88016,7.80723 20.56445,6 6.84261,-1.60929 13.45023,-6.08787 17.71485,-12.92188 0.76413,2.06298 1.76495,3.95217 3.25781,5.48828 2.79402,2.87496 7.55006,3.67997 12.10938,1.66602 5.26853,-2.32724 8.91442,-7.95807 12.35351,-14.91016 0.79814,-1.61343 1.47119,-3.51575 2.21484,-5.27148 1.96654,3.3475 4.4936,6.2374 7.9043,8.14648 7.2855,4.0772 19.61989,5.09433 31.50781,0.5625 5.75852,-2.19522 11.31589,-5.89124 15.85352,-11.25976 1.36899,10.57893 2.4228,21.07922 2.27734,30.43945 -18.33812,24.02042 -36.30937,47.01418 -42.70507,57.76758 -3.7031,6.22596 -5.70728,11.58162 -6.17188,16.21875 -0.4646,4.63711 0.80032,8.82813 3.8418,11.34961 1.52073,1.26074 3.33244,2.02859 5.32031,2.3789 1.98789,0.35025 4.1501,0.28293 6.37305,-0.12695 4.44589,-0.81973 9.34829,-2.99456 14.55273,-6.51172 10.78786,-7.29042 16.75663,-19.44677 20.2207,-33.32422 3.46409,-13.87745 4.49507,-29.66905 5.08789,-45.0039 0.007,-0.17597 -0.01,-0.37404 -0.004,-0.55079 2.66512,-3.50129 5.05323,-6.59644 7.69922,-10.10742 10.72261,-14.22786 21.04916,-28.32637 28.82031,-40.1582 3.88558,-5.91591 7.13096,-11.25963 9.48828,-15.83594 2.35731,-4.57629 3.90955,-8.23659 4.11719,-11.6582 a 3.250325,3.250325 0 1 0 -6.48633,-0.39649 c -0.0849,1.39978 -1.22208,4.83611 -3.4082,9.08008 -2.18614,4.24398 -5.3343,9.44295 -9.14453,15.24414 -7.62046,11.60239 -17.89057,25.63115 -28.57813,39.8125 -0.89765,1.19112 -1.70965,2.22902 -2.61133,3.41992 -0.43404,-10.01975 -1.80985,-20.41312 -3.26367,-30.50195 2.07709,-4.24944 3.68642,-9.09304 4.50391,-14.75 2.66968,-18.47396 1.86747,-28.1433 -1.65625,-33.47656 -0.88094,-1.33332 -2.0662,-2.44642 -3.58789,-2.99219 -1.5217,-0.54577 -3.24511,-0.37124 -4.57422,0.25 -2.65825,1.24246 -4.17786,3.67806 -5.19727,6.57813 -1.30211,3.7043 -0.88041,8.24191 -0.2207,14.38086 0.65972,6.13895 1.82585,13.60581 3.05273,21.70117 0.35645,2.35189 0.63707,4.93368 0.99219,7.37304 -4.18428,7.57499 -10.32906,12.07864 -16.90625,14.58594 -10.05185,3.83189 -21.33777,2.45881 -26.01758,-0.16015 -3.55186,-1.98811 -6.0482,-5.9873 -7.74218,-11.05469 1.11261,-3.26874 2.20435,-6.57786 3.10937,-9.91602 2.26546,-8.35545 3.83011,-16.57352 4.38672,-23.10156 0.2783,-3.26403 0.31947,-6.08758 -0.008,-8.4707 -0.16364,-1.19156 -0.40547,-2.27872 -0.89063,-3.33789 -0.48514,-1.05919 -1.29876,-2.22007 -2.71094,-2.85547 -1.23775,-0.55692 -2.85451,-0.49965 -3.99609,0.008 -1.14158,0.50748 -1.91058,1.26808 -2.56055,2.08203 -1.29994,1.62789 -2.20418,3.64889 -3.03711,6.09961 -1.66587,4.90145 -2.8464,11.50363 -3.1914,18.61328 -0.33877,6.98091 0.17005,14.39974 2.03515,21.05664 -1.39714,3.88473 -2.91651,7.56434 -4.51367,10.79297 -3.16285,6.39366 -6.89068,10.84299 -9.15625,11.84375 -2.97479,1.31403 -3.6734,0.93013 -4.82031,-0.25 -1.1469,-1.18014 -2.37201,-4.09899 -3.05469,-7.86914 -0.16372,-0.90419 -0.1211,-2.05359 -0.23828,-3.0293 2.54178,-6.41727 4.92612,-13.38764 6.70899,-20.4082 2.48744,-9.79509 4.04227,-18.75606 3.41796,-24.74219 -0.16338,-1.56655 -0.17059,-2.98208 -1.89843,-4.43164 -0.86392,-0.72478 -2.36165,-1.06189 -3.39844,-0.83593 -1.03678,0.22595 -1.66437,0.70323 -2.17578,1.14843 -1.62442,1.41412 -2.63609,3.31546 -3.66211,5.52539 a 3.250325,3.250325 0 0 0 -0.13281,-0.12695 c 0,0 -4.86354,-4.35964 -11.94727,-6.33398 -7.08371,-1.97434 -16.97332,-1.17889 -25.10547,8.27343 -6.83686,7.94698 -10.98111,16.64111 -12.55078,25.31055 -3.04623,11.20966 -6.33277,22.76598 -10.18164,30.21484 -2.25252,4.35936 -4.72071,7.05736 -6.53125,7.79883 -0.90527,0.37066 -1.64842,0.43282 -2.74805,0.0957 -1.09962,-0.33713 -2.56482,-1.18819 -4.30078,-2.86133 -2.56232,-2.46959 -4.32069,-6.88321 -5.56445,-12.06055 2.61317,-6.96728 4.65646,-14.97315 6.36328,-23.26172 2.90147,-14.08997 4.83002,-28.52905 6.50391,-37.09961 1.27778,-6.54345 1.8381,-12.22757 1.8125,-16.66211 -0.0128,-2.21725 -0.16245,-4.1148 -0.5,-5.74804 -0.33757,-1.63325 -0.65826,-3.08991 -2.20313,-4.44336 -0.67588,-0.59213 -1.75783,-1.0599 -2.81836,-1.08985 z m -1.06445,10.26758 c 0.017,0.40871 0.0853,0.59877 0.0879,1.05078 0.0222,3.8419 -0.48373,9.18645 -1.69336,15.38086 -1.75506,8.98618 -3.65346,23.24987 -6.49219,37.03516 -0.51501,2.50102 -1.2555,4.64306 -1.8457,7.07422 -0.008,-3.0586 -0.001,-6.14126 0.18359,-9.23047 0.96417,-16.09399 4.1542,-31.55092 5.07618,-35.59375 1.72121,-7.54576 3.32605,-12.46491 4.68359,-15.7168 z m 155.25391,12.53906 c 0.0698,0.069 0.0123,-0.0185 0.14843,0.1875 1.32322,2.00273 3.22367,11.11549 0.64453,28.96289 -0.0336,0.23273 -0.0969,0.42478 -0.13281,0.6543 -0.84715,-5.6227 -1.7443,-11.37182 -2.20703,-15.67773 -0.63223,-5.88318 -0.47156,-10.50287 -0.10938,-11.53321 0.58809,-1.67302 1.41177,-2.40078 1.65626,-2.59375 z m -53.5918,8.61719 c 0.0695,1.47861 0.16554,2.93193 -0.0176,5.08008 -0.42757,5.0146 -1.68064,11.53929 -3.33008,18.25391 -0.0368,-1.75879 -0.18167,-3.51886 -0.0977,-5.25 0.3188,-6.56971 1.47051,-12.76104 2.85546,-16.83594 0.20894,-0.61476 0.37319,-0.73988 0.58985,-1.24805 z m -49.85938,5.58789 c 1.85593,-0.015 3.64173,0.30796 5.33985,0.78125 5.43398,1.51454 9.38867,4.94531 9.38867,4.94531 a 3.250325,3.250325 0 0 0 2.23633,0.8418 c -2.07895,5.50301 -3.88601,11.66436 -3.95313,16.63477 -0.069,5.09606 -0.14041,12.99525 0.57617,20.48632 -0.77017,1.87889 -1.50487,4.03774 -2.28711,5.64844 -3.13085,6.44673 -9.08774,10.54345 -14.95703,11.92383 -2.93464,0.69018 -5.7314,0.69857 -8.1289,0.0859 -2.39753,-0.61262 -4.39615,-1.84723 -5.73633,-3.64453 -5.87901,-7.88409 -8.37616,-17.07687 -7.12695,-26.54688 0.64192,-2.37305 1.28407,-4.75845 1.90625,-7.05469 a 3.2504341,3.2504341 0 0 0 0.0996,-1.12695 c 1.9351,-5.38127 5.09166,-10.75597 9.55274,-15.9414 4.5835,-5.3276 9.0068,-7.00019 13.08984,-7.03321 z m -239.75976,3.13086 c 0.0206,0.23548 0.0688,0.26167 0.082,0.52149 0.16576,3.24763 -0.2195,8.34872 -1.42188,14.8789 -0.44778,2.43236 -1.33765,5.20788 -2.54687,8.21289 -1.4208,0.27128 -2.85085,0.54603 -4.22461,0.80664 0.66435,-2.35391 1.30958,-4.69556 1.90625,-7.01172 1.98875,-7.72042 3.97759,-13.20403 5.62109,-16.48437 0.23899,-0.47699 0.36228,-0.54269 0.58399,-0.92383 z m 263.11133,4.91406 c -0.52687,4.28346 -1.38813,9.2379 -2.76758,14.66993 -0.30933,1.21809 -0.75566,2.4337 -1.09766,3.66601 0.0167,-0.96547 0.014,-2.24178 0.0254,-3.08789 0.0482,-3.57102 1.84531,-9.9984 3.83985,-15.24805 z m -103.25586,4.08399 c 1.4165,-0.005 2.52145,0.30361 3.39062,0.69922 2.78137,1.26595 3.83985,3.98047 3.83985,3.98047 a 3.250325,3.250325 0 0 0 5.1621,1.40429 c -0.18165,1.99661 -0.41634,3.91844 -0.53906,5.9668 -0.50003,8.34673 -0.4497,16.95364 0.79297,24.64453 0.11488,0.71101 0.2944,1.37402 0.42969,2.07031 -1.47475,3.65142 -3.01803,6.92025 -4.69727,9.07813 -8.5372,10.97094 -15.25336,14.461 -19.95312,15.20703 -1.17494,0.18651 -2.25384,0.21436 -3.24414,0.12891 -2.97096,-0.25616 -5.14805,-1.52726 -6.75,-2.58204 -1.55129,-1.0213 -3.66794,-3.83758 -5.16407,-7.82226 -1.49614,-3.98469 -2.46832,-9.06804 -2.45898,-14.48438 0.0187,-10.83268 3.831,-22.83069 14.52148,-31.27539 6.93016,-5.47411 11.55361,-7.00502 14.66993,-7.01562 z M 72.638672,305.75 a 3.250325,3.250325 0 0 0 -3.142578,2.76562 c -1.05803,5.6536 -1.786396,13.65027 -4.060547,19.88086 -1.141137,3.12643 -2.645388,5.71669 -4.490235,7.37891 -1.844842,1.6622 -3.962583,2.58233 -7.318359,2.43945 a 3.250325,3.250325 0 0 0 -0.925781,6.40039 c 3.256175,0.81204 4.900609,2.24126 6.09375,4.30274 1.193142,2.06148 1.796427,4.94752 1.927734,8.27539 0.26261,6.65576 -1.401909,14.58983 -1.226562,20.83008 a 3.250325,3.250325 0 0 0 2.779297,3.125 3.250325,3.250325 0 0 0 3.560547,-2.20899 c 1.934841,-5.9353 2.584533,-14.0151 4.720703,-20.32422 1.068083,-3.15454 2.463456,-5.75127 4.191406,-7.39062 1.72795,-1.63936 3.709648,-2.54538 7.0625,-2.40234 a 3.250325,3.250325 0 0 0 0.925781,-6.40039 c -3.257109,-0.81255 -5.029283,-2.29442 -6.328125,-4.41602 -1.29884,-2.12161 -2.008307,-5.03991 -2.216797,-8.36914 -0.412914,-6.59359 1.130406,-14.41417 1.72461,-20.12695 a 3.250325,3.250325 0 0 0 0.02148,-0.15821 c 0.001,-0.01 0.003,-0.0239 0.0039,-0.0332 a 3.250325,3.250325 0 0 0 0.01563,-0.21875 3.250325,3.250325 0 0 0 0.002,-0.008 3.250325,3.250325 0 0 0 -3.320312,-3.3418 z m 316.015628,7.36719 c 2.20473,0.0852 5.00214,1.61471 6.24023,7.27734 0.64222,2.93735 0.20296,6.83868 -1.08594,11.17188 -1.91961,-0.0746 -3.60375,-0.73834 -5.11718,-2.02344 -3.32828,-2.82612 -5.30415,-8.57347 -4.82422,-11.89453 0.47992,-3.32105 2.58238,-4.61649 4.78711,-4.53125 z m -73.00782,2.08593 c -1.74953,3.48636 -3.78843,7.16475 -6.01757,10.93555 1.0251,-3.49251 2.05825,-6.94717 3.07226,-10.38672 1.07272,-0.2022 1.84003,-0.33941 2.94531,-0.54883 z m 29.33985,4.45118 c 1.30598,-0.002 2.51789,0.50116 3.63476,1.52539 2.23374,2.04844 3.69124,6.21747 2.4375,10.49023 -0.59251,2.01932 -2.59419,5.8316 -5.42578,10.16211 -2.83158,4.3305 -6.48291,9.30119 -10.39453,14.29297 -1.63097,2.08137 -3.31334,3.98758 -4.99805,6.03711 -0.48797,-0.85333 -1.03575,-1.67867 -1.42578,-2.57227 -2.57997,-5.91101 -2.02343,-13.38217 0.45899,-20.45312 2.48241,-7.07096 6.88969,-13.62543 11.0039,-17.32617 1.85177,-1.66567 3.40301,-2.15423 4.70899,-2.15625 z m -88.97071,10.83398 c 0.55513,-0.0195 1.03114,0.0577 1.375,0.20117 0.68772,0.28689 1.17389,0.62492 1.46876,2.26172 0.21634,1.20093 -0.31194,5.14673 -2.04297,9.95117 -0.61047,1.69436 -1.49319,3.64724 -2.34375,5.56836 -2.21724,-4.88073 -4.4366,-9.84257 -4.61133,-10.8125 -0.58972,-3.27361 1.68222,-5.78387 4.30859,-6.7832 0.65659,-0.24981 1.29058,-0.3672 1.8457,-0.38672 z m -187.253901,5.84961 c 0.491697,1.76068 1.131931,3.4767 2.101562,5.06055 0.702359,1.14727 1.78526,2.06205 2.794922,3.02148 -1.185633,0.63591 -2.441314,1.19663 -3.382812,2.08985 -1.545532,1.46629 -2.725677,3.19526 -3.716797,5.04101 -0.428026,-2.05081 -1.0715,-4.04288 -2.138672,-5.88672 -0.649502,-1.12219 -1.696408,-2.01409 -2.652344,-2.95898 1.237598,-0.6322 2.532255,-1.20127 3.529297,-2.09961 1.384054,-1.24703 2.492329,-2.71356 3.464844,-4.26758 z m 133.535161,10.48242 c 0.42842,-0.009 0.77248,0.0848 1.08007,0.24024 0.61518,0.31083 1.43727,1.08959 2.10547,3.18945 0.66822,2.09987 1.05758,5.40366 0.78125,9.95703 -0.0849,1.39978 -1.22206,4.83411 -3.4082,9.07813 -2.18613,4.244 -5.33429,9.44289 -9.14453,15.24414 -0.59658,0.9083 -1.42866,2.02788 -2.05664,2.96484 -0.70193,-1.36076 -1.62931,-2.90095 -2.07032,-3.95312 -1.40662,-3.35593 -1.92641,-9.66111 -0.85546,-16.01368 1.07094,-6.35256 3.65207,-12.77848 7.47656,-16.95507 1.57602,-1.72125 3.2152,-2.86638 4.50586,-3.37696 0.64533,-0.25528 1.15751,-0.36606 1.58594,-0.375 z m -45.33594,7.22852 c 0.12455,0.0766 0.42561,0.28377 0.83594,0.94336 1.7783,2.85855 3.75711,12.47463 1.18359,30.2832 -0.16457,1.13881 -0.4344,2.12406 -0.6582,3.17773 -1.13651,-7.89491 -2.20119,-15.12685 -2.76758,-20.85546 -0.57042,-5.76922 -0.38655,-10.28464 -0.006,-11.36719 0.58936,-1.6765 1.38717,-2.1517 1.41211,-2.18164 z m 508.10937,8.15039 c -0.67474,12.18571 -1.71421,24.25114 -4.32422,34.70703 -3.25461,13.03834 -8.63509,23.48778 -17.55468,29.51563 -4.6493,3.14199 -8.8574,4.90756 -12.0918,5.5039 -1.61719,0.29818 -2.93504,0.30824 -3.98633,0.13086 -1.0513,-0.17734 -1.83513,-0.54367 -2.38086,-0.99609 -1.09146,-0.90486 -1.84325,-2.46234 -1.51953,-5.69336 0.32373,-3.23103 1.91063,-7.86155 5.29102,-13.54492 5.10345,-8.5807 20.34164,-28.4012 36.5664,-49.62305 z m -399.75,33.54101 c 2.45359,11.38282 2.75493,22.07079 -1.84961,29.24415 -8.66943,13.50512 -16.12135,21.14858 -21.84375,24.4375 -2.86121,1.64445 -5.15905,2.33546 -7.17578,2.27929 -2.01671,-0.0562 -3.74864,-0.85934 -5.48242,-2.20117 -1.0725,-0.82991 -1.47227,-1.76811 -1.4707,-3.60352 0.002,-1.83541 0.65033,-4.38024 1.85351,-7.09765 2.40638,-5.43483 6.919,-11.53435 10.86719,-15.45508 2.4004,-2.38418 12.60999,-13.23376 25.10156,-27.60352 z m 464.27344,2.9668 c -0.25979,0.005 -0.50527,0.0296 -0.72852,0.0684 -0.893,0.1549 -1.58628,0.47388 -2.26367,0.84766 -1.35475,0.74752 -2.65617,1.79521 -4.13281,3.15429 -2.55654,2.353 -5.58734,5.70275 -8.95508,9.79493 -9.96068,-3.48548 -21.38505,-2.42339 -30.80664,3.8789 -15.905,10.63785 -20.19444,32.25326 -9.55664,48.15821 1.04537,1.56277 2.19992,3.00852 3.44141,4.34374 -2.41041,4.7339 -4.27327,8.85981 -5.40625,12.14649 -0.65072,1.88751 -1.08719,3.48796 -1.22852,5.02344 -0.0707,0.76774 -0.0829,1.528 0.13281,2.40625 0.21567,0.87823 0.77402,1.99677 1.84375,2.69726 0.90381,0.59189 1.81256,0.7511 2.64453,0.69532 0.83198,-0.0558 1.58668,-0.32723 2.1836,-0.59961 1.19385,-0.54477 2.25123,-1.3107 3.42773,-2.29102 2.353,-1.96062 5.08966,-4.8205 8.22266,-8.47852 0.68058,-0.79462 1.38574,-1.64277 2.09961,-2.50976 1.55009,0.54188 3.13432,0.97588 4.74219,1.29492 8.72152,1.73057 18.10222,0.14704 26.05468,-5.17187 15.90512,-10.63793 20.19452,-32.25512 9.55664,-48.16016 -1.04374,-1.56034 -2.19627,-3.00428 -3.43554,-4.33789 0.50543,-0.99322 0.99802,-1.97162 1.45117,-2.90625 2.10116,-4.33366 3.63138,-7.98736 4.48828,-10.92774 0.42844,-1.47019 0.70822,-2.7465 0.73047,-4.05859 0.0222,-1.3112 -0.21133,-3.20084 -2.01563,-4.38477 -0.80456,-0.52729 -1.71086,-0.69715 -2.49023,-0.68359 z m -3.42773,9.64063 c -0.77445,2.15864 -1.59411,4.40853 -3.13086,7.57812 -0.19929,0.41102 -0.43173,0.85847 -0.64258,1.2832 -0.89909,-0.65042 -1.82342,-1.25751 -2.77344,-1.81445 2.50695,-2.9548 4.69922,-5.28138 6.54688,-7.04687 z m -144.42774,1.61718 a 4.7504748,4.7504748 0 0 0 -0.47461,0.0137 c 0,0 -10.39479,0.66033 -20.79687,1.92578 -5.20103,0.63271 -10.38574,1.40344 -14.50782,2.39453 -2.06103,0.49554 -3.82883,1.00293 -5.48437,1.81445 -0.82778,0.40575 -1.65835,0.85892 -2.54688,1.78711 -0.88812,0.92775 -1.90001,2.81098 -1.61914,4.80469 0.32651,2.3125 2.63025,18.80918 5.23047,34.74609 1.30011,7.96846 2.67171,15.7946 3.93555,21.75195 0.63193,2.97868 1.22383,5.47021 1.83008,7.42774 0.30313,0.97875 0.58721,1.80617 1.0332,2.69336 0.223,0.44359 0.46236,0.90606 1.00586,1.52344 0.5435,0.61736 1.60648,1.7189 3.68555,1.79687 1.27365,0.0478 1.90944,-0.0824 3.22656,-0.23437 1.31713,-0.15197 2.97143,-0.37077 4.87109,-0.64063 3.79934,-0.53972 8.56945,-1.28399 13.34375,-2.08984 4.7743,-0.80586 9.54158,-1.67141 13.36328,-2.46485 1.91086,-0.39671 3.58157,-0.76959 4.95313,-1.13086 1.37157,-0.36126 2.03923,-0.31086 3.78906,-1.42578 a 4.7509139,4.7509139 0 1 0 -5.10547,-8.01367 c 1.03763,-0.66112 -0.007,-0.0388 -1.10351,0.25 -1.09663,0.28886 -2.64977,0.6431 -4.46289,1.01953 -3.62624,0.75285 -8.31784,1.60779 -13.01368,2.40039 -4.69585,0.79262 -9.40784,1.52634 -13.0996,2.05078 -1.45726,0.20702 -2.58515,0.34901 -3.6504,0.48047 -0.40623,-1.43299 -0.86105,-3.19799 -1.37304,-5.61132 -1.08898,-5.13312 -2.30685,-12.03651 -3.48438,-19.14649 1.11214,-0.13707 2.28635,-0.29747 3.58594,-0.50391 3.96994,-0.63061 8.73122,-1.54421 13.34961,-2.48632 9.23678,-1.88426 17.89258,-3.88477 17.89258,-3.88477 a 4.7504748,4.7504748 0 1 0 -2.13477,-9.25781 c 0,0 -8.57202,1.9785 -17.6582,3.83203 -4.5431,0.92678 -9.21355,1.82253 -12.9375,2.41406 -1.38341,0.21975 -2.56852,0.37801 -3.61133,0.5 -1.78734,-11.41486 -3.14468,-21.057 -3.63281,-24.52344 0.64637,-0.21909 1.05152,-0.40419 2.04297,-0.64257 3.41917,-0.8221 8.4155,-1.59047 13.43554,-2.20118 10.0401,-1.2214 20.25196,-1.875 20.25196,-1.875 a 4.7504748,4.7504748 0 0 0 -0.12891,-9.49414 z m 120.38281,7.10547 c 3.51082,0.0139 6.98976,0.69015 10.25391,1.97852 a 3.250325,3.250325 0 0 1 0.002,0.002 3.250325,3.250325 0 0 0 1.68555,0.72461 c 1.86804,0.88217 3.64771,1.97909 5.30469,3.27539 -3.8301,7.09675 -8.79364,15.4164 -14.5,24.12891 -5.70734,8.71437 -11.35254,16.58998 -16.32813,22.9375 -1.89354,-1.02926 -3.68741,-2.27767 -5.33008,-3.75 a 3.250325,3.250325 0 0 0 -0.88281,-0.83399 c -1.38369,-1.35247 -2.6534,-2.86661 -3.77344,-4.54101 -8.68334,-12.98484 -5.2168,-30.4523 7.76758,-39.13672 4.86947,-3.25729 10.36932,-4.80663 15.80078,-4.78516 z m -194.94726,6.07617 c -2.63842,0.0349 -5.49727,0.4848 -8.55078,1.4629 -8.98547,2.87781 -16.01229,7.15673 -19.27149,14.62304 -3.2592,7.46632 -2.63132,16.69356 0.38672,29.36719 3.0321,12.73266 7.1034,21.99881 13.20703,27.93359 3.05182,2.9674 6.68815,4.8936 10.61914,5.78321 3.93098,0.8896 8.15571,0.7431 12.37696,-0.4336 11.87037,-3.30875 18.11536,-10.08001 20.36132,-16.75195 2.24597,-6.67194 0.877,-12.82269 0.40821,-15.13672 a 4.7504748,4.7504748 0 1 0 -9.31055,1.88477 c 0.47476,2.34347 1.19131,6.37425 -0.10351,10.2207 -1.29483,3.84645 -4.21539,7.92963 -13.90626,10.63086 -6.09032,1.69771 -9.86791,0.83715 -13.82226,-3.00781 -3.95437,-3.84497 -7.77379,-11.50702 -10.58789,-23.32422 -2.82816,-11.87625 -2.76838,-19.13326 -0.92188,-23.36328 1.84649,-4.23003 5.59935,-6.85845 13.46289,-9.37696 9.34883,-2.99459 12.72637,-0.24543 15.35743,3.11524 2.63104,3.36065 3.41992,7.69922 3.41992,7.69922 a 4.7512795,4.7512795 0 1 0 9.38867,-1.4668 c 0,0 -0.89163,-6.42055 -5.33008,-12.08984 -3.32885,-4.25197 -9.26835,-7.87431 -17.18359,-7.76954 z m 216.98242,4.68946 c 0.45228,0.57515 0.89281,1.16454 1.30664,1.7832 8.6848,12.98493 5.21729,30.45782 -7.76758,39.14258 -6.4925,4.34243 -14.10704,5.64831 -21.18359,4.24414 -0.5654,-0.11219 -1.12591,-0.2479 -1.6836,-0.39453 4.81853,-6.24219 10.11279,-13.67935 15.47657,-21.86914 5.35868,-8.18166 10.05709,-16 13.85156,-22.90625 z m -284.29297,3.53515 c -0.2634,-0.0126 -0.53062,-0.003 -0.80273,0.0352 -2.17692,0.30598 -3.04276,1.51041 -3.53321,2.17969 -0.98088,1.33856 -1.15913,2.18396 -1.49609,3.28711 -0.67393,2.20631 -1.25514,5.08558 -1.875,8.67578 -1.23961,7.1804 -2.52245,16.99854 -3.69922,26.96679 -2.35353,19.93652 -4.25976,40.41797 -4.25976,40.41797 a 4.7504748,4.7504748 0 0 0 4.21093,5.23243 4.7504748,4.7504748 0 0 0 5.24805,-4.35157 c 0,0 1.00149,-10.70097 2.42383,-23.99804 2.20638,-0.34372 5.59187,-0.88677 10.17383,-1.74414 5.13366,-0.96061 10.61111,-2.02834 15.03515,-3.40039 2.30225,4.28937 4.86032,9.04637 6.6836,12.4414 1.65705,3.08551 3.05029,5.67042 4.05859,7.5293 0.50416,0.92943 0.91031,1.67722 1.21484,2.22656 0.15227,0.27467 0.27729,0.49723 0.38672,0.6875 0.10943,0.19029 -0.0268,0.0746 0.48242,0.75586 a 4.7504748,4.7504748 0 1 0 7.61133,-5.68555 c 0.45845,0.61333 0.20794,0.30695 0.14258,0.19336 -0.0653,-0.11357 -0.17569,-0.30828 -0.31445,-0.55859 -0.27754,-0.50064 -0.67866,-1.23196 -1.17578,-2.14844 -0.99425,-1.83299 -2.38216,-4.41255 -4.03711,-7.49414 -3.3099,-6.1632 -7.68786,-14.33561 -12.15235,-22.625 -4.46448,-8.28938 -9.01406,-16.6945 -12.67968,-23.3418 -1.83282,-3.32365 -3.44327,-6.20783 -4.72266,-8.43554 -1.27939,-2.22773 -2.03302,-3.57127 -2.91992,-4.75782 -0.58153,-0.77798 -2.16008,-1.99948 -4.00391,-2.08789 z m -38.59766,7.29102 c -4.01513,-0.0716 -8.28292,0.70271 -12.46679,1.72851 -8.36775,2.05162 -16.64817,5.34677 -18.16016,5.88868 -1.72271,0.61743 -2.58957,1.91505 -2.98633,2.74218 -0.39679,0.82713 -0.50713,1.43733 -0.59765,2.00782 -0.17988,1.14115 -0.17548,2.15342 -0.12891,3.33008 0.0932,2.35329 0.43945,5.25567 0.95117,8.67382 1.02348,6.83634 2.72781,15.63189 4.54883,24.38477 3.64204,17.50573 7.75977,34.79297 7.75977,34.79297 a 4.7504748,4.7504748 0 0 0 3.77929,3.63867 4.7504748,4.7504748 0 0 0 5.46094,-5.83984 c 1e-5,0 -3.37344,-14.73625 -6.39844,-28.69727 1.25809,-0.21272 2.30926,-0.24811 3.76954,-0.5625 3.19228,-0.6873 6.75833,-1.5795 10.11718,-2.4668 6.7177,-1.77459 12.62305,-3.53711 12.62305,-3.53711 l -0.30664,0.0781 c 4.63246,-1.0519 8.15506,-4.4896 9.59961,-8.32422 1.44455,-3.83463 1.39076,-7.89279 0.82617,-11.89258 -1.12919,-7.9996 -4.48119,-15.92283 -7.32813,-20.76367 -2.44287,-4.15422 -7.04735,-5.11005 -11.0625,-5.18164 z m -245.70507,8.9707 c -0.67473,12.18601 -1.71221,24.25086 -4.32227,34.70703 -3.25461,13.03833 -8.63706,23.48973 -17.55664,29.51758 -4.64931,3.14199 -8.85556,4.90558 -12.08984,5.50196 -1.61714,0.29817 -2.93903,0.30823 -3.99024,0.13085 -1.05123,-0.17733 -1.83321,-0.54172 -2.3789,-0.99414 -1.09139,-0.90481 -1.84516,-2.46422 -1.52149,-5.69531 0.32368,-3.23107 1.91095,-7.86344 5.29102,-13.54687 5.10345,-8.58032 20.34342,-28.39899 36.56836,-49.6211 z m 285.83789,0.40625 c 0.62691,1.12468 1.08911,1.92835 1.79101,3.20117 3.63573,6.59311 8.17889,14.98077 12.63672,23.25782 0.30031,0.55759 0.51912,0.96742 0.81836,1.52343 -3.47711,0.92461 -7.98249,1.93519 -12.13867,2.7129 -2.75544,0.51559 -5.24436,0.93859 -7.33398,1.2832 0.24275,-2.14773 0.46374,-4.22857 0.71874,-6.38867 1.12882,-9.56179 2.36159,-18.80332 3.50782,-25.58985 z m -40.30274,0.1211 c 2.56889,0.0458 3.14991,0.68195 3.04297,0.5 2.10502,3.5793 5.24663,11.14959 6.11133,17.27539 0.43233,3.06289 0.24926,5.72558 -0.3125,7.21679 -0.56175,1.49123 -0.92428,1.98185 -2.81055,2.41016 a 4.7504748,4.7504748 0 0 0 -0.30664,0.082 c 0,0 -5.78729,1.72422 -12.33203,3.45313 -3.27237,0.86444 -6.73096,1.72826 -9.68945,2.36523 -1.73533,0.37362 -2.51731,0.42439 -3.71289,0.5957 -1.50334,-7.39155 -2.98084,-14.87849 -3.8125,-20.43359 -0.46699,-3.11934 -0.74286,-5.65529 -0.82422,-7.34961 3.31803,-1.23448 8.57992,-3.17894 14.61328,-4.6582 3.74832,-0.91901 7.46432,-1.50284 10.0332,-1.45703 z m -59.50195,2.76172 c -2.32358,-0.0912 -4.8365,0.19091 -7.49805,0.89648 -8.10231,2.14807 -13.73117,5.79817 -16.88867,10.67578 -3.15749,4.87761 -3.48948,10.52877 -2.4668,15.52148 1.34318,6.55743 6.92137,10.21104 12.15039,12.44727 5.22903,2.23623 10.71121,3.26243 14.51954,3.62891 2.82633,0.27196 7.2194,1.24937 10.53515,3.13672 3.31575,1.88735 5.4411,4.13345 5.80469,8.15234 0.41246,4.55896 -0.8478,7.45473 -2.91406,9.70508 -2.06626,2.25035 -5.18894,3.76925 -8.42774,4.3125 -3.79458,0.6365 -8.00305,0.84361 -11.55468,-0.61524 -3.55164,-1.45886 -6.99786,-4.41006 -9.59571,-12.29492 a 4.7505419,4.7505419 0 1 0 -9.02343,2.97461 c 3.22498,9.78831 8.86211,15.58304 15.00781,18.10742 1.53642,0.6311 3.06968,1.07 4.57617,1.35938 4.51945,0.86798 8.79512,0.40069 12.16211,-0.16407 5.0451,-0.84623 10.08615,-3.15497 13.85156,-7.25585 3.76541,-4.10087 6.00578,-10.07708 5.38086,-16.98438 -0.67377,-7.44736 -5.50782,-12.67335 -10.56641,-15.55273 -5.05857,-2.87943 -10.45777,-3.9635 -14.32812,-4.33594 -2.88837,-0.27795 -7.78723,-1.23772 -11.69336,-2.9082 -3.90613,-1.67049 -6.21512,-3.84693 -6.57812,-5.61914 -0.68346,-3.33694 -0.41391,-6.06077 1.13476,-8.45313 1.54867,-2.39235 4.73065,-4.90248 11.3457,-6.65625 3.75442,-0.99528 6.08609,-0.66365 7.7793,0.0391 1.69319,0.70273 2.93568,1.9099 3.94531,3.44922 2.01928,3.07866 2.54102,6.97852 2.54102,6.97852 a 4.7506412,4.7506412 0 1 0 9.44726,-1 c 0,0 -0.50221,-5.78317 -4.04687,-11.1875 -1.77233,-2.70216 -4.4468,-5.43965 -8.24414,-7.01563 -1.89867,-0.788 -4.03189,-1.25063 -6.35547,-1.34179 z m -70.25977,8.89453 a 4.7504748,4.7504748 0 0 0 -4.54687,6.25 c -0.16611,-0.51964 0.0278,0.13378 0.1543,0.7539 0.12654,0.62012 0.29546,1.4963 0.49804,2.57422 0.40515,2.15583 0.94204,5.12502 1.55664,8.61914 1.2292,6.98824 2.77287,16.09079 4.22266,25.13086 1.27193,7.93106 2.3604,15.35817 3.21484,21.71094 -4.46208,-5.77313 -9.89132,-13.0051 -15.55859,-20.63086 -6.10226,-8.21106 -12.26473,-16.54909 -17.16016,-23.03906 -2.44772,-3.24498 -4.57641,-6.02591 -6.24804,-8.12696 -0.83581,-1.05052 -1.55226,-1.92984 -2.17188,-2.64453 -0.61963,-0.7147 -0.87605,-1.13439 -1.94726,-1.92773 -0.49815,-0.36892 -1.25854,-0.83305 -2.42969,-0.97266 -1.17116,-0.13956 -2.65223,0.28377 -3.53711,0.94336 -1.76975,1.31921 -1.81178,2.41914 -1.97461,3.09375 -0.32574,1.3492 -0.2654,2.14879 -0.23437,3.23242 0.0621,2.16728 0.36177,4.96954 0.8164,8.41407 0.90925,6.88908 2.4619,16.17064 4.12891,25.54492 3.33405,18.74855 7.13476,37.8125 7.13476,37.8125 a 4.7504748,4.7504748 0 0 0 4.11133,3.85547 4.7504748,4.7504748 0 0 0 5.20703,-5.71289 c 0,0 -3.79123,-19.00393 -7.10156,-37.61915 -1.32044,-7.42536 -2.34908,-14.01849 -3.24023,-20.04492 4.83469,6.41136 10.94347,14.679 17.02148,22.85742 6.11257,8.22493 12.17478,16.33689 16.88281,22.38477 2.35401,3.02393 4.35901,5.52346 5.9336,7.33594 0.78729,0.90624 1.44354,1.6269 2.13086,2.26758 0.34365,0.32033 0.66416,0.61891 1.26367,0.99804 0.29974,0.18957 0.66184,0.4183 1.36133,0.62891 0.69949,0.21065 1.99111,0.47749 3.53906,-0.25977 2.74228,-1.30606 2.58331,-2.83899 2.73828,-3.50586 0.15484,-0.66688 0.17611,-1.09713 0.19531,-1.54882 0.0385,-0.90338 -0.003,-1.81704 -0.0781,-2.92579 -0.14985,-2.21749 -0.46929,-5.12352 -0.91016,-8.57812 -0.88172,-6.90918 -2.2483,-15.95295 -3.70703,-25.04883 -1.45874,-9.09587 -3.00801,-18.2308 -4.24609,-25.26953 -0.61905,-3.51937 -1.16004,-6.51227 -1.57618,-8.72656 -0.20807,-1.10714 -0.38602,-2.01861 -0.52929,-2.7207 -0.14326,-0.70209 -0.1422,-0.90569 -0.41211,-1.75 a 4.7504748,4.7504748 0 0 0 -4.50196,-3.35547 z m -62.82617,10.6875 a 4.7506095,4.7506095 0 0 0 -4.79687,5.28711 c 0,0 5.82502,52.22816 12.00586,75.16406 a 4.7504748,4.7504748 0 0 0 3.88476,3.52344 4.7504748,4.7504748 0 0 0 5.28711,-5.99805 c -5.6051,-20.79942 -11.73633,-73.76172 -11.73633,-73.76172 a 4.7506095,4.7506095 0 0 0 -4.64453,-4.21484 z m 473.11719,2.90234 c 0.89985,0.65081 1.82454,1.25728 2.77539,1.81445 -0.30577,0.36385 -0.62604,0.75582 -0.92383,1.10352 -2.28899,2.67257 -4.023,4.3203 -5.6914,5.89258 0.87955,-2.39845 2.13514,-5.33457 3.83984,-8.81055 z m -522.56445,54.17578 a 3.250325,3.250325 0 0 0 -3.14453,2.76758 c -1.05803,5.6536 -1.78445,13.65028 -4.0586,19.88086 -1.14114,3.12642 -2.64538,5.71669 -4.49023,7.37891 -1.84484,1.6622 -3.96455,2.58234 -7.32031,2.43945 a 3.250325,3.250325 0 0 0 -0.92383,6.40039 c 3.25617,0.81203 4.8967,2.24124 6.08984,4.30273 1.19314,2.06149 1.79839,4.94752 1.92969,8.27539 0.26261,6.65576 -1.40191,14.58983 -1.22656,20.83008 a 3.250325,3.250325 0 0 0 2.78125,3.125 3.250325,3.250325 0 0 0 3.56054,-2.20898 c 1.93484,-5.93531 2.58453,-14.01511 4.72071,-20.32422 1.06807,-3.15455 2.46345,-5.75127 4.1914,-7.39063 1.72796,-1.63936 3.70574,-2.54733 7.0586,-2.40429 a 3.250325,3.250325 0 0 0 0.92773,-6.39844 c -3.25711,-0.81255 -5.02928,-2.29833 -6.32813,-4.41992 -1.29884,-2.12161 -2.00635,-5.036 -2.21484,-8.36524 -0.41296,-6.59447 1.13058,-14.41788 1.72461,-20.13086 a 3.250325,3.250325 0 0 0 0.0215,-0.15625 c 9.2e-4,-0.009 0.003,-0.0219 0.004,-0.0312 a 3.250325,3.250325 0 0 0 0.0156,-0.21875 3.250325,3.250325 0 0 0 0.002,-0.008 3.250325,3.250325 0 0 0 -3.32031,-3.34375 z m -3.87696,30.58985 c 0.4917,1.76068 1.13193,3.4767 2.10157,5.06054 0.70235,1.14728 1.78525,2.06207 2.79492,3.02149 -1.18544,0.63587 -2.44145,1.19478 -3.38281,2.08789 -1.54553,1.46628 -2.72765,3.19724 -3.71875,5.04297 -0.42803,-2.05084 -1.06955,-4.04677 -2.13672,-5.89063 -0.64968,-1.1225 -1.69606,-2.01389 -2.65235,-2.95898 1.23702,-0.63207 2.53266,-1.19968 3.5293,-2.09766 1.38405,-1.24703 2.49233,-2.71161 3.46484,-4.26562 z"
         style="color:#000000;font-style:normal;font-variant:normal;font-weight:normal;font-stretch:normal;font-size:medium;line-height:normal;font-family:sans-serif;font-variant-ligatures:normal;font-variant-position:normal;font-variant-caps:normal;font-variant-numeric:normal;font-variant-alternates:normal;font-feature-settings:normal;text-indent:0;text-align:start;text-decoration:none;text-decoration-line:none;text-decoration-style:solid;text-decoration-color:#000000;letter-spacing:normal;word-spacing:normal;text-transform:none;writing-mode:lr-tb;direction:ltr;text-orientation:mixed;dominant-baseline:auto;baseline-shift:baseline;text-anchor:start;white-space:normal;shape-padding:0;clip-rule:nonzero;display:inline;overflow:visible;visibility:visible;opacity:1;isolation:auto;mix-blend-mode:normal;color-interpolation:sRGB;color-interpolation-filters:linearRGB;solid-color:#000000;solid-opacity:1;vector-effect:none;fill:#ffffff;fill-opacity:1;fill-rule:nonzero;stroke:none;stroke-width:6.5;stroke-linecap:round;stroke-linejoin:miter;stroke-miterlimit:4;stroke-dasharray:none;stroke-dashoffset:0;stroke-opacity:1;color-rendering:auto;image-rendering:auto;shape-rendering:auto;text-rendering:auto;enable-background:accumulate" /></g><rect
       transform="scale(1,-1)"
       y="47.499996"
       x="102.50001"
       height="132.5"
       width="777.50006"
       id="rect100"
       style="opacity:1;fill:#ecd1ec;fill-opacity:1;stroke:none;stroke-width:1.5;stroke-linejoin:round;stroke-miterlimit:4;stroke-dasharray:none;stroke-opacity:1" /></g></svg>