<?xml version="1.0" encoding="UTF-8" standalone="no"?>
<!-- Created with Inkscape (http://www.inkscape.org/) -->

<svg
   xmlns:dc="http://purl.org/dc/elements/1.1/"
   xmlns:cc="http://creativecommons.org/ns#"
   xmlns:rdf="http://www.w3.org/1999/02/22-rdf-syntax-ns#"
   xmlns:svg="http://www.w3.org/2000/svg"
   xmlns="http://www.w3.org/2000/svg"
   xmlns:sodipodi="http://sodipodi.sourceforge.net/DTD/sodipodi-0.dtd"
   xmlns:inkscape="http://www.inkscape.org/namespaces/inkscape"
   version="1.1"
   id="svg2"
   width="786.56"
   height="786.56"
   viewBox="0 0 786.56 786.56"
   sodipodi:docname="yesterday in space badge v3.svg"
   inkscape:version="0.91+devel+osxmenu r12922">
  <metadata
     id="metadata8">
    <rdf:RDF>
      <cc:Work
         rdf:about="">
        <dc:format>image/svg+xml</dc:format>
        <dc:type
           rdf:resource="http://purl.org/dc/dcmitype/StillImage" />
        <dc:title></dc:title>
      </cc:Work>
    </rdf:RDF>
  </metadata>
  <defs
     id="defs6">
    <clipPath
       id="clipPath3698"
       clipPathUnits="userSpaceOnUse">
      <path
         inkscape:connector-curvature="0"
         id="path3696"
         d="M 0,0 H 590 V 590 H 0 Z" />
    </clipPath>
  </defs>
  <sodipodi:namedview
     pagecolor="#ffffff"
     bordercolor="#666666"
     borderopacity="1"
     objecttolerance="10"
     gridtolerance="10"
     guidetolerance="10"
     inkscape:pageopacity="0"
     inkscape:pageshadow="2"
     inkscape:window-width="1335"
     inkscape:window-height="970"
     id="namedview4"
     showgrid="false"
     inkscape:zoom="0.51"
     inkscape:cx="609.26189"
     inkscape:cy="55.125958"
     inkscape:window-x="373"
     inkscape:window-y="37"
     inkscape:window-maximized="0"
     inkscape:current-layer="svg2" />
  <g
     id="g8218"
     transform="translate(-768.17103,-710.19262)">
    <path
       id="path8124"
       d="m 1158.998,868.31641 c -124.3539,1.19036 -227.35702,99.8347 -232.5273,225.48629 -0.70722,17.2115 0.47278,34.063 3.32618,50.3692 -39.8587,19.7349 -72.11592,37.9018 -94.08985,53.2011 -11.29066,7.8612 -19.88224,14.9263 -25.57617,21.3868 -2.84696,3.2302 -4.99861,6.3095 -6.31836,9.5214 -1.31975,3.2123 -1.77346,6.8152 -0.52539,10.127 2.1097,5.5985 7.73866,8.2758 14.31836,9.627 6.5797,1.3511 14.92485,1.5524 25.15039,0.8964 20.45108,-1.3118 48.34935,-6.2 82.04492,-14.1582 11.2843,-2.6651 23.26709,-5.7063 35.76953,-9.0449 39.55029,64.8199 109.68799,109.353 191.20119,112.707 129.7053,5.3371 239.2957,-95.5955 244.6328,-225.3007 0.7072,-17.2102 -0.4732,-34.0603 -3.3262,-50.3653 11.5817,-5.7342 22.5777,-11.35 32.8028,-16.7871 30.5686,-16.2546 54.7567,-30.9909 70.9882,-43.5 8.1158,-6.25445 14.2508,-11.91261 18.3028,-17.26951 4.052,-5.3569 6.5159,-11.08507 4.4062,-16.68359 -1.2446,-3.30405 -3.9553,-5.70926 -7.0566,-7.25196 -3.1021,-1.54308 -6.7382,-2.43745 -10.9942,-2.98828 -4.2559,-0.55083 -9.1523,-0.73915 -14.6875,-0.59765 -5.5351,0.14149 -11.708,0.61189 -18.5175,1.37695 -26.6323,2.99214 -62.9306,10.63695 -106.0176,22.14258 -39.5509,-64.82028 -109.6906,-109.35152 -191.209,-112.70117 -4.0533,-0.16678 -8.0862,-0.22981 -12.0977,-0.19141 l 0,-0.002 z m 0.094,10 c 3.844,-0.0364 7.7092,0.0237 11.5937,0.18359 105.2328,4.3241 190.5426,80.09177 211.1543,178.6562 -15.1227,7.3923 -31.3298,15.0016 -48.416,22.7403 -0.3633,0.6524 -0.7199,1.2954 -1.1015,1.9844 0.3112,3.0083 0.5942,6.0588 0.8105,9.1152 17.8527,-8.0376 34.7954,-15.9485 50.6035,-23.6426 2.3722,14.7174 3.3118,29.8922 2.6758,45.3692 -5.1149,124.3051 -109.9255,220.8355 -234.2305,215.7207 -77.0924,-3.1722 -143.4877,-44.6952 -181.59176,-105.4278 8.55511,-2.3464 17.3811,-4.8533 26.40625,-7.4824 0.17191,-0.4508 0.34738,-0.9029 0.53907,-1.3652 1.14046,-2.7506 2.98854,-6.4525 5.26954,-10.7598 -12.96719,3.8444 -25.50895,7.4225 -37.5215,10.6953 -19.93726,-35.287 -30.60775,-76.3904 -28.82031,-119.8906 4.95504,-120.42067 103.46501,-214.76748 222.62891,-215.89649 z m 331.7578,89.34765 c 3.5866,0.0144 6.7318,0.19639 9.3945,0.54102 3.5504,0.45951 6.221,1.22787 7.8243,2.02539 1.6032,0.79752 1.9965,1.41025 2.1523,1.82422 l 0,0.002 c 0.2647,0.70243 0.1024,2.99054 -3.0234,7.12305 -3.1259,4.1325 -8.7188,9.43684 -16.4317,15.38086 -15.4257,11.8881 -39.2966,26.4888 -69.5801,42.5918 -9.4126,5.0052 -19.516,10.1726 -30.1171,15.4454 -4.8862,-22.0952 -12.8852,-43.0734 -23.5489,-62.41806 41.6298,-11.03041 76.6985,-18.34041 101.918,-21.17383 8.2317,-0.92483 15.4345,-1.36578 21.4121,-1.3418 z m -175.791,120.44724 c -41.896,18.5099 -88.5801,37.6197 -138.1895,56.3106 -31.0352,11.6935 -61.3034,22.496 -90.332,32.3222 -2.0308,2.8732 -4.1282,5.1837 -6.3965,6.9629 -4.9481,3.8813 -11.7939,4.5206 -16.5566,1.8242 -0.3999,-0.2264 -0.7738,-0.4851 -1.1289,-0.7636 -10.5219,3.4452 -20.8331,6.7397 -30.9395,9.8945 0.085,3.5697 0.013,7.1102 -0.2949,10.5723 45.9535,-14.2656 96.4808,-31.6013 149.1738,-51.4551 45.089,-16.9877 87.7453,-34.3122 126.6582,-51.2422 2.3957,-4.4058 5.1376,-9.3136 8.0059,-14.4258 z m -383.25587,66.2149 c 4.88641,22.1032 12.8889,43.0885 23.55665,62.4394 -11.45752,3.0372 -22.47158,5.8225 -32.85743,8.2754 -33.38123,7.884 -60.95082,12.6654 -80.38672,13.9121 -9.71794,0.6234 -17.42203,0.3275 -22.49804,-0.7148 -5.07602,-1.0424 -6.70797,-2.655 -6.97266,-3.3574 -0.15594,-0.4138 -0.2657,-1.1349 0.41797,-2.7989 0.68367,-1.664 2.19308,-4.0136 4.57031,-6.7109 4.75447,-5.3945 12.8662,-12.1873 23.78711,-19.791 20.82617,-14.5003 51.892,-32.1063 90.38281,-51.2539 z m 87.52537,44.1015 c -0.012,0 -0.023,0.01 -0.035,0.01 -2.596,4.6879 -4.9348,8.9616 -6.8106,12.5117 2.0341,-0.6108 4.0532,-1.2121 6.1074,-1.8359 0.2523,-1.3273 0.4698,-2.7049 0.6192,-4.1778 0.2025,-1.9996 0.095,-4.3195 0.1191,-6.5078 z"
       style="color:#000000;font-style:normal;font-variant:normal;font-weight:normal;font-stretch:normal;font-size:medium;line-height:normal;font-family:sans-serif;font-variant-ligatures:none;font-variant-position:normal;font-variant-caps:normal;font-variant-numeric:normal;font-variant-alternates:normal;font-feature-settings:normal;text-indent:0;text-align:start;text-decoration:none;text-decoration-line:none;text-decoration-style:solid;text-decoration-color:#000000;letter-spacing:normal;word-spacing:normal;text-transform:none;direction:ltr;block-progression:tb;writing-mode:lr-tb;baseline-shift:baseline;text-anchor:start;white-space:normal;shape-padding:0;clip-rule:nonzero;display:inline;overflow:visible;visibility:visible;opacity:1;isolation:auto;mix-blend-mode:normal;color-interpolation:sRGB;color-interpolation-filters:linearRGB;solid-color:#000000;solid-opacity:1;fill:#000000;fill-opacity:1;fill-rule:nonzero;stroke:none;stroke-width:10;stroke-linecap:round;stroke-linejoin:miter;stroke-miterlimit:4;stroke-dasharray:none;stroke-dashoffset:0;stroke-opacity:1;color-rendering:auto;image-rendering:auto;shape-rendering:auto;text-rendering:auto;enable-background:accumulate"
       inkscape:connector-curvature="0" />
    <g
       transform="translate(768.77828,709.35143)"
       style="stroke:#000000;stroke-width:4;stroke-miterlimit:4;stroke-dasharray:none"
       id="g8138">
      <path
         inkscape:connector-curvature="0"
         id="path8140"
         style="fill:none;stroke:#000000;stroke-width:4;stroke-linecap:round;stroke-linejoin:miter;stroke-miterlimit:4;stroke-dasharray:none;stroke-opacity:1"
         d="m 497.14882,338.23681 c 0,0 -12.07872,-7.91392 -19.55734,3.83259 -7.79201,12.23909 -6.49593,25.10167 2.02676,33.64399 5.28985,5.30214 17.01509,1.21262 20.08346,-8.41304 3.06836,-9.62566 4.8431,-26.05245 3.33838,-32.00917 -1.50473,-5.95672 -5.33732,8.84425 -4.51663,15.1209 1.01624,7.774 2.65925,25.8168 11.22694,20.45166 8.56768,-5.36513 11.61805,-43.41939 7.03596,-44.73347 -4.58209,-1.31407 -5.53369,30.33835 7.33134,35.28046 7.85501,3.01681 29.11018,-1.24207 29.11018,-23.76305 0,-22.52097 -6.58021,-22.34259 -7.77073,-16.29914 -1.19053,6.04345 10.08059,32.20718 12.04435,50.86283 1.96375,18.65565 2.94563,38.29318 -7.85501,48.11194 -10.80064,9.81876 -19.901,5.89126 -13.38707,-9.81876 6.51393,-15.71084 45.78899,-78.48302 44.80711,-90.29908" />
      <path
         inkscape:connector-curvature="0"
         id="path8142"
         style="fill:none;stroke:#000000;stroke-width:4;stroke-linecap:round;stroke-linejoin:miter;stroke-miterlimit:4;stroke-dasharray:none;stroke-opacity:1"
         d="m 212.33922,421.62838 c 0,0 -3.04627,31.4495 9.81876,36.39161 7.85501,3.01682 30.43817,0.85751 30.43817,-21.66346 0,-22.52098 -7.39598,-23.76878 -8.58651,-17.72615 -1.19134,6.04345 9.56839,31.5346 11.53214,50.19025 1.96375,18.65565 2.94563,38.29318 -7.85501,48.11194 -10.80064,9.81877 -19.90018,5.89126 -13.38707,-9.81876 6.51393,-15.71002 45.78899,-78.48302 44.80711,-90.29908 -0.98187,-11.81606 -6.84695,-11.42413 -10.59199,-5.9248 -4.5289,6.64975 -4.13615,17.84314 -1.19052,22.75253 2.94563,4.90938 11.99116,17.53303 23.56503,4.12388 11.57387,-13.40916 19.63753,-36.69518 17.67377,-42.58644 -1.96375,-5.89125 -10.80064,-0.98187 -8.83688,4.90939 1.96375,5.89125 27.2667,35.278 19.63752,52.03944 -8.30094,18.2359 -15.71002,22.16341 -21.60128,18.8283 -5.19985,-2.94317 -0.49093,-13.94183 3.92751,-19.81017 3.34083,-4.43808 41.23881,-58.54684 42.10204,-80.93362 0.64477,-16.70826 -4.59436,-18.45927 -6.75449,1.35335 -1.94739,17.8587 -6.19646,40.53023 -5.89126,46.4714 0.39275,7.63818 8.38113,11.68023 14.28221,3.82522 5.90108,-7.85501 18.11971,-27.7691 19.10159,-34.64223 0.98187,-6.87314 -6.0099,-12.49111 -10.91929,-6.59985 -4.90938,5.89126 -8.71824,18.36191 -3.80886,26.2791 4.90938,7.9172 16.12732,12.82658 26.71931,2.02594 10.59199,-10.80064 16.48325,-25.52878 13.53762,-33.38379 -2.94563,-7.85501 -10.80064,-5.89126 -10.80064,0 0,5.89125 7.85501,14.78951 15.71003,5.89125 7.85501,-8.89907 14.72814,-17.66968 14.72814,-20.6194 0,-2.95054 -9.20754,25.28741 -8.44414,33.71764 0.78551,8.67242 9.03327,9.45792 11.9789,5.53041 2.94562,-3.9275 9.42601,-19.20795 9.22963,-27.68727" />
      <path
         inkscape:connector-curvature="0"
         id="path8144"
         style="fill:none;stroke:#000000;stroke-width:4;stroke-linecap:round;stroke-linejoin:miter;stroke-miterlimit:4;stroke-dasharray:none;stroke-opacity:1"
         d="m 445.69851,353.35967 c 0,0 -4.90938,-9.0979 -16.29915,2.91617 -12.45592,13.13915 -5.51732,33.21524 1.1128,36.32616 3.142,1.47445 10.90455,4.15988 19.6498,-11.19339 5.48623,-9.63139 4.55181,-34.20203 5.09348,-45.16632 0.7855,-15.90967 -4.12388,-22.51442 -5.91171,-0.4222 -0.4263,5.27103 -2.34832,38.84957 8.66096,46.76677 11.00929,7.91719 12.96077,-12.33564 14.92452,-28.47442" />
      <path
         inkscape:connector-curvature="0"
         id="path8146"
         style="fill:none;stroke:#000000;stroke-width:4;stroke-linecap:round;stroke-linejoin:miter;stroke-miterlimit:4;stroke-dasharray:none;stroke-opacity:1"
         d="m 314.45436,386.40259 c 0,0 72.41175,-23.62722 112.79223,-41.72975" />
    </g>
    <g
       style="stroke:#000000"
       transform="translate(782.77828,703.35143)"
       id="g8148">
      <path
         inkscape:connector-curvature="0"
         id="path8150"
         style="fill:none;stroke:#000000;stroke-width:4.09115171;stroke-linecap:round;stroke-linejoin:round;stroke-miterlimit:4;stroke-dasharray:none;stroke-opacity:1"
         d="m 288.53283,506.66573 c 0,0 8.24776,31.42004 13.74627,44.18444" />
      <path
         inkscape:connector-curvature="0"
         id="path8152"
         style="fill:none;stroke:#000000;stroke-width:4.09115171;stroke-linecap:round;stroke-linejoin:round;stroke-miterlimit:4;stroke-dasharray:none;stroke-opacity:1"
         d="m 315.04349,546.46805 c 0,0 -15.9064,-44.90775 -13.35352,-43.53313 2.55288,1.37463 36.13305,36.72218 37.3113,35.93668 1.17826,-0.7855 -12.47801,-42.67971 -13.21032,-44.18444" />
      <path
         inkscape:connector-curvature="0"
         id="path8154"
         style="fill:none;stroke:#000000;stroke-width:4.09115171;stroke-linecap:round;stroke-linejoin:round;stroke-miterlimit:4;stroke-dasharray:none;stroke-opacity:1"
         d="m 377.49082,491.15208 c 0,0 -2.94563,-11.58614 -13.54989,-7.06951 -8.59633,3.66158 -9.62239,9.03326 -7.85501,13.94264 1.76737,4.90939 10.60426,5.69489 14.72814,5.49851 4.12388,-0.19637 12.253,0.7855 13.88946,7.65864 1.63646,6.87313 -2.69607,11.38976 -7.60545,12.96077 -4.90938,1.571 -12.38964,2.76071 -17.4774,-7.46226" />
      <path
         inkscape:connector-curvature="0"
         id="path8156"
         style="fill:none;stroke:#000000;stroke-width:4.09115171;stroke-linecap:round;stroke-linejoin:round;stroke-miterlimit:4;stroke-dasharray:none;stroke-opacity:1"
         d="m 399.68123,519.03737 c 0,0 -16.02913,-40.45331 -13.80764,-41.63156 2.2215,-1.17825 17.93152,-10.30643 21.46628,-5.89126 3.74667,4.67946 10.60426,17.67705 2.94562,20.61941 0,0 -13.5908,6.29137 -17.39966,6.8764" />
      <path
         inkscape:connector-curvature="0"
         id="path8158"
         style="fill:none;stroke:#000000;stroke-width:4.09115171;stroke-linecap:round;stroke-linejoin:round;stroke-miterlimit:4;stroke-dasharray:none;stroke-opacity:1"
         d="m 425.79914,510.46596 c 0,0 -2.55288,-50.3408 0,-47.78792 2.55288,2.55288 28.47441,38.0968 29.06354,38.68593" />
      <path
         inkscape:connector-curvature="0"
         id="path8160"
         style="fill:none;stroke:#000000;stroke-width:4.09115171;stroke-linecap:round;stroke-linejoin:round;stroke-miterlimit:4;stroke-dasharray:none;stroke-opacity:1"
         d="m 425.79914,493.18174 c 0,0 13.69308,-4.08297 17.81697,-6.65712" />
      <path
         inkscape:connector-curvature="0"
         id="path8162"
         style="fill:none;stroke:#000000;stroke-width:4.09115171;stroke-linecap:round;stroke-linejoin:round;stroke-miterlimit:4;stroke-dasharray:none;stroke-opacity:1"
         d="m 478.03497,459.73977 c 0,0 -3.92751,-12.77176 -16.41779,-6.68412 -9.75985,4.75637 -11.88152,10.28352 -6.176,24.6811 5.70552,14.39758 12.55165,19.18095 21.02279,15.44491 12.56802,-5.54269 9.22964,-14.79688 8.24776,-17.54286" />
      <path
         inkscape:connector-curvature="0"
         id="path8164"
         style="fill:none;stroke:#000000;stroke-width:4.09115171;stroke-linecap:round;stroke-linejoin:round;stroke-miterlimit:4;stroke-dasharray:none;stroke-opacity:1"
         d="m 509.84776,437.14888 c 0,0 -24.80302,5.21213 -23.98724,8.00638 0.81496,2.79426 11.34149,39.12369 13.1866,38.92731 1.84511,-0.19637 22.58316,-6.63012 24.15416,-7.98265" />
      <path
         inkscape:connector-curvature="0"
         id="path8166"
         style="fill:none;stroke:#000000;stroke-width:4.09115171;stroke-linecap:round;stroke-linejoin:round;stroke-miterlimit:4;stroke-dasharray:none;stroke-opacity:1"
         d="m 514.75714,456.19728 c 0,0 -20.22665,7.85501 -22.97591,7.65864" />
    </g>
  </g>
  <g
     id="g4012"
     style="stroke:#000000;stroke-width:4;stroke-miterlimit:4;stroke-dasharray:none"
     transform="translate(0.60700716,-0.84026684)">
    <path
       d="m 497.14882,338.23681 c 0,0 -12.07872,-7.91392 -19.55734,3.83259 -7.79201,12.23909 -6.49593,25.10167 2.02676,33.64399 5.28985,5.30214 17.01509,1.21262 20.08346,-8.41304 3.06836,-9.62566 4.8431,-26.05245 3.33838,-32.00917 -1.50473,-5.95672 -5.33732,8.84425 -4.51663,15.1209 1.01624,7.774 2.65925,25.8168 11.22694,20.45166 8.56768,-5.36513 11.61805,-43.41939 7.03596,-44.73347 -4.58209,-1.31407 -5.53369,30.33835 7.33134,35.28046 7.85501,3.01681 29.11018,-1.24207 29.11018,-23.76305 0,-22.52097 -6.58021,-22.34259 -7.77073,-16.29914 -1.19053,6.04345 10.08059,32.20718 12.04435,50.86283 1.96375,18.65565 2.94563,38.29318 -7.85501,48.11194 -10.80064,9.81876 -19.901,5.89126 -13.38707,-9.81876 6.51393,-15.71084 45.78899,-78.48302 44.80711,-90.29908"
       style="fill:none;stroke:#000000;stroke-width:4;stroke-linecap:round;stroke-linejoin:miter;stroke-miterlimit:4;stroke-dasharray:none;stroke-opacity:1"
       id="path3702"
       inkscape:connector-curvature="0" />
    <path
       d="m 212.33922,421.62838 c 0,0 -3.04627,31.4495 9.81876,36.39161 7.85501,3.01682 30.43817,0.85751 30.43817,-21.66346 0,-22.52098 -7.39598,-23.76878 -8.58651,-17.72615 -1.19134,6.04345 9.56839,31.5346 11.53214,50.19025 1.96375,18.65565 2.94563,38.29318 -7.85501,48.11194 -10.80064,9.81877 -19.90018,5.89126 -13.38707,-9.81876 6.51393,-15.71002 45.78899,-78.48302 44.80711,-90.29908 -0.98187,-11.81606 -6.84695,-11.42413 -10.59199,-5.9248 -4.5289,6.64975 -4.13615,17.84314 -1.19052,22.75253 2.94563,4.90938 11.99116,17.53303 23.56503,4.12388 11.57387,-13.40916 19.63753,-36.69518 17.67377,-42.58644 -1.96375,-5.89125 -10.80064,-0.98187 -8.83688,4.90939 1.96375,5.89125 27.2667,35.278 19.63752,52.03944 -8.30094,18.2359 -15.71002,22.16341 -21.60128,18.8283 -5.19985,-2.94317 -0.49093,-13.94183 3.92751,-19.81017 3.34083,-4.43808 41.23881,-58.54684 42.10204,-80.93362 0.64477,-16.70826 -4.59436,-18.45927 -6.75449,1.35335 -1.94739,17.8587 -6.19646,40.53023 -5.89126,46.4714 0.39275,7.63818 8.38113,11.68023 14.28221,3.82522 5.90108,-7.85501 18.11971,-27.7691 19.10159,-34.64223 0.98187,-6.87314 -6.0099,-12.49111 -10.91929,-6.59985 -4.90938,5.89126 -8.71824,18.36191 -3.80886,26.2791 4.90938,7.9172 16.12732,12.82658 26.71931,2.02594 10.59199,-10.80064 16.48325,-25.52878 13.53762,-33.38379 -2.94563,-7.85501 -10.80064,-5.89126 -10.80064,0 0,5.89125 7.85501,14.78951 15.71003,5.89125 7.85501,-8.89907 14.72814,-17.66968 14.72814,-20.6194 0,-2.95054 -9.20754,25.28741 -8.44414,33.71764 0.78551,8.67242 9.03327,9.45792 11.9789,5.53041 2.94562,-3.9275 9.42601,-19.20795 9.22963,-27.68727"
       style="fill:none;stroke:#000000;stroke-width:4;stroke-linecap:round;stroke-linejoin:miter;stroke-miterlimit:4;stroke-dasharray:none;stroke-opacity:1"
       id="path3706"
       inkscape:connector-curvature="0" />
    <path
       d="m 445.69851,353.35967 c 0,0 -4.90938,-9.0979 -16.29915,2.91617 -12.45592,13.13915 -5.51732,33.21524 1.1128,36.32616 3.142,1.47445 10.90455,4.15988 19.6498,-11.19339 5.48623,-9.63139 4.55181,-34.20203 5.09348,-45.16632 0.7855,-15.90967 -4.12388,-22.51442 -5.91171,-0.4222 -0.4263,5.27103 -2.34832,38.84957 8.66096,46.76677 11.00929,7.91719 12.96077,-12.33564 14.92452,-28.47442"
       style="fill:none;stroke:#000000;stroke-width:4;stroke-linecap:round;stroke-linejoin:miter;stroke-miterlimit:4;stroke-dasharray:none;stroke-opacity:1"
       id="path3710"
       inkscape:connector-curvature="0" />
    <path
       d="m 314.45436,386.40259 c 0,0 72.41175,-23.62722 112.79223,-41.72975"
       style="fill:none;stroke:#000000;stroke-width:4;stroke-linecap:round;stroke-linejoin:miter;stroke-miterlimit:4;stroke-dasharray:none;stroke-opacity:1"
       id="path3714"
       inkscape:connector-curvature="0" />
  </g>
  <g
     id="g4002"
     transform="translate(14.607007,-6.8402668)"
     style="stroke:#000000">
    <path
       d="m 288.53283,506.66573 c 0,0 8.24776,31.42004 13.74627,44.18444"
       style="fill:none;stroke:#000000;stroke-width:4.09115171;stroke-linecap:round;stroke-linejoin:round;stroke-miterlimit:4;stroke-dasharray:none;stroke-opacity:1"
       id="path3738"
       inkscape:connector-curvature="0" />
    <path
       d="m 315.04349,546.46805 c 0,0 -15.9064,-44.90775 -13.35352,-43.53313 2.55288,1.37463 36.13305,36.72218 37.3113,35.93668 1.17826,-0.7855 -12.47801,-42.67971 -13.21032,-44.18444"
       style="fill:none;stroke:#000000;stroke-width:4.09115171;stroke-linecap:round;stroke-linejoin:round;stroke-miterlimit:4;stroke-dasharray:none;stroke-opacity:1"
       id="path3742"
       inkscape:connector-curvature="0" />
    <path
       d="m 377.49082,491.15208 c 0,0 -2.94563,-11.58614 -13.54989,-7.06951 -8.59633,3.66158 -9.62239,9.03326 -7.85501,13.94264 1.76737,4.90939 10.60426,5.69489 14.72814,5.49851 4.12388,-0.19637 12.253,0.7855 13.88946,7.65864 1.63646,6.87313 -2.69607,11.38976 -7.60545,12.96077 -4.90938,1.571 -12.38964,2.76071 -17.4774,-7.46226"
       style="fill:none;stroke:#000000;stroke-width:4.09115171;stroke-linecap:round;stroke-linejoin:round;stroke-miterlimit:4;stroke-dasharray:none;stroke-opacity:1"
       id="path3746"
       inkscape:connector-curvature="0" />
    <path
       d="m 399.68123,519.03737 c 0,0 -16.02913,-40.45331 -13.80764,-41.63156 2.2215,-1.17825 17.93152,-10.30643 21.46628,-5.89126 3.74667,4.67946 10.60426,17.67705 2.94562,20.61941 0,0 -13.5908,6.29137 -17.39966,6.8764"
       style="fill:none;stroke:#000000;stroke-width:4.09115171;stroke-linecap:round;stroke-linejoin:round;stroke-miterlimit:4;stroke-dasharray:none;stroke-opacity:1"
       id="path3750"
       inkscape:connector-curvature="0" />
    <path
       d="m 425.79914,510.46596 c 0,0 -2.55288,-50.3408 0,-47.78792 2.55288,2.55288 28.47441,38.0968 29.06354,38.68593"
       style="fill:none;stroke:#000000;stroke-width:4.09115171;stroke-linecap:round;stroke-linejoin:round;stroke-miterlimit:4;stroke-dasharray:none;stroke-opacity:1"
       id="path3754"
       inkscape:connector-curvature="0" />
    <path
       d="m 425.79914,493.18174 c 0,0 13.69308,-4.08297 17.81697,-6.65712"
       style="fill:none;stroke:#000000;stroke-width:4.09115171;stroke-linecap:round;stroke-linejoin:round;stroke-miterlimit:4;stroke-dasharray:none;stroke-opacity:1"
       id="path3758"
       inkscape:connector-curvature="0" />
    <path
       d="m 478.03497,459.73977 c 0,0 -3.92751,-12.77176 -16.41779,-6.68412 -9.75985,4.75637 -11.88152,10.28352 -6.176,24.6811 5.70552,14.39758 12.55165,19.18095 21.02279,15.44491 12.56802,-5.54269 9.22964,-14.79688 8.24776,-17.54286"
       style="fill:none;stroke:#000000;stroke-width:4.09115171;stroke-linecap:round;stroke-linejoin:round;stroke-miterlimit:4;stroke-dasharray:none;stroke-opacity:1"
       id="path3762"
       inkscape:connector-curvature="0" />
    <path
       d="m 509.84776,437.14888 c 0,0 -24.80302,5.21213 -23.98724,8.00638 0.81496,2.79426 11.34149,39.12369 13.1866,38.92731 1.84511,-0.19637 22.58316,-6.63012 24.15416,-7.98265"
       style="fill:none;stroke:#000000;stroke-width:4.09115171;stroke-linecap:round;stroke-linejoin:round;stroke-miterlimit:4;stroke-dasharray:none;stroke-opacity:1"
       id="path3766"
       inkscape:connector-curvature="0" />
    <path
       d="m 514.75714,456.19728 c 0,0 -20.22665,7.85501 -22.97591,7.65864"
       style="fill:none;stroke:#000000;stroke-width:4.09115171;stroke-linecap:round;stroke-linejoin:round;stroke-miterlimit:4;stroke-dasharray:none;stroke-opacity:1"
       id="path3770"
       inkscape:connector-curvature="0" />
  </g>
  <g
     id="g4898"
     transform="translate(-7.6923078,789.74359)">
    <g
       id="g4833"
       transform="matrix(5.2300208,5.1136156,-5.1136156,5.2300208,690.87376,-6122.7921)"
       style="stroke:#000000;stroke-width:1.36714399;stroke-miterlimit:4;stroke-dasharray:none">
      <path
         d="m 614.77501,688.93741 c 12.91467,-11.628 13.95733,-31.52533 2.32933,-44.44 -11.62933,-12.91467 -31.52533,-13.95733 -44.44,-2.328 -12.91466,11.628 -13.95733,31.524 -2.32933,44.43867 11.62933,12.91466 31.52533,13.95733 44.44,2.32933 z"
         style="fill:none;stroke:#000000;stroke-width:1.36714399;stroke-linecap:round;stroke-linejoin:miter;stroke-miterlimit:4;stroke-dasharray:none;stroke-opacity:1"
         id="path4829"
         inkscape:connector-curvature="0" />
      <path
         d="m 575.77395,691.42861 c -4.18533,11.856 -5.852,20.00667 -3.87867,20.92667 3.33734,1.556 15.81334,-18.136 27.86667,-43.98534 12.05333,-25.848 19.11867,-48.06266 15.78133,-49.61866 -1.96937,-0.91904 -7.12295,5.56711 -13.49539,16.3517"
         style="fill:none;stroke:#000000;stroke-width:1.36714399;stroke-linecap:round;stroke-linejoin:miter;stroke-miterlimit:4;stroke-dasharray:none;stroke-opacity:1"
         id="path4831"
         inkscape:connector-curvature="0"
         sodipodi:nodetypes="ccccc" />
    </g>
    <g
       id="g4843"
       style="stroke:#ffffff;stroke-width:12;stroke-miterlimit:4;stroke-dasharray:none;stroke-opacity:1">
      <path
         inkscape:connector-curvature="0"
         id="path4835"
         style="fill:none;stroke:#ffffff;stroke-width:12;stroke-linecap:round;stroke-linejoin:miter;stroke-miterlimit:4;stroke-dasharray:none;stroke-opacity:1"
         d="m 497.14882,338.23681 c 0,0 -12.07872,-7.91392 -19.55734,3.83259 -7.79201,12.23909 -6.49593,25.10167 2.02676,33.64399 5.28985,5.30214 17.01509,1.21262 20.08346,-8.41304 3.06836,-9.62566 4.8431,-26.05245 3.33838,-32.00917 -1.50473,-5.95672 -5.33732,8.84425 -4.51663,15.1209 1.01624,7.774 2.65925,25.8168 11.22694,20.45166 8.56768,-5.36513 11.61805,-43.41939 7.03596,-44.73347 -4.58209,-1.31407 -5.53369,30.33835 7.33134,35.28046 7.85501,3.01681 29.11018,-1.24207 29.11018,-23.76305 0,-22.52097 -6.58021,-22.34259 -7.77073,-16.29914 -1.19053,6.04345 10.08059,32.20718 12.04435,50.86283 1.96375,18.65565 2.94563,38.29318 -7.85501,48.11194 -10.80064,9.81876 -19.901,5.89126 -13.38707,-9.81876 6.51393,-15.71084 45.78899,-78.48302 44.80711,-90.29908" />
      <path
         inkscape:connector-curvature="0"
         id="path4837"
         style="fill:none;stroke:#ffffff;stroke-width:12;stroke-linecap:round;stroke-linejoin:miter;stroke-miterlimit:4;stroke-dasharray:none;stroke-opacity:1"
         d="m 212.33922,421.62838 c 0,0 -3.04627,31.4495 9.81876,36.39161 7.85501,3.01682 30.43817,0.85751 30.43817,-21.66346 0,-22.52098 -7.39598,-23.76878 -8.58651,-17.72615 -1.19134,6.04345 9.56839,31.5346 11.53214,50.19025 1.96375,18.65565 2.94563,38.29318 -7.85501,48.11194 -10.80064,9.81877 -19.90018,5.89126 -13.38707,-9.81876 6.51393,-15.71002 45.78899,-78.48302 44.80711,-90.29908 -0.98187,-11.81606 -6.84695,-11.42413 -10.59199,-5.9248 -4.5289,6.64975 -4.13615,17.84314 -1.19052,22.75253 2.94563,4.90938 11.99116,17.53303 23.56503,4.12388 11.57387,-13.40916 19.63753,-36.69518 17.67377,-42.58644 -1.96375,-5.89125 -10.80064,-0.98187 -8.83688,4.90939 1.96375,5.89125 27.2667,35.278 19.63752,52.03944 -8.30094,18.2359 -15.71002,22.16341 -21.60128,18.8283 -5.19985,-2.94317 -0.49093,-13.94183 3.92751,-19.81017 3.34083,-4.43808 41.23881,-58.54684 42.10204,-80.93362 0.64477,-16.70826 -4.59436,-18.45927 -6.75449,1.35335 -1.94739,17.8587 -6.19646,40.53023 -5.89126,46.4714 0.39275,7.63818 8.38113,11.68023 14.28221,3.82522 5.90108,-7.85501 18.11971,-27.7691 19.10159,-34.64223 0.98187,-6.87314 -6.0099,-12.49111 -10.91929,-6.59985 -4.90938,5.89126 -8.71824,18.36191 -3.80886,26.2791 4.90938,7.9172 16.12732,12.82658 26.71931,2.02594 10.59199,-10.80064 16.48325,-25.52878 13.53762,-33.38379 -2.94563,-7.85501 -10.80064,-5.89126 -10.80064,0 0,5.89125 7.85501,14.78951 15.71003,5.89125 7.85501,-8.89907 14.72814,-17.66968 14.72814,-20.6194 0,-2.95054 -9.20754,25.28741 -8.44414,33.71764 0.78551,8.67242 9.03327,9.45792 11.9789,5.53041 2.94562,-3.9275 9.42601,-19.20795 9.22963,-27.68727" />
      <path
         inkscape:connector-curvature="0"
         id="path4839"
         style="fill:none;stroke:#ffffff;stroke-width:12;stroke-linecap:round;stroke-linejoin:miter;stroke-miterlimit:4;stroke-dasharray:none;stroke-opacity:1"
         d="m 445.69851,353.35967 c 0,0 -4.90938,-9.0979 -16.29915,2.91617 -12.45592,13.13915 -5.51732,33.21524 1.1128,36.32616 3.142,1.47445 10.90455,4.15988 19.6498,-11.19339 5.48623,-9.63139 4.55181,-34.20203 5.09348,-45.16632 0.7855,-15.90967 -4.12388,-22.51442 -5.91171,-0.4222 -0.4263,5.27103 -2.34832,38.84957 8.66096,46.76677 11.00929,7.91719 12.96077,-12.33564 14.92452,-28.47442" />
      <path
         inkscape:connector-curvature="0"
         id="path4841"
         style="fill:none;stroke:#ffffff;stroke-width:12;stroke-linecap:round;stroke-linejoin:miter;stroke-miterlimit:4;stroke-dasharray:none;stroke-opacity:1"
         d="m 314.45436,386.40259 c 0,0 72.41175,-23.62722 112.79223,-41.72975" />
    </g>
    <g
       id="g4853"
       style="stroke:#000000;stroke-width:4;stroke-miterlimit:4;stroke-dasharray:none">
      <path
         d="m 497.14882,338.23681 c 0,0 -12.07872,-7.91392 -19.55734,3.83259 -7.79201,12.23909 -6.49593,25.10167 2.02676,33.64399 5.28985,5.30214 17.01509,1.21262 20.08346,-8.41304 3.06836,-9.62566 4.8431,-26.05245 3.33838,-32.00917 -1.50473,-5.95672 -5.33732,8.84425 -4.51663,15.1209 1.01624,7.774 2.65925,25.8168 11.22694,20.45166 8.56768,-5.36513 11.61805,-43.41939 7.03596,-44.73347 -4.58209,-1.31407 -5.53369,30.33835 7.33134,35.28046 7.85501,3.01681 29.11018,-1.24207 29.11018,-23.76305 0,-22.52097 -6.58021,-22.34259 -7.77073,-16.29914 -1.19053,6.04345 10.08059,32.20718 12.04435,50.86283 1.96375,18.65565 2.94563,38.29318 -7.85501,48.11194 -10.80064,9.81876 -19.901,5.89126 -13.38707,-9.81876 6.51393,-15.71084 45.78899,-78.48302 44.80711,-90.29908"
         style="fill:none;stroke:#000000;stroke-width:4;stroke-linecap:round;stroke-linejoin:miter;stroke-miterlimit:4;stroke-dasharray:none;stroke-opacity:1"
         id="path4845"
         inkscape:connector-curvature="0" />
      <path
         d="m 212.33922,421.62838 c 0,0 -3.04627,31.4495 9.81876,36.39161 7.85501,3.01682 30.43817,0.85751 30.43817,-21.66346 0,-22.52098 -7.39598,-23.76878 -8.58651,-17.72615 -1.19134,6.04345 9.56839,31.5346 11.53214,50.19025 1.96375,18.65565 2.94563,38.29318 -7.85501,48.11194 -10.80064,9.81877 -19.90018,5.89126 -13.38707,-9.81876 6.51393,-15.71002 45.78899,-78.48302 44.80711,-90.29908 -0.98187,-11.81606 -6.84695,-11.42413 -10.59199,-5.9248 -4.5289,6.64975 -4.13615,17.84314 -1.19052,22.75253 2.94563,4.90938 11.99116,17.53303 23.56503,4.12388 11.57387,-13.40916 19.63753,-36.69518 17.67377,-42.58644 -1.96375,-5.89125 -10.80064,-0.98187 -8.83688,4.90939 1.96375,5.89125 27.2667,35.278 19.63752,52.03944 -8.30094,18.2359 -15.71002,22.16341 -21.60128,18.8283 -5.19985,-2.94317 -0.49093,-13.94183 3.92751,-19.81017 3.34083,-4.43808 41.23881,-58.54684 42.10204,-80.93362 0.64477,-16.70826 -4.59436,-18.45927 -6.75449,1.35335 -1.94739,17.8587 -6.19646,40.53023 -5.89126,46.4714 0.39275,7.63818 8.38113,11.68023 14.28221,3.82522 5.90108,-7.85501 18.11971,-27.7691 19.10159,-34.64223 0.98187,-6.87314 -6.0099,-12.49111 -10.91929,-6.59985 -4.90938,5.89126 -8.71824,18.36191 -3.80886,26.2791 4.90938,7.9172 16.12732,12.82658 26.71931,2.02594 10.59199,-10.80064 16.48325,-25.52878 13.53762,-33.38379 -2.94563,-7.85501 -10.80064,-5.89126 -10.80064,0 0,5.89125 7.85501,14.78951 15.71003,5.89125 7.85501,-8.89907 14.72814,-17.66968 14.72814,-20.6194 0,-2.95054 -9.20754,25.28741 -8.44414,33.71764 0.78551,8.67242 9.03327,9.45792 11.9789,5.53041 2.94562,-3.9275 9.42601,-19.20795 9.22963,-27.68727"
         style="fill:none;stroke:#000000;stroke-width:4;stroke-linecap:round;stroke-linejoin:miter;stroke-miterlimit:4;stroke-dasharray:none;stroke-opacity:1"
         id="path4847"
         inkscape:connector-curvature="0" />
      <path
         d="m 445.69851,353.35967 c 0,0 -4.90938,-9.0979 -16.29915,2.91617 -12.45592,13.13915 -5.51732,33.21524 1.1128,36.32616 3.142,1.47445 10.90455,4.15988 19.6498,-11.19339 5.48623,-9.63139 4.55181,-34.20203 5.09348,-45.16632 0.7855,-15.90967 -4.12388,-22.51442 -5.91171,-0.4222 -0.4263,5.27103 -2.34832,38.84957 8.66096,46.76677 11.00929,7.91719 12.96077,-12.33564 14.92452,-28.47442"
         style="fill:none;stroke:#000000;stroke-width:4;stroke-linecap:round;stroke-linejoin:miter;stroke-miterlimit:4;stroke-dasharray:none;stroke-opacity:1"
         id="path4849"
         inkscape:connector-curvature="0" />
      <path
         d="m 314.45436,386.40259 c 0,0 72.41175,-23.62722 112.79223,-41.72975"
         style="fill:none;stroke:#000000;stroke-width:4;stroke-linecap:round;stroke-linejoin:miter;stroke-miterlimit:4;stroke-dasharray:none;stroke-opacity:1"
         id="path4851"
         inkscape:connector-curvature="0" />
    </g>
    <g
       id="g4873"
       transform="translate(14,-6)"
       style="stroke:#000000">
      <path
         d="m 288.53283,506.66573 c 0,0 8.24776,31.42004 13.74627,44.18444"
         style="fill:none;stroke:#000000;stroke-width:4.09115171;stroke-linecap:round;stroke-linejoin:round;stroke-miterlimit:4;stroke-dasharray:none;stroke-opacity:1"
         id="path4855"
         inkscape:connector-curvature="0" />
      <path
         d="m 315.04349,546.46805 c 0,0 -15.9064,-44.90775 -13.35352,-43.53313 2.55288,1.37463 36.13305,36.72218 37.3113,35.93668 1.17826,-0.7855 -12.47801,-42.67971 -13.21032,-44.18444"
         style="fill:none;stroke:#000000;stroke-width:4.09115171;stroke-linecap:round;stroke-linejoin:round;stroke-miterlimit:4;stroke-dasharray:none;stroke-opacity:1"
         id="path4857"
         inkscape:connector-curvature="0" />
      <path
         d="m 377.49082,491.15208 c 0,0 -2.94563,-11.58614 -13.54989,-7.06951 -8.59633,3.66158 -9.62239,9.03326 -7.85501,13.94264 1.76737,4.90939 10.60426,5.69489 14.72814,5.49851 4.12388,-0.19637 12.253,0.7855 13.88946,7.65864 1.63646,6.87313 -2.69607,11.38976 -7.60545,12.96077 -4.90938,1.571 -12.38964,2.76071 -17.4774,-7.46226"
         style="fill:none;stroke:#000000;stroke-width:4.09115171;stroke-linecap:round;stroke-linejoin:round;stroke-miterlimit:4;stroke-dasharray:none;stroke-opacity:1"
         id="path4859"
         inkscape:connector-curvature="0" />
      <path
         d="m 399.68123,519.03737 c 0,0 -16.02913,-40.45331 -13.80764,-41.63156 2.2215,-1.17825 17.93152,-10.30643 21.46628,-5.89126 3.74667,4.67946 10.60426,17.67705 2.94562,20.61941 0,0 -13.5908,6.29137 -17.39966,6.8764"
         style="fill:none;stroke:#000000;stroke-width:4.09115171;stroke-linecap:round;stroke-linejoin:round;stroke-miterlimit:4;stroke-dasharray:none;stroke-opacity:1"
         id="path4861"
         inkscape:connector-curvature="0" />
      <path
         d="m 425.79914,510.46596 c 0,0 -2.55288,-50.3408 0,-47.78792 2.55288,2.55288 28.47441,38.0968 29.06354,38.68593"
         style="fill:none;stroke:#000000;stroke-width:4.09115171;stroke-linecap:round;stroke-linejoin:round;stroke-miterlimit:4;stroke-dasharray:none;stroke-opacity:1"
         id="path4863"
         inkscape:connector-curvature="0" />
      <path
         d="m 425.79914,493.18174 c 0,0 13.69308,-4.08297 17.81697,-6.65712"
         style="fill:none;stroke:#000000;stroke-width:4.09115171;stroke-linecap:round;stroke-linejoin:round;stroke-miterlimit:4;stroke-dasharray:none;stroke-opacity:1"
         id="path4865"
         inkscape:connector-curvature="0" />
      <path
         d="m 478.03497,459.73977 c 0,0 -3.92751,-12.77176 -16.41779,-6.68412 -9.75985,4.75637 -11.88152,10.28352 -6.176,24.6811 5.70552,14.39758 12.55165,19.18095 21.02279,15.44491 12.56802,-5.54269 9.22964,-14.79688 8.24776,-17.54286"
         style="fill:none;stroke:#000000;stroke-width:4.09115171;stroke-linecap:round;stroke-linejoin:round;stroke-miterlimit:4;stroke-dasharray:none;stroke-opacity:1"
         id="path4867"
         inkscape:connector-curvature="0" />
      <path
         d="m 509.84776,437.14888 c 0,0 -24.80302,5.21213 -23.98724,8.00638 0.81496,2.79426 11.34149,39.12369 13.1866,38.92731 1.84511,-0.19637 22.58316,-6.63012 24.15416,-7.98265"
         style="fill:none;stroke:#000000;stroke-width:4.09115171;stroke-linecap:round;stroke-linejoin:round;stroke-miterlimit:4;stroke-dasharray:none;stroke-opacity:1"
         id="path4869"
         inkscape:connector-curvature="0" />
      <path
         d="m 514.75714,456.19728 c 0,0 -20.22665,7.85501 -22.97591,7.65864"
         style="fill:none;stroke:#000000;stroke-width:4.09115171;stroke-linecap:round;stroke-linejoin:round;stroke-miterlimit:4;stroke-dasharray:none;stroke-opacity:1"
         id="path4871"
         inkscape:connector-curvature="0" />
    </g>
  </g>
</svg>
