<?xml version="1.0" encoding="UTF-8" standalone="no"?>
<!-- Created with Inkscape (http://www.inkscape.org/) -->

<svg
   xmlns:dc="http://purl.org/dc/elements/1.1/"
   xmlns:cc="http://creativecommons.org/ns#"
   xmlns:rdf="http://www.w3.org/1999/02/22-rdf-syntax-ns#"
   xmlns:svg="http://www.w3.org/2000/svg"
   xmlns="http://www.w3.org/2000/svg"
   xmlns:sodipodi="http://sodipodi.sourceforge.net/DTD/sodipodi-0.dtd"
   xmlns:inkscape="http://www.inkscape.org/namespaces/inkscape"
   id="svg7908"
   version="1.1"
   inkscape:version="0.91+devel+osxmenu r12922"
   width="350.00003"
   height="350.00003"
   viewBox="0 0 350.00003 350.00003"
   sodipodi:docname="aro_valley_community_centre.svg">
  <metadata
     id="metadata7914">
    <rdf:RDF>
      <cc:Work
         rdf:about="">
        <dc:format>image/svg+xml</dc:format>
        <dc:type
           rdf:resource="http://purl.org/dc/dcmitype/StillImage" />
        <dc:title></dc:title>
      </cc:Work>
    </rdf:RDF>
  </metadata>
  <defs
     id="defs7912" />
  <sodipodi:namedview
     pagecolor="#ffffff"
     bordercolor="#666666"
     borderopacity="1"
     objecttolerance="10"
     gridtolerance="10"
     guidetolerance="10"
     inkscape:pageopacity="0"
     inkscape:pageshadow="2"
     inkscape:window-width="1920"
     inkscape:window-height="1155"
     id="namedview7910"
     inkscape:document-units="px"
     showgrid="false"
     inkscape:snap-smooth-nodes="true"
     inkscape:snap-global="true"
     fit-margin-top="0"
     fit-margin-left="0"
     fit-margin-right="0"
     fit-margin-bottom="0"
     inkscape:zoom="1.6139712"
     inkscape:cx="-57.883814"
     inkscape:cy="191.84051"
     inkscape:window-x="0"
     inkscape:window-y="23"
     inkscape:window-maximized="0"
     inkscape:current-layer="svg7908" />
  <g
     id="g8207"
     transform="matrix(0.99307283,0,0,0.99307283,15.741769,23.378048)"
     style="stroke-width:1.00697553">
    <g
       id="text7920"
       aria-label="ARO VALLEY"
       style="font-style:normal;font-weight:normal;font-size:40px;line-height:125%;font-family:sans-serif;letter-spacing:0.03px;word-spacing:0px;fill:#909247;fill-opacity:1;stroke:none;stroke-width:1.00697553px;stroke-linecap:butt;stroke-linejoin:miter;stroke-opacity:1"
       transform="rotate(180,158.38677,157.74345)">
      <path
         inkscape:connector-curvature="0"
         id="path7942"
         style="font-style:normal;font-variant:normal;font-weight:bold;font-stretch:normal;font-size:48px;font-family:Rockwell;-inkscape-font-specification:'Rockwell Bold';letter-spacing:0.03px;fill:#909247;fill-opacity:1;stroke-width:1.00697553px"
         d="m 298.42451,217.27091 -23.42785,-1.35069 -1.4416,3.78182 -5.37859,-2.05028 5.93461,-15.56849 5.37858,2.05029 -1.54572,4.05495 5.95522,0.53755 3.13149,-8.21495 -4.73786,-3.73109 -1.6098,4.22303 -5.37858,-2.05028 5.33393,-13.99272 5.37858,2.05029 -1.48965,3.90787 18.55843,14.12483 1.60979,-4.22303 5.37858,2.05029 -7.89679,20.71594 -5.37858,-2.05028 1.62581,-4.26505 z m 1.23319,-7.08571 -8.4784,-6.48042 -2.09833,5.50464 10.57673,0.97578 z" />
      <path
         inkscape:connector-curvature="0"
         id="path7944"
         style="letter-spacing:-4px;fill:#909247;fill-opacity:1;stroke-width:1.00697553px"
         d="m 266.40353,259.89248 q -2.42705,-1.90072 -3.18498,-4.33859 -0.77171,-2.42026 -0.005,-5.53682 l -11.34911,-1.99314 -2.68579,3.42951 -4.50234,-3.52597 6.32194,-8.07254 16.27292,3.09693 2.36901,-3.02501 -7.08766,-5.55063 -2.60315,3.32399 -4.50234,-3.52597 10.86713,-13.87634 4.50234,3.52597 -2.85108,3.64055 17.49932,13.70443 2.85107,-3.64056 4.50234,3.52596 -11.84503,15.12504 q -3.44332,4.39682 -7.24961,5.41665 -3.80246,1.05119 -7.31992,-1.70346 z m 5.34806,-7.44492 q 1.51251,1.1845 3.02629,0.80945 1.51378,-0.37505 2.82225,-2.04583 l 2.45164,-3.13054 -6.15554,-4.82065 -1.98335,2.53256 q -3.29182,4.20336 -0.16129,6.65501 z" />
      <path
         inkscape:connector-curvature="0"
         id="path7946"
         style="font-style:normal;font-variant:normal;font-weight:bold;font-stretch:normal;font-size:48px;font-family:Rockwell;-inkscape-font-specification:'Rockwell Bold';letter-spacing:0.03px;fill:#909247;fill-opacity:1;stroke-width:1.00697553px"
         d="m 255.60499,261.42548 q 2.90096,4.09855 3.2386,8.56077 0.33764,4.46222 -1.83412,8.6052 -2.17698,4.17355 -6.6156,7.3152 -4.43861,3.14166 -9.06273,3.78193 -4.62934,0.67085 -8.72025,-1.16167 -4.10881,-1.81985 -6.98444,-5.88262 -2.91363,-4.11644 -3.26394,-8.59656 -0.3682,-4.46746 1.82145,-8.62311 2.17176,-4.14298 6.57458,-7.25929 4.31333,-3.05298 8.97847,-3.74916 4.64723,-0.68351 8.80974,1.09833 4.14461,1.79452 7.05824,5.91098 z m -22.4362,15.93407 q 1.73551,2.45198 4.04921,3.82312 2.32635,1.38903 4.86272,1.36681 2.53113,0.008 4.80413,-1.60047 2.273,-1.60883 3.10662,-3.99876 0.84629,-2.37203 0.32759,-5.04053 -0.52392,-2.63793 -2.25944,-5.0899 -1.82418,-2.57727 -4.19378,-3.98943 -2.37482,-1.38159 -4.89328,-1.37205 -2.5058,0.0274 -4.70721,1.5856 -2.27299,1.60883 -3.14986,3.97563 -0.88208,2.39737 -0.33281,5.07109 0.56192,2.69163 2.38611,5.26889 z" />
      <path
         inkscape:connector-curvature="0"
         id="path7948"
         style="font-style:normal;font-variant:normal;font-weight:bold;font-stretch:normal;font-size:48px;font-family:Rockwell;-inkscape-font-specification:'Rockwell Bold';letter-spacing:0.03px;fill:#909247;fill-opacity:1;stroke-width:1.00697541px"
         d="m 190.28096,306.29836 -8.59424,-15.41087 -2.4963,17.46781 4.14804,-0.76933 1.03657,5.58894 -14.51814,2.69266 -1.03657,-5.58894 3.97339,-0.73694 4.37716,-29.24353 6.78969,-1.25928 14.9003,25.66818 3.92972,-0.72884 1.03657,5.58893 -16.76681,3.10973 -1.03658,-5.58895 4.2572,-0.78957 z" />
      <path
         inkscape:connector-curvature="0"
         id="path7950"
         style="font-style:normal;font-variant:normal;font-weight:bold;font-stretch:normal;font-size:48px;font-family:Rockwell;-inkscape-font-specification:'Rockwell Bold';letter-spacing:0.03px;fill:#909247;fill-opacity:1;stroke-width:1.00697553px"
         d="m 133.98387,306.67627 -3.91173,-22.22294 -3.85763,-0.51362 0.73047,-5.48641 15.88058,2.11437 -0.73047,5.48641 -4.13623,-0.55071 0.81257,5.69186 8.37964,1.11567 2.44497,-5.25814 -4.30769,-0.57352 0.73047,-5.48641 14.27324,1.90036 -0.73048,5.48641 -3.98621,-0.53073 -9.1185,20.48807 4.30769,0.57354 -0.73047,5.4864 -21.13125,-2.81344 0.73047,-5.48641 4.35056,0.57924 z m 6.90348,-0.41134 4.19151,-9.36603 -5.61499,-0.74759 1.42348,10.11362 z" />
      <path
         inkscape:connector-curvature="0"
         id="path7952"
         style="font-style:normal;font-variant:normal;font-weight:bold;font-stretch:normal;font-size:48px;font-family:Rockwell;-inkscape-font-specification:'Rockwell Bold';letter-spacing:0.03px;fill:#909247;fill-opacity:1;stroke-width:1.00697553px"
         d="m 98.194966,296.83608 9.118794,-20.29836 -9.078153,-4.07825 -4.26155,9.48616 -6.018106,-2.70357 6.607694,-14.70865 27.499685,12.35391 -2.34614,5.22249 -4.38608,-1.9704 -9.1188,20.29837 4.38607,1.97039 -2.34614,5.22249 -16.911898,-7.59747 2.346144,-5.22249 4.50848,2.02538 z" />
      <path
         inkscape:connector-curvature="0"
         id="path7954"
         style="font-style:normal;font-variant:normal;font-weight:bold;font-stretch:normal;font-size:48px;font-family:Rockwell;-inkscape-font-specification:'Rockwell Bold';letter-spacing:0.03px;fill:#909247;fill-opacity:1;stroke-width:1.00697553px"
         d="m 62.90182,275.01985 13.691353,-16.32437 -7.300848,-6.12326 -6.398471,7.62897 -4.839889,-4.05925 9.921071,-11.82901 22.115828,18.54868 -3.522599,4.20004 -3.527376,-2.95843 -13.691353,16.32437 3.527376,2.95843 -3.5226,4.20004 -13.600905,-11.40717 3.522599,-4.20003 3.625814,3.04099 z" />
      <path
         inkscape:connector-curvature="0"
         id="path7956"
         style="font-style:normal;font-variant:normal;font-weight:bold;font-stretch:normal;font-size:48px;font-family:Rockwell;-inkscape-font-specification:'Rockwell Bold';letter-spacing:0.03px;fill:#909247;fill-opacity:1;stroke-width:1.00697553px"
         d="m 33.648796,234.95214 -3.756913,2.52839 5.342808,7.93882 5.881863,-3.95847 -4.313144,-6.40886 4.3179,-2.90593 4.313144,6.40884 6.714845,-4.51908 -5.342808,-7.93881 -3.790912,2.55128 -3.306363,-4.91289 8.142812,-5.48009 15.204692,22.59248 -4.351899,2.92881 -2.082208,-3.09393 -16.914608,11.38351 2.082207,3.09392 -4.351898,2.92882 -15.204693,-22.59247 8.108812,-5.45722 3.306363,4.91288 z" />
      <path
         inkscape:connector-curvature="0"
         id="path7958"
         style="font-style:normal;font-variant:normal;font-weight:bold;font-stretch:normal;font-size:48px;font-family:Rockwell;-inkscape-font-specification:'Rockwell Bold';letter-spacing:0.03px;fill:#909247;fill-opacity:1;stroke-width:1.00697553px"
         d="m 15.335412,214.02913 5.952078,-7.35279 -9.354947,-1.86976 1.192916,3.23307 -5.3055641,1.9576 -5.0851854,-13.78203 5.3055642,-1.9576 1.4223225,3.85483 15.1968788,3.5994 8.414293,-3.10465 -1.613495,-4.37294 5.305565,-1.95761 6.232219,16.89076 -5.305565,1.95761 -1.628788,-4.4144 -8.414293,3.10464 -9.087009,12.95977 1.407028,3.81337 -5.305564,1.95761 -5.7504651,-15.58509 5.3055641,-1.95762 1.116447,3.02583 z" />
    </g>
    <g
       id="text7960"
       aria-label="COMMUNITY CENTRE"
       style="font-style:normal;font-weight:normal;font-size:40px;line-height:125%;font-family:sans-serif;letter-spacing:0px;word-spacing:0px;fill:#864146;fill-opacity:1;stroke:none;stroke-width:1.00697553px;stroke-linecap:butt;stroke-linejoin:miter;stroke-opacity:1">
      <path
         id="path7994"
         style="font-style:normal;font-variant:normal;font-weight:bold;font-stretch:normal;font-size:32px;font-family:Rockwell;-inkscape-font-specification:'Rockwell Bold';letter-spacing:4px;fill:#864146;fill-opacity:1;stroke-width:1.00697553px"
         d="m 34.645636,178.34862 1.806255,-0.15033 0.331753,3.98622 -8.252718,0.68683 -0.331754,-3.98622 q 4.322487,-2.13146 3.980366,-6.24225 -0.169764,-2.03983 -1.360786,-3.53996 -1.189727,-1.48457 -3.100992,-2.21921 -1.894397,-0.72036 -4.121074,-0.53505 -2.086536,0.17366 -3.761824,1.14407 -1.65842,0.98469 -2.577281,2.56635 -0.903289,1.58036 -0.7413,3.52676 0.19957,2.39796 1.996552,4.02013 1.813849,1.63645 4.573773,2.01824 l -1.810649,4.80736 q -8.377005,-1.9369 -9.124746,-10.92146 -0.321386,-3.86165 0.916835,-6.881 1.239517,-3.00378 3.83488,-4.78768 2.595363,-1.7839 6.239016,-2.08714 3.441228,-0.2864 6.330804,1.08805 2.889575,1.37446 4.681252,4.06325 1.808544,2.70306 2.100124,6.20657 0.353784,4.25093 -1.608486,7.23647 z"
         inkscape:connector-curvature="0" />
      <path
         id="path7996"
         style="font-style:normal;font-variant:normal;font-weight:bold;font-stretch:normal;font-size:32px;font-family:Rockwell;-inkscape-font-specification:'Rockwell Bold';letter-spacing:4px;fill:#864146;fill-opacity:1;stroke-width:1.00697553px"
         d="m 25.87605,187.86238 q 3.416642,-1.06279 6.514921,-0.30839 3.098279,0.7544 5.427297,3.13899 2.34858,2.39487 3.499553,6.09499 1.150974,3.70012 0.565983,6.97479 -0.56543,3.28495 -2.708655,5.65343 -2.138584,2.38341 -5.525387,3.43692 -3.431563,1.06743 -6.544761,0.31767 -3.108558,-0.73484 -5.442217,-3.13435 -2.329019,-2.38459 -3.47071,-6.05487 -1.118487,-3.59568 -0.562339,-6.91047 0.560789,-3.29987 2.68545,-5.72803 2.129302,-2.41324 5.560865,-3.48068 z m 5.854322,18.71511 q 2.044018,-0.63582 3.482989,-1.9016 1.45389,-1.27043 1.997702,-2.99412 0.563373,-1.71342 -0.02604,-3.60823 -0.58941,-1.89482 -2.025295,-2.98634 -1.420965,-1.09616 -3.343599,-1.33263 -1.903073,-0.2262 -3.94709,0.40962 -2.148457,0.66831 -3.627546,1.96294 -1.459528,1.3049 -2.007981,3.01368 -0.533534,1.70413 0.03731,3.53927 0.58941,1.89482 2.000096,3.01053 1.430248,1.126 3.36316,1.34292 1.947833,0.21227 4.096289,-0.45604 z"
         inkscape:connector-curvature="0" />
      <path
         id="path7998"
         style="font-style:normal;font-variant:normal;font-weight:bold;font-stretch:normal;font-size:32px;font-family:Rockwell;-inkscape-font-specification:'Rockwell Bold';letter-spacing:4px;fill:#864146;fill-opacity:1;stroke-width:1.00697553px"
         d="m 56.176265,228.19815 6.42103,10.17454 -3.382706,2.13479 -1.626105,-2.57667 -13.147626,8.2973 1.626105,2.57667 -3.382705,2.13479 -6.33764,-10.04241 3.382706,-2.13478 1.517698,2.40489 13.147625,-8.29731 -0.291865,-0.46248 -20.424644,4.2613 -1.342579,-2.12741 12.585985,-16.68216 -0.291865,-0.46248 -13.147626,8.2973 1.617766,2.56346 -3.382706,2.13478 -5.311942,-8.41712 3.382706,-2.13478 1.642782,2.60309 13.147626,-8.2973 -1.642783,-2.6031 3.382706,-2.13478 6.320962,10.01598 -8.902609,11.71551 14.439704,-2.94162 z"
         inkscape:connector-curvature="0" />
      <path
         id="path8000"
         style="font-style:normal;font-variant:normal;font-weight:bold;font-stretch:normal;font-size:32px;font-family:Rockwell;-inkscape-font-specification:'Rockwell Bold';letter-spacing:4px;fill:#864146;fill-opacity:1;stroke-width:1.00697553px"
         d="m 78.925867,252.79487 8.966509,8.02202 -2.667059,2.98107 -2.270739,-2.03155 -10.366107,11.58659 2.270739,2.03155 -2.667059,2.98108 -8.850061,-7.91784 2.667059,-2.98107 2.119357,1.89611 10.366107,-11.58659 -0.407569,-0.36464 -18.471295,9.70237 -1.874816,-1.67733 7.525168,-19.49547 -0.407569,-0.36464 -10.366107,11.58659 2.259094,2.02113 -2.667058,2.98108 -7.417749,-6.6364 2.667059,-2.98107 2.294029,2.05239 10.366107,-11.5866 -2.294029,-2.05238 2.667059,-2.98108 8.826771,7.897 -5.346061,13.70873 13.07822,-6.79105 z"
         inkscape:connector-curvature="0" />
      <path
         id="path8002"
         style="font-style:normal;font-variant:normal;font-weight:bold;font-stretch:normal;font-size:32px;font-family:Rockwell;-inkscape-font-specification:'Rockwell Bold';letter-spacing:4px;fill:#864146;fill-opacity:1;stroke-width:1.00697553px"
         d="m 94.517271,268.34947 -5.351758,9.61034 q -0.950241,1.70639 -1.153198,2.8095 -0.181704,1.09707 0.193991,1.77128 0.383296,0.66055 1.311567,1.17749 1.41971,0.7906 2.642,0.20147 1.243543,-0.59518 2.61189,-3.05237 l 5.260537,-9.44653 -1.993057,-1.10988 1.946094,-3.49467 8.217933,4.57636 -1.94609,3.49467 -2.5118,-1.39876 -5.807869,10.42941 q -2.006909,3.60388 -4.564869,4.34343 -2.536707,0.73349 -6.345352,-1.38745 -2.71656,-1.51278 -3.938133,-3.14091 -1.207922,-1.62054 -1.035791,-3.76023 0.185782,-2.13209 1.8354,-5.09437 l 5.290943,-9.50113 -2.429888,-1.35315 1.946094,-3.49467 9.815108,5.46579 -1.946094,3.49467 -2.047658,-1.14029 z"
         inkscape:connector-curvature="0" />
      <path
         id="path8004"
         style="font-style:normal;font-variant:normal;font-weight:bold;font-stretch:normal;font-size:32px;font-family:Rockwell;-inkscape-font-specification:'Rockwell Bold';letter-spacing:4px;fill:#864146;fill-opacity:1;stroke-width:1.00697553px"
         d="m 125.47109,281.54729 -2.87994,-0.94574 1.24798,-3.80033 9.99073,3.28082 -1.24798,3.80034 -3.11747,-1.02374 -6.14727,18.71962 -4.95825,-1.62822 -4.22882,-19.77523 -4.15343,12.64799 2.80572,0.92136 -1.24798,3.80034 -9.79774,-3.21745 1.24798,-3.80034 3.01354,0.98961 4.85055,-14.77083 -3.01355,-0.98961 1.24798,-3.80033 9.39693,3.08582 3.64683,16.68963 3.34419,-10.18371 z"
         inkscape:connector-curvature="0" />
      <path
         id="path8006"
         style="font-style:normal;font-variant:normal;font-weight:bold;font-stretch:normal;font-size:32px;font-family:Rockwell;-inkscape-font-specification:'Rockwell Bold';letter-spacing:4px;fill:#864146;fill-opacity:1;stroke-width:1.00697553px"
         d="m 143.96079,285.2181 -2.32153,15.37257 3.58436,0.5413 -0.5973,3.95516 -13.16324,-1.98788 0.59729,-3.95516 3.50711,0.52964 2.32153,-15.37257 -3.50711,-0.52964 0.5973,-3.95515 13.16324,1.98788 -0.5973,3.95516 -3.58435,-0.54131 z"
         inkscape:connector-curvature="0" />
      <path
         id="path8008"
         style="font-style:normal;font-variant:normal;font-weight:bold;font-stretch:normal;font-size:32px;font-family:Rockwell;-inkscape-font-specification:'Rockwell Bold';letter-spacing:4px;fill:#864146;fill-opacity:1;stroke-width:1.00697553px"
         d="m 167.20021,291.4276 -0.0969,-5.46789 -3.65568,0.0648 0.27537,15.54444 3.51507,-0.0623 0.0709,3.99937 -13.20106,0.23386 -0.0708,-3.99937 3.57756,-0.0634 -0.27536,-15.54444 -3.57757,0.0634 0.0969,5.46789 -3.99937,0.0708 -0.16771,-9.46727 21.30916,-0.37748 0.16771,9.46726 -3.96813,0.0703 z"
         inkscape:connector-curvature="0" />
      <path
         id="path8010"
         style="font-style:normal;font-variant:normal;font-weight:bold;font-stretch:normal;font-size:32px;font-family:Rockwell;-inkscape-font-specification:'Rockwell Bold';letter-spacing:4px;fill:#864146;fill-opacity:1;stroke-width:1.00697553px"
         d="m 181.52965,283.79612 4.57955,4.87847 2.21052,-6.3754 -2.38034,0.52477 -0.86116,-3.9062 10.14697,-2.237 0.86116,3.9062 -2.8381,0.62569 -3.98477,10.3026 1.36574,6.19499 3.21957,-0.70979 0.86116,3.9062 -12.43576,2.74158 -0.86116,-3.9062 3.25008,-0.71651 -1.36574,-6.19499 -8.20685,-7.61484 -2.80758,0.61896 -0.86116,-3.9062 11.47446,-2.52966 0.86116,3.9062 -2.22775,0.49113 z"
         inkscape:connector-curvature="0" />
      <path
         id="path8012"
         style="font-style:normal;font-variant:normal;font-weight:bold;font-stretch:normal;font-size:32px;font-family:Rockwell;-inkscape-font-specification:'Rockwell Bold';letter-spacing:4px;fill:#864146;fill-opacity:1;stroke-width:1.00697553px"
         d="m 224.35925,264.77874 -0.86045,-1.59523 3.52051,-1.89894 3.93141,7.28856 -3.52052,1.89894 q -3.68287,-3.10862 -7.3134,-1.15033 -1.80151,0.97172 -2.69981,2.66347 -0.88454,1.68433 -0.79312,3.72988 0.0978,2.02438 1.15851,3.99091 0.99397,1.84277 2.55362,2.98986 1.56598,1.12591 3.38316,1.33519 1.80976,0.19553 3.52876,-0.73169 2.11781,-1.14233 2.88551,-3.43825 0.77403,-2.31709 0.0197,-4.99923 l 5.13025,-0.26404 q 1.57656,8.45224 -6.35835,12.73228 -3.4105,1.8396 -6.67306,1.91286 -3.2488,0.0658 -5.92211,-1.59899 -2.67331,-1.66482 -4.40906,-4.88279 -1.63932,-3.0392 -1.5358,-6.23733 0.10351,-3.19813 1.85085,-5.91595 1.75367,-2.73898 4.84787,-4.40797 3.7543,-2.02504 7.27556,-1.42121 z"
         inkscape:connector-curvature="0" />
      <path
         id="path8014"
         style="font-style:normal;font-variant:normal;font-weight:bold;font-stretch:normal;font-size:32px;font-family:Rockwell;-inkscape-font-specification:'Rockwell Bold';letter-spacing:4px;fill:#864146;fill-opacity:1;stroke-width:1.00697553px"
         d="m 246.49761,255.20858 -2.18356,-2.67509 -5.6528,4.61414 3.41861,4.18815 4.56339,-3.7249 2.50962,3.07454 -4.5634,3.7249 3.90275,4.78128 5.6528,-4.61414 -2.20332,-2.6993 3.4982,-2.85543 4.73269,5.79806 -16.08687,13.13102 -2.52938,-3.09876 2.20302,-1.79822 -9.83097,-12.04398 -2.20302,1.79823 -2.52937,-3.09875 16.08687,-13.13102 4.71294,5.77385 -3.4982,2.85542 z"
         inkscape:connector-curvature="0" />
      <path
         id="path8016"
         style="font-style:normal;font-variant:normal;font-weight:bold;font-stretch:normal;font-size:32px;font-family:Rockwell;-inkscape-font-specification:'Rockwell Bold';letter-spacing:4px;fill:#864146;fill-opacity:1;stroke-width:1.00697553px"
         d="m 261.4145,233.89393 -1.92285,2.34332 -3.09221,-2.53736 6.67048,-8.12915 3.09222,2.53737 -2.08143,2.53658 15.23158,12.49849 -3.31047,4.03437 -19.96662,-3.20565 10.29127,8.44466 1.87329,-2.28292 3.09222,2.53736 -6.54164,7.97211 -3.09221,-2.53736 2.01204,-2.45203 -12.01857,-9.86201 -2.01205,2.45203 -3.09221,-2.53736 6.27402,-7.64599 16.87931,2.63288 -8.28617,-6.79934 z"
         inkscape:connector-curvature="0" />
      <path
         id="path8018"
         style="font-style:normal;font-variant:normal;font-weight:bold;font-stretch:normal;font-size:32px;font-family:Rockwell;-inkscape-font-specification:'Rockwell Bold';letter-spacing:4px;fill:#864146;fill-opacity:1;stroke-width:1.00697553px"
         d="m 279.65113,213.78609 -4.85534,-2.51651 -1.68247,3.24614 13.80305,7.1541 1.61776,-3.12129 3.55134,1.84065 -6.07559,11.72219 -3.55134,-1.84065 1.64652,-3.17679 -13.80305,-7.15409 -1.64652,3.17678 4.85534,2.51652 -1.84065,3.55133 -8.40668,-4.35716 9.80722,-18.92198 8.40668,4.35717 -1.82627,3.52359 z"
         inkscape:connector-curvature="0" />
      <path
         id="path8020"
         style="font-style:normal;font-variant:normal;font-weight:bold;font-stretch:normal;font-size:32px;font-family:Rockwell;-inkscape-font-specification:'Rockwell Bold';letter-spacing:4px;fill:#864146;fill-opacity:1;stroke-width:1.00697553px"
         d="m 285.69608,185.64406 q 2.07529,0.58533 3.21319,1.96151 1.14215,1.36115 1.47378,3.58142 l 7.8731,-1.72444 0.82709,-2.93247 3.8498,1.08582 -1.94683,6.90258 -11.35234,2.31789 -0.72954,2.58659 6.06044,1.70931 0.80164,-2.84223 3.8498,1.08581 -3.34652,11.86522 -3.8498,-1.08581 0.87798,-3.11293 -14.96311,-4.22027 -0.87799,3.11293 -3.8498,-1.08582 3.64767,-12.93294 q 1.06036,-3.75957 3.25247,-5.43038 2.18131,-1.69008 5.18897,-0.84179 z m -1.48335,6.23781 q -1.29329,-0.36476 -2.17322,0.27996 -0.87993,0.64472 -1.28287,2.07336 l -0.75498,2.67682 5.2634,1.48451 0.61078,-2.16551 q 1.01371,-3.59416 -1.66311,-4.34914 z"
         inkscape:connector-curvature="0" />
      <path
         id="path8022"
         style="font-style:normal;font-variant:normal;font-weight:bold;font-stretch:normal;font-size:32px;font-family:Rockwell;-inkscape-font-specification:'Rockwell Bold';letter-spacing:4px;fill:#864146;fill-opacity:1;stroke-width:1.00697553px"
         d="m 288.88668,164.94585 -3.44146,-0.28362 -0.59931,7.27222 5.38798,0.44403 0.48382,-5.87072 3.95534,0.32596 -0.48382,5.87073 6.15103,0.50691 0.59931,-7.27222 -3.4726,-0.28618 0.37088,-4.50037 7.45909,0.61471 -1.70554,20.69547 -3.98649,-0.32853 0.23357,-2.83414 -15.49435,-1.27691 -0.23357,2.83414 -3.98648,-0.32853 1.70554,-20.69547 7.42794,0.61215 -0.37088,4.50037 z"
         inkscape:connector-curvature="0" />
    </g>
    <path
       sodipodi:nodetypes="scccssssssscccssssssscscccsssssscccssssssscsccsssscccccssscccsccccccssssscssscccssssssscsssccscccsccccccssssssccccsssccsscccscccccssssssssscssscccccscccsssccccsssscscccscccssssssssssssssccsssccccsssscccsssccscssssscccscscssscccssssssssssscccsscccssssssssssssssssssccsssscsssssssssssssssssssssssssssssssssssssssssscsssscsssssssssccccccccccssssssssssccsscccsssscssssscsssscsscsssssscssssssssssssssssssccssccssscscsscsssccssscssssscssssssssccsssscssssssssssssscsssscssssscsssssssscssssscccsssssssssscssssssssssssssssssccccccscssssssssssssssssscscssssssssscssscsccssssssssscccsscsssssscsscssssssssscssscsscssc"
       inkscape:connector-curvature="0"
       id="path8030"
       d="m 146.02539,53.056641 c -0.99755,0.04896 -2.45803,1.862833 -4.20898,5.261718 L 139.66211,62.5 138.80273,59.25 c -1.07976,-4.081248 -3.28474,-4.408068 -2.47656,-0.367188 0.81418,4.070915 -0.33753,4.627649 -2.43555,1.177735 C 132.32271,57.4823 128,54.0839 128,55.429688 c 0,0.275249 1.3445,2.620908 2.98828,5.21289 3.38868,5.343394 3.24388,6.393342 -0.54297,3.91211 -3.66615,-2.402157 -4.32344,-1.08074 -1.12304,2.259765 C 132.62879,70.265718 132.67038,71 129.55859,71 c -4.05834,0 -3.87608,1.836368 0.29297,2.958984 l 3.91016,1.054688 -3.4336,6.466797 c -1.88874,3.55693 -3.82683,6.709318 -4.30664,7.005859 -0.47982,0.296541 -1.57639,-1.828087 -2.4375,-4.722656 -0.86112,-2.894569 -1.97154,-5.885655 -2.46679,-6.646484 -0.58215,-0.894352 -0.25296,-2.830677 0.93164,-5.476563 2.00087,-4.469091 1.83556,-5.619576 -0.52539,-3.660156 -1.68563,1.398942 -2.00375,0.326154 -0.57422,-1.933594 1.18961,-1.880489 0.10127,-3.691321 -1.14453,-1.904297 -0.65373,0.937722 -0.82367,0.353647 -0.54883,-1.892578 0.21874,-1.7875 0.25634,-3.25 0.084,-3.25 -0.17237,0 -1.07866,1.6875 -2.01367,3.75 l -1.69922,3.75 -0.39062,-3 C 114.75427,59.795033 113,57.67779 113,60.800781 c 0,2.654781 -0.81284,2.7919 -2.6543,0.449219 -1.2273,-1.561358 -1.30431,-1.426613 -0.71093,1.25 0.63461,2.862602 0.57835,2.927058 -1.23438,1.402344 -4.54474,-3.822642 -6.1407,-3.147059 -2.30078,0.974609 2.44536,2.624787 1.95879,3.758403 -0.94727,2.203125 -4.03092,-2.15728 -4.54945,-1.005688 -0.65234,1.449219 l 4,2.519531 -5,-0.52539 c -4.912944,-0.517433 -4.942358,-0.504301 -1.69141,0.75 3.45337,1.332391 3.3463,2.672334 -0.22461,2.802734 -1.45943,0.0533 -1.03944,0.453141 1.40625,1.335937 2.37251,0.856377 3.01338,1.448304 2,1.845703 -0.82016,0.321636 0.19727,0.620643 2.25977,0.664063 3.39425,0.07146 4.92047,1.256053 3,2.330078 -0.4125,0.230689 -0.075,0.237047 0.75,0.01367 4.76577,-1.290367 6.71112,-1.315489 7.70312,-0.101563 C 120.48601,82.345726 123,92.033646 123,96.724609 l 0,4.361331 -3.43164,-2.738284 c -2.70056,-2.154829 -3.23271,-3.107465 -2.5,-4.476562 1.27203,-2.376804 1.17089,-2.899948 -0.44141,-2.28125 -1.01951,0.391228 -1.25669,-0.195264 -0.92187,-2.28125 0.35103,-2.18703 0.21657,-2.476866 -0.61133,-1.308594 -0.83805,1.1826 -1.08376,0.759399 -1.16016,-2 l -0.0977,-3.5 -1.47071,3.375 -1.47265,3.373047 -2.25977,-2.123047 c -2.88833,-2.713447 -5.70445,-2.968007 -3.28711,-0.296875 2.39319,2.644442 2.06408,3.185624 -1.5957,2.623047 -2.98818,-0.459341 -3.06874,-0.404815 -1,0.677734 3.26358,1.707796 2.79277,2.513418 -2,3.421875 l -4.25,0.804688 4.5,0.671875 c 2.475,0.369621 3.825,0.741895 3,0.828125 -0.825,0.08623 -2.85,1.057574 -4.5,2.158203 l -3,2.001948 3.5,-0.628901 c 3.38961,-0.609579 3.43692,-0.577337 1.5,1.072261 l -2,1.70508 2,-0.68554 c 1.1,-0.37639 3.88283,-1.39795 6.18359,-2.271489 5.15487,-1.957145 8.3641,-0.81559 11.31446,4.023439 2.81785,4.62169 2.55413,5.12224 -2.24805,4.27148 -7.93931,-1.40654 -7.6595,-1.56814 -12.44922,7.24805 -5.046605,9.28903 -4.488692,9.05434 -15.947264,6.6875 -4.159343,-0.85913 -7.681771,-1.42163 -7.826172,-1.25 C 79.780904,121.07473 65,149.77766 65,150.33984 65,150.70275 65.862952,151 66.917969,151 71.630257,151 72,151.74485 72,161.23828 l 0,9.02344 c -4.394674,1.95658 -3.954839,3.94323 0.06139,5.60331 L 75,176.07227 75,162.53516 C 75,149.6659 74.901497,149 73,149 c -1.1,0 -1.993031,-0.5625 -1.984375,-1.25 0.01952,-1.55 9.398498,-19.86471 10.287109,-20.08789 C 82.065625,127.47051 97,148.95309 97,150.24219 c 0,0.48547 -1.0125,0.74238 -2.25,0.57031 -2.229597,-0.31002 -2.252203,-0.18555 -2.537109,13.6875 -0.158133,7.7 -0.04872,14.96943 0.24414,16.1543 0.365538,1.4787 2.002338,2.65472 5.216797,3.75 2.575712,0.87763 4.835692,1.5957 5.023442,1.5957 0.18779,0 0.22049,-9.7875 0.0723,-21.75 L 102.5,142.5 l -3,-0.32617 c -1.65,-0.17982 -3.38156,-0.69717 -3.847656,-1.14844 -0.466096,-0.45128 2.683086,-7.16228 6.998046,-14.91406 l 7.8457,-14.09375 7.64453,15.24023 c 4.20446,8.38287 7.45005,15.5645 7.2129,15.95899 -0.23715,0.39448 -1.76391,0.45073 -3.39258,0.125 L 119,142.75 l 0,25.375 0,25.375 7.43945,4.14258 c 4.09169,2.27889 7.69193,3.89204 8,3.58398 C 134.74751,200.9185 135,195.55554 135,189.30859 135,178.11344 134.96414,177.93686 132.5,177 c -2.09512,-0.79656 -2.5,-1.60167 -2.5,-4.97461 0,-3.6264 0.24744,-4.02539 2.5,-4.02539 3.10455,0 3.51273,-3.50121 0.5,-4.28906 -2.93964,-0.76873 -2.92004,-8.658 0.0234,-9.42774 1.94336,-0.5082 2.01277,-1.18853 1.75,-17.15625 L 134.5,120.5 l -3.33008,-0.32031 c -2.07539,-0.19901 -3.15809,-0.76697 -2.87304,-1.50977 C 128.95964,116.9428 143.98844,94 144.45703,94 c 0.21701,0 3.77929,5.516935 7.91602,12.25977 4.52806,7.38066 7.37331,13.05176 7.15039,14.25 -0.20365,1.09468 -0.40517,7.22148 -0.44727,13.61523 L 159,145.75 l -3.04688,0.60938 c -3.64612,0.72923 -9.13003,4.73783 -11.5664,8.45312 -0.96952,1.47846 -2.30846,5.02945 -2.97461,7.89258 l -1.21094,5.20703 4.14844,1.51562 c 2.28223,0.83418 10.45039,3.29347 18.15039,5.46485 7.7,2.17138 16.475,4.77101 19.5,5.77734 l 5.5,1.83008 0.26758,25.30664 0.26758,25.30859 7.61132,3.61524 c 4.18636,1.98809 9.91579,4.18161 12.73243,4.875 9.82495,2.41864 9.16555,3.9991 8.81054,-21.10547 -0.32913,-23.27479 -1.52211,-31.21409 -5.0625,-33.70312 -1.75398,-1.23313 -1.7103,-1.42937 0.89844,-3.9961 3.25075,-3.19839 3.97461,-2.76808 3.97461,2.36524 0,5.2977 1.62572,4.81696 2.45703,-0.72657 0.51649,-3.44424 1.07803,-4.484 2.29297,-4.25 2.2828,0.43968 10.5869,13.07598 13.80664,21.00782 4.93437,12.1558 2.33635,23.82829 -7.89453,35.45117 -2.14917,2.44159 -3.68774,4.65994 -3.41797,4.92968 0.74379,0.74378 10.24727,-7.05016 12.50781,-10.25781 6.67113,-9.46615 8.75065,-19.43328 5.88282,-28.20117 -2.13063,-6.51401 -2.06189,-8.30532 0.44335,-11.49023 4.79335,-6.09374 8.34702,-5.43559 7.40235,1.37109 l -0.48438,3.5 1.9375,-3.98438 1.9375,-3.98437 1.07813,2.83398 c 0.59267,1.55885 1.79618,3.80176 2.67383,4.98438 1.51921,2.04712 1.56589,1.92147 1,-2.63281 l -0.59375,-4.78321 4.48437,2.62696 c 5.34123,3.13016 5.9052,2.07125 0.98633,-1.85352 -1.92498,-1.53595 -3.5,-3.22345 -3.5,-3.75 0,-0.52655 1.9125,-0.97459 4.25,-0.99609 l 4.25,-0.0391 -3.5,-1.61719 -3.5,-1.61524 5,-1.21093 c 3.72078,-0.90124 4.54906,-1.40319 3.23438,-1.95899 -0.97168,-0.4108 -2.88417,-0.53258 -4.25,-0.27148 -3.06001,0.58496 -3.17841,-0.88115 -0.31446,-3.92969 3.11264,-3.31325 1.35519,-4.19559 -1.98437,-0.99609 -3.50552,3.3585 -4.40662,3.39172 -3.16016,0.11328 1.24323,-3.26952 1.24467,-5.43555 0.004,-5.43555 -0.53427,0 -1.36823,1.4625 -1.85352,3.25 l -0.88281,3.25 -1.18555,-4.25 c -0.65163,-2.3375 -1.61768,-4.25 -2.14648,-4.25 -0.5288,0 -0.96285,1.9125 -0.96485,4.25 l -0.004,4.25 -1.91407,-3.14062 c -2.93977,-4.82115 -4.19467,-4.9422 -2.5371,-0.24415 1.7105,4.84808 1.45624,5.48885 -1.54102,3.88477 -3.14195,-1.68152 -3.38291,-0.70812 -0.49609,2.00391 3.52539,3.31193 3.1162,5.5345 -1.6543,8.99023 -6.50551,4.71258 -7.2442,4.25719 -6.54883,-4.03711 0.59309,-7.07441 2.57483,-11.7252 6.52149,-15.29687 1.83941,-1.66465 5.17773,-1.37618 5.17773,0.44726 0,0.49115 0.45,0.89258 1,0.89258 0.55,0 1,-1.125 1,-2.5 0,-2.33722 0.32897,-2.5 5.05859,-2.5 3.11803,0 4.82232,-0.38367 4.44141,-1 -0.33992,-0.55 -1.71605,-1 -3.05859,-1 -3.42742,0 -3.04585,-1.70833 0.55859,-2.5 3.72168,-0.81742 3.94136,-2.5 0.32617,-2.5 l -2.67383,0 2.17383,-2.31445 c 2.95451,-3.14493 2.7384,-3.70777 -1.00976,-2.63282 -4.05028,1.16161 -4.30566,0.83859 -1.83008,-2.30859 2.74127,-3.48497 2.62693,-5.28714 -0.20899,-3.30078 -3.12373,2.18794 -3.48066,1.9893 -3.05078,-1.69336 l 0.37891,-3.25 -3.05274,3.46289 -3.05273,3.46094 0,-5.27149 c 0,-6.17875 -1.20868,-6.04779 -2.99219,0.32227 -0.69692,2.48917 -1.52306,4.52539 -1.83398,4.52539 -0.31093,0 -1.82252,-1.20532 -3.35938,-2.67773 -3.68538,-3.53081 -4.61613,-2.35619 -1.77539,2.24023 l 2.26758,3.66992 -2.35352,-0.74804 c -2.33469,-0.741 -2.34055,-0.72456 -0.63085,1.88476 1.7048,2.60187 1.69612,2.63086 -0.79883,2.63086 -3.25121,0 -3.26687,1.59612 -0.0234,2.41016 3.70058,0.92879 3.04469,2.34927 -1.75,3.78906 l -4.25,1.27539 5,0.32227 c 2.75,0.17727 5.35319,0.67119 5.78516,1.09765 0.43196,0.42647 -0.5641,3.63253 -2.21485,7.12305 -1.65076,3.49052 -3.29424,8.28905 -3.65039,10.66406 C 234.06371,183.05703 233.2253,185 232.55469,185 231.4269,185 225,177.81889 225,176.55859 225,176.25134 226.32387,176 227.94141,176 c 4.1464,0 4.74862,-1.76493 0.93945,-2.75195 l -3.19141,-0.82617 3.25977,-3.71094 c 3.60222,-4.10269 3.41524,-4.4674 -1.0918,-2.13672 -1.6738,0.86555 -3.22178,1.39541 -3.43945,1.17773 -0.21768,-0.21767 0.97258,-2.55306 2.64453,-5.18945 1.67195,-2.63639 2.84026,-4.99371 2.5957,-5.23828 -0.24457,-0.24456 -2.00069,1.15716 -3.90234,3.11523 -1.90166,1.95807 -3.6719,3.56055 -3.93359,3.56055 -0.2617,0 -0.27733,-1.35 -0.0352,-3 0.59825,-4.07615 -1.49884,-3.87372 -2.58984,0.25 l -0.85938,3.25 -2.1543,-4.18164 c -2.15502,-4.18324 -3.87055,-5.96537 -4.82421,-5.01172 -0.27897,0.27897 0.22799,1.92957 1.12695,3.66797 2.45138,4.74044 1.31367,5.76363 -1.82813,1.64453 -3.11364,-4.08219 -5.79364,-5.00132 -3.24609,-1.11328 0.90316,1.3784 2.09353,3.69137 2.64453,5.14062 0.98847,2.59987 0.9712,2.6144 -1.27734,0.98829 -1.2534,-0.90644 -3.30588,-2.38165 -4.56055,-3.27735 -3.62615,-2.58871 -3.88951,-0.64479 -0.40039,2.95508 1.74991,1.80544 3.18164,3.55665 3.18164,3.89062 0,0.33396 -1.8,0.36541 -4,0.0703 -2.2,-0.2951 -4,-0.26004 -4,0.0781 0,0.33815 2.3625,1.81856 5.25,3.29102 l 5.25,2.67773 -5.32422,1.21289 c -8.65434,1.97198 -8.77045,3.4668 -0.26953,3.4668 6.60414,0 7.22992,0.16833 6.49023,1.75 -0.45013,0.9625 -0.97951,5.37967 -1.17578,9.81641 l -0.35742,8.0664 -2.93164,-0.42969 C 203.01482,198.77503 203,198.73823 203,191.88672 203,185.66689 202.80638,185 201,185 c -1.77778,0 -2,0.66667 -2,6 0,3.3 -0.19636,6 -0.43555,6 -0.2392,0 -1.5892,-0.43822 -3,-0.97461 C 193.20398,195.12794 193,194.56956 193,189.04297 c 0,-5.57209 -0.1805,-6.05065 -2.5,-6.63281 -2.23866,-0.56186 -2.5,-1.13593 -2.5,-5.49805 0,-5.87091 2.36747,-12.39278 5.90039,-16.25586 3.37609,-3.69158 10.98815,-7.54202 16.36719,-8.2793 4.16189,-0.57045 4.28431,-0.50441 5.55859,3.01953 1.53126,4.23463 2.78413,4.55224 4.35547,1.10352 1.35758,-2.97955 2.81836,-3.26883 2.81836,-0.55859 0,3.55139 1.80866,3.12713 5.4082,-1.26563 3.2098,-3.91714 3.54076,-4.87959 3.34375,-9.75 -0.26184,-6.47346 1.34252,-7.39989 6.00977,-3.47266 1.66524,1.4012 3.24586,2.54688 3.51367,2.54688 C 242.48867,144 244,134.33475 244,126.57422 l 0,-8.54102 -4.86328,-2.46484 c -4.57039,-2.31598 -4.89641,-2.74134 -5.38281,-7.05664 -0.28471,-2.52594 -1.30193,-5.45917 -2.25977,-6.51758 -1.07141,-1.18389 -1.55633,-2.888542 -1.26172,-4.429687 0.38073,-1.991679 -0.20668,-2.972463 -2.86914,-4.785156 -1.84182,-1.253977 -3.35342,-2.566679 -3.35742,-2.917969 -0.004,-0.35129 -1.69336,-0.954417 -3.75586,-1.339844 -2.0625,-0.385427 -4.30957,-1.162819 -4.99414,-1.728515 -0.68457,-0.565694 -2.15498,-0.790952 -3.26758,-0.5 C 209.59558,86.918672 207,84.647098 207,81.927734 207,80.86702 206.36151,80 205.58008,80 c -0.78144,0 -3.26796,-1.829484 -5.52539,-4.064453 -3.37179,-3.338261 -4.92297,-4.128629 -8.68946,-4.435547 -3.81809,-0.311123 -4.66742,-0.06145 -5.07421,1.494141 -0.26867,1.027393 -1.07389,1.643577 -1.78907,1.36914 -2.16497,-0.830779 -2.77556,1.570168 -1.06445,4.181641 1.44799,2.209907 1.45137,2.455078 0.043,2.455078 -1.58148,0 -3.04981,-0.989452 -6.43359,-4.335938 -1.7585,-1.739112 -1.99213,-1.745996 -4.45118,-0.134765 C 171.16804,77.464736 170,78.853489 170,79.615234 170,80.376978 169.325,81 168.5,81 c -0.84106,0 -1.5,0.892241 -1.5,2.03125 0,1.117261 0.675,2.290839 1.5,2.607422 C 170.67486,86.473242 170.40465,90 168.16602,90 c -1.00834,0 -2.1569,-0.322916 -2.55274,-0.71875 -0.39583,-0.395835 -2.46819,-0.837351 -4.60547,-0.980469 -3.12586,-0.209316 -4.00819,0.126108 -4.51367,1.71875 -0.7428,2.340338 -2.07377,2.460827 -6.62109,0.59961 -7.81502,-3.198691 -7.03132,-3.647768 -14.45117,8.289062 -3.74923,6.031617 -7.17763,10.743577 -7.61915,10.470707 -1.12815,-0.69723 -0.9989,-5.36206 0.32227,-11.580082 1.11281,-5.237384 6.97228,-18.122647 8.73633,-19.21289 0.99495,-0.614914 2.1034,2.600103 2.125,6.164062 0.008,1.2375 0.46367,2.25 1.01367,2.25 0.55,0 1,-1.725651 1,-3.833984 0,-2.108334 0.27649,-4.10852 0.61328,-4.445313 0.33679,-0.336793 2.00709,0.692904 3.71289,2.287109 3.41653,3.193033 4.41355,3.245598 2.75391,0.144532 -1.83549,-3.429654 -1.30066,-3.730266 5.91992,-3.322266 8.17136,0.461723 9.39883,-1.054634 2.24219,-2.771484 -7.65833,-1.837206 -7.94979,-2.561995 -1.80078,-4.496094 7.76045,-2.440962 7.57908,-4.863041 -0.19727,-2.632812 -4.08031,1.170217 -4.1142,0.131124 -0.14062,-4.394532 3.46496,-3.946366 1.94027,-4.931093 -2.37696,-1.535156 -1.39842,1.1 -2.83835,2 -3.20117,2 -1.01819,0 0.52747,-4.290002 2.25391,-6.255859 3.1904,-3.632835 0.10784,-2.87189 -3.25977,0.804687 -3.72905,4.071171 -4.55404,3.353314 -1.94531,-1.691406 0.86555,-1.673799 1.34539,-3.271818 1.0664,-3.550781 -0.1788,-0.17881 -0.38503,-0.261298 -0.61523,-0.25 z m 42.50586,37.099609 c 4.92273,0.04426 7.20564,3.538216 7.60937,11.33789 0.13164,2.5428 0.57212,4.82891 0.97852,5.08008 0.93132,0.57559 11.84859,-2.84742 11.86719,-3.7207 0.008,-0.35517 -2.20243,-2.06714 -4.91016,-3.804692 -6.39786,-4.105496 -7.8548,-5.812268 -5.67578,-6.648437 0.89395,-0.343039 2.29844,-0.06555 3.12109,0.617187 1.8043,1.497435 8.44753,0.646031 9.61719,-1.232422 0.64355,-1.033528 1.19472,-1.040198 2.81641,-0.03516 1.10932,0.6875 2.62137,1.25 3.35937,1.25 0.79575,0 1.82847,2.107724 2.53711,5.177734 1.42067,6.15468 0.51467,7.76657 -3.37109,5.9961 C 215.06467,103.52875 213.6399,103 213.31445,103 c -0.32545,0 -0.37227,9.9 -0.10351,22 l 0.48828,22 -14.09961,-0.19531 C 191.84467,146.69703 180.775,146.35953 175,146.05469 L 164.5,145.5 l -0.2793,-13.22852 -0.27929,-13.22851 4.40429,-1.10742 4.40235,-1.10938 0.46875,-7.16406 c 0.75915,-11.623301 5.08126,-18.024718 13.04101,-19.316407 0.81319,-0.131963 1.57019,-0.195775 2.27344,-0.189453 z M 186.48047,95 C 181.40837,95 177,101.95653 177,109.96094 c 0,4.24434 0.29308,5.03906 1.85742,5.03906 1.53556,0 1.96784,-1.04881 2.49024,-6.04688 0.8283,-7.92475 1.98136,-9.95312 5.65625,-9.95312 2.17116,0 3.31938,0.714217 4.42382,2.75 1.43023,2.63634 1.49285,2.65566 1.53125,0.45508 C 193.00473,99.582063 188.88553,95 186.48047,95 Z m -33.52149,18.12891 c -0.38357,-0.0492 -0.90094,0.18823 -1.59375,0.63671 -1.45391,0.94125 -2.21055,10.11244 -0.87304,10.58399 2.52864,0.89149 3.50781,-0.77017 3.50781,-5.95703 0,-3.66364 -0.19715,-5.15544 -1.04102,-5.26367 z m 52.98829,0.10351 c -0.14012,0.0232 -0.29723,0.0726 -0.47461,0.14063 C 204.57314,113.71823 203.19799,114 202.41797,114 201.36354,114 201,115.42782 201,119.56641 c 0,5.4825 0.0415,5.56165 2.75,5.25 2.61147,-0.30048 2.76432,-0.61184 3.05273,-6.19336 0.23058,-4.46219 0.12531,-5.55269 -0.85546,-5.39063 z M 143.60547,115 c -1.33088,0 -2.855,7.45651 -1.89063,9.25 0.2218,0.4125 1.05121,0.75 1.84375,0.75 1.06251,0 1.44141,-1.31324 1.44141,-5 0,-3.61045 -0.38724,-5 -1.39453,-5 z m 51.92578,1.0918 c -0.21175,0.013 -0.45281,0.0432 -0.72656,0.082 -2.03057,0.28786 -2.34075,0.95962 -2.60938,5.65234 -0.28972,5.0611 -0.18998,5.31045 2,5 2.03057,-0.28786 2.34075,-0.95962 2.60938,-5.65234 0.2535,-4.42846 0.20881,-5.17309 -1.27344,-5.08203 z M 178.10742,120 c -1.04116,0 -2.16616,0.71204 -2.5,1.58203 -0.76107,1.9833 -0.79238,6.89903 -0.0488,7.64258 0.30685,0.30681 1.43185,0.3301 2.5,0.0508 C 179.60877,128.87001 180,127.88161 180,124.38281 180,120.74869 179.67686,120 178.10742,120 Z m 45.26367,1.57617 c 0.5256,-0.044 1.2458,0.20264 2.22852,0.65039 2.05234,0.93511 2.40039,1.79554 2.40039,5.9336 0,3.97244 -0.31353,4.82648 -1.75,4.76172 -3.57535,-0.16129 -4.25,-1.08816 -4.25,-5.8379 0,-3.90145 0.21479,-5.41105 1.37109,-5.50781 z M 171.63867,122 C 168.10816,122 167,123.23686 167,127.17383 c 0,3.72941 0.15975,3.94062 2.75,3.64258 2.46072,-0.28313 2.78149,-0.76348 3.05664,-4.56641 0.2329,-3.21894 -0.0503,-4.25 -1.16797,-4.25 z m 60.67774,3.09961 c 0.49865,-0.0386 1.17835,0.15354 2.10156,0.50781 1.14417,0.43906 1.58203,1.9607 1.58203,5.5 0,5.09637 -0.34716,5.50325 -3.25,3.8125 -1.25182,-0.72912 -1.75,-2.28532 -1.75,-5.46875 0,-3.06306 0.21936,-4.26673 1.31641,-4.35156 z M 114,127 c -1.61905,0 -2,0.66667 -2,3.5 0,2.83333 0.38095,3.5 2,3.5 1.61905,0 2,-0.66667 2,-3.5 0,-2.83333 -0.38095,-3.5 -2,-3.5 z m -5.16797,0.10742 c -0.15273,0.007 -0.32373,0.0298 -0.51562,0.0664 -1.88305,0.35904 -2.90399,3.85182 -1.89453,6.48242 1.02164,2.66236 3.06879,0.81044 3.39453,-3.07031 0.23342,-2.78098 0.0847,-3.5303 -0.98438,-3.47852 z m 97.41797,1.90625 c -0.4125,0.008 -1.7625,0.28555 -3,0.61719 -2.01005,0.53867 -2.25,1.23039 -2.25,6.48633 0,5.87037 0.007,5.88281 3,5.88281 l 3,0 0,-6.5 c 0,-3.575 -0.3375,-6.49433 -0.75,-6.48633 z m -54.27344,0.25 c -0.43956,0.0418 -0.94711,0.29838 -1.51953,0.77344 -1.4688,1.219 -2.02627,7.06162 -0.79101,8.29687 0.36666,0.36667 1.49166,0.66602 2.5,0.66602 1.50256,0 1.83398,-0.80167 1.83398,-4.44141 0,-3.61677 -0.70476,-5.42038 -2.02344,-5.29492 z m -8.23242,0.86719 c -0.14765,-1.8e-4 -0.31165,0.0201 -0.49414,0.0547 -1.79676,0.34074 -2.89031,4.70167 -1.85547,7.39843 0.29876,0.77854 1.23195,1.41602 2.07422,1.41602 1.15194,0 1.53125,-1.13406 1.53125,-4.57422 0,-3.3384 -0.22229,-4.29368 -1.25586,-4.29492 z m 51.64063,0.49414 c -0.27487,0.0239 -0.5862,0.0738 -0.93555,0.14062 -2.1874,0.41815 -2.44922,0.97222 -2.44922,5.1836 0,2.59422 0.31911,5.03591 0.70898,5.42578 0.38987,0.38986 1.62737,0.57867 2.75,0.41797 1.70798,-0.24449 2.04088,-1.02749 2.04688,-4.79297 0.008,-5.43915 -0.19701,-6.54203 -2.12109,-6.375 z m -16.51954,1.44727 c -0.40468,-0.0303 -0.97024,0.14441 -1.78906,0.40429 -1.54239,0.48954 -2.07617,1.49661 -2.07617,3.92383 0,1.79627 0.31911,3.58474 0.70898,3.97461 0.38987,0.38986 1.62737,0.57867 2.75,0.41797 1.73639,-0.24856 1.98819,-0.89014 1.69141,-4.29297 -0.2883,-3.30562 -0.39486,-4.36116 -1.28516,-4.42773 z m -7.16015,1.02539 c -0.1726,-0.0119 -0.36847,-0.01 -0.58985,0.004 -0.253,0.0156 -0.5401,0.0446 -0.86523,0.082 -2.80727,0.32301 -4.09024,3.18618 -2.86133,6.38868 0.30124,0.785 1.68781,1.42773 3.08008,1.42773 2.2935,0 2.53125,-0.38212 2.53125,-4.06641 0,-2.94466 -0.0867,-3.75276 -1.29492,-3.83593 z M 114,136.5 c -1.0498,0 -1.59143,1.27555 -1.80664,4.25 -0.27185,3.75729 -0.0632,4.25 1.80664,4.25 1.8698,0 2.07849,-0.49271 1.80664,-4.25 C 115.59143,137.77555 115.0498,136.5 114,136.5 Z m 109.52148,0.0664 c 0.54469,-0.0322 1.27093,0.15762 2.22852,0.51953 1.87729,0.7095 2.25,1.60135 2.25,5.38281 C 228,146.58242 227.77943,147 225.60742,147 222.90754,147 222,145.35893 222,140.47656 c 0,-2.70179 0.32317,-3.8394 1.52148,-3.91015 z M 108.5,137 c -1.07246,0 -1.5,1.09324 -1.5,3.83398 0,2.10834 0.28696,4.12094 0.63867,4.47266 C 108.97161,146.63957 110,144.73927 110,140.94141 110,138.10498 109.57959,137 108.5,137 Z m -26,5 c -2.354167,0 -2.5,0.31176 -2.5,5.33398 0,2.93334 0.299349,5.63334 0.666016,6 0.366666,0.36667 1.491666,0.66602 2.5,0.66602 C 84.74009,154 85,153.15152 85,148 c 0,-5.73333 -0.111111,-6 -2.5,-6 z m 99.69922,8.15625 c 0.60891,0.0829 -0.55976,1.56233 -3.58203,4.92383 -3.79691,4.22307 -7.40046,11.46869 -6.26758,12.60156 0.16227,0.16228 1.33897,-1.61201 2.61523,-3.94336 2.87462,-5.25109 6.69431,-9.47768 10.23633,-11.32812 4.25692,-2.22391 4.24581,-1.72511 -0.0664,3.17382 -4.16194,4.72821 -6.56514,10.08186 -5.90821,13.15821 0.24293,1.13761 0.84105,0.3461 1.69727,-2.24219 2.41694,-7.30621 8.1877,-13.0376 15.07617,-14.97461 2.35514,-0.66225 2.32616,-0.57441 -0.5,1.51172 -5.58024,4.11904 -8.26518,8.64075 -9.50977,16.01953 -1.11246,6.59543 -1.30336,6.93851 -3.83007,6.84961 C 180.69735,175.85481 176.8,174.99752 173.5,174 c -3.3,-0.99751 -11.2875,-3.27995 -17.75,-5.07031 -8.32985,-2.3077 -11.75,-3.69071 -11.75,-4.75391 0,-2.44851 4.72053,-9.76234 7.45898,-11.55664 3.05411,-2.00113 3.2083,-1.3645 0.56641,2.3457 -1.08631,1.52557 -2.4385,4.06997 -3.00391,5.6543 l -1.02734,2.88086 2.25195,-2.875 c 3.79812,-4.84604 9.93475,-10.77814 10.53125,-10.18164 0.31057,0.31057 -0.32958,1.57522 -1.42187,2.81055 -3.09981,3.50573 -5.51813,7.75812 -5.10938,8.98437 0.20461,0.61384 1.38359,-0.52038 2.61914,-2.51953 2.26728,-3.66853 7.56433,-8.71875 9.14454,-8.71875 0.47061,0 -0.69033,2.29434 -2.57813,5.09961 -2.91078,4.3254 -4.46673,8.90039 -3.02734,8.90039 0.22274,0 1.58391,-2.01044 3.02343,-4.4668 2.36593,-4.03715 8.13092,-9.5332 10,-9.5332 0.4068,0 -0.63473,1.73464 -2.31445,3.85547 -3.21989,4.06543 -5.12166,8.1512 -5.10156,10.95898 0.007,0.92669 1.16477,-0.33945 2.57226,-2.81445 3.09894,-5.44931 6.98601,-9.69282 10.61719,-11.58984 1.6281,-0.85056 2.6327,-1.30367 2.99805,-1.25391 z M 108.56836,153 c -1.89772,0 -2.87447,3.32657 -2.0625,7.02344 C 107.62178,165.1042 110,163.72651 110,158 c 0,-3.67325 -0.37917,-5 -1.43164,-5 z m 5.68359,0.13281 c -1.04029,0.007 -1.25195,1.01078 -1.25195,4.62696 0,2.69866 0.29935,5.20755 0.66602,5.57421 1.26741,1.26741 2.29774,0.65711 2.89257,-1.71289 0.99153,-3.95058 0.1081,-8.07206 -1.80859,-8.43554 -0.18425,-0.0349 -0.34943,-0.0538 -0.49805,-0.0527 z M 126.5,154 c 1.11111,0 1.5,1.16667 1.5,4.5 0,3.33333 -0.38889,4.5 -1.5,4.5 -1.11111,0 -1.5,-1.16667 -1.5,-4.5 0,-3.33333 0.38889,-4.5 1.5,-4.5 z m -38.5,6.89062 -4.75,0.30469 -4.75,0.30469 -0.324219,8.20117 -0.326172,8.20313 3.326172,0.95703 C 88.116794,180.86085 88,181.00457 88,170.44531 Z M 108.5,166 c -1.11111,0 -1.5,1.16667 -1.5,4.5 0,3.33333 0.38889,4.5 1.5,4.5 1.11111,0 1.5,-1.16667 1.5,-4.5 0,-3.33333 -0.38889,-4.5 -1.5,-4.5 z m 5.89258,0 c -1.83749,0 -1.97095,9.6254 -0.14258,10.28125 2.05392,0.73676 2.75,-0.21357 2.75,-3.75781 C 117,168.17477 116.13064,166 114.39258,166 Z M 126.5,168 c 1.08333,0 1.5,1.11111 1.5,4 0,2.88889 -0.41667,4 -1.5,4 -1.08333,0 -1.5,-1.11111 -1.5,-4 0,-2.88889 0.41667,-4 1.5,-4 z m 18.66992,3.8418 c -2.28614,-0.085 -2.31296,1.93432 -1.8164,7.80859 C 143.70923,183.85837 144,191.70711 144,197.0918 l 0,9.79101 6.25,4.5293 c 3.4375,2.49112 6.5875,4.54239 7,4.55859 0.4125,0.0162 0.75,-4.46165 0.75,-9.95117 0,-9.81235 -0.0422,-9.9925 -2.5,-10.60937 -2.1919,-0.55013 -2.5,-1.16914 -2.5,-5.01954 0,-4.88472 -0.11751,-4.76688 3.43555,-3.41601 2.33978,0.88958 2.56445,0.75112 2.56445,-1.58594 0,-1.92849 -0.74192,-2.84298 -3,-3.69531 -2.46781,-0.93149 -3,-1.69616 -3,-4.31445 0,-2.67105 -0.50569,-3.35999 -3.14844,-4.28125 -2.13518,-0.74433 -3.64248,-1.21724 -4.68164,-1.25586 z m 19.95899,6.32812 c -1.63694,-0.11703 -1.64383,1.41826 -1.30469,20.54102 0.20279,11.43433 0.74388,21.18511 1.20312,21.66992 0.45924,0.48481 4.80411,3.05634 9.6543,5.71289 4.85019,2.65655 9.15586,4.84609 9.56836,4.86719 0.4125,0.0211 0.75,-4.82725 0.75,-10.77539 l 0,-10.81446 -3.44727,-1.64453 c -2.69566,-1.28547 -3.59445,-2.4317 -4.125,-5.25976 -0.82354,-4.38988 0.47043,-6.12563 3.39844,-4.5586 3.12445,1.67216 4.17383,1.32383 4.17383,-1.38281 0,-1.73783 -0.89296,-2.9358 -3,-4.02539 -2.63857,-1.36446 -3,-2.07679 -3,-5.91797 0,-3.05995 -0.47376,-4.54933 -1.58203,-4.97461 C 174.49775,180.48682 174,180.98071 174,185 c 0,3.24638 -0.35313,4 -1.87695,4 -2.66024,0 -3.9246,-1.91357 -4.29883,-6.51172 -0.25286,-3.107 -0.76995,-4.0516 -2.3457,-4.27734 -0.12401,-0.0178 -0.24048,-0.0332 -0.34961,-0.041 z m 57.82617,10.6875 c -0.11493,0.0155 -0.23742,0.0939 -0.36914,0.22656 -0.22758,0.22917 -0.15839,10.42852 0.15234,22.66602 0.31073,12.2375 0.83277,22.23575 1.16211,22.21875 1.21999,-0.063 7.38103,-9.09821 8.67383,-12.7207 1.51859,-4.25517 1.81942,-12.08034 0.54101,-14.09766 -0.59952,-0.94602 -1.05775,-0.27398 -1.53125,2.25 -0.37134,1.97941 -1.04142,3.59961 -1.49023,3.59961 -0.44881,0 -0.60224,-1.12344 -0.33984,-2.49609 0.74403,-3.89212 -0.76106,-14.10278 -1.83008,-12.41407 -0.49099,0.77561 -0.93142,2.98516 -0.97852,4.91016 -0.0471,1.925 -0.43029,4.38179 -0.85156,5.45898 -0.47583,1.2167 -1.00509,-1.95837 -1.39648,-8.38281 -0.51118,-8.39053 -0.93766,-11.32685 -1.74219,-11.21875 z m -53.19531,5.16602 c 0.54772,0.0353 1.22913,0.31829 2.05468,0.84179 0.83765,0.53118 1.20059,2.34998 1,5.01172 -0.31043,4.11933 -0.34615,4.15544 -2.56445,2.59375 -1.59102,-1.12008 -2.25,-2.59252 -2.25,-5.02734 0,-2.37949 0.55477,-3.49765 1.75977,-3.41992 z m 24.43945,9.13867 c 0.38236,0.0209 0.88649,0.13672 1.55078,0.30078 3.89594,0.96219 4.08013,1.36997 3.51172,7.78711 -0.28012,3.1625 -0.79038,5.7085 -1.13477,5.6582 -2.12307,-0.30998 -6.05837,-3.62166 -5.63281,-4.74023 0.27867,-0.73248 0.50586,-3.14277 0.50586,-5.35742 0,-2.91799 0.0521,-3.71112 1.19922,-3.64844 z m 9.80664,3.48437 c 0.64828,-0.0309 1.83914,0.22356 3.05273,0.68164 2.82593,1.06668 2.94141,1.35779 2.94141,7.39063 0,5.32712 -0.26571,6.277 -1.75,6.25 -3.7208,-0.0676 -5.25,-2.44528 -5.25,-8.16211 0,-3.0102 0.25173,-5.72439 0.55859,-6.03125 0.0767,-0.0767 0.23118,-0.11861 0.44727,-0.12891 z"
       style="fill:#864146;fill-opacity:1;stroke-width:1.00697553" />
    <path
       id="path8195"
       d="M 93.613281,78.015625 C 67.821304,93.756054 53.760983,127.4535 53.716797,158.37305 c 0.04248,5.60553 0.531654,11.19876 1.462891,16.72656 1.935864,-0.11256 3.963446,-0.10396 6.080078,0.0215 L 72.060547,175.86523 72,170.26172 60.400391,169.2793 c -0.487501,-4.01643 -0.757866,-8.05839 -0.767579,-12.10938 0.547557,-25.18379 9.888307,-53.3265 33.980469,-79.154295 z"
       style="opacity:1;fill:#864146;fill-opacity:1;stroke:none;stroke-width:6.98740292;stroke-linecap:round;stroke-linejoin:round;stroke-miterlimit:4;stroke-dasharray:none;stroke-opacity:1"
       inkscape:connector-curvature="0" />
    <path
       id="path7918"
       d="m 59.800781,181.82031 c -0.0039,0.004 -0.0059,0.008 -0.0098,0.0117 -1.100343,0.0165 -2.200805,0.0501 -3.300782,0.12305 a 105.49953,105.49953 0 0 0 102.726561,81.91797 105.49953,105.49953 0 0 0 47.93554,-11.63672 c -3.4901,-0.8339 -7.03134,-1.98868 -10.61913,-3.40235 -40.90032,-16.116 -87.8733,-66.23203 -134.697267,-67.00781 -0.05145,-0.001 -0.102829,-0.005 -0.154297,-0.006 -0.186231,-0.003 -0.372367,0.005 -0.558594,0.004 -0.440879,-0.003 -0.881424,-0.0102 -1.322266,-0.004 z m 4.521485,5.34961 c 37.952824,-0.0296 79.202614,43.61673 120.150394,66.00196 a 97.722969,100.13261 0 0 1 -27.11719,4.1289 97.722969,100.13261 0 0 1 -93.033204,-70.13086 z"
       style="opacity:1;fill:#909247;fill-opacity:1;stroke:none;stroke-width:6.98740292;stroke-linecap:round;stroke-linejoin:round;stroke-miterlimit:4;stroke-dasharray:none;stroke-opacity:1"
       inkscape:connector-curvature="0" />
    <path
       sodipodi:nodetypes="ccc"
       inkscape:connector-curvature="0"
       id="path8205"
       d="m 166.51474,54.615133 c 43.82742,-2.048012 99.84808,31.224304 96.8109,96.810897 -4.8303,-52.862296 -42.68503,-91.279999 -96.8109,-96.810897 z"
       style="fill:#864146;fill-opacity:1;fill-rule:evenodd;stroke:none;stroke-width:1.00697553px;stroke-linecap:butt;stroke-linejoin:miter;stroke-opacity:1" />
  </g>
</svg>
