<?xml version="1.0" encoding="UTF-8" standalone="no"?>
<!-- Created with Inkscape (http://www.inkscape.org/) -->

<svg
   xmlns:dc="http://purl.org/dc/elements/1.1/"
   xmlns:cc="http://creativecommons.org/ns#"
   xmlns:rdf="http://www.w3.org/1999/02/22-rdf-syntax-ns#"
   xmlns:svg="http://www.w3.org/2000/svg"
   xmlns="http://www.w3.org/2000/svg"
   xmlns:sodipodi="http://sodipodi.sourceforge.net/DTD/sodipodi-0.dtd"
   xmlns:inkscape="http://www.inkscape.org/namespaces/inkscape"
   id="svg3390"
   version="1.1"
   inkscape:version="0.91+devel+osxmenu r12922"
   width="1038"
   height="1038"
   viewBox="0 0 1038 1038"
   sodipodi:docname="fatg.svg">
  <metadata
     id="metadata3396">
    <rdf:RDF>
      <cc:Work
         rdf:about="">
        <dc:format>image/svg+xml</dc:format>
        <dc:type
           rdf:resource="http://purl.org/dc/dcmitype/StillImage" />
        <dc:title></dc:title>
      </cc:Work>
    </rdf:RDF>
  </metadata>
  <defs
     id="defs3394" />
  <sodipodi:namedview
     pagecolor="#ffffff"
     bordercolor="#666666"
     borderopacity="1"
     objecttolerance="10"
     gridtolerance="10"
     guidetolerance="10"
     inkscape:pageopacity="0"
     inkscape:pageshadow="2"
     inkscape:window-width="1905"
     inkscape:window-height="1099"
     id="namedview3392"
     inkscape:document-units="px"
     showgrid="false"
     inkscape:snap-smooth-nodes="true"
     inkscape:zoom="0.61786691"
     inkscape:cx="645.93908"
     inkscape:cy="566.16572"
     inkscape:window-x="7"
     inkscape:window-y="23"
     inkscape:window-maximized="0"
     inkscape:current-layer="svg3390" />
  <rect
     style="opacity:1;fill:#1fc3f4;fill-opacity:1;stroke:none;stroke-width:2;stroke-linecap:round;stroke-linejoin:round;stroke-miterlimit:4;stroke-dasharray:none;stroke-opacity:0.33741264"
     id="rect6508"
     width="1038"
     height="1038"
     x="0"
     y="0" />
  <path
     style="fill:#ae9882;fill-rule:evenodd;stroke:none;stroke-width:1px;stroke-linecap:butt;stroke-linejoin:miter;stroke-opacity:1;fill-opacity:1"
     d="m 409.26715,232.37272 c 17.33029,-4.62694 40.7414,-13.56991 64.62962,-12.98222 4.1665,0.1025 8.4327,1.12403 10.01393,6.69376 10.80931,38.07467 6.96972,95.93124 8.51692,132.74466 l -5.85846,-10.63613 -20.60911,-55.53281 c -9.62843,5.04702 -46.95856,18.72404 -50.18572,5.92953 -3.22716,-12.7945 33.52095,-25.69852 33.52095,-25.69852 -19.38777,6.0805 -38.77555,10.61434 -58.16332,14.86759 z"
     id="path6454"
     inkscape:connector-curvature="0"
     sodipodi:nodetypes="cssccczccc" />
  <g
     id="g6486">
    <path
       sodipodi:nodetypes="ccssscc"
       inkscape:connector-curvature="0"
       id="path6462"
       d="m 319.77923,542.38841 c -3.50733,66.11392 -5.31423,132.94383 -2.77266,197.32042 0.25614,6.91192 -0.79554,10.87756 10.1664,12.24588 34.87719,4.35354 68.59434,1.79049 101.66391,-3.46582 6.4148,-1.01961 6.9155,-5.04088 6.23847,-12.01482 -2.4123,-24.84862 -4.52125,-49.45918 -9.47323,-74.86161 z"
       style="fill:#7f5327;fill-rule:evenodd;stroke:none;stroke-width:1px;stroke-linecap:butt;stroke-linejoin:miter;stroke-opacity:1;fill-opacity:1" />
    <path
       id="path6464"
       d="M 364.83398 705.05078 L 359.75195 705.97461 L 362.89258 754.14844 C 364.92802 754.15332 366.95973 754.1385 368.98828 754.10547 L 364.83398 705.05078 z "
       style="fill:#593515;fill-rule:evenodd;stroke:none;stroke-width:1px;stroke-linecap:butt;stroke-linejoin:miter;stroke-opacity:1;fill-opacity:1" />
    <path
       id="path6466"
       d="M 398.56836 706.66797 L 402.16016 752.03711 C 404.19299 751.82357 406.22285 751.5963 408.25 751.35547 L 404.57617 706.89844 L 398.56836 706.66797 z "
       style="fill:#593515;fill-rule:evenodd;stroke:none;stroke-width:1px;stroke-linecap:butt;stroke-linejoin:miter;stroke-opacity:1;fill-opacity:1" />
    <path
       sodipodi:nodetypes="csssscc"
       inkscape:connector-curvature="0"
       id="path6474"
       d="m 452.63548,662.99878 c -2.43014,26.73593 -1.19141,52.43527 2.07949,77.86532 0.41884,3.2563 0.6701,6.55536 8.31796,7.85585 21.4015,3.63924 51.28242,8.48149 84.10378,1.61738 3.19449,-0.66808 5.39185,-3.45985 4.15898,-11.32166 -3.67204,-23.41605 -9.85744,-46.82702 -15.94275,-70.24053 z"
       style="fill:#7f5327;fill-rule:evenodd;stroke:none;stroke-width:1px;stroke-linecap:butt;stroke-linejoin:miter;stroke-opacity:1;fill-opacity:1" />
    <path
       id="path6476"
       d="M 485.21484 713.13672 L 488.08594 752.38477 C 489.54934 752.5457 491.03101 752.69495 492.5332 752.83398 L 493.30078 713.13672 L 485.21484 713.13672 z "
       style="fill:#593515;fill-rule:evenodd;stroke:none;stroke-width:1px;stroke-linecap:butt;stroke-linejoin:miter;stroke-opacity:1;fill-opacity:1" />
    <path
       id="path6478"
       d="M 527.03516 713.59961 L 520.56641 713.83008 L 522.56836 753.51758 C 523.98832 753.43913 525.41573 753.34746 526.85352 753.23242 L 527.03516 713.59961 z "
       style="fill:#593515;fill-rule:evenodd;stroke:none;stroke-width:1px;stroke-linecap:butt;stroke-linejoin:miter;stroke-opacity:1;fill-opacity:1" />
  </g>
  <path
     style="fill:#deccbb;fill-rule:evenodd;stroke:none;stroke-width:1px;stroke-linecap:butt;stroke-linejoin:miter;stroke-opacity:1;fill-opacity:1"
     d="m 656.61797,455.1979 c 24.02844,12.63462 47.71898,18.81168 72.95755,-6.58048 12.08889,-12.16245 26.08375,-11.63967 42.05789,0.57222 14.0475,10.73902 24.61574,21.51565 16.02205,39.48291 -24.49371,51.21021 -61.24218,82.69593 -130.17916,64.94652 -14.3136,-31.53183 -34.99392,-62.48487 -0.85833,-98.42117 z"
     id="path6502"
     inkscape:connector-curvature="0"
     sodipodi:nodetypes="cssscc" />
  <path
     style="fill:#a87b50;fill-rule:evenodd;stroke:none;stroke-width:1px;stroke-linecap:butt;stroke-linejoin:miter;stroke-opacity:1;fill-opacity:1"
     d="m 650.88012,369.3287 c 24.10566,87.39314 29.50076,198.6178 -11.55272,252.77346 l -69.77842,48.75247 c -48.21422,16.32591 -100.03851,6.07904 -128.92833,-5.0832 -48.42691,-37.76784 -149.97981,-65.53328 -135.85996,-230.36119 -4.57109,-8.92288 -1.27834,-18.18767 8.31796,-27.72652 22.47318,-67.76167 89.38068,-88.58966 117.37561,-88.26276 33.86768,0.39548 63.17614,19.94419 87.33855,76.47899 5.50407,12.87832 9.6504,-0.82156 10.39744,-26.10914 l 3.92793,-22.41228 100.50864,2.5416 z"
     id="path6460"
     inkscape:connector-curvature="0"
     sodipodi:nodetypes="ccccccsscccc" />
  <g
     id="g6436">
    <g
       id="g6432">
      <path
         style="fill:#deccbb;fill-rule:evenodd;stroke:none;stroke-width:1px;stroke-linecap:butt;stroke-linejoin:miter;stroke-opacity:1;fill-opacity:1"
         d="m 537.3402,208.52107 c -38.10488,-71.87924 -109.79301,-77.32098 -138.83067,-76.65403 -42.86329,0.9845 -56.79029,15.47115 -56.29278,22.71256 0.7507,10.92649 31.34022,19.52856 71.18582,28.82224 38.51563,8.98347 67.90045,11.51034 119.97539,35.32961 z"
         id="path3400"
         inkscape:connector-curvature="0"
         sodipodi:nodetypes="cssscc" />
      <path
         style="fill:#ae9882;fill-rule:evenodd;stroke:none;stroke-width:1px;stroke-linecap:butt;stroke-linejoin:miter;stroke-opacity:1;fill-opacity:1"
         d="m 548.467,192.67136 c -24.30518,-20.2805 -47.49564,-41.61457 -75.97175,-59.1436 -21.35905,-13.14799 -80.21308,-40.283931 -80.60822,-49.338092 -0.19717,-4.517889 7.10426,-7.008329 23.26181,-7.191423 85.3168,2.608973 114.29314,39.253055 140.50688,107.013965 z"
         id="path6417"
         inkscape:connector-curvature="0"
         sodipodi:nodetypes="cssccc" />
    </g>
    <path
       sodipodi:nodetypes="ccssczczc"
       inkscape:connector-curvature="0"
       id="path3402"
       d="m 538.71174,351.92355 c -2.51573,25.38133 -9.8769,32.72794 -17.65065,33.03257 -13.73426,-113.50447 -2.55407,-211.89513 68.70254,-213.61911 76.14362,-1.84222 93.3711,161.93494 78.08153,224.4956 -2.29791,9.40241 -26.6394,-16.31915 -36.17326,-37.20374 -2.17251,18.31455 -7.6361,47.31516 -18.43964,47.54684 -10.80354,0.23168 -19.91448,-32.26567 -26.05932,-48.91838 -3.87054,12.7907 -16.86145,52.67557 -25.60214,52.42343 -8.74069,-0.25214 -16.76271,-37.96049 -22.85906,-57.75721 z"
       style="fill:#deccbb;fill-rule:evenodd;stroke:none;stroke-width:1px;stroke-linecap:butt;stroke-linejoin:miter;stroke-opacity:1;fill-opacity:1" />
    <g
       id="g6425">
      <g
         id="g3432">
        <path
           sodipodi:nodetypes="csscc"
           inkscape:connector-curvature="0"
           id="path3406"
           d="m 608.74369,297.29901 c 3.59607,11.01784 5.19783,29.75897 26.64152,29.67079 30.23733,-0.12434 68.15338,-36.26166 64.53514,-43.13235 -3.14662,-5.97513 -29.21357,-1.45888 -54.22917,4.27654 -14.07028,3.22595 -39.59173,-4.48407 -36.94749,9.18502 z"
           style="fill:#e99c29;fill-rule:evenodd;stroke:none;stroke-width:1px;stroke-linecap:butt;stroke-linejoin:miter;stroke-opacity:1;fill-opacity:1" />
        <path
           id="path3408"
           d="M 690.98633 281.02734 C 680.58387 280.80493 662.88963 284.17018 645.69141 288.11328 C 632.56755 291.12224 609.49047 284.62472 608.58984 294.82812 L 610.44531 298.62695 C 624.49186 306.16411 703.16534 294.93876 699.91992 283.83789 C 698.9366 281.97066 695.71472 281.12844 690.98633 281.02734 z "
           style="fill:#000000;fill-rule:evenodd;stroke:none;stroke-width:1px;stroke-linecap:butt;stroke-linejoin:miter;stroke-opacity:1;fill-opacity:1" />
      </g>
      <path
         style="fill:#fbb623;fill-rule:evenodd;stroke:none;stroke-width:1px;stroke-linecap:butt;stroke-linejoin:miter;stroke-opacity:1;fill-opacity:1"
         d="m 608.42646,293.19432 c 35.35257,4.07611 101.96826,-15.30012 100.4798,-30.4329 -2.21582,-22.52761 -57.8734,-66.63034 -81.69005,-65.84218 -31.14346,1.03063 -25.49221,86.87899 -18.78975,96.27508 z"
         id="path3436"
         inkscape:connector-curvature="0"
         sodipodi:nodetypes="cssc" />
      <path
         style="fill:#ae9882;fill-rule:evenodd;stroke:none;stroke-width:1px;stroke-linecap:butt;stroke-linejoin:miter;stroke-opacity:1;fill-opacity:1"
         d="m 565.94867,288.73886 c 21.25565,-8.42153 37.75481,-2.38341 41.29317,8.67568 3.45349,10.79381 -1.94774,25.6687 -25.11854,36.5806 31.98162,-5.899 35.48691,-24.30645 30.88403,-38.67039 -4.16388,-12.99397 -19.15276,-22.57464 -47.05866,-6.58589 z"
         id="path3404"
         inkscape:connector-curvature="0"
         sodipodi:nodetypes="cscsc" />
    </g>
    <g
       id="g6420">
      <path
         style="fill:#000000;fill-rule:evenodd;stroke:none;stroke-width:1px;stroke-linecap:butt;stroke-linejoin:miter;stroke-opacity:1;fill-opacity:1"
         d="m 542.97773,230.92714 c 1.73775,-20.9503 17.16351,-32.51812 29.59765,-33.06846 8.00193,-0.35417 17.06218,2.60561 20.07904,10.88724 -9.11222,-2.10823 -12.71409,-2.38615 -17.15725,-2.41035 -16.10482,0.48955 -28.08223,20.40011 -29.85564,24.10768 -0.46752,0.97741 -2.77867,1.86873 -2.6638,0.48389 z"
         id="path6411"
         inkscape:connector-curvature="0"
         sodipodi:nodetypes="ssccss" />
      <path
         style="fill:#ffffff;fill-rule:evenodd;stroke:none;stroke-width:1px;stroke-linecap:butt;stroke-linejoin:miter;stroke-opacity:1;fill-opacity:1"
         d="m 575.09429,228.96317 c 12.38208,0.25619 20.24566,10.16549 20.33278,23.45202 0.10327,15.74865 -12.18919,18.92817 -22.29674,19.5241 -11.94827,0.70445 -19.18811,-10.10155 -19.29304,-20.56384 -0.13809,-13.76859 9.17088,-22.66234 21.257,-22.41228 z"
         id="path6413"
         inkscape:connector-curvature="0"
         sodipodi:nodetypes="sssss" />
      <circle
         style="opacity:1;fill:#000000;fill-opacity:1;stroke:none;stroke-width:2;stroke-linecap:round;stroke-linejoin:round;stroke-miterlimit:4;stroke-dasharray:none;stroke-opacity:0.33741264"
         id="path6415"
         cx="564.87012"
         cy="248.08293"
         r="5.9496498" />
    </g>
  </g>
  <path
     style="fill:#deccbb;fill-rule:evenodd;stroke:none;stroke-width:1px;stroke-linecap:butt;stroke-linejoin:miter;stroke-opacity:1;fill-opacity:1"
     d="m 469.96456,346.45432 c -5.74395,-23.60476 -47.57516,-111.69916 -73.91578,-142.2326 -2.95596,-3.42649 -5.56837,-3.77065 -10.43541,-2.10869 -38.34682,13.0944 -111.00953,69.67818 -104.88156,80.82782 6.50837,11.84176 37.91668,-9.32995 80.40615,-39.30572 0,0 -73.77894,56.42371 -59.14992,75.55477 14.62902,19.13107 70.70263,-44.36243 70.70263,-44.36243 -10.38274,15.39627 -39.15984,50.031 -23.10543,60.07413 16.0544,10.04314 48.43023,-33.89635 65.61944,-62.61573 14.7456,25.66323 26.03024,51.42293 45.97981,76.9411 z"
     id="path6452"
     inkscape:connector-curvature="0"
     sodipodi:nodetypes="csssczczccc" />
  <path
     style="fill:#e99c29;fill-rule:evenodd;stroke:none;stroke-width:1px;stroke-linecap:butt;stroke-linejoin:miter;stroke-opacity:1;fill-opacity:1"
     d="m 655.0391,705.51278 c 14.30059,-2.99482 49.46083,-6.03372 48.98352,34.19605 -0.16414,13.83415 -4.68926,22.45815 -15.01853,27.03336 -12.24814,18.62052 -25.10047,-1.33687 -17.56014,-7.16269 3.13923,-19.09818 0.10849,-37.42511 -16.40485,-54.06672 z"
     id="path6500"
     inkscape:connector-curvature="0"
     sodipodi:nodetypes="csccc" />
  <path
     style="fill:#fbb623;fill-rule:evenodd;stroke:none;stroke-width:1px;stroke-linecap:butt;stroke-linejoin:miter;stroke-opacity:1;fill-opacity:1"
     d="m 600.27921,678.71048 11.55272,28.88179 c -28.12655,7.75621 -49.73344,47.31206 -11.78377,64.23311 8.25093,2.11292 13.75885,0.53253 12.93904,-7.16268 -1.12302,-10.54132 -15.39422,-5.24649 -17.79119,-16.63592 -2.61991,-12.44875 18.46386,-28.4252 45.97983,-29.3439 20.50716,-0.68469 26.82623,25.38635 16.86696,36.73764 -10.28024,11.71711 -3.85076,24.74706 8.78007,14.78748 36.4387,-28.7324 7.64989,-77.31321 -37.19975,-67.92998 l -9.47323,-29.57495 z"
     id="path6498"
     inkscape:connector-curvature="0"
     sodipodi:nodetypes="cccsssssccc" />
  <path
     style="fill:#deccbb;fill-rule:evenodd;stroke:none;stroke-width:1px;stroke-linecap:butt;stroke-linejoin:miter;stroke-opacity:1;fill-opacity:1"
     d="m 515.02016,487.85958 c 2.88408,71.76364 12.36099,128.54358 31.66514,162.98889 15.26682,27.24131 27.95561,45.81759 65.83979,36.17997 18.22709,-4.63691 36.11815,-20.63657 34.58922,-37.55045 -3.7184,-41.13501 -24.03162,-94.06193 -32.50973,-130.88818 -5.91972,-25.7134 -3.81859,-74.00577 -14.78747,-77.17216 -10.96888,-3.16638 -18.02224,32.34762 -18.02224,32.34762 0,0 -13.77031,-37.74552 -23.7986,-36.04448 -10.02829,1.70104 -11.32167,39.9724 -11.32167,39.9724 0,0 -15.60124,-22.36006 -24.2607,-20.56384 -8.65946,1.79622 -7.39374,30.73023 -7.39374,30.73023 z"
     id="path6456"
     inkscape:connector-curvature="0"
     sodipodi:nodetypes="csssszczczc" />
  <path
     style="fill:#8c5f32;fill-rule:evenodd;stroke:none;stroke-width:1px;stroke-linecap:butt;stroke-linejoin:miter;stroke-opacity:1;fill-opacity:1"
     d="m 407.11777,348.30275 c 27.62261,-0.35319 89.19022,28.77698 91.49753,143.2537 1.41579,70.2438 -34.52133,193.04643 -72.32002,193.3925 -28.13464,0.25759 -120.13746,-115.80693 -120.37931,-197.78253 -0.22995,-77.94248 58.07884,-138.31229 101.2018,-138.86367 z"
     id="path6458"
     inkscape:connector-curvature="0"
     sodipodi:nodetypes="sssss" />
  <path
     style="fill:#a87b50;fill-rule:evenodd;stroke:none;stroke-width:1px;stroke-linecap:butt;stroke-linejoin:miter;stroke-opacity:1;fill-opacity:1"
     d="m 313.07865,407.68372 c -89.06243,44.02785 -193.52689,120.81027 -191.52385,222.51955 1.42353,72.28355 31.11777,120.14265 68.85627,146.04378 77.71006,53.33487 209.0772,40.55525 310.83908,48.05178 76.8675,5.66263 149.06843,25.19748 218.92934,50.64783 l 6.5352,-10.78309 C 651.8866,835.96134 574.58724,818.3085 502.23043,813.8425 c -116.05277,-7.163 -244.0061,0.79294 -305.0921,-45.93296 -39.83218,-30.46843 -58.9999,-88.48062 -59.24552,-139.99359 -0.47107,-98.79506 97.22146,-157.71468 166.86788,-192.50571 z"
     id="path6494"
     inkscape:connector-curvature="0"
     sodipodi:nodetypes="csssccssscc" />
  <path
     style="fill:#7f5327;fill-rule:evenodd;stroke:none;stroke-width:1px;stroke-linecap:butt;stroke-linejoin:miter;stroke-opacity:1;fill-opacity:1"
     d="m 721.12064,868.63716 c 20.93121,-46.85553 102.34028,-34.03133 101.43286,-19.63962 -0.56071,8.89284 -15.11923,4.90548 -24.02965,6.00741 18.43295,2.49838 33.92439,7.20769 46.3759,13.76335 50.47169,26.5731 41.99957,76.49859 31.02731,76.1168 -16.32056,-0.5679 -30.96353,-10.23892 -43.90033,-16.86697 3.17345,6.17665 12.63389,13.23234 9.93534,18.7154 -2.69854,5.48306 -14.47829,-1.44181 -36.73764,-11.32166 -25.25886,-11.21119 -46.92612,-3.229 -70.24053,-20.10173 -20.19962,-14.61854 -20.6322,-31.5204 -13.86326,-46.67298 z"
     id="path6496"
     inkscape:connector-curvature="0"
     sodipodi:nodetypes="sscssczsss" />
  <path
     style="fill:#e99c29;fill-rule:evenodd;stroke:none;stroke-width:1px;stroke-linecap:butt;stroke-linejoin:miter;stroke-opacity:1;fill-opacity:1"
     d="m 807.01037,406.99841 c -1.82538,-5.71032 -7.4629,-4.55879 -11.73392,-5.86696 -4.54469,-6.68029 -8.46256,-13.22096 -7.68774,-20.4332 1.54109,-8.66762 6.89814,-23.17364 21.84937,-22.6586 13.4692,0.46399 18.95749,12.61121 17.19626,31.7625 z"
     id="path6506"
     inkscape:connector-curvature="0"
     sodipodi:nodetypes="cccscc" />
  <path
     style="fill:#fbb623;fill-rule:evenodd;stroke:none;stroke-width:1px;stroke-linecap:butt;stroke-linejoin:miter;stroke-opacity:1;fill-opacity:1"
     d="m 757.64699,456.36179 13.5547,6.06927 23.46783,-42.08026 c 11.55663,5.15887 24.97872,15.78869 30.34634,-11.3293 2.01826,-10.19652 13.42123,-3.13938 20.63552,-3.84387 9.61749,-0.93916 7.90057,-5.4766 8.09235,-9.50852 0.63601,-13.37102 -19.80318,-8.00761 -30.34634,-10.31776 -13.7088,-3.00379 -13.82027,12.39489 -18.81473,21.04013 -9.865,-0.32434 -35.85752,-49.11654 12.34085,-67.77349 14.12969,-5.46941 4.5652,-16.55382 -3.43926,-15.7801 -31.98622,3.09183 -61.82227,37.89645 -28.93017,88.00439 z"
     id="path6504"
     inkscape:connector-curvature="0"
     sodipodi:nodetypes="cccsssscsscc" />
</svg>
