<?xml version="1.0" encoding="UTF-8" standalone="no"?>
<!-- Created with Inkscape (http://www.inkscape.org/) -->

<svg
   xmlns:dc="http://purl.org/dc/elements/1.1/"
   xmlns:cc="http://creativecommons.org/ns#"
   xmlns:rdf="http://www.w3.org/1999/02/22-rdf-syntax-ns#"
   xmlns:svg="http://www.w3.org/2000/svg"
   xmlns="http://www.w3.org/2000/svg"
   xmlns:sodipodi="http://sodipodi.sourceforge.net/DTD/sodipodi-0.dtd"
   xmlns:inkscape="http://www.inkscape.org/namespaces/inkscape"
   id="svg6088"
   version="1.1"
   inkscape:version="0.91+devel+osxmenu r12922"
   xml:space="preserve"
   width="300"
   height="300"
   viewBox="0 0 300 300"
   sodipodi:docname="fringe.svg"><metadata
     id="metadata6094"><rdf:RDF><cc:Work
         rdf:about=""><dc:format>image/svg+xml</dc:format><dc:type
           rdf:resource="http://purl.org/dc/dcmitype/StillImage" /><dc:title></dc:title></cc:Work></rdf:RDF></metadata><defs
     id="defs6092"><clipPath
       clipPathUnits="userSpaceOnUse"
       id="clipPath6114"><path
         d="m 12.496,12.496 858.898,0 0,1207.559 -858.898,0 0,-1207.559 z"
         id="path6116"
         inkscape:connector-curvature="0" /></clipPath><clipPath
       clipPathUnits="userSpaceOnUse"
       id="clipPath6136"><path
         d="m 12.496,12.496 858.898,0 0,1207.559 -858.898,0 0,-1207.559 z"
         id="path6138"
         inkscape:connector-curvature="0" /></clipPath><clipPath
       clipPathUnits="userSpaceOnUse"
       id="clipPath6160"><path
         d="m 12.496,12.496 858.898,0 0,1207.559 -858.898,0 0,-1207.559 z"
         id="path6162"
         inkscape:connector-curvature="0" /></clipPath><clipPath
       clipPathUnits="userSpaceOnUse"
       id="clipPath6178"><path
         d="m 12.496,12.496 858.898,0 0,1207.559 -858.898,0 0,-1207.559 z"
         id="path6180"
         inkscape:connector-curvature="0" /></clipPath><clipPath
       clipPathUnits="userSpaceOnUse"
       id="clipPath6194"><path
         d="m 12.496,12.496 858.898,0 0,1207.559 -858.898,0 0,-1207.559 z"
         id="path6196"
         inkscape:connector-curvature="0" /></clipPath><clipPath
       clipPathUnits="userSpaceOnUse"
       id="clipPath6226"><path
         d="m 12.496,12.496 858.898,0 0,1207.559 -858.898,0 0,-1207.559 z"
         id="path6228"
         inkscape:connector-curvature="0" /></clipPath><clipPath
       clipPathUnits="userSpaceOnUse"
       id="clipPath6262"><path
         d="m 12.496,12.496 858.898,0 0,1207.559 -858.898,0 0,-1207.559 z"
         id="path6264"
         inkscape:connector-curvature="0" /></clipPath><clipPath
       clipPathUnits="userSpaceOnUse"
       id="clipPath6278"><path
         d="m 12.496,12.496 858.898,0 0,1207.559 -858.898,0 0,-1207.559 z"
         id="path6280"
         inkscape:connector-curvature="0" /></clipPath><clipPath
       clipPathUnits="userSpaceOnUse"
       id="clipPath6298"><path
         d="m 12.496,12.496 858.898,0 0,1207.559 -858.898,0 0,-1207.559 z"
         id="path6300"
         inkscape:connector-curvature="0" /></clipPath><clipPath
       clipPathUnits="userSpaceOnUse"
       id="clipPath6350"><path
         d="m 12.496,12.496 858.898,0 0,1207.559 -858.898,0 0,-1207.559 z"
         id="path6352"
         inkscape:connector-curvature="0" /></clipPath><clipPath
       clipPathUnits="userSpaceOnUse"
       id="clipPath6366"><path
         d="m 12.496,12.496 858.898,0 0,1207.559 -858.898,0 0,-1207.559 z"
         id="path6368"
         inkscape:connector-curvature="0" /></clipPath><clipPath
       clipPathUnits="userSpaceOnUse"
       id="clipPath6390"><path
         d="m 0,0 883.89,0 0,1232.551 -883.89,0 L 0,0 Z"
         id="path6392"
         inkscape:connector-curvature="0" /></clipPath></defs><sodipodi:namedview
     pagecolor="#ffffff"
     bordercolor="#666666"
     borderopacity="1"
     objecttolerance="10"
     gridtolerance="10"
     guidetolerance="10"
     inkscape:pageopacity="0"
     inkscape:pageshadow="2"
     inkscape:window-width="1613"
     inkscape:window-height="1149"
     id="namedview6090"
     inkscape:document-units="px"
     showgrid="false"
     fit-margin-top="0"
     fit-margin-left="0"
     fit-margin-right="0"
     fit-margin-bottom="0"
     inkscape:zoom="0.54800776"
     inkscape:cx="309.74918"
     inkscape:cy="348.1067"
     inkscape:window-x="0"
     inkscape:window-y="23"
     inkscape:window-maximized="0"
     inkscape:current-layer="g6096" /><g
     id="g6096"
     inkscape:groupmode="layer"
     inkscape:label="Fringe 2019 – Portrait Poster Frames"
     transform="matrix(1.3333333,0,0,-1.3333333,-438.60464,256.68615)"><path
       style="fill:#ec008c;fill-opacity:1;fill-rule:nonzero;stroke:none;stroke-width:1.16303861"
       d="m 465.09606,120.52537 c -0.92098,0.014 -1.88166,-0.048 -2.28291,-0.0541 -0.9095,-0.0139 -1.83574,0.0148 -2.74291,-0.0375 -1.32935,-0.0768 -1.88568,-1.19406 -2.67306,-2.1977 -0.94787,-1.20846 -1.85272,-2.40854 -2.49588,-3.81116 -2.4703,-5.38947 -2.52503,-10.91588 -1.06309,-16.590312 0.91183,-3.540319 2.44419,-6.870767 3.21994,-10.462202 0.38031,-1.760869 0.97088,-3.997829 1.07672,-5.795944 0.0233,-0.386071 0.27613,-3.319371 -0.33563,-3.412443 -0.478,-0.0724 -1.23847,2.104024 -1.75137,3.412443 -0.68852,1.753891 -1.35,3.733092 -2.28973,5.364864 -1.7213,2.993662 -3.78,5.231755 -5.5676,8.148656 -1.2584,2.053955 -2.1051,3.51886 -2.73779,5.836768 -0.41055,1.50267 -0.74221,3.733 -0.71895,5.2984 0.014,0.93159 0.32509,2.8957 -0.29133,3.64586 -0.36403,0.44312 -2.37123,0.41573 -2.84343,0.41573 -0.99323,0 -1.65481,-0.034 -2.6492,-0.034 -1.23282,0 -3.68232,0.27616 -4.62205,-0.55538 -1.11071,-0.9828 -1.7561,-3.30803 -2.25737,-4.61183 -1.1642,-3.02506 -1.76443,-6.241763 -1.78885,-9.484373 -0.0407,-5.489513 2.17396,-10.056591 4.66635,-14.787832 2.48076,-4.712575 3.5272,-10.880634 1.29649,-15.900337 -0.8525,-1.916659 -1.66432,-3.864632 -2.42261,-5.819759 -0.52221,-1.350287 -0.71554,-2.705024 -0.71554,-4.151786 0,-0.928105 -0.008,-1.857431 0.003,-2.785535 0.0105,-0.809475 -0.0796,-0.822996 0.52984,-1.083545 0.76993,-0.329111 2.34695,0 3.22505,0 0.93624,0 1.8731,0 2.80934,0 0.46988,0 1.80878,-0.269535 2.17048,0.110779 0.36055,0.377959 0.0813,1.53966 0.0767,2.04436 -0.029,2.751779 0.92703,4.866357 1.86212,7.407568 2.23652,6.082663 2.79016,13.025567 0.28962,19.137364 -1.77596,4.343949 -3.40177,7.015129 -4.39035,11.617273 -0.0954,0.445473 -0.46871,2.34835 0,2.514606 0.38147,0.133808 1.68383,-2.962608 2.31188,-3.860532 1.02115,-1.458363 2.26934,-3.428057 3.52659,-5.231929 3.61356,-5.184827 5.87054,-10.264805 5.73796,-16.385935 -0.0582,-2.709822 -0.42527,-5.443196 -1.13123,-8.060033 -0.66526,-2.471428 -1.65468,-4.951578 -1.32206,-7.562571 0.11398,-0.89208 0.17634,-1.553878 1.1091,-1.741156 0.89902,-0.1803 2.04466,0 2.95416,0 l 2.95416,0.0087 c 0.7176,0 2.11233,-0.26465 2.72758,0.05321 0.93973,0.486121 1.42304,2.787629 1.7173,3.785516 0.28378,0.966485 0.5927,1.971612 0.98813,2.896228 1.7399,4.071798 3.4341,7.928143 4.08539,12.346498 0.86065,5.841914 0.60185,12.45658 -0.62865,18.227578 -1.24096,5.824468 -3.97,10.729816 -3.8537,16.784563 0.0477,2.47492 0.73521,5.22155 1.73774,7.4825 0.66178,1.49448 1.58746,2.60602 2.57255,3.89115 0.49429,0.64549 2.75727,2.65277 1.97455,3.59135 -0.24598,0.29544 -1.12683,0.38485 -2.04782,0.39872 z M 416.10874,119.987 c -1.26772,0 -1.9916,-0.89077 -1.9916,-2.01548 10e-6,-1.284 0.90542,-1.99159 2.03589,-1.99159 0.60246,0 1.21273,0.20795 1.56397,0.4719 l 0,1.81103 -1.64574,0 0,-0.83992 0.66272,0 0,-0.36112 c -0.20934,-0.0942 -0.37858,-0.12779 -0.58095,-0.12779 -0.60477,0 -0.94383,0.47809 -0.94383,1.03749 0,0.66415 0.42153,1.03242 0.89954,1.03242 0.4059,0 0.69155,-0.19303 0.86717,-0.36286 l 0.74109,0.6201 c -0.39543,0.47103 -1.03837,0.72582 -1.60826,0.72582 z m 16.92255,0 c -1.19676,0 -2.02566,-0.82343 -2.02566,-2.00859 0,-1.18517 0.8289,-2.0018 2.02566,-2.0018 1.18514,0 2.02396,0.81087 2.02396,2.0018 0,1.19563 -0.83882,2.00859 -2.02396,2.00859 z m -69.08211,-0.0593 1.21302,-3.8963 0.94894,0 0.60821,2.36981 0.012,0 0.57583,-2.36981 0.94894,0 1.21302,3.8963 -1.1142,0 -0.56391,-2.1739 -0.017,0 -0.51111,2.1739 -1.09546,0 -0.52302,-2.1739 -0.017,0 -0.56392,2.1739 -1.1142,0 z m 10.78934,0 0,-3.8963 2.70372,0 0,0.92846 -1.69515,0 0,0.54692 1.23517,0 0,0.90629 -1.23517,0 0,0.58783 1.58101,0 0,0.9268 -2.58958,0 z m 8.09755,0 0,-3.8963 2.59639,0 0,0.92846 -1.54864,0 0,2.96784 -1.04775,0 z m 7.92376,0 0,-3.8963 2.59469,0 0,0.92846 -1.54693,0 0,2.96784 -1.04776,0 z m 7.94421,0 0,-3.8963 1.05969,0 0,3.8963 -1.05969,0 z m 6.60514,0 0,-3.8963 1.03753,0 0,2.13299 0.0102,0 1.27946,-2.13299 1.08013,0 0,3.8963 -1.04094,0 0,-2.19439 -0.017,0 -1.30161,2.19439 -1.04775,0 z m 35.13989,0 0,-3.8963 1.03754,0 0,2.13299 0.0102,0 1.27945,-2.13299 1.08184,0 0,3.8963 -1.04265,0 0,-2.19439 -0.017,0 -1.30159,2.19439 -1.04777,0 z m -17.47113,0 0,-0.9268 0.98812,0 0,-2.96775 1.03754,0 0,2.96775 0.98813,0 0,0.9268 -3.01379,0 z m 52.4594,-0.14306 0,-3.89629 1.03754,0 0,2.13464 0.012,0 1.27775,-2.13464 1.08183,0 0,3.89629 -1.04265,0 0,-2.19439 -0.017,0 -1.2999,2.19439 -1.04946,0 z m 8.87441,0 0,-0.92854 1.52479,0 0,-0.0157 -1.57419,-2.14153 0,-0.81087 2.96779,0 0,0.9268 -1.63553,0 0,0.009 1.63553,2.17904 0,0.7854 -2.91839,0 z m -51.28046,-0.77179 c 0.55361,0 0.93191,-0.46135 0.93191,-1.03243 0,-0.57684 -0.3783,-1.03068 -0.93191,-1.03068 -0.54895,0 -0.93872,0.45384 -0.93872,1.03068 0,0.57571 0.38977,1.03243 0.93872,1.03243 z m 78.10985,-8.7637 c -2.18898,-0.009 -4.37533,-0.0611 -6.61534,-0.25383 -3.11113,-0.26753 -3.73602,-3.79511 -4.15355,-6.27125 -0.40823,-2.42022 -0.77811,-4.880749 -0.84672,-7.335953 -0.17679,-6.319922 2.65124,-11.354368 4.81797,-17.09972 1.22468,-3.246099 1.53478,-5.936382 1.47197,-9.441722 -0.0523,-2.958771 -0.92751,-6.100632 -1.84166,-8.848922 -0.59315,-1.784072 -1.08114,-3.763098 -1.2079,-5.642511 -0.0779,-1.140941 -0.10182,-3.740681 1.0682,-4.274515 0.71062,-0.324488 2.54181,-0.0087 3.3443,-0.0087 l 3.64926,0 c 1.54335,0 3.08723,0 4.63057,0 2.13534,0.0087 4.27046,0.02355 6.4058,0.01919 1.04558,0 1.8995,-0.174718 2.17048,1.076654 0.23959,1.11076 0.25084,2.491229 0.30666,3.635659 0.043,0.876902 0.4218,3.22089 -0.68657,3.472106 -0.39893,0.09072 -1.1572,-0.02181 -1.5759,-0.06629 -0.7269,-0.07763 -1.45658,-0.119328 -2.18581,-0.163553 -3.03437,-0.182568 -4.93324,0.09081 -7.96295,-0.149944 0.54197,2.093469 1.3841,4.372211 1.54693,6.576198 0.34542,4.652126 0.17811,8.443486 -0.44295,12.944446 0.74201,0.404737 1.69999,1.812072 5.46707,0.531566 1.16071,-0.395404 2.82862,-0.4487 3.02401,1.129514 0.19075,1.5387 0.087,3.458761 -0.0852,4.998595 -0.0756,0.665287 -0.44012,2.386904 -1.21471,2.335701 -2.46797,-0.162767 -3.18534,1.166848 -5.96966,0.44809 -1.02348,-0.264039 -3.77037,-1.706352 -5.14508,-0.139739 -0.56524,0.644353 -0.77523,1.599585 -1.03924,2.40906 -0.6513,1.996908 -0.77291,4.045019 -0.72406,6.131511 0.0256,1.074647 0.13406,2.143625 0.37481,3.192628 0.14422,0.626911 0.38126,2.154011 0.85694,2.591281 0.50709,0.46641 1.81261,0.19016 2.44647,0.17035 1.24329,-0.0384 2.48721,-0.0855 3.72933,-0.12264 2.76571,-0.0829 6.05503,-0.49406 6.84705,2.63219 0.24308,0.95951 0.79096,1.81923 1.1108,2.75309 0.16632,0.48499 0.9757,1.98644 0.31858,2.45163 -0.64548,0.45707 -4.38167,0.27764 -5.26093,0.27764 -2.24874,0 -4.44,0.0436 -6.62898,0.0375 z m -39.38543,-0.0611 c -0.51054,-0.0131 -0.98565,-0.0924 -1.3459,-0.31175 -0.76645,-0.46754 -0.96864,-1.63212 -1.19427,-2.43113 -0.88275,-3.1402 -1.44737,-6.47135 -0.99494,-9.731403 0.33146,-2.392312 1.15844,-4.755491 2.00862,-7.010593 1.28748,-3.414711 2.8382,-6.772549 3.73956,-10.314001 0.65013,-2.550544 0.95533,-5.22312 0.73087,-7.853913 -0.17795,-2.093469 -0.89837,-4.08654 -1.5299,-6.075336 -1.03743,-3.26808 -2.66329,-6.628622 -3.10408,-10.036267 -0.19074,-1.477117 -0.892,-5.022146 1.13634,-5.300142 1.77945,-0.245372 3.76559,-0.0087 5.56249,-0.0087 l 4.73961,0 c 3.54145,0 7.08433,0 10.62578,0 1.06418,0 2.67937,-0.236214 3.64586,0.36627 0.76877,0.479142 1.18113,1.556058 1.47538,2.378355 1.49915,4.18345 2.20051,8.790217 2.39706,13.205083 0.25121,5.673302 -0.61288,10.969344 -1.96433,16.447256 -0.25703,1.04089 -0.22749,2.378443 -1.49753,2.591279 -0.88855,0.148898 -2.04357,-0.118019 -2.90305,-0.339055 -1.16885,-0.300064 -2.12006,-0.858584 -3.30171,-1.100554 -2.48425,-0.50819 -4.12409,0.620888 -4.46021,-0.08854 -0.7048,-1.492208 0.38728,-4.524948 0.63036,-6.174165 0.19073,-1.302575 0.34778,-2.312761 1.83996,-2.347652 1.17234,-0.02704 2.69411,1.174175 3.20119,-0.390083 0.41172,-1.27126 0.2694,-3.128429 0.28452,-4.467028 0.0163,-1.46665 -0.0807,-2.931468 -0.27259,-4.385295 -0.28727,-2.192299 -0.63372,-6.198851 -2.91327,-7.274633 -1.81783,-0.857188 -4.90781,-0.670869 -6.84194,-0.299889 -0.98975,0.190767 -1.74683,0.311665 -1.91663,1.359534 -0.1384,0.852565 0.11692,1.81844 0.31348,2.640737 0.47684,1.992285 1.38561,3.827735 1.89618,5.806064 1.18397,4.57772 1.34676,9.263864 0.0988,13.85083 -1.06534,3.916009 -2.79105,7.656254 -4.05643,11.511727 -0.36054,1.100206 -0.72391,2.195003 -0.9728,3.328966 -0.25005,1.132829 -0.62792,2.673798 -0.029,3.661218 0.60943,1.006 2.82669,1.08101 3.83155,1.13806 1.53521,0.0872 3.71914,0.0846 4.00873,-2.00528 0.2047,-1.475897 -0.11397,-2.122779 0,-3.621965 0.11747,-1.531722 0.18682,-3.094236 0.5997,-4.579465 0.31053,-1.117651 0.80929,-2.345645 2.13981,-2.359602 0.8339,-0.0087 1.89005,0.1523 2.70883,0.292999 1.29563,0.224524 4.95137,-0.05931 4.61524,1.860484 -0.39194,2.238791 -0.92626,4.684661 -0.85183,7.003789 0.0663,2.07131 0.45408,4.12928 0.53665,6.20644 0.0523,1.28862 0.17487,3.03291 -0.88931,3.98658 -0.94322,0.84672 -2.35837,0.71588 -3.52489,0.72408 -1.8062,0.0131 -3.61147,0.0166 -5.41767,0.0157 -3.43794,0 -6.87608,-0.009 -10.31402,-0.009 -0.67093,0 -1.61943,0.16024 -2.47032,0.138 z m -90.30472,-0.0645 c -0.68954,0.0401 -1.68071,-0.11924 -2.15174,-0.11924 -1.8062,0 -3.60977,0 -5.41597,0 -3.48097,0 -7.07638,0.25933 -10.54572,-0.0218 -0.91879,-0.0742 -2.19453,-3.05045 -2.52483,-3.71565 -0.78041,-1.57359 -1.26527,-3.19873 -1.65256,-4.90491 -0.84204,-3.703087 -0.98171,-7.895695 -0.0443,-11.588314 0.91181,-3.592655 2.72061,-6.709221 4.08369,-10.121576 1.32354,-3.308816 2.15469,-6.938107 2.15003,-10.513317 -0.004,-3.249501 -1.71083,-6.119822 -2.61684,-9.162331 -0.49428,-1.658464 -0.88472,-3.299657 -0.95916,-5.036015 -0.043,-0.990909 -0.18385,-3.389938 0.94894,-3.843523 0.74551,-0.297709 2.33147,-0.02181 3.14327,-0.02181 0.79436,0 1.58908,0 2.38344,0 0.36868,0 1.93059,-0.200537 2.15855,0.07153 0.28726,0.344201 -0.18633,1.213863 -0.30496,1.589466 -1.05836,3.349552 -0.331,6.268371 0.87739,9.417909 1.31424,3.421689 1.81049,6.628099 1.66278,10.298649 -0.0709,1.752757 -0.27925,3.478474 -0.6491,5.192851 -0.16398,0.759406 -0.26867,0.795955 0.31518,1.214649 0.40357,0.288462 1.12157,0.374382 1.60656,0.395316 1.54917,0.06542 6.68805,-2.076634 6.6392,0.800665 -0.0314,1.782939 -0.52106,3.623534 -0.72576,5.400628 -0.12445,1.073514 -0.0502,1.855338 -1.27605,1.734353 -1.63523,-0.161634 -2.75368,-0.199142 -4.42613,0.06106 -0.92113,0.144275 -1.46172,0.343242 -2.91669,0.187453 -0.53266,-0.05844 -2.01757,-0.552676 -2.48394,-0.403778 -0.68736,0.21868 -1.19678,2.448749 -1.42939,3.102347 -0.76527,2.137694 -0.96202,4.363663 -0.71895,6.618766 0.15818,1.470052 0.54533,2.851742 1.16873,4.192782 0.72224,1.55842 1.3217,1.46848 3.03253,1.56731 1.89343,0.10939 3.71322,-0.34969 5.58803,-0.52302 1.18281,-0.10929 2.77655,-0.0236 3.37668,1.20959 0.40706,0.83626 0.51457,1.88657 0.89953,2.75998 0.30937,0.70131 0.66104,1.38003 1.02391,2.05465 0.17562,0.32562 0.74111,0.90996 0.66784,1.33564 -0.0779,0.45245 -0.13466,0.54508 -0.3254,0.6474 -0.13259,0.0707 -0.32896,0.10764 -0.5588,0.12099 z m 44.0603,-0.027 c -0.50428,0.0244 -1.24981,-0.0911 -1.5333,-0.0903 -1.48288,0.009 -2.96711,0 -4.44999,0 -1.62592,-0.009 -2.23732,-0.44634 -3.09216,-1.85359 -0.60245,-0.99204 -1.02967,-2.10987 -1.43789,-3.19263 -0.71411,-1.89581 -1.27779,-3.8266 -1.68834,-5.80955 -0.9502,-4.589321 -0.51072,-9.608763 1.24197,-13.944513 0.88508,-2.190031 2.17836,-4.292921 2.6901,-6.60856 0.60129,-2.718021 0.55255,-5.89111 0.16526,-8.63591 -0.53849,-3.81247 -2.32273,-7.307779 -2.8775,-11.102803 -0.27564,-1.884123 -0.10319,-3.823199 0.10733,-5.707322 0.0791,-0.715268 0.0281,-1.788957 0.76665,-2.075064 0.53267,-0.204724 1.59539,0.0087 2.16877,0.0087 0.72225,0 1.44311,0 2.16536,0 0,0.131365 4.11075,-0.167914 4.4108,0.01657 0.74784,0.461697 -0.17823,2.001444 -0.3271,2.817897 -0.40124,2.199277 0.14758,4.522418 0.85354,6.591463 1.4538,4.260211 2.29807,8.444969 2.37832,12.981954 0.0523,3.001861 -0.59925,5.896431 -1.75648,8.659811 -0.92927,2.217857 -2.16162,4.37666 -2.92691,6.656186 -1.53404,4.566119 -0.79271,9.61801 0.60992,14.116611 0.642,2.06207 1.69167,3.82913 2.68839,5.72607 0.25936,0.49424 0.7711,1.07831 0.24192,1.3714 -0.0881,0.0489 -0.23056,0.0724 -0.39866,0.0803 z m -33.38171,-0.0715 c -1.26393,0.009 -2.52819,0.009 -3.79066,-0.0157 -1.2933,-0.0236 -1.65895,-0.64898 -2.18581,-1.79228 -0.42451,-0.91763 -0.67961,-1.89371 -0.9285,-2.87066 -0.57454,-2.25162 -1.06067,-4.5376 -1.26071,-6.855594 -0.28379,-3.290236 -0.0782,-6.750916 0.73598,-9.956192 1.14095,-4.488225 2.71106,-9.119066 2.85876,-13.775902 0.14421,-4.57772 -2.45234,-8.914255 -3.14668,-13.39428 -0.37799,-2.440026 -0.2331,-4.89113 -0.10052,-7.342757 0.036,-0.666421 -0.19642,-2.43959 0.33393,-2.879218 0.45241,-0.373336 2.19691,-0.06629 2.7889,-0.06629 1.17001,0 2.34349,-0.0314 3.51467,-0.0087 0.95951,0.02093 1.28081,0.08461 1.32035,1.114249 0.0674,1.803873 -0.13173,3.595272 -0.0119,5.410833 0.26749,4.09849 2.40355,7.590485 2.9746,11.583255 0.30006,2.094603 0.33546,4.37099 0.22148,6.480771 -0.0652,1.204879 -0.54103,2.441072 -0.57243,3.613415 -0.0186,0.701313 -0.0496,0.495106 0.61332,0.695119 0.43148,0.129098 1.03891,0.219553 1.48901,0.23002 2.75872,0.06978 4.0757,-4.150739 4.58627,-6.259299 1.0793,-4.452112 -0.25563,-8.215734 -1.4396,-12.475944 -1.12233,-4.033418 0.53407,-7.891508 1.05628,-11.908702 0.47684,-3.661216 0.45273,-2.779255 -0.49748,-6.364845 -0.23144,-0.875768 -0.93206,-2.069307 -0.92508,-2.969499 0.007,-1.057202 1.78612,-0.6372 2.79912,-0.615044 1.35843,0.02791 3.28734,-0.102842 4.07007,0.335565 0.52686,0.295441 0.81263,1.58528 0.95917,2.15514 1.03859,4.052085 1.32746,3.529415 0.70873,7.698909 -0.30589,2.05631 -1.04564,3.792581 -1.25731,5.867471 -0.20237,1.978329 -0.12901,4.062465 0.35947,5.984968 0.96184,3.793803 1.9227,7.431904 1.83315,11.435054 -0.0523,2.342331 -0.67836,4.603714 -1.87744,6.620423 -0.56641,0.951395 -1.23097,1.867113 -1.99159,2.673099 -0.66293,0.702446 -1.62813,1.143732 -1.28968,2.134641 0.36751,1.075869 1.05602,1.883599 1.26071,3.051319 0.14771,0.846721 0.42248,2.276386 0.44806,3.134709 0.0535,1.81434 0.16028,3.169513 0.17889,4.984987 0.0384,3.653104 0.0956,7.290249 -0.27429,10.937509 -0.093,0.92933 -0.20248,2.13665 -0.84332,2.88096 -0.54197,0.63153 -1.11375,0.51002 -1.90811,0.50767 -2.08451,-0.009 -4.16966,1.7e-4 -6.25417,0 0.0851,0 -0.0863,0 -0.76665,0 -1.26248,0 -2.52503,0.0113 -3.78896,0.0174 z m 3.81622,-6.64258 c 0.75554,-0.027 1.48123,-0.16425 1.88597,-0.57248 0.9595,-0.96648 0.53033,-3.453699 0.5094,-4.795787 -0.0465,-2.940191 0.0373,-5.245188 -0.27089,-8.172557 -0.26982,-2.563278 -1.5766,-2.589621 -3.87244,-2.586132 -1.47822,0 -1.76381,0.516651 -2.10574,1.877406 -0.28959,1.153763 -0.5265,2.320785 -0.71724,3.494262 -0.21416,1.504681 -0.17554,1.277278 -0.10052,0.7854 -0.35951,2.909748 -0.37652,5.738898 0.68318,8.562638 0.39194,1.04438 0.86383,1.23393 1.92684,1.31182 0.52163,0.0375 1.30591,0.12203 2.06144,0.0954 z m -4.67146,-9.969888 c 0.0323,-0.261422 0.0632,-0.522669 0.10052,-0.7854 0.17163,-1.052928 -8.7e-4,0.133982 -0.10052,0.7854 z M 444.5004,44.595577 c -0.80831,-0.01745 -1.40894,-0.558957 -1.40894,-1.277714 0,-0.861812 0.64257,-1.170948 1.28457,-1.391896 0.45126,-0.147677 0.53495,-0.237434 0.53495,-0.403778 0,-0.130231 -0.1012,-0.272587 -0.36288,-0.272587 -0.26169,0 -0.62995,0.130057 -0.96257,0.468501 l -0.64229,-0.783655 c 0.45243,-0.464053 1.01564,-0.67811 1.56227,-0.67811 0.70712,0 1.59293,0.33984 1.59293,1.397042 0,0.814098 -0.56454,0.999632 -1.31353,1.284518 -0.428,0.166343 -0.51621,0.278955 -0.51621,0.420874 0,0.148811 0.0952,0.250432 0.29644,0.250432 0.20818,0 0.43374,-0.09499 0.80243,-0.379965 l 0.62524,0.800752 c -0.39194,0.351267 -0.90973,0.577274 -1.49241,0.565586 z m 32.86379,0 c -0.80831,-0.01745 -1.40894,-0.558957 -1.40894,-1.277714 0,-0.861812 0.64257,-1.170948 1.28457,-1.391896 0.45126,-0.147677 0.53495,-0.237434 0.53495,-0.403778 0,-0.130231 -0.1012,-0.272587 -0.36288,-0.272587 -0.26168,0 -0.63165,0.130057 -0.96427,0.468501 l -0.64059,-0.783655 c 0.45126,-0.464053 1.01564,-0.67811 1.56227,-0.67811 0.70712,0 1.59293,0.33984 1.59293,1.397042 0,0.814098 -0.56453,0.999632 -1.31353,1.284518 -0.428,0.166343 -0.51621,0.278955 -0.51621,0.420874 0,0.148811 0.0941,0.250432 0.29644,0.250432 0.20818,0 0.43374,-0.09499 0.80243,-0.379965 l 0.62525,0.800752 c -0.39311,0.351267 -0.90974,0.577274 -1.49242,0.565586 z m -60.32184,-0.05931 -1.5333,-4.219999 1.18405,0 0.21296,0.683169 1.35612,0 0.21296,-0.683169 1.17723,0 -1.52819,4.219999 -1.08183,0 z m 8.26791,0 0,-4.219999 1.09205,0 0,1.289665 0.26237,0 0.79731,-1.289665 1.31353,0 -0.95746,1.461766 0,0.0087 c 0.45126,0.215104 0.71895,0.635107 0.71895,1.253901 0,0.867569 -0.4754,1.497529 -1.53842,1.497529 l -1.68833,0 z m 8.8659,0 0,-1.005214 1.0716,0 0,-3.214785 1.12272,0 0,3.214785 1.06991,0 0,1.005214 -3.26423,0 z m 24.42551,0 0,-4.219999 1.09376,0 0,1.420856 1.48048,0 0,0.998323 -1.48048,0 0,0.795606 1.80759,0 0,1.005214 -2.90135,0 z m 8.70064,0 0,-4.219999 2.93032,0 0,1.00347 -1.83827,0 0,0.594546 1.33739,0 0,0.981313 -1.33739,0 0,0.635456 1.71219,0 0,1.005214 -2.80424,0 z m 17.23944,0 0,-1.005214 1.06991,0 0,-3.214785 1.12442,0 0,3.214785 1.0699,0 0,1.005214 -3.26423,0 z m 9.05841,0 0,-4.219999 1.14657,0 0,4.219999 -1.14657,0 z m 6.83853,0 1.54523,-4.219999 0.99154,0 1.54011,4.219999 -1.21812,0 -0.81436,-2.610033 -0.012,0 -0.80242,2.610033 -1.23006,0 z m 10.4469,0 -1.53159,-4.219999 1.18234,0 0.21467,0.683169 1.35441,0 0.21296,-0.683169 1.17724,0 -1.52819,4.219999 -1.08184,0 z m 8.26792,0 0,-4.219999 2.81105,0 0,1.00347 -1.6747,0 0,3.216529 -1.13635,0 z m -92.7512,-0.99152 0.34584,0 c 0.41056,0 0.61844,-0.220512 0.61844,-0.482195 0,-0.314021 -0.26255,-0.480452 -0.61844,-0.480452 l -0.34584,0 0,0.962647 z m -8.82501,-0.379964 0.0136,0 0.37991,-1.219795 -0.77346,0 0.37991,1.219795 z m 93.84325,0 0.0136,0 0.37992,-1.219795 -0.77347,0 0.37993,1.219795 z"
       id="path6232"
       inkscape:connector-curvature="0" /></g></svg>