<?xml version="1.0" encoding="UTF-8" standalone="no"?>
<!-- Created with Inkscape (http://www.inkscape.org/) -->

<svg
   xmlns:dc="http://purl.org/dc/elements/1.1/"
   xmlns:cc="http://creativecommons.org/ns#"
   xmlns:rdf="http://www.w3.org/1999/02/22-rdf-syntax-ns#"
   xmlns:svg="http://www.w3.org/2000/svg"
   xmlns="http://www.w3.org/2000/svg"
   xmlns:sodipodi="http://sodipodi.sourceforge.net/DTD/sodipodi-0.dtd"
   xmlns:inkscape="http://www.inkscape.org/namespaces/inkscape"
   width="300"
   height="300"
   id="svg2"
   version="1.1"
   inkscape:version="0.92.4 (5da689c313, 2019-01-14)"
   sodipodi:docname="greenwarrior.svg"
   inkscape:export-filename="/Users/logan/Pictures/newlogo-desktop.png"
   inkscape:export-xdpi="72"
   inkscape:export-ydpi="72"
   viewBox="0 0 300 300">
  <defs
     id="defs4">
    <linearGradient
       id="linearGradient4157">
      <stop
         style="stop-color:#a7e1a7;stop-opacity:1;"
         offset="0"
         id="stop4159" />
      <stop
         style="stop-color:#476cbe;stop-opacity:1;"
         offset="1"
         id="stop4161" />
    </linearGradient>
    <linearGradient
       id="linearGradient3872">
      <stop
         style="stop-color:#002f61;stop-opacity:1;"
         offset="0"
         id="stop3874" />
      <stop
         style="stop-color:#000000;stop-opacity:1;"
         offset="1"
         id="stop3876" />
    </linearGradient>
    <filter
       id="filter4141"
       x="-0.15000001"
       width="1.3"
       y="-0.15000001"
       height="1.3"
       inkscape:menu-tooltip="Felt like texture with color turbulence and slightly darker at the edges"
       inkscape:menu="Textures"
       inkscape:label="Felt"
       style="color-interpolation-filters:sRGB">
      <feGaussianBlur
         id="feGaussianBlur4143"
         result="result1"
         in="SourceGraphic"
         stdDeviation="2" />
      <feTurbulence
         id="feTurbulence4145"
         result="result0"
         numOctaves="5"
         baseFrequency="0.05"
         type="fractalNoise" />
      <feDisplacementMap
         id="feDisplacementMap4147"
         in2="result0"
         result="result2"
         scale="20"
         yChannelSelector="G"
         xChannelSelector="R"
         in="result1" />
      <feGaussianBlur
         id="feGaussianBlur4149"
         result="result4"
         in="result2"
         stdDeviation="5" />
      <feComposite
         id="feComposite4151"
         in2="result4"
         result="result6"
         k1="1"
         k3="1"
         k2="0.5"
         in="result0"
         operator="arithmetic"
         k4="0" />
      <feComposite
         id="feComposite4153"
         in2="result0"
         in="result6"
         operator="in"
         result="result91" />
      <feComposite
         id="feComposite4155"
         in2="result91"
         operator="arithmetic"
         k1="1.5"
         in="result2"
         k2="0"
         k3="0"
         k4="0" />
    </filter>
  </defs>
  <sodipodi:namedview
     id="base"
     pagecolor="#ffffff"
     bordercolor="#666666"
     borderopacity="1.0"
     inkscape:pageopacity="0.0"
     inkscape:pageshadow="2"
     inkscape:zoom="0.19"
     inkscape:cx="243.3187"
     inkscape:cy="118.70479"
     inkscape:document-units="px"
     inkscape:current-layer="layer1"
     showgrid="false"
     inkscape:window-width="1920"
     inkscape:window-height="1156"
     inkscape:window-x="54"
     inkscape:window-y="22"
     inkscape:window-maximized="0"
     fit-margin-top="0"
     fit-margin-left="0"
     fit-margin-right="0"
     fit-margin-bottom="0"
     inkscape:snap-global="false"
     showguides="true"
     inkscape:snap-bbox="true"
     inkscape:bbox-nodes="true"
     inkscape:snap-bbox-edge-midpoints="true"
     inkscape:snap-bbox-midpoints="true"
     inkscape:bbox-paths="true"
     inkscape:object-paths="true"
     inkscape:snap-intersection-paths="true"
     inkscape:object-nodes="true"
     inkscape:snap-smooth-nodes="true"
     inkscape:snap-midpoints="true"
     inkscape:snap-object-midpoints="true"
     inkscape:snap-center="true"
     borderlayer="true" />
  <metadata
     id="metadata7">
    <rdf:RDF>
      <cc:Work
         rdf:about="">
        <dc:format>image/svg+xml</dc:format>
        <dc:type
           rdf:resource="http://purl.org/dc/dcmitype/StillImage" />
        <dc:title></dc:title>
      </cc:Work>
    </rdf:RDF>
  </metadata>
  <g
     inkscape:label="Layer 1"
     inkscape:groupmode="layer"
     id="layer1"
     transform="translate(-198.94752,-478.71598)">
    <g
       id="g40"
       transform="matrix(1.0240002,0,0,1.0240002,281.42015,-26.566275)"
       style="stroke-width:0.97656232">
      <circle
         style="opacity:1;fill:#ffffff;fill-opacity:1;stroke:none;stroke-width:2.94240355;stroke-linecap:round;stroke-linejoin:round;stroke-miterlimit:4;stroke-dasharray:none;stroke-opacity:1"
         id="circle4379"
         cx="65.944679"
         cy="639.92395"
         r="146.48434"
         inkscape:export-xdpi="320.00006"
         inkscape:export-ydpi="320.00006" />
      <g
         transform="matrix(13.120828,0,0,13.120828,415.31805,-12997.734)"
         id="g4402"
         style="fill:#005951;fill-opacity:1;stroke:none;stroke-width:0.59326881;stroke-miterlimit:4;stroke-dasharray:none;stroke-opacity:1">
        <path
           inkscape:connector-curvature="0"
           id="path4404"
           transform="translate(-57.74252,1027.2905)"
           d="m 31.115234,2.1425781 a 9.9567804,9.9567804 0 0 0 -9.392578,6.6875 l 5.097656,1.4921879 c 1.011448,-1.3376004 2.475406,-2.0211379 4.152344,-2.0234379 1.757562,10e-5 2.985914,0.7290813 3.94336,2.0507809 0.405314,0.5595 1.465353,2.769788 0.523437,4.117188 2.096754,-0.8361 2.897948,0.467641 2.691406,1.994141 -0.284031,2.099376 -1.413936,3.47715 -3.505859,4.951171 a 9.9567804,9.9567804 0 0 0 6.447266,-9.3125 9.9567804,9.9567804 0 0 0 -9.957032,-9.9570309 z"
           style="opacity:1;fill:#005951;fill-opacity:1;stroke:none;stroke-width:0.59326881;stroke-linecap:round;stroke-linejoin:round;stroke-miterlimit:4;stroke-dasharray:none;stroke-opacity:1" />
        <path
           sodipodi:nodetypes="cscccccccsccccccccccssc"
           inkscape:connector-curvature="0"
           id="path4406"
           d="m -26.714881,1036.3942 c -1.730615,-0.02 -3.209932,0.9761 -3.996093,2.3887 -0.850297,1.5278 -1.528988,3.2146 -2.171877,4.5937 0.567904,-0.477 1.125526,-0.9836 1.707031,-1.4199 6e-4,0 0.0013,0.01 0.002,0.01 0.195834,-0.1479 0.393252,-0.2897 0.595703,-0.4179 0.213343,-0.1299 0.429058,-0.2535 0.654297,-0.3477 0.06533,-0.4791 0.259302,-0.8977 0.438565,-1.3492 l 2.356357,1.0172 c -0.861249,0.6471 -1.81131,1.3686 -2.562501,1.8882 -0.909373,0.629 -1.662166,1.0121 -2.03125,0.9297 0.107458,0.5156 -0.3075,1.6731 -1.019531,3.1973 2.775499,0.1234 5.627884,0.4204 6.611328,-3.4883 l 0.11914,0.012 c 0.269449,1.2137 0.596242,2.4268 1.253907,3.6407 0.813607,-1.2501 1.907599,-1.7519 2.980468,-2.3106 -0.724039,-0.4086 -1.433658,-0.8229 -1.886718,-1.3398 -0.377862,0.2737 -0.796041,0.4733 -1.238282,0.5527 0.01444,-0.01 0.03393,-0.023 0.04883,-0.031 1.511851,-0.6151 2.494751,-2.0287 2.5,-3.5957 4.19e-4,-2.1669 -1.842317,-3.8949 -4.115235,-3.9238 -0.0489,-6e-4 -0.102209,0 -0.144577,0 z"
           style="opacity:1;fill:#005951;fill-opacity:1;stroke:none;stroke-width:0.59326881;stroke-linecap:round;stroke-linejoin:round;stroke-miterlimit:4;stroke-dasharray:none;stroke-opacity:1" />
      </g>
    </g>
  </g>
</svg>
