<?xml version="1.0" encoding="UTF-8" standalone="no"?>
<!-- Created with Inkscape (http://www.inkscape.org/) -->

<svg
   xmlns:dc="http://purl.org/dc/elements/1.1/"
   xmlns:cc="http://creativecommons.org/ns#"
   xmlns:rdf="http://www.w3.org/1999/02/22-rdf-syntax-ns#"
   xmlns:svg="http://www.w3.org/2000/svg"
   xmlns="http://www.w3.org/2000/svg"
   xmlns:sodipodi="http://sodipodi.sourceforge.net/DTD/sodipodi-0.dtd"
   xmlns:inkscape="http://www.inkscape.org/namespaces/inkscape"
   id="svg6564"
   version="1.1"
   inkscape:version="0.91+devel+osxmenu r12922"
   width="1782.6606"
   height="1782.6606"
   viewBox="0 0 1782.6606 1782.6606"
   sodipodi:docname="gryphon_theatre_full.svg">
  <metadata
     id="metadata6570">
    <rdf:RDF>
      <cc:Work
         rdf:about="">
        <dc:format>image/svg+xml</dc:format>
        <dc:type
           rdf:resource="http://purl.org/dc/dcmitype/StillImage" />
        <dc:title></dc:title>
      </cc:Work>
    </rdf:RDF>
  </metadata>
  <defs
     id="defs6568" />
  <sodipodi:namedview
     pagecolor="#ffffff"
     bordercolor="#666666"
     borderopacity="1"
     objecttolerance="10"
     gridtolerance="10"
     guidetolerance="10"
     inkscape:pageopacity="0"
     inkscape:pageshadow="2"
     inkscape:window-width="1920"
     inkscape:window-height="1155"
     id="namedview6566"
     inkscape:document-units="px"
     showgrid="false"
     inkscape:zoom="0.25809398"
     inkscape:cx="-648.07636"
     inkscape:cy="898.21428"
     inkscape:window-x="0"
     inkscape:window-y="23"
     inkscape:window-maximized="0"
     inkscape:current-layer="svg6564"
     inkscape:snap-smooth-nodes="true"
     fit-margin-top="0"
     fit-margin-left="0"
     fit-margin-right="0"
     fit-margin-bottom="0" />
  <g
     id="g6659"
     transform="translate(140.35318,507.9336)">
    <g
       id="text6574"
       aria-label="GryphonTheatre"
       style="font-style:normal;font-weight:normal;font-size:216.7772522px;line-height:87.99999952%;font-family:sans-serif;letter-spacing:4.07999992px;word-spacing:0px;fill:#b42025;fill-opacity:1;stroke:none;stroke-width:5.41943121px;stroke-linecap:butt;stroke-linejoin:miter;stroke-opacity:1">
      <path
         id="path6631"
         style="font-style:normal;font-variant:normal;font-weight:bold;font-stretch:normal;line-height:87.99999952%;font-family:'Helvetica Neue';-inkscape-font-specification:'Helvetica Neue Bold';letter-spacing:4.07999992px;fill:#b42025;fill-opacity:1;stroke-width:5.41943121px"
         d="m 737.66491,536.16162 3.46844,17.55896 21.67772,0 0,-83.67602 -65.03317,0 0,25.36294 34.2508,0 q -1.51744,16.25829 -10.83886,24.92938 -9.10464,8.45432 -26.01327,8.45432 -11.48919,0 -19.50995,-4.33555 -8.02076,-4.55232 -13.00664,-11.92275 -4.98587,-7.37042 -7.37042,-16.47507 -2.16778,-9.32142 -2.16778,-19.0764 0,-10.18853 2.16778,-19.72673 2.38455,-9.5382 7.37042,-16.90862 4.98588,-7.58721 13.00664,-11.92275 8.02076,-4.55232 19.50995,-4.55232 12.3563,0 21.02739,6.50331 8.67109,6.50332 11.70598,19.50996 l 32.51658,0 q -1.30066,-13.22342 -7.15365,-23.41195 -5.85298,-10.18853 -14.95763,-17.1254 -8.88786,-6.93687 -20.16028,-10.40531 -11.05564,-3.68521 -22.97839,-3.68521 -17.77573,0 -32.08303,6.28654 -14.09052,6.28654 -23.8455,17.34218 -9.75498,11.05564 -14.95763,26.01327 -5.20265,14.74085 -5.20265,32.08303 0,16.90863 5.20265,31.64948 5.20265,14.52408 14.95763,25.36294 9.75498,10.83886 23.8455,17.1254 14.3073,6.06977 32.08303,6.06977 11.27242,0 22.32806,-4.55233 11.05564,-4.76909 20.16028,-16.47507 z"
         inkscape:connector-curvature="0" />
      <path
         id="path6633"
         style="font-style:normal;font-variant:normal;font-weight:bold;font-stretch:normal;line-height:87.99999952%;font-family:'Helvetica Neue';-inkscape-font-specification:'Helvetica Neue Bold';letter-spacing:4.07999992px;fill:#b42025;fill-opacity:1;stroke-width:5.41943121px"
         d="m 781.3361,441.64674 0,112.07384 30.78237,0 0,-50.5091 q 0,-7.5872 1.51744,-14.09052 1.51744,-6.50332 4.98588,-11.27242 3.68521,-4.98587 9.5382,-7.80398 5.85298,-2.8181 14.30729,-2.8181 2.81811,0 5.85299,0.43355 3.03488,0.21678 5.20265,0.65033 l 0,-28.61459 q -3.68521,-1.08389 -6.72009,-1.08389 -5.85299,0 -11.27242,1.73422 -5.41943,1.73422 -10.18853,4.98587 -4.7691,3.03489 -8.45431,7.58721 -3.68522,4.33554 -5.85299,9.5382 l -0.43355,0 0,-20.81062 -29.26493,0 z"
         inkscape:connector-curvature="0" />
      <path
         id="path6635"
         style="font-style:normal;font-variant:normal;font-weight:bold;font-stretch:normal;line-height:87.99999952%;font-family:'Helvetica Neue';-inkscape-font-specification:'Helvetica Neue Bold';letter-spacing:4.07999992px;fill:#b42025;fill-opacity:1;stroke-width:5.41943121px"
         d="m 927.67112,567.59433 46.82389,-125.94759 -31.86626,0 -24.49583,76.73915 -0.43355,0 -25.36294,-76.73915 -32.73337,0 39.23669,105.13697 q 1.30066,3.25166 1.30066,6.93687 0,4.98588 -3.03488,9.10465 -2.81811,4.11876 -8.88787,4.7691 -4.55232,0.21677 -9.10464,-0.21678 -4.55233,-0.43356 -8.88787,-0.86711 l 0,25.36294 q 4.7691,0.43355 9.32142,0.65033 4.7691,0.43355 9.5382,0.43355 15.82474,0 24.71261,-5.85298 8.88786,-5.85299 13.87374,-19.50995 z"
         inkscape:connector-curvature="0" />
      <path
         id="path6637"
         style="font-style:normal;font-variant:normal;font-weight:bold;font-stretch:normal;line-height:87.99999952%;font-family:'Helvetica Neue';-inkscape-font-specification:'Helvetica Neue Bold';letter-spacing:4.07999992px;fill:#b42025;fill-opacity:1;stroke-width:5.41943121px"
         d="m 1041.4404,533.5603 q -7.3704,0 -12.5731,-3.03488 -5.2026,-3.03489 -8.4543,-7.80399 -3.0349,-4.98587 -4.5523,-11.48919 -1.3007,-6.50332 -1.3007,-13.22341 0,-6.93687 1.3007,-13.44019 1.3007,-6.50332 4.3355,-11.4892 3.2517,-4.98587 8.2376,-8.02076 5.2026,-3.25165 12.7898,-3.25165 7.3705,0 12.3563,3.25165 5.2027,3.03489 8.4544,8.23754 3.2516,4.98588 4.5523,11.48919 1.5174,6.50332 1.5174,13.22342 0,6.72009 -1.3006,13.22341 -1.3007,6.50332 -4.5524,11.48919 -3.0349,4.7691 -8.2375,7.80399 -4.9859,3.03488 -12.5731,3.03488 z m -56.57885,-91.91356 0,151.31052 30.78235,0 0,-53.11042 0.4336,0 q 5.6362,8.23753 14.3073,12.57308 8.8878,4.11877 19.2931,4.11877 12.3564,0 21.461,-4.7691 9.3214,-4.7691 15.3912,-12.78986 6.2865,-8.02076 9.3214,-18.42607 3.0349,-10.40531 3.0349,-21.67772 0,-11.92275 -3.0349,-22.76162 -3.0349,-11.05564 -9.3214,-19.29317 -6.2866,-8.23754 -15.8248,-13.22341 -9.5382,-4.98588 -22.7616,-4.98588 -10.4053,0 -19.0764,4.11877 -8.6711,4.11877 -14.3073,13.22341 l -0.4335,0 0,-14.3073 -29.26495,0 z"
         inkscape:connector-curvature="0" />
      <path
         id="path6639"
         style="font-style:normal;font-variant:normal;font-weight:bold;font-stretch:normal;line-height:87.99999952%;font-family:'Helvetica Neue';-inkscape-font-specification:'Helvetica Neue Bold';letter-spacing:4.07999992px;fill:#b42025;fill-opacity:1;stroke-width:5.41943121px"
         d="m 1112.653,398.94162 0,154.77896 30.7824,0 0,-58.74663 q 0,-17.12541 5.6362,-24.49583 5.6362,-7.58721 18.2093,-7.58721 11.0556,0 15.3912,6.93687 4.3355,6.7201 4.3355,20.59384 l 0,63.29896 30.7824,0 0,-68.93517 q 0,-10.4053 -1.951,-18.85962 -1.7342,-8.67109 -6.2865,-14.52407 -4.5524,-6.06977 -12.5731,-9.32142 -7.804,-3.46844 -20.1603,-3.46844 -8.6711,0 -17.7757,4.55232 -9.1047,4.33555 -14.9577,14.09052 l -0.6503,0 0,-58.31308 -30.7824,0 z"
         inkscape:connector-curvature="0" />
      <path
         id="path6641"
         style="font-style:normal;font-variant:normal;font-weight:bold;font-stretch:normal;line-height:87.99999952%;font-family:'Helvetica Neue';-inkscape-font-specification:'Helvetica Neue Bold';letter-spacing:4.07999992px;fill:#b42025;fill-opacity:1;stroke-width:5.41943121px"
         d="m 1263.714,497.79205 q 0,-6.72009 1.3007,-13.22341 1.3006,-6.50332 4.3355,-11.4892 3.2517,-4.98587 8.4543,-8.02076 5.2027,-3.25165 13.0067,-3.25165 7.8039,0 13.0066,3.25165 5.4194,3.03489 8.4543,8.02076 3.2517,4.98588 4.5523,11.4892 1.3007,6.50332 1.3007,13.22341 0,6.72009 -1.3007,13.22341 -1.3006,6.28654 -4.5523,11.4892 -3.0349,4.98587 -8.4543,8.02076 -5.2027,3.03488 -13.0066,3.03488 -7.804,0 -13.0067,-3.03488 -5.2026,-3.03489 -8.4543,-8.02076 -3.0349,-5.20266 -4.3355,-11.4892 -1.3007,-6.50332 -1.3007,-13.22341 z m -30.7824,0 q 0,13.44019 4.1188,24.27905 4.1188,10.83886 11.706,18.64285 7.5872,7.5872 18.2093,11.70597 10.622,4.11877 23.8455,4.11877 13.2234,0 23.8455,-4.11877 10.8388,-4.11877 18.426,-11.70597 7.5872,-7.80399 11.706,-18.64285 4.1188,-10.83886 4.1188,-24.27905 0,-13.44019 -4.1188,-24.27905 -4.1188,-11.05564 -11.706,-18.64285 -7.5872,-7.80398 -18.426,-11.92274 -10.6221,-4.33555 -23.8455,-4.33555 -13.2235,0 -23.8455,4.33555 -10.6221,4.11876 -18.2093,11.92274 -7.5872,7.58721 -11.706,18.64285 -4.1188,10.83886 -4.1188,24.27905 z"
         inkscape:connector-curvature="0" />
      <path
         id="path6643"
         style="font-style:normal;font-variant:normal;font-weight:bold;font-stretch:normal;line-height:87.99999952%;font-family:'Helvetica Neue';-inkscape-font-specification:'Helvetica Neue Bold';letter-spacing:4.07999992px;fill:#b42025;fill-opacity:1;stroke-width:5.41943121px"
         d="m 1359.9576,441.64674 0,112.07384 30.7824,0 0,-58.74663 q 0,-17.12541 5.6362,-24.49583 5.6362,-7.58721 18.2093,-7.58721 11.0556,0 15.3912,6.93687 4.3355,6.7201 4.3355,20.59384 l 0,63.29896 30.7824,0 0,-68.93517 q 0,-10.4053 -1.951,-18.85962 -1.7342,-8.67109 -6.2865,-14.52407 -4.5524,-6.06977 -12.5731,-9.32142 -7.804,-3.46844 -20.1603,-3.46844 -9.755,0 -19.0764,4.55232 -9.3214,4.33555 -15.1744,14.09052 l -0.6504,0 0,-15.60796 -29.2649,0 z"
         inkscape:connector-curvature="0" />
      <path
         id="path6645"
         style="font-style:normal;font-variant:normal;font-weight:bold;font-stretch:normal;line-height:87.99999952%;font-family:'Helvetica Neue';-inkscape-font-specification:'Helvetica Neue Bold';letter-spacing:4.07999992px;fill:#b42025;fill-opacity:1;stroke-width:5.41943121px"
         d="m 660.05866,618.3202 0,126.16436 34.03402,0 0,-126.16436 46.39034,0 0,-28.6146 -126.8147,0 0,28.6146 46.39034,0 z"
         inkscape:connector-curvature="0" />
      <path
         id="path6647"
         style="font-style:normal;font-variant:normal;font-weight:bold;font-stretch:normal;line-height:87.99999952%;font-family:'Helvetica Neue';-inkscape-font-specification:'Helvetica Neue Bold';letter-spacing:4.07999992px;fill:#b42025;fill-opacity:1;stroke-width:5.41943121px"
         d="m 753.11375,589.7056 0,154.77896 30.78237,0 0,-58.74663 q 0,-17.12541 5.63621,-24.49583 5.6362,-7.58721 18.20929,-7.58721 11.05563,0 15.39118,6.93688 4.33555,6.72009 4.33555,20.59383 l 0,63.29896 30.78236,0 0,-68.93516 q 0,-10.40531 -1.95099,-18.85963 -1.73422,-8.67109 -6.28654,-14.52407 -4.55232,-6.06976 -12.57308,-9.32142 -7.80398,-3.46844 -20.16029,-3.46844 -8.67109,0 -17.77573,4.55232 -9.10465,4.33555 -14.95763,14.09052 l -0.65033,0 0,-58.31308 -30.78237,0 z"
         inkscape:connector-curvature="0" />
      <path
         id="path6649"
         style="font-style:normal;font-variant:normal;font-weight:bold;font-stretch:normal;line-height:87.99999952%;font-family:'Helvetica Neue';-inkscape-font-specification:'Helvetica Neue Bold';letter-spacing:4.07999992px;fill:#b42025;fill-opacity:1;stroke-width:5.41943121px"
         d="m 953.29926,676.4165 -50.07555,0 q 0.21678,-3.25165 1.30066,-7.37042 1.30067,-4.11877 4.11877,-7.80398 3.03488,-3.68522 7.80398,-6.06977 4.98588,-2.60132 12.35631,-2.60132 11.27241,0 16.69184,6.06976 5.63621,6.06976 7.80399,17.77573 z m -50.07555,19.50996 80.85792,0 q 0.8671,-13.00664 -2.16778,-24.92939 -3.03488,-11.92275 -9.97175,-21.24417 -6.7201,-9.32142 -17.34218,-14.74085 -10.62209,-5.63621 -24.92938,-5.63621 -12.78986,0 -23.41195,4.55232 -10.40531,4.55233 -17.99251,12.57308 -7.5872,7.80399 -11.70597,18.64285 -4.11877,10.83886 -4.11877,23.41194 0,13.00664 3.90199,23.8455 4.11877,10.83886 11.4892,18.64284 7.37042,7.80398 17.99251,12.13953 10.62208,4.11877 23.8455,4.11877 19.07639,0 32.51658,-8.67109 13.44019,-8.67109 19.94351,-28.83138 l -27.09716,0 q -1.51744,5.20266 -8.23753,9.97176 -6.7201,4.55232 -16.04152,4.55232 -13.00663,0 -19.94351,-6.7201 -6.93687,-6.72009 -7.5872,-21.67772 z"
         inkscape:connector-curvature="0" />
      <path
         id="path6651"
         style="font-style:normal;font-variant:normal;font-weight:bold;font-stretch:normal;line-height:87.99999952%;font-family:'Helvetica Neue';-inkscape-font-specification:'Helvetica Neue Bold';letter-spacing:4.07999992px;fill:#b42025;fill-opacity:1;stroke-width:5.41943121px"
         d="m 997.07322,666.87831 q 0.65033,-10.83887 5.41938,-17.99252 4.7691,-7.15365 12.1396,-11.48919 7.3704,-4.33555 16.475,-6.06976 9.3215,-1.951 18.6429,-1.951 8.4543,0 17.1254,1.30066 8.6711,1.08389 15.8247,4.55233 7.1537,3.46843 11.706,9.75497 4.5523,6.06977 4.5523,16.2583 l 0,58.31308 q 0,7.5872 0.8671,14.52407 0.8671,6.93688 3.0349,10.40531 l -31.2159,0 q -0.8671,-2.60133 -1.5175,-5.20265 -0.4335,-2.81811 -0.6503,-5.63621 -7.3704,7.5872 -17.3422,10.62208 -9.9717,3.03489 -20.377,3.03489 -8.0208,0 -14.9577,-1.951 -6.9368,-1.95099 -12.1395,-6.06976 -5.20263,-4.11877 -8.23752,-10.40531 -2.8181,-6.28654 -2.8181,-14.95763 0,-9.5382 3.25166,-15.60796 3.46846,-6.28654 8.67106,-9.97176 5.4195,-3.68521 12.1396,-5.41943 6.9368,-1.95099 13.8737,-3.03488 6.9369,-1.08389 13.657,-1.73422 6.7201,-0.65033 11.9227,-1.95099 5.2027,-1.30067 8.2376,-3.68522 3.0348,-2.60132 2.8181,-7.37042 0,-4.98588 -1.7343,-7.80398 -1.5174,-3.03488 -4.3355,-4.55233 -2.6013,-1.73421 -6.2865,-2.16777 -3.4685,-0.65033 -7.5873,-0.65033 -9.1046,0 -14.3073,3.90199 -5.2026,3.90199 -6.0697,13.00664 l -30.78238,0 z m 71.10298,22.76161 q -1.951,1.73422 -4.9859,2.8181 -2.8181,0.86711 -6.2866,1.51744 -3.2516,0.65033 -6.9368,1.08389 -3.6852,0.43355 -7.3705,1.08388 -3.4684,0.65034 -6.9368,1.73422 -3.2517,1.08389 -5.853,3.03488 -2.3846,1.73422 -3.902,4.55233 -1.5175,2.8181 -1.5175,7.15365 0,4.11876 1.5175,6.93687 1.5174,2.8181 4.1188,4.55232 2.6013,1.51744 6.0697,2.16777 3.4685,0.65033 7.1537,0.65033 9.1046,0 14.0905,-3.03488 4.9859,-3.03488 7.3704,-7.15365 2.3846,-4.33554 2.8181,-8.67109 0.6504,-4.33554 0.6504,-6.93687 l 0,-11.48919 z"
         inkscape:connector-curvature="0" />
      <path
         id="path6653"
         style="font-style:normal;font-variant:normal;font-weight:bold;font-stretch:normal;line-height:87.99999952%;font-family:'Helvetica Neue';-inkscape-font-specification:'Helvetica Neue Bold';letter-spacing:4.07999992px;fill:#b42025;fill-opacity:1;stroke-width:5.41943121px"
         d="m 1157.9069,632.41072 0,-33.60047 -30.7824,0 0,33.60047 -18.6428,0 0,20.59384 18.6428,0 0,66.11706 q 0,8.45432 2.8181,13.65697 2.8181,5.20265 7.5872,8.02076 4.9859,2.8181 11.2724,3.68521 6.5033,1.08389 13.657,1.08389 4.5523,0 9.3214,-0.21678 4.7691,-0.21678 8.6711,-0.86711 l 0,-23.8455 q -2.1678,0.43356 -4.5523,0.65034 -2.3846,0.21677 -4.9859,0.21677 -7.804,0 -10.4053,-2.60132 -2.6013,-2.60133 -2.6013,-10.40531 l 0,-55.49498 22.5448,0 0,-20.59384 -22.5448,0 z"
         inkscape:connector-curvature="0" />
      <path
         id="path6655"
         style="font-style:normal;font-variant:normal;font-weight:bold;font-stretch:normal;line-height:87.99999952%;font-family:'Helvetica Neue';-inkscape-font-specification:'Helvetica Neue Bold';letter-spacing:4.07999992px;fill:#b42025;fill-opacity:1;stroke-width:5.41943121px"
         d="m 1198.1333,632.41072 0,112.07384 30.7823,0 0,-50.5091 q 0,-7.5872 1.5175,-14.09052 1.5174,-6.50332 4.9859,-11.27242 3.6852,-4.98587 9.5382,-7.80398 5.853,-2.8181 14.3073,-2.8181 2.8181,0 5.8529,0.43355 3.0349,0.21678 5.2027,0.65033 l 0,-28.61459 q -3.6852,-1.08389 -6.7201,-1.08389 -5.853,0 -11.2724,1.73422 -5.4194,1.73422 -10.1885,4.98588 -4.7691,3.03488 -8.4544,7.5872 -3.6852,4.33554 -5.8529,9.5382 l -0.4336,0 0,-20.81062 -29.2649,0 z"
         inkscape:connector-curvature="0" />
      <path
         id="path6657"
         style="font-style:normal;font-variant:normal;font-weight:bold;font-stretch:normal;line-height:87.99999952%;font-family:'Helvetica Neue';-inkscape-font-specification:'Helvetica Neue Bold';letter-spacing:4.07999992px;fill:#b42025;fill-opacity:1;stroke-width:5.41943121px"
         d="m 1354.6286,676.4165 -50.0756,0 q 0.2168,-3.25165 1.3007,-7.37042 1.3007,-4.11877 4.1188,-7.80398 3.0349,-3.68522 7.804,-6.06977 4.9858,-2.60132 12.3563,-2.60132 11.2724,0 16.6918,6.06976 5.6362,6.06976 7.804,17.77573 z m -50.0756,19.50996 80.858,0 q 0.8671,-13.00664 -2.1678,-24.92939 -3.0349,-11.92275 -9.9718,-21.24417 -6.7201,-9.32142 -17.3422,-14.74085 -10.622,-5.63621 -24.9293,-5.63621 -12.7899,0 -23.412,4.55232 -10.4053,4.55233 -17.9925,12.57308 -7.5872,7.80399 -11.706,18.64285 -4.1187,10.83886 -4.1187,23.41194 0,13.00664 3.902,23.8455 4.1187,10.83886 11.4892,18.64284 7.3704,7.80398 17.9925,12.13953 10.6221,4.11877 23.8455,4.11877 19.0764,0 32.5166,-8.67109 13.4401,-8.67109 19.9435,-28.83138 l -27.0972,0 q -1.5174,5.20266 -8.2375,9.97176 -6.7201,4.55232 -16.0415,4.55232 -13.0067,0 -19.9436,-6.7201 -6.9368,-6.72009 -7.5872,-21.67772 z"
         inkscape:connector-curvature="0" />
    </g>
    <g
       id="g6624">
      <path
         style="fill:#b42025;fill-opacity:1;fill-rule:evenodd;stroke:none;stroke-width:1px;stroke-linecap:butt;stroke-linejoin:miter;stroke-opacity:1"
         d="m 328.80859,19.501953 c -8.85118,0.407692 -10.79298,11.878442 -2.95312,18.648438 5.10499,4.408336 10.33069,7.107087 15.41211,8.904297 3.08923,1.092606 3.54826,2.262323 0.16992,4.28125 -15.08659,9.015883 -20.375,22.461839 -20.375,31.505859 l 0,129.109373 113.69853,195.03489 155.30733,-13.52708 3.76758,-50.17187 c 4.94054,-65.7989 -42.04144,-82.60736 -60.10352,-94.86328 -53.76973,-36.48514 -42.22557,-102.56632 16.43946,-103.25195 11.72131,-0.13699 27.9697,1.15836 42.80664,21.40429 1.69292,2.31009 5.63691,3.01857 5.82226,-1.37109 2.513,-59.51666 -16.94747,-103.026725 -87.5,-107.363283 -43.23928,-2.657731 -73.33749,-4.529824 -97.26172,-7.6875 -39.27543,-5.183824 -51.56479,-19.148419 -79.62109,-29.640625 -2.09489,-0.783426 -3.97027,-1.087217 -5.60938,-1.011719 z m 100.04688,57.423828 c 7.61818,0.110991 12.20233,2.857876 12.35937,8.609375 -0.16536,5.77311 -2.94508,7.82225 -6.6582,8.355469 -2.53788,0.364449 -4.39743,-1.216347 -7.66406,-1.119141 -5.92157,0.17621 -5.871,3.291145 -11.58789,3.417969 -4.67619,0.103737 -7.28462,-2.724146 -7.62891,-6.537109 -0.53589,-5.934764 9.8292,-12.421322 19.61524,-12.712891 0.53442,-0.01592 1.05657,-0.02107 1.56445,-0.01367 z"
         id="path6607"
         inkscape:connector-curvature="0"
         sodipodi:nodetypes="ssssscccsssssssssscssssss" />
      <path
         style="fill:#b42025;fill-opacity:1;fill-rule:evenodd;stroke:none;stroke-width:1px;stroke-linecap:butt;stroke-linejoin:miter;stroke-opacity:1"
         d="M 590.06849,393.4589 321.07793,212.10232 C 171.17707,253.20899 205.85697,343.653 215.03795,458.58242 l -100.49634,0.96864 c -19.416267,0.18714 -16.975442,10.92666 -15.498229,21.55223 l 13.803109,99.28554 c 2.11982,15.24781 13.10547,14.02735 27.84838,20.34143 l 118.17402,50.61141 -130.03985,-0.24216 c -13.52986,-0.0252 -16.03601,10.66588 -15.25607,18.64631 l 6.78048,69.3788 c 0.35369,3.61903 1.68511,7.87169 4.47996,7.87019 l 411.30851,-0.22139 c 17.72739,-0.01 19.24234,-10.15666 17.67767,-23.51027 l -7.02263,-59.93457 c -1.11494,-9.51548 -26.37134,3.58879 -35.71858,-4.8432 l -58.11837,-52.4276 96.86395,-0.24216 c 28.17556,-0.0704 -2.80024,-64.10495 0.0451,-73.90478 z"
         id="path6609"
         inkscape:connector-curvature="0"
         sodipodi:nodetypes="cccsssscsssssssscssc" />
      <path
         style="fill:#fdb722;fill-opacity:1;fill-rule:evenodd;stroke:none;stroke-width:1px;stroke-linecap:butt;stroke-linejoin:miter;stroke-opacity:1"
         d="m 38.265625,22.191406 c -1.27591,0.01702 -1.627429,1.457033 -1.279297,4.400391 L 78.943359,381.33398 c 3.114278,26.33031 13.077823,29.83351 23.005861,33.66016 l 113.08789,43.58789 330.51172,126.48633 c 13.23155,5.06369 15.88626,16.15565 4.27539,20.74805 11.25734,-0.0281 22.37483,-8.20435 23.29297,-18.69336 L 590.06836,393.45898 41.609375,23.681641 c -1.480703,-0.998307 -2.578204,-1.500446 -3.34375,-1.490235 z"
         id="path6614"
         inkscape:connector-curvature="0"
         sodipodi:nodetypes="sssscscscss" />
      <path
         style="fill:#fdb722;fill-opacity:1;fill-rule:evenodd;stroke:none;stroke-width:1px;stroke-linecap:butt;stroke-linejoin:miter;stroke-opacity:1"
         d="m 114.54102,459.55078 c -19.416271,0.18714 -23.413659,6.04158 -22.277348,16.70899 L 104.12891,587.6543 c 1.63062,15.30785 10.02339,21.68161 25.42578,26.15234 l 129.31445,37.53516 279.83008,79.95898 c 14.30602,4.08786 2.05598,14.86452 -2.55664,15.47266 17.72739,-0.01 24.97377,-10.09745 25.91015,-23.50977 l 4.11719,-58.96679 c 0.66725,-9.55732 -0.68842,-15.90928 -12.4707,-20.3418 L 452.96094,606.05859 118.15039,479.58984 c -16.39993,-6.19481 -14.0113,-17.44764 -3.60937,-20.03906 z"
         id="path6619"
         inkscape:connector-curvature="0" />
    </g>
  </g>
</svg>
