<?xml version="1.0" encoding="UTF-8" standalone="no"?>
<!-- Created with Inkscape (http://www.inkscape.org/) -->

<svg
   xmlns:dc="http://purl.org/dc/elements/1.1/"
   xmlns:cc="http://creativecommons.org/ns#"
   xmlns:rdf="http://www.w3.org/1999/02/22-rdf-syntax-ns#"
   xmlns:svg="http://www.w3.org/2000/svg"
   xmlns="http://www.w3.org/2000/svg"
   xmlns:sodipodi="http://sodipodi.sourceforge.net/DTD/sodipodi-0.dtd"
   xmlns:inkscape="http://www.inkscape.org/namespaces/inkscape"
   id="svg6564"
   version="1.1"
   inkscape:version="0.91+devel+osxmenu r12922"
   width="1782.6606"
   height="1782.6606"
   viewBox="0 0 1782.6606 1782.6606"
   sodipodi:docname="gryphon_theatre.svg">
  <metadata
     id="metadata6570">
    <rdf:RDF>
      <cc:Work
         rdf:about="">
        <dc:format>image/svg+xml</dc:format>
        <dc:type
           rdf:resource="http://purl.org/dc/dcmitype/StillImage" />
        <dc:title></dc:title>
      </cc:Work>
    </rdf:RDF>
  </metadata>
  <defs
     id="defs6568" />
  <sodipodi:namedview
     pagecolor="#ffffff"
     bordercolor="#666666"
     borderopacity="1"
     objecttolerance="10"
     gridtolerance="10"
     guidetolerance="10"
     inkscape:pageopacity="0"
     inkscape:pageshadow="2"
     inkscape:window-width="1920"
     inkscape:window-height="1155"
     id="namedview6566"
     inkscape:document-units="px"
     showgrid="false"
     inkscape:zoom="0.25809398"
     inkscape:cx="1211.7113"
     inkscape:cy="898.21428"
     inkscape:window-x="86"
     inkscape:window-y="134"
     inkscape:window-maximized="0"
     inkscape:current-layer="svg6564"
     inkscape:snap-smooth-nodes="true"
     fit-margin-top="0"
     fit-margin-left="0"
     fit-margin-right="0"
     fit-margin-bottom="0" />
  <g
     id="g6624"
     transform="matrix(1.6550762,0,0,1.6550762,365.12297,257.03429)">
    <path
       sodipodi:nodetypes="ssssscccsssssssssscssssss"
       inkscape:connector-curvature="0"
       id="path6607"
       d="m 328.80859,19.501953 c -8.85118,0.407692 -10.79298,11.878442 -2.95312,18.648438 5.10499,4.408336 10.33069,7.107087 15.41211,8.904297 3.08923,1.092606 3.54826,2.262323 0.16992,4.28125 -15.08659,9.015883 -20.375,22.461839 -20.375,31.505859 l 0,129.109373 113.69853,195.03489 155.30733,-13.52708 3.76758,-50.17187 c 4.94054,-65.7989 -42.04144,-82.60736 -60.10352,-94.86328 -53.76973,-36.48514 -42.22557,-102.56632 16.43946,-103.25195 11.72131,-0.13699 27.9697,1.15836 42.80664,21.40429 1.69292,2.31009 5.63691,3.01857 5.82226,-1.37109 2.513,-59.51666 -16.94747,-103.026725 -87.5,-107.363283 -43.23928,-2.657731 -73.33749,-4.529824 -97.26172,-7.6875 -39.27543,-5.183824 -51.56479,-19.148419 -79.62109,-29.640625 -2.09489,-0.783426 -3.97027,-1.087217 -5.60938,-1.011719 z m 100.04688,57.423828 c 7.61818,0.110991 12.20233,2.857876 12.35937,8.609375 -0.16536,5.77311 -2.94508,7.82225 -6.6582,8.355469 -2.53788,0.364449 -4.39743,-1.216347 -7.66406,-1.119141 -5.92157,0.17621 -5.871,3.291145 -11.58789,3.417969 -4.67619,0.103737 -7.28462,-2.724146 -7.62891,-6.537109 -0.53589,-5.934764 9.8292,-12.421322 19.61524,-12.712891 0.53442,-0.01592 1.05657,-0.02107 1.56445,-0.01367 z"
       style="fill:#b42025;fill-opacity:1;fill-rule:evenodd;stroke:none;stroke-width:1px;stroke-linecap:butt;stroke-linejoin:miter;stroke-opacity:1" />
    <path
       sodipodi:nodetypes="cccsssscsssssssscssc"
       inkscape:connector-curvature="0"
       id="path6609"
       d="M 590.06849,393.4589 321.07793,212.10232 C 171.17707,253.20899 205.85697,343.653 215.03795,458.58242 l -100.49634,0.96864 c -19.416267,0.18714 -16.975442,10.92666 -15.498229,21.55223 l 13.803109,99.28554 c 2.11982,15.24781 13.10547,14.02735 27.84838,20.34143 l 118.17402,50.61141 -130.03985,-0.24216 c -13.52986,-0.0252 -16.03601,10.66588 -15.25607,18.64631 l 6.78048,69.3788 c 0.35369,3.61903 1.68511,7.87169 4.47996,7.87019 l 411.30851,-0.22139 c 17.72739,-0.01 19.24234,-10.15666 17.67767,-23.51027 l -7.02263,-59.93457 c -1.11494,-9.51548 -26.37134,3.58879 -35.71858,-4.8432 l -58.11837,-52.4276 96.86395,-0.24216 c 28.17556,-0.0704 -2.80024,-64.10495 0.0451,-73.90478 z"
       style="fill:#b42025;fill-opacity:1;fill-rule:evenodd;stroke:none;stroke-width:1px;stroke-linecap:butt;stroke-linejoin:miter;stroke-opacity:1" />
    <path
       sodipodi:nodetypes="sssscscscss"
       inkscape:connector-curvature="0"
       id="path6614"
       d="m 38.265625,22.191406 c -1.27591,0.01702 -1.627429,1.457033 -1.279297,4.400391 L 78.943359,381.33398 c 3.114278,26.33031 13.077823,29.83351 23.005861,33.66016 l 113.08789,43.58789 330.51172,126.48633 c 13.23155,5.06369 15.88626,16.15565 4.27539,20.74805 11.25734,-0.0281 22.37483,-8.20435 23.29297,-18.69336 L 590.06836,393.45898 41.609375,23.681641 c -1.480703,-0.998307 -2.578204,-1.500446 -3.34375,-1.490235 z"
       style="fill:#fdb722;fill-opacity:1;fill-rule:evenodd;stroke:none;stroke-width:1px;stroke-linecap:butt;stroke-linejoin:miter;stroke-opacity:1" />
    <path
       inkscape:connector-curvature="0"
       id="path6619"
       d="m 114.54102,459.55078 c -19.416271,0.18714 -23.413659,6.04158 -22.277348,16.70899 L 104.12891,587.6543 c 1.63062,15.30785 10.02339,21.68161 25.42578,26.15234 l 129.31445,37.53516 279.83008,79.95898 c 14.30602,4.08786 2.05598,14.86452 -2.55664,15.47266 17.72739,-0.01 24.97377,-10.09745 25.91015,-23.50977 l 4.11719,-58.96679 c 0.66725,-9.55732 -0.68842,-15.90928 -12.4707,-20.3418 L 452.96094,606.05859 118.15039,479.58984 c -16.39993,-6.19481 -14.0113,-17.44764 -3.60937,-20.03906 z"
       style="fill:#fdb722;fill-opacity:1;fill-rule:evenodd;stroke:none;stroke-width:1px;stroke-linecap:butt;stroke-linejoin:miter;stroke-opacity:1" />
  </g>
</svg>
