<?xml version="1.0" encoding="UTF-8" standalone="no"?>
<!-- Created with Inkscape (http://www.inkscape.org/) -->

<svg
   xmlns:dc="http://purl.org/dc/elements/1.1/"
   xmlns:cc="http://creativecommons.org/ns#"
   xmlns:rdf="http://www.w3.org/1999/02/22-rdf-syntax-ns#"
   xmlns:svg="http://www.w3.org/2000/svg"
   xmlns="http://www.w3.org/2000/svg"
   xmlns:sodipodi="http://sodipodi.sourceforge.net/DTD/sodipodi-0.dtd"
   xmlns:inkscape="http://www.inkscape.org/namespaces/inkscape"
   version="1.1"
   id="svg2"
   width="600"
   height="600"
   viewBox="0 0 600 600"
   sodipodi:docname="juicehead.svg"
   inkscape:version="0.92.4 (5da689c313, 2019-01-14)">
  <metadata
     id="metadata8">
    <rdf:RDF>
      <cc:Work
         rdf:about="">
        <dc:format>image/svg+xml</dc:format>
        <dc:type
           rdf:resource="http://purl.org/dc/dcmitype/StillImage" />
        <dc:title></dc:title>
      </cc:Work>
    </rdf:RDF>
  </metadata>
  <defs
     id="defs6" />
  <sodipodi:namedview
     pagecolor="#ffffff"
     bordercolor="#666666"
     borderopacity="1"
     objecttolerance="10"
     gridtolerance="10"
     guidetolerance="10"
     inkscape:pageopacity="0"
     inkscape:pageshadow="2"
     inkscape:window-width="640"
     inkscape:window-height="480"
     id="namedview4"
     showgrid="false"
     fit-margin-top="0"
     fit-margin-left="0"
     fit-margin-right="0"
     fit-margin-bottom="0"
     inkscape:zoom="0.34"
     inkscape:cx="186.45988"
     inkscape:cy="304.11765"
     inkscape:current-layer="svg2" />
  <path
     style="fill:#000000;stroke-width:1"
     d="m 363.70427,546.00822 c -0.30689,-0.30688 -0.31248,-6.06108 -0.0124,-12.7871 0.49317,-11.05531 0.41887,-12.22913 -0.77405,-12.22913 -1.42691,0 -1.7007,-1.3581 -0.6181,-3.06603 0.41562,-0.65567 1.87659,-0.99316 3.78393,-0.87411 1.70884,0.10667 4.54549,-0.24843 6.30372,-0.78912 1.75823,-0.54069 4.99496,-0.86662 7.19274,-0.72429 3.4948,0.22633 4.0293,0.49412 4.26163,2.13519 0.16031,1.13244 -0.44947,2.63755 -1.53797,3.79617 l -1.80346,1.91977 h 1.79019 c 2.813,0 4.88196,1.48593 4.88196,3.5063 0,3.18164 -3.38555,7.13032 -9.67033,11.27879 -3.32952,2.19778 -7.21864,4.98497 -8.64248,6.19375 -2.59307,2.20131 -4.11105,2.68416 -5.15539,1.63981 z m 11.28776,-9.02804 c 2.80294,-1.70895 5.77905,-5.92625 5.78385,-8.19605 0,-1.90818 -2.9571,-1.80942 -5.99092,0.1998 -1.31867,0.87332 -3.02694,1.59023 -3.79617,1.59312 -1.14484,0.004 -1.39859,0.73035 -1.39859,4.00123 0,4.61088 1.02864,5.06827 5.40183,2.4019 z m -2.23422,-11.17229 c 2.76321,-1.96757 4.74697,-6.27341 3.30179,-7.16659 -2.03331,-1.25665 -5.02206,0.11934 -6.15643,2.83435 -1.33354,3.19153 -1.44231,5.90989 -0.23656,5.90989 0.48159,0 1.87267,-0.70994 3.0912,-1.57765 z m 14.41929,12.56657 c 0,-0.98901 0.36515,-3.95601 0.80575,-6.59335 0.75116,-4.49652 1.06476,-13.2791 0.59668,-16.71181 -0.16496,-1.20919 0.58285,-1.7329 3.59149,-2.51549 2.08982,-0.54359 5.64655,-1.95406 7.90387,-3.13436 3.27054,-1.71014 4.24132,-1.92968 4.77934,-1.0809 0.97869,1.54381 0.85154,2.26392 -0.39968,2.26392 -0.60459,0 -3.12205,0.89456 -5.59435,1.98791 l -4.49499,1.9879 v 3.60645 c 0,1.98355 0.17454,3.60645 0.38793,3.60645 0.2133,0 2.55422,-1.13557 5.20203,-2.52349 2.64773,-1.38793 5.01982,-2.31782 5.27116,-2.06644 1.10353,1.10351 -1.56418,3.76591 -5.05785,5.04788 -4.97435,1.82529 -5.52523,2.43904 -6.14996,6.85206 l -0.52571,3.71363 4.77558,-2.50445 c 2.62655,-1.37745 5.03908,-2.24092 5.36115,-1.91882 1.3357,1.33568 -1.34616,4.36421 -5.76961,6.51545 -2.58148,1.25541 -5.64815,2.95374 -6.81489,3.7741 -2.79838,1.96757 -3.87361,1.88234 -3.86794,-0.30664 z m -31.54704,-3.75449 c -0.82137,-1.32901 1.19948,-3.53169 2.26374,-2.46743 0.58557,0.58557 0.45546,1.22209 -0.431,2.10854 -0.90077,0.90078 -1.43337,1.00507 -1.83274,0.35889 z m 51.01908,-7.03463 c 0.27708,-2.0879 0.73694,-7.84209 1.02185,-12.7871 0.34893,-6.05525 0.82437,-8.99093 1.45629,-8.99093 0.51604,0 4.28991,-1.63129 8.38634,-3.6251 4.09651,-1.9938 7.81667,-3.50226 8.2671,-3.35213 1.49082,0.49694 -2.76625,3.65232 -7.83234,5.80545 l -4.98857,2.12016 0.39936,3.72158 c 0.21962,2.04686 0.55456,3.89464 0.74421,4.10616 0.32431,0.36172 2.32949,-0.64395 6.39906,-3.20939 0.96903,-0.61086 2.01573,-0.85675 2.32614,-0.54642 0.9544,0.95444 -1.98656,3.51417 -5.64111,4.90986 -2.26324,0.86432 -3.63769,1.94087 -3.94594,3.09061 -0.67596,2.52103 -0.60515,7.14129 0.10453,6.82586 7.19099,-3.19599 13.08488,-6.79703 13.40256,-8.18869 0.20947,-0.91742 0.92611,-5.98368 1.59248,-11.25836 1.31331,-10.39429 1.62564,-10.96796 6.74607,-12.39045 10.6702,-2.96425 15.76458,2.5827 8.68388,9.4553 l -3.34095,3.24275 3.31386,3.59514 c 3.14115,3.40772 4.92583,7.19337 3.88296,8.23628 -0.75699,0.75698 -2.6713,-1.19744 -4.90329,-5.00615 -1.31619,-2.24586 -2.821,-3.71079 -4.15589,-4.04584 -3.85715,-0.96807 -4.91552,0.6385 -6.25865,9.50028 -0.34181,2.25539 -0.83092,2.99697 -1.97664,2.99697 -0.8374,0 -1.83711,0.56218 -2.2216,1.2493 -0.63144,1.12829 -0.79879,1.12922 -1.72802,0.01 -0.92482,-1.11438 -1.24194,-1.09306 -3.13675,0.21078 -3.9891,2.74499 -14.42217,8.12066 -15.7605,8.12066 -1.13694,0 -1.26385,-0.57609 -0.83644,-3.79617 z m 30.27258,-23.17662 c 1.15316,-1.20878 2.49309,-3.24685 2.97764,-4.52906 1.05158,-2.78255 0.17302,-3.63183 -3.77627,-3.65044 -2.00406,-0.009 -2.59738,0.32743 -2.59738,1.47461 0,0.81775 -0.22873,3.1554 -0.50821,5.19476 -0.60987,4.44922 0.63935,4.93241 3.90422,1.51013 z m -192.00049,20.00796 c 0.003,-0.78469 0.7198,-2.50562 1.59312,-3.82429 0.87332,-1.31867 1.59023,-3.03959 1.59312,-3.82428 0.003,-0.78469 0.58325,-2.30883 1.28967,-3.38697 1.08559,-1.65682 1.22411,-3.84832 0.89488,-14.15757 -0.47799,-14.96715 -2.57544,-41.14675 -4.23868,-52.90555 -0.67998,-4.80726 -2.4822,-13.43855 -4.00495,-19.18065 -7.48234,-28.21493 -7.13344,-25.78917 -7.0192,-48.80148 0.0567,-11.42847 0.49671,-23.09137 0.97771,-25.91755 1.06309,-6.24638 0.55285,-7.07871 -4.54111,-7.4076 l -3.7325,-0.24099 -0.72195,-9.77458 -0.72195,-9.7746 -2.07523,0.49242 -2.07522,0.49243 2.29588,-2.45227 c 1.41842,-1.51503 3.40381,-2.63009 5.19476,-2.91754 14.25883,-2.28855 51.2501,-4.51562 51.2501,-3.08554 0,2.73674 -7.01479,4.98686 -15.89316,5.09803 -2.46745,0.0309 -5.18629,0.33011 -6.04187,0.66492 -1.43985,0.56347 -1.41011,0.64684 0.3996,1.12058 1.07535,0.2815 5.37174,0.8783 9.54752,1.3262 4.17579,0.44791 11.0089,1.25819 15.18469,1.80062 9.40871,1.22218 18.54471,1.0793 33.74321,-0.52771 13.68464,-1.44694 30.4524,-1.62739 34.069,-0.36663 2.75079,0.95893 3.20208,2.63516 1.28098,4.75794 -1.13826,1.25777 -1.02517,1.40515 1.43187,1.8661 2.64212,0.49567 6.22447,0.27078 18.56412,-1.16538 12.18371,-1.41802 16.20373,-1.05097 22.72667,2.07506 l 5.87751,2.81674 -0.48543,3.54204 c -0.26709,1.94812 -0.15312,3.74745 0.25311,3.99852 0.40958,0.25316 0.84562,-1.57195 0.97893,-4.09786 0.14505,-2.74889 0.63632,-4.68497 1.23931,-4.88388 1.26464,-0.41717 1.30468,2.67685 0.0968,7.47388 -0.72503,2.87939 -0.64447,4.88029 0.41023,10.19097 0.72183,3.63447 1.09201,7.70999 0.82261,9.0567 -0.26933,1.34672 0.0856,5.23016 0.78864,8.62987 0.70305,3.39971 1.24898,7.13182 1.2131,8.29359 l -0.0655,2.1123 -1.02672,-2.39758 c -0.56463,-1.31867 -1.272,-4.8974 -1.57186,-7.95273 -0.69913,-7.12333 -1.94284,-9.63824 -6.85932,-13.86964 l -3.99796,-3.44091 v 10.39292 c 0,11.40417 1.54947,25.15694 4.03553,35.81911 1.14724,4.9201 3.30634,10.19041 7.57563,18.4915 3.28413,6.38556 5.95911,12.53127 5.94449,13.65712 l -0.0264,2.047 -1.56138,-1.87384 c -0.85873,-1.03061 -1.92558,-3.18844 -2.37073,-4.79516 -0.89893,-3.24429 -2.37616,-5.92199 -2.39598,-4.34292 -0.008,0.53678 1.07715,3.95334 2.40877,7.59234 4.0782,11.14552 6.27711,20.49884 7.56029,32.15913 1.21038,10.99891 2.86391,16.53926 5.61833,18.82521 0.89326,0.74138 1.58361,0.58772 3.25072,-0.72363 2.04003,-1.60471 3.52709,-1.61854 3.52709,-0.0328 0,0.41819 -2.80358,3.62096 -6.23012,7.11728 -4.32252,4.41051 -7.56485,6.94617 -10.58932,8.2814 -5.29545,2.33781 -33.29257,9.52304 -44.31889,11.37408 -4.3956,0.7379 -8.89106,1.80236 -9.98995,2.36545 -4.51733,2.31477 -8.96779,9.47421 -8.31245,13.3722 0.40721,2.42214 0.35667,2.49188 -0.7861,1.08487 -0.67171,-0.82703 -1.61829,-3.41606 -2.10352,-5.7534 -1.7989,-8.66537 1.83587,-23.13209 10.12414,-40.29498 7.46606,-15.46032 7.4715,-15.48541 7.4715,-34.42508 0,-9.12593 -0.21829,-17.16147 -0.4851,-17.85675 -0.33651,-0.87693 -1.52016,-1.26416 -3.8642,-1.26416 h -3.3791 l -1.35617,10.98892 c -2.14179,17.35466 -5.75973,40.88469 -6.38204,41.50701 -0.31218,0.31217 -3.16364,0.0986 -6.33658,-0.4746 -11.28685,-2.03901 -13.13005,-2.06148 -13.73121,-0.16738 -0.29537,0.93062 -0.87928,1.69204 -1.2976,1.69204 -1.10828,0 -0.10172,-3.69257 2.54606,-9.34017 1.275,-2.71953 2.31819,-5.3269 2.31819,-5.79416 0,-0.48781 -1.71886,-0.84955 -4.03675,-0.84955 -3.86006,0 -4.08744,0.12244 -5.19476,2.79718 -3.82932,9.24973 -3.64352,8.95648 -4.41445,6.96751 -0.95662,-2.46806 1.6555,-14.85933 4.09874,-19.44341 0.93893,-1.76167 0.91149,-1.82189 -0.35436,-0.77747 -0.75467,0.62266 -2.84456,3.67958 -4.6442,6.79315 -1.79963,3.11356 -4.44565,7.2838 -5.88003,9.26718 -1.43439,1.98338 -2.73002,4.68066 -2.87919,5.99395 l -0.27122,2.3878 -1.28261,-2.48767 c -2.45957,-4.77047 1.1035,-16.21566 10.1865,-32.72071 8.87766,-16.13191 10.45111,-19.68225 14.54266,-32.8141 5.90208,-18.94279 18.99104,-49.79788 24.3259,-57.34439 l 1.61961,-2.29103 -5.75168,0.57762 -5.75168,0.57762 0.55113,-2.28256 c 0.30313,-1.25541 1.55787,-4.29978 2.78833,-6.76527 2.99915,-6.00948 2.50464,-7.9048 -2.06246,-7.9048 -3.34265,0 -3.43804,0.0765 -5.23063,4.19577 -1.42758,3.28049 -1.92848,6.28783 -2.2962,13.7861 -0.27867,5.6825 -0.79597,9.54032 -1.2695,9.46763 -0.43956,-0.0675 -8.5314,-0.51931 -17.98187,-1.00405 -9.45046,-0.48475 -21.97693,-1.27978 -27.83659,-1.76676 -11.67835,-0.97055 -17.24855,-0.35803 -24.33841,2.67634 l -3.82378,1.63654 0.2274,7.68185 0.22741,7.68184 6.39355,0.75541 c 3.51646,0.41547 12.86703,0.7751 20.77904,0.79919 14.14076,0.0431 14.50787,8e-4 21.57824,-2.47737 3.95601,-1.38664 8.27165,-3.0927 9.59032,-3.79124 1.31867,-0.69855 2.72305,-1.27231 3.12085,-1.27502 1.53987,-0.0105 -2.13706,3.04335 -5.34232,4.437 -1.85509,0.80659 -3.49783,1.55078 -3.65055,1.65375 -0.15272,0.10297 0.38674,1.32853 1.19879,2.72347 1.44259,2.47808 1.5788,2.52577 5.9381,2.07954 2.45391,-0.25118 5.06128,-0.6868 5.79416,-0.96804 1.08361,-0.41582 1.33251,-0.002 1.33251,2.21861 0,1.50146 0.49077,3.40111 1.09062,4.22144 1.01915,1.39377 1.14767,1.31213 1.96134,-1.24584 0.4789,-1.50554 1.59638,-5.61445 2.48329,-9.1309 0.8869,-3.51645 2.69184,-8.91101 4.01098,-11.98791 1.31914,-3.07689 2.40816,-6.42718 2.42006,-7.44508 0.0294,-2.51894 1.42539,-4.94242 2.84691,-4.94242 1.46487,0 1.50293,1.55796 0.0884,3.61834 -1.4974,2.18111 -8.13035,22.49688 -10.03866,30.74699 -0.86423,3.73623 -5.23083,15.60426 -9.70358,26.3734 -4.47275,10.76914 -8.80715,21.51713 -9.63201,23.88444 -0.82487,2.36731 -2.76228,6.20627 -4.30536,8.53103 -4.49947,6.77873 -7.03943,12.42885 -7.4342,16.5373 -0.20227,2.10504 -0.68092,4.0209 -1.06367,4.25745 -2.20965,1.36564 1.37655,-12.67173 4.40734,-17.25157 4.48826,-6.78223 16.32923,-33.17402 15.33152,-34.17173 -0.64475,-0.64475 -21.07232,2.70788 -30.8243,5.05897 -4.61534,1.11271 -9.38488,2.22686 -10.59897,2.4759 l -2.20743,0.45278 0.48431,7.70002 0.48432,7.70001 3.40112,3.19678 c 1.87061,1.75823 5.38528,5.01006 7.81037,7.22629 3.86464,3.53181 7.91476,9.15718 6.59292,9.15718 -0.25738,0 -2.42443,-1.85035 -4.81568,-4.1119 -3.14242,-2.97196 -4.34773,-3.71986 -4.34773,-2.69779 0,5.18969 6.61388,31.45347 8.75885,34.78148 0.64476,1.00036 3.39013,1.19538 16.58613,1.1782 14.35339,-0.0187 16.24787,-0.1842 20.51784,-1.79263 l 4.70434,-1.77205 -0.40837,5.08739 c -0.49337,6.14631 -3.96343,13.68769 -8.85717,19.24905 l -3.3528,3.81019 -10.38308,-1.35302 c -21.29166,-2.77453 -41.1518,-2.45675 -54.39729,0.87041 -3.84989,0.96706 -5.65973,1.9957 -8.68474,4.93604 -2.10174,2.04293 -4.12391,4.51021 -4.49371,5.48287 -0.3698,0.97266 -1.40887,2.16263 -2.30902,2.64437 -1.36565,0.73088 -1.63577,0.63968 -1.63137,-0.5508 z M 326.6745,406.9297 c 1.13788,-2.515 1.95583,-4.68577 1.81767,-4.82394 -0.13816,-0.13815 -2.54593,0.44434 -5.35058,1.29444 -2.80467,0.8501 -7.16731,2.14016 -9.69476,2.86679 -8.14677,2.34217 -5.38838,3.77289 9.87507,5.12199 0.83644,0.0739 2.00459,-1.47984 3.3526,-4.45928 z m 40.21882,-2.71782 c -0.27452,-1.37246 -1.75539,-4.5039 -3.29091,-6.95874 -1.92319,-3.07463 -2.53462,-4.72057 -1.96512,-5.29006 0.75332,-0.75332 1.3438,-0.29931 2.54535,1.95709 0.11704,0.21978 3.09334,2.27625 6.61395,4.56994 6.1195,3.98683 11.26112,6.40556 12.01476,5.65194 0.1938,-0.19385 -0.91996,-3.5079 -2.47511,-7.36457 -4.5928,-11.38997 -6.81688,-20.65506 -7.20337,-30.00812 -0.19029,-4.60336 -0.36268,-8.55937 -0.38313,-8.79113 -0.0208,-0.23176 -0.89998,1.23488 -1.95451,3.2592 l -1.91735,3.68057 1.16483,8.89551 c 0.64063,4.89254 2.09564,11.84193 3.23321,15.44309 1.13766,3.60117 2.23974,7.11268 2.44929,7.80336 0.20947,0.69068 -0.53402,-0.17057 -1.65225,-1.91388 -2.3354,-3.64093 -5.36075,-15.56466 -5.40519,-21.30326 -0.0168,-2.14442 -0.316,-4.07559 -0.66533,-4.29148 -0.76586,-0.47335 -10.5579,27.35507 -10.22807,29.06773 0.21499,1.11635 8.10078,8.08821 9.14844,8.08821 0.2583,0 0.24504,-1.12293 -0.0296,-2.4954 z m -14.88539,119.56015 c 0,-0.66875 0.92493,-2.61359 2.05541,-4.32184 2.80098,-4.23258 7.78612,-6.22775 21.52082,-8.61315 6.15379,-1.06876 15.02772,-3.2118 19.71978,-4.7623 8.99445,-2.97221 23.27197,-10.29218 25.63446,-13.14258 0.76923,-0.92808 1.39859,-1.33374 1.39859,-0.90147 0,1.22333 -6.47994,6.89794 -10.70288,9.37275 -9.16012,5.36818 -21.70682,9.31324 -35.65036,11.20952 -14.60117,1.98571 -18.77578,3.97008 -21.41034,10.17722 -1.00496,2.36773 -2.56548,2.96497 -2.56548,0.98185 z m -101.49761,-0.23122 c 0,-1.17809 9.24028,-8.40057 12.7871,-9.99478 5.50624,-2.47493 15.26,-2.13825 29.17057,1.0069 6.15379,1.39137 15.08478,2.8741 19.84662,3.29498 5.06353,0.44753 9.54269,1.28014 10.78912,2.00552 1.17217,0.68216 1.51916,1.05552 0.77111,0.82969 -0.74806,-0.22585 -5.9628,-0.816 -11.58831,-1.31146 -5.62552,-0.49546 -13.82458,-1.80853 -18.22015,-2.91794 -9.41087,-2.37522 -22.37424,-3.28042 -27.39615,-1.91301 -1.88118,0.51223 -6.28674,2.88313 -9.79012,5.26866 -3.50339,2.38554 -6.36979,4.06469 -6.36979,3.73144 z m 91.36928,-5.94539 c -0.99321,-1.56908 -0.6174,-18.98483 0.49581,-22.97683 0.55158,-1.978 2.73594,-7.27468 4.85415,-11.7704 5.93061,-12.58727 8.48023,-24.87302 9.48306,-45.69572 0.55273,-11.4765 0.57282,-11.57414 1.2491,-6.06978 0.82885,6.74623 -0.47276,23.19103 -2.66503,33.67053 -0.83959,4.01342 -2.85437,10.48689 -4.47727,14.38549 -1.62291,3.89859 -4.18954,10.5049 -5.70364,14.68069 -2.58919,7.14081 -2.7394,8.10335 -2.52574,16.18466 0.12494,4.72577 0.15848,8.59187 0.0746,8.59133 -0.0839,-5.4e-4 -0.43719,-0.45053 -0.78497,-0.99997 z m -128.4581,-2.05528 c -0.64139,-1.2403 -3.12198,-3.926 -5.51245,-5.96824 -3.10731,-2.65466 -5.27852,-5.50501 -7.61651,-9.99892 -1.79862,-3.45718 -4.91832,-8.4082 -6.93266,-11.00228 -2.01434,-2.59408 -3.26531,-4.84888 -2.77993,-5.01068 1.24565,-0.41521 3.66613,1.96143 4.80993,4.7228 0.53305,1.28689 1.06922,2.33981 1.1915,2.33981 0.12229,0 2.03802,-1.22187 4.2572,-2.71527 2.21916,-1.49339 5.67186,-3.34043 7.67264,-4.10454 4.31609,-1.64833 4.41654,-2.25798 1.60581,-9.74522 -2.61028,-6.95325 -6.61581,-13.60504 -14.90801,-24.75696 -3.6621,-4.92505 -9.3113,-13.91598 -12.55378,-19.97985 -3.24248,-6.06387 -6.82124,-12.02465 -7.95283,-13.2462 -1.85791,-2.00563 -2.40886,-2.16994 -5.68183,-1.69441 -1.99342,0.28962 -4.63725,1.0409 -5.87517,1.66952 -1.91331,0.97158 -2.17569,1.48467 -1.75009,3.42242 0.27536,1.25372 0.62744,7.79553 0.78241,14.53737 0.22403,9.74647 0.7015,13.97715 2.33046,20.64941 2.44543,10.01652 4.91128,23.81529 4.35518,24.37139 -0.21838,0.21839 -6.12277,0.42594 -13.12085,0.46121 -9.54799,0.0481 -13.57154,-0.24142 -16.12034,-1.16007 -3.36541,-1.21296 -3.39659,-1.20735 -3.39659,0.61132 0,1.00953 0.53557,3.60095 1.19015,5.7587 1.42733,4.70507 1.39521,4.32279 0.36331,4.32279 -0.46427,0 -1.56268,-1.62437 -2.44089,-3.60971 -2.42152,-5.47426 -9.10473,-32.96757 -10.97313,-45.14111 -2.94035,-19.15786 -4.29813,-21.75453 -14.24689,-27.24638 -3.86672,-2.13447 -6.57483,-4.24266 -7.53037,-5.86219 -2.10433,-3.56657 -5.976783,-6.26917 -8.043138,-5.61333 -1.196178,0.37964 -1.564166,0.22359 -1.307665,-0.55453 0.651647,-1.97684 3.602174,-1.63117 6.346222,0.7435 2.598591,2.24878 7.751121,4.55429 8.501441,3.80398 0.20395,-0.20395 -1.84091,-3.46288 -4.54414,-7.24207 -7.691046,-10.75231 -9.477141,-14.45009 -11.601118,-24.01799 -2.331632,-10.50329 -2.952022,-12.20592 -6.131111,-16.82656 -1.352604,-1.96594 -5.615456,-11.02011 -9.473004,-20.12036 -7.808036,-18.41974 -10.930646,-24.93508 -11.950674,-24.93508 -0.377203,0 -0.6974,-0.80919 -0.711546,-1.79819 -0.01415,-0.989 -0.797028,-3.51061 -1.739757,-5.60357 -0.942729,-2.09296 -1.490712,-4.16674 -1.217756,-4.6084 0.857623,-1.38766 1.755318,-0.1318 2.2883,3.20131 0.405247,2.53425 0.858893,3.21449 2.143741,3.21449 1.081207,0 1.998337,0.8742 2.724932,2.59738 1.002245,2.3769 6.195247,6.92234 10.599916,9.27811 0.98272,0.52559 3.410272,1.25892 5.394558,1.62963 3.133967,0.58549 3.607801,0.4945 3.607801,-0.69279 0,-0.75174 -1.258731,-2.51221 -2.797179,-3.91217 -1.538448,-1.39995 -2.797178,-2.89629 -2.797178,-3.32518 0,-1.21553 1.718626,-0.91873 3.378512,0.58345 0.828516,0.74979 4.273385,2.83302 7.655269,4.6294 5.057802,2.68658 6.829487,4.18188 9.984494,8.42686 2.10958,2.8384 4.7365,6.33482 5.83759,7.76984 2.03782,2.65582 10.16681,6.97367 15.5014,8.23383 1.53845,0.36342 4.05374,0.96383 5.58954,1.33423 3.71981,0.89717 4.35529,3.4071 0.86261,3.4071 -1.3509,0 -2.45617,0.36484 -2.45617,0.81076 0,0.44592 1.24711,3.90357 2.77138,7.68367 3.38858,8.40354 8.78248,17.19999 14.14418,23.06654 2.21313,2.42152 3.53164,4.40275 2.93003,4.40275 -0.97904,0 -8.45703,-5.6694 -9.45607,-7.16906 -0.21978,-0.32992 -1.65833,-1.23878 -3.19678,-2.01969 -1.53845,-0.78092 -4.55965,-2.81484 -6.71378,-4.51985 -3.68401,-2.9159 -5.6613,-3.56863 -3.92474,-1.2956 8.25861,10.80994 19.7021,26.71146 21.43778,29.78929 2.75869,4.8919 5.09913,7.59234 6.58021,7.59234 0.61433,0 2.61956,-0.87538 4.45606,-1.9453 1.83649,-1.06992 5.03377,-2.36792 7.10507,-2.88445 3.06408,-0.76412 3.5749,-1.13022 2.74079,-1.96434 -2.16935,-2.16936 -4.38899,-21.54102 -4.07489,-35.56318 0.0935,-4.17579 0.25819,-11.24146 0.36588,-15.7015 0.1077,-4.46004 -0.0447,-8.49825 -0.33857,-8.97381 -0.62126,-1.00522 2.61067,-5.69406 3.92481,-5.69406 0.48876,0 1.29336,0.4047 1.78799,0.89933 2.37689,2.37689 16.56752,-4.22014 30.36542,-14.11647 10.03409,-7.19679 17.47522,-10.97788 20.88605,-10.61291 l 2.37213,0.25383 -3.20502,9.98993 c -3.01911,9.41041 -3.18098,10.40716 -2.79063,17.18266 0.28954,5.02538 1.73917,12.37035 4.81082,24.37541 4.87845,19.0666 5.76376,24.22327 6.86037,39.95969 0.62511,8.9702 1.23234,12.22767 3.60191,19.32207 2.11817,6.34169 3.2617,11.88296 4.453,21.57823 0.88161,7.1749 2.31473,18.26003 3.18471,24.6336 2.46704,18.07404 2.72677,23.79992 1.57688,34.76314 l -1.05472,10.0557 -2.23815,-0.49157 c -3.66948,-0.80596 -10.54811,1.09741 -16.12779,4.46268 -2.8795,1.7367 -5.60555,3.15764 -6.05791,3.15764 -0.45234,0 -1.3472,-1.01478 -1.98858,-2.25507 z m -7.87626,-3.43885 c -1.21452,-0.90603 -3.87721,-3.86164 -5.9171,-6.56803 -2.03989,-2.70639 -5.30643,-6.58645 -7.25897,-8.62235 -2.52173,-2.6294 -3.26135,-3.88007 -2.55338,-4.31762 0.63413,-0.39191 1.60518,0.22783 2.66942,1.70365 0.92,1.2758 4.37208,5.55637 7.67129,9.51238 9.30497,11.15739 9.37571,11.26625 5.38874,8.29197 z m 243.96434,-8.31705 c 0,-1.28836 2.12714,-2.50977 2.94551,-1.69135 0.56927,0.56921 -1.23675,2.91522 -2.24413,2.91522 -0.38578,0 -0.70138,-0.55074 -0.70138,-1.22387 z M 246.62761,498.7856 c -0.5124,-2.95118 -1.63238,-12.01909 -2.48884,-20.15088 -0.85647,-8.1318 -2.14058,-18.02182 -2.85357,-21.97783 -3.79782,-21.07186 -5.95726,-34.72227 -5.95834,-37.66431 -6.7e-4,-1.81444 -0.51041,-4.51763 -1.13275,-6.00709 -1.69874,-4.06566 -2.75018,-16.44892 -3.24741,-38.24597 -0.24566,-10.76913 -0.66416,-21.64816 -0.93001,-24.17561 -0.39756,-3.77976 -0.26905,-4.59536 0.72402,-4.59536 1.04273,0 1.26179,3.40522 1.60663,24.9748 0.4336,27.121 0.55038,28.19725 6.56905,60.53893 1.92229,10.32958 4.23815,25.25453 5.14636,33.16655 0.90821,7.91202 2.16924,17.80204 2.80231,21.97783 1.69848,11.20357 2.13407,16.63484 1.37187,17.10591 -0.37273,0.23035 -1.09692,-1.99578 -1.60932,-4.94697 z m 193.05213,-16.45528 c 1.55044,-2.66751 5.72854,-5.0291 10.61833,-6.00187 10.57357,-2.10345 19.35887,-6.784 27.87636,-14.85166 5.45625,-5.16813 12.53016,-13.84091 11.84669,-14.52437 -0.22873,-0.22879 -3.78546,3.0143 -7.90379,7.20687 -8.81471,8.97368 -12.73451,11.08724 -24.86308,13.40605 -18.95216,3.62337 -19.46564,3.79428 -21.74375,7.23666 -1.14156,1.72505 -2.50475,2.99452 -3.02918,2.82103 -0.65126,-0.21541 -1.11096,-4.09596 -1.44982,-12.23917 -0.27292,-6.55806 -0.54265,-12.03488 -0.59939,-12.17071 -0.52483,-1.25632 -1.8244,1.88484 -3.32193,8.02953 -0.9922,4.07116 -1.95211,7.57152 -2.13321,7.77857 -0.76715,0.87698 -1.81721,-2.23134 -1.82855,-5.41238 -0.008,-1.89065 -1.30077,-10.88158 -2.87558,-19.97985 -2.43459,-14.06532 -2.96829,-19.41434 -3.56401,-35.72295 -0.38529,-10.54936 -0.87256,-19.89993 -1.08267,-20.77904 -0.21018,-0.87912 -1.3428,-5.73422 -2.51706,-10.78912 -1.17425,-5.0549 -3.40464,-13.05903 -4.95636,-17.78695 -3.17543,-9.67483 -3.24065,-13.9579 -0.3156,-20.73382 l 1.6214,-3.75585 -4.54973,-1.65919 c -6.13061,-2.23575 -7.98067,-3.23142 -8.49511,-4.57195 -0.64678,-1.68552 4.63205,-3.58316 10.09334,-3.62838 4.94845,-0.041 5.14841,-0.22144 3.71985,-3.35694 -0.62217,-1.36549 -1.79307,-2.18583 -3.60524,-2.52578 -1.47603,-0.27692 -2.82523,-0.73244 -2.99802,-1.01228 -0.55496,-0.89844 13.34086,-0.43831 18.71336,0.61965 8.32896,1.64013 25.89796,2.35705 50.15381,2.04655 18.61131,-0.23824 23.31856,-0.0727 26.77299,0.94157 7.41836,2.17812 13.50366,5.98964 20.21721,12.66304 7.32437,7.28054 11.1609,14.09874 12.57348,22.34515 0.76682,4.47651 0.6706,5.54557 -0.88239,9.80484 -0.95872,2.62927 -1.74313,5.03452 -1.74313,5.345 0,1.46028 1.84406,-0.86545 3.88241,-4.89662 1.53485,-3.03526 2.40197,-4.06247 2.72309,-3.22571 0.26334,0.68623 -1.91742,6.11239 -4.94437,12.30265 -2.9786,6.09122 -7.66275,16.30695 -10.40934,22.70161 -2.74667,6.39467 -6.3074,13.34914 -7.9129,15.45436 -1.6055,2.10523 -3.81823,5.01716 -4.91712,6.47098 -1.09889,1.45381 -3.55993,4.47928 -5.46896,6.72327 -4.3441,5.10633 -3.20237,5.21841 5.82732,0.57208 6.75367,-3.4752 6.80202,-3.48647 5.17981,-1.20832 -0.90061,1.26477 -4.0161,4.37179 -6.92333,6.90448 -9.18713,8.00361 -10.21474,8.95304 -9.7162,8.97703 0.26781,0.0129 2.066,-1.23182 3.99597,-2.766 1.92997,-1.53418 3.84148,-2.79291 4.24771,-2.79717 1.2529,-0.0132 -2.88197,3.95157 -8.19685,7.85955 -3.14802,2.31473 -7.27194,6.59033 -10.91195,11.31334 -3.21827,4.17579 -7.23462,8.91071 -8.92532,10.52206 -4.66649,4.44757 -13.97014,8.69912 -26.65015,12.17849 -2.41756,0.66338 -5.63424,2.12078 -7.14823,3.23869 -3.03774,2.24308 -4.46454,2.62551 -3.48081,0.93298 z m 12.22742,-37.99434 c 0,-0.40292 -0.42333,-0.87369 -0.94073,-1.04615 -1.55691,-0.519 -0.008,-2.05736 2.66188,-2.64377 3.79289,-0.83308 18.76907,-9.15586 22.77646,-12.65768 6.43255,-5.62106 8.26934,-11.70995 8.26934,-27.41226 0,-8.47143 -0.17374,-9.90424 -1.10704,-9.12963 -0.60891,0.50535 -1.71411,3.33657 -2.45592,6.29161 -1.37078,5.46019 -3.01337,8.16998 -4.95245,8.16998 -1.22077,0 -1.42376,-2.53236 -0.36931,-4.60621 0.38809,-0.76326 1.47228,-4.08502 2.40925,-7.3817 0.93706,-3.29667 2.98715,-10.3096 4.55589,-15.58428 3.51749,-11.82716 4.02314,-20.00813 1.50664,-24.37541 -2.67027,-4.63394 -6.98216,-6.19586 -20.97996,-7.59962 -10.54664,-1.05765 -18.70289,-2.83644 -26.20333,-5.71463 -0.53002,-0.20338 -1.18928,0.5566 -1.47691,1.70252 -0.37434,1.49166 -1.20142,2.20628 -2.96053,2.5581 -2.3991,0.47982 -2.41492,0.51429 -0.92091,2.00833 1.23947,1.23941 1.91551,1.3698 3.66119,0.70612 1.38732,-0.52747 2.14096,-1.40703 2.14096,-2.49877 0,-0.99428 0.40942,-1.54701 0.99899,-1.34863 1.34496,0.45253 0.81358,4.23607 -1.12998,8.04583 -0.86041,1.6864 -2.11347,6.00479 -2.78479,9.59642 -1.47499,7.89224 -2.42068,36.72424 -1.14469,34.90161 0.46154,-0.65934 0.84475,-2.5626 0.85146,-4.22947 0.024,-5.87539 2.41724,-15.24702 4.41379,-17.28199 l 1.89473,-1.93121 0.53002,2.11155 c 0.3069,1.22294 -1.6e-4,3.66725 -0.72966,5.80829 -1.17785,3.45689 -1.13318,4.80171 0.68851,20.72734 2.53176,22.13279 3.17543,25.96204 5.57349,33.15679 1.09882,3.29667 2.19107,6.98295 2.42716,8.19173 0.38713,1.98193 2.79645,3.24428 2.79645,1.46519 z m 0.14897,-7.60211 c 1.18073,-1.03985 4.42962,-2.6503 7.21968,-3.57876 8.76316,-2.9162 14.57002,-9.31911 18.68579,-20.60381 2.45385,-6.72797 4.0106,-7.87812 2.23103,-1.64826 -3.05124,10.68157 -9.01291,18.94715 -15.70599,21.77564 -1.8638,0.78764 -5.67684,2.45904 -8.47346,3.71421 -6.13341,2.75285 -6.75686,2.80657 -3.95705,0.34098 z m 20.69129,-40.91503 c -0.0336,-0.93374 0.47824,-3.22669 1.13757,-5.09544 0.65934,-1.86876 1.1988,-4.25951 1.1988,-5.31279 0,-1.05328 1.05173,-4.23468 2.33724,-7.06978 2.80996,-6.19723 3.73335,-12.45105 2.50947,-16.99619 -1.18225,-4.39054 -2.42108,-5.48079 -7.00494,-6.16474 -2.10963,-0.31478 -5.09446,-1.12413 -6.63291,-1.79854 -1.85077,-0.81131 -5.56143,-1.25879 -10.96677,-1.32253 -7.21968,-0.0851 -8.36924,-0.29602 -9.88707,-1.8139 -0.96095,-0.96094 -1.46165,-2.13166 -1.13661,-2.65755 0.41014,-0.66359 1.03519,-0.45232 2.12609,0.71858 0.84986,0.91221 2.16054,1.66851 2.91266,1.68068 10.81789,0.17509 27.54214,3.75188 30.52153,6.52762 2.36202,2.20055 2.77808,6.46105 1.34009,13.72349 -1.4435,7.29066 -8.36012,28.21683 -8.45515,25.58109 z M 199.255,465.76103 c -9.88493,-17.85092 -21.12638,-36.47154 -25.06892,-41.52477 -2.44692,-3.1363 -3.26333,-4.78485 -2.76715,-5.58768 0.45473,-0.73577 0.95335,-0.85833 1.40884,-0.34631 3.38249,3.80237 34.52608,56.95262 34.52608,58.92287 0,2.27636 -2.2672,-0.93292 -8.09885,-11.46411 z m -71.68803,9.24898 c -0.50949,-1.11819 -2.21587,-8.94001 -3.79198,-17.38183 -3.05322,-16.35349 -6.26691,-27.5643 -9.52295,-33.22042 -2.46297,-4.27844 -2.73753,-7.05777 -0.42301,-4.28192 2.22731,2.67127 6.17565,13.41253 8.84062,24.05046 2.32052,9.26295 6.58478,32.10565 6.08649,32.60394 -0.14456,0.14456 -0.67969,-0.65204 -1.18917,-1.77023 z M 285.14275,424.7262 c 1.92821,-1.46124 30.68862,-8.05343 31.55263,-7.23218 0.40402,0.38403 -7.05603,2.68363 -11.83988,3.64971 -2.41757,0.48822 -7.20132,1.75539 -10.63058,2.81593 -3.42925,1.06055 -7.20544,1.91683 -8.39153,1.90285 -2.01257,-0.0237 -2.05867,-0.0996 -0.69064,-1.13631 z M 93.734201,392.55133 c -0.722199,-1.22514 -3.525268,-7.58639 -6.229052,-14.1361 -2.703777,-6.5497 -5.573306,-13.20299 -6.376728,-14.78508 -0.803421,-1.58209 -3.299591,-7.79064 -5.547044,-13.79679 -2.247461,-6.00615 -6.101693,-15.1769 -8.56496,-20.37944 -6.433263,-13.58735 -7.54284,-16.25232 -6.766743,-16.25232 1.27314,0 7.829087,13.86197 13.22912,27.97178 2.943926,7.69224 7.266118,17.9419 9.604855,22.77703 7.481165,15.46659 15.325341,36.53129 10.650552,28.60092 z m 67.306259,-1.42632 c -2.81862,-7.10851 -3.4247,-12.28335 -3.81455,-32.56916 -0.2583,-13.44002 -0.11846,-20.57924 0.40308,-20.57924 0.51081,0 0.75973,6.26393 0.69077,17.38246 -0.10817,17.44179 0.4282,22.78857 3.20029,31.90169 1.40965,4.63419 1.03206,7.67661 -0.47959,3.86425 z m 105.38132,-26.02057 c -1.95687,-1.20941 0.19824,-2.1515 6.86556,-3.00126 6.28321,-0.8008 12.59272,-0.47797 27.71291,1.41794 3.63577,0.45588 11.90335,0.82888 18.3724,0.82888 6.97919,0 11.96276,0.32498 12.25584,0.7992 0.81527,1.31915 -32.998,0.99586 -42.28764,-0.40432 -9.87794,-1.48883 -14.56523,-1.50728 -18.62951,-0.0733 -1.90692,0.6728 -3.62141,0.84581 -4.28956,0.43287 z M 122.14674,335.82639 c -2.23146,-2.11405 -5.84804,-5.46695 -8.03683,-7.45089 -2.18879,-1.98393 -7.13825,-8.35595 -10.99881,-14.16004 -8.311022,-12.49505 -8.724437,-12.9194 -10.776815,-11.06202 -1.635773,1.48035 -2.784031,0.62875 -1.979427,-1.46803 0.786279,-2.04901 4.559745,-1.5404 6.876607,0.92687 1.135087,1.20878 3.581775,4.71524 5.437095,7.79214 4.78719,7.9392 7.95441,11.77979 16.57568,20.09976 4.16761,4.02196 7.43848,7.72964 7.2686,8.2393 -0.16989,0.50966 -2.13463,-0.80303 -4.3661,-2.91709 z m 9.76296,0.0471 c -1.27485,-1.53278 -4.02171,-3.65026 -6.10412,-4.7055 -4.65728,-2.36005 -7.77166,-5.93663 -16.34056,-18.76563 -3.66992,-5.49446 -8.29106,-11.564 -10.269192,-13.48787 -3.231396,-3.14276 -3.874388,-3.44584 -6.332228,-2.98474 -2.883204,0.54088 -5.112795,2.51125 -7.335577,6.48268 -1.198495,2.14135 -1.290306,2.18406 -0.859021,0.3996 2.101664,-8.69574 1.017525,-19.47922 -3.224891,-32.07674 -2.289682,-6.79904 -2.761502,-9.36285 -2.766513,-15.03292 -0.0032,-3.75976 -0.380209,-9.14202 -0.837531,-11.96058 -0.975912,-6.01471 -1.238999,-15.42318 -0.466242,-16.67353 0.297108,-0.48073 3.32073,-1.94341 6.719158,-3.2504 5.578876,-2.14556 9.347411,-3.05363 18.855567,-4.54351 2.91518,-0.4568 3.06029,-0.61359 2.61736,-2.82822 -0.2579,-1.28953 -0.13555,-2.34461 0.27191,-2.34461 1.2402,0 5.25041,6.56967 6.34188,10.38952 1.47128,5.14903 7.20796,10.52739 12.90397,12.09798 4.21776,1.16297 4.44188,1.37016 7.43931,6.87708 2.06963,3.80233 3.45565,5.53787 4.19577,5.25386 0.76502,-0.29356 1.10524,0.21121 1.10524,1.63981 0,1.13517 1.63093,5.18187 3.6243,8.99267 4.26707,8.15756 4.35059,10.66686 0.12817,3.85056 -1.61705,-2.61042 -4.19581,-5.98157 -5.73056,-7.49145 -2.42465,-2.38534 -3.42444,-2.79107 -7.6265,-3.09502 -5.98665,-0.43304 -11.06301,1.3305 -14.05077,4.88123 -1.98637,2.36068 -2.0921,2.88286 -1.64788,8.13809 0.26108,3.08856 0.85739,6.71337 1.32514,8.05516 1.58373,4.54307 14.8679,10.90765 22.81042,10.92869 4.58248,0.0122 11.75914,-2.60953 17.85968,-6.52424 9.24179,-5.93043 13.15018,-18.10619 13.23053,-41.21692 0.048,-13.81081 0.0825,-13.54695 -4.07608,-31.14182 -0.61987,-2.62263 -1.65399,-5.82471 -2.29803,-7.11573 -2.08251,-4.17448 -1.15872,-5.97822 1.53648,-3.00005 0.74625,0.8246 1.54456,2.89251 1.77402,4.59536 0.85802,6.3673 1.01936,6.69219 3.32587,6.6974 2.88239,0.006 6.33466,1.86758 8.44795,4.5542 l 1.70934,2.17307 0.56195,-3.1663 c 0.99885,-5.62816 0.68998,-15.59531 -0.9771,-31.53038 -1.55261,-14.84084 -2.91869,-20.78634 -4.77605,-20.78634 -2.03518,0 -9.04952,4.33259 -16.0113,9.8898 -4.1532,3.31527 -9.60697,7.13618 -12.11949,8.4909 -2.51253,1.35473 -4.79617,2.83195 -5.07476,3.28272 -0.84383,1.36535 -6.9057,5.50917 -8.0592,5.50917 -2.11071,0 -1.03237,-2.40708 1.91809,-4.28161 3.11246,-1.97744 13.4057,-10.90307 12.57367,-10.90307 -0.84606,0 -9.69587,6.24424 -15.73325,11.10106 -9.32786,7.50389 -25.01315,15.70026 -32.321688,16.88975 -5.684178,0.92513 -6.293723,0.43013 -6.223027,-5.05358 0.108283,-8.39989 1.86651,-35.39061 2.395144,-36.76822 0.299874,-0.78145 1.173513,-1.31581 1.941418,-1.18746 1.616441,0.27018 23.612473,-15.99245 38.366733,-28.36621 9.88467,-8.28984 31.9114,-29.891069 35.3713,-34.688015 0.98517,-1.36588 4.30868,-5.358771 7.38557,-8.873092 3.0769,-3.514321 6.72291,-7.776616 8.10225,-9.471767 1.37933,-1.69515 2.72861,-2.87166 2.9984,-2.614466 0.93237,0.888857 -1.76215,7.930968 -5.42569,14.179977 -2.02234,3.449555 -3.67697,6.50616 -3.67697,6.792456 0,0.286296 2.3001,-0.887279 5.11134,-2.607946 2.81123,-1.720666 14.58935,-8.23632 26.17359,-14.47923 24.58133,-13.247218 32.1478,-17.548816 32.52298,-18.489564 0.34843,-0.873693 4.52765,-3.045986 5.86009,-3.045986 0.55919,0 0.23861,0.544996 -0.71239,1.211102 -2.1736,1.522451 -3.16438,7.264915 -1.88951,10.951406 0.49882,1.442417 2.06642,4.330159 3.48354,6.417203 l 2.57659,3.794626 4.99496,0.0015 c 2.8949,8.8e-4 4.99496,0.347821 4.99496,0.825155 0,0.452987 -1.25873,1.928791 -2.79717,3.279566 -1.53845,1.350775 -2.79718,2.75473 -2.79718,3.1199 0,0.365169 -5.16278,5.81238 -11.47285,12.104914 -11.53927,11.507231 -22.09329,23.387841 -22.09329,24.870321 0,0.51372 3.68796,0.63389 10.35462,0.33739 9.94136,-0.44213 10.37539,-0.39512 10.87464,1.1779 0.5595,1.76283 -0.68281,3.00419 -3.02734,3.025 -0.75807,0.006 -5.25832,2.67674 -10.00056,5.93333 -8.09892,5.56171 -17.43798,10.7559 -21.64566,12.03886 -1.31222,0.40011 -1.70565,0.95452 -1.34288,1.8923 6.62404,17.12353 13.05378,37.72011 16.00711,51.276 1.59166,7.30573 1.91144,8.18229 1.55914,4.27384 -0.48586,-5.39019 -0.60218,-6.08765 -2.37895,-14.26376 -0.66864,-3.0769 -1.53488,-9.40719 -1.92497,-14.06731 -0.41747,-4.98729 -1.24948,-9.51763 -2.02245,-11.01238 -1.36575,-2.64109 -1.11351,-4.09088 0.71178,-4.09088 1.26341,0 2.03632,1.74016 2.03632,4.58463 0,1.13097 1.24131,9.82276 2.75847,19.31508 4.48165,28.04018 6.61803,48.76348 5.26597,51.08103 -0.64246,1.10121 -0.80211,0.9117 -0.88898,-1.05532 l -0.10589,-2.39758 -0.65802,2.39758 c -0.36191,1.31867 -1.4419,5.81413 -2.39999,9.98992 -2.24217,9.77246 -7.13845,22.80152 -10.88885,28.97535 -1.62093,2.66834 -5.88088,11.35624 -9.46656,19.30645 -3.58567,7.95021 -7.74973,16.93951 -9.25347,19.97624 l -2.73406,5.52133 -7.99194,2.57555 c -4.39556,1.41656 -15.11154,6.06193 -23.81327,10.32304 -13.3827,6.55332 -25.90715,11.7872 -27.67491,11.56518 -0.25269,-0.0317 -1.50248,-1.3118 -2.77733,-2.84459 z m 326.39102,-20.98736 c 0,-1.00137 1.56665,-2.05873 5.19475,-3.50593 1.75823,-0.70133 6.67863,-2.71373 10.93433,-4.472 12.01908,-4.96584 40.14759,-13.50678 49.00521,-14.87997 4.39557,-0.68144 9.06382,-1.45773 10.37386,-1.72509 2.10443,-0.42946 2.25972,-0.33887 1.33321,0.77747 -0.5767,0.69496 -2.72749,1.47833 -4.77942,1.74083 -7.12633,0.91163 -13.56511,2.62472 -42.49177,11.30536 -3.73623,1.12121 -10.03852,3.4151 -14.00508,5.09753 -11.97456,5.07906 -15.56509,6.38511 -15.56509,5.6618 z m -15.58684,-4.35602 c -2.19635,-1.91963 -5.55328,-4.28502 -7.45984,-5.25643 -4.74801,-2.4192 -13.9906,-4.06004 -22.86949,-4.06004 -6.2819,0 -7.73467,0.25205 -9.51232,1.65032 -2.14712,1.68893 -3.71186,1.50484 -3.71186,-0.43671 0,-0.59931 1.22844,-1.49506 2.72981,-1.99057 3.71329,-1.2255 8.97606,-6.01465 17.2669,-15.71296 6.42176,-7.51195 7.09397,-8.63188 8.64848,-14.4088 0.92706,-3.44509 2.95917,-14.12285 4.51576,-23.72836 1.55659,-9.60551 3.6938,-21.83317 4.74929,-27.17259 2.41197,-12.20184 3.42343,-21.09978 4.46478,-39.27819 0.95623,-16.69298 2.5734,-29.72043 4.66673,-37.5945 0.81334,-3.05908 2.13832,-8.57069 2.94455,-12.24803 1.79347,-8.17991 1.04766,-10.32686 -4.04992,-11.65976 -1.75606,-0.45915 -5.21162,-2.00364 -7.67897,-3.4322 -2.46743,-1.42856 -4.88275,-2.59738 -5.36746,-2.59738 -1.0189,0 -3.31978,-4.12682 -3.31978,-5.95427 0,-1.9122 1.28423,-1.51137 6.49489,2.02713 3.54259,2.40572 6.02065,3.4369 9.41115,3.91613 5.89701,0.83354 13.87137,4.85649 18.4593,9.31244 3.50598,3.40512 5.44387,4.98821 15.81285,12.91775 7.7127,5.8981 15.63423,9.53517 22.77119,10.45509 4.46086,0.57499 5.05745,1.9804 0.99275,2.3387 -1.54763,0.13642 -2.81132,0.67588 -2.80828,1.19879 0.0104,1.77854 3.10175,13.87236 4.85894,19.00937 1.97728,5.78046 4.93861,11.95417 7.43857,15.50752 0.92779,1.31866 2.07823,3.11685 2.55662,3.99596 0.4784,0.87912 2.43675,2.47377 4.35185,3.54368 5.16719,2.88666 2.30839,2.99785 -3.2118,0.12491 -2.9089,-1.51391 -5.93937,-2.4698 -7.83002,-2.4698 -3.83845,0 -8.85714,-1.45543 -22.29239,-6.46478 -5.78944,-2.1586 -11.46268,-3.92473 -12.60712,-3.92473 -2.83139,0 -3.34191,1.73006 -3.82359,12.95788 -0.36203,8.43792 -0.2742,9.29619 0.89015,8.6996 0.71048,-0.36405 3.90622,-0.69445 7.10163,-0.73422 3.19542,-0.0398 8.58998,-0.43269 11.98791,-0.87317 12.49124,-1.61921 14.25634,-1.69681 18.56559,-0.81611 2.41756,0.49407 4.89187,0.92395 5.49845,0.95529 1.74928,0.0904 4.21415,6.57969 3.93723,10.36546 -0.20643,2.82111 -0.55903,3.42007 -2.24293,3.81016 -1.54285,0.35742 -2.05497,1.04734 -2.24838,3.02882 l -0.25046,2.56598 3.84684,0.009 c 5.08846,0.0117 9.84071,0.82978 9.84071,1.69416 0,0.38205 -0.47216,0.69463 -1.04926,0.69463 -1.20591,0 -5.34429,4.08779 -5.34429,5.27895 0,0.43777 -0.43005,1.7073 -0.95576,2.82119 -1.27175,2.69482 -10.75291,6.88194 -16.62651,7.34268 -2.41756,0.18964 -6.77524,0.81345 -9.68383,1.38625 -4.97282,0.97931 -5.53769,0.93416 -9.46813,-0.75667 -2.29896,-0.98896 -4.27169,-1.68318 -4.38397,-1.54272 -0.8772,1.09772 -2.0405,8.81112 -2.05049,13.5962 -0.008,3.21192 -0.32775,6.33798 -0.71329,6.94682 -1.28638,2.03112 -2.40757,-1.72421 -2.02028,-6.76662 0.34797,-4.53039 0.26486,-4.37597 -1.97089,3.66167 -1.28382,4.61534 -2.73092,9.41756 -3.2158,10.67159 l -0.88167,2.28004 5.40607,-0.462 c 2.97332,-0.2541 11.69972,-0.68538 19.39196,-0.95839 16.23538,-0.57623 25.82651,-2.01453 31.87832,-4.78054 5.21402,-2.38312 5.53682,-2.19609 9.37966,5.43469 2.30663,4.58037 3.01999,5.40231 4.32811,4.9871 3.60365,-1.14373 1.25642,2.22597 -4.5327,6.50721 -5.22194,3.86181 -5.89662,4.62378 -4.69135,5.29831 0.78017,0.43659 3.32113,0.56294 5.69953,0.28341 3.51597,-0.41323 4.29167,-0.28646 4.29167,0.70136 0,0.74947 -0.74701,1.20578 -1.97401,1.20578 -1.25681,0 -2.60393,0.85191 -3.70746,2.34451 -1.8869,2.55216 -3.6456,3.10918 -16.69596,5.28789 -13.50845,2.2552 -26.31018,5.94823 -37.08307,10.69768 -5.75795,2.53852 -12.44696,5.25623 -14.86452,6.03936 -2.41757,0.78314 -5.6543,2.04257 -7.19275,2.79874 -1.53845,0.75618 -4.05591,1.57538 -5.59436,1.82044 -1.53844,0.24506 -3.33775,0.66039 -3.99852,0.92296 -0.74045,0.29424 -2.73332,-0.86157 -5.19476,-3.01285 z m -50.74625,-8.5186 c 0,-0.44029 1.79818,-2.09239 3.99597,-3.67135 4.79132,-3.44223 5.17014,-5.58673 1.5283,-8.65118 -5.53466,-4.65709 -9.20448,-6.18682 -15.50277,-6.46211 -6.68501,-0.29219 -14.84606,-2.69175 -19.19714,-5.64448 -1.57471,-1.06862 -3.02695,-1.94295 -3.22721,-1.94295 -0.20025,0 -0.36411,1.41732 -0.36411,3.14961 0,3.88038 -1.27771,4.92489 -2.00027,1.63516 -0.71141,-3.23906 0.0146,-7.55262 2.92745,-17.39531 2.2941,-7.75168 2.5516,-12.16447 0.70985,-12.16447 -0.90862,0 -1.49502,1.80938 -2.41165,7.44142 -0.89579,5.50392 -3.98832,12.89032 -4.98121,11.89743 -0.43638,-0.43638 -0.24663,-3.56769 0.47479,-7.83508 2.07488,-12.27337 2.83553,-23.03104 4.96681,-70.24451 0.38992,-8.63763 0.1884,-13.28425 -0.88383,-20.37945 -0.88479,-5.85482 -1.38454,-13.83198 -1.37687,-21.97782 0.0166,-17.71085 1.87066,-25.75425 8.30806,-36.04382 3.76442,-6.01706 4.75614,-9.88159 2.55852,-9.97036 -0.82421,-0.0333 -3.93935,-0.12321 -6.9226,-0.1998 -6.32014,-0.16227 -7.26463,-0.99007 -6.542,-5.733614 0.94162,-6.180963 0.90435,-6.330172 -1.93566,-7.747971 -3.39187,-1.693304 -5.21411,-3.43517 -2.88131,-2.754233 6.0202,1.757279 15.71588,3.698754 18.49495,3.703455 1.82065,0.0031 7.46567,-1.073313 12.54439,-2.391982 5.54289,-1.439189 11.25664,-2.397582 14.2939,-2.397582 h 5.05986 l 2.20865,5.069792 c 2.75098,6.314563 5.60331,9.079775 13.73135,13.311665 3.51645,1.83086 7.47246,4.33777 8.79113,5.57091 2.89188,2.70429 5.69026,4.1303 11.82823,6.02748 4.57818,1.41503 6.95282,3.48653 6.95282,6.06512 0,0.72819 -0.96774,3.43536 -2.15063,6.01592 -1.87962,4.10075 -2.13313,5.59827 -2.01197,11.88469 0.0759,3.95601 -0.39456,10.01966 -1.04614,13.47478 -0.65167,3.45513 -1.14197,7.59095 -1.08954,9.19073 0.0783,2.38078 0.28603,1.96586 1.14636,-2.28607 0.57814,-2.85711 1.28031,-7.5324 1.56035,-10.38952 0.28011,-2.85711 0.65046,-5.73421 0.82293,-6.39355 0.17254,-0.65933 0.52219,-2.45751 0.77697,-3.99596 0.25486,-1.53845 0.85977,-4.23573 1.34433,-5.99396 0.48455,-1.75822 0.91835,-4.24393 0.96398,-5.52378 0.0456,-1.27986 0.5771,-2.49351 1.18105,-2.69701 1.31204,-0.4421 1.15508,0.82797 -1.80634,14.61434 -3.19397,14.86892 -4.75376,27.85479 -4.14837,34.53599 0.44523,4.91301 0.3375,5.8233 -0.68923,5.8233 -0.66924,0 -1.44486,-0.90858 -1.72362,-2.01907 -1.09577,-4.36588 -5.42604,-4.70594 -19.20438,-1.5081 l -10.03204,2.32838 0.29722,5.39455 c 0.25981,4.71533 0.12131,5.39456 -1.09938,5.39456 -0.76818,0 -1.76893,-0.69563 -2.22391,-1.54585 -1.09738,-2.05049 -1.05406,-14.44681 0.0767,-22.05229 0.95344,-6.41038 0.48567,-8.05369 -2.01892,-7.0926 -0.91604,0.35152 -1.30772,1.23573 -1.16211,2.62358 0.32223,3.07183 -1.22149,3.02012 -1.89881,-0.0636 -0.73477,-3.34517 -0.14041,-7.88652 2.26572,-17.31098 1.0503,-4.114 1.90967,-8.11516 1.90967,-8.89147 0,-1.9928 -3.82142,-10.40146 -4.72707,-10.40146 -1.44446,0 -4.1033,4.28443 -5.37626,8.66346 -2.69735,9.27843 -3.05443,37.8989 -0.595,47.68983 1.28343,5.10942 1.32107,7.11127 0.44268,23.56584 -1.53925,28.83407 -1.09849,45.75136 1.14356,43.89066 0.57694,-0.47885 2.37041,-4.34635 3.98542,-8.59444 4.4492,-11.70298 6.85813,-16.92659 7.5957,-16.47075 0.36667,0.2266 0.3208,1.32179 -0.10198,2.43373 -1.05989,2.78772 -0.96726,3.51605 0.44731,3.51605 0.66885,0 4.43729,1.25873 8.37436,2.79718 3.93706,1.53845 8.2993,2.79718 9.69382,2.79718 h 2.53552 l -0.49878,7.79214 c -0.80319,12.54735 -7.16821,32.16755 -10.43547,32.16755 -2.12689,0 -5.26061,3.34073 -8.03533,8.56617 -3.09544,5.82953 -3.2409,7.36617 -0.32312,3.41404 1.02776,-1.39201 4.07805,-4.10841 6.77844,-6.03645 l 4.90993,-3.50552 2.42428,-7.81247 c 8.56575,-27.60427 12.99473,-51.29897 13.30857,-71.19944 0.15057,-9.54754 0.40519,-11.66225 1.53965,-12.7871 1.27887,-1.26806 1.34832,-0.83992 1.17393,7.24361 -0.10189,4.72523 -0.42549,8.59133 -0.71919,8.59133 -0.29363,0 -0.96015,4.66629 -1.48115,10.36954 -1.65952,18.16635 -5.75228,38.70146 -11.31331,56.76274 l -2.33764,7.59234 -9.80387,9.33022 c -9.73306,9.26291 -18.28076,16.64358 -19.27519,16.64358 -0.28524,0 -0.51852,-0.36024 -0.51852,-0.80052 z m -65.53868,-2.80161 c -0.72993,-0.87952 -0.85312,-3.08994 -0.45652,-8.19173 0.39763,-5.11501 0.21416,-8.3791 -0.68475,-12.18195 -1.65951,-7.02071 -1.55949,-16.91751 0.3352,-33.16655 0.87132,-7.47246 1.59751,-17.5423 1.61376,-22.37742 0.0162,-4.83513 0.55404,-15.08479 1.19507,-22.77703 1.48089,-17.77011 1.4828,-28.11708 0.008,-41.15848 -0.64637,-5.71423 -1.18223,-14.05239 -1.1908,-18.52922 -0.0237,-12.4026 -0.80695,-13.48505 -10.65131,-14.72114 -5.7523,-0.72229 -9.05021,-2.21628 -9.92509,-4.49618 -0.27227,-0.70955 0.1143,-4.91433 0.85907,-9.34396 1.48765,-8.84805 1.70047,-15.529909 0.61516,-19.314161 -0.56554,-1.971923 -0.431,-2.629804 0.67968,-3.323435 1.07496,-0.671316 1.65702,-0.546906 2.60137,0.556009 1.89808,2.216802 11.00179,3.617135 23.58727,3.6282 12.93475,0.01137 12.0264,-0.528663 12.77074,7.592487 0.26236,2.86254 1.05003,6.08736 1.75038,7.16628 1.0908,1.68044 1.36882,7.17995 1.93925,38.3613 0.96622,52.81611 0.92141,54.70265 -1.80416,75.95973 -1.32446,10.32958 -2.78225,23.81597 -3.23954,29.96977 -0.45729,6.15379 -1.3116,13.70617 -1.89848,16.78307 -0.90914,4.76648 -1.1558,5.27561 -1.66678,3.44043 -0.32986,-1.18466 -0.1986,-4.02432 0.29167,-6.31038 0.49027,-2.28604 0.79403,-4.24178 0.67502,-4.34606 -0.11901,-0.10429 -1.38568,-0.44013 -2.81483,-0.74631 -2.50002,-0.53561 -2.65896,-0.41555 -4.19541,3.16884 -2.18919,5.10718 -5.46093,16.5956 -6.1016,21.42526 -0.30838,2.32466 -1.18497,4.6414 -2.10386,5.56029 -1.27427,1.27427 -1.48354,2.24405 -1.09537,5.07605 0.52485,3.82924 0.399,4.09373 -1.09275,2.29629 z M 80.000024,297.36083 c -0.374878,-0.58063 -0.841567,-3.09809 -1.03709,-5.59435 -0.65828,-8.40456 -2.02865,-15.70463 -3.627461,-19.32377 -0.917379,-2.0766 -1.889038,-6.80475 -2.299344,-11.18871 -0.999944,-10.68411 -2.261751,-31.51307 -1.929326,-31.84798 0.152758,-0.1539 0.661309,-0.0428 1.130116,0.24696 0.513522,0.31738 0.852364,3.76645 0.852364,8.67626 0,11.09936 2.003731,27.48524 4.371622,35.74972 1.07645,3.75706 2.354761,9.39346 2.840686,12.52533 0.981658,6.32696 0.80924,12.47699 -0.301567,10.75654 z M 249.68411,292.3933 c -4.38877,-4.7539 -7.63471,-11.49702 -9.14938,-19.00697 -0.73753,-3.6568 -1.90697,-7.97244 -2.59875,-9.59032 -0.90941,-2.12682 -1.42706,-7.25824 -1.86889,-18.52588 -0.36312,-9.26031 -1.4384,-21.25964 -2.64984,-29.57018 -1.12131,-7.69224 -2.42027,-18.27429 -2.88656,-23.51567 -0.57228,-6.43259 -1.38668,-10.7183 -2.50583,-13.1867 -1.0522,-2.32076 -1.9146,-6.577 -2.36028,-11.64885 -1.69237,-19.25926 -1.76859,-21.17864 -0.84112,-21.17864 0.50932,0 0.91185,1.23481 0.91185,2.79718 0,1.53845 0.26973,2.79351 0.59939,2.78903 0.32967,-0.005 2.12412,-2.0724 3.98766,-4.59537 5.04422,-6.82913 9.2762,-11.18618 18.6729,-19.22476 l 8.47486,-7.24997 0.44811,-4.24092 c 0.24645,-2.33251 0.91287,-5.31983 1.48091,-6.6385 0.92725,-2.15251 1.08623,-1.17219 1.55535,9.59033 0.53288,12.22522 2.39601,22.46412 5.71802,31.42349 0.8669,2.338 1.42467,4.40243 1.23948,4.58762 -0.18518,0.18518 -3.36713,1.08877 -7.071,2.00798 -7.45813,1.85092 -9.70455,3.29149 -9.12076,5.84893 0.21168,0.92731 1.09174,7.80911 1.95571,15.2929 2.35661,20.41338 5.17678,27.99073 11.44098,30.74017 4.23428,1.85847 7.18827,1.33087 9.77757,-1.74635 2.29222,-2.72414 2.77453,-1.09762 0.54756,1.84657 -0.79291,1.04828 -3.18151,5.40505 -5.30802,9.68171 -3.53613,7.11161 -3.82548,8.12089 -3.38776,11.81681 0.50783,4.28778 3.15643,9.80778 6.8649,14.30725 l 2.25108,2.73125 2.8114,-1.73755 c 5.12719,-3.16877 9.42684,-8.78356 14.07497,-18.38006 4.34736,-8.97555 4.51453,-9.5603 4.51453,-15.79122 0,-8.14337 -0.69117,-9.11376 -6.4914,-9.11376 -4.64032,0 -4.59386,-0.055 -4.38547,5.19476 0.14695,3.70184 -0.73524,5.44215 -2.42917,4.79212 -1.6144,-0.6195 -1.20755,-8.36325 1.46946,-27.96874 3.0006,-21.97526 2.84239,-37.57305 -0.50544,-49.83048 -0.52235,-1.91248 -0.7702,-3.65677 -0.55078,-3.8762 0.79844,-0.79843 1.99321,0.63551 2.51716,3.02105 0.29505,1.34332 0.99906,2.61993 1.56446,2.83691 0.56541,0.21696 3.98778,-0.16698 7.60526,-0.8532 10.03612,-1.90382 12.50896,-1.71997 13.93413,1.036 1.98076,3.83036 5.07922,24.00179 7.24269,47.15092 1.46231,15.64674 3.03984,23.73058 5.20187,26.65624 1.97277,2.66954 2.05996,5.16817 0.20164,5.77869 -0.95188,0.31273 -3.02793,4.86079 -6.49989,14.23954 -6.20541,16.76263 -13.39035,32.64652 -20.18291,44.61876 -5.06514,8.92759 -5.11501,8.98282 -12.6714,14.03689 -9.57413,6.40363 -12.12543,6.6477 -20.94697,2.00392 -3.20766,-1.68856 -7.18473,-3.51595 -8.83792,-4.06085 -1.7203,-0.56704 -3.90417,-2.16859 -5.10641,-3.7448 -1.15533,-1.51472 -2.26594,-2.58871 -2.468,-2.38664 -0.7284,0.7284 4.15981,8.62893 6.7412,10.89543 2.98105,2.61739 3.20961,3.16617 1.31866,3.16617 -0.72685,0 -2.66177,-1.45172 -4.29981,-3.22604 z m 69.63939,-4.80565 c -1.48228,-4.94741 -1.12166,-26.12277 0.70547,-41.42451 0.87494,-7.32732 1.63404,-16.28287 1.6869,-19.90123 0.087,-5.95476 0.8019,-8.35076 2.10334,-7.04931 0.26176,0.26175 -0.37479,9.01896 -1.41455,19.46047 -1.2887,12.94164 -1.90208,24.26313 -1.92698,35.56783 -0.0201,9.1208 -0.0698,16.58327 -0.11051,16.58327 -0.0407,0 -0.51034,-1.45643 -1.04367,-3.23652 z m -80.45188,-1.97212 c -5.37812,-9.17707 -7.78786,-21.15173 -7.8777,-39.14661 -0.0543,-10.86189 0.11664,-12.7871 1.13494,-12.7871 0.82275,0 1.1084,0.62672 0.91064,1.99798 -0.15848,1.09889 -0.29796,6.67327 -0.30994,12.3875 -0.0251,11.96074 1.60148,20.92207 6.05633,33.36635 1.5342,4.28567 2.65716,7.79213 2.49546,7.79213 -0.16169,0 -1.24607,-1.62461 -2.40973,-3.61025 z m -100.24844,-9.17685 c 0,-0.43955 1.08695,-0.79919 2.41544,-0.79919 3.73481,0 8.99198,-5.37645 12.81776,-13.10858 4.86242,-9.82726 6.62019,-19.35488 6.61256,-35.84204 -0.003,-7.36257 0.26759,-13.3865 0.60222,-13.3865 0.89283,0 3.16703,8.26715 2.41152,8.76635 -0.35324,0.23341 -0.87296,5.09967 -1.15491,10.8139 -0.98411,19.94425 -5.30791,33.19179 -13.2615,40.63144 -3.38017,3.16175 -4.46874,3.72382 -7.21207,3.72382 -1.77706,0 -3.23102,-0.35964 -3.23102,-0.7992 z M 349.6176,263.49895 c 0.004,-1.4545 0.54555,-7.21645 1.20348,-12.80432 0.65792,-5.58788 1.13379,-13.32008 1.05749,-17.18267 -0.0763,-3.86259 0.29524,-11.51835 0.82566,-17.01281 1.85657,-19.23203 1.73511,-46.98723 -0.28213,-64.46847 -0.29002,-2.51331 -0.15154,-4.33018 0.35386,-4.64253 0.45669,-0.28226 0.8381,-0.0424 0.84757,0.53296 0.009,0.57539 0.5384,6.80036 1.17539,13.83326 1.47675,16.30428 1.47947,37.58337 0.006,48.35123 -0.63149,4.61534 -1.16166,13.96591 -1.17818,20.77904 -0.0166,6.81312 -0.56737,15.95254 -1.22412,20.30981 -0.65674,4.35726 -1.19408,9.28105 -1.19408,10.94174 0,1.6607 -0.35963,3.24172 -0.79919,3.51338 -0.47175,0.29155 -0.79622,-0.58959 -0.79194,-2.15062 z m 130.71065,-21.09043 c -1.96186,-1.96188 -0.64534,-2.87518 2.09893,-1.45607 2.88517,1.49197 6.07859,1.17378 17.39557,-1.73326 7.72732,-1.98495 15.15064,-2.64595 12.82314,-1.14181 -0.65933,0.4261 -2.38543,0.78023 -3.83581,0.78696 -1.45037,0.006 -3.72296,0.57377 -5.05018,1.2601 -3.04549,1.57487 -13.22083,3.5473 -18.29978,3.5473 -2.46088,0 -4.32828,-0.45967 -5.13187,-1.26322 z m -205.08782,-1.84966 c 0.49031,-0.91615 1.91854,-2.19686 3.17385,-2.84601 5.50681,-2.84768 11.62549,-12.26101 14.04868,-21.6133 1.20168,-4.63785 1.18937,-4.83113 -0.37526,-5.89163 -2.2808,-1.54593 -2.00839,-2.65102 0.58009,-2.35319 2.07551,0.23882 2.19645,0.47582 2.17382,4.26005 -0.0649,10.85122 -10.18644,26.89707 -18.62589,29.52789 -1.69853,0.52948 -1.78644,0.43182 -0.97529,-1.08381 z m 119.45844,-3.77587 c 0.86066,-3.54218 3.99158,-9.64397 4.25691,-8.29593 0.34621,1.75934 -2.68913,9.88889 -3.83477,10.27079 -0.70481,0.23494 -0.82381,-0.32156 -0.42214,-1.97486 z M 173.85246,203.03384 c -0.49384,-0.92276 -0.86394,-6.12913 -0.86394,-12.15358 0,-5.79661 -0.56005,-14.31107 -1.24457,-18.92102 -0.68451,-4.60995 -1.05966,-8.56664 -0.83366,-8.79263 0.226,-0.226 0.96587,-0.19795 1.64416,0.0623 0.94013,0.36075 1.23913,1.76141 1.25794,5.89288 0.0136,2.9808 0.38248,8.11691 0.81979,11.41359 0.846,6.37749 1.19679,23.00014 0.50009,23.69685 -0.22872,0.22873 -0.80464,-0.31057 -1.27981,-1.19843 z m 105.45169,-6.91413 c -0.0142,-2.19779 0.73249,-10.82908 1.65923,-19.18066 1.63345,-14.72026 1.72275,-28.62668 0.22521,-35.06902 -0.41065,-1.76663 -0.27645,-2.21601 0.57697,-1.93205 1.66328,0.55342 2.11381,3.87703 2.19899,16.22204 0.083,12.02858 -2.43289,40.172 -3.8014,42.52375 -0.65959,1.13348 -0.83862,0.5991 -0.859,-2.56406 z M 87.773718,188.92696 c 0.2185,-5.71423 0.832752,-14.61525 1.365023,-19.78004 1.191862,-11.56512 2.820707,-12.86818 1.998008,-1.59839 -0.312852,4.28567 -0.835924,12.46742 -1.162363,18.18166 -0.337476,5.90732 -1.025901,11.07908 -1.595734,11.9879 -0.823122,1.31278 -0.931213,-0.25806 -0.604934,-8.79113 z m 414.083062,2.69091 c -1.75823,-0.4097 -7.58699,-2.17176 -12.95286,-3.91569 -10.14049,-3.29571 -13.46857,-3.82584 -14.00051,-2.23009 -0.48104,1.44318 -2.21721,-0.024 -2.21721,-1.8737 0,-1.32265 0.36348,-1.54664 1.8885,-1.16387 1.03863,0.26069 4.29415,0.81466 7.23438,1.23105 2.94024,0.41638 6.63147,1.51559 8.20277,2.44268 1.57129,0.92708 5.58245,2.20709 8.91364,2.84445 3.33128,0.63738 6.59943,1.7015 7.26268,2.36475 1.43599,1.43596 0.74693,1.48376 -4.33139,0.30042 z m -176.11996,-0.29333 c -0.96374,-6.67471 -1.78279,-18.03922 -2.46899,-34.25813 -0.46244,-10.92995 -1.06416,-21.26951 -1.33717,-22.97681 -0.28112,-1.75805 -0.17035,-3.10418 0.25544,-3.10418 1.28976,0 4.97584,54.20585 4.02743,59.22577 -0.19872,1.0519 -0.41325,1.55291 -0.47671,1.11335 z m 69.15834,-34.44072 c -0.30729,-0.92056 -0.16959,-4.1573 0.30593,-7.19274 1.4877,-9.49554 1.87371,-17.10728 0.8676,-17.10728 -0.49734,0 -0.90429,-0.71927 -0.90429,-1.59838 0,-2.04127 2.08582,-2.07585 3.16865,-0.0525 1.25977,2.35381 0.913,8.29129 -1.07644,18.43399 -1.23979,6.32077 -1.9772,8.66806 -2.36145,7.51695 z m -38.8469,-35.08913 c -0.0107,-2.7643 2.69261,-9.19073 3.86608,-9.19073 0.4355,0 1.26621,-1.67963 1.84602,-3.73249 0.57981,-2.05288 1.4998,-3.88103 2.04444,-4.06258 1.94584,-0.64861 0.9066,2.72239 -3.38863,10.99184 -3.52589,6.78825 -4.36042,7.93346 -4.36791,5.99396 z m -53.15229,-5.51794 c -0.38612,-1.33119 -0.31166,-5.6483 0.17459,-10.12223 0.47397,-4.36098 0.56253,-9.066194 0.20081,-10.669992 -0.40112,-1.778504 -0.34096,-3.058105 0.15829,-3.366657 1.67228,-1.033527 2.30837,1.842599 1.79108,8.098589 -1.41499,17.1126 -1.61626,18.503 -2.32477,16.06029 z"
     id="path12"
     inkscape:connector-curvature="0" />
</svg>
