<?xml version="1.0" encoding="UTF-8" standalone="no"?>
<!-- Created with Inkscape (http://www.inkscape.org/) -->

<svg
   xmlns:dc="http://purl.org/dc/elements/1.1/"
   xmlns:cc="http://creativecommons.org/ns#"
   xmlns:rdf="http://www.w3.org/1999/02/22-rdf-syntax-ns#"
   xmlns:svg="http://www.w3.org/2000/svg"
   xmlns="http://www.w3.org/2000/svg"
   xmlns:sodipodi="http://sodipodi.sourceforge.net/DTD/sodipodi-0.dtd"
   xmlns:inkscape="http://www.inkscape.org/namespaces/inkscape"
   version="1.1"
   id="svg10"
   width="2269.4285"
   height="2269.4285"
   viewBox="0 0 2269.4285 2269.4285"
   sodipodi:docname="shaddix_co_logo.svg"
   inkscape:version="0.91+devel+osxmenu r12922">
  <metadata
     id="metadata16">
    <rdf:RDF>
      <cc:Work
         rdf:about="">
        <dc:format>image/svg+xml</dc:format>
        <dc:type
           rdf:resource="http://purl.org/dc/dcmitype/StillImage" />
        <dc:title></dc:title>
      </cc:Work>
    </rdf:RDF>
  </metadata>
  <defs
     id="defs14" />
  <sodipodi:namedview
     pagecolor="#ffffff"
     bordercolor="#666666"
     borderopacity="1"
     objecttolerance="10"
     gridtolerance="10"
     guidetolerance="10"
     inkscape:pageopacity="0"
     inkscape:pageshadow="2"
     inkscape:window-width="1607"
     inkscape:window-height="873"
     id="namedview12"
     showgrid="false"
     inkscape:zoom="0.14"
     inkscape:cx="669.57143"
     inkscape:cy="1382.2973"
     inkscape:current-layer="svg10"
     inkscape:snap-smooth-nodes="true"
     fit-margin-top="0"
     fit-margin-left="0"
     fit-margin-right="0"
     fit-margin-bottom="0"
     inkscape:snap-global="true"
     inkscape:window-x="0"
     inkscape:window-y="23"
     inkscape:window-maximized="0" />
  <g
     id="g353"
     transform="matrix(1.0874336,0,0,1.0874336,21.182256,21.182256)">
    <circle
       r="1043.4791"
       cy="1024"
       cx="1024"
       id="path335"
       style="opacity:1;fill:#ffffff;fill-opacity:1;stroke:none;stroke-width:13.35618973;stroke-linejoin:round;stroke-miterlimit:4;stroke-dasharray:none;stroke-opacity:1" />
    <path
       id="path280"
       d="m 898.99609,465 c -13.31483,0 -35.44277,8.87598 -62.49609,25.06836 -6.6,3.95034 -23.025,12.70459 -36.5,19.45508 -23.7755,11.91065 -29.17038,15.08203 -67.625,39.73242 -36.37362,23.31642 -59.95723,41.06548 -91.875,69.15039 C 600.1875,653.87779 542.20669,712.25871 521.72461,738 c -5.47037,6.875 -11.30465,13.93195 -12.96484,15.68164 -2.75707,2.9057 -2.97805,3.64195 -2.55079,8.5 0.25728,2.92531 2.54533,13.19336 5.08594,22.81836 2.54061,9.625 6.01277,23.26484 7.71485,30.31055 l 3.09375,12.80859 -8.04688,8.50391 c -4.42682,4.67663 -10.7182,12.55106 -13.97852,17.5 -7.59467,11.52819 -21.52758,38.98315 -27.52734,54.23828 -8.48034,21.56232 -14.50874,50.38503 -16.13476,77.14258 -1.82101,29.96629 7.62066,56.31499 31.17578,86.99609 12.43972,16.203 21.97414,31.8537 35.63672,58.5 8.00309,15.6085 11.52672,24.8012 16.30468,42.5352 2.06945,7.681 4.66428,15.9163 5.76563,18.3007 3.2556,7.0482 10.87852,11.0165 25.44336,13.2461 l 7.81445,1.1953 2.9707,28.1114 c 2.55858,24.1998 2.96851,31.9374 2.94141,55.6113 -0.0272,23.7125 -0.34719,29.4956 -2.32813,41.9883 -4.86581,30.6867 -13.31193,56.5418 -34.55273,105.7773 -3.62229,8.3964 -7.01565,17.185 -7.54101,19.5293 -1.31508,5.8682 -2.92573,31.0366 -3.17969,49.7051 -0.11598,8.525 -0.34463,15.7717 -0.50781,16.1035 0.18939,69.9208 6.45187,137.7463 34.85351,197.9336 0.16874,0.2551 1.73389,3.447 3.47852,7.0938 l 3.17187,6.6308 15.63672,-8.9883 c -0.53184,-0.6842 -9.5,-20.7612 -9.5,-21.2675 -14.93503,-51.2803 -27.28095,-102.8841 -29,-155.8164 l 0.006,-10.5938 c 0.007,-11.9348 1.57008,-43.9396 2.96289,-60.7051 0.50764,-6.1106 2.09867,-15.3356 3.53711,-20.5 5.33559,-19.1565 10.68164,-35.097 14.62891,-43.6211 12.4585,-26.9039 19.95912,-52.1989 24.54492,-82.7695 1.44371,-9.6243 1.79443,-18.1372 1.76953,-43 -0.0333,-33.28 -1.08239,-45.3137 -5.95117,-68.3008 -1.34874,-6.3678 -2.30182,-11.7275 -2.11914,-11.9101 0.18267,-0.1827 8.15952,0.1216 17.72656,0.6757 9.56705,0.5542 24.23917,1.0115 32.60547,1.0215 l 15.21289,0.014 0.95508,3.75 c 0.52566,2.0625 2.59101,10.275 4.58984,18.25 1.99884,7.975 6.97511,27.325 11.05859,43 19.39333,74.444 30.24957,127.9567 38.44336,189.5 7.60529,57.1231 8.59605,61.7287 14.15235,65.7852 1.44265,1.0532 7.65096,3.0013 13.79687,4.3281 7.3357,1.5836 13.83789,3.7514 18.92774,6.3105 11.6104,5.8376 26.78826,12.1502 44.65234,18.5723 29.17176,10.4872 41.94252,16.4348 65.54102,30.5273 11.84494,7.0735 35.75665,23.7089 49.0957,34.1543 19.84634,15.541 23.99554,16.7786 56.36328,16.8086 25.75296,0.024 34.96246,0.9875 53.17376,5.5742 l 13.4082,3.379 7.8223,7.0976 c 9.93,9.0099 25.6959,21.0375 34.0957,26.0117 16.3604,9.6884 48.6856,16.841 85.5,18.92 20.7144,1.1689 106.7058,1.639 108.4004,0.5917 0.623,-0.3851 14.2888,-1.1024 30.3672,-1.5957 36.8763,-1.1316 51.585,-2.2834 68.6504,-5.371 7.4703,-1.3524 16.282,-2.7578 19.582,-3.125 3.3,-0.3678 8.0081,-1.3501 10.4629,-2.1817 7.8799,-2.6693 54.993,-32.0772 61.7754,-38.5605 1.7807,-1.7022 3.9603,-5.149 4.8437,-7.6602 0.8835,-2.5112 2.2472,-5.7758 3.0313,-7.2539 1.9297,-3.6375 6.0194,-28.3019 7.7969,-47.0195 2.3119,-24.3444 2.7365,-38.3506 1.5839,-52.293 -0.5911,-7.15 -1.4937,-19.3 -2.0058,-27 -0.6273,-9.4323 -2.4077,-21.3409 -5.4571,-36.5 -2.4883,-12.375 -4.5273,-23.6483 -4.5273,-25.0508 0,-1.4025 -0.4741,-3.019 -1.0488,-3.5937 -0.7263,-0.7263 0.059,-2.6933 2.5781,-6.4512 11.1288,-16.6021 33.4445,-70.5739 52.2637,-126.4043 16.8034,-49.8502 27.2031,-99.9929 27.2031,-131.1641 0,-24.0849 -3.3278,-59.0267 -10.459,-109.8359 -2.4702,-17.6 -6.3122,-47.3 -8.539,-66 -2.2268,-18.7 -4.7713,-39.97591 -5.6543,-47.2793 -1.496,-12.37446 -1.4909,-13.40555 0.072,-15.13281 1.0577,-1.16888 1.4633,-2.72762 1.0977,-4.2207 -0.4643,-1.89605 1.4397,-5.05592 9.5605,-15.86719 5.5772,-7.425 11.9699,-16.17947 14.2071,-19.45508 5.4694,-8.00781 14.9774,-27.42417 17.6523,-36.04883 2.5081,-8.08679 5.0466,-23.70191 5.0566,-31.08593 0.01,-4.42138 0.3268,-5.23591 2.4454,-6.20118 3.5556,-1.62006 9.6175,-14.73645 10.3027,-22.29296 0.4338,-4.78449 0,-7.60833 -2.1973,-14.36719 -3.2561,-10.01047 -5.1385,-12.04913 -11.121,-12.04913 l -4.3652,0 -1.0781,-5 c -2.7388,-12.69069 -8.1474,-45.18292 -9.9571,-59.82227 -1.7845,-14.43576 -4.8264,-50.12295 -11.0527,-129.67773 -4.8062,-61.41075 -7.164,-83.60989 -10.1758,-95.8125 -1.0112,-4.09703 -0.9122,-4.4733 1.9629,-7.5 l -15.625,14.21289 6.6328,-4.72851 0.5801,4.66406 c 1.0965,8.81234 3.6584,49.71872 5.6777,90.66406 3.2922,66.75867 6.4098,116.13913 8.5567,135.5 1.5871,14.31263 6.0651,42.20381 9.3105,57.99609 1.0733,5.22262 1.8753,9.54783 1.7813,9.61133 -0.094,0.0635 -4.1428,3.55507 -8.9961,7.75977 -4.8533,4.2047 -14.7533,12.0996 -22,17.54492 -7.2467,5.44533 -18.5758,15.02091 -25.1758,21.27734 -6.6,6.25642 -14.991,13.22792 -18.6465,15.49219 -7.553,4.67843 -23.8201,17.30961 -31.543,24.49219 -2.8546,2.65486 -5.6354,4.82617 -6.1796,4.82617 -0.5442,0 -3.9617,3.7125 -7.5938,8.25 -7.9383,9.91704 -12.165,20.95675 -11.0078,28.75 2.6407,17.78334 17.6332,67.52819 27.4258,91 7.581,18.1708 12.3048,26.367 32.8613,57 10.1497,15.125 19.7806,30.598 21.4004,34.3848 3.9168,9.1563 6.8651,24.8109 6.9902,37.1152 0.1378,13.5508 -1.0059,16.0603 -9.3164,20.4414 -9.1523,4.8248 -33.8409,21.1154 -38.8281,25.6211 -6.4228,5.8026 -9.9349,11.6227 -12.082,20.0176 -2.2521,8.8058 -1.5235,11.9488 2.5918,11.1621 2.2063,-0.4218 2.4488,-0.062 3.0605,4.5488 0.6878,5.1848 3.128,8.709 6.0293,8.709 3.1219,0 9.8528,-4.7971 13.125,-9.3535 8.329,-11.5979 7.7352,-23.4419 -1.3652,-27.2442 -1.8822,-0.7865 -3.4219,-1.832 -3.4219,-2.3242 0,-1.612 14.2014,-10.0933 29.877,-17.8437 17.14,-8.4743 19.6977,-10.8393 22.8984,-21.1699 2.7131,-8.7569 2.3838,-32.0527 -0.6016,-42.4961 -3.3535,-11.7314 -9.9958,-23.5888 -20.7636,-37.0684 -20.9662,-26.2464 -40.8189,-60.5483 -50.3536,-87 -2.3791,-6.6 -4.5155,-12.50477 -4.748,-13.12109 -0.2975,-0.78832 1.6124,-0.97443 6.4414,-0.62891 5.9703,0.42717 7.6015,0.14197 12.5215,-2.18555 11.0937,-5.24816 19.6515,-18.67864 20.5195,-32.20312 0.2598,-4.04881 0.7497,-7.35275 1.0899,-7.34375 1.2613,0.035 14.7145,3.78176 17.3691,4.83789 2.4948,0.99252 2.75,1.56654 2.75,6.16797 0,2.78972 2.9614,24.28703 6.5801,47.77344 8.6998,56.46492 8.8605,57.65792 11.8203,87.20312 4.9251,49.1622 5.9667,65.7078 6.0117,95.5 0.048,31.6543 -0.7193,38.6277 -7.4785,68 -5.936,25.7955 -21.2261,72.5013 -39.6055,120.9844 -13.0786,34.5003 -22.6661,55.1934 -33.5801,72.4707 -8.0088,12.6785 -14.0711,25.2708 -16.2128,33.6797 -0.9616,3.7754 -1.9843,7.5402 -2.2735,8.3652 -0.2893,0.825 -0.6642,2.5515 -0.834,3.8359 -0.9935,7.5167 -5.438,8.9408 -31.8847,10.2168 -10.4731,0.5054 -21.968,1.3652 -25.543,1.9121 -3.575,0.5469 -16.4633,1.0047 -28.6406,1.0157 -24.9936,0.023 -28.6425,0.6652 -53.5606,9.4316 l -12.6992,4.4668 -13.8008,-1.4121 c -20.6695,-2.1151 -58.0088,-7.1553 -100.2988,-13.541 -14.575,-2.2009 -35.275,-5.3254 -46,-6.9434 -18.4172,-2.7785 -35.3109,-4.9901 -50,-6.5429 -3.575,-0.3779 -8.8833,-1.3057 -11.7969,-2.0625 -10.6883,-2.7763 -26.3882,-14.909 -56.7031,-43.8204 -34.14517,-32.5643 -35.35439,-33.6915 -51,-47.5605 -8.25,-7.3132 -18.375,-16.3088 -22.5,-19.9883 -4.125,-3.6795 -13.8,-12.2852 -21.5,-19.125 -90.85447,-80.7053 -93.14502,-82.8904 -101.00977,-96.3105 -3.38109,-5.7694 -32.62684,-70.2627 -42.45312,-93.6192 -23.10946,-54.9297 -34.71112,-96.8825 -39.62695,-143.2871 -2.02343,-19.10075 -1.46454,-61.56073 1.02343,-77.666 6.68172,-43.25237 21.89374,-86.28165 52.14258,-147.5 22.63713,-45.81358 29.45923,-57.96482 36.63086,-65.25195 15.03586,-15.27804 34.23114,-30.46354 53.375,-42.22266 6.55443,-4.02606 14.19046,-8.77395 16.96875,-10.55078 2.77829,-1.77682 6.82829,-4.13772 9,-5.24609 6.06487,-3.0953 7.25234,-5.06565 9.50781,-15.78907 2.02364,-9.62118 2.08912,-12.51231 2.04102,-90.34961 -0.0343,-55.5131 -0.38945,-81.44057 -1.14649,-83.73437 C 909.35532,467.51403 905.2674,465 898.99609,465 Z M 1133.5,756.53125 c -15.6899,-0.028 -19.0384,0.25868 -26.0957,2.22656 -26.5669,7.40805 -59.4095,26.78379 -81.7656,48.23828 -9.4296,9.04936 -13.7893,15.94155 -15.6914,24.81055 -2.0605,9.60785 2.9512,15.15797 15.5527,17.22852 6.1926,1.0175 18.7297,0.27967 28,-1.64844 13.7871,-2.86754 37.1647,-11.97467 69,-26.88086 9.1115,-4.26629 20.3388,-7.66215 51.5,-15.57227 4.125,-1.04711 9.4056,-1.90995 11.7344,-1.91797 5.0192,-0.0182 23.6389,3.77243 41.7656,8.50196 7.15,1.86554 22.45,5.04713 34,7.07031 11.55,2.02318 24.375,4.32579 28.5,5.11719 8.8071,1.68968 28.1488,1.24564 30.4922,-0.69922 1.8651,-1.54789 1.2733,-2.5028 -3.3262,-5.37695 -11.1825,-6.98788 -85.1095,-36.86559 -110.166,-44.52344 -9.075,-2.77353 -19.875,-6.20073 -24,-7.61719 -4.125,-1.41647 -12.9,-4.00442 -19.5,-5.75 -11.3183,-2.9935 -13.0225,-3.17673 -30,-3.20703 z m -549.38672,64.92773 c 3.65691,-0.002 7.64459,0.16981 12.08008,0.48829 14.33144,1.02902 18.80168,2.21819 28.61328,7.61132 9.67482,5.31795 16.90226,10.93708 25.85938,20.10938 7.55557,7.73708 8.38989,9.0156 11.17187,17.09765 1.65366,4.80413 4.62201,13.15488 6.5957,18.55665 1.97368,5.40177 4.68465,15.30177 6.02539,22 1.34075,6.69823 3.58335,17.44107 4.98243,23.875 2.31122,10.62862 4.3362,24.92605 9.03515,63.80273 3.17762,26.29 4.48402,84.3013 2.55664,113.5 -0.96382,14.6014 -5.43954,45.4794 -9.20117,63.4805 -1.94098,9.2885 -2.616,10.9378 -5.9375,14.5 l -3.74805,4.0195 -23.82421,0.1348 c -36.23004,0.2065 -73.60721,-2.1504 -82.57813,-5.2071 -5.09753,-1.7369 -5.04846,-1.6385 -9.22266,-18.4277 -6.92938,-27.871 -29.90943,-72.7343 -52.85937,-103.1953 -24.85085,-32.984 -31.55111,-52.3224 -28.81836,-83.18947 3.14832,-35.56108 10.56749,-61.15575 26.8418,-92.61523 14.60539,-28.23334 26.4392,-42.96816 43.77929,-54.50586 13.14756,-8.74809 22.80183,-12.02498 38.64844,-12.03516 z m 982.37112,14.79297 c 1.1473,0.32518 -0.079,17.75349 -1.9395,26.74805 -2.7397,13.24629 -13.3241,31.15776 -28.2949,47.87891 -3.3739,3.7683 -8.3382,8.43436 -11.0312,10.36914 l -4.8965,3.51757 -5.2871,-3.33398 c -6.2304,-3.92839 -18.8219,-8.6747 -31.9141,-12.0293 -10.9636,-2.80918 -25.5032,-3.22791 -34.1523,-0.98437 -3.0073,0.77991 -5.6599,1.22486 -5.8965,0.98828 -0.2365,-0.23658 0.3809,-3.01214 1.3711,-6.16797 1.7958,-5.72383 4.6088,-10.5953 7.5195,-13.01758 2.6762,-2.22718 26.4368,-13.97099 45.8301,-22.65234 23.5213,-10.52923 67.3032,-30.51067 68.5722,-31.29492 0.042,-0.026 0.082,-0.032 0.1192,-0.0215 z m -993.26956,8.43164 c -7.98429,0.0493 -10.48109,0.54169 -16.71484,2.6836 -11.64926,4.00268 -20.89602,9.8564 -30.08398,19.04687 -7.49963,7.50167 -15.76525,18.50794 -19.83008,26.4043 -2.95979,5.74972 -1.18105,5.63826 3.33008,-0.20898 6.54954,-8.48943 21.04411,-21.821 29.26757,-26.91993 14.18662,-8.79637 26.19342,-11.11715 42.41016,-8.19726 11.49439,2.06961 22.45958,7.23264 29.29102,13.79492 12.72016,12.21895 31.51021,48.47448 38.08007,73.47656 0.61612,2.34472 2.49781,5.83222 4.18164,7.75 3.59322,4.09245 5.73799,4.34915 9.47266,1.13672 C 669.47273,947.75518 665.148,927.86782 650.8418,899.5 630.33869,858.8443 611.51625,844.87234 577,844.68555 c -1.39146,-0.008 -2.64454,-0.009 -3.78516,-0.002 z M 1210.5,875.59766 c -16.1919,0.0922 -55.198,3.25338 -68,5.51172 -12.2226,2.15611 -37.2855,9.2131 -46.3105,13.03906 -5.1209,2.17088 -12.7709,5.23268 -17,6.80468 -17.1983,6.39275 -43.74,19.43102 -45.7266,22.4629 -3.0699,4.68531 -1.4242,5.93268 6.8047,5.15625 7.7516,-0.73139 23.1934,-3.6012 32.8652,-6.10743 3.2663,-0.84636 6.3213,-1.30083 6.7891,-1.01172 0.4678,0.28914 1.1424,2.07684 1.498,3.97266 0.3557,1.89582 2.4545,6.15399 4.6641,9.46289 7.2498,10.85668 20.3055,18.16851 36.416,20.39649 15.8522,2.19228 33.6228,-1.7695 45.9375,-10.24219 10.2163,-7.02898 19.996,-19.37802 22.5391,-28.46094 0.7054,-2.51967 1.8211,-4.58203 2.4785,-4.58203 6.7069,0 47.2222,9.43427 54.6387,12.72266 2.4232,1.07465 9.0534,5.45752 14.7343,9.74023 9.3476,7.04698 10.5589,7.68193 12.75,6.68359 1.3316,-0.60672 2.4219,-1.80401 2.4219,-2.66015 0,-0.85615 0.7317,-2.6746 1.627,-4.04102 2.4026,-3.66671 1.3058,-10.021 -3.4375,-19.90625 -8.2824,-17.26093 -15.7987,-25.6352 -28.6895,-31.96679 -12.2747,-6.02899 -17.8693,-7.08357 -37,-6.97461 z m -610.09766,51.75 c -16.6144,-0.14486 -34.3983,7.221 -46.39257,20.32031 -24.89622,27.1899 -34.18745,77.10563 -17.27149,92.79103 1.50722,1.3975 2.97133,2.541 3.25195,2.541 0.28062,10e-5 0.51549,-9.1124 0.52149,-20.25 0.0106,-18.9467 0.18502,-20.8779 2.72461,-29.99805 10.50251,-37.71633 30.75142,-56.87635 60.26367,-57.02539 8.33577,-0.0421 11.31221,0.39892 17.88086,2.64844 4.33404,1.48425 8.12827,2.44984 8.43164,2.14648 1.09847,-1.09847 -6.19012,-7.43776 -10.86133,-9.44726 -5.72631,-2.4634 -12.04754,-3.66988 -18.54883,-3.72656 z m -12.78711,152.53904 -7.17773,3.5469 c -18.59523,9.1903 -30.76892,31.2814 -27.64062,50.1602 3.26498,19.7034 17.58435,35.1543 36.92382,39.8398 22.74443,5.5103 46.92002,-4.1102 55.77539,-22.1953 3.93443,-8.0351 4.61867,-20.2206 1.67579,-29.8731 -3.33531,-10.9395 -10.28683,-20.5568 -21.37305,-29.5703 -8.16028,-6.6346 -15.80633,-9.6125 -27.86133,-10.8496 z m 734.39067,0.1192 c -17.0597,-0.014 -40.2915,8.6388 -53.0079,20.6347 -11.4873,10.8366 -16.2954,22.9568 -16.4082,41.3594 -0.035,5.7853 0.5514,12.9696 1.3067,16 6.8592,27.5208 28.5813,40.9275 55.8847,34.4902 11.8986,-2.8053 16.7048,-6.6693 26.545,-21.3359 2.8242,-4.2094 5.5391,-7.1416 6.9121,-7.4648 13.6815,-3.2204 34.0346,-3.3314 45.2207,-0.2481 3.277,0.9032 6.056,1.7396 6.1758,1.8594 0.1198,0.1198 -0.6933,2.9141 -1.8067,6.209 -1.6884,4.997 -1.9537,7.8146 -1.5976,16.9902 0.2347,6.05 0.6158,11.6509 0.8476,12.4453 0.2792,0.957 -0.5904,1.6417 -2.5781,2.0293 -2.6862,0.5238 -2.9894,0.9563 -2.9004,4.1367 0.1409,5.0503 6.5132,17.6403 11.4316,22.586 2.2961,2.3079 6.0412,5.1188 8.3223,6.248 2.2811,1.1291 6.0483,2.0543 8.3731,2.0547 4.9799,9e-4 6.6608,-1.964 7.7031,-9 0.3666,-2.475 2.6708,-8.2079 5.1191,-12.7402 2.4483,-4.5323 4.4512,-9.1385 4.4512,-10.2364 0,-2.0435 -5.3508,-5.0234 -9.0215,-5.0234 -1.2994,0 -2.0767,-1.2789 -2.8847,-4.75 -1.3823,-5.9344 -1.9696,-13.7519 -1.3497,-17.9688 l 0.4747,-3.2207 2.9804,1.543 c 6.8857,3.5608 7.8376,-1.6411 1.3457,-7.3555 -5.8527,-5.1518 -13.9503,-9.3463 -25.1875,-13.0488 -14.1509,-4.6625 -19.898,-5.6319 -32.8574,-5.543 -16.2563,0.1119 -30.5259,3.2355 -42.3652,9.2754 -4.2381,2.1621 -11.1348,9.3059 -11.1348,11.5332 0,1.993 -8.9607,4.5352 -15.9844,4.5352 -8.0912,0 -14.8021,-3.5675 -19.3594,-10.293 -4.5859,-6.7685 -5.9887,-12.1823 -6.0117,-23.207 -0.037,-17.854 4.4604,-25.647 21.1407,-36.6406 16.3693,-10.7887 28.0187,-15.6167 39.996,-16.5723 4.0055,-0.3195 7.5403,-0.9977 7.8555,-1.5078 1.1077,-1.7921 -3.899,-5.6435 -8.8945,-6.8418 -2.6299,-0.6309 -5.5771,-0.929 -8.7363,-0.9316 z m 79.9043,88.123 c 1.7289,-0.053 7.0587,1.5207 9,2.7754 1.2127,0.7838 1.2127,1.3782 0,4.2539 -1.7227,4.0848 -1.7711,22.0328 -0.07,26.1582 0.8165,1.9806 0.8533,3.3891 0.125,4.75 -1.3347,2.4935 -5.1604,2.4799 -7.4277,-0.025 -2.6159,-2.8906 -4.7627,-20.8076 -3.6016,-30.0547 0.494,-3.9345 1.1575,-7.4133 1.4747,-7.7304 0.08,-0.08 0.253,-0.1194 0.5,-0.127 z m 69.8457,30.3789 c 2.7407,-0.01 7.3194,1.7627 8.3652,3.7168 1.2354,2.3084 -0.3756,7.6735 -3.9102,13.0254 -1.3622,2.0625 -2.6156,3.75 -2.7851,3.75 -0.6088,0 -1.2019,-1.5593 -1.9043,-5 -0.393,-1.925 -1.5731,-4.9894 -2.6211,-6.8105 -1.8873,-3.2796 -1.8109,-3.9402 0.9258,-8.0215 0.3063,-0.4569 1.0161,-0.6576 1.9297,-0.6602 z m -76.9922,11.4981 c 1.0761,-0.092 3.1942,0.9739 5.7363,2.9941 4.9488,3.9328 10.079,4.0654 14.4648,0.375 1.7154,-1.4435 3.3362,-2.4079 3.5997,-2.1445 0.2634,0.2635 -0.8813,3.2191 -2.543,6.5683 -1.6616,3.3491 -3.0215,6.7888 -3.0215,7.6446 0,3.7098 -4.5039,1.3621 -11.6582,-6.0762 -4.0376,-4.1979 -7.3418,-8.0229 -7.3418,-8.5 0,-0.5392 0.2745,-0.8196 0.7637,-0.8613 z m -17.2032,43.2597 c -0.1053,7e-4 -0.1786,0.019 -0.2148,0.055 -1.3133,1.3132 8.4639,9.951 15.0215,13.2695 6.9898,3.5371 7.3123,3.5967 16.1328,3.0782 11.2919,-0.6637 20.9676,-2.916 28.8652,-6.7207 l 6.1348,-2.9551 -7.5,0.5078 c -28.4305,1.9249 -32.3887,1.8797 -40.0879,-0.4512 -4.0768,-1.2342 -9.804,-3.37 -12.7266,-4.748 -2.5573,-1.2059 -4.8878,-2.04 -5.625,-2.0352 z m -36.8574,38.7969 c -10.5303,0.049 -22.0546,1.1845 -31.7031,3.3301 -6.325,1.4065 -20.5,4.1635 -31.5,6.1269 -11,1.9634 -25.5146,4.6609 -32.2559,5.9942 -6.7412,1.3332 -17.3162,2.902 -23.5,3.4863 -20.4332,1.9308 -21.594,2.1146 -22.8379,3.6133 -3.3086,3.987 8.5539,6.9582 23.5938,5.9082 10.3529,-0.7229 53.84,-7.3804 73,-11.1758 7.15,-1.4163 17.275,-3.4038 22.5,-4.416 12.9276,-2.5044 31.9082,-2.5344 42.2207,-0.066 7.0132,1.6784 8.1601,2.3145 12.5059,6.9433 3.4789,3.7056 7.1027,6.1675 13.2793,9.0196 11.5928,5.3531 17.3827,6.4764 31.0429,6.0215 10.4464,-0.3479 12.0633,-0.6711 18.4336,-3.6719 4.3343,-2.0418 8.5894,-5.0143 11.2188,-7.8379 l 4.2363,-4.5469 10.2813,5.0625 c 5.6546,2.7844 15.0062,7.7631 20.7812,11.0645 5.775,3.3014 11.5125,6.0209 12.75,6.0429 1.9359,0.034 2.25,-0.4785 2.25,-3.6679 0,-3.236 -0.7941,-4.4748 -6.25,-9.75 -7.5505,-7.3005 -20.4282,-14.2909 -33.25,-18.0489 -11.4732,-3.3628 -15.5341,-2.9112 -24.9238,2.7657 -6.7966,4.1092 -7.3189,4.2503 -16.8145,4.584 -7.2596,0.2547 -12.5829,-0.2241 -20.5312,-1.8477 -12.7558,-2.6056 -16.7215,-4.1296 -20.7305,-7.9727 -2.2911,-2.1963 -5.216,-3.3936 -12.3809,-5.0644 -5.6355,-1.3141 -13.2257,-1.9343 -21.416,-1.8965 z m -36.4043,62.041 c -8.9815,-0.1052 -17.125,1.5328 -13.4238,3.8203 1.0926,0.6752 0.9084,1.4493 -0.9414,3.9512 -1.959,2.6497 -2.2888,4.2656 -2.2188,10.8691 0.1029,9.6943 4.5796,23.0111 8.4004,24.9903 4.7936,2.483 7.0484,1.6029 13.5528,-5.2969 8.4921,-9.0085 14.3327,-16.7552 15.7558,-20.8945 l 1.1953,-3.4746 8.4395,5.6699 c 11.4904,7.7197 26.3845,14.8825 33.5293,16.125 25.4558,4.4269 36.8961,4.2577 56.8262,-0.8418 8.5512,-2.188 19.4935,-5.4986 24.3164,-7.3574 4.8228,-1.8589 13.4945,-4.3744 19.2695,-5.5899 14.5421,-3.0609 18,-4.1716 18,-5.7832 0,-5.3323 -21.8685,-5.6106 -43,-0.5469 -6.875,1.6475 -17.1578,3.9892 -22.8516,5.2032 l -10.3535,2.207 -18.1465,-2.1484 c -30.5986,-3.6216 -43.3456,-6.3947 -57.6425,-12.5411 -6.8843,-2.9596 -15.4213,-6.1253 -18.9727,-7.0351 -3.3957,-0.87 -7.6519,-1.2784 -11.7344,-1.3262 z m -4.7168,10.3106 c 6.3877,-0.041 18.0087,3.4166 17.2325,5.5761 -0.1726,0.4801 -3.6304,4.7288 -7.6836,9.4414 -4.0532,4.7126 -7.6819,8.5684 -8.0645,8.5684 -1.104,0 -4.9533,-11.9937 -5.6523,-17.6133 -0.5998,-4.8223 -0.4963,-5.1495 1.8027,-5.7265 0.6476,-0.1626 1.4527,-0.2403 2.3652,-0.2461 z m -643.43747,248.7988 c 0.44088,0.018 0.88137,0.05 1.32227,0.076 -0.44103,-0.026 -0.88125,-0.058 -1.32227,-0.076 z m 2.68555,0.1582 c 0.47823,0.037 0.9546,0.088 1.43164,0.1348 -0.47713,-0.047 -0.95332,-0.098 -1.43164,-0.1348 z m 2.70117,0.2637 c 0.44759,0.052 0.8924,0.1124 1.33789,0.1718 -0.44565,-0.059 -0.89014,-0.1203 -1.33789,-0.1718 z m 2.69141,0.3593 c 0.42276,0.064 0.84182,0.1376 1.26172,0.209 -0.42008,-0.071 -0.83878,-0.1445 -1.26172,-0.209 z m 2.66211,0.4571 c 0.41859,0.08 0.83335,0.1655 1.24804,0.2519 -0.41515,-0.086 -0.82898,-0.1723 -1.24804,-0.2519 z m 2.55078,0.5332 c 0.43439,0.099 0.86404,0.2042 1.29297,0.3105 -0.42911,-0.1064 -0.85839,-0.2115 -1.29297,-0.3105 z m 2.52734,0.6269 c 0.42304,0.1133 0.84134,0.2312 1.25781,0.3516 -0.41645,-0.1204 -0.83479,-0.2383 -1.25781,-0.3516 z m 2.46484,0.7129 c 0.40974,0.1272 0.81669,0.2567 1.21875,0.3906 -0.40249,-0.134 -0.80856,-0.2633 -1.21875,-0.3906 z m 2.34766,0.7813 c 0.39468,0.1403 0.78793,0.2809 1.17383,0.4277 -0.38613,-0.1469 -0.77892,-0.2873 -1.17383,-0.4277 z m 2.3418,0.8925 c 0.34828,0.1419 0.69729,0.2827 1.03711,0.4297 -0.33996,-0.1471 -0.68868,-0.2878 -1.03711,-0.4297 z m 2.19336,0.9551 c 0.31442,0.1461 0.63165,0.2908 0.9375,0.4414 -0.30611,-0.1507 -0.6228,-0.2952 -0.9375,-0.4414 z m 1.99414,0.9883 c 0.32046,0.1692 0.64573,0.3355 0.95508,0.5098 -0.30948,-0.1744 -0.63447,-0.3405 -0.95508,-0.5098 z m 1.93164,1.0918 c 0.27556,0.1669 0.55911,0.3309 0.82422,0.502 -0.26508,-0.1711 -0.54868,-0.3351 -0.82422,-0.502 z m 1.91406,1.252 c 0.19421,0.1376 0.40058,0.2701 0.58789,0.4101 -0.18719,-0.1399 -0.39382,-0.2726 -0.58789,-0.4101 z m -274.13281,21.164 c 0.3314,0.2654 0.66912,0.4945 0.99609,0.6778 -0.32697,-0.1833 -0.66469,-0.4124 -0.99609,-0.6778 z m 197.6543,108.4785 -18.6836,7.1895 6.8457,9.1914 c 30.37661,40.7848 74.74754,77.742 134.16602,111.75 14.12922,8.0868 39.9143,20.957 53,26.4531 49.03012,20.5933 87.88734,31.6406 129.5,36.8164 8.58175,1.0674 37.45405,0.5305 47.71484,-0.8867 27.09522,-3.7423 52.90666,-12.81 64.08396,-22.5137 2.6389,-2.291 4.6281,-4.3329 4.4219,-4.539 -0.2061,-0.2061 -3.2642,0.7711 -6.7969,2.1718 -16.9597,6.7241 -39.12048,9.8887 -68.9238,9.8457 -23.17546,-0.033 -35.33942,-1.074 -58,-4.9667 C 801.4401,1905.8521 685.72536,1842.5564 626.62695,1774 c -12.23417,-14.1921 -17.10187,-20.9255 -15.95507,-22.0723 z"
       style="fill:#000000"
       inkscape:connector-curvature="0" />
    <path
       id="path305"
       d="m 200.86133,898.33984 c -0.7105,0.0605 -1.61271,0.58029 -3.27149,1.60547 -3.21666,1.988 -11.00064,11.00193 -14.72656,17.05469 -2.28053,3.70471 -6.46787,16.45597 -8.21094,25 -5.6322,27.60751 -6.79109,46.27075 -6.98632,112.5 -0.15201,51.5684 -0.30625,56.2572 -1.94141,59.25 -2.99586,5.4833 -5.33552,4.0896 -10.49219,-6.25 -4.30925,-8.6405 -9.08511,-24.2832 -10.9668,-35.9258 -2.30543,-14.2646 -2.23401,-42.8611 0.13868,-56.0742 3.2216,-17.9405 10.52547,-37.19303 18.58984,-49 7.07812,-10.36302 3.86615,-11.45208 -4.42383,-1.5 -3.20701,3.85 -6.04977,7 -6.3164,7 -0.55333,0 1.83351,-3.87262 5.54492,-9 l 2.5332,-3.5 -3.25781,3 c -9.62094,8.85928 -16.7873,20.57522 -22.60938,36.9668 -9.28523,26.1418 -13.57121,51.0976 -13.57422,79.0332 -0.004,35.6732 9.92899,69.9313 22.49805,77.5957 6.04671,3.6872 13.12362,1.6985 20.97852,-5.8926 13.05624,-12.6177 19.79798,-31.8974 23.67187,-67.7031 1.27014,-11.7397 2.87023,-66.0574 2.92383,-99.25 0.0206,-12.7875 0.39079,-23.25 0.82422,-23.25 1.73281,0 16.88188,50.9389 22.24023,74.7832 1.05621,4.7 1.42424,5.2163 3.33008,4.6797 6.36295,-1.7915 11.77984,-13.1013 13.79297,-28.7988 1.41061,-10.99942 1.18854,-12.32884 -8.74805,-52.1641 -10.21778,-40.96258 -14.77684,-54.8137 -19.41992,-59.01562 -0.89262,-0.80782 -1.41059,-1.20507 -2.12109,-1.14454 z m 35.58789,141.01176 c -0.52162,-0.154 -2.16033,2.291 -3.64063,5.4336 -5.69806,12.0968 -29.67815,52.4752 -53.57812,90.2148 -38.81717,61.2948 -42.17713,67 -39.45313,67 0.42763,0 1.8074,-0.7217 3.06641,-1.6035 2.15762,-1.5113 2.3214,-1.4826 2.83984,0.5 0.30253,1.1568 1.31315,2.1035 2.2461,2.1035 0.93295,0 2.98561,1.3463 4.5625,2.9922 l 2.86719,2.9922 3.24414,-1.9121 c 2.85918,-1.687 3.31308,-1.7302 3.83984,-0.3575 0.53215,1.3867 0.8044,1.3709 2.47461,-0.1406 1.45137,-1.3135 1.98055,-1.3994 2.3418,-0.3847 0.25675,0.7211 0.65956,1.0855 0.89453,0.8105 0.23496,-0.275 2.34331,-3.1002 4.6875,-6.2773 3.77661,-5.1185 6.1582,-6.5256 6.1582,-3.6407 0,0.5301 3.76667,9.1665 8.37109,19.1914 12.3172,26.8176 12.62891,27.5236 12.62891,28.6719 0,0.5802 0.45,1.0547 1,1.0547 1.83586,0 1.0365,2.5305 -3.80664,12.0508 -2.6437,5.1969 -6.43663,13.0753 -8.42969,17.5078 -3.56162,7.921 -11.76367,30.6992 -11.76367,32.6699 0,0.5525 0.92691,0.7613 2.06055,0.4649 1.2615,-0.3299 2.27336,0.014 2.60742,0.8847 0.3002,0.7823 1.17329,1.4219 1.93945,1.4219 0.76615,0 1.39258,0.9 1.39258,2 0,2.7218 0.55213,2.5498 4.81641,-1.4922 4.30395,-4.0797 4.82649,-4.2085 5.71093,-1.4219 l 0.66211,2.086 2.25,-2.1153 c 1.23751,-1.1625 2.91902,-1.8565 3.73633,-1.5429 1.01455,0.3893 2.69644,-1.2664 5.30078,-5.2207 13.07799,-19.8573 34.21227,-47.1634 53.15625,-68.6778 19.09357,-21.6844 21.92401,-25.2116 24.35938,-30.3535 2.69736,-5.6951 2.58658,-13.6836 -0.33789,-24.2695 C 280.88912,1166.363 272.45691,1148 269.96484,1148 c -2.97285,0 -43.04679,55.9315 -51.22851,71.5 l -1.57617,3 -1.07032,-2.791 c -0.58902,-1.5351 -2.6008,-7.3851 -4.4707,-13 -1.8699,-5.615 -5.71928,-16.409 -8.55273,-23.9863 -2.83345,-7.5774 -4.82823,-14.3274 -4.4336,-15 0.39462,-0.6727 5.05781,-7.0727 10.36328,-14.2227 25.8254,-34.804 32.57031,-46.2482 35.55274,-60.3203 1.85863,-8.7696 1.82954,-23.4363 -0.0664,-32.6152 -1.64027,-7.941 -6.49412,-20.7585 -8.0332,-21.2129 z m 66.18555,184.7949 -9.56641,9.7265 c -16.60059,16.878 -36.90507,31.9084 -57.06836,42.2461 -8.703,4.462 -10.54872,5.8119 -10.78906,7.8829 -0.15948,1.3743 -1.44931,4.856 -2.86524,7.7382 -2.99498,6.0965 -4.10038,15.7942 -2.48242,21.7715 0.59715,2.2061 4.76993,9.8561 9.27344,17 18.9187,30.0107 37.39031,65.3109 42.25976,80.7617 0.51813,1.644 0.8233,1.6622 4.20313,0.25 4.7674,-1.992 4.7457,-2 4.06445,1.4063 -0.34723,1.7362 -0.13963,3.0785 0.50977,3.2949 0.75865,0.2529 0.57923,2.4263 -0.58399,7.0645 -4.56489,18.2021 -3.25567,43.5993 3.02149,58.6289 1.3818,3.3084 1.30049,3.6259 -2.50977,10 -3.5599,5.9552 -3.75127,6.6132 -2.01758,6.9023 1.05404,0.1757 1.91602,1.0118 1.91602,1.8574 0,1.0721 0.52977,1.3188 1.75,0.8164 4.10152,-1.6885 5.11087,-1.6208 6.19922,0.4121 0.61645,1.1522 1.98868,2.0938 3.04883,2.0938 1.23264,0 3.37032,2.1257 5.92968,5.8945 2.20122,3.2415 4.58622,6.504 5.30079,7.25 0.71457,0.7461 3.75283,4.202 6.75,7.6797 2.99717,3.4777 9.06434,9.3682 13.48437,13.0918 26.23822,22.1044 50.82388,31.5282 69.56836,26.666 3.00662,-0.7799 5.56357,-1.3211 5.68164,-1.2031 0.11807,0.1181 -0.45708,2.4436 -1.27734,5.168 -2.15323,7.1515 -2.86771,20.7684 -1.53711,29.2832 1.32432,8.4746 4.9509,19.4175 8.60156,25.9492 l 2.54102,4.5449 -3.52149,5.9102 c -3.61573,6.0697 -4.39167,8.423 -2.36719,7.1718 0.63344,-0.3913 1.71883,0.064 2.41211,1.0118 1.17893,1.612 1.46583,1.6174 4.44922,0.074 3.06206,-1.5834 3.28282,-1.5626 5.51367,0.5332 1.27816,1.2008 2.82119,1.8767 3.42774,1.5019 0.61743,-0.3816 4.55665,2.5692 8.95117,6.7032 14.60057,13.7352 38.43386,27.8649 57.60156,34.1484 26.6127,8.7241 47.6708,7.4491 64.95313,-3.9297 3.31797,-2.1846 3.39655,-2.38 -3.01758,7.5508 C 528.52773,1713.6421 514,1737.2287 514,1738.4277 c 0,1.3626 4.44081,0.3938 7.19922,-1.5703 2.3332,-1.6614 3.18627,-1.8529 3.80273,-0.8554 0.53398,0.864 2.05819,1.0992 4.64649,0.7168 2.11856,-0.3145 6.00797,-0.2224 8.64453,0.2031 4.23858,0.6841 5.29297,0.4592 9.09375,-1.9512 3.23207,-2.0497 4.73017,-2.4847 6.03906,-1.7519 1.31106,0.7325 2.31196,0.4381 4.05274,-1.1973 1.53758,-1.4445 2.54026,-1.8 2.99609,-1.0625 0.43349,0.7014 1.47412,0.085 2.83398,-1.6758 3.40495,-4.4092 7.56922,-8.7526 7.9043,-8.2461 L 584,1704.5059 c 0,-0.3141 5.93065,-8.0852 13.17969,-17.2696 22.42973,-28.4213 36.40808,-47.4582 39.82422,-54.2343 2.72515,-5.4055 3.35878,-7.9544 3.76953,-15.1582 0.434,-7.613 0.21356,-9.2467 -1.82617,-13.502 -2.95316,-6.1609 -11.7351,-14.7705 -19.98438,-19.5918 -9.81814,-5.7382 -10.65356,-5.4488 -15.72656,5.4492 -4.6268,9.9394 -25.1908,45.8008 -26.26367,45.8008 -0.36231,0 -0.0702,-3.0375 0.64843,-6.75 4.27408,-22.0816 -2.61638,-49.6073 -18.60937,-74.3516 L 555,1548.6895 l -18.64062,-25.586 c -0.16319,0.3319 -7.84824,-6.8731 -17.07813,-16.0097 -24.63432,-24.3868 -46.16943,-41.0918 -52.98828,-41.0918 -9.25045,-0.01 -18.138,19.2029 -15.87305,34.3066 0.65339,4.3571 0.96606,4.6877 10.62696,11.2226 5.47462,3.7046 9.95312,7.1133 9.95312,7.5782 0,0.8089 -2.46997,5.4966 -8.65234,16.4258 -5.28661,9.3457 -33.43368,55.9459 -35.20899,58.291 l -1.76172,2.3242 -3.56836,-5.8242 c -7.06865,-11.5369 -12.85355,-25.8773 -12.78125,-31.6817 0.0147,-1.1796 1.89015,-4.1695 4.16797,-6.6445 8.70978,-9.4637 16.7501,-24.3096 21.50196,-39.7012 2.55825,-8.2864 2.71652,-9.9357 2.73242,-28.2988 0.0162,-18.7813 -0.10042,-19.9467 -3.18555,-31.6113 -5.65971,-21.3987 -15.22445,-43.3032 -28.55078,-65.3887 -21.22089,-35.1691 -48.97459,-69 -56.60547,-69 -7.49365,0 -16.01281,18.2253 -16.07031,34.3789 -0.017,4.7915 0.13775,5.038 8.69922,13.7871 7.26239,7.4216 8.54207,9.1941 7.66015,10.6211 -0.58223,0.942 -2.55559,4.4129 -4.38476,7.7129 -1.82917,3.3 -5.33325,9.375 -7.78711,13.5 -2.45387,4.125 -5.35926,9.075 -6.45508,11 -1.78265,3.1315 -16.8586,27.8281 -23.63086,38.7109 -1.44105,2.3158 -3.06914,4.0815 -3.61914,3.9239 -1.76887,-0.5066 -8.20481,-19.6964 -9.96289,-29.7051 -1.94335,-11.0634 -2.03857,-10.5361 7.14062,-39.9297 8.96912,-28.7209 14.03814,-42.5955 23.97461,-65.627 6.58663,-15.2671 6.84713,-16.1782 6.82813,-23.873 -0.0172,-6.9508 -0.49791,-9.1148 -3.6582,-16.5 -2.00054,-4.675 -4.41504,-10.975 -5.36719,-14 -2.24191,-7.1227 -5.14034,-12.9685 -13.22656,-26.6777 z m -16.14063,82.209 c 0.11561,-0.012 0.18948,0 0.21875,0.025 0.23418,0.2342 -1.38475,8.0056 -3.59961,17.2714 -2.21487,9.2659 -4.5756,19.8852 -5.24414,23.5977 -0.66854,3.7125 -1.55379,6.75 -1.96875,6.75 -0.41495,0 -2.18058,-3.7125 -3.92383,-8.25 -1.74324,-4.5375 -5.19464,-12.9096 -7.66797,-18.6055 -2.47333,-5.6959 -4.11644,-10.6754 -3.65234,-11.0644 0.4641,-0.3891 3.46333,-1.4991 6.66406,-2.4668 3.20073,-0.9677 8.77666,-3.0866 12.39258,-4.709 3.16393,-1.4195 5.97198,-2.4661 6.78125,-2.5488 z M 204.48438,1314 c -2.7974,0 -8.53906,6.3308 -11.65626,12.8516 -2.45011,5.1254 -3.28121,8.386 -3.62304,14.2343 -0.56174,9.6107 0.58497,12.2829 12.4082,28.918 9.75894,13.7307 13.57267,19.4069 27.54102,40.9961 8.29634,12.8227 12.98784,20.5128 28.03515,45.9375 2.09527,3.5402 3.81055,7.0815 3.81055,7.8711 0,1.2053 0.2807,1.2238 1.75,0.1113 5.02951,-3.808 6.20792,-5.4599 6.82227,-9.5566 0.35994,-2.4003 1.05346,-4.3633 1.54101,-4.3633 1.68425,0 0.8479,-9.5256 -1.49219,-17 -6.58268,-21.0255 -25.59822,-60.8948 -42.69921,-89.5234 C 217.20279,1328.2061 206.74419,1314 204.48438,1314 Z m 170.18164,97.918 c 0.89624,-0.044 2.51445,1.2779 3.69921,3.3379 27.08315,47.0902 38.8732,93.597 26.18165,103.2773 -13.80521,10.5298 -49.48461,-2.7098 -74.99805,-27.8281 -5.13132,-5.0519 -6.70225,-7.1963 -6,-8.1934 0.52323,-0.7429 5.65952,-7.575 11.41406,-15.1816 C 349.54902,1448.0495 374,1413.9461 374,1412.8828 c 0,-0.6436 0.25863,-0.9449 0.66602,-0.9648 z M 335.0918,1456 c 0.52531,0 -2.4902,5.0625 -6.70118,11.25 C 321.40499,1477.5145 318,1481.0346 318,1477.9941 c 0,-0.6336 2.61236,-4.3779 5.80469,-8.3222 3.19233,-3.9443 6.82324,-8.6344 8.06836,-10.4219 1.24512,-1.7875 2.69344,-3.25 3.21875,-3.25 z m 168.39843,94.5586 c 2.19644,-0.2064 4.59674,3.6198 11.05274,11.9414 9.17584,11.8274 17.20534,24.0629 21.87891,33.3438 6.15723,12.0299 17.5873,36.8334 8.73046,47.2578 -0.78694,1.7413 -2.67829,2.6789 -6.13867,4.2129 -5.232,2.3194 -19.02216,3.1094 -28.48828,1.6328 -17.98064,-2.8047 -41.8708,-12.7847 -56.29687,-23.5176 -2.05027,-1.5253 -3.86783,-2.8734 -4.03907,-2.9961 -0.17124,-0.1226 5.03981,-7.3576 11.58008,-16.0781 18.08003,-24.1068 25.16292,-33.7972 33.74024,-46.1524 4.26331,-6.1411 6.04243,-9.4624 7.98046,-9.6445 z m -42.41601,44.3906 c 0.15181,0.023 0.32073,0.1137 0.4707,0.2637 0.29994,0.3 -2.96256,5.755 -7.25,12.123 -4.28744,6.368 -8.10629,11.5971 -8.48633,11.6211 -1.22071,0.076 -1.95002,-1.9174 -1.17382,-3.207 0.41378,-0.6875 4.13268,-5.525 8.26562,-10.75 4.13295,-5.225 7.64591,-9.6868 7.80664,-9.916 0.0804,-0.1146 0.21538,-0.1581 0.36719,-0.1348 z m 192.39648,18.2051 c -0.92755,0 -1.85188,0.015 -2.77148,0.053 l -7.19727,0.293 -0.94336,6 c -0.5192,3.3 -0.97045,24.45 -1.00195,47 l -0.0566,41 -8.5,2.8574 c -10.58488,3.5576 -23.37726,8.5276 -32.39453,12.586 -3.79165,1.7066 -6.98886,2.9801 -7.10547,2.83 l -15.63672,8.9883 -6.45703,4.3692 c -4.492,3.0393 -7.0587,5.6075 -8.43164,8.4355 -2.76615,5.6978 -2.51913,7.1235 2.02539,11.668 2.2,2.2 4,4.4538 4,5.0078 0,0.5806 1.2412,0.7596 2.92969,0.4219 1.74592,-0.3492 3.07759,-0.1403 3.29687,0.5175 0.25135,0.754 1.46202,0.6093 3.82032,-0.457 1.89877,-0.8585 5.58786,-2.4712 8.19726,-3.584 l 4.74414,-2.0234 18.6836,-7.1895 c 1.28092,-1.2809 34.26587,-12.322 34.90429,-11.6836 0.26815,0.2682 1.78084,6.7346 3.36133,14.3711 4.90188,23.6846 12.82811,44.9646 19.89648,53.418 3.90249,4.6672 11.25213,8.5586 20.75196,10.9883 8.86258,2.2666 19.00354,2.6418 19.70508,0.7285 0.36666,-1 0.7232,-1 1.7832,0 1.82995,1.7264 2.92578,1.5633 2.92578,-0.4355 0,-0.9271 0.92255,-2.6683 2.05078,-3.8692 l 2.05274,-2.1836 -2.97657,-5.8808 c -7.00472,-13.8474 -13.89762,-34.4613 -17.01562,-50.8809 -2.63632,-13.8831 -4.29779,-28.712 -3.32617,-29.6836 0.77095,-0.771 28.82904,-7.0939 56.71484,-12.7793 8.8,-1.7941 23.2,-5.0044 32,-7.1348 14.10067,-3.4135 16.32645,-4.2337 18.75,-6.9043 5.0955,-5.615 3.21859,-12.4965 -5.69531,-20.8847 l -5.72461,-5.3867 -6.16406,0.5761 c -9.83635,0.9196 -73.79792,13.9685 -86.56446,17.6602 l -3.40039,0.9824 0.63672,-9.2226 c 0.34979,-5.0726 1.11575,-14.3977 1.70117,-20.7227 1.85245,-20.0141 -0.71148,-32.8702 -7.79297,-39.0879 -7.31552,-6.4231 -21.86206,-10.7367 -35.77539,-10.7578 z M 940.75,1720.1484 c -12.06578,0.1588 -19.12054,1.5644 -30.25,5.295 -25.604,8.5822 -42.18028,24.3285 -41.82617,39.7324 0.11716,5.0965 0.93336,7.697 5.40625,17.2187 0.23088,0.4915 -3.59529,1.7057 -8.50196,2.6993 -48.40902,9.8001 -81.15875,39.7593 -73.24023,66.998 4.32331,14.8717 20.47873,29.7226 41.72461,38.3555 6.98972,2.8402 27.15339,7.2733 38.4375,8.4511 38.58169,4.0271 82.19631,-3.5736 95.83789,-16.7031 C 972.64111,1878.0536 979,1866.3564 979,1862.582 c 0,-1.3573 -0.9568,-4.0909 -2.12695,-6.0742 -2.63381,-4.464 -5.24278,-4.3454 -5.6875,0.2578 -0.39864,4.1262 -2.49074,5.2346 -16.26758,8.6133 -28.53015,6.9969 -56.91516,7.0426 -84.48438,0.1387 -15.31783,-3.8359 -26.12858,-8.2994 -36.23437,-14.9571 C 826.35733,1845.3942 822,1840.1443 822,1835.8574 c 0,-8.3164 24.52472,-17.6057 57.78906,-21.8886 16.81583,-2.1656 38.92887,-2.5679 49.21094,-0.8965 9.20169,1.4957 13.20241,1.3928 16.73047,-0.4317 7.33758,-3.7944 9.98217,-15.0348 5.19336,-22.0703 -3.23942,-4.7593 -6.79761,-6.2791 -19.08203,-8.1543 -5.68852,-0.8684 -11.64891,-1.9794 -13.2461,-2.4687 -8.3386,-2.5542 -24.0772,-15.2131 -23.38476,-18.8086 0.3702,-1.9223 4.20088,-3.8938 11.20508,-5.7676 18.87886,-5.0505 42.95692,-5.9809 60.08398,-2.3223 5.5,1.1748 15.175,2.3508 21.5,2.6133 10.30817,0.4278 11.83085,0.2675 14.6953,-1.5449 3.6364,-2.3007 4.9686,-6.7702 3.8281,-12.8496 -1.005,-5.3571 -8.3768,-12.3682 -15.95309,-15.1758 -10.65948,-3.9502 -18.61479,-5.1895 -37.07031,-5.7695 -2.60988,-0.082 -5.01212,-0.1394 -7.24609,-0.168 -1.95473,-0.025 -3.78023,-0.028 -5.50391,-0.01 z m 500.7852,13.5059 c -5.6142,-0.032 -12.6736,0.9467 -19.0352,2.8105 -17.659,5.1738 -22.9187,9.5352 -11.5,9.5352 11.2443,0 12.5458,5.02 4.8281,18.625 -10.4291,18.3849 -39.2888,44.5537 -50.8437,46.1035 -4.9677,0.6664 -8.997,-2.9015 -8.961,-7.9336 0.034,-4.7243 3.8628,-13.3808 9.2188,-20.8457 6.5066,-9.0685 12.6878,-14.9052 33.6055,-31.7226 4.5871,-3.6876 4.5686,-5.5371 -0.076,-7.1563 -7.8006,-2.7193 -19.5522,0.013 -29.8379,6.9375 -15.269,10.2794 -37.8792,30.8715 -47.7539,43.4922 -5.1791,6.6192 -9.7496,14.9658 -11.1875,20.4297 -2.835,10.7721 -28.3154,29.9021 -58.9727,44.2754 -36.9078,17.3038 -72.2304,19.813 -85.289,6.0605 -10.0536,-10.5878 -2.0408,-24.2221 24.789,-42.1797 19.2662,-12.8953 47.9512,-24.6009 66.4805,-27.1289 8.9979,-1.2275 26.7659,-1.4836 30.0742,-0.4336 4.5272,1.4368 23.2866,-12.1168 33.6133,-24.2851 8.8503,-10.4285 7.1343,-13.2383 -8.0781,-13.2383 -19.6288,0 -53.7167,9.1303 -86.5059,23.1699 -26.3214,11.2703 -48.6,25.4139 -67.3711,42.7715 -5.8283,5.3894 -17.3512,19.7694 -21.8789,27.3027 -17.6619,29.3866 -8.2193,49.5585 25.1465,53.7207 12.7939,1.5959 38.1591,-1.7913 53.5,-7.1445 20.1581,-7.0341 34.6049,-13.9511 49.4414,-23.6699 10.5695,-6.9237 24.2879,-18.3896 29.6426,-24.7774 5.3128,-6.3378 11.992,-16.2683 12.8633,-19.123 0.9516,-3.1181 2.2699,-2.8105 3.0429,0.709 0.7061,3.2148 6.1568,8.5692 10.3711,10.1894 3.2928,1.266 16.633,1.1979 22.4922,-0.1152 33.3999,-7.4851 77.8091,-40.3143 102.8535,-76.0332 10.7554,-15.3396 11.9547,-25.6052 3.4082,-29.166 -1.8636,-0.7765 -4.7115,-1.1603 -8.08,-1.1797 z m -385.5547,75.6582 c -19.1379,-0.1708 -44.1043,2.6133 -67.20902,7.666 -31.7785,6.9496 -60.02638,17.448 -68.13671,25.3242 -6.77436,6.5788 -9.46409,15.6405 -6.07813,20.4746 l 0,0 c 2.06789,2.9523 8.18513,3.0479 11.49219,0.1797 8.76811,-7.6046 43.81088,-15.5379 88.45117,-20.0254 14.6074,-1.4649 46.4167,-1.467 54.2812,0 5.2356,0.9764 7.3082,0.9094 12.4434,-0.4062 7.8234,-2.0043 12.3681,-5.4278 13.8731,-10.4512 1.6457,-5.4927 0.3948,-10.5203 -3.7618,-15.1211 -4.2276,-4.6795 -6.6873,-5.4269 -23.1308,-7.0371 -3.7012,-0.3624 -7.8082,-0.5602 -12.2246,-0.5996 z M 1394.1699,1834 c -3.2119,0 -13.6924,1.7045 -27.6699,4.5 -15.2534,3.0507 -52.8139,14.6822 -74.8594,23.1816 -14.8776,5.7359 -21.7026,11.2701 -27.1972,22.0547 -2.9024,5.6967 -2.7178,7.8483 0.7851,9.1699 3.3868,1.2781 8.0335,0.2411 20.7715,-4.6289 52.9423,-20.2412 95.493,-35.2773 99.8281,-35.2773 2.8965,0 11.481,-10.4494 10.6739,-12.9922 -0.3666,-1.155 -0.1842,-2.0078 0.4296,-2.0078 0.5871,0 1.0684,-0.9 1.0684,-2 0,-1.6519 -0.6662,-2 -3.8301,-2 z"
       style="fill:#1b0ef4;fill-opacity:1"
       inkscape:connector-curvature="0" />
    <path
       id="path299"
       d="m 1094.9004,103.64453 c -7.022,0.0272 -14.3069,0.16467 -21.9004,0.4082 -76.94995,2.46792 -141.01338,12.64139 -194,30.80469 -35.66209,12.22462 -58.04164,21.59355 -90.73828,37.99024 -67.30632,33.75272 -112.82793,63.91418 -169.24219,112.13086 -14.7932,12.6436 -44.53784,41.84479 -52.86328,51.89843 -10.80776,13.05123 -45.62558,70.17003 -59.2793,97.24805 -4.72759,9.37574 -15.49861,41.48453 -20.99218,62.57812 -4.2707,16.39816 -10.04774,49.05574 -11.81641,66.79688 C 471.90732,585.17691 469,619.43563 469,623.22656 c 0,2.12432 -1.13856,8.45558 -2.53125,14.06836 -1.3927,5.61278 -2.97888,13.35508 -3.52344,17.20508 -0.54456,3.85 -1.25256,7.84362 -1.57422,8.875 -1.10248,3.5349 1.51237,0.63002 12.76172,-14.17188 C 480.279,641.11597 485.97276,633.825 486.78516,633 c 1.30742,-1.32769 1.40146,-1.21281 0.81836,1 C 482.25004,654.31583 477,691.87529 477,709.85938 c 0,25.69303 3.86434,38.5485 12.17969,40.51171 4.37334,1.03251 7.31447,-0.84147 13.43945,-8.5625 3.18887,-4.01982 12.52973,-14.73359 20.75781,-23.80859 8.22809,-9.075 17.47125,-19.60683 20.54102,-23.4043 12.0438,-14.8989 36.87933,-38.10942 68.08203,-63.62695 6.325,-5.17257 16.20747,-13.83333 21.96094,-19.24609 5.75346,-5.41275 12.41528,-11.05121 14.80468,-12.53125 7.47335,-4.62907 12.27686,-8.11238 40.39063,-29.28321 109.6116,-82.54207 182.81746,-126.64806 230.34961,-138.7832 15.98609,-4.08132 57.1789,-9.13121 89.99414,-11.0332 120.3482,-6.97544 167.7608,-4.35936 217.3652,11.99023 12.9936,4.2827 16.5179,5.83069 72.6348,31.9082 55.7952,25.92802 75.0525,34.80683 90,41.4961 7.7,3.44589 17.6,7.94859 22,10.00586 15.7176,7.34892 21.0212,8.82473 33.4258,9.29883 11.3341,0.43318 21.9507,-0.92864 42.0742,-5.39258 9.7087,-2.15366 25.1815,-10.41524 42.1328,-22.49805 l 15.625,-14.21289 c 6.597,-6.94496 13.7973,-23.64482 17.3281,-40.1875 4.5823,-21.46957 4.7362,-55.52937 0.3672,-81.5 -3.4678,-20.61294 -15.4124,-48.49908 -28.6972,-67 -22.8904,-31.87821 -52.6761,-59.65867 -84.7559,-79.05078 -20.5046,-12.39496 -56.0884,-29.61423 -90.5,-43.79297 -14.8162,-6.10479 -67.8293,-27.15235 -76,-30.17383 -21.3117,-7.88096 -54.3329,-18.31517 -77.4023,-24.45703 -32.3002,-8.59942 -63.6702,-12.60134 -103.2618,-12.87109 -2.2841,-0.0156 -4.5949,-0.0188 -6.9355,-0.01 z"
       style="fill:#1c25c0;fill-opacity:1"
       inkscape:connector-curvature="0" />
    <path
       id="path256"
       d="m 1525.985,292.97199 c -0.5969,-1.1154 -1.5346,-1.75034 -2.0837,-1.41097 -0.644,0.39797 -0.5827,1.11798 0.1726,2.02801 1.7707,2.13363 3.1456,1.68972 1.9111,-0.61704 z"
       style="fill:#000000"
       inkscape:connector-curvature="0" />
  </g>
</svg>
