<?xml version="1.0" encoding="UTF-8" standalone="no"?>
<!-- Generator: Adobe Illustrator 16.0.0, SVG Export Plug-In . SVG Version: 6.00 Build 0)  -->

<svg
   xmlns:dc="http://purl.org/dc/elements/1.1/"
   xmlns:cc="http://creativecommons.org/ns#"
   xmlns:rdf="http://www.w3.org/1999/02/22-rdf-syntax-ns#"
   xmlns:svg="http://www.w3.org/2000/svg"
   xmlns="http://www.w3.org/2000/svg"
   xmlns:sodipodi="http://sodipodi.sourceforge.net/DTD/sodipodi-0.dtd"
   xmlns:inkscape="http://www.inkscape.org/namespaces/inkscape"
   version="1.1"
   id="Layer_1"
   x="0px"
   y="0px"
   width="257.7168"
   height="257.71875"
   viewBox="0 0 257.71679 257.71876"
   enable-background="new 0 0 266.893 266.895"
   xml:space="preserve"
   inkscape:version="0.91+devel+osxmenu r12922"
   sodipodi:docname="F_icon.svg"><metadata
     id="metadata4148"><rdf:RDF><cc:Work
         rdf:about=""><dc:format>image/svg+xml</dc:format><dc:type
           rdf:resource="http://purl.org/dc/dcmitype/StillImage" /><dc:title></dc:title></cc:Work></rdf:RDF></metadata><defs
     id="defs4146" /><sodipodi:namedview
     pagecolor="#ffffff"
     bordercolor="#666666"
     borderopacity="1"
     objecttolerance="10"
     gridtolerance="10"
     guidetolerance="10"
     inkscape:pageopacity="0"
     inkscape:pageshadow="2"
     inkscape:window-width="1180"
     inkscape:window-height="837"
     id="namedview4144"
     showgrid="false"
     fit-margin-top="0"
     fit-margin-left="0"
     fit-margin-right="0"
     fit-margin-bottom="0"
     inkscape:zoom="0.94"
     inkscape:cx="65.103475"
     inkscape:cy="109.52671"
     inkscape:window-x="0"
     inkscape:window-y="23"
     inkscape:window-maximized="0"
     inkscape:current-layer="Layer_1" /><path
     d="M 14.224609,0 C 6.3676094,0 0,6.3676094 0,14.224609 L 0,243.49414 c 0,7.855 6.3666094,14.22461 14.224609,14.22461 l 123.429691,0 0,-99.80273 -33.58399,0 0,-38.89453 33.58399,0 0,-28.6836 c 0,-33.287 20.33039,-51.414062 50.02539,-51.414062 14.224,0 26.44972,1.059203 30.01172,1.533203 l 0,34.787109 -20.59571,0.0098 c -16.148,0 -19.27539,7.674547 -19.27539,18.935547 l 0,24.832033 38.51563,0 -5.01563,38.89453 -33.5,0 0,99.80273 65.67383,0 c 7.854,0 14.22266,-6.36861 14.22266,-14.22461 l 0,-229.269527 C 257.7168,6.3676434 251.34914,3.4e-5 243.49414,3.4e-5 l -229.269531,0 z"
     id="Blue_1_"
     inkscape:connector-curvature="0" /></svg>