<?xml version="1.0" encoding="UTF-8" standalone="no"?>
<!-- Created with Inkscape (http://www.inkscape.org/) -->

<svg
   xmlns:dc="http://purl.org/dc/elements/1.1/"
   xmlns:cc="http://creativecommons.org/ns#"
   xmlns:rdf="http://www.w3.org/1999/02/22-rdf-syntax-ns#"
   xmlns:svg="http://www.w3.org/2000/svg"
   xmlns="http://www.w3.org/2000/svg"
   xmlns:sodipodi="http://sodipodi.sourceforge.net/DTD/sodipodi-0.dtd"
   xmlns:inkscape="http://www.inkscape.org/namespaces/inkscape"
   width="43.438354"
   height="42.366486"
   viewBox="0 0 11.493064 11.209466"
   id="svg4147"
   version="1.1"
   inkscape:version="0.92.4 (5da689c313, 2019-01-14)"
   sodipodi:docname="soundcloud.svg">
  <defs
     id="defs4149" />
  <sodipodi:namedview
     id="base"
     pagecolor="#ffffff"
     bordercolor="#666666"
     borderopacity="1.0"
     inkscape:pageopacity="0.0"
     inkscape:pageshadow="2"
     inkscape:zoom="2.16"
     inkscape:cx="-88.981194"
     inkscape:cy="22.601387"
     inkscape:document-units="px"
     inkscape:current-layer="layer1"
     showgrid="false"
     units="px"
     fit-margin-top="0"
     fit-margin-left="0"
     fit-margin-right="0"
     fit-margin-bottom="0"
     inkscape:window-width="1440"
     inkscape:window-height="900"
     inkscape:window-x="228"
     inkscape:window-y="63"
     inkscape:window-maximized="0" />
  <metadata
     id="metadata4152">
    <rdf:RDF>
      <cc:Work
         rdf:about="">
        <dc:format>image/svg+xml</dc:format>
        <dc:type
           rdf:resource="http://purl.org/dc/dcmitype/StillImage" />
        <dc:title></dc:title>
      </cc:Work>
    </rdf:RDF>
  </metadata>
  <g
     inkscape:label="Layer 1"
     inkscape:groupmode="layer"
     id="layer1">
    <path
       inkscape:connector-curvature="0"
       style="stroke-width:0.26458332"
       d="m 0.13008911,6.0948553 c -0.023891,0 -0.042944,0.01845 -0.045969,0.04506 L 4.6811505e-5,6.7783303 0.08412011,7.4055533 c 3.025e-4,0.02631 0.022077,0.04476 0.045969,0.04476 0.023287,0 0.042037,-0.01815 0.045969,-0.04476 l 0.099497,-0.627526 -0.099497,-0.638414 c -0.00362,-0.02631 -0.022682,-0.04476 -0.045969,-0.04476 m 0.4726866,-0.348695 c -0.00393,-0.02752 -0.02359,-0.04627 -0.047783,-0.04627 -0.024194,0 -0.044456,0.01966 -0.047783,0.04627 0,2.9e-5 -0.1131059,1.032168 -0.1131059,1.032168 l 0.1131059,1.009184 c 0.00333,0.02722 0.023287,0.04658 0.047783,0.04658 0.024194,0 0.043852,-0.01905 0.047783,-0.04627 l 0.1285296,-1.009488 z M 2.3828355,4.7941303 c -0.04627,0 -0.084678,0.0378 -0.086795,0.0862 l -0.090122,1.898912 0.090122,1.227232 c 0.00242,0.04809 0.040524,0.08589 0.086795,0.08589 0.045969,0 0.084376,-0.0378 0.087098,-0.08589 v 3e-5 l 0.101614,-1.227232 -0.101614,-1.898911 c -0.00272,-0.04809 -0.040827,-0.0862 -0.087098,-0.0862 m -0.9214819,0.659887 c -0.035686,0 -0.064719,0.02843 -0.06744,0.06623 l -0.1013122,1.258078 0.1013122,1.215739 c 0.00272,0.0378 0.031754,0.06623 0.06744,0.06623 0.035081,0 0.064416,-0.02843 0.06744,-0.06623 L 1.644017,6.7783523 1.5287939,5.5199713 c -3.025e-4,-0.0378 -0.032057,-0.06623 -0.06744,-0.06623 m 1.8577826,2.637731 c 0.057461,0 0.1043355,-0.04627 0.1064524,-0.105546 l 0.088308,-1.206365 -0.088005,-2.527951 c -0.00242,-0.05928 -0.048993,-0.105546 -0.1064524,-0.105546 -0.058065,0 -0.1049402,0.04658 -0.1067553,0.105843 0,0 -0.078327,2.527649 -0.078327,2.527649 l 0.078327,1.206969 c 0.00182,0.05897 0.04869,0.105248 0.1064524,0.105248 z m 1.9167549,0.0057 c 0.079235,0 0.1442557,-0.06503 0.1457678,-0.145163 v 9.07e-4 -9.07e-4 l 0.061694,-1.171891 -0.061694,-2.919589 c -0.00151,-0.07984 -0.066835,-0.145163 -0.1457678,-0.145163 -0.079235,0 -0.144558,0.06503 -0.1457676,0.145466 l -0.055041,2.91868 c 0,0.0018 0.055041,1.173703 0.055041,1.173703 0.00121,0.07923 0.066835,0.144558 0.1457676,0.144558 m -0.9656355,-0.0046 c 0.068952,0 0.1242957,-0.05534 0.1261102,-0.125808 v 9.07e-4 l 0.075001,-1.188216 -0.075001,-2.5464 c -0.00182,-0.07047 -0.057461,-0.125505 -0.1261102,-0.125505 -0.069255,0 -0.1249006,0.05504 -0.1264128,0.125505 l -0.066533,2.5464 0.066835,1.187916 c 0.00151,0.06955 0.056856,0.1249 0.1264128,0.1249 m -2.3498243,-0.0112 c 0.040827,0 0.074094,-0.03267 0.077118,-0.07591 l 0.10857,-1.227183 -0.1085693,-1.167655 c -3.024e-4,-0.04324 -0.035989,-0.0756 -0.077118,-0.0756 -0.041432,0 -0.074698,0.03267 -0.077118,0.07622 l -0.095565,1.167049 0.095565,1.227232 c 0.00272,0.04325 0.035686,0.07591 0.077118,0.07591 M 1.0074175,8.0145883 c 0.02994,0 0.054133,-0.02359 0.05746,-0.05625 L 1.1867543,6.7782863 1.064878,5.5537773 c -0.00363,-0.03267 -0.027823,-0.05625 -0.057762,-0.05625 -0.030242,0 -0.054436,0.02359 -0.05746,0.05625 0,0 -0.1073599,1.224509 -0.1073599,1.224509 l 0.1073599,1.179752 c 3.025e-4,0.03267 0.027219,0.05656 0.05746,0.05656 m 3.7449001,-3.82353 c -0.074698,0 -0.1345781,0.05957 -0.1360902,0.135485 l -0.060787,2.453253 0.060787,1.180658 c 0.00151,0.07501 0.061391,0.134578 0.1360902,0.134578 0.074698,0 0.1342757,-0.05928 0.1360902,-0.135485 v 9.07e-4 l 0.068348,-1.180658 -0.068348,-2.453857 c -0.00182,-0.07591 -0.061391,-0.135184 -0.1360902,-0.135184 m -1.9019362,3.903068 c 0.051714,0 0.094356,-0.04204 0.096776,-0.09586 l 0.094961,-1.218763 -0.094961,-2.333192 c -0.00272,-0.05384 -0.045061,-0.09586 -0.096776,-0.09586 -0.052016,0 -0.094659,0.04204 -0.096776,0.09586 0,0 -0.084073,2.333191 -0.084073,2.333191 l 0.084073,1.218763 c 0.00211,0.05323 0.044758,0.09526 0.096776,0.09526 m 1.0599914,-0.114921 v -6.04e-4 l 0.081654,-1.198815 -0.081655,-2.613234 c -0.00182,-0.06503 -0.053227,-0.115828 -0.1164328,-0.115828 -0.063509,0 -0.1146181,0.05081 -0.1164326,0.115828 l -0.072279,2.612932 0.072581,1.199408 c 0.00182,0.06442 0.052924,0.114921 0.1164328,0.114921 0.063206,0 0.1143157,-0.05081 0.1164327,-0.115525 z m 6.1694227,-2.705776 c -0.1935505,0 -0.3783305,0.03932 -0.5467805,0.109776 -0.112501,-1.274108 -1.1806578,-2.273312 -2.4837971,-2.273312 -0.3187536,0 -0.629644,0.0629 -0.9042439,0.169054 -0.1067553,0.04113 -0.1351829,0.08377 -0.1360902,0.166332 v 4.486441 c 0.00121,0.08649 0.068348,0.15847 0.1527235,0.16724 0.00362,3e-5 3.8930872,0.0024 3.9181882,0.0024 0.780554,0 1.413524,-0.63297 1.413524,-1.413524 0,-0.780855 -0.632669,-1.413826 -1.413524,-1.413826 M 5.7194651,3.4405223 c -0.084981,0 -0.154538,0.06955 -0.1557477,0.155445 l -0.063811,3.184209 0.063811,1.155556 c 0.00121,0.08438 0.070767,0.153933 0.1557477,0.153933 0.084678,0 0.1542356,-0.06955 0.1557476,-0.155142 v 0.0015 l 0.069255,-1.155856 -0.069255,-3.184512 c -0.00121,-0.08528 -0.071069,-0.155142 -0.1557476,-0.155142"
       id="path15" />
  </g>
</svg>
