<?xml version="1.0" encoding="UTF-8" standalone="no"?>
<!-- Created with Inkscape (http://www.inkscape.org/) -->

<svg
   xmlns:dc="http://purl.org/dc/elements/1.1/"
   xmlns:cc="http://creativecommons.org/ns#"
   xmlns:rdf="http://www.w3.org/1999/02/22-rdf-syntax-ns#"
   xmlns:svg="http://www.w3.org/2000/svg"
   xmlns="http://www.w3.org/2000/svg"
   xmlns:sodipodi="http://sodipodi.sourceforge.net/DTD/sodipodi-0.dtd"
   xmlns:inkscape="http://www.inkscape.org/namespaces/inkscape"
   width="200"
   height="200"
   viewBox="0 0 52.916665 52.916668"
   version="1.1"
   id="svg8"
   inkscape:version="0.92.1 r15371"
   sodipodi:docname="wellingtonista.svg">
  <defs
     id="defs2" />
  <sodipodi:namedview
     id="base"
     pagecolor="#ffffff"
     bordercolor="#666666"
     borderopacity="1.0"
     inkscape:pageopacity="0.0"
     inkscape:pageshadow="2"
     inkscape:zoom="0.35"
     inkscape:cx="47.142857"
     inkscape:cy="560"
     inkscape:document-units="px"
     inkscape:current-layer="layer1"
     showgrid="false"
     units="px" />
  <metadata
     id="metadata5">
    <rdf:RDF>
      <cc:Work
         rdf:about="">
        <dc:format>image/svg+xml</dc:format>
        <dc:type
           rdf:resource="http://purl.org/dc/dcmitype/StillImage" />
        <dc:title></dc:title>
      </cc:Work>
    </rdf:RDF>
  </metadata>
  <g
     inkscape:label="Layer 1"
     inkscape:groupmode="layer"
     id="layer1"
     transform="translate(0,-244.08332)">
    <path
       inkscape:connector-curvature="0"
       id="path14"
       d="m 12.481355,254.65623 q -3.6618758,1.39254 -5.6733288,4.33236 -2.011452,2.88825 -2.011452,7.11744 0,1.90829 0.361014,2.68192 0.361013,0.72208 0.361013,0.82525 -2.785087,0 -4.177631,-1.1347 Q 2.4999998e-7,267.29229 2.4999998e-7,264.61032 q 0,-3.30083 2.68193995000002,-6.39537 2.733508,-3.1461 6.962719,-5.05443 4.2292048,-1.95985 8.4584108,-1.95985 0.722062,0 2.063026,0.10332 l 0.464182,31.71905 10.830896,-31.56433 h 6.550117 l 0.464182,31.56433 10.830896,-31.56433 h 3.610297 L 38.578621,289.88264 H 31.15172 l -0.618908,-26.25205 -9.799381,26.25205 H 13.30653 Z" />
  </g>
</svg>
