<?xml version="1.0" encoding="UTF-8" standalone="no"?>
<!-- Created with Inkscape (http://www.inkscape.org/) -->

<svg
   xmlns:dc="http://purl.org/dc/elements/1.1/"
   xmlns:cc="http://creativecommons.org/ns#"
   xmlns:rdf="http://www.w3.org/1999/02/22-rdf-syntax-ns#"
   xmlns:svg="http://www.w3.org/2000/svg"
   xmlns="http://www.w3.org/2000/svg"
   xmlns:sodipodi="http://sodipodi.sourceforge.net/DTD/sodipodi-0.dtd"
   xmlns:inkscape="http://www.inkscape.org/namespaces/inkscape"
   width="169.39894"
   height="100"
   viewBox="0 0 44.820135 26.458334"
   version="1.1"
   id="svg1502"
   sodipodi:docname="footer_cnz.svg"
   inkscape:version="0.92.4 (5da689c313, 2019-01-14)">
  <defs
     id="defs1496">
    <clipPath
       id="clipPath8280"
       clipPathUnits="userSpaceOnUse">
      <path
         inkscape:connector-curvature="0"
         id="path8282"
         d="M 0,77.837 H 328.653 V 0.06 H 0 Z" />
    </clipPath>
  </defs>
  <sodipodi:namedview
     id="base"
     pagecolor="#ffffff"
     bordercolor="#666666"
     borderopacity="1.0"
     inkscape:pageopacity="0.0"
     inkscape:pageshadow="2"
     inkscape:zoom="1"
     inkscape:cx="80.298031"
     inkscape:cy="67.838187"
     inkscape:document-units="px"
     inkscape:current-layer="layer1"
     showgrid="false"
     units="px"
     fit-margin-top="0"
     fit-margin-left="0"
     fit-margin-right="0"
     fit-margin-bottom="0" />
  <metadata
     id="metadata1499">
    <rdf:RDF>
      <cc:Work
         rdf:about="">
        <dc:format>image/svg+xml</dc:format>
        <dc:type
           rdf:resource="http://purl.org/dc/dcmitype/StillImage" />
        <dc:title></dc:title>
      </cc:Work>
    </rdf:RDF>
  </metadata>
  <g
     inkscape:label="Layer 1"
     inkscape:groupmode="layer"
     id="layer1"
     transform="translate(-103.89538,-189.46445)">
    <g
       style="fill:#ffffff;stroke-width:1.41418576"
       transform="matrix(0.12629868,0,0,-0.12629868,105.52932,207.73026)"
       inkscape:label="logo_cnz-standard-logo-gold-eps"
       id="g8268">
      <g
         style="fill:#ffffff;stroke-width:1.41418576"
         transform="matrix(1.0797787,0,0,1.0797787,-12.936249,-3.0557672)"
         id="g3651">
        <g
           id="g8276"
           style="fill:#ffffff;stroke-width:1.41418576">
          <g
             id="g8278"
             clip-path="url(#clipPath8280)"
             style="fill:#ffffff;stroke-width:1.41418576">
            <path
               d="m 0.001,39.536 c 8.155,0.79 17.862,6.214 17.862,16.514 0,6.446 -4.551,10.037 -7.917,10.037 -2.993,0 -4.94,-2.04 -4.662,-5.673 0,0 1.146,2.818 4.11,2.818 3.314,0 5.569,-3.019 5.569,-7.089 0,-4.243 -4.116,-11.511 -14.962,-12.429 z M 95.463,56.12 c -0.535,2.281 -2.202,4.859 -5.356,4.859 -3.392,0 -5.416,-2.777 -6.07,-5.255 z m 16.168,-8.58 c -0.237,-0.645 -0.416,-1.289 -0.416,-1.983 0,-2.083 1.429,-3.919 4.166,-3.919 1.607,0 3.214,0.894 4.285,1.836 v 7.488 z m 83.088,13.292 c -3.69,0.147 -5.06,-3.82 -6.428,-6.497 l -7.796,-15.176 h -1.011 l -8.689,17.456 c -1.13,2.233 -1.488,3.968 -4.88,4.217 v 0.743 h 12.319 v -0.743 c -4.404,0 -3.571,-1.687 -2.321,-4.217 l 6.011,-12.15 2.618,5.257 c 0.833,1.736 3.57,7.588 3.57,9.225 0,1.636 -2.261,1.685 -3.748,1.885 v 0.743 h 10.355 z M 167.138,40.399 v -0.745 h -13.866 v 0.745 c 4.404,0.545 4.582,1.141 4.641,5.009 v 9.472 c 0,2.082 0.06,2.727 -3.63,4.512 v 0.496 l 7.558,2.183 0.656,-0.199 V 45.408 c 0,-4.066 0.237,-4.464 4.641,-5.009 z m -4.165,31.046 c 0,-1.39 -1.37,-2.53 -3.036,-2.53 -1.667,0 -3.035,1.14 -3.035,2.53 0,1.387 1.368,2.527 3.035,2.527 1.666,0 3.036,-1.14 3.036,-2.527 z M 149.996,40.746 c -2.976,-0.942 -6.13,-1.587 -9.404,-1.587 -5.771,0 -5.474,2.528 -5.474,6.348 v 13.488 h -3.987 l -0.298,0.348 8.332,6.893 h 0.534 v -5.158 h 9.404 v -2.083 h -9.404 V 48.384 c 0,-4.414 0.06,-7.191 6.547,-7.191 1.19,0 2.381,0.098 3.511,0.347 z m -20.57,-0.249 c -2.262,-0.544 -4.226,-1.09 -6.011,-1.09 -2.499,0 -3.452,1.19 -3.749,3.125 -1.904,-1.786 -4.522,-3.373 -7.558,-3.373 -3.808,0 -5.951,2.678 -5.951,5.654 0,0.744 0.119,1.438 0.357,2.181 l 13.152,4.959 c 0.476,5.406 -1.191,7.638 -5.892,7.638 -4.106,0 -3.69,-1.637 -3.69,-4.364 l -2.975,-0.149 c -0.476,0 -1.369,-0.05 -1.369,0.496 0,1.34 6.547,6.497 11.367,6.497 5.475,0 7.142,-3.472 7.142,-7.439 V 47.59 c 0,-4.364 -0.359,-5.406 5.177,-6.349 z m -27.417,4.415 c -2.261,-3.225 -6.308,-5.753 -10.95,-5.753 -7.379,0 -12.497,5.058 -12.497,11.009 0,6.397 5.355,11.903 13.39,11.903 5.356,0 8.927,-2.827 9.164,-7.291 H 83.858 L 83.62,52.301 c -0.476,-5.157 3.75,-9.968 10.475,-9.968 3.094,0 5.237,1.141 7.021,3.124 z M 77.181,59.789 c 0,-1.338 -1.727,-2.578 -3.095,-3.124 -1.012,0.645 -2.499,1.736 -3.809,1.637 -5.058,-0.397 -4.641,-7.141 -4.641,-7.885 v -5.009 c 0,-4.066 0.237,-4.464 5.951,-5.009 V 39.654 H 56.708 v 0.745 c 4.107,0.545 4.286,1.141 4.346,5.009 v 9.472 c 0,2.082 0.058,2.727 -2.916,4.512 v 0.496 l 7.081,2.183 0.654,-0.199 -0.118,-5.851 c 1.308,2.628 4.641,6.05 8.391,6.05 1.665,0 3.035,-0.893 3.035,-2.282 z M 54.647,43.275 c -2.678,-2.529 -6.368,-4.116 -10.474,-4.116 -7.26,0 -12.259,5.058 -12.259,10.861 0,6.942 7.26,12.051 15.295,12.051 1.904,0 6.485,-0.199 6.485,-2.48 0,-1.091 -1.427,-2.281 -2.797,-2.281 -2.082,0 -4.225,3.223 -7.201,3.223 -4.76,0 -7.021,-4.612 -7.021,-7.985 0,-6.397 5.237,-10.463 11.128,-10.463 2.44,0 4.166,0.744 6.13,1.934 z m 162.678,2.18 v 32.38 h -8.527 L 0,77.837 V 48.79 c 9.922,0.228 11.8,6.334 11.8,8.003 0,1.705 -0.968,3.638 -2.809,3.638 -1.842,0 -2.025,-1.612 -2.025,-1.612 0.183,0.323 0.874,0.6 1.334,0.6 0.461,0 1.612,-0.422 1.612,-1.803 0,-1.381 -1.112,-2.52 -2.815,-2.52 -1.703,0 -5.379,1.696 -5.379,8.788 0,6.835 5.017,12.928 11.808,12.928 5.396,0 8.095,-3.345 8.095,-6.258 0,-1.743 -1.079,-3.724 -3.353,-3.724 -2.611,0 -3.131,2.072 -3.131,2.808 0,0.716 0.244,1.819 1.842,1.819 1.293,0 1.587,-1.69 1.081,-2.349 0,0 0.899,0.255 0.899,1.452 0,0.828 -0.631,3.268 -4.674,3.268 -6.915,0 -8.499,-6.565 -8.499,-6.565 1.613,1.611 3.552,1.771 4.868,1.771 2.865,0 10.72,-3.153 10.72,-13.989 0,-8.61 -7.089,-15.884 -14.161,-18.81 0,0 2.531,-3.092 6.629,-3.092 3.419,0 5.507,2.501 5.507,4.507 0,2.004 -1.293,2.122 -1.648,2.122 -0.614,0 -1.001,-0.414 -1.001,-0.414 1.055,0 1.238,-0.957 1.238,-1.263 0,-0.206 -0.114,-1.38 -1.586,-1.38 -1.474,0 -2.253,1.019 -2.253,2.291 0,1.416 1.311,3.153 3.876,3.153 2.042,0 4.123,-1.594 4.123,-5.232 0,-3.113 -3.506,-7.174 -9.309,-7.174 -6.748,0 -10.173,5.189 -10.173,5.189 0,0 -1.079,-0.175 -2.616,-0.353 v -5.945 l 80.191,-0.022 v -0.036 h 137.134 v 15.202 c -2.351,-2.668 -5.973,-4.629 -10.06,-4.629 -7.378,0 -12.496,5.058 -12.496,11.009 0,6.397 5.355,11.903 13.389,11.903 5.357,0 8.928,-2.827 9.165,-7.291 h -17.258 l -0.238,-2.479 c -0.476,-5.157 3.75,-9.968 10.474,-9.968 3.095,0 5.237,1.141 7.022,3.124 z m -11.012,15.524 c -3.392,0 -5.416,-2.777 -6.069,-5.255 l 11.425,0.396 c -0.534,2.281 -2.201,4.859 -5.356,4.859"
               style="fill:#ffffff;fill-opacity:1;fill-rule:nonzero;stroke:none;stroke-width:1.41418576"
               id="path8284"
               inkscape:connector-curvature="0" />
            <path
               d="m 324.626,3.384 c -0.287,-0.049 -1.701,-0.032 -2.023,-0.016 -0.072,0 -0.125,0.098 -0.125,0.146 0.268,0.668 0.751,1.675 1.074,2.424 0.036,0.066 0.179,0 0.179,-0.015 0.089,-0.197 0.698,-1.595 1.02,-2.376 0.036,-0.081 -0.072,-0.163 -0.125,-0.163 z m -0.305,4.54 c -0.09,0 -0.161,-0.016 -0.304,-0.195 -0.125,-0.147 -0.34,-0.277 -0.447,-0.423 -0.126,-0.115 -0.197,-0.212 -0.216,-0.293 -0.035,-0.212 -0.178,-0.571 -0.411,-1.058 -0.233,-0.52 -1.7,-3.678 -1.987,-4.198 -0.465,-0.781 -0.716,-0.911 -1.342,-1.058 -0.251,-0.065 -0.43,-0.131 -0.43,-0.261 0,-0.129 0.197,-0.194 0.358,-0.194 0.448,0 0.895,0.081 1.486,0.081 0.465,0 0.841,-0.05 1.307,-0.05 0.214,0 0.411,0.066 0.411,0.197 0,0.162 -0.197,0.195 -0.394,0.259 -0.59,0.164 -0.698,0.31 -0.698,0.636 0,0.324 0.305,0.976 0.43,1.252 0.054,0.082 0.215,0.082 0.555,0.098 0.608,0.015 1.842,0.015 2.076,0 0.322,-0.016 0.394,-0.066 0.43,-0.163 0.125,-0.26 0.429,-1.107 0.429,-1.237 0,-0.195 -0.179,-0.456 -0.716,-0.569 -0.304,-0.065 -0.429,-0.146 -0.429,-0.244 0,-0.114 0.161,-0.229 0.429,-0.229 0.573,0 0.877,0.05 1.307,0.05 0.591,0 1.253,-0.081 2.112,-0.081 0.197,0 0.376,0.13 0.376,0.26 0,0.081 -0.107,0.163 -0.43,0.244 -0.769,0.179 -0.912,0.309 -1.288,1.123 -0.448,0.895 -1.969,4.393 -2.202,4.995 -0.036,0.066 -0.125,0.31 -0.215,0.863 -0.018,0.114 -0.125,0.195 -0.197,0.195 z m -9.987,-0.472 c 2.291,0 3.078,-2.489 3.078,-3.433 0,-0.994 -0.215,-2.002 -0.698,-2.572 -0.68,-0.78 -1.521,-0.894 -1.951,-0.894 -1.2,0 -3.025,1.301 -3.025,3.595 0,1.383 0.43,2.133 0.877,2.556 0.519,0.537 1.289,0.748 1.719,0.748 z m 0.214,0.472 c -0.895,0 -2.112,-0.244 -3.151,-1.139 -0.804,-0.684 -1.288,-1.66 -1.288,-2.8 0,-1.951 1.647,-3.921 4.6,-3.921 0.448,0 1.897,0.13 2.882,0.977 0.967,0.797 1.431,1.709 1.431,3.059 0,2.131 -1.968,3.824 -4.474,3.824 z m -9.969,-0.652 c 1.557,0 2.13,-0.894 2.13,-1.578 0,-0.65 -0.484,-1.073 -0.752,-1.253 -0.233,-0.146 -1.146,-0.276 -1.933,-0.276 -0.108,0 -0.179,0.082 -0.179,0.179 0,0.147 0.052,2.425 0.052,2.588 0,0.129 0.091,0.227 0.18,0.259 0.126,0.05 0.323,0.081 0.502,0.081 z m -3.473,0.229 c 0,-0.114 0.179,-0.211 0.448,-0.26 0.895,-0.131 0.913,-0.391 0.948,-0.733 0.036,-0.39 0.018,-0.797 0.018,-1.497 0,-1.53 -0.071,-2.946 -0.089,-3.27 -0.036,-0.717 -0.161,-0.863 -0.967,-1.042 -0.304,-0.065 -0.447,-0.195 -0.447,-0.293 0,-0.113 0.179,-0.195 0.483,-0.195 0.555,0 1.11,0.114 1.665,0.114 0.447,0 0.823,-0.05 1.396,-0.05 0.179,0 0.483,0.034 0.483,0.229 0,0.13 -0.215,0.212 -0.358,0.244 -0.465,0.13 -0.77,0.194 -0.789,0.684 -0.034,0.878 -0.052,1.741 -0.052,2.082 0,0.049 0.036,0.097 0.071,0.131 0.126,0.097 0.215,0.114 0.287,0.114 0.411,0 0.93,-0.212 1.092,-0.441 0.286,-0.389 1.288,-1.854 1.611,-2.179 0.769,-0.782 1.431,-1.009 2.165,-1.009 0.663,0 1.074,0.097 1.074,0.293 0,0.145 -0.053,0.179 -0.322,0.227 -0.501,0.081 -1.074,0.489 -1.486,0.896 -0.733,0.748 -1.449,1.806 -1.807,2.424 -0.018,0.015 0.035,0.081 0.071,0.097 0.537,0.147 1.54,0.652 1.54,1.79 0,0.489 -0.197,0.912 -0.645,1.286 -0.376,0.358 -1.163,0.602 -2.327,0.602 -1.485,0 -2.183,-0.065 -2.613,-0.065 -0.197,0 -0.573,0 -1.002,0 -0.233,0 -0.448,-0.065 -0.448,-0.179 z m -4.17,-4.117 c -0.287,-0.049 -1.701,-0.032 -2.023,-0.016 -0.071,0 -0.125,0.098 -0.125,0.146 0.268,0.668 0.752,1.675 1.074,2.424 0.035,0.066 0.179,0 0.179,-0.015 0.089,-0.197 0.698,-1.595 1.02,-2.376 0.036,-0.081 -0.072,-0.163 -0.125,-0.163 z m -0.304,4.54 c -0.09,0 -0.162,-0.016 -0.305,-0.195 -0.125,-0.147 -0.34,-0.277 -0.447,-0.423 -0.126,-0.115 -0.197,-0.212 -0.215,-0.293 -0.036,-0.212 -0.179,-0.571 -0.412,-1.058 -0.232,-0.52 -1.7,-3.678 -1.987,-4.198 -0.465,-0.781 -0.716,-0.911 -1.342,-1.058 -0.251,-0.065 -0.43,-0.131 -0.43,-0.261 0,-0.129 0.197,-0.194 0.358,-0.194 0.448,0 0.895,0.081 1.486,0.081 0.465,0 0.841,-0.05 1.307,-0.05 0.214,0 0.411,0.066 0.411,0.197 0,0.162 -0.197,0.195 -0.393,0.259 -0.591,0.164 -0.698,0.31 -0.698,0.636 0,0.324 0.304,0.976 0.429,1.252 0.054,0.082 0.215,0.082 0.555,0.098 0.609,0.015 1.844,0.015 2.076,0 0.322,-0.016 0.394,-0.066 0.43,-0.163 0.125,-0.26 0.429,-1.107 0.429,-1.237 0,-0.195 -0.179,-0.456 -0.716,-0.569 -0.304,-0.065 -0.429,-0.146 -0.429,-0.244 0,-0.114 0.161,-0.229 0.429,-0.229 0.573,0 0.878,0.05 1.307,0.05 0.591,0 1.253,-0.081 2.112,-0.081 0.197,0 0.376,0.13 0.376,0.26 0,0.081 -0.107,0.163 -0.429,0.244 -0.77,0.179 -0.913,0.309 -1.289,1.123 -0.448,0.895 -1.969,4.393 -2.202,4.995 -0.036,0.066 -0.125,0.31 -0.215,0.863 -0.018,0.114 -0.125,0.195 -0.196,0.195 z m -9.38,-3.547 c -0.143,0.032 -0.214,0.114 -0.214,0.195 -0.036,0.505 -0.018,2.148 0.035,2.392 0.018,0.064 0.09,0.212 0.161,0.212 1.325,0 1.522,-0.049 1.773,-0.066 0.554,-0.065 0.769,-0.276 1.091,-0.879 0.144,-0.26 0.287,-0.325 0.376,-0.325 0.054,0 0.179,0.098 0.179,0.293 0,0.228 -0.125,0.911 -0.125,1.383 0,0.065 -0.107,0.163 -0.215,0.147 -0.429,-0.082 -0.501,-0.065 -3.938,-0.065 -0.68,0 -1.253,0.065 -1.575,0.065 -0.286,0 -0.483,-0.065 -0.483,-0.179 0,-0.148 0.215,-0.228 0.429,-0.278 0.752,-0.162 0.86,-0.389 0.878,-0.731 0.035,-0.7 0.035,-1.53 0.035,-2.278 0,-1.058 -0.018,-2.116 -0.053,-2.555 -0.054,-0.569 -0.09,-0.766 -1.092,-0.977 -0.197,-0.048 -0.412,-0.129 -0.412,-0.276 0,-0.162 0.304,-0.211 0.537,-0.211 0.43,0 1.038,0.081 1.611,0.081 2.452,0 2.434,-0.081 4.117,-0.081 0.394,0 0.501,0.031 0.573,0.146 0.125,0.163 0.483,1.172 0.483,1.432 0,0.08 0,0.358 -0.179,0.358 -0.107,0 -0.215,-0.115 -0.358,-0.326 -0.519,-0.732 -0.734,-0.813 -1.289,-0.959 -0.233,-0.065 -0.734,-0.098 -1.145,-0.098 -0.412,0 -0.967,0.114 -1.074,0.179 -0.072,0.033 -0.287,0.195 -0.305,0.259 -0.107,0.392 -0.089,2.035 -0.035,2.328 0.035,0.114 0.125,0.228 0.179,0.228 0.286,0.033 1.342,0 1.557,-0.065 0.161,-0.065 0.233,-0.212 0.394,-0.537 0.089,-0.195 0.179,-0.326 0.286,-0.326 0.143,0 0.251,0.098 0.251,0.455 0,0.343 -0.054,0.392 -0.054,0.864 0,0.423 0.054,0.633 0.054,0.748 0,0.212 -0.018,0.374 -0.162,0.374 -0.125,0 -0.25,-0.179 -0.34,-0.325 -0.25,-0.553 -0.34,-0.635 -1.109,-0.635 -0.161,0 -0.555,0 -0.842,0.033 z m -9.021,3.287 c -1.879,0 -2.255,0.13 -2.416,0.26 -0.071,0.064 -0.197,0.195 -0.322,0.195 -0.055,0 -0.268,-0.098 -0.268,-0.292 0,-0.391 -0.197,-1.156 -0.215,-1.466 0,-0.13 0.071,-0.324 0.215,-0.324 0.143,0 0.196,0.146 0.411,0.439 0.305,0.439 0.555,0.585 0.895,0.618 0.376,0.033 1.486,-0.049 1.808,-0.097 0.107,-0.018 0.179,-0.163 0.179,-0.196 0,-1.887 -0.054,-3.579 -0.107,-5.011 -0.036,-0.636 -0.055,-0.83 -1.057,-1.059 -0.232,-0.048 -0.501,-0.129 -0.501,-0.259 0,-0.131 0.197,-0.228 0.448,-0.228 0.447,0 1.414,0.081 1.879,0.081 0.859,0 1.038,-0.065 1.79,-0.065 0.233,0 0.483,0.097 0.483,0.212 0,0.113 -0.125,0.211 -0.447,0.276 -0.734,0.179 -0.895,0.244 -1.002,0.619 -0.09,0.276 -0.126,0.813 -0.126,1.708 0,1.659 0,3.466 0.036,3.71 0.018,0.081 0.072,0.228 0.143,0.228 0.573,0.048 1.575,0.065 1.951,0.048 0.376,-0.016 0.663,-0.064 0.985,-0.912 0.054,-0.178 0.161,-0.292 0.286,-0.292 0.09,0 0.251,0.131 0.251,0.359 0,0.179 -0.09,0.845 -0.054,1.578 0,0.194 -0.197,0.276 -0.268,0.244 -0.448,-0.261 -0.609,-0.374 -2.632,-0.374 z m -8.466,-0.212 c 2.291,0 3.079,-2.489 3.079,-3.433 0,-0.994 -0.215,-2.002 -0.698,-2.572 -0.68,-0.78 -1.521,-0.894 -1.951,-0.894 -1.199,0 -3.025,1.301 -3.025,3.595 0,1.383 0.43,2.133 0.877,2.556 0.519,0.537 1.289,0.748 1.718,0.748 z m 0.214,0.472 c -0.894,0 -2.111,-0.244 -3.149,-1.139 -0.806,-0.684 -1.289,-1.66 -1.289,-2.8 0,-1.951 1.647,-3.921 4.6,-3.921 0.448,0 1.898,0.13 2.881,0.977 0.968,0.797 1.433,1.709 1.433,3.059 0,2.131 -1.969,3.824 -4.476,3.824 z M 260.5,3.894 c -0.334,-0.057 -1.984,-0.039 -2.36,-0.019 -0.084,0 -0.146,0.113 -0.146,0.171 0.313,0.778 0.877,1.955 1.253,2.829 0.042,0.076 0.209,0 0.209,-0.02 0.104,-0.227 0.814,-1.86 1.19,-2.771 0.042,-0.096 -0.084,-0.19 -0.146,-0.19 z m -0.355,5.296 c -0.105,0 -0.188,-0.018 -0.355,-0.227 -0.147,-0.171 -0.397,-0.323 -0.522,-0.494 -0.147,-0.133 -0.23,-0.247 -0.251,-0.341 -0.042,-0.247 -0.209,-0.665 -0.48,-1.234 -0.272,-0.608 -1.984,-4.291 -2.318,-4.898 -0.543,-0.912 -0.836,-1.063 -1.566,-1.234 -0.293,-0.076 -0.502,-0.153 -0.502,-0.304 0,-0.152 0.23,-0.228 0.418,-0.228 0.522,0 1.044,0.095 1.733,0.095 0.543,0 0.982,-0.057 1.525,-0.057 0.25,0 0.48,0.076 0.48,0.228 0,0.19 -0.23,0.228 -0.459,0.304 -0.689,0.19 -0.815,0.36 -0.815,0.74 0,0.38 0.355,1.139 0.501,1.462 0.063,0.095 0.251,0.095 0.648,0.114 0.71,0.019 2.151,0.019 2.422,0 0.375,-0.019 0.459,-0.076 0.5,-0.19 0.147,-0.304 0.502,-1.291 0.502,-1.444 0,-0.227 -0.209,-0.53 -0.835,-0.664 -0.355,-0.075 -0.501,-0.171 -0.501,-0.284 0,-0.134 0.188,-0.266 0.501,-0.266 0.667,0 1.023,0.057 1.525,0.057 0.689,0 1.461,-0.095 2.464,-0.095 0.229,0 0.438,0.152 0.438,0.304 0,0.095 -0.125,0.19 -0.501,0.284 -0.898,0.209 -1.065,0.361 -1.503,1.311 -0.523,1.044 -2.298,5.125 -2.569,5.828 -0.042,0.076 -0.146,0.359 -0.251,1.006 -0.02,0.133 -0.146,0.227 -0.229,0.227 z M 247.18,7.565 c 0,-0.096 0.054,-0.211 0.376,-0.308 0.698,-0.179 1.002,-0.391 1.056,-1.09 0.018,-0.261 0.018,-1.4 0.018,-3.108 0,-0.538 -0.018,-1.042 -0.036,-1.334 -0.036,-0.619 -0.197,-0.798 -1.056,-0.994 -0.161,-0.048 -0.43,-0.163 -0.43,-0.308 0,-0.114 0.162,-0.179 0.43,-0.179 0.34,0 1.289,0.081 1.808,0.081 0.769,0 1.253,-0.05 1.754,-0.05 0.179,0 0.358,0.034 0.358,0.148 0,0.145 -0.197,0.276 -0.412,0.325 -0.841,0.179 -0.966,0.326 -1.002,1.253 -0.018,0.342 -0.018,1.172 -0.018,2.099 0,1.058 0,1.888 0.036,2.246 0.036,0.586 0.107,0.715 0.966,0.944 0.215,0.032 0.448,0.179 0.448,0.292 0,0.082 -0.269,0.195 -0.394,0.179 -0.394,-0.048 -1.181,-0.097 -1.736,-0.097 -0.519,0 -1.772,0.031 -1.915,0.049 -0.197,0.016 -0.251,-0.082 -0.251,-0.148 z m -5.584,-0.113 c 2.291,0 3.078,-2.489 3.078,-3.433 0,-0.994 -0.215,-2.002 -0.698,-2.572 -0.68,-0.78 -1.521,-0.894 -1.951,-0.894 -1.199,0 -3.025,1.301 -3.025,3.595 0,1.383 0.43,2.133 0.877,2.556 0.519,0.537 1.289,0.748 1.719,0.748 z m 0.214,0.472 c -0.895,0 -2.112,-0.244 -3.15,-1.139 -0.806,-0.684 -1.289,-1.66 -1.289,-2.8 0,-1.951 1.647,-3.921 4.6,-3.921 0.448,0 1.898,0.13 2.882,0.977 0.967,0.797 1.432,1.709 1.432,3.059 0,2.131 -1.969,3.824 -4.475,3.824 z m -11.443,0.963 c -2.193,0 -2.631,0.152 -2.819,0.303 -0.084,0.077 -0.23,0.228 -0.376,0.228 -0.063,0 -0.313,-0.113 -0.313,-0.341 0,-0.456 -0.23,-1.348 -0.251,-1.709 0,-0.152 0.084,-0.38 0.251,-0.38 0.167,0 0.23,0.171 0.48,0.513 0.355,0.513 0.647,0.683 1.044,0.721 0.439,0.038 1.733,-0.056 2.109,-0.114 0.126,-0.018 0.209,-0.189 0.209,-0.227 0,-2.202 -0.062,-4.177 -0.125,-5.847 -0.042,-0.741 -0.063,-0.97 -1.232,-1.234 -0.272,-0.057 -0.585,-0.153 -0.585,-0.304 0,-0.152 0.23,-0.266 0.522,-0.266 0.522,0 1.65,0.095 2.193,0.095 1.002,0 1.211,-0.076 2.088,-0.076 0.272,0 0.564,0.114 0.564,0.247 0,0.133 -0.147,0.247 -0.522,0.322 -0.856,0.209 -1.044,0.285 -1.17,0.722 -0.104,0.323 -0.146,0.948 -0.146,1.993 0,1.937 0,4.044 0.042,4.328 0.021,0.096 0.084,0.267 0.167,0.267 0.668,0.056 1.838,0.075 2.276,0.056 0.439,-0.018 0.773,-0.076 1.149,-1.063 0.062,-0.208 0.188,-0.342 0.334,-0.342 0.104,0 0.292,0.153 0.292,0.418 0,0.209 -0.104,0.987 -0.062,1.842 0,0.228 -0.23,0.321 -0.314,0.285 -0.522,-0.304 -0.71,-0.437 -3.069,-0.437 z M 218.745,4.003 c 0,-1.595 -0.734,-2.539 -1.342,-2.864 -0.448,-0.278 -1.271,-0.44 -1.647,-0.44 -0.34,0 -0.716,0.113 -1.163,0.44 -0.197,0.13 -0.269,0.423 -0.323,0.797 -0.035,0.309 -0.071,1.237 -0.071,2.164 0,2.246 0.036,2.522 0.071,2.832 0,0.065 0.09,0.162 0.233,0.227 0.197,0.098 0.644,0.147 0.77,0.147 0.984,0 1.808,-0.342 2.434,-0.895 0.609,-0.537 1.038,-1.448 1.038,-2.408 z m 1.575,0.162 c 0,1.155 -0.698,2.295 -1.682,2.896 -0.825,0.521 -1.969,0.7 -3.437,0.7 -0.591,0 -1.754,-0.097 -2.345,-0.097 -0.358,0 -0.787,0 -1.127,-0.017 -0.287,-0.016 -0.484,-0.082 -0.484,-0.227 0,-0.066 0.179,-0.196 0.412,-0.229 0.822,-0.113 1.128,-0.244 1.128,-0.699 0,-0.781 0.036,-3.043 0.036,-3.612 0,-0.781 -0.018,-0.944 -0.054,-1.286 -0.054,-0.325 -0.108,-0.683 -1.164,-0.846 -0.197,-0.032 -0.465,-0.065 -0.465,-0.228 0,-0.13 0.197,-0.211 0.483,-0.211 0.269,0 0.376,0.016 0.573,0.016 0.555,0 1.754,-0.098 2.935,-0.098 1.701,0 2.739,0.358 3.383,0.749 0.949,0.586 1.808,1.578 1.808,3.189 z m -19.384,3.4 c 0,-0.129 0.143,-0.211 0.465,-0.259 0.376,-0.065 0.573,-0.147 0.734,-0.261 0.358,-0.244 0.626,-0.65 0.644,-0.781 0.018,-0.13 0.036,-0.57 0.036,-1.334 0,-1.432 -0.107,-2.961 -0.143,-3.368 -0.054,-0.408 -0.161,-0.701 -1.021,-0.895 -0.34,-0.082 -0.411,-0.147 -0.411,-0.229 0,-0.163 0.197,-0.211 0.429,-0.211 0.394,0 1.146,0.098 1.593,0.098 0.502,0 1.056,-0.05 1.11,-0.05 0.161,0 0.412,0.05 0.412,0.212 0,0.115 -0.125,0.18 -0.322,0.244 -0.537,0.164 -0.949,0.391 -1.003,0.912 -0.089,1.074 0,3.434 0.018,3.987 0,0.114 0.126,0.114 0.161,0.064 1.056,-1.008 2.309,-2.407 3.133,-3.221 0.984,-0.96 1.682,-1.823 1.986,-2.148 0.144,-0.114 0.412,-0.244 0.537,-0.244 0.162,0 0.233,0.179 0.233,0.439 0,0.114 -0.054,1.188 -0.054,2.099 0,0.944 0.09,3.027 0.162,3.645 0.071,0.634 0.214,0.846 0.912,1.026 0.287,0.097 0.376,0.146 0.376,0.26 0,0.114 -0.197,0.179 -0.376,0.179 -0.447,0 -0.895,-0.065 -1.253,-0.065 -0.447,0 -0.912,0.065 -1.521,0.065 -0.054,0 -0.43,0 -0.43,-0.179 0,-0.148 0.233,-0.212 0.376,-0.26 0.859,-0.18 1.056,-0.44 1.11,-0.912 0.09,-0.781 0,-2.912 -0.018,-3.808 0,-0.097 -0.107,-0.082 -0.125,-0.064 -0.913,0.878 -3.24,3.173 -3.723,3.677 -0.466,0.488 -0.859,0.845 -1.199,1.237 -0.126,0.145 -0.215,0.211 -0.358,0.211 -0.412,0 -1.611,0.098 -2.023,0.098 -0.233,0 -0.447,-0.098 -0.447,-0.164 z m -3.741,-4.181 c -0.287,-0.049 -1.701,-0.032 -2.023,-0.016 -0.071,0 -0.125,0.098 -0.125,0.146 0.268,0.668 0.752,1.675 1.074,2.424 0.036,0.066 0.179,0 0.179,-0.015 0.089,-0.197 0.698,-1.595 1.02,-2.376 0.035,-0.081 -0.072,-0.163 -0.125,-0.163 z m -0.305,4.54 c -0.089,0 -0.161,-0.016 -0.304,-0.195 -0.125,-0.147 -0.34,-0.277 -0.447,-0.423 -0.126,-0.115 -0.197,-0.212 -0.215,-0.293 -0.036,-0.212 -0.179,-0.571 -0.412,-1.058 -0.232,-0.52 -1.7,-3.678 -1.987,-4.198 -0.465,-0.781 -0.716,-0.911 -1.342,-1.058 -0.251,-0.065 -0.43,-0.131 -0.43,-0.261 0,-0.129 0.197,-0.194 0.358,-0.194 0.448,0 0.895,0.081 1.486,0.081 0.465,0 0.841,-0.05 1.307,-0.05 0.214,0 0.411,0.066 0.411,0.197 0,0.162 -0.197,0.195 -0.393,0.259 -0.591,0.164 -0.699,0.31 -0.699,0.636 0,0.324 0.305,0.976 0.43,1.252 0.054,0.082 0.215,0.082 0.555,0.098 0.609,0.015 1.844,0.015 2.076,0 0.322,-0.016 0.394,-0.066 0.43,-0.163 0.125,-0.26 0.429,-1.107 0.429,-1.237 0,-0.195 -0.179,-0.456 -0.716,-0.569 -0.304,-0.065 -0.429,-0.146 -0.429,-0.244 0,-0.114 0.161,-0.229 0.429,-0.229 0.573,0 0.877,0.05 1.307,0.05 0.591,0 1.253,-0.081 2.112,-0.081 0.197,0 0.376,0.13 0.376,0.26 0,0.081 -0.107,0.163 -0.43,0.244 -0.769,0.179 -0.912,0.309 -1.288,1.123 -0.448,0.895 -1.969,4.393 -2.202,4.995 -0.036,0.066 -0.125,0.31 -0.215,0.863 -0.018,0.114 -0.125,0.195 -0.197,0.195 z M 184.827,7.582 c 0,-0.113 0.053,-0.26 0.519,-0.341 0.626,-0.131 0.787,-0.326 0.805,-0.814 0.018,-0.634 0.018,-1.319 0.018,-1.953 0,-2.213 -0.036,-2.505 -0.054,-2.831 -0.035,-0.423 -0.161,-0.765 -1.074,-0.895 -0.393,-0.065 -0.501,-0.163 -0.501,-0.293 0,-0.114 0.179,-0.195 0.484,-0.195 0.608,0 0.787,0.065 2.004,0.065 1.253,0 2.112,-0.081 2.793,-0.081 0.537,0 0.948,-0.017 1.127,0.031 0.072,0.018 0.179,0.131 0.251,0.293 0.232,0.538 0.447,1.01 0.662,1.368 0.072,0.146 0.018,0.439 -0.09,0.439 -0.125,0 -0.25,-0.065 -0.465,-0.374 -0.268,-0.407 -0.59,-0.732 -0.877,-0.927 -0.25,-0.179 -0.483,-0.179 -0.787,-0.213 -0.358,-0.049 -1.11,-0.049 -1.647,0.017 -0.197,0.017 -0.394,0.244 -0.394,0.342 -0.036,0.471 -0.072,0.975 -0.072,1.512 0,1.075 0.018,3.272 0.09,3.907 0.036,0.276 0.34,0.504 0.788,0.602 0.429,0.097 0.572,0.228 0.572,0.341 0,0.082 -0.125,0.163 -0.268,0.147 -0.483,-0.034 -1.253,-0.065 -1.862,-0.065 -0.805,0 -1.324,0.065 -1.557,0.065 -0.304,0 -0.465,-0.065 -0.465,-0.147 z m -4.224,-4.198 c -0.287,-0.049 -1.701,-0.032 -2.023,-0.016 -0.072,0 -0.125,0.098 -0.125,0.146 0.268,0.668 0.751,1.675 1.074,2.424 0.034,0.066 0.179,0 0.179,-0.015 0.089,-0.197 0.698,-1.595 1.02,-2.376 0.036,-0.081 -0.072,-0.163 -0.125,-0.163 z m -0.305,4.54 c -0.089,0 -0.161,-0.016 -0.304,-0.195 -0.125,-0.147 -0.34,-0.277 -0.447,-0.423 -0.126,-0.115 -0.197,-0.212 -0.215,-0.293 -0.036,-0.212 -0.179,-0.571 -0.412,-1.058 -0.233,-0.52 -1.7,-3.678 -1.987,-4.198 -0.465,-0.781 -0.716,-0.911 -1.342,-1.058 -0.251,-0.065 -0.43,-0.131 -0.43,-0.261 0,-0.129 0.197,-0.194 0.358,-0.194 0.448,0 0.895,0.081 1.486,0.081 0.465,0 0.841,-0.05 1.306,-0.05 0.215,0 0.412,0.066 0.412,0.197 0,0.162 -0.197,0.195 -0.394,0.259 -0.59,0.164 -0.698,0.31 -0.698,0.636 0,0.324 0.305,0.976 0.43,1.252 0.054,0.082 0.215,0.082 0.555,0.098 0.608,0.015 1.843,0.015 2.076,0 0.322,-0.016 0.394,-0.066 0.43,-0.163 0.125,-0.26 0.429,-1.107 0.429,-1.237 0,-0.195 -0.179,-0.456 -0.716,-0.569 -0.304,-0.065 -0.429,-0.146 -0.429,-0.244 0,-0.114 0.161,-0.229 0.429,-0.229 0.573,0 0.877,0.05 1.307,0.05 0.591,0 1.253,-0.081 2.112,-0.081 0.197,0 0.376,0.13 0.376,0.26 0,0.081 -0.107,0.163 -0.43,0.244 -0.769,0.179 -0.913,0.309 -1.288,1.123 -0.448,0.895 -1.969,4.393 -2.202,4.995 -0.036,0.066 -0.125,0.31 -0.215,0.863 -0.018,0.114 -0.125,0.195 -0.197,0.195 z m -9.379,-3.547 c -0.143,0.032 -0.215,0.114 -0.215,0.195 -0.035,0.505 -0.018,2.148 0.036,2.392 0.018,0.064 0.09,0.212 0.161,0.212 1.325,0 1.522,-0.049 1.772,-0.066 0.555,-0.065 0.77,-0.276 1.092,-0.879 0.143,-0.26 0.287,-0.325 0.376,-0.325 0.054,0 0.179,0.098 0.179,0.293 0,0.228 -0.125,0.911 -0.125,1.383 0,0.065 -0.108,0.163 -0.216,0.147 -0.429,-0.082 -0.5,-0.065 -3.937,-0.065 -0.68,0 -1.253,0.065 -1.575,0.065 -0.286,0 -0.483,-0.065 -0.483,-0.179 0,-0.148 0.214,-0.228 0.429,-0.278 0.752,-0.162 0.858,-0.389 0.877,-0.731 0.036,-0.7 0.036,-1.53 0.036,-2.278 0,-1.058 -0.018,-2.116 -0.055,-2.555 -0.052,-0.569 -0.088,-0.766 -1.09,-0.977 -0.197,-0.048 -0.412,-0.129 -0.412,-0.276 0,-0.162 0.304,-0.211 0.537,-0.211 0.429,0 1.038,0.081 1.611,0.081 2.452,0 2.434,-0.081 4.117,-0.081 0.393,0 0.501,0.031 0.572,0.146 0.126,0.163 0.484,1.172 0.484,1.432 0,0.08 0,0.358 -0.179,0.358 -0.108,0 -0.215,-0.115 -0.358,-0.326 -0.519,-0.732 -0.734,-0.813 -1.289,-0.959 -0.233,-0.065 -0.734,-0.098 -1.146,-0.098 -0.411,0 -0.966,0.114 -1.074,0.179 -0.071,0.033 -0.286,0.195 -0.304,0.259 -0.107,0.392 -0.089,2.035 -0.036,2.328 0.036,0.114 0.126,0.228 0.179,0.228 0.287,0.033 1.343,0 1.558,-0.065 0.161,-0.065 0.232,-0.212 0.393,-0.537 0.09,-0.195 0.179,-0.326 0.287,-0.326 0.143,0 0.25,0.098 0.25,0.455 0,0.343 -0.053,0.392 -0.053,0.864 0,0.423 0.053,0.633 0.053,0.748 0,0.212 -0.018,0.374 -0.161,0.374 -0.125,0 -0.25,-0.179 -0.34,-0.325 -0.25,-0.553 -0.34,-0.635 -1.11,-0.635 -0.161,0 -0.554,0 -0.841,0.033 z m -9.832,4.51 c -0.815,0 -1.002,0.056 -1.713,0.361 -0.062,0.019 -0.292,-0.114 -0.334,-0.209 -0.188,-0.361 -0.731,-1.633 -0.731,-1.937 0,-0.17 0,-0.398 0.188,-0.398 0.188,0 0.272,0.19 0.355,0.321 0.585,0.78 1.045,1.235 1.504,1.235 0.271,0 3.696,-0.094 3.675,-0.094 0.042,0 0.209,-0.019 0.126,-0.19 -0.794,-1.139 -3.864,-5.164 -5.305,-6.816 -0.229,-0.284 -0.375,-0.569 -0.375,-0.645 0,-0.077 0.271,-0.209 0.647,-0.209 0.48,0 0.835,0.019 1.879,0.019 1.859,0 4.574,-0.057 5.012,-0.057 0.606,0 0.71,0.19 0.731,0.285 0.042,0.094 0.271,0.835 0.668,1.802 0.105,0.248 0.021,0.589 -0.167,0.589 -0.125,0 -0.25,-0.151 -0.48,-0.474 -0.23,-0.323 -0.794,-0.968 -0.982,-1.177 -0.167,-0.152 -0.417,-0.303 -1.733,-0.303 -0.438,0 -2.694,0.074 -2.923,0.113 -0.167,0.019 -0.23,0.057 -0.105,0.228 1.671,2.164 4.532,6.037 5.179,6.777 0.188,0.19 0.439,0.589 0.439,0.684 0,0.095 -0.147,0.171 -0.376,0.151 -0.627,-0.056 -1.504,-0.056 -1.963,-0.056 z M 149.312,5.06 c -0.035,-0.065 -0.143,-0.049 -0.179,0.017 -0.411,0.829 -0.733,1.48 -0.859,1.708 -0.143,0.276 -0.089,0.423 0.376,0.521 0.269,0.065 0.34,0.163 0.34,0.259 0,0.099 -0.161,0.164 -0.376,0.164 -0.125,0 -0.769,-0.065 -1.396,-0.065 -0.429,0 -0.895,0.049 -1.074,0.049 -0.215,0 -0.429,-0.082 -0.429,-0.179 0,-0.114 0.143,-0.196 0.393,-0.262 0.358,-0.081 0.502,-0.211 0.913,-0.911 0.143,-0.26 0.824,-1.431 1.325,-2.424 0.054,-0.097 0.018,-0.146 -0.018,-0.227 -0.501,-0.944 -0.877,-1.645 -0.967,-1.79 -0.035,-0.066 -0.107,-0.082 -0.143,-0.018 -0.948,1.726 -2.345,4.362 -2.613,4.932 -0.125,0.244 0.179,0.342 0.376,0.407 0.376,0.113 0.394,0.179 0.394,0.276 0,0.098 -0.126,0.178 -0.376,0.178 -0.126,0 -0.484,-0.031 -1.074,-0.031 -0.698,0 -1.45,0.081 -1.737,0.081 -0.411,0 -0.537,-0.098 -0.537,-0.18 0,-0.145 0.215,-0.227 0.43,-0.275 0.483,-0.114 0.931,-0.521 1.164,-0.929 0.322,-0.536 1.879,-3.318 2.38,-4.311 0.519,-1.026 0.77,-1.644 0.859,-1.775 C 146.538,0.146 146.645,0 146.753,0 c 0.179,0 0.322,0.179 0.376,0.325 0.34,0.797 1.074,2.018 1.467,2.75 0.036,0.065 0.108,0.065 0.161,-0.05 0.502,-0.926 0.967,-1.805 1.397,-2.765 0.053,-0.13 0.125,-0.26 0.232,-0.26 0.108,0 0.394,0.162 0.448,0.325 0.232,0.487 0.447,0.928 0.769,1.611 0.788,1.53 1.701,3.075 2.524,4.491 0.322,0.586 0.716,0.749 1.146,0.845 0.25,0.05 0.483,0.13 0.483,0.293 0,0.115 -0.215,0.164 -0.447,0.164 -0.412,0 -0.931,-0.065 -1.343,-0.065 -0.25,0 -0.787,0.031 -1.11,0.031 -0.179,0 -0.393,-0.031 -0.393,-0.178 0,-0.146 0.232,-0.195 0.393,-0.227 0.537,-0.131 0.698,-0.245 0.43,-0.83 -0.644,-1.465 -2.112,-4.28 -2.291,-4.573 -0.036,-0.065 -0.09,-0.13 -0.143,-0.049 -0.358,0.635 -0.895,1.693 -1.271,2.44 -0.036,0.082 -0.054,0.18 0.018,0.278 0.716,1.285 1.038,1.708 1.163,1.904 0.394,0.553 0.609,0.699 1.038,0.83 0.251,0.081 0.412,0.112 0.412,0.275 0,0.05 -0.089,0.148 -0.43,0.148 -0.214,0 -0.608,-0.049 -1.038,-0.049 -0.447,0 -0.716,0.049 -0.948,0.049 -0.323,0 -0.448,-0.082 -0.448,-0.179 0,-0.082 0.179,-0.196 0.34,-0.228 0.484,-0.115 0.627,-0.309 0.322,-0.895 -0.196,-0.423 -0.411,-0.863 -0.698,-1.351 z M 137.714,4.377 c -0.144,0.032 -0.215,0.114 -0.215,0.195 -0.036,0.505 -0.018,2.148 0.036,2.392 0.017,0.064 0.089,0.212 0.161,0.212 1.324,0 1.521,-0.049 1.772,-0.066 0.555,-0.065 0.769,-0.276 1.092,-0.879 0.143,-0.26 0.286,-0.325 0.375,-0.325 0.054,0 0.179,0.098 0.179,0.293 0,0.228 -0.125,0.911 -0.125,1.383 0,0.065 -0.107,0.163 -0.215,0.147 -0.429,-0.082 -0.501,-0.065 -3.937,-0.065 -0.681,0 -1.253,0.065 -1.576,0.065 -0.286,0 -0.483,-0.065 -0.483,-0.179 0,-0.148 0.215,-0.228 0.43,-0.278 0.751,-0.162 0.859,-0.389 0.877,-0.731 0.036,-0.7 0.036,-1.53 0.036,-2.278 0,-1.058 -0.018,-2.116 -0.054,-2.555 -0.054,-0.569 -0.09,-0.766 -1.092,-0.977 -0.197,-0.048 -0.412,-0.129 -0.412,-0.276 0,-0.162 0.305,-0.211 0.537,-0.211 0.43,0 1.038,0.081 1.611,0.081 2.452,0 2.435,-0.081 4.117,-0.081 0.394,0 0.501,0.031 0.573,0.146 0.125,0.163 0.483,1.172 0.483,1.432 0,0.08 0,0.358 -0.179,0.358 -0.107,0 -0.215,-0.115 -0.358,-0.326 -0.519,-0.732 -0.734,-0.813 -1.289,-0.959 -0.232,-0.065 -0.734,-0.098 -1.145,-0.098 -0.412,0 -0.967,0.114 -1.074,0.179 -0.072,0.033 -0.287,0.195 -0.304,0.259 -0.108,0.392 -0.09,2.035 -0.036,2.328 0.036,0.114 0.125,0.228 0.179,0.228 0.286,0.033 1.342,0 1.557,-0.065 0.161,-0.065 0.233,-0.212 0.394,-0.537 0.089,-0.195 0.179,-0.326 0.286,-0.326 0.143,0 0.251,0.098 0.251,0.455 0,0.343 -0.054,0.392 -0.054,0.864 0,0.423 0.054,0.633 0.054,0.748 0,0.212 -0.018,0.374 -0.161,0.374 -0.126,0 -0.251,-0.179 -0.34,-0.325 -0.251,-0.553 -0.341,-0.635 -1.11,-0.635 -0.161,0 -0.555,0 -0.841,0.033 z m -14.887,4.395 c 0,-0.151 0.168,-0.247 0.543,-0.303 0.439,-0.076 0.669,-0.171 0.857,-0.303 0.417,-0.285 0.73,-0.76 0.751,-0.912 0.021,-0.152 0.042,-0.664 0.042,-1.557 0,-1.671 -0.125,-3.454 -0.167,-3.929 -0.063,-0.475 -0.188,-0.816 -1.19,-1.044 -0.397,-0.095 -0.481,-0.171 -0.481,-0.266 0,-0.19 0.23,-0.247 0.502,-0.247 0.459,0 1.336,0.114 1.858,0.114 0.585,0 1.232,-0.057 1.295,-0.057 0.188,0 0.48,0.057 0.48,0.247 0,0.132 -0.146,0.209 -0.376,0.285 -0.626,0.19 -1.106,0.455 -1.169,1.063 -0.105,1.253 0,4.005 0.021,4.651 0,0.133 0.146,0.133 0.188,0.076 1.232,-1.177 2.694,-2.811 3.654,-3.759 1.149,-1.12 1.963,-2.126 2.318,-2.506 0.167,-0.134 0.48,-0.285 0.627,-0.285 0.187,0 0.271,0.209 0.271,0.513 0,0.133 -0.063,1.385 -0.063,2.449 0,1.101 0.105,3.531 0.188,4.252 0.084,0.741 0.251,0.987 1.065,1.196 0.334,0.113 0.439,0.171 0.439,0.304 0,0.133 -0.23,0.209 -0.439,0.209 -0.522,0 -1.044,-0.076 -1.461,-0.076 -0.523,0 -1.065,0.076 -1.775,0.076 -0.063,0 -0.502,0 -0.502,-0.209 0,-0.171 0.272,-0.247 0.439,-0.304 1.002,-0.209 1.232,-0.513 1.295,-1.063 0.104,-0.911 0,-3.399 -0.021,-4.443 0,-0.113 -0.126,-0.094 -0.146,-0.075 -1.065,1.025 -3.78,3.701 -4.344,4.29 -0.543,0.57 -1.002,0.988 -1.399,1.443 -0.146,0.17 -0.251,0.247 -0.418,0.247 -0.48,0 -1.879,0.114 -2.359,0.114 -0.272,0 -0.523,-0.114 -0.523,-0.191 z m -9.435,-1.207 c 0,-0.129 0.072,-0.211 0.501,-0.308 0.698,-0.147 0.895,-0.488 0.913,-0.652 0.018,-0.194 0.054,-1.252 0.054,-1.756 0,-1.514 -0.036,-3.027 -0.072,-3.271 -0.089,-0.586 -0.197,-0.7 -0.913,-0.847 -0.304,-0.064 -0.483,-0.211 -0.483,-0.325 0,-0.113 0.251,-0.162 0.501,-0.162 0.519,0 0.931,0.081 1.45,0.081 0.573,0 1.557,-0.065 1.772,-0.065 0.215,0 0.465,0.049 0.465,0.195 0,0.098 -0.089,0.195 -0.393,0.276 -0.699,0.164 -0.895,0.343 -0.913,0.701 -0.036,0.618 -0.036,1.48 -0.036,2.066 0,0.098 0.054,0.228 0.125,0.228 0.698,0 1.289,-0.034 1.486,-0.081 0.268,-0.065 0.465,-0.293 0.573,-0.586 0.089,-0.196 0.197,-0.358 0.304,-0.358 0.215,0 0.268,0.243 0.25,0.374 -0.035,0.26 -0.053,0.617 -0.053,0.976 0,0.326 0.036,0.619 0.036,0.894 0,0.18 -0.09,0.311 -0.215,0.311 -0.09,0 -0.215,-0.179 -0.269,-0.311 -0.143,-0.308 -0.232,-0.601 -0.751,-0.617 -0.77,-0.016 -1.218,-0.065 -1.379,-0.05 -0.018,0 -0.107,0.082 -0.107,0.148 0,0.894 0.018,1.822 0.036,2.489 0,0.098 0.143,0.261 0.25,0.261 1.056,0 1.79,-0.049 2.005,-0.115 0.233,-0.064 0.465,-0.163 0.716,-0.78 0.125,-0.31 0.215,-0.407 0.322,-0.407 0.125,0 0.251,0.097 0.251,0.455 0,0.325 -0.036,0.781 -0.036,1.205 0,0.048 -0.125,0.179 -0.197,0.161 -0.215,-0.064 -3.311,-0.031 -4.027,-0.031 -0.645,0 -1.271,0.065 -1.754,0.065 -0.251,0 -0.412,-0.098 -0.412,-0.164 z m -5.567,-0.113 c 2.291,0 3.079,-2.489 3.079,-3.433 0,-0.994 -0.215,-2.002 -0.698,-2.572 -0.68,-0.78 -1.521,-0.894 -1.951,-0.894 -1.199,0 -3.025,1.301 -3.025,3.595 0,1.383 0.43,2.133 0.877,2.556 0.519,0.537 1.289,0.748 1.718,0.748 z m 0.215,0.472 c -0.895,0 -2.112,-0.244 -3.15,-1.139 -0.806,-0.684 -1.289,-1.66 -1.289,-2.8 0,-1.951 1.647,-3.921 4.6,-3.921 0.448,0 1.898,0.13 2.882,0.977 0.967,0.797 1.432,1.709 1.432,3.059 0,2.131 -1.969,3.824 -4.475,3.824 z M 93.184,7.582 c 0,-0.113 0.054,-0.26 0.519,-0.341 C 94.33,7.11 94.491,6.915 94.509,6.427 94.527,5.793 94.527,5.108 94.527,4.474 94.527,2.261 94.491,1.969 94.473,1.643 94.437,1.22 94.312,0.878 93.399,0.748 93.005,0.683 92.898,0.585 92.898,0.455 c 0,-0.114 0.179,-0.195 0.483,-0.195 0.609,0 0.788,0.065 2.005,0.065 1.253,0 2.112,-0.081 2.792,-0.081 0.537,0 0.949,-0.017 1.128,0.031 0.071,0.018 0.179,0.131 0.25,0.293 0.233,0.538 0.448,1.01 0.663,1.368 0.071,0.146 0.017,0.439 -0.09,0.439 -0.125,0 -0.251,-0.065 -0.465,-0.374 C 99.395,1.594 99.073,1.269 98.787,1.074 98.536,0.895 98.303,0.895 97.999,0.861 97.641,0.812 96.889,0.812 96.352,0.878 96.155,0.895 95.959,1.122 95.959,1.22 c -0.036,0.471 -0.072,0.975 -0.072,1.512 0,1.075 0.018,3.272 0.089,3.907 0.036,0.276 0.34,0.504 0.788,0.602 0.43,0.097 0.573,0.228 0.573,0.341 0,0.082 -0.126,0.163 -0.269,0.147 -0.483,-0.034 -1.253,-0.065 -1.861,-0.065 -0.806,0 -1.325,0.065 -1.557,0.065 -0.305,0 -0.466,-0.065 -0.466,-0.147 z m -4.94,-0.017 c 0,-0.096 0.054,-0.211 0.376,-0.308 0.698,-0.179 1.002,-0.391 1.056,-1.09 0.018,-0.261 0.018,-1.4 0.018,-3.108 0,-0.538 -0.018,-1.042 -0.036,-1.334 -0.036,-0.619 -0.197,-0.798 -1.056,-0.994 -0.161,-0.048 -0.43,-0.163 -0.43,-0.308 0,-0.114 0.162,-0.179 0.43,-0.179 0.34,0 1.289,0.081 1.808,0.081 0.77,0 1.253,-0.05 1.754,-0.05 0.179,0 0.358,0.034 0.358,0.148 0,0.145 -0.197,0.276 -0.412,0.325 C 91.269,0.927 91.144,1.074 91.108,2.001 91.09,2.343 91.09,3.173 91.09,4.1 c 0,1.058 0,1.888 0.036,2.246 0.036,0.586 0.107,0.715 0.966,0.944 0.215,0.032 0.448,0.179 0.448,0.292 0,0.082 -0.269,0.195 -0.394,0.179 -0.394,-0.048 -1.181,-0.097 -1.736,-0.097 -0.519,0 -1.772,0.031 -1.915,0.049 -0.197,0.016 -0.251,-0.082 -0.251,-0.148 z m -8.878,-3.58 c 0,-1.122 0.483,-2.001 1.182,-2.668 0.823,-0.797 2.326,-1.253 3.651,-1.253 0.931,0 1.754,0.147 2.381,0.342 0.179,0.066 0.393,0.212 0.411,0.261 0.09,0.211 0.34,1.105 0.484,1.513 0.017,0.049 -0.054,0.178 -0.126,0.178 -0.143,0 -0.376,-0.145 -0.483,-0.341 C 86.741,1.79 86.58,1.61 86.454,1.432 86.06,0.846 85.255,0.602 84.485,0.602 c -0.662,0 -1.539,0.325 -2.309,0.96 -0.68,0.585 -1.091,1.578 -1.091,2.685 0,1.106 0.536,2.066 0.948,2.424 0.304,0.261 1.074,0.781 2.112,0.781 0.895,0 1.629,-0.325 2.077,-0.748 0.25,-0.262 0.358,-0.537 0.572,-0.944 0.072,-0.163 0.108,-0.212 0.179,-0.212 0.09,0 0.287,0.082 0.287,0.309 0,0.098 -0.108,0.847 -0.108,1.27 0,0.016 -0.107,0.423 -0.179,0.438 -0.429,0.099 -1.467,0.359 -2.577,0.359 -1.486,0 -2.828,-0.472 -3.544,-1.058 C 80.011,6.183 79.366,5.238 79.366,3.985 Z M 68.77,7.565 c 0,-0.129 0.143,-0.211 0.465,-0.259 0.376,-0.065 0.573,-0.147 0.734,-0.261 0.358,-0.244 0.627,-0.65 0.645,-0.781 0.017,-0.13 0.035,-0.57 0.035,-1.334 0,-1.432 -0.107,-2.961 -0.143,-3.368 C 70.452,1.154 70.345,0.861 69.486,0.667 69.146,0.585 69.074,0.52 69.074,0.438 c 0,-0.163 0.197,-0.211 0.43,-0.211 0.394,0 1.145,0.098 1.593,0.098 0.501,0 1.056,-0.05 1.11,-0.05 0.161,0 0.411,0.05 0.411,0.212 0,0.115 -0.125,0.18 -0.322,0.244 -0.537,0.164 -0.949,0.391 -1.002,0.912 -0.09,1.074 0,3.434 0.018,3.987 0,0.114 0.125,0.114 0.161,0.064 1.056,-1.008 2.309,-2.407 3.132,-3.221 0.985,-0.96 1.683,-1.823 1.987,-2.148 0.143,-0.114 0.412,-0.244 0.537,-0.244 0.161,0 0.233,0.179 0.233,0.439 0,0.114 -0.054,1.188 -0.054,2.099 0,0.944 0.089,3.027 0.161,3.645 0.072,0.634 0.215,0.846 0.913,1.026 0.286,0.097 0.376,0.146 0.376,0.26 0,0.114 -0.197,0.179 -0.376,0.179 -0.448,0 -0.895,-0.065 -1.253,-0.065 -0.448,0 -0.913,0.065 -1.522,0.065 -0.053,0 -0.429,0 -0.429,-0.179 0,-0.148 0.233,-0.212 0.376,-0.26 0.859,-0.18 1.056,-0.44 1.109,-0.912 0.09,-0.781 0,-2.912 -0.017,-3.808 0,-0.097 -0.108,-0.082 -0.126,-0.064 -0.913,0.878 -3.239,3.173 -3.723,3.677 -0.465,0.488 -0.859,0.845 -1.199,1.237 -0.125,0.145 -0.215,0.211 -0.358,0.211 -0.412,0 -1.611,0.098 -2.023,0.098 -0.232,0 -0.447,-0.098 -0.447,-0.164 z M 59.23,7.55 c 0,-0.081 0.197,-0.212 0.411,-0.26 0.716,-0.147 0.77,-0.44 0.788,-0.603 0.036,-0.292 0.054,-2.147 0.054,-2.587 0,-1.985 0.393,-2.799 1.145,-3.369 0.501,-0.39 1.307,-0.667 2.291,-0.667 0.949,0 1.647,0.245 2.166,0.635 0.949,0.684 1.253,1.937 1.289,3.286 0.036,0.978 0.107,1.856 0.125,2.312 0.018,0.667 0.215,0.862 0.877,1.009 0.233,0.048 0.412,0.114 0.412,0.276 0,0.049 -0.143,0.163 -0.412,0.163 -0.394,0 -1.02,-0.081 -1.736,-0.081 -0.448,0 -0.394,0.031 -0.841,0.031 -0.233,0 -0.466,-0.031 -0.466,-0.178 0,-0.115 0.179,-0.211 0.376,-0.245 0.841,-0.129 0.931,-0.422 0.985,-0.943 0,-0.195 0.018,-2.066 -0.072,-3.238 -0.197,-1.952 -1.163,-2.23 -2.309,-2.23 -0.608,0 -1.235,0.245 -1.575,0.473 -0.286,0.212 -0.806,0.911 -0.823,1.969 -0.018,1.041 -0.036,2.179 -0.018,3.108 0,0.617 0.286,0.716 0.805,0.813 0.412,0.082 0.483,0.178 0.483,0.293 0,0.082 -0.143,0.178 -0.519,0.178 -0.465,0 -0.769,-0.031 -1.36,-0.031 -0.734,0 -1.038,0.081 -1.593,0.081 -0.286,0 -0.483,-0.05 -0.483,-0.195 z M 53.663,7.452 c 2.291,0 3.079,-2.489 3.079,-3.433 0,-0.994 -0.215,-2.002 -0.698,-2.572 -0.68,-0.78 -1.522,-0.894 -1.951,-0.894 -1.2,0 -3.025,1.301 -3.025,3.595 0,1.383 0.429,2.133 0.877,2.556 0.519,0.537 1.289,0.748 1.718,0.748 z m 0.215,0.472 c -0.895,0 -2.112,-0.244 -3.15,-1.139 -0.806,-0.684 -1.289,-1.66 -1.289,-2.8 0,-1.951 1.647,-3.921 4.6,-3.921 0.447,0 1.897,0.13 2.882,0.977 0.966,0.797 1.432,1.709 1.432,3.059 0,2.131 -1.969,3.824 -4.475,3.824 z M 38.843,4.597 c 0,-1.31 0.564,-2.336 1.378,-3.115 0.961,-0.929 2.715,-1.461 4.26,-1.461 1.086,0 2.046,0.17 2.777,0.399 0.209,0.076 0.46,0.247 0.481,0.304 0.104,0.247 0.396,1.291 0.563,1.764 0.021,0.058 -0.062,0.209 -0.146,0.209 -0.167,0 -0.438,-0.171 -0.564,-0.398 C 47.446,2.034 47.258,1.825 47.112,1.616 46.653,0.933 45.713,0.647 44.815,0.647 c -0.773,0 -1.796,0.38 -2.694,1.121 -0.793,0.683 -1.274,1.84 -1.274,3.131 0,1.291 0.627,2.412 1.107,2.83 0.355,0.304 1.253,0.911 2.464,0.911 1.044,0 1.901,-0.38 2.423,-0.873 0.292,-0.304 0.417,-0.627 0.668,-1.101 0.083,-0.19 0.125,-0.247 0.209,-0.247 0.104,0 0.334,0.095 0.334,0.36 0,0.115 -0.125,0.988 -0.125,1.481 0,0.018 -0.126,0.494 -0.209,0.512 -0.501,0.115 -1.713,0.418 -3.007,0.418 -1.734,0 -3.3,-0.55 -4.135,-1.233 -0.982,-0.798 -1.733,-1.899 -1.733,-3.36 z m -6.497,3.327 c -1.79,0 -2.9,-0.896 -2.9,-2.115 0,-0.977 0.823,-1.612 1.468,-1.985 0.393,-0.228 0.877,-0.456 1.414,-0.749 0.662,-0.374 1.038,-0.717 1.038,-1.35 0,-0.554 -0.483,-1.205 -1.486,-1.205 -0.787,0 -1.414,0.391 -1.861,0.927 -0.143,0.212 -0.322,0.554 -0.412,0.766 -0.072,0.179 -0.125,0.357 -0.286,0.357 -0.126,0 -0.251,-0.131 -0.251,-0.439 0,-0.244 0.143,-1.025 0.161,-1.22 0.018,-0.099 0.054,-0.261 0.197,-0.343 0.412,-0.275 1.181,-0.504 2.255,-0.504 0.788,0 1.611,0.277 1.987,0.504 0.519,0.293 1.074,0.911 1.074,1.661 0,0.911 -0.608,1.513 -1.36,1.904 -0.519,0.276 -1.003,0.488 -1.575,0.781 -0.609,0.309 -1.11,0.748 -1.11,1.302 0,0.699 0.608,1.268 1.503,1.268 0.43,0 0.842,-0.146 1.074,-0.325 0.233,-0.18 0.466,-0.439 0.609,-0.911 0.054,-0.195 0.125,-0.391 0.286,-0.391 0.054,0 0.197,0.049 0.251,0.359 0.036,0.211 0.018,0.585 0.018,1.056 0,0.18 -0.054,0.375 -0.179,0.392 -0.501,0.065 -1.003,0.26 -1.915,0.26 z m -9.272,-0.26 c -1.88,0 -2.255,0.13 -2.417,0.26 -0.071,0.064 -0.196,0.195 -0.322,0.195 -0.053,0 -0.268,-0.098 -0.268,-0.292 0,-0.391 -0.197,-1.156 -0.215,-1.466 0,-0.13 0.072,-0.324 0.215,-0.324 0.143,0 0.197,0.146 0.411,0.439 0.305,0.439 0.555,0.585 0.895,0.618 0.376,0.033 1.486,-0.049 1.808,-0.097 C 23.289,6.979 23.36,6.834 23.36,6.801 23.36,4.914 23.307,3.222 23.253,1.79 23.217,1.154 23.199,0.96 22.197,0.731 21.964,0.683 21.696,0.602 21.696,0.472 c 0,-0.131 0.196,-0.228 0.447,-0.228 0.448,0 1.414,0.081 1.879,0.081 0.86,0 1.039,-0.065 1.79,-0.065 0.233,0 0.484,0.097 0.484,0.212 0,0.113 -0.126,0.211 -0.448,0.276 -0.734,0.179 -0.895,0.244 -1.002,0.619 -0.09,0.276 -0.125,0.813 -0.125,1.708 0,1.659 0,3.466 0.035,3.71 0.018,0.081 0.072,0.228 0.144,0.228 0.572,0.048 1.575,0.065 1.951,0.048 0.375,-0.016 0.662,-0.064 0.984,-0.912 0.054,-0.178 0.161,-0.292 0.286,-0.292 0.09,0 0.251,0.131 0.251,0.359 0,0.179 -0.09,0.845 -0.054,1.578 0,0.194 -0.197,0.276 -0.268,0.244 C 27.602,7.777 27.441,7.664 25.419,7.664 Z M 15.252,7.272 c 1.557,0 2.13,-0.894 2.13,-1.578 0,-0.65 -0.483,-1.073 -0.752,-1.253 -0.233,-0.146 -1.145,-0.276 -1.933,-0.276 -0.107,0 -0.179,0.082 -0.179,0.179 0,0.147 0.054,2.425 0.054,2.588 0,0.129 0.089,0.227 0.179,0.259 0.125,0.05 0.322,0.081 0.501,0.081 z m -3.473,0.229 c 0,-0.114 0.179,-0.211 0.448,-0.26 0.895,-0.131 0.913,-0.391 0.949,-0.733 0.035,-0.39 0.018,-0.797 0.018,-1.497 0,-1.53 -0.072,-2.946 -0.09,-3.27 C 13.068,1.024 12.943,0.878 12.137,0.699 11.833,0.634 11.69,0.504 11.69,0.406 c 0,-0.113 0.179,-0.195 0.483,-0.195 0.555,0 1.11,0.114 1.665,0.114 0.447,0 0.823,-0.05 1.396,-0.05 0.179,0 0.483,0.034 0.483,0.229 0,0.13 -0.214,0.212 -0.358,0.244 -0.465,0.13 -0.769,0.194 -0.787,0.684 -0.036,0.878 -0.054,1.741 -0.054,2.082 0,0.049 0.036,0.097 0.072,0.131 0.125,0.097 0.214,0.114 0.286,0.114 0.412,0 0.931,-0.212 1.092,-0.441 0.286,-0.389 1.289,-1.854 1.611,-2.179 0.77,-0.782 1.432,-1.009 2.166,-1.009 0.662,0 1.074,0.097 1.074,0.293 0,0.145 -0.054,0.179 -0.323,0.227 -0.501,0.081 -1.074,0.489 -1.485,0.896 -0.734,0.748 -1.45,1.806 -1.808,2.424 -0.018,0.015 0.036,0.081 0.072,0.097 0.537,0.147 1.539,0.652 1.539,1.79 0,0.489 -0.197,0.912 -0.644,1.286 -0.376,0.358 -1.164,0.602 -2.327,0.602 -1.486,0 -2.184,-0.065 -2.614,-0.065 -0.197,0 -0.572,0 -1.002,0 -0.233,0 -0.448,-0.065 -0.448,-0.179 z M 7.042,3.894 C 6.708,3.837 5.058,3.855 4.683,3.875 4.599,3.875 4.536,3.988 4.536,4.046 4.85,4.824 5.413,6.001 5.789,6.875 5.831,6.951 5.998,6.875 5.998,6.855 6.103,6.628 6.813,4.995 7.188,4.084 7.23,3.988 7.105,3.894 7.042,3.894 Z M 6.687,9.19 C 6.583,9.19 6.499,9.172 6.332,8.963 6.186,8.792 5.936,8.64 5.81,8.469 5.664,8.336 5.581,8.222 5.56,8.128 5.518,7.881 5.351,7.463 5.079,6.894 4.808,6.286 3.096,2.603 2.761,1.996 2.218,1.084 1.926,0.933 1.195,0.762 0.903,0.686 0.694,0.609 0.694,0.458 c 0,-0.152 0.23,-0.228 0.418,-0.228 0.522,0 1.044,0.095 1.733,0.095 0.543,0 0.981,-0.057 1.524,-0.057 0.251,0 0.481,0.076 0.481,0.228 0,0.19 -0.23,0.228 -0.46,0.304 -0.689,0.19 -0.814,0.36 -0.814,0.74 0,0.38 0.355,1.139 0.501,1.462 0.063,0.095 0.251,0.095 0.647,0.114 0.71,0.019 2.151,0.019 2.423,0 C 7.523,3.097 7.606,3.04 7.648,2.926 7.794,2.622 8.149,1.635 8.149,1.482 8.149,1.255 7.94,0.952 7.314,0.818 6.959,0.743 6.813,0.647 6.813,0.534 6.813,0.4 7.001,0.268 7.314,0.268 c 0.668,0 1.023,0.057 1.524,0.057 0.689,0 1.462,-0.095 2.464,-0.095 0.23,0 0.439,0.152 0.439,0.304 0,0.095 -0.125,0.19 -0.501,0.284 C 10.342,1.027 10.175,1.179 9.736,2.129 9.214,3.173 7.439,7.254 7.168,7.957 7.126,8.033 7.021,8.316 6.917,8.963 6.896,9.096 6.771,9.19 6.687,9.19"
               style="fill:#ffffff;fill-opacity:1;fill-rule:nonzero;stroke:none;stroke-width:1.41418576"
               id="path8286"
               inkscape:connector-curvature="0" />
          </g>
        </g>
        <path
           d="m 266.758,42.653 c 0.837,1.465 1.988,3.487 1.988,5.091 0,2.511 -2.929,3.906 -6.486,3.906 -13.495,0 -25.734,-12.275 -31.489,-19.249 l -0.208,0.139 4.499,9.555 c 0.836,1.884 1.778,4.114 1.778,6.138 0,2.022 -1.046,3.417 -4.289,3.417 -4.394,0 -9.833,-3.487 -12.448,-5.579 -0.837,-0.558 -4.499,-3.766 -4.499,-4.534 0,-0.349 0.419,-0.487 0.837,-0.487 0.628,0 0.942,0.417 1.151,0.766 1.255,1.464 7.009,6.137 9.729,6.137 1.569,0 2.091,-0.767 2.091,-1.674 0,-1.186 -0.731,-2.719 -1.255,-3.835 l -9.31,-20.294 c -0.209,-0.348 -0.627,-1.257 -0.627,-1.604 0,-1.187 2.196,-0.837 3.242,-0.837 3.348,0 3.453,0.349 4.29,2.37 2.615,5.442 10.565,14.716 16.109,19.109 3.243,2.511 9.834,7.672 15.378,7.672 2.406,0 3.661,-0.907 3.661,-2.44 0,-1.255 -0.837,-2.582 -1.464,-3.767 l -7.427,-13.181 c -1.256,-2.162 -2.825,-5.091 -2.825,-7.462 0,-2.022 1.36,-3.137 4.498,-3.137 4.29,0 10.565,4.044 13.285,6.065 0.837,0.559 4.708,3.768 4.708,4.673 0,0.281 -0.418,0.489 -0.733,0.489 -0.627,0 -1.045,-0.418 -1.254,-0.698 -1.779,-1.743 -7.637,-6.625 -10.985,-6.625 -1.255,0 -1.987,0.488 -1.987,1.395 0,0.976 1.15,2.65 1.569,3.557 l 8.473,14.924"
           style="fill:#ffffff;fill-opacity:1;fill-rule:nonzero;stroke:none;stroke-width:1.41418576"
           id="path8270"
           inkscape:connector-curvature="0" />
        <path
           d="m 278.551,24.591 c -2.73,0 -9.405,-1.396 -9.405,-3.698 0,-0.975 0.809,-1.393 2.226,-1.393 3.134,0 6.471,3.836 9.606,3.836 2.124,0 4.955,-1.116 8.394,-2.232 3.335,-1.116 7.279,-2.231 11.223,-2.231 3.944,0 8.292,0.906 11.023,2.929 1.921,1.393 3.337,3.555 3.337,5.439 0,0.628 -0.304,2.859 -1.72,2.859 -0.404,0 -0.808,-0.208 -0.808,-0.489 0,-0.419 0.506,-1.115 0.506,-1.952 0,-2.65 -3.641,-4.044 -7.181,-4.044 -1.618,0 -3.235,0.277 -4.853,0.557 -4.146,0.628 -7.888,1.185 -12.236,1.185 -2.528,0 -5.057,-0.209 -7.583,-0.766 l 15.269,8.786 15.775,9.764 c 3.235,2.093 3.944,2.232 7.786,3.837 1.315,0.558 5.865,2.091 5.865,3.556 0,0.767 -1.213,1.045 -2.225,1.045 -2.932,0 -5.966,-2.997 -7.887,-4.323 l -2.326,-0.14 c -4.348,0 -7.989,1.117 -11.427,2.302 -3.337,1.116 -6.472,2.232 -9.91,2.232 -7.179,0 -12.539,-3.558 -12.539,-8.509 0,-0.488 -0.101,-2.091 1.214,-2.091 0.809,0 0.607,0.836 0.607,1.185 -0.202,3.068 2.528,4.532 6.875,4.532 2.428,0 4.652,-0.417 7.079,-0.836 3.337,-0.558 6.776,-1.046 10.214,-1.046 3.033,0 5.965,0.418 8.796,1.046 -10.01,-4.672 -19.515,-9.762 -27.909,-15.831 l -4.449,-3.207 -3.337,-2.302"
           style="fill:#ffffff;fill-opacity:1;fill-rule:nonzero;stroke:none;stroke-width:1.41418576"
           id="path8272"
           inkscape:connector-curvature="0" />
      </g>
    </g>
  </g>
</svg>
