<?xml version="1.0" encoding="UTF-8" standalone="no"?>
<!-- Created with Inkscape (http://www.inkscape.org/) -->

<svg
   xmlns:dc="http://purl.org/dc/elements/1.1/"
   xmlns:cc="http://creativecommons.org/ns#"
   xmlns:rdf="http://www.w3.org/1999/02/22-rdf-syntax-ns#"
   xmlns:svg="http://www.w3.org/2000/svg"
   xmlns="http://www.w3.org/2000/svg"
   xmlns:sodipodi="http://sodipodi.sourceforge.net/DTD/sodipodi-0.dtd"
   xmlns:inkscape="http://www.inkscape.org/namespaces/inkscape"
   width="169.39894"
   height="100"
   viewBox="0 0 44.820135 26.458334"
   version="1.1"
   id="svg1502"
   sodipodi:docname="foot_cnz_c.svg"
   inkscape:version="0.92.4 (5da689c313, 2019-01-14)">
  <defs
     id="defs1496">
    <clipPath
       id="clipPath8280"
       clipPathUnits="userSpaceOnUse">
      <path
         inkscape:connector-curvature="0"
         id="path8282"
         d="M 0,77.837 H 328.653 V 0.06 H 0 Z" />
    </clipPath>
  </defs>
  <sodipodi:namedview
     id="base"
     pagecolor="#ffffff"
     bordercolor="#666666"
     borderopacity="1.0"
     inkscape:pageopacity="0.0"
     inkscape:pageshadow="2"
     inkscape:zoom="1.63"
     inkscape:cx="37.605937"
     inkscape:cy="67.838187"
     inkscape:document-units="px"
     inkscape:current-layer="layer1"
     showgrid="false"
     units="px"
     fit-margin-top="0"
     fit-margin-left="0"
     fit-margin-right="0"
     fit-margin-bottom="0" />
  <metadata
     id="metadata1499">
    <rdf:RDF>
      <cc:Work
         rdf:about="">
        <dc:format>image/svg+xml</dc:format>
        <dc:type
           rdf:resource="http://purl.org/dc/dcmitype/StillImage" />
        <dc:title></dc:title>
      </cc:Work>
    </rdf:RDF>
  </metadata>
  <g
     inkscape:label="Layer 1"
     inkscape:groupmode="layer"
     id="layer1"
     transform="translate(-103.89538,-189.46445)">
    <rect
       style="opacity:1;fill:#d1a42b;fill-opacity:1;stroke:none;stroke-width:0.42333338;stroke-linecap:round;stroke-linejoin:round;stroke-miterlimit:4;stroke-dasharray:none;stroke-opacity:1"
       id="rect46"
       width="3.6732795"
       height="6.6567588"
       x="103.89549"
       y="197.50125" />
    <path
       d="m 103.89563,202.72449 c 1.11213,-0.10773 2.43592,-0.84743 2.43592,-2.25209 0,-0.87907 -0.62064,-1.36879 -1.07968,-1.36879 -0.40817,0 -0.67369,0.2782 -0.63578,0.77365 0,0 0.15629,-0.3843 0.5605,-0.3843 0.45195,0 0.75947,0.41172 0.75947,0.96676 0,0.57864 -0.56131,1.56981 -2.04043,1.695 z m 13.01859,-2.26163 c -0.073,-0.31107 -0.3003,-0.66265 -0.73042,-0.66265 -0.46258,0 -0.73861,0.37871 -0.8278,0.71665 z m 2.20491,1.17009 c -0.0323,0.088 -0.0567,0.17579 -0.0567,0.27043 0,0.28407 0.19488,0.53445 0.56814,0.53445 0.21915,0 0.43831,-0.12192 0.58437,-0.25038 v -1.02117 z m 11.33109,-1.81269 c -0.50322,-0.02 -0.69006,0.52095 -0.87662,0.88603 l -1.06317,2.06962 h -0.13788 l -1.18496,-2.38056 c -0.1541,-0.30452 -0.20292,-0.54113 -0.6655,-0.57509 v -0.10133 h 1.67999 v 0.10133 c -0.60059,0 -0.48699,0.23006 -0.31652,0.57509 l 0.81975,1.65695 0.35703,-0.71692 c 0.1136,-0.23675 0.48685,-1.03481 0.48685,-1.25805 0,-0.22311 -0.30834,-0.2298 -0.51113,-0.25707 v -0.10133 h 1.41216 z m -3.76135,2.78654 v 0.1016 h -1.89097 v -0.1016 c 0.60059,-0.0743 0.62487,-0.1556 0.63292,-0.6831 v -1.29174 c 0,-0.28393 0.008,-0.37189 -0.49504,-0.61532 v -0.0676 l 1.03071,-0.29771 0.0895,0.0271 v 2.24527 c 0,0.5545 0.0323,0.60878 0.63291,0.6831 z m -0.568,-4.23388 c 0,0.18956 -0.18683,0.34502 -0.41403,0.34502 -0.22734,0 -0.4139,-0.15546 -0.4139,-0.34502 0,-0.18916 0.18656,-0.34462 0.4139,-0.34462 0.2272,0 0.41403,0.15546 0.41403,0.34462 z m -1.76973,4.18656 c -0.40585,0.12846 -0.83598,0.21643 -1.28247,0.21643 -0.78702,0 -0.74651,-0.34476 -0.74651,-0.86571 v -1.83942 h -0.54373 l -0.0406,-0.0475 1.13627,-0.94003 h 0.0728 v 0.70342 h 1.28246 v 0.28407 h -1.28246 v 1.44707 c 0,0.60196 0.008,0.98067 0.89284,0.98067 0.16229,0 0.32471,-0.0134 0.47881,-0.0473 z m -2.80523,0.034 c -0.30848,0.0742 -0.57632,0.14865 -0.81975,0.14865 -0.3408,0 -0.47076,-0.16229 -0.51126,-0.42618 -0.25966,0.24357 -0.61669,0.46 -1.03072,0.46 -0.51932,0 -0.81157,-0.36521 -0.81157,-0.77107 0,-0.10146 0.0162,-0.1961 0.0487,-0.29743 l 1.7936,-0.67628 c 0.0649,-0.73724 -0.16243,-1.04163 -0.80352,-1.04163 -0.55996,0 -0.50323,0.22325 -0.50323,0.59514 l -0.40571,0.0203 c -0.0649,0 -0.1867,0.007 -0.1867,-0.0676 0,-0.18275 0.89285,-0.88603 1.55017,-0.88603 0.74665,0 0.97399,0.47349 0.97399,1.01449 v 0.96035 c 0,0.59514 -0.049,0.73724 0.70601,0.86584 z m -3.73898,-0.6021 c -0.30834,0.43981 -0.86025,0.78457 -1.4933,0.78457 -1.00631,0 -1.70428,-0.68979 -1.70428,-1.50135 0,-0.87239 0.73029,-1.62327 1.82606,-1.62327 0.73042,0 1.21742,0.38553 1.24974,0.99431 h -2.35356 l -0.0325,0.33807 c -0.0649,0.70328 0.5114,1.35938 1.42852,1.35938 0.42194,0 0.71419,-0.1556 0.95749,-0.42603 z m -3.38591,-2.02884 c 0,0.18247 -0.23552,0.35157 -0.42208,0.42603 -0.13801,-0.088 -0.3408,-0.23674 -0.51945,-0.22324 -0.68978,0.0541 -0.63292,0.97385 -0.63292,1.07531 v 0.6831 c 0,0.5545 0.0323,0.60878 0.81157,0.6831 v 0.1016 h -2.02912 v -0.1016 c 0.56009,-0.0743 0.5845,-0.1556 0.59269,-0.6831 V 200.632 c 0,-0.28393 0.008,-0.37189 -0.39767,-0.61532 v -0.0676 l 0.96567,-0.29771 0.0892,0.0271 -0.0161,0.79793 c 0.17838,-0.3584 0.63292,-0.82507 1.14432,-0.82507 0.22707,0 0.4139,0.12178 0.4139,0.31121 z m -3.07307,2.25209 c -0.36521,0.34489 -0.86843,0.56132 -1.42838,0.56132 -0.99008,0 -1.67182,-0.68979 -1.67182,-1.48117 0,-0.94671 0.99008,-1.64345 2.08585,-1.64345 0.25966,0 0.88439,0.0271 0.88439,0.33821 0,0.14878 -0.19461,0.31107 -0.38144,0.31107 -0.28393,0 -0.57618,-0.43953 -0.98203,-0.43953 -0.64915,0 -0.95749,0.62895 -0.95749,1.08895 0,0.87238 0.71419,1.42688 1.51758,1.42688 0.33275,0 0.56813,-0.10146 0.83597,-0.26374 z m 22.18515,-0.2973 v -4.41581 h -1.16286 l -28.47475,-2.7e-4 v 3.96127 c 1.35311,-0.0311 1.60922,-0.86379 1.60922,-1.0914 0,-0.23252 -0.13201,-0.49613 -0.38308,-0.49613 -0.2512,0 -0.27615,0.21983 -0.27615,0.21983 0.025,-0.044 0.11919,-0.0818 0.18192,-0.0818 0.0629,0 0.21984,0.0576 0.21984,0.24588 0,0.18833 -0.15165,0.34366 -0.3839,0.34366 -0.23225,0 -0.73356,-0.23129 -0.73356,-1.19846 0,-0.93212 0.68419,-1.76305 1.61031,-1.76305 0.73588,0 1.10396,0.45618 1.10396,0.85344 0,0.2377 -0.14715,0.50785 -0.45727,0.50785 -0.35607,0 -0.42699,-0.28256 -0.42699,-0.38294 0,-0.0976 0.0333,-0.24806 0.2512,-0.24806 0.17634,0 0.21643,0.23047 0.14743,0.32034 0,0 0.1226,-0.0348 0.1226,-0.19801 0,-0.11292 -0.0861,-0.44568 -0.63742,-0.44568 -0.94303,0 -1.15905,0.8953 -1.15905,0.8953 0.21998,-0.2197 0.48441,-0.24152 0.66388,-0.24152 0.39071,0 1.46193,0.42999 1.46193,1.90775 0,1.17418 -0.96676,2.16617 -1.9312,2.56521 0,0 0.34516,0.42167 0.90403,0.42167 0.46626,0 0.75101,-0.34108 0.75101,-0.61464 0,-0.2733 -0.17633,-0.28939 -0.22474,-0.28939 -0.0837,0 -0.13651,0.0565 -0.13651,0.0565 0.14387,0 0.16883,0.13051 0.16883,0.17224 0,0.0281 -0.0156,0.1882 -0.21629,0.1882 -0.20102,0 -0.30725,-0.13897 -0.30725,-0.31244 0,-0.1931 0.17878,-0.42999 0.52858,-0.42999 0.27848,0 0.56228,0.21738 0.56228,0.71351 0,0.42454 -0.47813,0.97836 -1.26951,0.97836 -0.92026,0 -1.38734,-0.70765 -1.38734,-0.70765 0,0 -0.14715,0.0239 -0.35676,0.0481 v 0.81075 l 10.93602,0.003 v 0.005 h 18.70159 v -2.07317 c -0.32061,0.36385 -0.81456,0.63128 -1.37192,0.63128 -1.00618,0 -1.70414,-0.68979 -1.70414,-1.50135 0,-0.87239 0.73028,-1.62327 1.82592,-1.62327 0.73056,0 1.21755,0.38553 1.24987,0.99431 h -2.35355 l -0.0325,0.33807 c -0.0649,0.70328 0.51141,1.35938 1.42839,1.35938 0.42208,0 0.71419,-0.1556 0.95762,-0.42603 z m -1.50175,-2.11708 c -0.46259,0 -0.73861,0.37871 -0.82766,0.71665 l 1.55808,-0.054 c -0.0728,-0.31107 -0.30016,-0.66265 -0.73042,-0.66265"
       style="fill:#231f20;fill-opacity:1;fill-rule:nonzero;stroke:none;stroke-width:0.19285904"
       id="path8284"
       inkscape:connector-curvature="0" />
    <path
       d="m 148.16624,207.65471 c -0.0391,0.007 -0.23198,0.004 -0.27589,0.002 -0.01,0 -0.0171,-0.0134 -0.0171,-0.0199 0.0366,-0.0911 0.10242,-0.22843 0.14647,-0.33057 0.005,-0.009 0.0244,0 0.0244,0.002 0.0121,0.0269 0.0952,0.21752 0.1391,0.32403 0.005,0.0111 -0.01,0.0222 -0.017,0.0222 z m -0.0416,-0.61914 c -0.0123,0 -0.022,0.002 -0.0414,0.0266 -0.0171,0.02 -0.0464,0.0378 -0.061,0.0577 -0.0172,0.0157 -0.0269,0.0289 -0.0295,0.0399 -0.005,0.0289 -0.0243,0.0779 -0.056,0.14429 -0.0318,0.0709 -0.23184,0.50158 -0.27098,0.5725 -0.0634,0.10651 -0.0976,0.12424 -0.18301,0.14428 -0.0342,0.009 -0.0586,0.0179 -0.0586,0.0356 0,0.0176 0.0269,0.0265 0.0488,0.0265 0.0611,0 0.12205,-0.011 0.20265,-0.011 0.0634,0 0.11469,0.007 0.17824,0.007 0.0292,0 0.056,-0.009 0.056,-0.0269 0,-0.0221 -0.0269,-0.0266 -0.0537,-0.0353 -0.0805,-0.0224 -0.0952,-0.0423 -0.0952,-0.0867 0,-0.0442 0.0416,-0.13311 0.0586,-0.17075 0.007,-0.0112 0.0293,-0.0112 0.0757,-0.0134 0.0829,-0.002 0.2512,-0.002 0.28311,0 0.0439,0.002 0.0537,0.009 0.0587,0.0222 0.017,0.0355 0.0585,0.15097 0.0585,0.16869 0,0.0266 -0.0244,0.0622 -0.0976,0.0776 -0.0415,0.009 -0.0585,0.0199 -0.0585,0.0333 0,0.0155 0.022,0.0312 0.0585,0.0312 0.0781,0 0.1196,-0.007 0.17824,-0.007 0.0806,0 0.17088,0.011 0.28802,0.011 0.0269,0 0.0513,-0.0177 0.0513,-0.0354 0,-0.0111 -0.0146,-0.0222 -0.0586,-0.0333 -0.10488,-0.0244 -0.12438,-0.0421 -0.17565,-0.15315 -0.0611,-0.12205 -0.26853,-0.59909 -0.3003,-0.68119 -0.005,-0.009 -0.017,-0.0423 -0.0293,-0.11769 -0.002,-0.0156 -0.0171,-0.0266 -0.0269,-0.0266 z m -1.36197,0.0644 c 0.31243,0 0.41976,0.33943 0.41976,0.46817 0,0.13556 -0.0293,0.27302 -0.0952,0.35076 -0.0927,0.10637 -0.20742,0.12191 -0.26607,0.12191 -0.16365,0 -0.41253,-0.17742 -0.41253,-0.49026 0,-0.18861 0.0586,-0.29089 0.1196,-0.34858 0.0708,-0.0732 0.17579,-0.102 0.23443,-0.102 z m 0.0292,-0.0644 c -0.12205,0 -0.28802,0.0333 -0.42971,0.15533 -0.10965,0.0933 -0.17565,0.22638 -0.17565,0.38185 0,0.26606 0.22461,0.53472 0.62732,0.53472 0.0611,0 0.2587,-0.0177 0.39303,-0.13324 0.13188,-0.10869 0.19515,-0.23306 0.19515,-0.41717 0,-0.29061 -0.26838,-0.52149 -0.61014,-0.52149 z m -1.35951,0.0889 c 0.21233,0 0.29047,0.12192 0.29047,0.2152 0,0.0887 -0.066,0.14633 -0.10255,0.17088 -0.0318,0.0199 -0.15629,0.0376 -0.26361,0.0376 -0.0147,0 -0.0244,-0.0112 -0.0244,-0.0244 0,-0.02 0.007,-0.33071 0.007,-0.35294 0,-0.0176 0.0124,-0.031 0.0246,-0.0353 0.0172,-0.007 0.044,-0.011 0.0685,-0.011 z m -0.47363,-0.0312 c 0,0.0155 0.0244,0.0288 0.0611,0.0355 0.12206,0.0179 0.12451,0.0533 0.12929,0.1 0.005,0.0532 0.002,0.10869 0.002,0.20416 0,0.20865 -0.01,0.40176 -0.0121,0.44594 -0.005,0.0978 -0.022,0.11769 -0.13187,0.1421 -0.0415,0.009 -0.061,0.0266 -0.061,0.04 0,0.0154 0.0244,0.0266 0.0659,0.0266 0.0757,0 0.15137,-0.0155 0.22706,-0.0155 0.061,0 0.11224,0.007 0.19038,0.007 0.0244,0 0.0659,-0.005 0.0659,-0.0312 0,-0.0177 -0.0293,-0.0289 -0.0488,-0.0333 -0.0634,-0.0177 -0.10501,-0.0265 -0.1076,-0.0933 -0.005,-0.11974 -0.007,-0.23743 -0.007,-0.28393 0,-0.007 0.005,-0.0132 0.01,-0.0179 0.0172,-0.0132 0.0293,-0.0155 0.0391,-0.0155 0.056,0 0.12683,0.0289 0.14892,0.0601 0.039,0.053 0.17565,0.25284 0.2197,0.29716 0.10487,0.10664 0.19515,0.1376 0.29525,0.1376 0.0904,0 0.14647,-0.0132 0.14647,-0.04 0,-0.0198 -0.007,-0.0244 -0.0439,-0.031 -0.0683,-0.011 -0.14646,-0.0667 -0.20265,-0.1222 -0.1,-0.102 -0.19761,-0.24629 -0.24643,-0.33057 -0.002,-0.002 0.005,-0.011 0.01,-0.0132 0.0732,-0.02 0.21002,-0.0889 0.21002,-0.24411 0,-0.0667 -0.0269,-0.12437 -0.088,-0.17537 -0.0513,-0.0488 -0.1586,-0.0821 -0.31734,-0.0821 -0.20252,0 -0.29771,0.009 -0.35635,0.009 -0.0269,0 -0.0781,0 -0.13665,0 -0.0318,0 -0.0611,0.009 -0.0611,0.0244 z m -0.56869,0.56146 c -0.0391,0.007 -0.23197,0.004 -0.27588,0.002 -0.01,0 -0.017,-0.0134 -0.017,-0.0199 0.0366,-0.0911 0.10256,-0.22843 0.14647,-0.33057 0.005,-0.009 0.0244,0 0.0244,0.002 0.0121,0.0269 0.0952,0.21752 0.1391,0.32403 0.005,0.0111 -0.01,0.0222 -0.0171,0.0222 z m -0.0414,-0.61914 c -0.0123,0 -0.0221,0.002 -0.0416,0.0266 -0.017,0.02 -0.0464,0.0378 -0.061,0.0577 -0.0172,0.0157 -0.0269,0.0289 -0.0293,0.0399 -0.005,0.0289 -0.0244,0.0779 -0.0562,0.14429 -0.0316,0.0709 -0.23184,0.50158 -0.27098,0.5725 -0.0634,0.10651 -0.0976,0.12424 -0.18302,0.14428 -0.0342,0.009 -0.0586,0.0179 -0.0586,0.0356 0,0.0176 0.0269,0.0265 0.0488,0.0265 0.0611,0 0.12205,-0.011 0.20265,-0.011 0.0634,0 0.11469,0.007 0.17824,0.007 0.0292,0 0.0561,-0.009 0.0561,-0.0269 0,-0.0221 -0.0269,-0.0266 -0.0536,-0.0353 -0.0806,-0.0224 -0.0952,-0.0423 -0.0952,-0.0867 0,-0.0442 0.0414,-0.13311 0.0585,-0.17075 0.007,-0.0112 0.0293,-0.0112 0.0757,-0.0134 0.0831,-0.002 0.25147,-0.002 0.28311,0 0.0439,0.002 0.0537,0.009 0.0586,0.0222 0.017,0.0355 0.0585,0.15097 0.0585,0.16869 0,0.0266 -0.0244,0.0622 -0.0976,0.0776 -0.0414,0.009 -0.0585,0.0199 -0.0585,0.0333 0,0.0155 0.022,0.0312 0.0585,0.0312 0.0781,0 0.11974,-0.007 0.17824,-0.007 0.0806,0 0.17088,0.011 0.28803,0.011 0.0269,0 0.0513,-0.0177 0.0513,-0.0354 0,-0.0111 -0.0146,-0.0222 -0.0585,-0.0333 -0.10501,-0.0244 -0.12451,-0.0421 -0.17579,-0.15315 -0.0611,-0.12205 -0.26852,-0.59909 -0.30029,-0.68119 -0.005,-0.009 -0.017,-0.0423 -0.0293,-0.11769 -0.002,-0.0156 -0.0171,-0.0266 -0.0267,-0.0266 z m -1.2792,0.48372 c -0.0195,-0.004 -0.0292,-0.0156 -0.0292,-0.0266 -0.005,-0.0689 -0.002,-0.29294 0.005,-0.32621 0.002,-0.009 0.0123,-0.0289 0.022,-0.0289 0.18069,0 0.20756,0.007 0.24179,0.009 0.0756,0.009 0.10487,0.0376 0.14878,0.11987 0.0196,0.0355 0.0391,0.0443 0.0513,0.0443 0.007,0 0.0244,-0.0134 0.0244,-0.04 0,-0.0311 -0.017,-0.12423 -0.017,-0.1886 0,-0.009 -0.0146,-0.0222 -0.0293,-0.02 -0.0585,0.0112 -0.0683,0.009 -0.53705,0.009 -0.0927,0 -0.17088,-0.009 -0.21479,-0.009 -0.039,0 -0.0659,0.009 -0.0659,0.0244 0,0.0202 0.0293,0.0311 0.0585,0.0379 0.10255,0.0221 0.11728,0.053 0.11973,0.0997 0.005,0.0955 0.005,0.20866 0.005,0.31066 0,0.14429 -0.002,0.28857 -0.007,0.34844 -0.007,0.0776 -0.0123,0.10447 -0.14892,0.13324 -0.0269,0.007 -0.0562,0.0176 -0.0562,0.0376 0,0.0221 0.0415,0.0288 0.0732,0.0288 0.0586,0 0.14155,-0.011 0.21969,-0.011 0.3344,0 0.33194,0.011 0.56146,0.011 0.0537,0 0.0683,-0.004 0.0781,-0.0199 0.0171,-0.0222 0.0659,-0.15983 0.0659,-0.19528 0,-0.0109 0,-0.0488 -0.0244,-0.0488 -0.0146,0 -0.0293,0.0157 -0.0488,0.0445 -0.0708,0.0998 -0.1001,0.11087 -0.17579,0.13078 -0.0318,0.009 -0.1001,0.0134 -0.15615,0.0134 -0.0562,0 -0.13187,-0.0155 -0.14646,-0.0244 -0.01,-0.005 -0.0391,-0.0266 -0.0416,-0.0353 -0.0146,-0.0535 -0.0121,-0.27753 -0.005,-0.31748 0.005,-0.0156 0.0171,-0.0311 0.0244,-0.0311 0.039,-0.005 0.18301,0 0.21233,0.009 0.022,0.009 0.0318,0.0289 0.0537,0.0732 0.0121,0.0266 0.0244,0.0445 0.039,0.0445 0.0195,0 0.0342,-0.0134 0.0342,-0.062 0,-0.0468 -0.007,-0.0535 -0.007,-0.11783 0,-0.0577 0.007,-0.0863 0.007,-0.10201 0,-0.0289 -0.002,-0.051 -0.0221,-0.051 -0.0171,0 -0.0341,0.0244 -0.0464,0.0443 -0.0341,0.0754 -0.0464,0.0866 -0.15124,0.0866 -0.022,0 -0.0757,0 -0.11483,-0.004 z m -1.23023,-0.44827 c -0.25625,0 -0.30753,-0.0177 -0.32948,-0.0354 -0.01,-0.009 -0.0269,-0.0266 -0.0439,-0.0266 -0.008,0 -0.0366,0.0134 -0.0366,0.0398 0,0.0533 -0.0269,0.15764 -0.0293,0.19992 0,0.0177 0.01,0.0442 0.0293,0.0442 0.0195,0 0.0267,-0.0199 0.056,-0.0599 0.0416,-0.0599 0.0757,-0.0798 0.12206,-0.0843 0.0513,-0.005 0.20265,0.007 0.24657,0.0132 0.0146,0.002 0.0244,0.0222 0.0244,0.0267 0,0.25734 -0.007,0.48808 -0.0146,0.68337 -0.005,0.0867 -0.007,0.11319 -0.14414,0.14442 -0.0316,0.007 -0.0683,0.0176 -0.0683,0.0353 0,0.0179 0.0269,0.0311 0.0611,0.0311 0.061,0 0.19283,-0.011 0.25625,-0.011 0.11714,0 0.14155,0.009 0.24411,0.009 0.0318,0 0.0659,-0.0132 0.0659,-0.0289 0,-0.0154 -0.017,-0.0288 -0.061,-0.0376 -0.1001,-0.0244 -0.12206,-0.0333 -0.13665,-0.0844 -0.0123,-0.0376 -0.0172,-0.11088 -0.0172,-0.23293 0,-0.22625 0,-0.47268 0.005,-0.50595 0.002,-0.0111 0.01,-0.0311 0.0195,-0.0311 0.0781,-0.007 0.21479,-0.009 0.26606,-0.007 0.0513,0.002 0.0904,0.009 0.13433,0.12437 0.007,0.0243 0.022,0.0398 0.039,0.0398 0.0123,0 0.0342,-0.0179 0.0342,-0.049 0,-0.0244 -0.0123,-0.11524 -0.007,-0.2152 0,-0.0265 -0.0269,-0.0376 -0.0366,-0.0333 -0.0611,0.0356 -0.083,0.051 -0.35893,0.051 z m -1.15455,0.0289 c 0.31243,0 0.4199,0.33943 0.4199,0.46817 0,0.13556 -0.0293,0.27302 -0.0952,0.35076 -0.0927,0.10637 -0.20743,0.12191 -0.26607,0.12191 -0.16351,0 -0.41253,-0.17742 -0.41253,-0.49026 0,-0.18861 0.0586,-0.29089 0.1196,-0.34858 0.0708,-0.0732 0.17578,-0.102 0.23429,-0.102 z m 0.0292,-0.0644 c -0.12192,0 -0.28788,0.0333 -0.42944,0.15533 -0.10992,0.0933 -0.17579,0.22638 -0.17579,0.38185 0,0.26606 0.22461,0.53472 0.62733,0.53472 0.0611,0 0.25884,-0.0177 0.39289,-0.13324 0.13201,-0.10869 0.19543,-0.23306 0.19543,-0.41717 0,-0.29061 -0.26853,-0.52149 -0.61042,-0.52149 z m -1.29269,0.54959 c -0.0455,0.008 -0.27057,0.005 -0.32185,0.003 -0.0114,0 -0.0199,-0.0154 -0.0199,-0.0233 0.0427,-0.1061 0.1196,-0.26661 0.17088,-0.38581 0.006,-0.0104 0.0285,0 0.0285,0.003 0.0142,0.031 0.11101,0.25366 0.16229,0.3779 0.006,0.0131 -0.0115,0.0259 -0.0199,0.0259 z m -0.0484,-0.72224 c -0.0143,0 -0.0256,0.002 -0.0484,0.0309 -0.02,0.0233 -0.0541,0.044 -0.0712,0.0674 -0.02,0.0181 -0.0314,0.0337 -0.0342,0.0465 -0.006,0.0337 -0.0285,0.0907 -0.0654,0.16828 -0.0371,0.0829 -0.27057,0.58519 -0.31612,0.66797 -0.074,0.12437 -0.11401,0.14496 -0.21356,0.16828 -0.04,0.0104 -0.0685,0.0209 -0.0685,0.0415 0,0.0207 0.0314,0.0311 0.057,0.0311 0.0712,0 0.14238,-0.013 0.23634,-0.013 0.074,0 0.13392,0.008 0.20797,0.008 0.0341,0 0.0655,-0.0104 0.0655,-0.0311 0,-0.0259 -0.0314,-0.0311 -0.0626,-0.0415 -0.094,-0.0259 -0.11114,-0.0491 -0.11114,-0.10092 0,-0.0518 0.0484,-0.15533 0.0683,-0.19938 0.009,-0.0129 0.0342,-0.0129 0.0884,-0.0155 0.0968,-0.003 0.29334,-0.003 0.3303,0 0.0511,0.003 0.0626,0.0104 0.0682,0.0259 0.0201,0.0415 0.0685,0.17606 0.0685,0.19692 0,0.031 -0.0285,0.0723 -0.11387,0.0906 -0.0484,0.0102 -0.0683,0.0233 -0.0683,0.0387 0,0.0183 0.0256,0.0363 0.0683,0.0363 0.091,0 0.13951,-0.008 0.20797,-0.008 0.094,0 0.19924,0.013 0.33602,0.013 0.0312,0 0.0597,-0.0207 0.0597,-0.0414 0,-0.013 -0.017,-0.0259 -0.0683,-0.0387 -0.12246,-0.0285 -0.14524,-0.0492 -0.20497,-0.17879 -0.0713,-0.14238 -0.31339,-0.69892 -0.35034,-0.79479 -0.006,-0.0104 -0.0199,-0.049 -0.0342,-0.1372 -0.003,-0.0181 -0.0199,-0.0309 -0.0312,-0.0309 z m -1.7681,0.22161 c 0,0.0131 0.007,0.0288 0.0513,0.042 0.0952,0.0244 0.13664,0.0533 0.14401,0.14865 0.002,0.0356 0.002,0.19092 0.002,0.42385 0,0.0734 -0.002,0.1421 -0.005,0.18192 -0.005,0.0844 -0.0269,0.10883 -0.14401,0.13556 -0.022,0.007 -0.0586,0.0222 -0.0586,0.042 0,0.0155 0.0221,0.0244 0.0586,0.0244 0.0464,0 0.17579,-0.011 0.24657,-0.011 0.10487,0 0.17087,0.007 0.2392,0.007 0.0244,0 0.0488,-0.005 0.0488,-0.0202 0,-0.0198 -0.0269,-0.0376 -0.0562,-0.0443 -0.11469,-0.0244 -0.13174,-0.0445 -0.13664,-0.17088 -0.002,-0.0466 -0.002,-0.15983 -0.002,-0.28625 0,-0.14428 0,-0.25747 0.005,-0.30629 0.005,-0.0799 0.0146,-0.0975 0.13174,-0.12874 0.0293,-0.004 0.0611,-0.0244 0.0611,-0.0398 0,-0.0112 -0.0367,-0.0266 -0.0537,-0.0244 -0.0537,0.007 -0.16106,0.0132 -0.23674,0.0132 -0.0708,0 -0.24166,-0.004 -0.26116,-0.007 -0.0269,-0.002 -0.0342,0.0112 -0.0342,0.0202 z m -0.76152,0.0154 c 0.31244,0 0.41976,0.33943 0.41976,0.46817 0,0.13556 -0.0293,0.27302 -0.0952,0.35076 -0.0927,0.10637 -0.20742,0.12191 -0.26606,0.12191 -0.16352,0 -0.41254,-0.17742 -0.41254,-0.49026 0,-0.18861 0.0587,-0.29089 0.1196,-0.34858 0.0708,-0.0732 0.17579,-0.102 0.23443,-0.102 z m 0.0292,-0.0644 c -0.12206,0 -0.28803,0.0333 -0.42958,0.15533 -0.10992,0.0933 -0.17579,0.22638 -0.17579,0.38185 0,0.26606 0.22461,0.53472 0.62732,0.53472 0.0611,0 0.25884,-0.0177 0.39303,-0.13324 0.13188,-0.10869 0.19529,-0.23306 0.19529,-0.41717 0,-0.29061 -0.26852,-0.52149 -0.61027,-0.52149 z m -1.56054,-0.13133 c -0.29907,0 -0.3588,-0.0207 -0.38444,-0.0413 -0.0114,-0.0105 -0.0314,-0.0311 -0.0513,-0.0311 -0.009,0 -0.0427,0.0154 -0.0427,0.0465 0,0.0622 -0.0314,0.18383 -0.0342,0.23306 0,0.0207 0.0115,0.0518 0.0342,0.0518 0.0228,0 0.0314,-0.0233 0.0655,-0.07 0.0484,-0.07 0.0882,-0.0931 0.14237,-0.0983 0.0599,-0.005 0.23634,0.008 0.28762,0.0155 0.0172,0.002 0.0285,0.0258 0.0285,0.031 0,0.3003 -0.008,0.56964 -0.017,0.79738 -0.006,0.10106 -0.009,0.13229 -0.16801,0.16829 -0.0371,0.008 -0.0798,0.0209 -0.0798,0.0415 0,0.0207 0.0314,0.0363 0.0712,0.0363 0.0712,0 0.22502,-0.013 0.29907,-0.013 0.13665,0 0.16515,0.0104 0.28475,0.0104 0.0371,0 0.0769,-0.0155 0.0769,-0.0337 0,-0.0181 -0.02,-0.0337 -0.0712,-0.0439 -0.11674,-0.0285 -0.14238,-0.0389 -0.15956,-0.0985 -0.0142,-0.044 -0.0199,-0.12928 -0.0199,-0.27179 0,-0.26416 0,-0.5515 0.006,-0.59023 0.003,-0.0131 0.0114,-0.0364 0.0228,-0.0364 0.0911,-0.008 0.25066,-0.0102 0.31039,-0.008 0.0599,0.002 0.10542,0.0104 0.15669,0.14497 0.008,0.0284 0.0256,0.0466 0.0455,0.0466 0.0142,0 0.0398,-0.0209 0.0398,-0.057 0,-0.0285 -0.0142,-0.1346 -0.008,-0.2512 0,-0.0311 -0.0314,-0.0438 -0.0428,-0.0389 -0.0712,0.0415 -0.0968,0.0596 -0.41854,0.0596 z m -1.58494,0.66605 c 0,0.21752 -0.1001,0.34626 -0.18302,0.39058 -0.0611,0.0379 -0.17333,0.06 -0.22461,0.06 -0.0464,0 -0.0976,-0.0154 -0.1586,-0.06 -0.0269,-0.0177 -0.0367,-0.0577 -0.044,-0.10869 -0.005,-0.0421 -0.01,-0.1687 -0.01,-0.29512 0,-0.30629 0.005,-0.34393 0.01,-0.38621 0,-0.009 0.0123,-0.0221 0.0318,-0.031 0.0269,-0.0134 0.0878,-0.02 0.105,-0.02 0.1342,0 0.24657,0.0466 0.33194,0.12205 0.0831,0.0732 0.14156,0.19747 0.14156,0.32839 z m 0.21479,-0.0221 c 0,-0.15751 -0.0952,-0.31298 -0.22939,-0.39494 -0.1125,-0.071 -0.26852,-0.0955 -0.46872,-0.0955 -0.0806,0 -0.2392,0.0132 -0.31979,0.0132 -0.0488,0 -0.10733,0 -0.1537,0.002 -0.0391,0.002 -0.066,0.0112 -0.066,0.031 0,0.009 0.0244,0.0267 0.0562,0.0312 0.1121,0.0154 0.15383,0.0333 0.15383,0.0953 0,0.1065 0.005,0.41498 0.005,0.49258 0,0.10651 -0.002,0.12874 -0.007,0.17538 -0.007,0.0443 -0.0147,0.0931 -0.15874,0.11537 -0.0269,0.004 -0.0634,0.009 -0.0634,0.0311 0,0.0177 0.0269,0.0288 0.0659,0.0288 0.0367,0 0.0513,-0.002 0.0781,-0.002 0.0757,0 0.2392,0.0134 0.40026,0.0134 0.23197,0 0.37353,-0.0488 0.46135,-0.10214 0.12942,-0.0799 0.24657,-0.2152 0.24657,-0.4349 z m -2.64349,-0.46367 c 0,0.0176 0.0195,0.0288 0.0634,0.0353 0.0513,0.009 0.0781,0.02 0.1001,0.0356 0.0488,0.0333 0.0854,0.0886 0.0878,0.10651 0.002,0.0177 0.005,0.0777 0.005,0.18192 0,0.19529 -0.0146,0.40381 -0.0195,0.45931 -0.007,0.0556 -0.022,0.0956 -0.13924,0.12206 -0.0464,0.0112 -0.056,0.02 -0.056,0.0312 0,0.0222 0.0269,0.0288 0.0585,0.0288 0.0537,0 0.15629,-0.0134 0.21725,-0.0134 0.0685,0 0.14401,0.007 0.15137,0.007 0.022,0 0.0562,-0.007 0.0562,-0.0289 0,-0.0157 -0.0171,-0.0246 -0.0439,-0.0333 -0.0732,-0.0224 -0.12942,-0.0533 -0.13679,-0.12437 -0.0121,-0.14647 0,-0.46831 0.002,-0.54373 0,-0.0155 0.0172,-0.0155 0.022,-0.009 0.14402,0.13747 0.31489,0.32826 0.42727,0.43927 0.13419,0.13092 0.22938,0.24861 0.27084,0.29293 0.0196,0.0155 0.0562,0.0333 0.0732,0.0333 0.0221,0 0.0318,-0.0244 0.0318,-0.0599 0,-0.0155 -0.007,-0.16202 -0.007,-0.28626 0,-0.12873 0.0123,-0.4128 0.0221,-0.49708 0.01,-0.0865 0.0292,-0.11537 0.12438,-0.13992 0.0391,-0.0132 0.0513,-0.0199 0.0513,-0.0355 0,-0.0155 -0.0269,-0.0244 -0.0513,-0.0244 -0.061,0 -0.12206,0.009 -0.17088,0.009 -0.061,0 -0.12437,-0.009 -0.20743,-0.009 -0.007,0 -0.0586,0 -0.0586,0.0244 0,0.0202 0.0318,0.0289 0.0513,0.0355 0.11715,0.0246 0.14401,0.06 0.15138,0.12437 0.0123,0.10651 0,0.39713 -0.002,0.51932 0,0.0132 -0.0146,0.0112 -0.017,0.009 -0.12451,-0.11974 -0.44185,-0.43272 -0.50772,-0.50145 -0.0635,-0.0666 -0.11714,-0.11524 -0.16351,-0.1687 -0.0172,-0.0198 -0.0293,-0.0288 -0.0488,-0.0288 -0.0562,0 -0.2197,-0.0134 -0.27589,-0.0134 -0.0318,0 -0.061,0.0134 -0.061,0.0224 z m -0.51018,0.57018 c -0.0391,0.007 -0.23197,0.004 -0.27588,0.002 -0.01,0 -0.0171,-0.0134 -0.0171,-0.0199 0.0366,-0.0911 0.10255,-0.22843 0.14647,-0.33057 0.005,-0.009 0.0244,0 0.0244,0.002 0.0121,0.0269 0.0952,0.21752 0.1391,0.32403 0.005,0.0111 -0.01,0.0222 -0.0171,0.0222 z m -0.0416,-0.61914 c -0.0121,0 -0.022,0.002 -0.0415,0.0266 -0.017,0.02 -0.0464,0.0378 -0.061,0.0577 -0.0172,0.0157 -0.0269,0.0289 -0.0293,0.0399 -0.005,0.0289 -0.0244,0.0779 -0.0562,0.14429 -0.0316,0.0709 -0.23183,0.50158 -0.27097,0.5725 -0.0634,0.10651 -0.0976,0.12424 -0.18302,0.14428 -0.0342,0.009 -0.0586,0.0179 -0.0586,0.0356 0,0.0176 0.0269,0.0265 0.0488,0.0265 0.0611,0 0.12206,-0.011 0.20266,-0.011 0.0634,0 0.11469,0.007 0.17824,0.007 0.0292,0 0.056,-0.009 0.056,-0.0269 0,-0.0221 -0.0269,-0.0266 -0.0536,-0.0353 -0.0806,-0.0224 -0.0953,-0.0423 -0.0953,-0.0867 0,-0.0442 0.0416,-0.13311 0.0586,-0.17075 0.007,-0.0112 0.0293,-0.0112 0.0757,-0.0134 0.0831,-0.002 0.25147,-0.002 0.28311,0 0.0439,0.002 0.0537,0.009 0.0586,0.0222 0.0171,0.0355 0.0585,0.15097 0.0585,0.16869 0,0.0266 -0.0244,0.0622 -0.0976,0.0776 -0.0415,0.009 -0.0585,0.0199 -0.0585,0.0333 0,0.0155 0.022,0.0312 0.0585,0.0312 0.0781,0 0.1196,-0.007 0.17824,-0.007 0.0806,0 0.17088,0.011 0.28803,0.011 0.0269,0 0.0513,-0.0177 0.0513,-0.0354 0,-0.0111 -0.0146,-0.0222 -0.0586,-0.0333 -0.10487,-0.0244 -0.12437,-0.0421 -0.17565,-0.15315 -0.0611,-0.12205 -0.26852,-0.59909 -0.30029,-0.68119 -0.005,-0.009 -0.0171,-0.0423 -0.0293,-0.11769 -0.002,-0.0156 -0.017,-0.0266 -0.0269,-0.0266 z m -1.64509,0.0466 c 0,0.0154 0.007,0.0355 0.0708,0.0465 0.0854,0.0179 0.10733,0.0445 0.10978,0.11101 0.002,0.0865 0.002,0.17988 0.002,0.26634 0,0.3018 -0.005,0.34162 -0.007,0.38608 -0.005,0.0577 -0.022,0.10432 -0.14646,0.12205 -0.0536,0.009 -0.0683,0.0222 -0.0683,0.04 0,0.0156 0.0244,0.0266 0.066,0.0266 0.0829,0 0.10732,-0.009 0.27329,-0.009 0.17088,0 0.28803,0.011 0.3809,0.011 0.0732,0 0.12928,0.002 0.15369,-0.004 0.01,-0.002 0.0244,-0.0179 0.0342,-0.04 0.0316,-0.0734 0.061,-0.13774 0.0903,-0.18656 0.01,-0.0199 0.002,-0.0599 -0.0123,-0.0599 -0.0171,0 -0.0341,0.009 -0.0634,0.051 -0.0366,0.0555 -0.0805,0.0998 -0.1196,0.12642 -0.0341,0.0244 -0.0659,0.0244 -0.10732,0.0291 -0.0488,0.007 -0.15138,0.007 -0.22461,-0.002 -0.0269,-0.002 -0.0537,-0.0333 -0.0537,-0.0466 -0.005,-0.0642 -0.01,-0.13296 -0.01,-0.2062 0,-0.1466 0.002,-0.44621 0.0123,-0.53281 0.005,-0.0376 0.0464,-0.0687 0.10746,-0.0821 0.0585,-0.0132 0.078,-0.0311 0.078,-0.0465 0,-0.0112 -0.017,-0.0222 -0.0366,-0.02 -0.0659,0.005 -0.17088,0.009 -0.25393,0.009 -0.10978,0 -0.18056,-0.009 -0.21233,-0.009 -0.0415,0 -0.0634,0.009 -0.0634,0.02 z m -0.57604,0.5725 c -0.0391,0.007 -0.23198,0.004 -0.27589,0.002 -0.01,0 -0.017,-0.0134 -0.017,-0.0199 0.0365,-0.0911 0.10242,-0.22843 0.14647,-0.33057 0.005,-0.009 0.0244,0 0.0244,0.002 0.0121,0.0269 0.0952,0.21752 0.1391,0.32403 0.005,0.0111 -0.01,0.0222 -0.017,0.0222 z m -0.0416,-0.61914 c -0.0121,0 -0.022,0.002 -0.0415,0.0266 -0.017,0.02 -0.0464,0.0378 -0.061,0.0577 -0.0172,0.0157 -0.0269,0.0289 -0.0293,0.0399 -0.005,0.0289 -0.0244,0.0779 -0.0562,0.14429 -0.0318,0.0709 -0.23184,0.50158 -0.27098,0.5725 -0.0634,0.10651 -0.0976,0.12424 -0.18301,0.14428 -0.0342,0.009 -0.0587,0.0179 -0.0587,0.0356 0,0.0176 0.0269,0.0265 0.0488,0.0265 0.0611,0 0.12205,-0.011 0.20265,-0.011 0.0634,0 0.11469,0.007 0.1781,0.007 0.0293,0 0.0562,-0.009 0.0562,-0.0269 0,-0.0221 -0.0269,-0.0266 -0.0537,-0.0353 -0.0805,-0.0224 -0.0952,-0.0423 -0.0952,-0.0867 0,-0.0442 0.0416,-0.13311 0.0586,-0.17075 0.007,-0.0112 0.0293,-0.0112 0.0757,-0.0134 0.0829,-0.002 0.25134,-0.002 0.28311,0 0.0439,0.002 0.0537,0.009 0.0586,0.0222 0.017,0.0355 0.0585,0.15097 0.0585,0.16869 0,0.0266 -0.0244,0.0622 -0.0976,0.0776 -0.0414,0.009 -0.0585,0.0199 -0.0585,0.0333 0,0.0155 0.022,0.0312 0.0585,0.0312 0.0781,0 0.1196,-0.007 0.17825,-0.007 0.0806,0 0.17087,0.011 0.28802,0.011 0.0269,0 0.0513,-0.0177 0.0513,-0.0354 0,-0.0111 -0.0146,-0.0222 -0.0586,-0.0333 -0.10488,-0.0244 -0.12452,-0.0421 -0.17566,-0.15315 -0.0611,-0.12205 -0.26852,-0.59909 -0.30029,-0.68119 -0.005,-0.009 -0.0171,-0.0423 -0.0293,-0.11769 -0.002,-0.0156 -0.0171,-0.0266 -0.0269,-0.0266 z m -1.27906,0.48372 c -0.0195,-0.004 -0.0293,-0.0156 -0.0293,-0.0266 -0.005,-0.0689 -0.002,-0.29294 0.005,-0.32621 0.002,-0.009 0.0123,-0.0289 0.022,-0.0289 0.1807,0 0.20756,0.007 0.24165,0.009 0.0757,0.009 0.10501,0.0376 0.14893,0.11987 0.0195,0.0355 0.0391,0.0443 0.0513,0.0443 0.007,0 0.0244,-0.0134 0.0244,-0.04 0,-0.0311 -0.017,-0.12423 -0.017,-0.1886 0,-0.009 -0.0147,-0.0222 -0.0295,-0.02 -0.0585,0.0112 -0.0682,0.009 -0.53691,0.009 -0.0927,0 -0.17087,-0.009 -0.21479,-0.009 -0.039,0 -0.0659,0.009 -0.0659,0.0244 0,0.0202 0.0292,0.0311 0.0585,0.0379 0.10255,0.0221 0.11701,0.053 0.1196,0.0997 0.005,0.0955 0.005,0.20866 0.005,0.31066 0,0.14429 -0.002,0.28857 -0.008,0.34844 -0.007,0.0776 -0.012,0.10447 -0.14865,0.13324 -0.0269,0.007 -0.0562,0.0176 -0.0562,0.0376 0,0.0221 0.0415,0.0288 0.0732,0.0288 0.0585,0 0.14155,-0.011 0.2197,-0.011 0.33439,0 0.33193,0.011 0.56145,0.011 0.0536,0 0.0683,-0.004 0.078,-0.0199 0.0172,-0.0222 0.066,-0.15983 0.066,-0.19528 0,-0.0109 0,-0.0488 -0.0244,-0.0488 -0.0147,0 -0.0293,0.0157 -0.0488,0.0445 -0.0708,0.0998 -0.1001,0.11087 -0.17579,0.13078 -0.0318,0.009 -0.1001,0.0134 -0.15628,0.0134 -0.056,0 -0.13174,-0.0155 -0.14647,-0.0244 -0.01,-0.005 -0.039,-0.0266 -0.0415,-0.0353 -0.0146,-0.0535 -0.0121,-0.27753 -0.005,-0.31748 0.005,-0.0156 0.0172,-0.0311 0.0244,-0.0311 0.0391,-0.005 0.18316,0 0.21248,0.009 0.022,0.009 0.0316,0.0289 0.0536,0.0732 0.0123,0.0266 0.0244,0.0445 0.0391,0.0445 0.0195,0 0.0341,-0.0134 0.0341,-0.062 0,-0.0468 -0.007,-0.0535 -0.007,-0.11783 0,-0.0577 0.007,-0.0863 0.007,-0.10201 0,-0.0289 -0.002,-0.051 -0.0219,-0.051 -0.0171,0 -0.0341,0.0244 -0.0464,0.0443 -0.0341,0.0754 -0.0464,0.0866 -0.15138,0.0866 -0.022,0 -0.0756,0 -0.11469,-0.004 z m -1.34083,-0.61505 c -0.11115,0 -0.13665,-0.008 -0.23361,-0.0492 -0.008,-0.003 -0.0398,0.0155 -0.0456,0.0285 -0.0256,0.0492 -0.0997,0.2227 -0.0997,0.26416 0,0.0232 0,0.0543 0.0256,0.0543 0.0256,0 0.0371,-0.0259 0.0484,-0.0438 0.0798,-0.10637 0.14251,-0.16842 0.20511,-0.16842 0.037,0 0.50404,0.0128 0.50118,0.0128 0.006,0 0.0285,0.003 0.0172,0.0259 -0.10828,0.15533 -0.52695,0.70423 -0.72347,0.92953 -0.0312,0.0387 -0.0511,0.0776 -0.0511,0.088 0,0.0105 0.037,0.0285 0.0882,0.0285 0.0655,0 0.11387,-0.003 0.25624,-0.003 0.25352,0 0.62378,0.008 0.68351,0.008 0.0827,0 0.0968,-0.0259 0.0997,-0.0389 0.006,-0.0128 0.037,-0.11387 0.0911,-0.24574 0.0143,-0.0338 0.003,-0.0803 -0.0228,-0.0803 -0.017,0 -0.0341,0.0206 -0.0655,0.0646 -0.0314,0.044 -0.10829,0.13202 -0.13392,0.16052 -0.0228,0.0207 -0.0569,0.0413 -0.23634,0.0413 -0.0597,0 -0.36739,-0.0101 -0.39862,-0.0154 -0.0228,-0.003 -0.0314,-0.008 -0.0143,-0.0311 0.22788,-0.29512 0.61805,-0.8233 0.70628,-0.92422 0.0256,-0.0259 0.0599,-0.0803 0.0599,-0.0933 0,-0.013 -0.02,-0.0233 -0.0513,-0.0206 -0.0855,0.008 -0.2051,0.008 -0.2677,0.008 z m -1.60581,0.5219 c -0.005,0.009 -0.0195,0.007 -0.0244,-0.002 -0.056,-0.11306 -0.1,-0.20184 -0.11715,-0.23293 -0.0195,-0.0376 -0.0121,-0.0577 0.0513,-0.071 0.0367,-0.009 0.0464,-0.0222 0.0464,-0.0353 0,-0.0135 -0.0219,-0.0224 -0.0513,-0.0224 -0.0171,0 -0.10487,0.009 -0.19038,0.009 -0.0585,0 -0.12206,-0.007 -0.14647,-0.007 -0.0293,0 -0.0585,0.0112 -0.0585,0.0244 0,0.0155 0.0195,0.0267 0.0536,0.0357 0.0488,0.011 0.0685,0.0288 0.12451,0.12424 0.0195,0.0355 0.11238,0.19515 0.1807,0.33057 0.007,0.0132 0.002,0.0199 -0.002,0.031 -0.0683,0.12874 -0.1196,0.22434 -0.13187,0.24411 -0.005,0.009 -0.0146,0.0112 -0.0195,0.002 -0.12928,-0.23539 -0.3198,-0.59487 -0.35635,-0.6726 -0.017,-0.0333 0.0244,-0.0466 0.0513,-0.0555 0.0513,-0.0154 0.0537,-0.0244 0.0537,-0.0376 0,-0.0134 -0.0172,-0.0243 -0.0513,-0.0243 -0.0172,0 -0.066,0.004 -0.14646,0.004 -0.0952,0 -0.19775,-0.011 -0.23689,-0.011 -0.056,0 -0.0732,0.0134 -0.0732,0.0246 0,0.0198 0.0293,0.0309 0.0586,0.0375 0.0659,0.0156 0.12697,0.0711 0.15874,0.12669 0.0439,0.0731 0.25625,0.45249 0.32457,0.58791 0.0708,0.13992 0.10501,0.2242 0.11715,0.24207 0.007,0.0176 0.022,0.0375 0.0367,0.0375 0.0244,0 0.0439,-0.0244 0.0513,-0.0443 0.0464,-0.10869 0.14647,-0.27521 0.20006,-0.37503 0.005,-0.009 0.0147,-0.009 0.022,0.007 0.0685,0.12628 0.13187,0.24615 0.19051,0.37707 0.007,0.0177 0.017,0.0355 0.0316,0.0355 0.0147,0 0.0537,-0.0221 0.0611,-0.0443 0.0316,-0.0664 0.061,-0.12656 0.10487,-0.2197 0.10746,-0.20865 0.23197,-0.41935 0.34421,-0.61246 0.0439,-0.0799 0.0977,-0.10214 0.15629,-0.11524 0.0341,-0.007 0.0659,-0.0177 0.0659,-0.04 0,-0.0157 -0.0293,-0.0224 -0.061,-0.0224 -0.0562,0 -0.12697,0.009 -0.18316,0.009 -0.0341,0 -0.10732,-0.004 -0.15137,-0.004 -0.0244,0 -0.0536,0.004 -0.0536,0.0243 0,0.0199 0.0316,0.0266 0.0536,0.031 0.0732,0.0179 0.0952,0.0334 0.0586,0.11319 -0.0878,0.19979 -0.28802,0.58368 -0.31243,0.62364 -0.005,0.009 -0.0123,0.0177 -0.0195,0.007 -0.0488,-0.0866 -0.12205,-0.23088 -0.17333,-0.33275 -0.005,-0.0112 -0.007,-0.0246 0.002,-0.0379 0.0976,-0.17524 0.14155,-0.23293 0.1586,-0.25966 0.0537,-0.0754 0.0831,-0.0953 0.14156,-0.11319 0.0342,-0.011 0.0562,-0.0153 0.0562,-0.0375 0,-0.007 -0.0121,-0.0202 -0.0586,-0.0202 -0.0292,0 -0.0829,0.007 -0.14155,0.007 -0.061,0 -0.0976,-0.007 -0.12929,-0.007 -0.044,0 -0.0611,0.0112 -0.0611,0.0244 0,0.0112 0.0244,0.0267 0.0464,0.0311 0.066,0.0157 0.0855,0.0421 0.0439,0.12205 -0.0267,0.0577 -0.056,0.11769 -0.0952,0.18424 z m -1.58168,0.0932 c -0.0196,-0.004 -0.0293,-0.0156 -0.0293,-0.0266 -0.005,-0.0689 -0.002,-0.29294 0.005,-0.32621 0.002,-0.009 0.0121,-0.0289 0.022,-0.0289 0.18056,0 0.20743,0.007 0.24166,0.009 0.0757,0.009 0.10487,0.0376 0.14892,0.11987 0.0195,0.0355 0.039,0.0443 0.0511,0.0443 0.007,0 0.0244,-0.0134 0.0244,-0.04 0,-0.0311 -0.017,-0.12423 -0.017,-0.1886 0,-0.009 -0.0146,-0.0222 -0.0293,-0.02 -0.0585,0.0112 -0.0683,0.009 -0.53691,0.009 -0.0929,0 -0.17087,-0.009 -0.21492,-0.009 -0.039,0 -0.0659,0.009 -0.0659,0.0244 0,0.0202 0.0293,0.0311 0.0586,0.0379 0.10242,0.0221 0.11715,0.053 0.1196,0.0997 0.005,0.0955 0.005,0.20866 0.005,0.31066 0,0.14429 -0.002,0.28857 -0.007,0.34844 -0.007,0.0776 -0.0123,0.10447 -0.14893,0.13324 -0.0269,0.007 -0.0562,0.0176 -0.0562,0.0376 0,0.0221 0.0416,0.0288 0.0732,0.0288 0.0586,0 0.14156,-0.011 0.2197,-0.011 0.33439,0 0.33207,0.011 0.56145,0.011 0.0537,0 0.0683,-0.004 0.0782,-0.0199 0.017,-0.0222 0.0659,-0.15983 0.0659,-0.19528 0,-0.0109 0,-0.0488 -0.0244,-0.0488 -0.0146,0 -0.0293,0.0157 -0.0488,0.0445 -0.0708,0.0998 -0.1001,0.11087 -0.17578,0.13078 -0.0316,0.009 -0.1001,0.0134 -0.15615,0.0134 -0.0562,0 -0.13188,-0.0155 -0.14647,-0.0244 -0.01,-0.005 -0.0391,-0.0266 -0.0415,-0.0353 -0.0147,-0.0535 -0.0123,-0.27753 -0.005,-0.31748 0.005,-0.0156 0.017,-0.0311 0.0244,-0.0311 0.039,-0.005 0.18302,0 0.21234,0.009 0.022,0.009 0.0318,0.0289 0.0537,0.0732 0.0121,0.0266 0.0244,0.0445 0.039,0.0445 0.0195,0 0.0342,-0.0134 0.0342,-0.062 0,-0.0468 -0.007,-0.0535 -0.007,-0.11783 0,-0.0577 0.007,-0.0863 0.007,-0.10201 0,-0.0289 -0.002,-0.051 -0.022,-0.051 -0.0172,0 -0.0342,0.0244 -0.0464,0.0443 -0.0342,0.0754 -0.0465,0.0866 -0.15137,0.0866 -0.022,0 -0.0757,0 -0.1147,-0.004 z m -2.0302,-0.59937 c 0,0.0206 0.0229,0.0337 0.074,0.0413 0.0599,0.0104 0.0912,0.0233 0.11687,0.0413 0.0569,0.0389 0.0995,0.10365 0.10242,0.12438 0.003,0.0207 0.006,0.0906 0.006,0.21233 0,0.22789 -0.017,0.47104 -0.0228,0.53582 -0.009,0.0648 -0.0256,0.11128 -0.16229,0.14237 -0.0541,0.013 -0.0656,0.0233 -0.0656,0.0363 0,0.0259 0.0314,0.0337 0.0685,0.0337 0.0626,0 0.18219,-0.0155 0.25338,-0.0155 0.0798,0 0.16802,0.008 0.17661,0.008 0.0256,0 0.0655,-0.008 0.0655,-0.0337 0,-0.018 -0.0199,-0.0285 -0.0513,-0.0389 -0.0854,-0.0259 -0.15083,-0.062 -0.15942,-0.14497 -0.0143,-0.17087 0,-0.54618 0.003,-0.63427 0,-0.0181 0.0199,-0.0181 0.0256,-0.0104 0.16801,0.16051 0.36739,0.38335 0.49831,0.51263 0.1567,0.15274 0.26771,0.28994 0.31612,0.34176 0.0228,0.0183 0.0655,0.0389 0.0855,0.0389 0.0255,0 0.037,-0.0285 0.037,-0.07 0,-0.0181 -0.009,-0.18887 -0.009,-0.33398 0,-0.15015 0.0143,-0.48154 0.0256,-0.57986 0.0115,-0.10106 0.0342,-0.1346 0.14524,-0.16311 0.0456,-0.0154 0.0599,-0.0233 0.0599,-0.0414 0,-0.0181 -0.0314,-0.0285 -0.0599,-0.0285 -0.0712,0 -0.14237,0.0104 -0.19924,0.0104 -0.0713,0 -0.14524,-0.0104 -0.24207,-0.0104 -0.009,0 -0.0685,0 -0.0685,0.0285 0,0.0233 0.0371,0.0337 0.0599,0.0414 0.13665,0.0285 0.16801,0.07 0.17661,0.14497 0.0142,0.12424 0,0.46354 -0.003,0.60591 0,0.0154 -0.0172,0.0128 -0.0199,0.0102 -0.14524,-0.13978 -0.51549,-0.50472 -0.59241,-0.58505 -0.074,-0.0777 -0.13665,-0.13473 -0.19079,-0.19678 -0.0199,-0.0232 -0.0342,-0.0337 -0.057,-0.0337 -0.0655,0 -0.25625,-0.0156 -0.32171,-0.0156 -0.0371,0 -0.0713,0.0156 -0.0713,0.026 z m -1.2867,0.16461 c 0,0.0176 0.01,0.0288 0.0683,0.042 0.0952,0.02 0.12206,0.0666 0.12451,0.0889 0.002,0.0264 0.007,0.17074 0.007,0.23947 0,0.20647 -0.005,0.41281 -0.01,0.44608 -0.0121,0.0799 -0.0269,0.0955 -0.12451,0.11551 -0.0415,0.009 -0.0659,0.0288 -0.0659,0.0443 0,0.0154 0.0342,0.0221 0.0683,0.0221 0.0708,0 0.12697,-0.011 0.19775,-0.011 0.0781,0 0.21233,0.009 0.24165,0.009 0.0293,0 0.0634,-0.007 0.0634,-0.0266 0,-0.0134 -0.0121,-0.0266 -0.0536,-0.0376 -0.0953,-0.0224 -0.12205,-0.0468 -0.12451,-0.0956 -0.005,-0.0843 -0.005,-0.20183 -0.005,-0.28175 0,-0.0134 0.007,-0.0311 0.017,-0.0311 0.0952,0 0.17579,0.005 0.20265,0.011 0.0365,0.009 0.0634,0.04 0.0781,0.0799 0.0121,0.0267 0.0269,0.0488 0.0414,0.0488 0.0293,0 0.0366,-0.0331 0.0341,-0.051 -0.005,-0.0355 -0.007,-0.0842 -0.007,-0.1331 0,-0.0445 0.005,-0.0844 0.005,-0.12192 0,-0.0246 -0.0123,-0.0424 -0.0293,-0.0424 -0.0123,0 -0.0293,0.0244 -0.0367,0.0424 -0.0195,0.042 -0.0316,0.082 -0.10241,0.0841 -0.10501,0.002 -0.16611,0.009 -0.18806,0.007 -0.002,0 -0.0146,-0.0112 -0.0146,-0.0202 0,-0.12192 0.002,-0.24848 0.005,-0.33944 0,-0.0134 0.0195,-0.0356 0.0341,-0.0356 0.14401,0 0.24411,0.007 0.27343,0.0157 0.0318,0.009 0.0634,0.0222 0.0976,0.10637 0.017,0.0423 0.0293,0.0555 0.0439,0.0555 0.017,0 0.0342,-0.0132 0.0342,-0.0621 0,-0.0443 -0.005,-0.10651 -0.005,-0.16434 0,-0.007 -0.017,-0.0244 -0.0269,-0.022 -0.0293,0.009 -0.45154,0.004 -0.54918,0.004 -0.088,0 -0.17333,-0.009 -0.2392,-0.009 -0.0342,0 -0.0562,0.0134 -0.0562,0.0224 z m -0.7592,0.0154 c 0.31244,0 0.4199,0.33943 0.4199,0.46817 0,0.13556 -0.0293,0.27302 -0.0952,0.35076 -0.0927,0.10637 -0.20742,0.12191 -0.26607,0.12191 -0.16351,0 -0.41253,-0.17742 -0.41253,-0.49026 0,-0.18861 0.0586,-0.29089 0.1196,-0.34858 0.0708,-0.0732 0.17579,-0.102 0.23429,-0.102 z m 0.0293,-0.0644 c -0.12205,0 -0.28802,0.0333 -0.42958,0.15533 -0.10991,0.0933 -0.17578,0.22638 -0.17578,0.38185 0,0.26606 0.22461,0.53472 0.62732,0.53472 0.0611,0 0.25884,-0.0177 0.39303,-0.13324 0.13188,-0.10869 0.19529,-0.23306 0.19529,-0.41717 0,-0.29061 -0.26852,-0.52149 -0.61028,-0.52149 z m -2.02598,0.0466 c 0,0.0154 0.007,0.0355 0.0708,0.0465 0.0855,0.0179 0.10746,0.0445 0.10992,0.11101 0.002,0.0865 0.002,0.17988 0.002,0.26634 0,0.3018 -0.005,0.34162 -0.007,0.38608 -0.005,0.0577 -0.022,0.10432 -0.14647,0.12205 -0.0537,0.009 -0.0683,0.0222 -0.0683,0.04 0,0.0156 0.0244,0.0266 0.0659,0.0266 0.0831,0 0.10746,-0.009 0.27343,-0.009 0.17088,0 0.28802,0.011 0.38076,0.011 0.0732,0 0.12942,0.002 0.15383,-0.004 0.01,-0.002 0.0244,-0.0179 0.0341,-0.04 0.0318,-0.0734 0.0611,-0.13774 0.0904,-0.18656 0.01,-0.0199 0.002,-0.0599 -0.0123,-0.0599 -0.017,0 -0.0342,0.009 -0.0634,0.051 -0.0367,0.0555 -0.0806,0.0998 -0.1196,0.12642 -0.0342,0.0244 -0.066,0.0244 -0.10746,0.0291 -0.0488,0.007 -0.15138,0.007 -0.22461,-0.002 -0.0269,-0.002 -0.0536,-0.0333 -0.0536,-0.0466 -0.005,-0.0642 -0.01,-0.13296 -0.01,-0.2062 0,-0.1466 0.002,-0.44621 0.0121,-0.53281 0.005,-0.0376 0.0464,-0.0687 0.10746,-0.0821 0.0586,-0.0132 0.0782,-0.0311 0.0782,-0.0465 0,-0.0112 -0.0172,-0.0222 -0.0367,-0.02 -0.0659,0.005 -0.17088,0.009 -0.25379,0.009 -0.10992,0 -0.1807,-0.009 -0.21234,-0.009 -0.0416,0 -0.0636,0.009 -0.0636,0.02 z m -0.67369,0.002 c 0,0.0131 0.007,0.0288 0.0513,0.042 0.0952,0.0244 0.13665,0.0533 0.14401,0.14865 0.002,0.0356 0.002,0.19092 0.002,0.42385 0,0.0734 -0.002,0.1421 -0.005,0.18192 -0.005,0.0844 -0.0269,0.10883 -0.14402,0.13556 -0.022,0.007 -0.0586,0.0222 -0.0586,0.042 0,0.0155 0.0221,0.0244 0.0586,0.0244 0.0464,0 0.17579,-0.011 0.24657,-0.011 0.10501,0 0.17088,0.007 0.2392,0.007 0.0244,0 0.0488,-0.005 0.0488,-0.0202 0,-0.0198 -0.0269,-0.0376 -0.0562,-0.0443 -0.11469,-0.0244 -0.13174,-0.0445 -0.13665,-0.17088 -0.002,-0.0466 -0.002,-0.15983 -0.002,-0.28625 0,-0.14428 0,-0.25747 0.005,-0.30629 0.005,-0.0799 0.0146,-0.0975 0.13174,-0.12874 0.0293,-0.004 0.0611,-0.0244 0.0611,-0.0398 0,-0.0112 -0.0367,-0.0266 -0.0537,-0.0244 -0.0537,0.007 -0.16106,0.0132 -0.23675,0.0132 -0.0708,0 -0.24166,-0.004 -0.26116,-0.007 -0.0269,-0.002 -0.0342,0.0112 -0.0342,0.0202 z m -1.21073,0.48822 c 0,0.15301 0.0659,0.27288 0.16119,0.36384 0.11224,0.1087 0.31721,0.17088 0.49791,0.17088 0.12696,0 0.2392,-0.02 0.3247,-0.0466 0.0244,-0.009 0.0536,-0.0289 0.056,-0.0356 0.0123,-0.0288 0.0464,-0.1507 0.066,-0.20634 0.002,-0.007 -0.007,-0.0243 -0.0172,-0.0243 -0.0195,0 -0.0513,0.0198 -0.0659,0.0465 -0.017,0.031 -0.039,0.0555 -0.0562,0.0798 -0.0537,0.0799 -0.16351,0.11319 -0.26852,0.11319 -0.0903,0 -0.20988,-0.0443 -0.31489,-0.13092 -0.0927,-0.0798 -0.14878,-0.2152 -0.14878,-0.36616 0,-0.15083 0.0731,-0.28175 0.12928,-0.33058 0.0415,-0.0356 0.14647,-0.1065 0.28802,-0.1065 0.12206,0 0.22216,0.0443 0.28325,0.102 0.0341,0.0357 0.0488,0.0732 0.078,0.12874 0.01,0.0222 0.0147,0.0289 0.0244,0.0289 0.0123,0 0.0391,-0.0112 0.0391,-0.0421 0,-0.0134 -0.0147,-0.11551 -0.0147,-0.17319 0,-0.002 -0.0146,-0.0577 -0.0244,-0.0597 -0.0585,-0.0135 -0.20006,-0.049 -0.35144,-0.049 -0.20265,0 -0.38566,0.0644 -0.48331,0.14428 -0.11469,0.0932 -0.20265,0.22202 -0.20265,0.3929 z m -1.44503,-0.48822 c 0,0.0176 0.0195,0.0288 0.0634,0.0353 0.0513,0.009 0.0781,0.02 0.1001,0.0356 0.0488,0.0333 0.0855,0.0886 0.088,0.10651 0.002,0.0177 0.005,0.0777 0.005,0.18192 0,0.19529 -0.0146,0.40381 -0.0195,0.45931 -0.007,0.0556 -0.022,0.0956 -0.1391,0.12206 -0.0464,0.0112 -0.0562,0.02 -0.0562,0.0312 0,0.0222 0.0269,0.0288 0.0586,0.0288 0.0537,0 0.15615,-0.0134 0.21725,-0.0134 0.0683,0 0.14401,0.007 0.15137,0.007 0.022,0 0.056,-0.007 0.056,-0.0289 0,-0.0157 -0.017,-0.0246 -0.0439,-0.0333 -0.0732,-0.0224 -0.12942,-0.0533 -0.13665,-0.12437 -0.0123,-0.14647 0,-0.46831 0.002,-0.54373 0,-0.0155 0.017,-0.0155 0.022,-0.009 0.14401,0.13747 0.31489,0.32826 0.42713,0.43927 0.13433,0.13092 0.22952,0.24861 0.27097,0.29293 0.0195,0.0155 0.0562,0.0333 0.0732,0.0333 0.022,0 0.0318,-0.0244 0.0318,-0.0599 0,-0.0155 -0.007,-0.16202 -0.007,-0.28626 0,-0.12873 0.0121,-0.4128 0.022,-0.49708 0.01,-0.0865 0.0293,-0.11537 0.12451,-0.13992 0.039,-0.0132 0.0513,-0.0199 0.0513,-0.0355 0,-0.0155 -0.0269,-0.0244 -0.0513,-0.0244 -0.0611,0 -0.12206,0.009 -0.17088,0.009 -0.0611,0 -0.12451,-0.009 -0.20756,-0.009 -0.007,0 -0.0585,0 -0.0585,0.0244 0,0.0202 0.0318,0.0289 0.0513,0.0355 0.11714,0.0246 0.14401,0.06 0.15124,0.12437 0.0123,0.10651 0,0.39713 -0.002,0.51932 0,0.0132 -0.0147,0.0112 -0.0172,0.009 -0.12451,-0.11974 -0.44172,-0.43272 -0.50773,-0.50145 -0.0634,-0.0666 -0.11714,-0.11524 -0.16351,-0.1687 -0.017,-0.0198 -0.0293,-0.0288 -0.0488,-0.0288 -0.0562,0 -0.2197,-0.0134 -0.27589,-0.0134 -0.0316,0 -0.061,0.0134 -0.061,0.0224 z m -1.30101,0.002 c 0,0.0111 0.0269,0.0289 0.056,0.0355 0.0976,0.02 0.10501,0.06 0.10746,0.0822 0.005,0.0398 0.007,0.2928 0.007,0.3528 0,0.27071 0.0536,0.38172 0.15615,0.45945 0.0683,0.0532 0.17824,0.091 0.31243,0.091 0.12942,0 0.22461,-0.0334 0.29539,-0.0866 0.12942,-0.0933 0.17087,-0.26415 0.17578,-0.44812 0.005,-0.13338 0.0146,-0.25311 0.017,-0.3153 0.002,-0.091 0.0293,-0.11756 0.1196,-0.1376 0.0318,-0.007 0.0562,-0.0156 0.0562,-0.0376 0,-0.007 -0.0195,-0.0222 -0.0562,-0.0222 -0.0537,0 -0.1391,0.011 -0.23675,0.011 -0.0611,0 -0.0537,-0.004 -0.11469,-0.004 -0.0318,0 -0.0635,0.004 -0.0635,0.0243 0,0.0157 0.0244,0.0288 0.0513,0.0334 0.11469,0.0176 0.12696,0.0575 0.13433,0.12861 0,0.0266 0.002,0.28174 -0.01,0.44158 -0.0269,0.2662 -0.1586,0.30411 -0.31489,0.30411 -0.0829,0 -0.16842,-0.0334 -0.21479,-0.0645 -0.039,-0.0289 -0.10992,-0.12424 -0.11224,-0.26853 -0.002,-0.14196 -0.005,-0.29716 -0.002,-0.42385 0,-0.0841 0.039,-0.0976 0.10978,-0.11087 0.0562,-0.0112 0.0659,-0.0243 0.0659,-0.04 0,-0.0112 -0.0195,-0.0243 -0.0708,-0.0243 -0.0634,0 -0.10487,0.004 -0.18547,0.004 -0.1001,0 -0.14155,-0.011 -0.21724,-0.011 -0.039,0 -0.0659,0.007 -0.0659,0.0266 z m -0.7592,0.0134 c 0.31244,0 0.4199,0.33943 0.4199,0.46817 0,0.13556 -0.0293,0.27302 -0.0952,0.35076 -0.0927,0.10637 -0.20756,0.12191 -0.26607,0.12191 -0.16365,0 -0.41253,-0.17742 -0.41253,-0.49026 0,-0.18861 0.0585,-0.29089 0.1196,-0.34858 0.0708,-0.0732 0.17579,-0.102 0.23429,-0.102 z m 0.0293,-0.0644 c -0.12205,0 -0.28802,0.0333 -0.42958,0.15533 -0.10992,0.0933 -0.17579,0.22638 -0.17579,0.38185 0,0.26606 0.22461,0.53472 0.62733,0.53472 0.061,0 0.2587,-0.0177 0.39303,-0.13324 0.13174,-0.10869 0.19529,-0.23306 0.19529,-0.41717 0,-0.29061 -0.26852,-0.52149 -0.61028,-0.52149 z m -2.05039,0.45372 c 0,0.17865 0.0769,0.31857 0.18792,0.4248 0.13106,0.12669 0.37026,0.19925 0.58096,0.19925 0.1481,0 0.27902,-0.0232 0.37871,-0.0544 0.0285,-0.0104 0.0627,-0.0337 0.0656,-0.0415 0.0142,-0.0337 0.054,-0.17605 0.0768,-0.24056 0.003,-0.008 -0.008,-0.0285 -0.0199,-0.0285 -0.0228,0 -0.0597,0.0233 -0.0769,0.0543 -0.0199,0.0361 -0.0455,0.0647 -0.0655,0.0931 -0.0626,0.0931 -0.19079,0.13215 -0.31325,0.13215 -0.10542,0 -0.24493,-0.0518 -0.36739,-0.15288 -0.10815,-0.0931 -0.17375,-0.25093 -0.17375,-0.42699 0,-0.17606 0.0855,-0.32893 0.15097,-0.38594 0.0484,-0.0415 0.17088,-0.12424 0.33603,-0.12424 0.14237,0 0.25925,0.0518 0.33043,0.11906 0.0398,0.0415 0.0569,0.0855 0.0911,0.15015 0.0113,0.0259 0.017,0.0337 0.0285,0.0337 0.0142,0 0.0456,-0.013 0.0456,-0.0491 0,-0.0157 -0.017,-0.13474 -0.017,-0.20197 0,-0.002 -0.0172,-0.0674 -0.0285,-0.0698 -0.0683,-0.0157 -0.23361,-0.057 -0.41007,-0.057 -0.23648,0 -0.45004,0.075 -0.56391,0.16815 -0.13392,0.10882 -0.23634,0.25897 -0.23634,0.45822 z m -0.88603,-0.45372 c -0.24411,0 -0.39548,0.12219 -0.39548,0.28843 0,0.13324 0.11223,0.21984 0.2002,0.2707 0.0536,0.0311 0.1196,0.0622 0.19283,0.10215 0.0903,0.051 0.14156,0.0978 0.14156,0.1841 0,0.0756 -0.0659,0.16434 -0.20266,0.16434 -0.10732,0 -0.19283,-0.0533 -0.25379,-0.12642 -0.0195,-0.0289 -0.0439,-0.0756 -0.0562,-0.10447 -0.01,-0.0244 -0.017,-0.0487 -0.039,-0.0487 -0.0172,0 -0.0342,0.0179 -0.0342,0.0599 0,0.0333 0.0195,0.13978 0.022,0.16637 0.002,0.0135 0.007,0.0356 0.0269,0.0468 0.0562,0.0375 0.16106,0.0687 0.30753,0.0687 0.10746,0 0.2197,-0.0378 0.27097,-0.0687 0.0708,-0.04 0.14647,-0.12424 0.14647,-0.22652 0,-0.12424 -0.0829,-0.20633 -0.18547,-0.25966 -0.0708,-0.0376 -0.13678,-0.0666 -0.21479,-0.1065 -0.0831,-0.0421 -0.15138,-0.10201 -0.15138,-0.17756 0,-0.0953 0.0829,-0.17293 0.20498,-0.17293 0.0586,0 0.11482,0.0199 0.14646,0.0443 0.0318,0.0246 0.0635,0.0599 0.0831,0.12424 0.007,0.0266 0.017,0.0533 0.039,0.0533 0.007,0 0.0269,-0.007 0.0342,-0.049 0.005,-0.0288 0.002,-0.0798 0.002,-0.14402 0,-0.0245 -0.007,-0.0511 -0.0244,-0.0535 -0.0683,-0.009 -0.13678,-0.0354 -0.26116,-0.0354 z m -1.26446,0.0354 c -0.25639,0 -0.30753,-0.0177 -0.32962,-0.0354 -0.01,-0.009 -0.0267,-0.0266 -0.0439,-0.0266 -0.007,0 -0.0366,0.0134 -0.0366,0.0398 0,0.0533 -0.0269,0.15764 -0.0293,0.19992 0,0.0177 0.01,0.0442 0.0293,0.0442 0.0195,0 0.0269,-0.0199 0.056,-0.0599 0.0416,-0.0599 0.0757,-0.0798 0.12205,-0.0843 0.0513,-0.005 0.20266,0.007 0.24657,0.0132 0.0147,0.002 0.0244,0.0222 0.0244,0.0267 0,0.25734 -0.007,0.48808 -0.0146,0.68337 -0.005,0.0867 -0.007,0.11319 -0.14401,0.14442 -0.0318,0.007 -0.0683,0.0176 -0.0683,0.0353 0,0.0179 0.0267,0.0311 0.061,0.0311 0.0611,0 0.19284,-0.011 0.25625,-0.011 0.11728,0 0.14169,0.009 0.24411,0.009 0.0318,0 0.066,-0.0132 0.066,-0.0289 0,-0.0154 -0.0172,-0.0288 -0.0611,-0.0376 -0.1001,-0.0244 -0.12205,-0.0333 -0.13665,-0.0844 -0.0123,-0.0376 -0.017,-0.11088 -0.017,-0.23293 0,-0.22625 0,-0.47268 0.005,-0.50595 0.002,-0.0111 0.01,-0.0311 0.0196,-0.0311 0.078,-0.007 0.21479,-0.009 0.26606,-0.007 0.0511,0.002 0.0903,0.009 0.1342,0.12437 0.007,0.0243 0.022,0.0398 0.039,0.0398 0.0123,0 0.0342,-0.0179 0.0342,-0.049 0,-0.0244 -0.0123,-0.11524 -0.007,-0.2152 0,-0.0265 -0.0269,-0.0376 -0.0366,-0.0333 -0.0611,0.0356 -0.0831,0.051 -0.3588,0.051 z m -1.06672,0.0535 c 0.21233,0 0.29047,0.12192 0.29047,0.2152 0,0.0887 -0.0659,0.14633 -0.10255,0.17088 -0.0318,0.0199 -0.15615,0.0376 -0.26361,0.0376 -0.0146,0 -0.0244,-0.0112 -0.0244,-0.0244 0,-0.02 0.007,-0.33071 0.007,-0.35294 0,-0.0176 0.0121,-0.031 0.0244,-0.0353 0.017,-0.007 0.0439,-0.011 0.0683,-0.011 z m -0.47363,-0.0312 c 0,0.0155 0.0244,0.0288 0.0611,0.0355 0.12206,0.0179 0.12451,0.0533 0.12942,0.1 0.005,0.0532 0.002,0.10869 0.002,0.20416 0,0.20865 -0.01,0.40176 -0.0123,0.44594 -0.005,0.0978 -0.022,0.11769 -0.13187,0.1421 -0.0415,0.009 -0.061,0.0266 -0.061,0.04 0,0.0154 0.0244,0.0266 0.0659,0.0266 0.0757,0 0.15137,-0.0155 0.22706,-0.0155 0.061,0 0.11224,0.007 0.19038,0.007 0.0244,0 0.0659,-0.005 0.0659,-0.0312 0,-0.0177 -0.0292,-0.0289 -0.0488,-0.0333 -0.0634,-0.0177 -0.10487,-0.0265 -0.10733,-0.0933 -0.005,-0.11974 -0.007,-0.23743 -0.007,-0.28393 0,-0.007 0.005,-0.0132 0.01,-0.0179 0.017,-0.0132 0.0292,-0.0155 0.039,-0.0155 0.0562,0 0.12696,0.0289 0.14892,0.0601 0.039,0.053 0.17579,0.25284 0.2197,0.29716 0.10501,0.10664 0.19529,0.1376 0.29539,0.1376 0.0903,0 0.14646,-0.0132 0.14646,-0.04 0,-0.0198 -0.007,-0.0244 -0.044,-0.031 -0.0683,-0.011 -0.14646,-0.0667 -0.20251,-0.1222 -0.1001,-0.102 -0.19775,-0.24629 -0.24657,-0.33057 -0.002,-0.002 0.005,-0.011 0.01,-0.0132 0.0732,-0.02 0.20988,-0.0889 0.20988,-0.24411 0,-0.0667 -0.0269,-0.12437 -0.0878,-0.17537 -0.0513,-0.0488 -0.15874,-0.0821 -0.31735,-0.0821 -0.20265,0 -0.29784,0.009 -0.35648,0.009 -0.0269,0 -0.078,0 -0.13665,0 -0.0318,0 -0.0611,0.009 -0.0611,0.0244 z m -0.64601,0.49191 c -0.0456,0.008 -0.27057,0.005 -0.32171,0.003 -0.0115,0 -0.02,-0.0154 -0.02,-0.0233 0.0428,-0.1061 0.1196,-0.26661 0.17087,-0.38581 0.006,-0.0104 0.0285,0 0.0285,0.003 0.0143,0.031 0.11115,0.25366 0.16229,0.3779 0.006,0.0131 -0.0113,0.0259 -0.0199,0.0259 z m -0.0484,-0.72224 c -0.0142,0 -0.0256,0.002 -0.0484,0.0309 -0.0199,0.0233 -0.054,0.044 -0.0712,0.0674 -0.0199,0.0181 -0.0312,0.0337 -0.0341,0.0465 -0.006,0.0337 -0.0285,0.0907 -0.0656,0.16828 -0.037,0.0829 -0.27043,0.58519 -0.31612,0.66797 -0.074,0.12437 -0.11387,0.14496 -0.21356,0.16828 -0.0398,0.0104 -0.0683,0.0209 -0.0683,0.0415 0,0.0207 0.0314,0.0311 0.057,0.0311 0.0712,0 0.14237,-0.013 0.23634,-0.013 0.074,0 0.13378,0.008 0.20783,0.008 0.0342,0 0.0656,-0.0104 0.0656,-0.0311 0,-0.0259 -0.0314,-0.0311 -0.0627,-0.0415 -0.094,-0.0259 -0.111,-0.0491 -0.111,-0.10092 0,-0.0518 0.0484,-0.15533 0.0683,-0.19938 0.009,-0.0129 0.0342,-0.0129 0.0882,-0.0155 0.0968,-0.003 0.29335,-0.003 0.33044,0 0.0513,0.003 0.0626,0.0104 0.0683,0.0259 0.0199,0.0415 0.0683,0.17606 0.0683,0.19692 0,0.031 -0.0285,0.0723 -0.11388,0.0906 -0.0484,0.0102 -0.0683,0.0233 -0.0683,0.0387 0,0.0183 0.0256,0.0363 0.0683,0.0363 0.0911,0 0.13952,-0.008 0.20784,-0.008 0.094,0 0.19938,0.013 0.33603,0.013 0.0314,0 0.0599,-0.0207 0.0599,-0.0414 0,-0.013 -0.017,-0.0259 -0.0683,-0.0387 -0.12246,-0.0285 -0.14524,-0.0492 -0.20511,-0.17879 -0.0712,-0.14238 -0.31325,-0.69892 -0.35021,-0.79479 -0.006,-0.0104 -0.02,-0.049 -0.0342,-0.1372 -0.003,-0.0181 -0.0199,-0.0309 -0.0314,-0.0309"
       style="fill:#231f20;fill-opacity:1;fill-rule:nonzero;stroke:none;stroke-width:0.19285904"
       id="path8286"
       inkscape:connector-curvature="0" />
    <path
       d="m 140.27451,202.29941 c 0.11415,-0.19979 0.27111,-0.47553 0.27111,-0.69428 0,-0.34244 -0.39944,-0.53268 -0.88452,-0.53268 -1.84038,0 -3.50947,1.674 -4.2943,2.62508 l -0.0284,-0.019 0.61355,-1.30306 c 0.11401,-0.25693 0.24248,-0.56104 0.24248,-0.83707 0,-0.27575 -0.14265,-0.46599 -0.58492,-0.46599 -0.59923,0 -1.34097,0.47554 -1.69759,0.76083 -0.11414,0.0761 -0.61355,0.51359 -0.61355,0.61833 0,0.0476 0.0571,0.0664 0.11415,0.0664 0.0856,0 0.12846,-0.0569 0.15697,-0.10446 0.17115,-0.19965 0.95585,-0.83693 1.32678,-0.83693 0.21398,0 0.28516,0.1046 0.28516,0.22829 0,0.16174 -0.0997,0.3708 -0.17115,0.523 l -1.26964,2.76758 c -0.0285,0.0475 -0.0855,0.17143 -0.0855,0.21875 0,0.16187 0.29948,0.11414 0.44213,0.11414 0.45658,0 0.4709,-0.0476 0.58504,-0.32321 0.35662,-0.74215 1.4408,-2.00688 2.19686,-2.60598 0.44226,-0.34243 1.34111,-1.04626 2.09717,-1.04626 0.32812,0 0.49927,0.12369 0.49927,0.33275 0,0.17115 -0.11415,0.35212 -0.19965,0.51372 l -1.01286,1.79756 c -0.17128,0.29484 -0.38526,0.69428 -0.38526,1.01762 0,0.27575 0.18547,0.42781 0.61342,0.42781 0.58504,0 1.44079,-0.5515 1.81173,-0.82711 0.11415,-0.0762 0.64205,-0.51386 0.64205,-0.63728 0,-0.0383 -0.057,-0.0667 -0.1,-0.0667 -0.0855,0 -0.14251,0.057 -0.17101,0.0952 -0.24261,0.2377 -1.04149,0.90349 -1.49808,0.90349 -0.17115,0 -0.27097,-0.0666 -0.27097,-0.19025 0,-0.1331 0.15683,-0.36139 0.21397,-0.48508 l 1.1555,-2.03526"
       style="fill:#d1a42b;fill-opacity:1;fill-rule:nonzero;stroke:none;stroke-width:0.19285904"
       id="path8270"
       inkscape:connector-curvature="0" />
    <path
       d="m 141.88278,204.76261 c -0.37231,0 -1.28261,0.19038 -1.28261,0.50432 0,0.13296 0.11033,0.18996 0.30357,0.18996 0.4274,0 0.88248,-0.52313 1.31002,-0.52313 0.28966,0 0.67573,0.1522 1.14473,0.30439 0.45481,0.15219 0.99267,0.30425 1.53053,0.30425 0.53786,0 1.13082,-0.12355 1.50326,-0.39944 0.26197,-0.18997 0.45508,-0.48481 0.45508,-0.74174 0,-0.0856 -0.0415,-0.3899 -0.23457,-0.3899 -0.0551,0 -0.11019,0.0284 -0.11019,0.0667 0,0.0571 0.069,0.15206 0.069,0.2662 0,0.3614 -0.49654,0.5515 -0.97931,0.5515 -0.22065,0 -0.44117,-0.0378 -0.66182,-0.076 -0.56541,-0.0856 -1.07573,-0.1616 -1.66868,-0.1616 -0.34476,0 -0.68965,0.0285 -1.03413,0.10446 l 2.0823,-1.19819 2.15131,-1.33156 c 0.44117,-0.28543 0.53786,-0.30439 1.06181,-0.52327 0.17934,-0.0761 0.79984,-0.28516 0.79984,-0.48495 0,-0.10459 -0.16542,-0.14251 -0.30343,-0.14251 -0.39985,0 -0.81361,0.40872 -1.07559,0.58955 l -0.31721,0.0191 c -0.59295,0 -1.08949,-0.15233 -1.55835,-0.31393 -0.45508,-0.1522 -0.88262,-0.30439 -1.35147,-0.30439 -0.97903,0 -1.71,0.48522 -1.71,1.16041 0,0.0666 -0.0138,0.28516 0.16556,0.28516 0.11032,0 0.0828,-0.11401 0.0828,-0.1616 -0.0276,-0.4184 0.34475,-0.61805 0.93757,-0.61805 0.33112,0 0.63442,0.0569 0.9654,0.11401 0.45508,0.0761 0.92407,0.14265 1.39293,0.14265 0.41362,0 0.81347,-0.057 1.19955,-0.14265 -1.36511,0.63714 -2.66135,1.33129 -3.80608,2.15894 l -0.60673,0.43736 -0.45508,0.31393"
       style="fill:#d1a42b;fill-opacity:1;fill-rule:nonzero;stroke:none;stroke-width:0.19285904"
       id="path8272"
       inkscape:connector-curvature="0" />
  </g>
</svg>
