<?xml version="1.0" encoding="UTF-8" standalone="no"?>
<!-- Created with Inkscape (http://www.inkscape.org/) -->

<svg
   xmlns:dc="http://purl.org/dc/elements/1.1/"
   xmlns:cc="http://creativecommons.org/ns#"
   xmlns:rdf="http://www.w3.org/1999/02/22-rdf-syntax-ns#"
   xmlns:svg="http://www.w3.org/2000/svg"
   xmlns="http://www.w3.org/2000/svg"
   xmlns:sodipodi="http://sodipodi.sourceforge.net/DTD/sodipodi-0.dtd"
   xmlns:inkscape="http://www.inkscape.org/namespaces/inkscape"
   width="123.91695"
   height="100"
   viewBox="0 0 32.786358 26.458334"
   version="1.1"
   id="svg1502"
   sodipodi:docname="footer_fatg.svg"
   inkscape:version="0.92.4 (5da689c313, 2019-01-14)">
  <defs
     id="defs1496" />
  <sodipodi:namedview
     id="base"
     pagecolor="#ffffff"
     bordercolor="#666666"
     borderopacity="1.0"
     inkscape:pageopacity="0.0"
     inkscape:pageshadow="2"
     inkscape:zoom="1.75"
     inkscape:cx="57.557032"
     inkscape:cy="67.838187"
     inkscape:document-units="px"
     inkscape:current-layer="layer1"
     showgrid="false"
     units="px"
     fit-margin-top="0"
     fit-margin-left="0"
     fit-margin-right="0"
     fit-margin-bottom="0" />
  <metadata
     id="metadata1499">
    <rdf:RDF>
      <cc:Work
         rdf:about="">
        <dc:format>image/svg+xml</dc:format>
        <dc:type
           rdf:resource="http://purl.org/dc/dcmitype/StillImage" />
        <dc:title></dc:title>
      </cc:Work>
    </rdf:RDF>
  </metadata>
  <g
     inkscape:label="Layer 1"
     inkscape:groupmode="layer"
     id="layer1"
     transform="translate(-109.91227,-189.46445)">
    <g
       style="fill:#ffffff;stroke-width:1.41418588"
       transform="matrix(0.70712065,0,0,0.70712065,108.7436,0.66940893)"
       id="g1186">
      <path
         inkscape:connector-curvature="0"
         id="path3842"
         transform="matrix(0.26458333,0,0,0.26458333,-7.4083716,7.40828)"
         d="m 184.98438,1019.1426 -0.59961,3.209 c -0.32947,1.7656 -1.13406,6.077 -1.78711,9.5781 -0.65306,3.501 -1.13742,6.4153 -1.07618,6.4765 0.0612,0.061 1.21262,0.1114 2.5586,0.1114 1.75843,0 2.47276,-0.081 2.53906,-0.2832 0.0508,-0.155 0.20241,-0.8381 0.33594,-1.5196 l 0.24414,-1.2402 h 1.69336 c 1.8817,0 1.74001,-0.1279 2.08008,1.916 l 0.16992,1.0137 2.64062,0.062 c 2.56708,0.062 2.64063,0.05 2.64063,-0.418 0,-0.2649 -0.65908,-4.0952 -1.46485,-8.5117 -0.80576,-4.4165 -1.51989,-8.3827 -1.58789,-8.8164 -0.26672,-1.7003 0.0751,-1.5781 -4.37109,-1.5781 z m 11.73046,0 -0.14648,1.3847 c -0.0796,0.7617 -0.14453,1.8772 -0.14453,2.4786 v 1.0918 h 1.86914 1.86719 l -0.0937,6.8632 c -0.0516,3.7741 -0.0342,7.0182 0.0391,7.209 0.10977,0.2861 0.6105,0.3477 2.84375,0.3477 h 2.71094 v -7.211 -7.2089 h 1.76953 1.77148 l 0.14063,-1.1817 c 0.0781,-0.6505 0.14312,-1.7661 0.14453,-2.4785 l 0.002,-1.2949 h -6.38672 z m -57.29101,0.166 c -2.30885,0.052 -3.44698,0.3537 -5.00586,1.1328 -2.77899,1.3889 -4.70541,4.1414 -5.76953,8.2422 -0.70941,2.7338 -0.97536,8.9136 -0.54492,12.6699 0.28925,2.5243 1.18303,5.5536 2.12695,7.209 1.13787,1.9956 3.27741,3.7456 5.38476,4.4043 1.18331,0.3696 5.23844,0.4158 6.26563,0.07 0.42111,-0.1416 1.25683,-0.6048 1.85742,-1.0293 0.60059,-0.4245 1.12028,-0.7405 1.1543,-0.7012 0.034,0.04 0.22882,0.402 0.43359,0.8047 l 0.37305,0.7325 h 3.25976 3.26172 v -9.2403 -9.2422 l -5.23828,0.061 -5.23633,0.061 -0.0625,3.211 -0.0625,3.2089 h 1.24414 1.2461 v 1.9004 c 0,2.1416 0.10617,2.0238 -2.05664,2.2774 -1.8317,0.2146 -3.20693,-0.4185 -3.79297,-1.7461 -0.6533,-1.48 -0.98476,-4.625 -0.83789,-7.9492 0.19368,-4.3839 0.92324,-6.3437 2.5625,-6.8848 1.0949,-0.3614 3.42947,-0.1502 6.25976,0.5684 1.23602,0.3138 2.3585,0.5703 2.49414,0.5703 0.30562,0 1.78641,-8.5434 1.52539,-8.8008 -0.10159,-0.1002 -1.09791,-0.4558 -2.21289,-0.791 -1.76101,-0.5292 -2.53209,-0.6234 -5.87109,-0.7149 -1.08903,-0.03 -1.98819,-0.041 -2.75781,-0.023 z m -44.416018,0.4082 -4.673828,0.062 -4.673828,0.06 -0.05859,16.2207 c -0.03205,8.9213 -0.01032,16.347 0.04883,16.502 0.08119,0.2128 1.240233,0.2813 4.732421,0.2813 h 4.625 v -16.5626 z m 80.253908,0 -9.4375,0.061 -9.4375,0.059 -0.0566,16.502 -0.0586,16.502 h 9.11914 9.11915 l 0.10351,-0.5079 c 0.0567,-0.2787 0.1567,-1.268 0.22266,-2.1972 0.066,-0.9293 0.18987,-2.424 0.27344,-3.3223 l 0.15039,-1.6328 h -4.76172 -4.76367 v -2.5918 -2.5898 h 3.83007 3.82813 v -3.6055 -3.6035 h -3.82813 -3.83007 v -2.3653 -2.3652 h 4.38867 c 5.0727,0 4.50812,0.3494 4.71093,-2.9297 0.0652,-1.0532 0.18855,-2.7005 0.27344,-3.6621 z m -136.791017,0.01 v 16.5586 16.5586 h 4.617188 4.617187 v -6.4161 -6.414 l 3.548828,-0.062 3.546875,-0.062 0.0625,-3.5469 0.0625,-3.5488 h -3.611328 -3.609375 v -2.3653 -2.3652 h 4.371094 4.371094 l 0.125,-1.0703 c 0.06871,-0.5886 0.185336,-2.1859 0.257812,-3.5488 0.07248,-1.363 0.185842,-2.7572 0.251953,-3.0977 l 0.119141,-0.6191 h -9.365234 z m 20.273438,0 v 16.5625 16.5644 l 4.671875,-0.061 4.673828,-0.062 0.04883,-5.8575 c 0.04513,-5.4881 0.07421,-5.8521 0.451172,-5.7792 0.221291,0.043 0.433131,0.1066 0.470703,0.1425 0.06969,0.067 1.852445,6.3875 2.75,9.7481 l 0.496094,1.8594 h 5.042968 c 2.773852,0 5.044922,-0.065 5.044922,-0.1446 0,-0.079 -0.97261,-3.2276 -2.160156,-6.9961 l -2.158203,-6.8515 1.011719,-1.084 c 1.903551,-2.0354 2.622799,-4.0942 2.626953,-7.5196 0.0053,-4.3302 -1.153262,-7.2256 -3.548828,-8.8652 -2.210313,-1.5128 -3.248469,-1.6562 -11.978516,-1.6562 z m 41.21875,0 v 16.5586 16.5586 h 4.166019 4.16797 v -7.7051 c 0,-4.4831 0.0832,-7.6146 0.19921,-7.4903 0.1097,0.1177 1.69662,3.5852 3.52539,7.7051 l 3.32422,7.4903 h 4.47266 4.4707 v -14.1583 c 0,-7.7867 0.0657,-15.2383 0.14649,-16.5585 l 0.14843,-2.4004 h -4.31445 -4.31445 v 7.9296 c 0,4.3649 -0.0861,7.8348 -0.19141,7.7168 -0.10519,-0.1177 -1.4339,-3.2554 -2.95312,-6.9726 -1.51922,-3.7172 -2.94691,-7.1902 -3.17383,-7.7168 l -0.41406,-0.957 h -4.62891 z m 88.958989,5.5781 c 0.0729,0.073 0.97064,5.5739 0.9707,5.9473 3e-5,0.1817 -0.34458,0.2812 -0.9707,0.2812 h -0.97071 l 0.45703,-3.1426 c 0.25085,-1.7284 0.48249,-3.1171 0.51368,-3.0859 z m -120.832036,2.7578 1.126953,0.01 c 1.625386,0.011 2.159979,0.5367 2.474609,2.4356 0.241096,1.4549 -0.05908,3.3327 -0.634765,3.9785 -0.350892,0.3936 -0.824532,0.591 -1.671875,0.6972 -0.6504,0.082 -1.184193,0.1098 -1.1875,0.062 -0.0033,-0.047 -0.02901,-1.6813 -0.05664,-3.6328 z m 125.800776,11.7891 -1.81835,0.064 -1.81641,0.064 -0.0762,6.2519 -0.0742,6.252 h 1.91992 1.92188 v -2.3653 -2.3652 h 1.125 1.12695 v 2.3652 2.3653 h 1.80273 1.80078 v -6.3086 -6.3067 h -1.77539 c -1.75758,0 -1.77652,0.01 -1.89648,0.6192 -0.0667,0.3407 -0.0648,1.4563 0.006,2.4785 l 0.1289,1.8574 h -1.19335 -1.19336 l 0.1289,-1.8574 c 0.0708,-1.0222 0.0734,-2.1428 0.006,-2.4883 z m -12.7832,0.017 v 1.6895 1.6894 h 1.12696 1.125 v 4.6172 4.6192 h 1.91601 1.91406 v -4.7481 -4.748 l 1.01367,0.062 c 0.55736,0.034 1.1043,-0.034 1.21485,-0.1524 0.11055,-0.1178 0.24254,-0.8486 0.29492,-1.623 l 0.0957,-1.4063 h -4.34961 z m 19.98047,0 0.14649,1.7227 c 0.0801,0.948 0.14648,3.7872 0.14648,6.3086 v 4.584 h 3.46094 3.46093 l 0.14063,-0.8457 c 0.0768,-0.4646 0.14117,-1.122 0.14258,-1.4629 l 0.002,-0.6211 h -1.80273 -1.80078 v -0.9004 -0.9004 h 1.46289 1.46484 v -1.4648 -1.4649 h -1.46484 -1.46289 v -0.7871 -0.7891 h 1.5625 c 0.85988,0 1.62382,-0.098 1.69726,-0.2168 0.0734,-0.1188 0.19582,-0.879 0.27148,-1.6894 l 0.13672,-1.4727 h -3.78125 z m -29.19922,19.7266 v 0 c -1.64245,0 -3.27682,0.092 -4.03125,0.2929 -3.7114,0.9884 -6.06445,3.3285 -7.21875,7.1797 -1.21146,4.042 -1.21146,12.1436 0,16.1856 1.17697,3.9267 3.57696,6.3804 7.19141,7.3535 1.49136,0.4015 6.3367,0.4155 7.81445,0.019 5.98858,-1.5942 8.64891,-7.1139 8.25391,-17.1289 -0.13712,-3.477 -0.44345,-5.358 -1.21485,-7.4727 -1.20912,-3.3145 -3.30824,-5.2268 -6.71093,-6.1132 -0.79127,-0.206 -2.44154,-0.3131 -4.08399,-0.3184 z m -123.541014,0.041 c -0.828245,0.025 -1.514489,0.079 -1.916015,0.168 -4.145949,0.9147 -6.874681,4.0951 -7.923829,9.2363 -0.376633,1.8456 -0.413748,2.6476 -0.339843,7.2617 0.07911,4.9389 0.111156,5.2772 0.652343,7.0508 1.190099,3.9003 2.921292,6.0121 5.814454,7.0879 1.023006,0.3804 1.695559,0.4728 3.544922,0.4766 2.487945,0.01 3.330735,-0.2336 4.613281,-1.3164 0.756549,-0.6385 0.93043,-0.6005 1.298828,0.289 l 0.259765,0.627 h 2.958985 2.958984 l 0.0918,-8.3516 c 0.05083,-4.5936 0.056,-8.422 0.01172,-8.5078 -0.04427,-0.085 -2.222074,-0.1562 -4.839844,-0.1562 h -4.759765 v 3.0097 3.0078 h 1.140624 1.142579 v 1.7422 c 0,1.9812 0.125061,1.8591 -2.179688,2.0957 -0.976864,0.1002 -1.4002,0.048 -1.966797,-0.2461 -1.723021,-0.8933 -2.173823,-2.7341 -2.027344,-8.2617 0.110349,-4.1639 0.349285,-5.2173 1.423829,-6.2461 0.594008,-0.5711 0.723933,-0.6002 2.429687,-0.5976 1.28973,0 2.465118,0.1726 4.142578,0.5976 1.288498,0.3266 2.388768,0.549 2.44336,0.4942 0.05457,-0.055 0.378444,-1.7236 0.720703,-3.709 0.34226,-1.9855 0.671466,-3.7646 0.730469,-3.9532 0.117305,-0.375 -0.632495,-0.7205 -2.916016,-1.3417 -1.253938,-0.3411 -5.025029,-0.5322 -7.509766,-0.4571 z m 108.443364,0.3692 -4.30469,0.057 -4.30469,0.057 v 5.8614 5.8613 h -2.75 -2.74805 v -5.9141 -5.914 h -4.35742 -4.35742 v 15.2519 15.252 h 4.35742 4.35742 v -5.7051 -5.707 h 2.77344 2.77539 l -0.0254,5.6543 -0.0254,5.6543 4.30469,0.057 4.30469,0.057 v -15.2617 z m 30.29101,0 v 15.2558 15.2559 h 3.83789 3.83789 v -7.0977 c 0,-3.9031 0.0792,-7.0069 0.17578,-6.8984 0.0966,0.1084 1.41642,2.998 2.9336,6.4219 1.51715,3.4237 2.90399,6.5296 3.08008,6.9004 l 0.32031,0.6738 h 4.10937 4.11133 v -15.252 -15.2519 h -3.83789 -3.83789 l -0.0117,7.3144 c -0.008,5.0299 -0.0794,7.2182 -0.22461,7.0039 -0.11613,-0.1712 -1.49775,-3.4384 -3.07031,-7.2617 l -2.85938,-6.9531 -4.28125,-0.055 z m -100.816405,0 0.945313,2.752 c 0.519632,1.5143 2.149851,6.2863 3.623046,10.6035 l 2.677735,7.8496 v 4.6523 4.6524 h 4.253906 4.253905 v -4.5977 -4.5976 l 2.99024,-8.6309 c 1.64549,-4.7472 3.27943,-9.4081 3.63085,-10.3574 0.35142,-0.9494 0.64063,-1.8602 0.64063,-2.0235 0,-0.2483 -0.73691,-0.2968 -4.51758,-0.2968 h -4.51562 l -0.996097,4.8203 c -0.946053,4.5852 -1.079946,5.1178 -1.246094,4.916 -0.03917,-0.047 -0.537039,-2.2345 -1.105468,-4.8594 l -1.033203,-4.7734 -4.800782,-0.055 z m -15.099609,0.01 h -6.908204 v 15.25 15.252 h 4.253907 4.253906 v -5.4629 -5.4668 l 0.457031,0.035 c 0.31646,0.023 0.509113,0.2199 0.623047,0.6387 0.09067,0.3334 0.757109,2.754 1.480469,5.3789 l 1.316406,4.7735 4.72461,0.055 c 4.141062,0.049 4.708767,0.015 4.603515,-0.2579 -0.328252,-0.8554 -3.869141,-12.1769 -3.869141,-12.3711 0,-0.1232 0.418605,-0.7161 0.929688,-1.3144 2.105998,-2.4656 2.804003,-5.7013 2.091797,-9.6953 -0.493448,-2.7673 -1.745248,-4.7005 -3.691406,-5.6953 -2.01653,-1.0308 -2.843503,-1.1211 -10.265625,-1.1211 z m 40.068364,0 -0.0586,15.25 -0.0586,15.252 h 4.37304 4.3711 v -4.9805 -4.9785 h 2.23828 c 5.3866,0 8.32979,-2.0154 9.39844,-6.4336 0.39769,-1.6441 0.35266,-6.0124 -0.0781,-7.623 -0.49427,-1.8481 -1.21606,-3.1607 -2.2832,-4.1446 -1.18452,-1.092 -1.87392,-1.4411 -3.82227,-1.9394 -1.39072,-0.3557 -2.31758,-0.4024 -7.83007,-0.4024 z m 8.62695,7.0078 0.98633,0.1426 c 0.54201,0.079 1.1872,0.2734 1.43359,0.4317 1.09194,0.7008 1.19753,5.5007 0.14453,6.539 -0.21914,0.2162 -0.85757,0.4432 -1.47461,0.5235 l -1.08984,0.1406 v -3.8887 z m 52.14258,0.4864 c 2.59702,0.011 3.23089,1.7664 3.24414,8.1308 0.007,3.3955 -0.24844,6.0889 -0.65039,6.8477 -0.10908,0.206 -0.49386,0.5556 -0.85743,0.7773 -0.70196,0.4281 -2.54967,0.5378 -3.38281,0.2012 -1.42534,-0.576 -1.81836,-2.2839 -1.81836,-7.8887 0,-4.8468 0.22168,-6.3314 1.10156,-7.3164 0.49354,-0.5524 0.7469,-0.655 1.81641,-0.7324 0.19098,-0.015 0.37373,-0.019 0.54688,-0.019 z m -99.238285,0.1836 h 1.025391 c 0.785125,0 1.163833,0.1169 1.609375,0.5 0.543704,0.4676 0.584033,0.6211 0.65039,2.3457 0.0929,2.414 -0.224712,3.2579 -1.349609,3.5703 -0.437027,0.1213 -1.051432,0.2215 -1.365234,0.2226 h -0.570313 v -3.3223 z"
         style="fill:#ffffff;fill-opacity:0.39215686;stroke-width:1.74055243" />
      <path
         inkscape:connector-curvature="0"
         id="path3761"
         transform="matrix(0.26458333,0,0,0.26458333,-7.4083716,7.40828)"
         d="m 135.20312,1016.4902 c -2.3089,0.052 -3.44694,0.3537 -5.00585,1.1328 -2.77906,1.389 -4.70539,4.1433 -5.76954,8.2442 -0.70942,2.7339 -0.97536,8.9135 -0.54492,12.6699 0.28926,2.5244 1.18301,5.5515 2.12696,7.207 1.13789,1.9957 3.27735,3.7476 5.38476,4.4063 1.18333,0.37 5.23842,0.4138 6.26563,0.068 0.42112,-0.1417 1.25681,-0.6049 1.85742,-1.0293 0.6006,-0.4246 1.12028,-0.7386 1.1543,-0.6993 0.034,0.04 0.22881,0.4001 0.43359,0.8028 l 0.37305,0.7324 H 144.73828 148 v -9.2402 -9.2403 l -5.23828,0.061 -5.23633,0.061 -0.0625,3.209 -0.0625,3.2109 h 1.24414 1.24609 v 1.9004 c 0,2.1416 0.10623,2.0238 -2.05664,2.2774 -1.83173,0.2146 -3.20886,-0.4204 -3.79492,-1.7481 -0.65331,-1.48 -0.98476,-4.6248 -0.83789,-7.9492 0.19369,-4.3839 0.92321,-6.3436 2.5625,-6.8848 1.09493,-0.3614 3.43136,-0.1501 6.26172,0.5684 1.23604,0.3139 2.35849,0.5723 2.49414,0.5723 0.30563,0 1.78641,-8.5454 1.52539,-8.8028 -0.10159,-0.1001 -1.09789,-0.4557 -2.21289,-0.791 -1.76105,-0.5292 -2.53202,-0.6234 -5.87109,-0.7148 -1.08906,-0.03 -1.98818,-0.041 -2.75782,-0.024 z m -44.417964,0.4102 -4.673828,0.061 -4.673828,0.061 -0.05859,16.2207 c -0.03205,8.9214 -0.01032,16.347 0.04883,16.5019 0.08119,0.2128 1.240158,0.2813 4.732422,0.2813 h 4.625 v -16.5625 z m 80.255864,0 -9.4375,0.059 -9.4375,0.059 -0.0566,16.5019 -0.0586,16.502 h 9.11914 9.1211 l 0.10156,-0.5059 c 0.0567,-0.2787 0.15865,-1.2679 0.22461,-2.1972 0.066,-0.9293 0.18792,-2.4239 0.27148,-3.3223 l 0.15235,-1.6348 h -4.76368 -4.76367 v -2.5898 -2.5918 h 3.83008 3.82813 v -3.6035 -3.6055 h -3.82813 -3.83008 v -2.3652 -2.3653 h 4.38867 c 5.07282,0 4.50813,0.3495 4.71094,-2.9296 0.0652,-1.0533 0.18855,-2.7005 0.27344,-3.6622 z m -136.792973,0 v 16.5586 16.5586 h 4.617187 4.617188 v -6.4141 -6.416 l 3.546875,-0.061 3.548828,-0.062 0.0625,-3.5489 0.06055,-3.5488 H 47.0918 43.482425 v -2.3652 -2.3653 h 4.371094 4.371093 l 0.125,-1.0703 c 0.06871,-0.5886 0.185333,-2.1858 0.257813,-3.5488 0.07248,-1.363 0.185842,-2.7571 0.251953,-3.0977 l 0.119141,-0.6191 h -9.365235 z m 20.271484,0 v 16.5625 16.5645 l 4.673828,-0.061 4.673829,-0.062 0.04883,-5.8574 c 0.04513,-5.4883 0.07419,-5.8521 0.451172,-5.7793 0.221287,0.043 0.433128,0.1067 0.470703,0.1426 0.0697,0.067 1.852422,6.3873 2.75,9.748 l 0.496093,1.8594 h 5.042969 c 2.773913,0 5.044922,-0.065 5.044922,-0.1445 0,-0.079 -0.97258,-3.2276 -2.160156,-6.9961 l -2.158203,-6.8516 1.011718,-1.082 c 1.903593,-2.0355 2.6228,-4.0961 2.626954,-7.5215 0.0053,-4.3303 -1.153213,-7.2256 -3.548829,-8.8652 -2.210366,-1.5129 -3.248268,-1.6563 -11.978515,-1.6563 z m 41.220703,0 v 16.5586 16.5586 h 4.167969 4.166017 v -7.7051 c 0,-4.4831 0.0851,-7.6149 0.20117,-7.4902 0.1097,0.1177 1.69462,3.5851 3.52344,7.7051 l 3.32617,7.4902 h 4.4707 4.47266 v -14.1582 c 0,-7.7869 0.0657,-15.2383 0.14648,-16.5586 l 0.14649,-2.4004 h -4.31445 -4.3125 v 7.9297 c 0,4.3649 -0.0862,7.8347 -0.19141,7.7168 -0.10519,-0.1177 -1.43387,-3.2554 -2.95313,-6.9727 -1.51925,-3.7172 -2.94885,-7.1902 -3.17578,-7.7168 l -0.41211,-0.957 h -4.63086 z m 86.318356,0 -0.59961,3.2109 c -0.32946,1.7657 -1.13208,6.0751 -1.78515,9.5762 -0.65307,3.5011 -1.13741,6.4153 -1.07617,6.4766 0.0612,0.061 1.21258,0.1113 2.55859,0.1113 1.75847,0 2.47275,-0.079 2.53906,-0.2812 0.0508,-0.155 0.20237,-0.84 0.33594,-1.5215 l 0.24219,-1.2383 h 1.69531 c 1.88175,0 1.74,-0.1279 2.08008,1.916 l 0.16992,1.0117 2.64063,0.064 c 2.56714,0.062 2.64062,0.05 2.64062,-0.418 0,-0.2649 -0.65906,-4.0951 -1.46484,-8.5117 -0.80579,-4.4166 -1.5199,-8.3847 -1.58789,-8.8184 -0.26673,-1.7003 0.0732,-1.5781 -4.37305,-1.5781 z m 11.73047,0 -0.14453,1.3848 c -0.0796,0.7616 -0.14453,1.8771 -0.14453,2.4785 v 1.0937 h 1.86719 1.86914 l -0.0937,6.8614 c -0.0516,3.774 -0.0342,7.0181 0.0391,7.2089 0.10977,0.2862 0.61045,0.3477 2.84375,0.3477 h 2.70899 v -7.209 -7.209 h 1.77148 1.77148 l 0.14063,-1.1836 c 0.0781,-0.6505 0.14312,-1.764 0.14453,-2.4765 l 0.002,-1.2969 h -6.38672 z m -7.79297,6.1621 c 0.0729,0.073 0.97065,5.5739 0.97071,5.9473 3e-5,0.1818 -0.34261,0.2812 -0.96875,0.2812 h -0.97071 l 0.45704,-3.1426 c 0.25084,-1.7284 0.48053,-3.1171 0.51171,-3.0859 z m -122.128902,2.1738 1.126953,0.01 c 1.625421,0.011 2.159967,0.5366 2.474609,2.4355 0.241096,1.455 -0.05906,3.3327 -0.634766,3.9785 -0.350891,0.3936 -0.824511,0.5911 -1.671875,0.6973 -0.650412,0.082 -1.184191,0.1117 -1.1875,0.064 -0.0033,-0.047 -0.02896,-1.6832 -0.05664,-3.6347 z m 127.099612,12.3731 -1.81836,0.066 -1.81836,0.064 -0.0742,6.252 -0.0742,6.252 h 1.91992 1.91992 v -2.3672 -2.3653 h 1.12696 1.12695 v 2.3653 2.3672 h 1.80078 1.80274 v -6.3086 -6.3086 h -1.77539 c -1.75763,0 -1.77844,0.01 -1.89844,0.6191 -0.0667,0.3408 -0.0628,1.4563 0.008,2.4785 l 0.12891,1.8594 h -1.19336 -1.19336 l 0.1289,-1.8594 c 0.0708,-1.0222 0.0734,-2.1409 0.006,-2.4863 z m -12.78321,0.018 v 1.6894 1.6895 h 1.125 1.12696 v 4.6191 4.6192 h 1.91406 1.91406 v -4.7481 -4.748 l 1.01367,0.062 c 0.55737,0.034 1.1043,-0.035 1.21485,-0.1524 0.11055,-0.1178 0.24449,-0.8486 0.29687,-1.623 l 0.0937,-1.4082 h -4.34961 z m 19.98047,0 0.14649,1.7246 c 0.0801,0.948 0.14453,3.7852 0.14453,6.3066 v 4.586 h 3.46289 3.46094 l 0.14062,-0.8458 c 0.0768,-0.4646 0.13922,-1.1239 0.14063,-1.4648 l 0.004,-0.6191 h -1.80273 -1.80274 v -0.9004 -0.9024 h 1.46485 1.46484 v -1.4629 -1.4648 h -1.46484 -1.46485 v -0.7891 -0.789 h 1.56446 c 0.8599,0 1.62383,-0.096 1.69726,-0.2149 0.0734,-0.1188 0.19582,-0.879 0.27149,-1.6894 l 0.13672,-1.4746 h -3.78125 z M 168,1057.002 v 0 c -1.64249,0 -3.27485,0.09 -4.0293,0.291 -3.71149,0.9884 -6.06637,3.3284 -7.2207,7.1797 -1.21149,4.042 -1.21149,12.1455 0,16.1875 1.17699,3.9269 3.57883,6.3804 7.19336,7.3535 1.4914,0.4015 6.33667,0.4155 7.81445,0.02 5.98872,-1.5943 8.64892,-7.1157 8.25391,-17.1309 -0.13716,-3.4771 -0.44343,-5.358 -1.21484,-7.4727 -1.20915,-3.3145 -3.30817,-5.2248 -6.71094,-6.1113 -0.79128,-0.206 -2.44346,-0.3131 -4.08594,-0.3183 z m -123.542969,0.039 c -0.828264,0.025 -1.514481,0.081 -1.916015,0.1699 -4.146042,0.9148 -6.872704,4.095 -7.921875,9.2364 -0.376642,1.8456 -0.415706,2.6475 -0.341797,7.2617 0.07911,4.939 0.111144,5.2771 0.652344,7.0508 1.190125,3.9004 2.923179,6.0121 5.816406,7.0879 1.023029,0.3804 1.695518,0.4708 3.544922,0.4746 2.488001,0.01 3.328753,-0.2335 4.611328,-1.3164 0.756566,-0.6385 0.930422,-0.5986 1.298828,0.291 l 0.259766,0.6269 h 2.958984 2.958984 l 0.09375,-8.3515 c 0.05083,-4.5937 0.056,-8.424 0.01172,-8.5098 -0.04428,-0.085 -2.223968,-0.1543 -4.841797,-0.1543 h -4.757812 v 3.0098 3.0078 h 1.140625 1.140625 v 1.7422 c 0,1.9812 0.127065,1.8591 -2.177735,2.0957 -0.976886,0.1001 -1.400188,0.046 -1.966797,-0.2481 -1.72306,-0.8933 -2.17578,-2.732 -2.029296,-8.2597 0.110351,-4.1641 0.351213,-5.2173 1.425781,-6.2461 0.594022,-0.5712 0.721941,-0.6005 2.427734,-0.5977 1.289759,0 2.467033,0.1707 4.144531,0.5957 1.288527,0.3266 2.386815,0.5486 2.441407,0.4942 0.05457,-0.055 0.380393,-1.7235 0.722656,-3.709 0.342267,-1.9855 0.669513,-3.7646 0.728515,-3.9532 0.117309,-0.375 -0.632442,-0.7185 -2.916015,-1.3398 -1.253966,-0.341 -5.024973,-0.5341 -7.509767,-0.459 z m 37.919922,0.3711 0.945313,2.7539 c 0.519639,1.5144 2.149824,6.2843 3.623046,10.6016 l 2.677735,7.8496 v 4.6543 4.6523 h 4.253906 4.253906 v -4.5976 -4.5977 l 2.992191,-8.6308 c 1.64553,-4.7473 3.27944,-9.4081 3.63086,-10.3575 0.35143,-0.9493 0.63867,-1.8601 0.63867,-2.0234 0,-0.2487 -0.73683,-0.2969 -4.51758,-0.2969 h -4.515625 l -0.996094,4.8203 c -0.94608,4.5854 -1.079945,5.1159 -1.246093,4.9141 -0.03917,-0.048 -0.537025,-2.2325 -1.105469,-4.8574 l -1.033203,-4.7735 -4.800782,-0.057 z m 70.527347,0 -4.30469,0.055 -4.30664,0.057 v 5.8614 5.8632 h -2.74805 -2.75 v -5.914 -5.9141 h -4.35547 -4.35742 v 15.252 15.2519 h 4.35742 4.35547 v -5.707 -5.7051 h 2.77539 2.77539 l -0.0273,5.6543 -0.0254,5.6543 4.30664,0.057 4.30469,0.055 v -15.2597 z m 30.29101,0 v 15.2559 15.2558 h 3.83789 3.83789 v -7.0976 c 0,-3.9033 0.0792,-7.0069 0.17579,-6.8985 0.0966,0.1084 1.41833,2.998 2.93554,6.4219 1.51719,3.4239 2.90204,6.5277 3.07813,6.8984 l 0.32031,0.6758 h 4.11133 4.10937 v -15.2519 -15.252 h -3.83789 -3.83789 l -0.0117,7.3145 c -0.008,5.0299 -0.0775,7.2182 -0.22265,7.0039 -0.11613,-0.1712 -1.49967,-3.4404 -3.07227,-7.2637 l -2.85742,-6.9512 -4.2832,-0.057 z m -122.826169,0.01 v 15.252 15.2519 h 4.253906 4.253906 v -5.4648 -5.4649 l 0.457031,0.035 c 0.31646,0.023 0.509113,0.2198 0.623047,0.6387 0.09067,0.3333 0.75709,2.7539 1.480469,5.3789 l 1.314453,4.7715 4.724609,0.057 c 4.141157,0.049 4.710722,0.015 4.605469,-0.2578 -0.328252,-0.8555 -3.86914,-12.1789 -3.86914,-12.3731 0,-0.1235 0.416636,-0.7142 0.927734,-1.3125 2.106043,-2.4656 2.805972,-5.7031 2.09375,-9.6972 -0.493459,-2.7673 -1.747156,-4.6985 -3.693359,-5.6934 -2.016575,-1.0307 -2.841379,-1.1211 -10.263672,-1.1211 z m 46.976559,0 -0.0586,15.252 -0.0566,15.2519 h 4.37109 4.37305 v -4.9804 -4.9805 h 2.23633 c 5.38672,0 8.32976,-2.0134 9.39844,-6.4317 0.39769,-1.6441 0.35461,-6.0124 -0.0762,-7.623 -0.49428,-1.8481 -1.21798,-3.1607 -2.28515,-4.1445 -1.18454,-1.0921 -1.87388,-1.443 -3.82227,-1.9414 -1.39075,-0.3557 -2.3155,-0.4024 -7.82812,-0.4024 z m 8.62891,7.0078 0.98437,0.1426 c 0.54204,0.079 1.1872,0.2734 1.4336,0.4317 1.09196,0.7008 1.19756,5.5007 0.14453,6.539 -0.21914,0.2162 -0.85756,0.4432 -1.47461,0.5235 l -1.08789,0.1425 v -3.8906 z m 52.14062,0.4883 c 2.59708,0.011 3.23285,1.7663 3.2461,8.1309 0.007,3.3956 -0.24839,6.0869 -0.65039,6.8457 -0.10908,0.206 -0.4958,0.5576 -0.85938,0.7793 -0.70197,0.4281 -2.54769,0.5378 -3.38086,0.2011 -1.42537,-0.576 -1.81836,-2.2857 -1.81836,-7.8906 0,-4.847 0.22169,-6.3314 1.10157,-7.3164 0.49354,-0.5524 0.74687,-0.655 1.8164,-0.7324 0.19098,-0.015 0.3718,-0.018 0.54492,-0.018 z m -99.238277,0.1817 h 1.025391 c 0.78514,0 1.161868,0.1168 1.607422,0.5 0.543715,0.4676 0.585986,0.623 0.652343,2.3476 0.0929,2.4141 -0.226635,3.2579 -1.351562,3.5703 -0.437038,0.1213 -1.051428,0.22 -1.365235,0.2207 h -0.568359 v -3.3203 z"
         style="fill:#ffffff;fill-opacity:1;stroke-width:1.74059165" />
    </g>
  </g>
</svg>
