<?xml version="1.0" encoding="UTF-8" standalone="no"?>
<!-- Created with Inkscape (http://www.inkscape.org/) -->

<svg
   xmlns:dc="http://purl.org/dc/elements/1.1/"
   xmlns:cc="http://creativecommons.org/ns#"
   xmlns:rdf="http://www.w3.org/1999/02/22-rdf-syntax-ns#"
   xmlns:svg="http://www.w3.org/2000/svg"
   xmlns="http://www.w3.org/2000/svg"
   xmlns:sodipodi="http://sodipodi.sourceforge.net/DTD/sodipodi-0.dtd"
   xmlns:inkscape="http://www.inkscape.org/namespaces/inkscape"
   width="123.91695"
   height="100"
   viewBox="0 0 32.786358 26.458334"
   version="1.1"
   id="svg1502"
   sodipodi:docname="foot_fatg_c.svg"
   inkscape:version="0.92.4 (5da689c313, 2019-01-14)">
  <defs
     id="defs1496" />
  <sodipodi:namedview
     id="base"
     pagecolor="#ffffff"
     bordercolor="#666666"
     borderopacity="1.0"
     inkscape:pageopacity="0.0"
     inkscape:pageshadow="2"
     inkscape:zoom="1.1"
     inkscape:cx="58.684278"
     inkscape:cy="82.732302"
     inkscape:document-units="px"
     inkscape:current-layer="layer1"
     showgrid="false"
     units="px"
     fit-margin-top="0"
     fit-margin-left="0"
     fit-margin-right="0"
     fit-margin-bottom="0" />
  <metadata
     id="metadata1499">
    <rdf:RDF>
      <cc:Work
         rdf:about="">
        <dc:format>image/svg+xml</dc:format>
        <dc:type
           rdf:resource="http://purl.org/dc/dcmitype/StillImage" />
        <dc:title></dc:title>
      </cc:Work>
    </rdf:RDF>
  </metadata>
  <g
     inkscape:label="Layer 1"
     inkscape:groupmode="layer"
     id="layer1"
     transform="translate(-109.91227,-189.46445)">
    <path
       style="fill:#68153f;fill-opacity:1;stroke-width:0.32564402"
       d="m 138.11415,196.58173 -0.11218,0.60038 c -0.0616,0.33033 -0.21218,1.13696 -0.33436,1.79199 -0.12218,0.65501 -0.2128,1.20025 -0.20134,1.2117 0.0114,0.0114 0.22687,0.0208 0.47869,0.0208 0.32899,0 0.46264,-0.0152 0.47504,-0.053 0.01,-0.029 0.0379,-0.1568 0.0629,-0.28431 l 0.0457,-0.23203 h 0.31681 c 0.35206,0 0.32555,-0.0239 0.38917,0.35847 l 0.0318,0.18966 0.49404,0.0116 c 0.48028,0.0116 0.49404,0.009 0.49404,-0.0782 0,-0.0496 -0.1233,-0.76618 -0.27406,-1.59247 -0.15075,-0.8263 -0.28436,-1.56834 -0.29708,-1.64948 -0.0499,-0.31812 0.014,-0.29525 -0.8178,-0.29525 z m 2.19468,0 -0.0274,0.25907 c -0.0149,0.14251 -0.027,0.35121 -0.027,0.46372 v 0.20427 h 0.34971 0.34933 l -0.0175,1.28405 c -0.01,0.70611 -0.006,1.31306 0.007,1.34875 0.0205,0.0535 0.11422,0.065 0.53204,0.065 h 0.5072 v -1.34912 -1.34873 h 0.33106 0.33143 l 0.0263,-0.22109 c 0.0146,-0.1217 0.0268,-0.33042 0.027,-0.4637 l 3.8e-4,-0.24227 h -1.19491 z m -10.71871,0.0311 c -0.43197,0.01 -0.6449,0.0662 -0.93656,0.21194 -0.51993,0.25985 -0.88034,0.77482 -1.07943,1.54205 -0.13273,0.51147 -0.18248,1.66766 -0.10195,2.37044 0.0541,0.47228 0.22133,1.03904 0.39793,1.34875 0.21289,0.37336 0.61318,0.70077 1.00745,0.82401 0.22139,0.0692 0.98007,0.0778 1.17225,0.0131 0.0788,-0.0265 0.23515,-0.11316 0.34751,-0.19258 0.11237,-0.0794 0.2096,-0.13854 0.21596,-0.13119 0.006,0.007 0.0428,0.0752 0.0811,0.15056 l 0.0698,0.13704 h 0.60987 0.61025 v -1.72879 -1.72914 l -0.98005,0.0114 -0.97967,0.0114 -0.0117,0.60076 -0.0117,0.60036 h 0.23277 0.23314 v 0.35555 c 0,0.40067 0.0199,0.37863 -0.38479,0.42608 -0.34269,0.0402 -0.59999,-0.0783 -0.70963,-0.32668 -0.12223,-0.2769 -0.18424,-0.8653 -0.15676,-1.48724 0.0362,-0.82019 0.17273,-1.18685 0.47942,-1.28809 0.20485,-0.0676 0.64163,-0.0281 1.17115,0.10634 0.23125,0.0587 0.44126,0.1067 0.46664,0.1067 0.0572,0 0.33422,-1.5984 0.28539,-1.64656 -0.019,-0.0188 -0.20541,-0.0853 -0.41402,-0.14799 -0.32947,-0.099 -0.47373,-0.11663 -1.09843,-0.13375 -0.20375,-0.006 -0.37198,-0.008 -0.51597,-0.004 z m -8.3099,0.0764 -0.87443,0.0116 -0.87444,0.0112 -0.011,3.03477 c -0.006,1.66911 -0.002,3.0584 0.009,3.0874 0.0152,0.0398 0.23204,0.0526 0.8854,0.0526 h 0.8653 v -3.09874 z m 15.0149,0 -1.76569,0.0114 -1.76568,0.011 -0.0106,3.0874 -0.011,3.0874 h 1.70613 1.70612 l 0.0194,-0.095 c 0.0106,-0.0521 0.0293,-0.23723 0.0417,-0.41108 0.0123,-0.17386 0.0355,-0.45351 0.0512,-0.62157 l 0.0281,-0.30549 h -0.89088 -0.89125 v -0.48491 -0.48453 h 0.71658 0.71621 v -0.67456 -0.67419 h -0.71621 -0.71658 v -0.44252 -0.44252 h 0.82109 c 0.94906,0 0.84343,0.0654 0.88138,-0.54812 0.0122,-0.19705 0.0353,-0.50524 0.0512,-0.68515 z m -25.59256,0.002 v 3.09799 3.09798 h 0.86384 0.86384 v -1.2004 -1.20001 l 0.66396,-0.0116 0.6636,-0.0116 0.0117,-0.6636 0.0117,-0.66395 h -0.67565 -0.67529 v -0.44253 -0.44251 h 0.8178 0.8178 l 0.0234,-0.20024 c 0.0129,-0.11013 0.0347,-0.40897 0.0482,-0.66396 0.0136,-0.25501 0.0348,-0.51585 0.0471,-0.57955 l 0.0223,-0.11583 h -1.75216 z m 3.79301,0 v 3.09872 3.09907 l 0.87407,-0.0114 0.87444,-0.0116 0.009,-1.0959 c 0.008,-1.02678 0.0139,-1.09488 0.0844,-1.08124 0.0414,0.008 0.081,0.0199 0.0881,0.0267 0.013,0.0125 0.34658,1.19505 0.5145,1.82379 l 0.0928,0.34788 h 0.9435 c 0.51897,0 0.94387,-0.0122 0.94387,-0.0271 0,-0.0148 -0.18197,-0.60386 -0.40415,-1.30892 l -0.40379,-1.28186 0.18929,-0.20281 c 0.35614,-0.3808 0.4907,-0.76599 0.49148,-1.40686 9.9e-4,-0.81014 -0.21576,-1.35185 -0.66396,-1.65861 -0.41353,-0.28303 -0.60776,-0.30986 -2.24109,-0.30986 z m 7.71171,0 v 3.09799 3.09798 h 0.77943 0.7798 v -1.44156 c 0,-0.83875 0.0156,-1.42463 0.0373,-1.40138 0.0205,0.022 0.31742,0.67076 0.65957,1.44157 l 0.62194,1.40137 h 0.8368 0.83643 v -2.64891 c 0,-1.45683 0.0123,-2.85096 0.0274,-3.09796 l 0.0278,-0.4491 h -0.8072 -0.8072 v 1.48357 c 0,0.81664 -0.0161,1.46583 -0.0358,1.44375 -0.0197,-0.022 -0.26828,-0.60906 -0.55251,-1.30452 -0.28423,-0.69546 -0.55134,-1.34523 -0.5938,-1.44375 l -0.0775,-0.17905 h -0.86603 z m 16.64355,1.04362 c 0.0136,0.0137 0.1816,1.04283 0.18161,1.11269 0,0.034 -0.0645,0.0526 -0.18161,0.0526 h -0.18162 l 0.0855,-0.58795 c 0.0469,-0.32337 0.0903,-0.58319 0.0961,-0.57735 z m -22.60675,0.51596 0.21084,0.002 c 0.3041,0.002 0.40412,0.10042 0.46298,0.45569 0.0451,0.2722 -0.011,0.62352 -0.11876,0.74434 -0.0656,0.0736 -0.15426,0.11057 -0.31279,0.13044 -0.12169,0.0153 -0.22156,0.0205 -0.22217,0.0116 -6.2e-4,-0.009 -0.005,-0.31456 -0.0106,-0.67967 z m 23.53636,2.20565 -0.3402,0.012 -0.33984,0.012 -0.0143,1.16968 -0.0139,1.1697 h 0.3592 0.35957 v -0.44252 -0.44252 h 0.21048 0.21084 v 0.44252 0.44252 h 0.33728 0.33691 v -1.18029 -1.17993 h -0.33216 c -0.32883,0 -0.33238,0.002 -0.35482,0.11585 -0.0125,0.0637 -0.0121,0.27246 0.001,0.4637 l 0.0241,0.34751 h -0.22327 -0.22327 l 0.0241,-0.34751 c 0.0132,-0.19124 0.0137,-0.4009 0.001,-0.46554 z m -2.39164,0.003 v 0.3161 0.31607 h 0.21085 0.21048 v 0.86384 0.86422 h 0.35847 0.3581 v -0.88833 -0.88832 l 0.18965,0.0116 c 0.10428,0.006 0.20661,-0.006 0.22729,-0.0285 0.0207,-0.022 0.0454,-0.15877 0.0552,-0.30365 l 0.0179,-0.26311 h -0.81378 z m 3.73819,0 0.0274,0.32231 c 0.015,0.17736 0.0274,0.70855 0.0274,1.18029 v 0.85763 h 0.64751 0.64752 l 0.0263,-0.15822 c 0.0144,-0.0869 0.0264,-0.20992 0.0267,-0.2737 l 3.8e-4,-0.1162 h -0.33728 -0.33691 v -0.16846 -0.16846 h 0.27369 0.27406 v -0.27405 -0.27407 h -0.27406 -0.27369 v -0.14727 -0.14763 h 0.29233 c 0.16088,0 0.3038,-0.0183 0.31754,-0.0406 0.0137,-0.0222 0.0366,-0.16446 0.0508,-0.31608 l 0.0256,-0.27553 h -0.70744 z m -5.46295,3.6907 v 0 c -0.30729,0 -0.61306,0.0172 -0.75421,0.0548 -0.69438,0.18492 -1.13461,0.62274 -1.35058,1.34327 -0.22665,0.75622 -0.22665,2.27197 0,3.0282 0.22021,0.73465 0.66923,1.19372 1.34546,1.37578 0.27902,0.0751 1.18555,0.0777 1.46203,0.004 1.12041,-0.29827 1.61814,-1.33096 1.54424,-3.20469 -0.0256,-0.65052 -0.083,-1.00244 -0.22729,-1.39809 -0.22622,-0.62011 -0.61895,-0.97789 -1.25556,-1.14373 -0.14804,-0.0385 -0.4568,-0.0586 -0.76409,-0.0596 z m -23.11357,0.008 c -0.15496,0.005 -0.28335,0.0148 -0.35848,0.0314 -0.77567,0.17114 -1.2862,0.76616 -1.48248,1.72804 -0.0705,0.3453 -0.0774,0.49535 -0.0636,1.35861 0.0148,0.92403 0.0208,0.98732 0.12205,1.31915 0.22266,0.72972 0.54655,1.12482 1.08784,1.32609 0.1914,0.0712 0.31723,0.0885 0.66323,0.0892 0.46548,0.002 0.62316,-0.0437 0.86311,-0.24629 0.14154,-0.11945 0.17408,-0.11235 0.243,0.0541 l 0.0486,0.11731 h 0.5536 0.55361 l 0.0172,-1.56252 c 0.01,-0.85943 0.0105,-1.57569 0.002,-1.59174 -0.008,-0.0159 -0.41574,-0.0292 -0.9055,-0.0292 h -0.89052 v 0.56309 0.56274 h 0.2134 0.21377 v 0.32595 c 0,0.37067 0.0234,0.34783 -0.4078,0.39209 -0.18276,0.0188 -0.26197,0.009 -0.36797,-0.046 -0.32237,-0.16713 -0.40671,-0.51153 -0.3793,-1.5457 0.0206,-0.77904 0.0653,-0.97612 0.26638,-1.1686 0.11114,-0.10685 0.13545,-0.11229 0.45458,-0.11181 0.2413,0 0.4612,0.0323 0.77504,0.11181 0.24107,0.0611 0.44692,0.10271 0.45714,0.0925 0.0102,-0.0103 0.0708,-0.32247 0.13484,-0.69392 0.064,-0.37148 0.12562,-0.70433 0.13666,-0.73962 0.0219,-0.0702 -0.11833,-0.1348 -0.54556,-0.25102 -0.23461,-0.0638 -0.94015,-0.0996 -1.40502,-0.0855 z m 20.28892,0.0691 -0.80538,0.0107 -0.80537,0.0107 v 1.09663 1.0966 H 130.71414 130.2 v -1.10648 -1.10647 h -0.81524 -0.81524 v 2.85352 2.85353 h 0.81524 0.81524 v -1.06738 -1.06774 h 0.51889 0.51925 l -0.005,1.05788 -0.005,1.05788 0.80537,0.0107 0.80538,0.0107 v -2.85534 z m 5.66721,0 v 2.85425 2.85426 h 0.71804 0.71804 v -1.32793 c 0,-0.73024 0.0148,-1.31093 0.0329,-1.29063 0.0181,0.0203 0.265,0.5609 0.54886,1.20149 0.28384,0.64054 0.54331,1.22163 0.57625,1.29101 l 0.0599,0.12606 h 0.76883 0.7692 v -2.85353 -2.85352 h -0.71804 -0.71804 l -0.002,1.36847 c -0.001,0.94106 -0.0148,1.35047 -0.042,1.31038 -0.0217,-0.032 -0.28022,-0.6433 -0.57443,-1.35861 l -0.53497,-1.30087 -0.80099,-0.0103 z m -18.86197,0 0.17686,0.51488 c 0.0972,0.28332 0.40222,1.17612 0.67784,1.98384 l 0.50099,1.4686 v 0.87041 0.87042 h 0.79587 0.79587 v -0.86019 -0.86018 l 0.55945,-1.61477 c 0.30786,-0.88817 0.61356,-1.76018 0.67931,-1.93779 0.0657,-0.17763 0.11985,-0.34803 0.11985,-0.37858 0,-0.0465 -0.13787,-0.0555 -0.8452,-0.0555 h -0.84484 l -0.18636,0.90184 c -0.177,0.85786 -0.20205,0.9575 -0.23313,0.91975 -0.007,-0.009 -0.10048,-0.41806 -0.20683,-0.90916 l -0.1933,-0.89307 -0.89819,-0.0103 z m -2.82502,0.002 h -1.29248 v 2.85315 2.85354 h 0.79588 0.79587 v -1.02207 -1.0228 l 0.0855,0.007 c 0.0592,0.004 0.0952,0.0411 0.11657,0.1195 0.017,0.0624 0.14164,0.51525 0.27698,1.00635 l 0.24629,0.89308 0.88394,0.0103 c 0.77476,0.009 0.88097,0.003 0.86128,-0.0483 -0.0614,-0.16004 -0.72389,-2.2782 -0.72389,-2.31454 0,-0.023 0.0783,-0.13397 0.17394,-0.24591 0.39402,-0.46129 0.52461,-1.06667 0.39136,-1.81392 -0.0923,-0.51774 -0.32652,-0.87942 -0.69063,-1.06554 -0.37728,-0.19286 -0.532,-0.20975 -1.92062,-0.20975 z m 7.49648,0 -0.011,2.85315 -0.011,2.85354 h 0.81817 0.81779 v -0.93182 -0.93144 h 0.41877 c 1.00779,0 1.55844,-0.37706 1.75838,-1.20367 0.0744,-0.3076 0.066,-1.12488 -0.0146,-1.42621 -0.0925,-0.34576 -0.22751,-0.59134 -0.42717,-0.77542 -0.22161,-0.20431 -0.35059,-0.26962 -0.71511,-0.36285 -0.2602,-0.0665 -0.4336,-0.0753 -1.46495,-0.0753 z m 1.61404,1.3111 0.18453,0.0267 c 0.10141,0.0148 0.22212,0.0512 0.26822,0.0808 0.20429,0.13111 0.22404,1.02914 0.027,1.2234 -0.041,0.0404 -0.16045,0.0829 -0.27589,0.0979 l -0.2039,0.0263 v -0.72754 z m 9.75547,0.091 c 0.48589,0.002 0.60448,0.33048 0.60696,1.52121 0.001,0.63528 -0.0465,1.13919 -0.12169,1.28116 -0.0204,0.0385 -0.0924,0.10394 -0.16041,0.14542 -0.13134,0.0801 -0.47703,0.10062 -0.6329,0.0376 -0.26667,-0.10777 -0.3402,-0.4273 -0.3402,-1.47592 0,-0.9068 0.0415,-1.18456 0.20609,-1.36884 0.0923,-0.10335 0.13974,-0.12255 0.33984,-0.13703 0.0357,-0.003 0.0699,-0.004 0.10231,-0.004 z m -18.56672,0.0343 h 0.19184 c 0.14689,0 0.21775,0.0219 0.30111,0.0935 0.10172,0.0875 0.10926,0.1162 0.12168,0.43886 0.0174,0.45164 -0.042,0.60953 -0.2525,0.66798 -0.0818,0.0227 -0.19672,0.0414 -0.25543,0.0416 h -0.1067 v -0.62157 z"
       id="path3842"
       inkscape:connector-curvature="0" />
    <path
       style="fill:#3fbced;fill-opacity:1;stroke-width:1.23080838"
       d="M 71.388672 25.023438 C 69.755992 25.061233 68.951946 25.275344 67.849609 25.826172 C 65.884482 26.808358 64.521997 28.754454 63.769531 31.654297 C 63.267875 33.587487 63.078447 37.957067 63.382812 40.613281 C 63.587285 42.398352 64.219254 44.540304 64.886719 45.710938 C 65.691342 47.122137 67.20512 48.360383 68.695312 48.826172 C 69.532062 49.087715 72.39865 49.119535 73.125 48.875 C 73.422827 48.774843 74.014748 48.446579 74.439453 48.146484 C 74.864159 47.84639 75.231822 47.624526 75.255859 47.652344 C 75.278537 47.6788 75.417744 47.933811 75.5625 48.21875 L 75.826172 48.738281 L 78.130859 48.738281 L 80.4375 48.738281 L 80.4375 42.203125 L 80.4375 35.669922 L 76.732422 35.712891 L 73.03125 35.755859 L 72.986328 38.025391 L 72.941406 40.294922 L 73.822266 40.294922 L 74.703125 40.294922 L 74.703125 41.638672 C 74.703125 43.153053 74.777546 43.070699 73.248047 43.25 C 71.952803 43.401937 70.978878 42.952318 70.564453 42.013672 C 70.102481 40.967121 69.868795 38.743331 69.972656 36.392578 C 70.109475 33.292647 70.625975 31.906152 71.785156 31.523438 C 72.55943 31.267941 74.21148 31.417662 76.212891 31.925781 C 77.086944 32.14764 77.880638 32.330078 77.976562 32.330078 C 78.192751 32.330078 79.239242 26.287491 79.054688 26.105469 C 78.982876 26.034792 78.278682 25.783814 77.490234 25.546875 C 76.244956 25.172702 75.698999 25.105646 73.337891 25.041016 C 72.567774 25.018338 71.932886 25.010273 71.388672 25.025391 L 71.388672 25.023438 z M 0.001953125 25.314453 L 0.001953125 37.023438 L 0.001953125 48.732422 L 3.265625 48.732422 L 6.53125 48.732422 L 6.53125 44.197266 L 6.53125 39.660156 L 9.0390625 39.617188 L 11.548828 39.572266 L 11.591797 37.0625 L 11.634766 34.554688 L 9.0839844 34.554688 L 6.53125 34.554688 L 6.53125 32.880859 L 6.53125 31.208984 L 9.6210938 31.208984 L 12.712891 31.208984 L 12.800781 30.451172 C 12.849537 30.03497 12.931398 28.907139 12.982422 27.943359 C 13.033823 26.979542 13.115621 25.992785 13.162109 25.751953 L 13.246094 25.314453 L 6.6230469 25.314453 L 0.001953125 25.314453 z M 14.335938 25.314453 L 14.335938 37.025391 L 14.335938 48.738281 L 17.640625 48.695312 L 20.945312 48.652344 L 20.978516 44.509766 C 21.008752 40.628871 21.032371 40.372351 21.298828 40.423828 C 21.455301 40.454064 21.604025 40.500068 21.630859 40.525391 C 21.679993 40.572635 22.941476 45.041515 23.576172 47.417969 L 23.925781 48.732422 L 27.492188 48.732422 C 29.453686 48.732422 31.060547 48.686796 31.060547 48.630859 C 31.060547 48.574922 30.372976 46.348387 29.533203 43.683594 L 28.005859 38.837891 L 28.722656 38.072266 C 30.068735 36.632908 30.57713 35.176092 30.580078 32.753906 C 30.58382 29.691884 29.764297 27.645736 28.070312 26.486328 C 26.50729 25.416533 25.772939 25.314453 19.599609 25.314453 L 14.335938 25.314453 z M 39.980469 25.314453 L 36.673828 25.357422 L 33.369141 25.400391 L 33.328125 36.871094 C 33.305448 43.179579 33.319753 48.429494 33.361328 48.539062 C 33.418777 48.689488 34.239517 48.738281 36.708984 48.738281 L 39.978516 48.738281 L 39.978516 37.027344 L 39.980469 25.314453 z M 43.482422 25.314453 L 43.482422 37.023438 L 43.482422 48.732422 L 46.431641 48.732422 L 49.376953 48.732422 L 49.376953 43.283203 C 49.376953 40.113124 49.437516 37.898152 49.519531 37.986328 C 49.597012 38.069478 50.716562 40.522211 52.009766 43.435547 L 54.361328 48.732422 L 57.523438 48.732422 L 60.685547 48.732422 L 60.685547 38.720703 C 60.685547 33.214423 60.731992 27.945338 60.789062 27.011719 L 60.892578 25.314453 L 57.841797 25.314453 L 54.792969 25.314453 L 54.792969 30.921875 C 54.792969 34.008388 54.73266 36.462283 54.658203 36.378906 C 54.583746 36.295757 53.644605 34.075851 52.570312 31.447266 C 51.49602 28.818755 50.484697 26.362593 50.324219 25.990234 L 50.033203 25.314453 L 46.757812 25.314453 L 43.482422 25.314453 z M 96.730469 25.314453 L 90.056641 25.355469 L 83.382812 25.396484 L 83.34375 37.066406 L 83.300781 48.734375 L 89.75 48.734375 L 96.199219 48.734375 L 96.271484 48.376953 C 96.311547 48.179662 96.383199 47.481327 96.429688 46.824219 C 96.476176 46.167072 96.564086 45.109872 96.623047 44.474609 L 96.730469 43.318359 L 93.361328 43.318359 L 89.992188 43.318359 L 89.992188 41.486328 L 89.992188 39.654297 L 92.701172 39.654297 L 95.408203 39.654297 L 95.408203 37.105469 L 95.408203 34.556641 L 92.701172 34.556641 L 89.992188 34.556641 L 89.992188 32.884766 L 89.992188 31.210938 L 93.095703 31.210938 C 96.682815 31.210938 96.284301 31.459365 96.427734 29.140625 C 96.473845 28.395794 96.561377 27.230832 96.621094 26.550781 L 96.730469 25.314453 z M 20.945312 31.208984 L 21.742188 31.216797 C 22.891541 31.224356 23.269687 31.5967 23.492188 32.939453 C 23.662643 33.968316 23.449873 35.295273 23.042969 35.751953 C 22.795032 36.030126 22.460534 36.169041 21.861328 36.244141 C 21.401397 36.301967 21.023828 36.324653 21.021484 36.291016 C 21.019141 36.257 21.001634 35.100646 20.980469 33.720703 L 20.945312 31.208984 z "
       transform="matrix(0.26458333,0,0,0.26458333,109.91227,189.46445)"
       id="path67" />
    <path
       style="fill:#68cce3;fill-opacity:1;stroke-width:1.23080838"
       d="M 104.52148 25.314453 L 104.09766 27.583984 C 103.86484 28.832551 103.29577 31.879765 102.83398 34.355469 C 102.37216 36.831173 102.03094 38.892196 102.07422 38.935547 C 102.11731 38.978633 102.93101 39.015625 103.88281 39.015625 C 105.12624 39.015625 105.63083 38.959272 105.67773 38.816406 C 105.71175 38.7068 105.82191 38.222162 105.91602 37.740234 L 106.08594 36.865234 L 107.28516 36.865234 C 108.61578 36.865234 108.51537 36.773572 108.75586 38.21875 L 108.87695 38.935547 L 110.74414 38.980469 C 112.55941 39.024311 112.61133 39.013169 112.61133 38.683594 C 112.61133 38.496129 112.14594 35.789115 111.57617 32.666016 C 111.00637 29.542954 110.5012 26.736357 110.45312 26.429688 C 110.26454 25.227382 110.50344 25.314453 107.35938 25.314453 L 104.52148 25.314453 z M 112.81641 25.314453 L 112.71289 26.292969 C 112.65658 26.831514 112.61133 27.621603 112.61133 28.046875 L 112.61133 28.820312 L 113.93164 28.820312 L 115.25391 28.820312 L 115.1875 33.671875 C 115.1497 36.340562 115.16571 38.63464 115.21484 38.769531 C 115.29232 38.972114 115.64537 39.015625 117.22461 39.015625 L 119.14062 39.015625 L 119.14062 33.917969 L 119.14062 28.820312 L 120.39258 28.820312 L 121.64648 28.820312 L 121.74609 27.982422 C 121.80127 27.522416 121.8469 26.736271 121.84766 26.232422 L 121.84961 25.314453 L 117.33203 25.314453 L 112.81641 25.314453 z M 107.30469 29.671875 C 107.35609 29.723655 107.99211 33.612915 107.99219 33.876953 C 107.99219 34.005457 107.74941 34.076172 107.30664 34.076172 L 106.62109 34.076172 L 106.94336 31.853516 C 107.12062 30.63133 107.28277 29.64984 107.30469 29.671875 z M 110.82031 39.958984 L 109.53516 40.003906 L 108.24805 40.050781 L 108.19531 44.470703 L 108.14258 48.892578 L 109.50195 48.892578 L 110.85938 48.892578 L 110.85938 47.21875 L 110.85938 45.544922 L 111.65625 45.544922 L 112.45312 45.544922 L 112.45312 47.21875 L 112.45312 48.892578 L 113.72656 48.892578 L 115 48.892578 L 115 44.431641 L 115 39.970703 L 113.74414 39.970703 C 112.50128 39.970703 112.48719 39.97798 112.40234 40.408203 C 112.3551 40.649337 112.35825 41.437322 112.40625 42.160156 L 112.49805 43.474609 L 111.6543 43.474609 L 110.81055 43.474609 L 110.90039 42.160156 C 110.95028 41.437322 110.9523 40.646577 110.9043 40.402344 L 110.82031 39.958984 z M 101.78125 39.96875 L 101.78125 41.164062 L 101.78125 42.359375 L 102.57617 42.359375 L 103.37305 42.359375 L 103.37305 45.625 L 103.37305 48.890625 L 104.72656 48.890625 L 106.08008 48.890625 L 106.08008 45.533203 L 106.08008 42.175781 L 106.79688 42.220703 C 107.191 42.24338 107.57809 42.194541 107.65625 42.113281 C 107.73449 42.030132 107.8282 41.512459 107.86523 40.964844 L 107.93164 39.96875 L 104.85547 39.96875 L 101.78125 39.96875 z M 115.91016 39.96875 L 116.01367 41.189453 C 116.07036 41.859828 116.11523 43.865521 116.11523 45.648438 L 116.11523 48.890625 L 118.56445 48.890625 L 121.01172 48.890625 L 121.11133 48.292969 C 121.16575 47.964528 121.2098 47.498871 121.21094 47.257812 L 121.21289 46.820312 L 119.9375 46.820312 L 118.66406 46.820312 L 118.66406 46.183594 L 118.66406 45.544922 L 119.69922 45.544922 L 120.73438 45.544922 L 120.73438 44.509766 L 120.73438 43.474609 L 119.69922 43.474609 L 118.66406 43.474609 L 118.66406 42.916016 L 118.66406 42.359375 L 119.76953 42.359375 C 120.37758 42.359375 120.91877 42.290937 120.9707 42.207031 C 121.02248 42.123126 121.10844 41.584771 121.16211 41.011719 L 121.25781 39.96875 L 118.58398 39.96875 L 115.91016 39.96875 z "
       transform="matrix(0.26458333,0,0,0.26458333,109.91227,189.46445)"
       id="path55" />
    <path
       style="fill:#ea098b;fill-opacity:1;stroke-width:1.23080838"
       d="M 94.580078 53.669922 C 93.418667 53.669922 92.263949 53.732512 91.730469 53.875 C 89.106003 54.57391 87.441265 56.229786 86.625 58.953125 C 85.768332 61.811279 85.768332 67.540283 86.625 70.398438 C 87.45729 73.175255 89.155032 74.911509 91.710938 75.599609 C 92.765538 75.883452 96.191364 75.891832 97.236328 75.613281 C 101.47106 74.485924 103.35356 70.581928 103.07422 63.5 C 102.97708 61.041266 102.76015 59.712167 102.21484 58.216797 C 101.3598 55.873036 99.874911 54.521366 97.46875 53.894531 C 96.909229 53.749019 95.741527 53.673701 94.580078 53.669922 z M 8.6660156 53.691406 C 8.1550861 53.682288 7.6580161 53.684037 7.21875 53.697266 L 7.2207031 53.695312 C 6.6350275 53.71421 6.1491525 53.753666 5.8652344 53.816406 C 2.9334926 54.463272 1.0055553 56.712053 0.26367188 60.347656 C -0.0027848176 61.652727 -0.030673105 62.219594 0.021484375 65.482422 C 0.077421383 68.974894 0.09974471 69.214514 0.48242188 70.46875 C 1.3239715 73.226785 2.5498449 74.719725 4.5957031 75.480469 C 5.3191047 75.749571 5.7938082 75.813761 7.1015625 75.816406 C 8.8608948 75.823965 9.4563458 75.65046 10.363281 74.884766 C 10.898273 74.433301 11.020765 74.462543 11.28125 75.091797 L 11.464844 75.533203 L 13.558594 75.533203 L 15.650391 75.533203 L 15.716797 69.628906 C 15.754592 66.380629 15.756735 63.67199 15.724609 63.611328 C 15.694373 63.551234 14.151918 63.501953 12.300781 63.501953 L 8.9355469 63.501953 L 8.9355469 65.630859 L 8.9355469 67.757812 L 9.7421875 67.757812 L 10.548828 67.757812 L 10.548828 68.988281 C 10.548828 70.389201 10.639649 70.303383 9.0097656 70.470703 C 8.3189814 70.54138 8.0178552 70.504308 7.6171875 70.294922 C 6.3987812 69.663249 6.0799969 68.363828 6.1835938 64.455078 C 6.261452 61.510562 6.4315322 60.766584 7.1914062 60.039062 C 7.6114629 59.635182 7.7020047 59.613269 8.9082031 59.615234 C 9.8202409 59.615234 10.651724 59.736448 11.837891 60.037109 C 12.749059 60.268039 13.525864 60.425043 13.564453 60.386719 C 13.603004 60.34779 13.834282 59.167653 14.076172 57.763672 C 14.318062 56.359653 14.550109 55.10213 14.591797 54.96875 C 14.674946 54.703427 14.144062 54.460817 12.529297 54.021484 C 11.864261 53.840634 10.198804 53.718761 8.6660156 53.691406 z M 34.033203 53.958984 L 34.703125 55.90625 C 35.070495 56.977141 36.221921 60.349506 37.263672 63.402344 L 39.158203 68.953125 L 39.158203 72.244141 L 39.158203 75.533203 L 42.166016 75.533203 L 45.173828 75.533203 L 45.173828 72.283203 L 45.173828 69.03125 L 47.289062 62.927734 C 48.452628 59.570834 49.608956 56.276826 49.857422 55.605469 C 50.106115 54.934187 50.308594 54.289293 50.308594 54.173828 C 50.308594 53.99808 49.788683 53.964844 47.115234 53.964844 L 43.921875 53.964844 L 43.216797 57.373047 C 42.54782 60.615466 42.453443 60.990371 42.335938 60.847656 C 42.309481 60.813641 41.95664 59.268235 41.554688 57.412109 L 40.824219 54.037109 L 37.427734 53.996094 L 34.033203 53.958984 z M 83.90625 53.958984 L 80.861328 53.998047 L 77.816406 54.037109 L 77.816406 58.181641 L 77.816406 62.328125 L 75.873047 62.328125 L 73.927734 62.328125 L 73.927734 58.146484 L 73.927734 53.964844 L 70.847656 53.964844 L 67.767578 53.964844 L 67.767578 64.75 L 67.767578 75.535156 L 70.847656 75.535156 L 73.927734 75.535156 L 73.927734 71.498047 L 73.927734 67.464844 L 75.890625 67.464844 L 77.853516 67.464844 L 77.833984 71.462891 L 77.816406 75.460938 L 80.861328 75.501953 L 83.904297 75.541016 L 83.904297 64.75 L 83.90625 53.958984 z M 105.32422 53.958984 L 105.32422 64.746094 L 105.32422 75.533203 L 108.03906 75.533203 L 110.75195 75.533203 L 110.75195 70.515625 C 110.75195 67.755512 110.80854 65.56007 110.87695 65.636719 C 110.94536 65.713443 111.88031 67.756645 112.95312 70.177734 C 114.02598 72.598862 115.00437 74.794493 115.12891 75.056641 L 115.35547 75.533203 L 118.26367 75.533203 L 121.16797 75.533203 L 121.16797 64.748047 L 121.16797 53.962891 L 118.45508 53.962891 L 115.74023 53.962891 L 115.73242 59.136719 C 115.72864 62.693443 115.67898 64.23945 115.57617 64.087891 C 115.49416 63.966946 114.51439 61.656659 113.40234 58.953125 L 111.38281 54.037109 L 108.35352 53.996094 L 105.32422 53.958984 z M 18.472656 53.966797 L 18.472656 64.75 L 18.472656 75.535156 L 21.480469 75.535156 L 24.488281 75.535156 L 24.488281 71.671875 L 24.488281 67.806641 L 24.810547 67.833984 C 25.034295 67.849102 25.1716 67.988841 25.251953 68.285156 C 25.316205 68.520999 25.787307 70.231689 26.298828 72.087891 L 27.228516 75.462891 L 30.568359 75.503906 C 33.496662 75.537922 33.900591 75.513824 33.826172 75.320312 C 33.594109 74.7154 31.089844 66.709576 31.089844 66.572266 C 31.089844 66.484959 31.384884 66.067612 31.746094 65.644531 C 33.235341 63.901073 33.730185 61.611437 33.226562 58.787109 C 32.877713 56.830297 31.991436 55.46524 30.615234 54.761719 C 29.189256 54.032875 28.605863 53.96875 23.357422 53.96875 L 18.472656 53.966797 z M 51.689453 53.966797 L 51.648438 64.75 L 51.607422 75.535156 L 54.699219 75.535156 L 57.791016 75.535156 L 57.791016 72.013672 L 57.791016 68.492188 L 59.373047 68.492188 C 63.182093 68.492188 65.263853 67.06763 66.019531 63.943359 C 66.300728 62.780777 66.269096 59.693572 65.964844 58.554688 C 65.615237 57.247878 65.10423 56.318707 64.349609 55.623047 C 63.51199 54.850814 63.024198 54.602403 61.646484 54.25 C 60.663051 53.998661 60.009419 53.966797 56.111328 53.966797 L 51.689453 53.966797 z M 57.791016 58.921875 L 58.488281 59.021484 C 58.871563 59.077421 59.327755 59.216251 59.501953 59.328125 C 60.274111 59.823697 60.348309 63.216961 59.603516 63.951172 C 59.448555 64.103865 58.996856 64.265573 58.560547 64.322266 L 57.791016 64.421875 L 57.791016 61.671875 L 57.791016 58.921875 z M 94.662109 59.267578 C 96.498582 59.275137 96.947658 60.515115 96.957031 65.015625 C 96.960811 67.416721 96.780239 69.32088 96.496094 69.857422 C 96.418991 70.002934 96.145604 70.251428 95.888672 70.408203 C 95.392269 70.710943 94.0872 70.788967 93.498047 70.550781 C 92.49016 70.143462 92.212891 68.934029 92.212891 64.970703 C 92.212891 61.543276 92.370077 60.493404 92.992188 59.796875 C 93.341037 59.406261 93.519107 59.334024 94.275391 59.279297 C 94.41032 59.267958 94.539842 59.267578 94.662109 59.267578 z M 24.488281 59.394531 L 25.212891 59.394531 C 25.768103 59.394531 26.034548 59.477433 26.349609 59.748047 C 26.734063 60.078756 26.763605 60.188701 26.810547 61.408203 C 26.876311 63.115265 26.650946 63.71268 25.855469 63.933594 C 25.546303 64.019389 25.112521 64.089466 24.890625 64.089844 L 24.488281 64.089844 L 24.488281 61.742188 L 24.488281 59.394531 z "
       transform="matrix(0.26458333,0,0,0.26458333,109.91227,189.46445)"
       id="path41" />
  </g>
</svg>
