<?xml version="1.0" encoding="UTF-8" standalone="no"?>
<!-- Created with Inkscape (http://www.inkscape.org/) -->

<svg
   xmlns:dc="http://purl.org/dc/elements/1.1/"
   xmlns:cc="http://creativecommons.org/ns#"
   xmlns:rdf="http://www.w3.org/1999/02/22-rdf-syntax-ns#"
   xmlns:svg="http://www.w3.org/2000/svg"
   xmlns="http://www.w3.org/2000/svg"
   xmlns:sodipodi="http://sodipodi.sourceforge.net/DTD/sodipodi-0.dtd"
   xmlns:inkscape="http://www.inkscape.org/namespaces/inkscape"
   width="134.5443"
   height="100"
   viewBox="0 0 35.598177 26.458334"
   version="1.1"
   id="svg1502"
   sodipodi:docname="footer_fringe_c.svg"
   inkscape:version="0.92.4 (5da689c313, 2019-01-14)">
  <defs
     id="defs1496">
    <clipPath
       id="clipPath8280"
       clipPathUnits="userSpaceOnUse">
      <path
         inkscape:connector-curvature="0"
         id="path8282"
         d="M 0,77.837 H 328.653 V 0.06 H 0 Z" />
    </clipPath>
  </defs>
  <sodipodi:namedview
     id="base"
     pagecolor="#ffffff"
     bordercolor="#666666"
     borderopacity="1.0"
     inkscape:pageopacity="0.0"
     inkscape:pageshadow="2"
     inkscape:zoom="0.66"
     inkscape:cx="62.87071"
     inkscape:cy="73.100682"
     inkscape:document-units="px"
     inkscape:current-layer="layer1"
     showgrid="false"
     units="px"
     fit-margin-top="0"
     fit-margin-left="0"
     fit-margin-right="0"
     fit-margin-bottom="0" />
  <metadata
     id="metadata1499">
    <rdf:RDF>
      <cc:Work
         rdf:about="">
        <dc:format>image/svg+xml</dc:format>
        <dc:type
           rdf:resource="http://purl.org/dc/dcmitype/StillImage" />
        <dc:title></dc:title>
      </cc:Work>
    </rdf:RDF>
  </metadata>
  <g
     inkscape:label="Layer 1"
     inkscape:groupmode="layer"
     id="layer1"
     transform="translate(-108.50636,-189.46445)">
    <g
       style="stroke-width:1.29575443"
       id="g6096"
       inkscape:label="Fringe 2019 – Portrait Poster Frames"
       transform="matrix(0.24945645,0,0,-0.24945645,16.182039,222.65413)">
      <path
         style="fill:#ec008c;fill-opacity:1;fill-rule:nonzero;stroke:none;stroke-width:1.88558102"
         d="m 615.70898,1490.2695 c -1.05583,-0.016 -2.15718,0.055 -2.61718,0.062 -1.04267,0.016 -2.10453,-0.017 -3.14453,0.043 -1.524,0.088 -2.16179,1.3689 -3.06446,2.5195 -1.08666,1.3854 -2.12399,2.7612 -2.86133,4.3692 -2.832,6.1786 -2.89475,12.5142 -1.21875,19.0195 1.04534,4.0587 2.80208,7.8768 3.69141,11.9941 0.436,2.0187 1.11304,4.5832 1.23438,6.6446 0.0267,0.4426 0.31656,3.8054 -0.38477,3.9121 -0.548,0.083 -1.41981,-2.4121 -2.00781,-3.9121 -0.78934,-2.0107 -1.54767,-4.2797 -2.625,-6.1504 -1.97334,-3.432 -4.33348,-5.9978 -6.38282,-9.3418 -1.44266,-2.3547 -2.41333,-4.0341 -3.13867,-6.6914 -0.47066,-1.7227 -0.85088,-4.2796 -0.82422,-6.0742 0.016,-1.068 0.37269,-3.3197 -0.33398,-4.1797 -0.41733,-0.508 -2.71843,-0.4766 -3.25977,-0.4766 -1.13866,0 -1.89711,0.039 -3.0371,0.039 -1.41334,0 -4.2215,-0.3166 -5.29883,0.6367 -1.27334,1.1267 -2.01323,3.7924 -2.58789,5.2871 -1.33467,3.468 -2.02279,7.1557 -2.05078,10.8731 -0.0467,6.2933 2.49227,11.5291 5.3496,16.9531 2.844,5.4026 4.04367,12.4738 1.48633,18.2285 -0.97733,2.1973 -1.90801,4.4305 -2.77734,6.6719 -0.59867,1.548 -0.82031,3.1011 -0.82031,4.7597 0,1.064 -0.009,2.1294 0.004,3.1934 0.012,0.928 -0.0912,0.9435 0.60742,1.2422 0.88267,0.3773 2.6906,0 3.69727,0 1.07333,0 2.14737,0 3.2207,0 0.53867,0 2.07362,0.309 2.48828,-0.127 0.41334,-0.4333 0.0932,-1.7651 0.0879,-2.3437 -0.0333,-3.1547 1.06277,-5.5789 2.13477,-8.4922 2.564,-6.9733 3.1987,-14.9328 0.33203,-21.9395 -2.036,-4.98 -3.89987,-8.0423 -5.0332,-13.3183 -0.10933,-0.5107 -0.53733,-2.6922 0,-2.8828 0.43733,-0.1534 1.93039,3.3964 2.65039,4.4258 1.17067,1.6719 2.60163,3.93 4.04297,5.998 4.14266,5.944 6.73012,11.7678 6.57812,18.7852 -0.0667,3.1066 -0.48754,6.2402 -1.29687,9.2402 -0.76267,2.8333 -1.89696,5.6766 -1.51563,8.6699 0.13067,1.0227 0.20215,1.7814 1.27149,1.9961 1.03066,0.2067 2.34405,0 3.38672,0 l 3.38671,-0.01 c 0.82267,0 2.42162,0.3034 3.12696,-0.061 1.07733,-0.5573 1.63141,-3.1958 1.96875,-4.3398 0.32533,-1.108 0.67948,-2.2603 1.13281,-3.3203 1.99467,-4.668 3.93693,-9.089 4.68359,-14.1543 0.98667,-6.6973 0.68997,-14.2805 -0.7207,-20.8965 -1.42267,-6.6773 -4.5513,-12.3009 -4.41797,-19.2422 0.0547,-2.8373 0.84286,-5.9861 1.99219,-8.5781 0.75867,-1.7133 1.81989,-2.9876 2.94922,-4.4609 0.56667,-0.74 3.161,-3.0412 2.26367,-4.1172 -0.282,-0.3387 -1.29182,-0.4412 -2.34766,-0.4571 z m -56.16015,0.6172 c -1.45334,0 -2.28321,1.0212 -2.28321,2.3106 10e-6,1.472 1.03799,2.2832 2.33399,2.2832 0.69067,0 1.3903,-0.2384 1.79297,-0.541 v -2.0762 h -1.88672 v 0.9629 h 0.75976 v 0.414 c -0.23999,0.108 -0.43401,0.1465 -0.66601,0.1465 -0.69333,0 -1.08203,-0.5481 -1.08203,-1.1894 0,-0.7614 0.48325,-1.1836 1.03125,-1.1836 0.46533,0 0.79281,0.2213 0.99414,0.416 l 0.84961,-0.7109 c -0.45334,-0.54 -1.19042,-0.8321 -1.84375,-0.8321 z m 19.40039,0 c -1.372,0 -2.32227,0.944 -2.32227,2.3027 0,1.3587 0.95027,2.2949 2.32227,2.2949 1.35867,0 2.32031,-0.9296 2.32031,-2.2949 0,-1.3707 -0.96164,-2.3027 -2.32031,-2.3027 z m -79.19727,0.068 1.39063,4.4668 h 1.08789 l 0.69726,-2.7168 h 0.0137 l 0.66015,2.7168 h 1.08789 l 1.39063,-4.4668 h -1.27735 l -0.64648,2.4922 h -0.0195 l -0.58594,-2.4922 h -1.25586 l -0.59961,2.4922 h -0.0195 l -0.64648,-2.4922 h -1.27735 z m 12.36914,0 v 4.4668 h 3.09961 v -1.0644 h -1.94336 v -0.627 h 1.41602 v -1.039 h -1.41602 v -0.6739 h 1.8125 v -1.0625 z m 9.28321,0 v 4.4668 h 2.97656 v -1.0644 h -1.77539 v -3.4024 z m 9.08398,0 v 4.4668 h 2.97461 v -1.0644 h -1.77344 v -3.4024 z m 9.10742,0 v 4.4668 h 1.21485 v -4.4668 z m 7.57227,0 v 4.4668 h 1.18945 v -2.4453 h 0.0117 l 1.4668,2.4453 h 1.23828 v -4.4668 h -1.19336 v 2.5157 h -0.0195 l -1.49219,-2.5157 h -1.20117 z m 40.28515,0 v 4.4668 h 1.18946 v -2.4453 h 0.0117 l 1.46679,2.4453 h 1.24024 v -4.4668 H 590.166 v 2.5157 h -0.0195 l -1.49218,-2.5157 h -1.20118 z m -20.02929,0 v 1.0625 h 1.13281 v 3.4023 h 1.18945 v -3.4023 h 1.13282 v -1.0625 z m 60.14062,0.164 v 4.4668 h 1.18946 v -2.4472 h 0.0137 l 1.46484,2.4472 h 1.24024 v -4.4668 h -1.19532 v 2.5157 h -0.0195 l -1.49023,-2.5157 h -1.20313 z m 10.17383,0 v 1.0645 h 1.74805 v 0.018 l -1.80469,2.4551 v 0.9296 h 3.40234 v -1.0625 h -1.875 v -0.01 l 1.875,-2.4981 v -0.9004 h -3.3457 z m -58.78906,0.8848 c 0.63467,0 1.06836,0.5289 1.06836,1.1836 0,0.6613 -0.43369,1.1816 -1.06836,1.1816 -0.62933,0 -1.07617,-0.5203 -1.07617,-1.1816 0,-0.66 0.44684,-1.1836 1.07617,-1.1836 z m 89.54687,10.0469 c -2.5095,0.01 -5.01598,0.07 -7.58398,0.291 -3.56667,0.3067 -4.28305,4.3508 -4.76172,7.1895 -0.468,2.7746 -0.89204,5.5954 -0.9707,8.4101 -0.20267,7.2453 3.03944,13.0169 5.52343,19.6035 1.404,3.7214 1.7595,6.8056 1.6875,10.8242 -0.06,3.392 -1.06332,6.9939 -2.11132,10.1446 -0.68,2.0453 -1.23944,4.3141 -1.38477,6.4687 -0.0893,1.308 -0.11672,4.2884 1.22461,4.9004 0.81467,0.372 2.91399,0.01 3.83398,0.01 h 4.1836 c 1.76933,0 3.53926,0 5.30859,0 2.448,-0.01 4.89575,-0.027 7.34375,-0.022 1.19867,0 2.17762,0.2003 2.48828,-1.2343 0.27467,-1.2734 0.28757,-2.856 0.35157,-4.168 0.0493,-1.0053 0.48355,-3.6925 -0.78711,-3.9805 -0.45734,-0.104 -1.32664,0.025 -1.80664,0.076 -0.83334,0.089 -1.66986,0.1368 -2.50586,0.1875 -3.47867,0.2093 -5.65558,-0.1041 -9.12891,0.1719 0.62133,-2.4 1.58677,-5.0124 1.77344,-7.5391 0.396,-5.3333 0.20419,-9.6798 -0.50781,-14.8398 0.85066,-0.464 1.94891,-2.0774 6.26757,-0.6094 1.33067,0.4533 3.2428,0.5144 3.4668,-1.2949 0.21867,-1.764 0.0997,-3.9652 -0.0977,-5.7305 -0.0867,-0.7627 -0.50457,-2.7364 -1.39257,-2.6777 -2.82934,0.1866 -3.65175,-1.3377 -6.84375,-0.5137 -1.17334,0.3027 -4.32244,1.9562 -5.89844,0.1602 -0.648,-0.7387 -0.88874,-1.8338 -1.19141,-2.7618 -0.74666,-2.2893 -0.88608,-4.6373 -0.83008,-7.0293 0.0293,-1.232 0.15369,-2.4575 0.42969,-3.6601 0.16534,-0.7187 0.43709,-2.4694 0.98242,-2.9707 0.58134,-0.5347 2.07802,-0.218 2.80469,-0.1953 1.42533,0.044 2.85139,0.098 4.27539,0.1406 3.17067,0.095 6.94161,0.5664 7.84961,-3.0176 0.27867,-1.1 0.90677,-2.0856 1.27344,-3.1562 0.19067,-0.556 1.11857,-2.2773 0.36523,-2.8106 -0.74,-0.524 -5.02325,-0.3183 -6.03125,-0.3183 -2.578,0 -5.09011,-0.05 -7.59961,-0.043 z m -45.15234,0.07 c -0.58529,0.015 -1.12997,0.1059 -1.54297,0.3574 -0.87867,0.536 -1.11047,1.8711 -1.36914,2.7871 -1.012,3.6 -1.65929,7.4189 -1.14062,11.1563 0.38,2.7426 1.32806,5.4518 2.30273,8.0371 1.476,3.9147 3.25378,7.7642 4.28711,11.8242 0.74533,2.924 1.09522,5.9879 0.83789,9.0039 -0.204,2.4 -1.02991,4.6849 -1.75391,6.9649 -1.18933,3.7466 -3.05326,7.5992 -3.55859,11.5058 -0.21867,1.6934 -1.0226,5.7575 1.30273,6.0762 2.04,0.2813 4.31696,0.01 6.37696,0.01 h 5.43359 c 4.06,0 8.12164,0 12.18164,0 1.22,0 3.07169,0.2708 4.17969,-0.4199 0.88133,-0.5493 1.35407,-1.7839 1.69141,-2.7266 1.71866,-4.796 2.52271,-10.0773 2.74804,-15.1386 0.288,-6.504 -0.70262,-12.5755 -2.25195,-18.8555 -0.29467,-1.1933 -0.2608,-2.7267 -1.7168,-2.9707 -1.01866,-0.1707 -2.34279,0.1353 -3.32812,0.3887 -1.34,0.344 -2.43049,0.9843 -3.78516,1.2617 -2.848,0.5826 -4.72795,-0.7118 -5.11328,0.1015 -0.808,1.7107 0.44399,5.1875 0.72266,7.0782 0.21866,1.4933 0.3987,2.6514 2.10937,2.6914 1.344,0.031 3.08859,-1.3461 3.66992,0.4472 0.472,1.4574 0.30884,3.5865 0.32617,5.1211 0.0187,1.6814 -0.0925,3.3607 -0.3125,5.0274 -0.32933,2.5133 -0.72651,7.1065 -3.33984,8.3398 -2.084,0.9827 -5.62642,0.7691 -7.84375,0.3438 -1.13467,-0.2187 -2.0026,-0.3573 -2.19726,-1.5586 -0.15867,-0.9774 0.13404,-2.0847 0.35937,-3.0274 0.54667,-2.284 1.5885,-4.3882 2.17383,-6.6562 1.35733,-5.248 1.54395,-10.6203 0.11328,-15.8789 -1.22133,-4.4894 -3.19972,-8.7773 -4.65039,-13.1973 -0.41333,-1.2613 -0.8299,-2.5164 -1.11524,-3.8164 -0.28666,-1.2987 -0.71986,-3.0653 -0.0332,-4.1973 0.69867,-1.1533 3.24058,-1.2393 4.39258,-1.3047 1.76,-0.1 4.2637,-0.097 4.5957,2.2989 0.23467,1.692 -0.13066,2.4336 0,4.1523 0.13467,1.756 0.21417,3.5473 0.6875,5.25 0.356,1.2813 0.92779,2.6891 2.45313,2.7051 0.956,0.01 2.1668,-0.1746 3.10547,-0.3359 1.48533,-0.2574 5.67635,0.068 5.29101,-2.1329 -0.44933,-2.5666 -1.06189,-5.3706 -0.97656,-8.0293 0.076,-2.3746 0.52057,-4.7339 0.61523,-7.1152 0.06,-1.4773 0.20047,-3.477 -1.01953,-4.5703 -1.08133,-0.9707 -2.70368,-0.8207 -4.04101,-0.8301 -2.07067,-0.015 -4.14027,-0.019 -6.21094,-0.018 -3.94133,0 -7.88289,0.01 -11.82422,0.01 -0.76917,0 -1.85655,-0.1837 -2.83203,-0.1582 z m -103.52734,0.074 c -0.7905,-0.046 -1.9268,0.1367 -2.4668,0.1367 -2.07067,0 -4.13832,0 -6.20899,0 -3.99066,0 -8.11251,-0.2973 -12.08984,0.025 -1.05333,0.085 -2.51586,3.4971 -2.89453,4.2597 -0.89467,1.804 -1.45053,3.6671 -1.89453,5.6231 -0.96533,4.2453 -1.12545,9.0518 -0.0508,13.2851 1.04533,4.1187 3.11897,7.6916 4.68164,11.6036 1.51733,3.7933 2.47018,7.954 2.46484,12.0527 -0.005,3.7253 -1.96133,7.0159 -3,10.5039 -0.56666,1.9013 -1.01427,3.7828 -1.09961,5.7734 -0.0493,1.136 -0.21077,3.8863 1.08789,4.4063 0.85467,0.3413 2.67285,0.025 3.60352,0.025 0.91067,0 1.82175,0 2.73242,0 0.42267,0 2.21328,0.2299 2.47461,-0.082 0.32933,-0.3946 -0.21361,-1.3916 -0.34961,-1.8222 -1.21333,-3.84 -0.37947,-7.1862 1.00586,-10.7969 1.50667,-3.9227 2.07558,-7.5986 1.90625,-11.8066 -0.0813,-2.0094 -0.32014,-3.9878 -0.74414,-5.9532 -0.188,-0.8706 -0.30801,-0.9125 0.36133,-1.3925 0.46266,-0.3307 1.28579,-0.4292 1.84179,-0.4532 1.776,-0.075 7.66733,2.3807 7.61133,-0.9179 -0.036,-2.044 -0.59736,-4.1541 -0.83203,-6.1914 -0.14267,-1.2307 -0.0576,-2.127 -1.46289,-1.9883 -1.87467,0.1853 -3.15688,0.2283 -5.07422,-0.07 -1.056,-0.1654 -1.67575,-0.3935 -3.34375,-0.2149 -0.61066,0.067 -2.31299,0.6336 -2.84765,0.4629 -0.788,-0.2507 -1.37201,-2.8073 -1.63868,-3.5566 -0.87733,-2.4507 -1.10288,-5.0026 -0.82422,-7.5879 0.18134,-1.6853 0.62518,-3.2693 1.33985,-4.8067 0.828,-1.7866 1.51523,-1.6835 3.47656,-1.7968 2.17067,-0.1254 4.25692,0.4009 6.40625,0.5996 1.356,0.1253 3.1831,0.027 3.8711,-1.3867 0.46666,-0.9587 0.58991,-2.1628 1.03124,-3.1641 0.35467,-0.804 0.75783,-1.5821 1.17383,-2.3555 0.20134,-0.3733 0.84963,-1.0432 0.76563,-1.5312 -0.0893,-0.5187 -0.15438,-0.6249 -0.37305,-0.7422 -0.152,-0.081 -0.37712,-0.1234 -0.64062,-0.1387 z m 50.51171,0.031 c -0.57812,-0.028 -1.43281,0.1045 -1.75781,0.1035 -1.7,-0.01 -3.40156,0 -5.10156,0 -1.864,0.01 -2.56492,0.5117 -3.54492,2.125 -0.69067,1.1373 -1.18044,2.4188 -1.64844,3.6601 -0.81867,2.1734 -1.46488,4.3869 -1.93555,6.6602 -1.08933,5.2613 -0.5855,11.0157 1.42383,15.9863 1.01467,2.5107 2.49732,4.9215 3.08399,7.5762 0.68933,3.116 0.63345,6.7537 0.18945,9.9004 -0.61733,4.3707 -2.66283,8.3778 -3.29883,12.7285 -0.316,2.16 -0.11829,4.383 0.12305,6.543 0.0907,0.82 0.0322,2.0509 0.8789,2.3789 0.61067,0.2347 1.829,-0.01 2.48633,-0.01 0.828,0 1.65442,0 2.48242,0 0,-0.1506 4.71265,0.1925 5.05664,-0.019 0.85734,-0.5293 -0.20433,-2.2945 -0.375,-3.2305 -0.45999,-2.5213 0.16919,-5.1846 0.97852,-7.5566 1.66667,-4.884 2.63456,-9.6815 2.72656,-14.8828 0.06,-3.4414 -0.687,-6.7598 -2.01367,-9.9278 -1.06533,-2.5426 -2.47813,-5.0175 -3.35547,-7.6308 -1.75866,-5.2347 -0.90878,-11.0263 0.69922,-16.1836 0.736,-2.364 1.93937,-4.3898 3.08203,-6.5645 0.29734,-0.5666 0.88401,-1.2362 0.27735,-1.5722 -0.101,-0.056 -0.26433,-0.083 -0.45704,-0.092 z m -38.26953,0.082 c -1.449,-0.01 -2.89837,-0.01 -4.3457,0.018 -1.48267,0.027 -1.90186,0.744 -2.50586,2.0547 -0.48667,1.052 -0.77912,2.171 -1.06445,3.291 -0.65867,2.5813 -1.21598,5.202 -1.44531,7.8594 -0.32534,3.772 -0.0896,7.7394 0.84375,11.414 1.308,5.1454 3.10801,10.4543 3.27734,15.793 0.16533,5.248 -2.81142,10.2195 -3.60742,15.3555 -0.43334,2.7973 -0.26724,5.6073 -0.11524,8.4179 0.0413,0.764 -0.22518,2.7968 0.38282,3.3008 0.51866,0.428 2.51859,0.076 3.19726,0.076 1.34133,0 2.68663,0.036 4.0293,0.01 1.1,-0.024 1.46834,-0.097 1.51367,-1.2774 0.0773,-2.068 -0.15101,-4.1217 -0.0137,-6.2031 0.30666,-4.6986 2.75549,-8.7019 3.41015,-13.2793 0.344,-2.4013 0.38458,-5.011 0.25391,-7.4297 -0.0747,-1.3813 -0.62025,-2.7985 -0.65625,-4.1425 -0.0213,-0.804 -0.0569,-0.5676 0.70313,-0.7969 0.49466,-0.148 1.19103,-0.2517 1.70703,-0.2637 3.16266,-0.08 4.67248,4.7585 5.25781,7.1758 1.23733,5.104 -0.29306,9.4187 -1.65039,14.3027 -1.28667,4.624 0.61227,9.047 1.21094,13.6524 0.54666,4.1973 0.51902,3.1862 -0.57032,7.2968 -0.26533,1.004 -1.06854,2.3723 -1.06054,3.4043 0.008,1.212 2.04765,0.7305 3.20898,0.7051 1.55733,-0.032 3.76868,0.1179 4.66602,-0.3847 0.604,-0.3387 0.93161,-1.8174 1.09961,-2.4707 1.19066,-4.6454 1.52183,-4.0462 0.8125,-8.8262 -0.35067,-2.3574 -1.19874,-4.3479 -1.44141,-6.7266 -0.232,-2.268 -0.14789,-4.6573 0.41211,-6.8613 1.10267,-4.3493 2.20423,-8.5201 2.10156,-13.1094 -0.06,-2.6853 -0.77768,-5.2778 -2.15234,-7.5898 -0.64934,-1.0907 -1.41121,-2.1405 -2.2832,-3.0645 -0.76,-0.8053 -1.86652,-1.3112 -1.47852,-2.4472 0.42133,-1.2334 1.21065,-2.1594 1.44531,-3.4981 0.16934,-0.9707 0.48434,-2.6097 0.51367,-3.5937 0.0613,-2.08 0.18375,-3.6336 0.20508,-5.7149 0.044,-4.188 0.10955,-8.3577 -0.31445,-12.539 -0.10667,-1.0654 -0.23213,-2.4495 -0.9668,-3.3028 -0.62133,-0.724 -1.27683,-0.5847 -2.1875,-0.582 -2.38973,0.01 -4.78019,-2e-4 -7.16992,0 0.0975,0 -0.0989,0 -0.87891,0 -1.44733,0 -2.89475,-0.013 -4.34375,-0.02 z m 4.375,7.6152 c 0.86617,0.031 1.69811,0.1883 2.16211,0.6563 1.1,1.108 0.60799,3.9594 0.58399,5.498 -0.0533,3.3707 0.0428,6.0132 -0.31055,9.3692 -0.30933,2.9386 -1.80745,2.9688 -4.43945,2.9648 -1.69467,0 -2.02207,-0.5923 -2.41407,-2.1523 -0.33199,-1.3227 -0.60359,-2.6606 -0.82226,-4.0059 -0.24552,-1.725 -0.20124,-1.4643 -0.11524,-0.9004 -0.41215,-3.3358 -0.43165,-6.5792 0.78321,-9.8164 0.44933,-1.1973 0.99032,-1.4146 2.20898,-1.5039 0.598,-0.043 1.49712,-0.1399 2.36328,-0.1094 z m -5.35547,11.4297 c 0.037,0.2997 0.0724,0.5992 0.11524,0.9004 0.19676,1.2071 -10e-4,-0.1536 -0.11524,-0.9004 z m 61.01954,55.9649 c -0.92667,0.02 -1.61524,0.6408 -1.61524,1.4648 0,0.988 0.73666,1.3424 1.47266,1.5957 0.51733,0.1693 0.61328,0.2722 0.61328,0.4629 0,0.1493 -0.11602,0.3125 -0.41602,0.3125 -0.3,0 -0.72218,-0.1491 -1.10351,-0.5371 l -0.73633,0.8984 c 0.51867,0.532 1.16435,0.7774 1.79102,0.7774 0.81066,0 1.82617,-0.3896 1.82617,-1.6016 0,-0.9333 -0.6472,-1.146 -1.50586,-1.4726 -0.49067,-0.1907 -0.5918,-0.3198 -0.5918,-0.4825 0,-0.1706 0.10918,-0.2871 0.33985,-0.2871 0.23866,0 0.49725,0.1089 0.91992,0.4356 l 0.71679,-0.918 c -0.44933,-0.4027 -1.04293,-0.6618 -1.71093,-0.6484 z m 37.67578,0 c -0.92667,0.02 -1.61524,0.6408 -1.61524,1.4648 0,0.988 0.73666,1.3424 1.47266,1.5957 0.51733,0.1693 0.61328,0.2722 0.61328,0.4629 0,0.1493 -0.11602,0.3125 -0.41602,0.3125 -0.29999,0 -0.72413,-0.1491 -1.10546,-0.5371 l -0.73438,0.8984 c 0.51733,0.532 1.16435,0.7774 1.79102,0.7774 0.81066,0 1.82617,-0.3896 1.82617,-1.6016 0,-0.9333 -0.64719,-1.146 -1.50586,-1.4726 -0.49067,-0.1907 -0.5918,-0.3198 -0.5918,-0.4825 0,-0.1706 0.10785,-0.2871 0.33985,-0.2871 0.23866,0 0.49725,0.1089 0.91992,0.4356 l 0.7168,-0.918 c -0.45067,-0.4027 -1.04294,-0.6618 -1.71094,-0.6484 z m -69.1543,0.068 -1.75781,4.8379 h 1.35742 l 0.24414,-0.7832 h 1.55469 l 0.24414,0.7832 h 1.34961 l -1.75195,-4.8379 z m 9.47852,0 v 4.8379 h 1.25195 v -1.4785 h 0.30078 l 0.91406,1.4785 h 1.50586 l -1.09765,-1.6758 v -0.01 c 0.51733,-0.2466 0.82422,-0.7281 0.82422,-1.4375 -10e-6,-0.9946 -0.54501,-1.7168 -1.76368,-1.7168 h -1.93554 z m 10.16406,0 v 1.1524 h 1.22851 v 3.6855 h 1.28711 v -3.6855 h 1.22657 v -1.1524 z m 28.00195,0 v 4.8379 h 1.25391 v -1.6289 h 1.69726 v -1.1445 h -1.69726 v -0.9121 h 2.07226 v -1.1524 z m 9.97461,0 v 4.8379 h 3.35938 v -1.1504 h -2.10743 v -0.6816 h 1.53321 v -1.125 h -1.53321 v -0.7285 h 1.96289 v -1.1524 z m 19.76367,0 v 1.1524 h 1.22657 v 3.6855 h 1.28906 v -3.6855 h 1.22656 v -1.1524 z m 10.38477,0 v 4.8379 h 1.31445 v -4.8379 z m 7.83984,0 1.77149,4.8379 h 1.13672 l 1.76562,-4.8379 h -1.39648 l -0.9336,2.9922 h -0.0137 l -0.91992,-2.9922 h -1.41016 z m 11.97656,0 -1.75585,4.8379 h 1.35546 l 0.2461,-0.7832 h 1.55273 l 0.24414,0.7832 h 1.34961 l -1.75195,-4.8379 z m 9.47852,0 v 4.8379 h 3.22266 v -1.1504 h -1.91992 v -3.6875 z m -106.33203,1.1367 h 0.39648 c 0.47067,0 0.70899,0.2528 0.70899,0.5528 0,0.36 -0.30099,0.5508 -0.70899,0.5508 h -0.39648 z m -10.11719,0.4356 h 0.0156 l 0.43554,1.3984 h -0.88671 l 0.43554,-1.3984 z m 107.58399,0 h 0.0156 l 0.43555,1.3984 h -0.88672 l 0.43555,-1.3984 z"
         transform="matrix(0.75000002,0,0,-0.75000002,0,1232.55)"
         id="path6232"
         inkscape:connector-curvature="0" />
    </g>
  </g>
</svg>
