<?xml version="1.0" encoding="UTF-8" standalone="no"?>
<!-- Created with Inkscape (http://www.inkscape.org/) -->

<svg
   xmlns:dc="http://purl.org/dc/elements/1.1/"
   xmlns:cc="http://creativecommons.org/ns#"
   xmlns:rdf="http://www.w3.org/1999/02/22-rdf-syntax-ns#"
   xmlns:svg="http://www.w3.org/2000/svg"
   xmlns="http://www.w3.org/2000/svg"
   xmlns:sodipodi="http://sodipodi.sourceforge.net/DTD/sodipodi-0.dtd"
   xmlns:inkscape="http://www.inkscape.org/namespaces/inkscape"
   width="128.78392"
   height="100"
   viewBox="0 0 34.074078 26.458334"
   version="1.1"
   id="svg1502"
   sodipodi:docname="footer_gryphon.svg"
   inkscape:version="0.92.4 (5da689c313, 2019-01-14)">
  <defs
     id="defs1496">
    <clipPath
       id="clipPath8280"
       clipPathUnits="userSpaceOnUse">
      <path
         inkscape:connector-curvature="0"
         id="path8282"
         d="M 0,77.837 H 328.653 V 0.06 H 0 Z" />
    </clipPath>
  </defs>
  <sodipodi:namedview
     id="base"
     pagecolor="#ffffff"
     bordercolor="#666666"
     borderopacity="1.0"
     inkscape:pageopacity="0.0"
     inkscape:pageshadow="2"
     inkscape:zoom="1.42"
     inkscape:cx="59.990528"
     inkscape:cy="53.298702"
     inkscape:document-units="px"
     inkscape:current-layer="layer1"
     showgrid="false"
     units="px"
     fit-margin-top="0"
     fit-margin-left="0"
     fit-margin-right="0"
     fit-margin-bottom="0" />
  <metadata
     id="metadata1499">
    <rdf:RDF>
      <cc:Work
         rdf:about="">
        <dc:format>image/svg+xml</dc:format>
        <dc:type
           rdf:resource="http://purl.org/dc/dcmitype/StillImage" />
        <dc:title></dc:title>
      </cc:Work>
    </rdf:RDF>
  </metadata>
  <g
     inkscape:label="Layer 1"
     inkscape:groupmode="layer"
     id="layer1"
     transform="translate(-109.26841,-189.46445)">
    <g
       style="fill:#ffffff;stroke-width:1.56912506"
       transform="matrix(0.75698694,0,0,0.75711026,-67.23179,25.491174)"
       id="g1249">
      <g
         transform="matrix(0.03358415,0,0,0.03358415,228.9703,217.97658)"
         style="font-style:normal;font-weight:normal;font-size:216.7772522px;line-height:87.99999952%;font-family:sans-serif;letter-spacing:4.07999992px;word-spacing:0px;fill:#ffffff;fill-opacity:1;stroke:none;stroke-width:66.99452972px;stroke-linecap:butt;stroke-linejoin:miter;stroke-opacity:1"
         aria-label="GryphonTheatre"
         id="text6574">
        <path
           inkscape:connector-curvature="0"
           d="m 737.66491,536.16162 3.46844,17.55896 h 21.67772 V 470.04456 H 697.7779 v 25.36294 h 34.2508 q -1.51744,16.25829 -10.83886,24.92938 -9.10464,8.45432 -26.01327,8.45432 -11.48919,0 -19.50995,-4.33555 -8.02076,-4.55232 -13.00664,-11.92275 -4.98587,-7.37042 -7.37042,-16.47507 -2.16778,-9.32142 -2.16778,-19.0764 0,-10.18853 2.16778,-19.72673 2.38455,-9.5382 7.37042,-16.90862 4.98588,-7.58721 13.00664,-11.92275 8.02076,-4.55232 19.50995,-4.55232 12.3563,0 21.02739,6.50331 8.67109,6.50332 11.70598,19.50996 h 32.51658 q -1.30066,-13.22342 -7.15365,-23.41195 -5.85298,-10.18853 -14.95763,-17.1254 -8.88786,-6.93687 -20.16028,-10.40531 -11.05564,-3.68521 -22.97839,-3.68521 -17.77573,0 -32.08303,6.28654 -14.09052,6.28654 -23.8455,17.34218 -9.75498,11.05564 -14.95763,26.01327 -5.20265,14.74085 -5.20265,32.08303 0,16.90863 5.20265,31.64948 5.20265,14.52408 14.95763,25.36294 9.75498,10.83886 23.8455,17.1254 14.3073,6.06977 32.08303,6.06977 11.27242,0 22.32806,-4.55233 11.05564,-4.76909 20.16028,-16.47507 z"
           style="font-style:normal;font-variant:normal;font-weight:bold;font-stretch:normal;line-height:87.99999952%;font-family:'Helvetica Neue';-inkscape-font-specification:'Helvetica Neue Bold';letter-spacing:4.07999992px;fill:#ffffff;fill-opacity:1;stroke-width:66.99452972px"
           id="path6631" />
        <path
           inkscape:connector-curvature="0"
           d="m 781.3361,441.64674 v 112.07384 h 30.78237 v -50.5091 q 0,-7.5872 1.51744,-14.09052 1.51744,-6.50332 4.98588,-11.27242 3.68521,-4.98587 9.5382,-7.80398 5.85298,-2.8181 14.30729,-2.8181 2.81811,0 5.85299,0.43355 3.03488,0.21678 5.20265,0.65033 v -28.61459 q -3.68521,-1.08389 -6.72009,-1.08389 -5.85299,0 -11.27242,1.73422 -5.41943,1.73422 -10.18853,4.98587 -4.7691,3.03489 -8.45431,7.58721 -3.68522,4.33554 -5.85299,9.5382 h -0.43355 v -20.81062 z"
           style="font-style:normal;font-variant:normal;font-weight:bold;font-stretch:normal;line-height:87.99999952%;font-family:'Helvetica Neue';-inkscape-font-specification:'Helvetica Neue Bold';letter-spacing:4.07999992px;fill:#ffffff;fill-opacity:1;stroke-width:66.99452972px"
           id="path6633" />
        <path
           inkscape:connector-curvature="0"
           d="m 927.67112,567.59433 46.82389,-125.94759 h -31.86626 l -24.49583,76.73915 h -0.43355 l -25.36294,-76.73915 h -32.73337 l 39.23669,105.13697 q 1.30066,3.25166 1.30066,6.93687 0,4.98588 -3.03488,9.10465 -2.81811,4.11876 -8.88787,4.7691 -4.55232,0.21677 -9.10464,-0.21678 -4.55233,-0.43356 -8.88787,-0.86711 v 25.36294 q 4.7691,0.43355 9.32142,0.65033 4.7691,0.43355 9.5382,0.43355 15.82474,0 24.71261,-5.85298 8.88786,-5.85299 13.87374,-19.50995 z"
           style="font-style:normal;font-variant:normal;font-weight:bold;font-stretch:normal;line-height:87.99999952%;font-family:'Helvetica Neue';-inkscape-font-specification:'Helvetica Neue Bold';letter-spacing:4.07999992px;fill:#ffffff;fill-opacity:1;stroke-width:66.99452972px"
           id="path6635" />
        <path
           inkscape:connector-curvature="0"
           d="m 1041.4404,533.5603 q -7.3704,0 -12.5731,-3.03488 -5.2026,-3.03489 -8.4543,-7.80399 -3.0349,-4.98587 -4.5523,-11.48919 -1.3007,-6.50332 -1.3007,-13.22341 0,-6.93687 1.3007,-13.44019 1.3007,-6.50332 4.3355,-11.4892 3.2517,-4.98587 8.2376,-8.02076 5.2026,-3.25165 12.7898,-3.25165 7.3705,0 12.3563,3.25165 5.2027,3.03489 8.4544,8.23754 3.2516,4.98588 4.5523,11.48919 1.5174,6.50332 1.5174,13.22342 0,6.72009 -1.3006,13.22341 -1.3007,6.50332 -4.5524,11.48919 -3.0349,4.7691 -8.2375,7.80399 -4.9859,3.03488 -12.5731,3.03488 z m -56.57885,-91.91356 v 151.31052 h 30.78235 v -53.11042 h 0.4336 q 5.6362,8.23753 14.3073,12.57308 8.8878,4.11877 19.2931,4.11877 12.3564,0 21.461,-4.7691 9.3214,-4.7691 15.3912,-12.78986 6.2865,-8.02076 9.3214,-18.42607 3.0349,-10.40531 3.0349,-21.67772 0,-11.92275 -3.0349,-22.76162 -3.0349,-11.05564 -9.3214,-19.29317 -6.2866,-8.23754 -15.8248,-13.22341 -9.5382,-4.98588 -22.7616,-4.98588 -10.4053,0 -19.0764,4.11877 -8.6711,4.11877 -14.3073,13.22341 h -0.4335 v -14.3073 z"
           style="font-style:normal;font-variant:normal;font-weight:bold;font-stretch:normal;line-height:87.99999952%;font-family:'Helvetica Neue';-inkscape-font-specification:'Helvetica Neue Bold';letter-spacing:4.07999992px;fill:#ffffff;fill-opacity:1;stroke-width:66.99452972px"
           id="path6637" />
        <path
           inkscape:connector-curvature="0"
           d="m 1112.653,398.94162 v 154.77896 h 30.7824 v -58.74663 q 0,-17.12541 5.6362,-24.49583 5.6362,-7.58721 18.2093,-7.58721 11.0556,0 15.3912,6.93687 4.3355,6.7201 4.3355,20.59384 v 63.29896 h 30.7824 v -68.93517 q 0,-10.4053 -1.951,-18.85962 -1.7342,-8.67109 -6.2865,-14.52407 -4.5524,-6.06977 -12.5731,-9.32142 -7.804,-3.46844 -20.1603,-3.46844 -8.6711,0 -17.7757,4.55232 -9.1047,4.33555 -14.9577,14.09052 h -0.6503 v -58.31308 z"
           style="font-style:normal;font-variant:normal;font-weight:bold;font-stretch:normal;line-height:87.99999952%;font-family:'Helvetica Neue';-inkscape-font-specification:'Helvetica Neue Bold';letter-spacing:4.07999992px;fill:#ffffff;fill-opacity:1;stroke-width:66.99452972px"
           id="path6639" />
        <path
           inkscape:connector-curvature="0"
           d="m 1263.714,497.79205 q 0,-6.72009 1.3007,-13.22341 1.3006,-6.50332 4.3355,-11.4892 3.2517,-4.98587 8.4543,-8.02076 5.2027,-3.25165 13.0067,-3.25165 7.8039,0 13.0066,3.25165 5.4194,3.03489 8.4543,8.02076 3.2517,4.98588 4.5523,11.4892 1.3007,6.50332 1.3007,13.22341 0,6.72009 -1.3007,13.22341 -1.3006,6.28654 -4.5523,11.4892 -3.0349,4.98587 -8.4543,8.02076 -5.2027,3.03488 -13.0066,3.03488 -7.804,0 -13.0067,-3.03488 -5.2026,-3.03489 -8.4543,-8.02076 -3.0349,-5.20266 -4.3355,-11.4892 -1.3007,-6.50332 -1.3007,-13.22341 z m -30.7824,0 q 0,13.44019 4.1188,24.27905 4.1188,10.83886 11.706,18.64285 7.5872,7.5872 18.2093,11.70597 10.622,4.11877 23.8455,4.11877 13.2234,0 23.8455,-4.11877 10.8388,-4.11877 18.426,-11.70597 7.5872,-7.80399 11.706,-18.64285 4.1188,-10.83886 4.1188,-24.27905 0,-13.44019 -4.1188,-24.27905 -4.1188,-11.05564 -11.706,-18.64285 -7.5872,-7.80398 -18.426,-11.92274 -10.6221,-4.33555 -23.8455,-4.33555 -13.2235,0 -23.8455,4.33555 -10.6221,4.11876 -18.2093,11.92274 -7.5872,7.58721 -11.706,18.64285 -4.1188,10.83886 -4.1188,24.27905 z"
           style="font-style:normal;font-variant:normal;font-weight:bold;font-stretch:normal;line-height:87.99999952%;font-family:'Helvetica Neue';-inkscape-font-specification:'Helvetica Neue Bold';letter-spacing:4.07999992px;fill:#ffffff;fill-opacity:1;stroke-width:66.99452972px"
           id="path6641" />
        <path
           inkscape:connector-curvature="0"
           d="m 1359.9576,441.64674 v 112.07384 h 30.7824 v -58.74663 q 0,-17.12541 5.6362,-24.49583 5.6362,-7.58721 18.2093,-7.58721 11.0556,0 15.3912,6.93687 4.3355,6.7201 4.3355,20.59384 v 63.29896 h 30.7824 v -68.93517 q 0,-10.4053 -1.951,-18.85962 -1.7342,-8.67109 -6.2865,-14.52407 -4.5524,-6.06977 -12.5731,-9.32142 -7.804,-3.46844 -20.1603,-3.46844 -9.755,0 -19.0764,4.55232 -9.3214,4.33555 -15.1744,14.09052 h -0.6504 v -15.60796 z"
           style="font-style:normal;font-variant:normal;font-weight:bold;font-stretch:normal;line-height:87.99999952%;font-family:'Helvetica Neue';-inkscape-font-specification:'Helvetica Neue Bold';letter-spacing:4.07999992px;fill:#ffffff;fill-opacity:1;stroke-width:66.99452972px"
           id="path6643" />
        <path
           inkscape:connector-curvature="0"
           d="m 660.05866,618.3202 v 126.16436 h 34.03402 V 618.3202 h 46.39034 v -28.6146 h -126.8147 v 28.6146 z"
           style="font-style:normal;font-variant:normal;font-weight:bold;font-stretch:normal;line-height:87.99999952%;font-family:'Helvetica Neue';-inkscape-font-specification:'Helvetica Neue Bold';letter-spacing:4.07999992px;fill:#ffffff;fill-opacity:1;stroke-width:66.99452972px"
           id="path6645" />
        <path
           inkscape:connector-curvature="0"
           d="m 753.11375,589.7056 v 154.77896 h 30.78237 v -58.74663 q 0,-17.12541 5.63621,-24.49583 5.6362,-7.58721 18.20929,-7.58721 11.05563,0 15.39118,6.93688 4.33555,6.72009 4.33555,20.59383 v 63.29896 h 30.78236 V 675.5494 q 0,-10.40531 -1.95099,-18.85963 -1.73422,-8.67109 -6.28654,-14.52407 -4.55232,-6.06976 -12.57308,-9.32142 -7.80398,-3.46844 -20.16029,-3.46844 -8.67109,0 -17.77573,4.55232 -9.10465,4.33555 -14.95763,14.09052 h -0.65033 V 589.7056 Z"
           style="font-style:normal;font-variant:normal;font-weight:bold;font-stretch:normal;line-height:87.99999952%;font-family:'Helvetica Neue';-inkscape-font-specification:'Helvetica Neue Bold';letter-spacing:4.07999992px;fill:#ffffff;fill-opacity:1;stroke-width:66.99452972px"
           id="path6647" />
        <path
           inkscape:connector-curvature="0"
           d="m 953.29926,676.4165 h -50.07555 q 0.21678,-3.25165 1.30066,-7.37042 1.30067,-4.11877 4.11877,-7.80398 3.03488,-3.68522 7.80398,-6.06977 4.98588,-2.60132 12.35631,-2.60132 11.27241,0 16.69184,6.06976 5.63621,6.06976 7.80399,17.77573 z m -50.07555,19.50996 h 80.85792 q 0.8671,-13.00664 -2.16778,-24.92939 -3.03488,-11.92275 -9.97175,-21.24417 -6.7201,-9.32142 -17.34218,-14.74085 -10.62209,-5.63621 -24.92938,-5.63621 -12.78986,0 -23.41195,4.55232 -10.40531,4.55233 -17.99251,12.57308 -7.5872,7.80399 -11.70597,18.64285 -4.11877,10.83886 -4.11877,23.41194 0,13.00664 3.90199,23.8455 4.11877,10.83886 11.4892,18.64284 7.37042,7.80398 17.99251,12.13953 10.62208,4.11877 23.8455,4.11877 19.07639,0 32.51658,-8.67109 13.44019,-8.67109 19.94351,-28.83138 h -27.09716 q -1.51744,5.20266 -8.23753,9.97176 -6.7201,4.55232 -16.04152,4.55232 -13.00663,0 -19.94351,-6.7201 -6.93687,-6.72009 -7.5872,-21.67772 z"
           style="font-style:normal;font-variant:normal;font-weight:bold;font-stretch:normal;line-height:87.99999952%;font-family:'Helvetica Neue';-inkscape-font-specification:'Helvetica Neue Bold';letter-spacing:4.07999992px;fill:#ffffff;fill-opacity:1;stroke-width:66.99452972px"
           id="path6649" />
        <path
           inkscape:connector-curvature="0"
           d="m 997.07322,666.87831 q 0.65033,-10.83887 5.41938,-17.99252 4.7691,-7.15365 12.1396,-11.48919 7.3704,-4.33555 16.475,-6.06976 9.3215,-1.951 18.6429,-1.951 8.4543,0 17.1254,1.30066 8.6711,1.08389 15.8247,4.55233 7.1537,3.46843 11.706,9.75497 4.5523,6.06977 4.5523,16.2583 v 58.31308 q 0,7.5872 0.8671,14.52407 0.8671,6.93688 3.0349,10.40531 h -31.2159 q -0.8671,-2.60133 -1.5175,-5.20265 -0.4335,-2.81811 -0.6503,-5.63621 -7.3704,7.5872 -17.3422,10.62208 -9.9717,3.03489 -20.377,3.03489 -8.0208,0 -14.9577,-1.951 -6.9368,-1.95099 -12.1395,-6.06976 -5.20263,-4.11877 -8.23752,-10.40531 -2.8181,-6.28654 -2.8181,-14.95763 0,-9.5382 3.25166,-15.60796 3.46846,-6.28654 8.67106,-9.97176 5.4195,-3.68521 12.1396,-5.41943 6.9368,-1.95099 13.8737,-3.03488 6.9369,-1.08389 13.657,-1.73422 6.7201,-0.65033 11.9227,-1.95099 5.2027,-1.30067 8.2376,-3.68522 3.0348,-2.60132 2.8181,-7.37042 0,-4.98588 -1.7343,-7.80398 -1.5174,-3.03488 -4.3355,-4.55233 -2.6013,-1.73421 -6.2865,-2.16777 -3.4685,-0.65033 -7.5873,-0.65033 -9.1046,0 -14.3073,3.90199 -5.2026,3.90199 -6.0697,13.00664 z m 71.10298,22.76161 q -1.951,1.73422 -4.9859,2.8181 -2.8181,0.86711 -6.2866,1.51744 -3.2516,0.65033 -6.9368,1.08389 -3.6852,0.43355 -7.3705,1.08388 -3.4684,0.65034 -6.9368,1.73422 -3.2517,1.08389 -5.853,3.03488 -2.3846,1.73422 -3.902,4.55233 -1.5175,2.8181 -1.5175,7.15365 0,4.11876 1.5175,6.93687 1.5174,2.8181 4.1188,4.55232 2.6013,1.51744 6.0697,2.16777 3.4685,0.65033 7.1537,0.65033 9.1046,0 14.0905,-3.03488 4.9859,-3.03488 7.3704,-7.15365 2.3846,-4.33554 2.8181,-8.67109 0.6504,-4.33554 0.6504,-6.93687 z"
           style="font-style:normal;font-variant:normal;font-weight:bold;font-stretch:normal;line-height:87.99999952%;font-family:'Helvetica Neue';-inkscape-font-specification:'Helvetica Neue Bold';letter-spacing:4.07999992px;fill:#ffffff;fill-opacity:1;stroke-width:66.99452972px"
           id="path6651" />
        <path
           inkscape:connector-curvature="0"
           d="m 1157.9069,632.41072 v -33.60047 h -30.7824 v 33.60047 h -18.6428 v 20.59384 h 18.6428 v 66.11706 q 0,8.45432 2.8181,13.65697 2.8181,5.20265 7.5872,8.02076 4.9859,2.8181 11.2724,3.68521 6.5033,1.08389 13.657,1.08389 4.5523,0 9.3214,-0.21678 4.7691,-0.21678 8.6711,-0.86711 v -23.8455 q -2.1678,0.43356 -4.5523,0.65034 -2.3846,0.21677 -4.9859,0.21677 -7.804,0 -10.4053,-2.60132 -2.6013,-2.60133 -2.6013,-10.40531 v -55.49498 h 22.5448 v -20.59384 z"
           style="font-style:normal;font-variant:normal;font-weight:bold;font-stretch:normal;line-height:87.99999952%;font-family:'Helvetica Neue';-inkscape-font-specification:'Helvetica Neue Bold';letter-spacing:4.07999992px;fill:#ffffff;fill-opacity:1;stroke-width:66.99452972px"
           id="path6653" />
        <path
           inkscape:connector-curvature="0"
           d="m 1198.1333,632.41072 v 112.07384 h 30.7823 v -50.5091 q 0,-7.5872 1.5175,-14.09052 1.5174,-6.50332 4.9859,-11.27242 3.6852,-4.98587 9.5382,-7.80398 5.853,-2.8181 14.3073,-2.8181 2.8181,0 5.8529,0.43355 3.0349,0.21678 5.2027,0.65033 v -28.61459 q -3.6852,-1.08389 -6.7201,-1.08389 -5.853,0 -11.2724,1.73422 -5.4194,1.73422 -10.1885,4.98588 -4.7691,3.03488 -8.4544,7.5872 -3.6852,4.33554 -5.8529,9.5382 h -0.4336 v -20.81062 z"
           style="font-style:normal;font-variant:normal;font-weight:bold;font-stretch:normal;line-height:87.99999952%;font-family:'Helvetica Neue';-inkscape-font-specification:'Helvetica Neue Bold';letter-spacing:4.07999992px;fill:#ffffff;fill-opacity:1;stroke-width:66.99452972px"
           id="path6655" />
        <path
           inkscape:connector-curvature="0"
           d="m 1354.6286,676.4165 h -50.0756 q 0.2168,-3.25165 1.3007,-7.37042 1.3007,-4.11877 4.1188,-7.80398 3.0349,-3.68522 7.804,-6.06977 4.9858,-2.60132 12.3563,-2.60132 11.2724,0 16.6918,6.06976 5.6362,6.06976 7.804,17.77573 z m -50.0756,19.50996 h 80.858 q 0.8671,-13.00664 -2.1678,-24.92939 -3.0349,-11.92275 -9.9718,-21.24417 -6.7201,-9.32142 -17.3422,-14.74085 -10.622,-5.63621 -24.9293,-5.63621 -12.7899,0 -23.412,4.55232 -10.4053,4.55233 -17.9925,12.57308 -7.5872,7.80399 -11.706,18.64285 -4.1187,10.83886 -4.1187,23.41194 0,13.00664 3.902,23.8455 4.1187,10.83886 11.4892,18.64284 7.3704,7.80398 17.9925,12.13953 10.6221,4.11877 23.8455,4.11877 19.0764,0 32.5166,-8.67109 13.4401,-8.67109 19.9435,-28.83138 h -27.0972 q -1.5174,5.20266 -8.2375,9.97176 -6.7201,4.55232 -16.0415,4.55232 -13.0067,0 -19.9436,-6.7201 -6.9368,-6.72009 -7.5872,-21.67772 z"
           style="font-style:normal;font-variant:normal;font-weight:bold;font-stretch:normal;line-height:87.99999952%;font-family:'Helvetica Neue';-inkscape-font-specification:'Helvetica Neue Bold';letter-spacing:4.07999992px;fill:#ffffff;fill-opacity:1;stroke-width:66.99452972px"
           id="path6657" />
      </g>
      <g
         transform="matrix(0.02439246,0,0,0.02439246,232.26239,224.84556)"
         id="g6624"
         style="fill:#ffffff;stroke-width:17.02018929">
        <path
           id="path6607"
           d="m 936.15625,1344.4902 c -0.81601,0.038 -0.99621,1.0946 -0.27344,1.7188 0.47064,0.4064 0.95341,0.6546 1.42188,0.8203 0.2848,0.1007 0.32708,0.2084 0.0156,0.3945 -1.39086,0.8312 -1.8789,2.0705 -1.8789,2.9043 v 11.9043 l 0.0117,0.02 24.78907,16.7128 0.34765,-4.625 c 0.45548,-6.0661 -3.87583,-7.6162 -5.54101,-8.746 -4.95714,-3.3637 -3.89282,-9.4544 1.51562,-9.5176 1.08061,-0.013 2.57747,0.1061 3.94532,1.9726 0.15607,0.213 0.52002,0.2778 0.53711,-0.1269 0.23167,-5.487 -1.56203,-9.4987 -8.06641,-9.8985 -3.98632,-0.245 -6.76118,-0.4159 -8.9668,-0.707 -3.62088,-0.4779 -4.75328,-1.7671 -7.33984,-2.7344 -0.19313,-0.072 -0.36647,-0.099 -0.51758,-0.092 z m 9.22266,5.293 c 0.70233,0.01 1.12614,0.2647 1.14062,0.7949 -0.0152,0.5323 -0.27291,0.7204 -0.61523,0.7696 -0.23398,0.034 -0.40392,-0.1125 -0.70508,-0.1036 -0.54592,0.016 -0.54131,0.3048 -1.06836,0.3164 -0.43111,0.01 -0.67334,-0.2519 -0.70508,-0.6035 -0.0494,-0.5471 0.9064,-1.145 1.8086,-1.1718 0.0493,0 0.0977,0 0.14453,0 z"
           style="fill:#ffffff;fill-opacity:0.70588235;fill-rule:evenodd;stroke:none;stroke-width:1.56912494px;stroke-linecap:butt;stroke-linejoin:miter;stroke-opacity:1"
           inkscape:connector-curvature="0"
           transform="matrix(10.846931,0,0,10.846931,-9825.6085,-14564.084)" />
        <path
           id="path6609"
           transform="matrix(10.846931,0,0,10.846931,-9825.6085,-14564.084)"
           d="m 925.66602,1384.9688 -9.26368,0.09 c -0.95897,0.2389 -1.17991,1.2765 0.33204,1.8476 l 30.86718,11.6583 8.92969,-0.022 c 1.07043,-0.4234 0.82531,-1.4453 -0.39453,-1.9121 l -30.46875,-11.6621 z m -7.94727,17.75 c -1.24734,0 -1.47815,0.983 -1.40625,1.7187 l 0.625,6.3965 c 0.0326,0.3336 0.1564,0.7247 0.41406,0.7246 l 37.91797,-0.02 c 0.42525,-0.056 1.55523,-1.0509 0.23633,-1.4278 l -25.79883,-7.3711 z"
           style="fill:#ffffff;fill-opacity:0.70588235;fill-rule:evenodd;stroke:none;stroke-width:1.56912494px;stroke-linecap:butt;stroke-linejoin:miter;stroke-opacity:1"
           inkscape:connector-curvature="0" />
        <path
           sodipodi:nodetypes="sssscscscss"
           inkscape:connector-curvature="0"
           id="path6614"
           d="m 38.265625,22.191406 c -1.27591,0.01702 -1.627429,1.457033 -1.279297,4.400391 L 78.943359,381.33398 c 3.114278,26.33031 13.077823,29.83351 23.005861,33.66016 l 113.08789,43.58789 330.51172,126.48633 c 13.23155,5.06369 15.88626,16.15565 4.27539,20.74805 11.25734,-0.0281 22.37483,-8.20435 23.29297,-18.69336 L 590.06836,393.45898 41.609375,23.681641 c -1.480703,-0.998307 -2.578204,-1.500446 -3.34375,-1.490235 z"
           style="fill:#ffffff;fill-opacity:1;fill-rule:evenodd;stroke:none;stroke-width:17.02018929px;stroke-linecap:butt;stroke-linejoin:miter;stroke-opacity:1" />
        <path
           inkscape:connector-curvature="0"
           id="path6619"
           d="m 114.54102,459.55078 c -19.416271,0.18714 -23.413659,6.04158 -22.277348,16.70899 L 104.12891,587.6543 c 1.63062,15.30785 10.02339,21.68161 25.42578,26.15234 l 129.31445,37.53516 279.83008,79.95898 c 14.30602,4.08786 2.05598,14.86452 -2.55664,15.47266 17.72739,-0.01 24.97377,-10.09745 25.91015,-23.50977 l 4.11719,-58.96679 c 0.66725,-9.55732 -0.68842,-15.90928 -12.4707,-20.3418 L 452.96094,606.05859 118.15039,479.58984 c -16.39993,-6.19481 -14.0113,-17.44764 -3.60937,-20.03906 z"
           style="fill:#ffffff;fill-opacity:1;fill-rule:evenodd;stroke:none;stroke-width:17.02018929px;stroke-linecap:butt;stroke-linejoin:miter;stroke-opacity:1" />
      </g>
    </g>
  </g>
</svg>
