<?xml version="1.0" encoding="UTF-8" standalone="no"?>
<!-- Created with Inkscape (http://www.inkscape.org/) -->

<svg
   xmlns:dc="http://purl.org/dc/elements/1.1/"
   xmlns:cc="http://creativecommons.org/ns#"
   xmlns:rdf="http://www.w3.org/1999/02/22-rdf-syntax-ns#"
   xmlns:svg="http://www.w3.org/2000/svg"
   xmlns="http://www.w3.org/2000/svg"
   xmlns:sodipodi="http://sodipodi.sourceforge.net/DTD/sodipodi-0.dtd"
   xmlns:inkscape="http://www.inkscape.org/namespaces/inkscape"
   width="128.78392"
   height="100"
   viewBox="0 0 34.074078 26.458334"
   version="1.1"
   id="svg1502"
   sodipodi:docname="foot_gryph_c.svg"
   inkscape:version="0.92.4 (5da689c313, 2019-01-14)">
  <defs
     id="defs1496" />
  <sodipodi:namedview
     id="base"
     pagecolor="#ffffff"
     bordercolor="#666666"
     borderopacity="1.0"
     inkscape:pageopacity="0.0"
     inkscape:pageshadow="2"
     inkscape:zoom="1.42"
     inkscape:cx="59.990528"
     inkscape:cy="67.682879"
     inkscape:document-units="px"
     inkscape:current-layer="layer1"
     showgrid="false"
     units="px"
     fit-margin-top="0"
     fit-margin-left="0"
     fit-margin-right="0"
     fit-margin-bottom="0" />
  <metadata
     id="metadata1499">
    <rdf:RDF>
      <cc:Work
         rdf:about="">
        <dc:format>image/svg+xml</dc:format>
        <dc:type
           rdf:resource="http://purl.org/dc/dcmitype/StillImage" />
        <dc:title></dc:title>
      </cc:Work>
    </rdf:RDF>
  </metadata>
  <g
     inkscape:label="Layer 1"
     inkscape:groupmode="layer"
     id="layer1"
     transform="translate(-109.26841,-189.46445)">
    <path
       inkscape:connector-curvature="0"
       d="m 124.84922,204.15641 0.0882,0.44647 h 0.5511 v -2.12762 h -1.65332 v 0.6449 h 0.87075 q -0.0386,0.41339 -0.27555,0.63387 -0.23147,0.21497 -0.66133,0.21497 -0.29209,0 -0.496,-0.11024 -0.20391,-0.11575 -0.33066,-0.30316 -0.12676,-0.1874 -0.18738,-0.41891 -0.0551,-0.23701 -0.0551,-0.48505 0,-0.25906 0.0551,-0.50159 0.0606,-0.24253 0.18738,-0.42993 0.12675,-0.19292 0.33066,-0.30316 0.20391,-0.11575 0.496,-0.11575 0.31413,0 0.53457,0.16535 0.22044,0.16536 0.2976,0.49608 h 0.82666 q -0.0331,-0.33623 -0.18186,-0.59529 -0.1488,-0.25906 -0.38027,-0.43545 -0.22595,-0.17638 -0.51253,-0.26457 -0.28106,-0.0937 -0.58417,-0.0937 -0.45191,0 -0.81564,0.15984 -0.35822,0.15985 -0.60622,0.44096 -0.248,0.28111 -0.38026,0.66144 -0.13227,0.37481 -0.13227,0.81577 0,0.42993 0.13227,0.80475 0.13226,0.3693 0.38026,0.6449 0.248,0.2756 0.60622,0.43544 0.36373,0.15434 0.81564,0.15434 0.28657,0 0.56764,-0.11575 0.28106,-0.12127 0.51253,-0.41891 z"
       style="font-style:normal;font-variant:normal;font-weight:bold;font-stretch:normal;font-size:216.7772522px;line-height:87.99999952%;font-family:'Helvetica Neue';-inkscape-font-specification:'Helvetica Neue Bold';letter-spacing:4.07999992px;word-spacing:0px;fill:#b42126;fill-opacity:1;stroke:none;stroke-width:1.70332456px;stroke-linecap:butt;stroke-linejoin:miter;stroke-opacity:1"
       id="path6631" />
    <path
       inkscape:connector-curvature="0"
       d="m 125.95946,201.75319 v 2.84969 h 0.78257 v -1.28429 q 0,-0.19292 0.0386,-0.35828 0.0386,-0.16536 0.12676,-0.28662 0.0937,-0.12678 0.24248,-0.19843 0.1488,-0.0717 0.36373,-0.0717 0.0716,0 0.1488,0.011 0.0772,0.006 0.13227,0.0165 v -0.72758 q -0.0937,-0.0276 -0.17084,-0.0276 -0.1488,0 -0.28658,0.0441 -0.13778,0.0441 -0.25902,0.12677 -0.12125,0.0772 -0.21493,0.19292 -0.0937,0.11024 -0.1488,0.24253 h -0.011 v -0.52915 z"
       style="font-style:normal;font-variant:normal;font-weight:bold;font-stretch:normal;font-size:216.7772522px;line-height:87.99999952%;font-family:'Helvetica Neue';-inkscape-font-specification:'Helvetica Neue Bold';letter-spacing:4.07999992px;word-spacing:0px;fill:#b42126;fill-opacity:1;stroke:none;stroke-width:1.70332456px;stroke-linecap:butt;stroke-linejoin:miter;stroke-opacity:1"
       id="path6633" />
    <path
       inkscape:connector-curvature="0"
       d="m 129.6797,204.95564 1.19039,-3.20245 h -0.81013 l -0.62275,1.95124 h -0.011 l -0.6448,-1.95124 h -0.83217 l 0.99751,2.6733 q 0.0331,0.0827 0.0331,0.17639 0,0.12677 -0.0772,0.2315 -0.0716,0.10473 -0.22596,0.12126 -0.11573,0.006 -0.23146,-0.006 -0.11573,-0.011 -0.22595,-0.0221 v 0.64491 q 0.12124,0.011 0.23697,0.0165 0.12125,0.011 0.24249,0.011 0.40231,0 0.62826,-0.14882 0.22596,-0.14882 0.35271,-0.49608 z"
       style="font-style:normal;font-variant:normal;font-weight:bold;font-stretch:normal;font-size:216.7772522px;line-height:87.99999952%;font-family:'Helvetica Neue';-inkscape-font-specification:'Helvetica Neue Bold';letter-spacing:4.07999992px;word-spacing:0px;fill:#b42126;fill-opacity:1;stroke:none;stroke-width:1.70332456px;stroke-linecap:butt;stroke-linejoin:miter;stroke-opacity:1"
       id="path6635" />
    <path
       inkscape:connector-curvature="0"
       d="m 132.57203,204.09026 q -0.18738,0 -0.31964,-0.0772 -0.13227,-0.0772 -0.21494,-0.19843 -0.0772,-0.12678 -0.11573,-0.29214 -0.0331,-0.16536 -0.0331,-0.33623 0,-0.17638 0.0331,-0.34174 0.0331,-0.16536 0.11022,-0.29214 0.0827,-0.12677 0.20943,-0.20394 0.13226,-0.0827 0.32515,-0.0827 0.18738,0 0.31413,0.0827 0.13227,0.0772 0.21493,0.20946 0.0827,0.12677 0.11574,0.29213 0.0386,0.16536 0.0386,0.33623 0,0.17087 -0.0331,0.33623 -0.0331,0.16536 -0.11574,0.29214 -0.0771,0.12126 -0.20942,0.19843 -0.12675,0.0772 -0.31964,0.0772 z m -1.43839,-2.33707 v 3.84735 h 0.78257 v -1.35043 h 0.011 q 0.14329,0.20946 0.36374,0.3197 0.22595,0.10472 0.49048,0.10472 0.31413,0 0.5456,-0.12126 0.23697,-0.12126 0.39128,-0.32521 0.15982,-0.20394 0.23698,-0.46851 0.0772,-0.26458 0.0772,-0.5512 0,-0.30316 -0.0772,-0.57876 -0.0772,-0.28111 -0.23698,-0.49056 -0.15982,-0.20946 -0.40231,-0.33623 -0.24248,-0.12678 -0.57866,-0.12678 -0.26453,0 -0.48497,0.10473 -0.22045,0.10473 -0.36373,0.33623 h -0.011 v -0.36379 z"
       style="font-style:normal;font-variant:normal;font-weight:bold;font-stretch:normal;font-size:216.7772522px;line-height:87.99999952%;font-family:'Helvetica Neue';-inkscape-font-specification:'Helvetica Neue Bold';letter-spacing:4.07999992px;word-spacing:0px;fill:#b42126;fill-opacity:1;stroke:none;stroke-width:1.70332456px;stroke-linecap:butt;stroke-linejoin:miter;stroke-opacity:1"
       id="path6637" />
    <path
       inkscape:connector-curvature="0"
       d="m 134.38245,200.66733 v 3.93555 h 0.78257 v -1.49375 q 0,-0.43544 0.14329,-0.62285 0.14329,-0.19292 0.46293,-0.19292 0.28107,0 0.39129,0.17638 0.11022,0.17088 0.11022,0.52364 v 1.6095 h 0.78257 v -1.75281 q 0,-0.26457 -0.0496,-0.47954 -0.0441,-0.22048 -0.15982,-0.3693 -0.11573,-0.15434 -0.31964,-0.23702 -0.1984,-0.0882 -0.51253,-0.0882 -0.22044,0 -0.45191,0.11575 -0.23146,0.11024 -0.38026,0.35828 h -0.0165 v -1.48272 z"
       style="font-style:normal;font-variant:normal;font-weight:bold;font-stretch:normal;font-size:216.7772522px;line-height:87.99999952%;font-family:'Helvetica Neue';-inkscape-font-specification:'Helvetica Neue Bold';letter-spacing:4.07999992px;word-spacing:0px;fill:#b42126;fill-opacity:1;stroke:none;stroke-width:1.70332456px;stroke-linecap:butt;stroke-linejoin:miter;stroke-opacity:1"
       id="path6639" />
    <path
       inkscape:connector-curvature="0"
       d="m 138.22284,203.18079 q 0,-0.17087 0.0331,-0.33623 0.0331,-0.16536 0.11022,-0.29214 0.0827,-0.12677 0.21493,-0.20394 0.13226,-0.0827 0.33066,-0.0827 0.1984,0 0.33067,0.0827 0.13777,0.0772 0.21493,0.20394 0.0827,0.12678 0.11573,0.29214 0.0331,0.16536 0.0331,0.33623 0,0.17087 -0.0331,0.33623 -0.0331,0.15985 -0.11573,0.29213 -0.0772,0.12678 -0.21493,0.20395 -0.13227,0.0772 -0.33067,0.0772 -0.1984,0 -0.33066,-0.0772 -0.13227,-0.0772 -0.21493,-0.20395 -0.0772,-0.13228 -0.11022,-0.29213 -0.0331,-0.16536 -0.0331,-0.33623 z m -0.78258,0 q 0,0.34174 0.10472,0.61734 0.10471,0.2756 0.29759,0.47403 0.19289,0.19292 0.46293,0.29765 0.27005,0.10472 0.60622,0.10472 0.33618,0 0.60622,-0.10472 0.27555,-0.10473 0.46844,-0.29765 0.19289,-0.19843 0.2976,-0.47403 0.10471,-0.2756 0.10471,-0.61734 0,-0.34174 -0.10471,-0.61734 -0.10471,-0.28111 -0.2976,-0.47403 -0.19289,-0.19843 -0.46844,-0.30316 -0.27004,-0.11024 -0.60622,-0.11024 -0.33617,0 -0.60622,0.11024 -0.27004,0.10473 -0.46293,0.30316 -0.19288,0.19292 -0.29759,0.47403 -0.10472,0.2756 -0.10472,0.61734 z"
       style="font-style:normal;font-variant:normal;font-weight:bold;font-stretch:normal;font-size:216.7772522px;line-height:87.99999952%;font-family:'Helvetica Neue';-inkscape-font-specification:'Helvetica Neue Bold';letter-spacing:4.07999992px;word-spacing:0px;fill:#b42126;fill-opacity:1;stroke:none;stroke-width:1.70332456px;stroke-linecap:butt;stroke-linejoin:miter;stroke-opacity:1"
       id="path6641" />
    <path
       inkscape:connector-curvature="0"
       d="m 140.66962,201.75319 v 2.84969 h 0.78257 v -1.49375 q 0,-0.43544 0.14329,-0.62285 0.14328,-0.19292 0.46293,-0.19292 0.28106,0 0.39128,0.17638 0.11022,0.17088 0.11022,0.52364 v 1.6095 h 0.78258 v -1.75281 q 0,-0.26457 -0.0496,-0.47954 -0.0441,-0.22048 -0.15982,-0.3693 -0.11574,-0.15434 -0.31964,-0.23702 -0.1984,-0.0882 -0.51253,-0.0882 -0.248,0 -0.48498,0.11575 -0.23698,0.11024 -0.38577,0.35828 h -0.0165 v -0.39686 z"
       style="font-style:normal;font-variant:normal;font-weight:bold;font-stretch:normal;font-size:216.7772522px;line-height:87.99999952%;font-family:'Helvetica Neue';-inkscape-font-specification:'Helvetica Neue Bold';letter-spacing:4.07999992px;word-spacing:0px;fill:#b42126;fill-opacity:1;stroke:none;stroke-width:1.70332456px;stroke-linecap:butt;stroke-linejoin:miter;stroke-opacity:1"
       id="path6643" />
    <path
       inkscape:connector-curvature="0"
       d="m 122.87625,206.24545 v 3.20796 h 0.86524 v -3.20796 h 1.17937 v -0.72758 h -3.22398 v 0.72758 z"
       style="font-style:normal;font-variant:normal;font-weight:bold;font-stretch:normal;font-size:216.7772522px;line-height:87.99999952%;font-family:'Helvetica Neue';-inkscape-font-specification:'Helvetica Neue Bold';letter-spacing:4.07999992px;word-spacing:0px;fill:#b42126;fill-opacity:1;stroke:none;stroke-width:1.70332456px;stroke-linecap:butt;stroke-linejoin:miter;stroke-opacity:1"
       id="path6645" />
    <path
       inkscape:connector-curvature="0"
       d="m 125.24197,205.51787 v 3.93554 h 0.78257 v -1.49374 q 0,-0.43545 0.14329,-0.62285 0.14329,-0.19292 0.46293,-0.19292 0.28107,0 0.39129,0.17638 0.11022,0.17087 0.11022,0.52364 v 1.60949 h 0.78257 v -1.7528 q 0,-0.26458 -0.0496,-0.47954 -0.0441,-0.22048 -0.15982,-0.36931 -0.11573,-0.15433 -0.31964,-0.23701 -0.1984,-0.0882 -0.51253,-0.0882 -0.22044,0 -0.45191,0.11575 -0.23146,0.11024 -0.38026,0.35828 h -0.0165 v -1.48272 z"
       style="font-style:normal;font-variant:normal;font-weight:bold;font-stretch:normal;font-size:216.7772522px;line-height:87.99999952%;font-family:'Helvetica Neue';-inkscape-font-specification:'Helvetica Neue Bold';letter-spacing:4.07999992px;word-spacing:0px;fill:#b42126;fill-opacity:1;stroke:none;stroke-width:1.70332456px;stroke-linecap:butt;stroke-linejoin:miter;stroke-opacity:1"
       id="path6647" />
    <path
       inkscape:connector-curvature="0"
       d="m 130.33124,207.72265 h -1.27306 q 0.006,-0.0827 0.0331,-0.1874 0.0331,-0.10473 0.10471,-0.19843 0.0771,-0.0937 0.1984,-0.15434 0.12675,-0.0661 0.31413,-0.0661 0.28657,0 0.42435,0.15433 0.14329,0.15434 0.1984,0.45198 z m -1.27306,0.49608 h 2.05563 q 0.0221,-0.33072 -0.0551,-0.63387 -0.0771,-0.30316 -0.25351,-0.54018 -0.17084,-0.23701 -0.44089,-0.37481 -0.27004,-0.14331 -0.63377,-0.14331 -0.32515,0 -0.5952,0.11575 -0.26453,0.11575 -0.45741,0.31969 -0.19289,0.19843 -0.2976,0.47403 -0.10471,0.2756 -0.10471,0.5953 0,0.33071 0.0992,0.60631 0.10471,0.2756 0.29208,0.47403 0.18738,0.19843 0.45742,0.30867 0.27005,0.10473 0.60622,0.10473 0.48498,0 0.82666,-0.22048 0.34169,-0.22048 0.50702,-0.73309 h -0.68888 q -0.0386,0.13229 -0.20942,0.25355 -0.17085,0.11575 -0.40782,0.11575 -0.33067,0 -0.50702,-0.17087 -0.17636,-0.17087 -0.19289,-0.5512 z"
       style="font-style:normal;font-variant:normal;font-weight:bold;font-stretch:normal;font-size:216.7772522px;line-height:87.99999952%;font-family:'Helvetica Neue';-inkscape-font-specification:'Helvetica Neue Bold';letter-spacing:4.07999992px;word-spacing:0px;fill:#b42126;fill-opacity:1;stroke:none;stroke-width:1.70332456px;stroke-linecap:butt;stroke-linejoin:miter;stroke-opacity:1"
       id="path6649" />
    <path
       inkscape:connector-curvature="0"
       d="m 131.44409,207.48013 q 0.0165,-0.2756 0.13778,-0.4575 0.12124,-0.18189 0.30862,-0.29213 0.18738,-0.11024 0.41884,-0.15434 0.23698,-0.0496 0.47395,-0.0496 0.21494,0 0.43538,0.0331 0.22044,0.0276 0.40231,0.11575 0.18186,0.0882 0.2976,0.24804 0.11573,0.15433 0.11573,0.4134 v 1.48272 q 0,0.19292 0.022,0.3693 0.0221,0.17638 0.0772,0.26457 h -0.7936 q -0.022,-0.0661 -0.0386,-0.13228 -0.011,-0.0717 -0.0165,-0.14331 -0.18737,0.19291 -0.44088,0.27008 -0.25351,0.0772 -0.51804,0.0772 -0.20392,0 -0.38027,-0.0496 -0.17635,-0.0496 -0.30862,-0.15433 -0.13226,-0.10473 -0.20942,-0.26458 -0.0716,-0.15984 -0.0716,-0.38032 0,-0.24253 0.0827,-0.39687 0.0882,-0.15984 0.22044,-0.25355 0.13778,-0.0937 0.30863,-0.1378 0.17635,-0.0496 0.3527,-0.0772 0.17636,-0.0276 0.3472,-0.0441 0.17085,-0.0165 0.30311,-0.0496 0.13227,-0.0331 0.20942,-0.0937 0.0772,-0.0661 0.0717,-0.18741 0,-0.12677 -0.0441,-0.19843 -0.0386,-0.0772 -0.11022,-0.11575 -0.0661,-0.0441 -0.15982,-0.0551 -0.0882,-0.0165 -0.19289,-0.0165 -0.23147,0 -0.36374,0.0992 -0.13226,0.0992 -0.1543,0.33072 z m 1.80764,0.57876 q -0.0496,0.0441 -0.12676,0.0717 -0.0716,0.0221 -0.15982,0.0386 -0.0827,0.0165 -0.17635,0.0276 -0.0937,0.011 -0.18738,0.0276 -0.0882,0.0165 -0.17635,0.0441 -0.0827,0.0276 -0.1488,0.0772 -0.0606,0.0441 -0.0992,0.11575 -0.0386,0.0716 -0.0386,0.18189 0,0.10473 0.0386,0.17639 0.0386,0.0717 0.10471,0.11575 0.0661,0.0386 0.15431,0.0551 0.0882,0.0165 0.18186,0.0165 0.23147,0 0.35822,-0.0772 0.12676,-0.0772 0.18738,-0.1819 0.0606,-0.11024 0.0716,-0.22048 0.0165,-0.11024 0.0165,-0.17638 z"
       style="font-style:normal;font-variant:normal;font-weight:bold;font-stretch:normal;font-size:216.7772522px;line-height:87.99999952%;font-family:'Helvetica Neue';-inkscape-font-specification:'Helvetica Neue Bold';letter-spacing:4.07999992px;word-spacing:0px;fill:#b42126;fill-opacity:1;stroke:none;stroke-width:1.70332456px;stroke-linecap:butt;stroke-linejoin:miter;stroke-opacity:1"
       id="path6651" />
    <path
       inkscape:connector-curvature="0"
       d="m 135.53293,206.60372 v -0.85435 h -0.78257 v 0.85435 h -0.47396 v 0.52364 h 0.47396 v 1.68115 q 0,0.21497 0.0716,0.34726 0.0716,0.13229 0.19289,0.20394 0.12675,0.0717 0.28657,0.0937 0.16533,0.0276 0.3472,0.0276 0.11573,0 0.23698,-0.006 0.12124,-0.006 0.22044,-0.0221 v -0.60631 q -0.0551,0.011 -0.11573,0.0165 -0.0606,0.006 -0.12676,0.006 -0.1984,0 -0.26453,-0.0661 -0.0661,-0.0661 -0.0661,-0.26457 v -1.41107 h 0.57315 v -0.52364 z"
       style="font-style:normal;font-variant:normal;font-weight:bold;font-stretch:normal;font-size:216.7772522px;line-height:87.99999952%;font-family:'Helvetica Neue';-inkscape-font-specification:'Helvetica Neue Bold';letter-spacing:4.07999992px;word-spacing:0px;fill:#b42126;fill-opacity:1;stroke:none;stroke-width:1.70332456px;stroke-linecap:butt;stroke-linejoin:miter;stroke-opacity:1"
       id="path6653" />
    <path
       inkscape:connector-curvature="0"
       d="m 136.5556,206.60372 v 2.84969 h 0.78257 v -1.28429 q 0,-0.19291 0.0386,-0.35827 0.0386,-0.16536 0.12675,-0.28663 0.0937,-0.12677 0.24249,-0.19843 0.1488,-0.0717 0.36373,-0.0717 0.0716,0 0.1488,0.011 0.0771,0.006 0.13226,0.0165 v -0.72758 q -0.0937,-0.0276 -0.17084,-0.0276 -0.1488,0 -0.28658,0.0441 -0.13777,0.0441 -0.25902,0.12678 -0.12124,0.0772 -0.21493,0.19292 -0.0937,0.11024 -0.1488,0.24252 h -0.011 v -0.52915 z"
       style="font-style:normal;font-variant:normal;font-weight:bold;font-stretch:normal;font-size:216.7772522px;line-height:87.99999952%;font-family:'Helvetica Neue';-inkscape-font-specification:'Helvetica Neue Bold';letter-spacing:4.07999992px;word-spacing:0px;fill:#b42126;fill-opacity:1;stroke:none;stroke-width:1.70332456px;stroke-linecap:butt;stroke-linejoin:miter;stroke-opacity:1"
       id="path6655" />
    <path
       inkscape:connector-curvature="0"
       d="m 140.53414,207.72265 h -1.27306 q 0.006,-0.0827 0.0331,-0.1874 0.0331,-0.10473 0.10471,-0.19843 0.0771,-0.0937 0.1984,-0.15434 0.12675,-0.0661 0.31413,-0.0661 0.28657,0 0.42435,0.15433 0.14329,0.15434 0.1984,0.45198 z m -1.27306,0.49608 h 2.05563 q 0.0221,-0.33072 -0.0551,-0.63387 -0.0772,-0.30316 -0.25351,-0.54018 -0.17084,-0.23701 -0.44089,-0.37481 -0.27004,-0.14331 -0.63377,-0.14331 -0.32515,0 -0.5952,0.11575 -0.26453,0.11575 -0.45742,0.31969 -0.19288,0.19843 -0.29759,0.47403 -0.10471,0.2756 -0.10471,0.5953 0,0.33071 0.0992,0.60631 0.10471,0.2756 0.29208,0.47403 0.18738,0.19843 0.45742,0.30867 0.27005,0.10473 0.60622,0.10473 0.48498,0 0.82666,-0.22048 0.34169,-0.22048 0.50702,-0.73309 h -0.68888 q -0.0386,0.13229 -0.20942,0.25355 -0.17085,0.11575 -0.40782,0.11575 -0.33067,0 -0.50702,-0.17087 -0.17636,-0.17087 -0.19289,-0.5512 z"
       style="font-style:normal;font-variant:normal;font-weight:bold;font-stretch:normal;font-size:216.7772522px;line-height:87.99999952%;font-family:'Helvetica Neue';-inkscape-font-specification:'Helvetica Neue Bold';letter-spacing:4.07999992px;word-spacing:0px;fill:#b42126;fill-opacity:1;stroke:none;stroke-width:1.70332456px;stroke-linecap:butt;stroke-linejoin:miter;stroke-opacity:1"
       id="path6657" />
    <path
       id="path6607"
       d="m 114.65928,196.08433 c -0.16343,0.008 -0.19952,0.21927 -0.0548,0.34431 0.0943,0.0814 0.19095,0.13113 0.28478,0.16432 0.057,0.0202 0.0655,0.0418 0.003,0.079 -0.27856,0.1665 -0.37631,0.41476 -0.37631,0.58178 v 2.38466 l 0.002,0.004 4.96491,3.34788 0.0696,-0.92647 c 0.0912,-1.21516 -0.77628,-1.52567 -1.10979,-1.75199 -0.99285,-0.67381 -0.77968,-1.89389 0.30356,-1.90655 0.21643,-0.003 0.51623,0.0213 0.79019,0.39515 0.0313,0.0427 0.10415,0.0556 0.10757,-0.0254 0.0464,-1.09915 -0.31285,-1.90277 -1.61558,-1.98286 -0.79841,-0.0491 -1.35418,-0.0833 -1.79593,-0.14163 -0.72521,-0.0957 -0.95202,-0.35398 -1.47007,-0.54775 -0.0387,-0.0144 -0.0734,-0.0198 -0.10366,-0.0184 z m 1.84717,1.06029 c 0.14067,0.002 0.22555,0.053 0.22845,0.15923 -0.003,0.10663 -0.0547,0.14431 -0.12322,0.15417 -0.0469,0.007 -0.0809,-0.0225 -0.14121,-0.0207 -0.10935,0.003 -0.10842,0.061 -0.21398,0.0634 -0.0863,0.002 -0.13486,-0.0505 -0.14122,-0.12089 -0.01,-0.1096 0.18154,-0.22937 0.36224,-0.23474 0.01,0 0.0196,0 0.0289,0 z"
       style="fill:#b42126;fill-opacity:1;fill-rule:evenodd;stroke:none;stroke-width:0.31429952px;stroke-linecap:butt;stroke-linejoin:miter;stroke-opacity:1"
       inkscape:connector-curvature="0" />
    <path
       id="path6609"
       d="m 112.55824,204.19296 -1.85539,0.018 c -0.19207,0.0479 -0.23632,0.25571 0.0665,0.37011 l 6.18227,2.33538 1.78849,-0.004 c 0.2144,-0.0848 0.1653,-0.28952 -0.079,-0.38303 l -6.10246,-2.33613 z m -1.59173,3.55565 c -0.24983,0 -0.29605,0.19692 -0.28165,0.34429 l 0.12518,1.28134 c 0.007,0.0668 0.0313,0.14517 0.0829,0.14515 l 7.59444,-0.004 c 0.0852,-0.0112 0.31149,-0.21051 0.0473,-0.28601 l -5.16715,-1.47657 z"
       style="fill:#b42126;fill-opacity:1;fill-rule:evenodd;stroke:none;stroke-width:0.31429952px;stroke-linecap:butt;stroke-linejoin:miter;stroke-opacity:1"
       inkscape:connector-curvature="0" />
    <path
       sodipodi:nodetypes="sssscscscss"
       inkscape:connector-curvature="0"
       id="path6614"
       d="m 109.29438,196.13388 c -0.0236,3.1e-4 -0.0301,0.0269 -0.0236,0.0813 l 0.77473,6.5513 c 0.0575,0.48626 0.24148,0.55096 0.4248,0.62163 l 2.08814,0.80497 6.10282,2.33592 c 0.24432,0.0935 0.29334,0.29836 0.0789,0.38317 0.20786,-5.1e-4 0.41314,-0.15151 0.4301,-0.34522 l 0.313,-3.57655 -10.12717,-6.82896 c -0.0273,-0.0184 -0.0476,-0.0277 -0.0617,-0.0275 z"
       style="fill:#fdb720;fill-opacity:1;fill-rule:evenodd;stroke:none;stroke-width:0.31429949px;stroke-linecap:butt;stroke-linejoin:miter;stroke-opacity:1" />
    <path
       inkscape:connector-curvature="0"
       id="path6619"
       d="m 110.70278,204.21093 c -0.35851,0.003 -0.43232,0.11158 -0.41134,0.30858 l 0.21909,2.05721 c 0.0301,0.2827 0.18508,0.40041 0.46948,0.48298 l 2.38776,0.69319 5.167,1.47666 c 0.26415,0.0755 0.038,0.27452 -0.0472,0.28575 0.32733,-1.9e-4 0.46113,-0.18648 0.47842,-0.43418 l 0.076,-1.08898 c 0.0123,-0.1765 -0.0127,-0.29381 -0.23027,-0.37567 l -1.86011,-0.69986 -6.1822,-2.3356 c -0.30282,-0.1144 -0.25872,-0.32222 -0.0666,-0.37008 z"
       style="fill:#fdb71f;fill-opacity:1;fill-rule:evenodd;stroke:none;stroke-width:0.31429949px;stroke-linecap:butt;stroke-linejoin:miter;stroke-opacity:1" />
  </g>
</svg>
