<?xml version="1.0" encoding="UTF-8" standalone="no"?>
<!-- Created with Inkscape (http://www.inkscape.org/) -->

<svg
   xmlns:dc="http://purl.org/dc/elements/1.1/"
   xmlns:cc="http://creativecommons.org/ns#"
   xmlns:rdf="http://www.w3.org/1999/02/22-rdf-syntax-ns#"
   xmlns:svg="http://www.w3.org/2000/svg"
   xmlns="http://www.w3.org/2000/svg"
   xmlns:sodipodi="http://sodipodi.sourceforge.net/DTD/sodipodi-0.dtd"
   xmlns:inkscape="http://www.inkscape.org/namespaces/inkscape"
   width="81.655396"
   height="100"
   viewBox="0 0 21.604656 26.458334"
   version="1.1"
   id="svg1502"
   inkscape:version="0.92.4 (5da689c313, 2019-01-14)"
   sodipodi:docname="footer_menagerie.svg">
  <defs
     id="defs1496" />
  <sodipodi:namedview
     id="base"
     pagecolor="#ffffff"
     bordercolor="#666666"
     borderopacity="1.0"
     inkscape:pageopacity="0.0"
     inkscape:pageshadow="2"
     inkscape:zoom="1.15"
     inkscape:cx="62.001133"
     inkscape:cy="67.838196"
     inkscape:document-units="px"
     inkscape:current-layer="layer1"
     showgrid="false"
     units="px"
     fit-margin-top="0"
     fit-margin-left="0"
     fit-margin-right="0"
     fit-margin-bottom="0" />
  <metadata
     id="metadata1499">
    <rdf:RDF>
      <cc:Work
         rdf:about="">
        <dc:format>image/svg+xml</dc:format>
        <dc:type
           rdf:resource="http://purl.org/dc/dcmitype/StillImage" />
        <dc:title></dc:title>
      </cc:Work>
    </rdf:RDF>
  </metadata>
  <g
     inkscape:label="Layer 1"
     inkscape:groupmode="layer"
     id="layer1"
     transform="translate(-115.50313,-189.46445)">
    <path
       inkscape:connector-curvature="0"
       style="fill:#ffffff;fill-opacity:1;stroke-width:0.26458332"
       d="m 127.51345,194.75963 c -0.79315,-7e-4 -1.60808,0.0644 -2.43353,0.20092 -2.93493,0.48556 -5.45183,1.78292 -7.1521,3.49696 -1.10067,1.1096 -1.85912,2.39731 -2.1608,3.75011 -0.0879,0.0106 -0.1753,0.0213 -0.26404,0.0311 v 0.25533 c 4.32206,-0.41241 7.87736,-1.99321 11.27119,-3.57196 3.39513,-1.57933 6.62882,-3.15724 10.30404,-3.55008 l 0.005,0.0508 v -0.30677 c -1.43741,0.16927 -2.76082,0.48467 -4.02283,0.89237 -0.027,-0.0137 -0.0535,-0.0277 -0.0806,-0.0413 -1.55505,-0.77252 -3.43979,-1.20549 -5.46671,-1.20764 z m -1e-4,0.25595 c 1.92478,0.002 3.71509,0.40046 5.2013,1.10727 -1.14543,0.38839 -2.24332,0.85045 -3.33368,1.34503 0.007,-0.0682 0.0188,-0.25797 0.0268,-0.46466 l 0.0108,-0.2822 -0.26784,7e-4 -0.26783,7.1e-4 0.0646,0.0361 c 0.0356,0.0198 0.0852,0.0557 0.11045,0.0798 0.0412,0.0392 0.0457,0.0549 0.0457,0.15218 0,0.11615 -0.0279,0.19247 -0.0809,0.22081 -0.0857,0.0458 -0.23559,-0.008 -0.25684,-0.0931 -0.016,-0.064 0.0359,-1.10567 0.0572,-1.14541 0.0445,-0.0832 0.22541,-0.0911 0.29279,-0.0127 0.0202,0.0235 0.0369,0.0636 0.0369,0.0891 0,0.0653 -0.0408,0.15472 -0.0851,0.18704 -0.0414,0.0302 -0.0454,0.0302 0.26912,3.9e-4 l 0.11045,-0.0106 -1e-4,-0.12493 c -1e-4,-0.16838 -0.0202,-0.23035 -0.10616,-0.32584 -0.10569,-0.11756 -0.20674,-0.15847 -0.39275,-0.15878 -0.13228,-2e-4 -0.15605,0.004 -0.23326,0.0474 -0.0863,0.0479 -0.15451,0.12044 -0.18257,0.19422 -0.0983,0.28314 -0.0562,0.55364 -0.0599,0.86412 -0.01,0.12242 -0.01,0.44052 0.01,0.4982 0.0279,0.0858 0.0923,0.17413 0.15878,0.2177 0.10845,0.071 0.30399,0.0845 0.38685,0.0263 0.0458,-0.0322 0.0599,-0.0302 0.0599,0.007 0,0.0245 0.0138,0.0333 0.0613,0.0385 0.027,0.004 0.0867,0.002 0.13883,-7e-4 -3.89055,1.77189 -7.70018,3.94503 -13.25125,4.66385 0.30244,-1.2677 1.02422,-2.47931 2.07303,-3.53662 1.65682,-1.67022 4.12665,-2.94753 7.01238,-3.42494 0.81162,-0.13429 1.61254,-0.19809 2.39149,-0.19714 z m 9.57025,0.45876 c -3.6505,0.39139 -6.87174,1.96143 -10.26629,3.54051 -3.3962,1.57983 -6.96582,3.16801 -11.30943,3.58154 l -0.005,-0.0508 v 5.25741 c 3.28632,-0.31788 6.00608,-1.22224 8.49812,-2.28863 -0.0146,0.0412 -0.0265,0.083 -0.0338,0.12542 -2.47913,1.05565 -5.19018,1.94987 -8.45947,2.26548 l -0.005,-0.0508 v 0.40903 c 0.72983,-0.0982 1.42326,-0.21291 2.08551,-0.34133 0.60916,0.58571 1.33889,1.08992 2.1604,1.49803 2.16357,1.07481 4.96543,1.49226 7.90037,1.0067 2.93493,-0.48555 5.45174,-1.7829 7.15199,-3.49695 1.64361,-1.65693 2.52542,-3.71076 2.26007,-5.78599 0.007,-7.1e-4 0.0148,-0.002 0.0223,-0.002 v -0.35759 c -3.808,0.39693 -6.9031,1.95173 -10.19587,3.522 -0.0136,0.006 -0.0272,0.0129 -0.0408,0.0195 -0.006,-0.0363 -0.0178,-0.0672 -0.0361,-0.0951 -2.1e-4,-4e-4 -3.9e-4,-4e-4 -7.1e-4,-7.1e-4 0.0111,-0.005 0.0224,-0.0106 0.0335,-0.016 3.29309,-1.57042 6.40244,-3.1336 10.23463,-3.53191 l 0.005,0.0508 z m -8.77326,0.11224 -0.10462,0.0109 c -0.0576,0.006 -0.18086,0.011 -0.27403,0.011 -0.15484,0 -0.21657,0.0166 -0.13811,0.037 0.0501,0.0131 0.0834,0.0997 0.0912,0.23687 0.0161,0.28309 0.0219,0.68062 0.01,0.64231 -0.0121,-0.0375 -0.0526,-0.13229 -0.25424,-0.59718 -0.10042,-0.23133 -0.10147,-0.2368 -0.0554,-0.27222 0.038,-0.0293 0.0354,-0.0297 -0.15758,-0.0288 -0.10798,3.9e-4 -0.23312,0.006 -0.27812,0.0131 -0.08,0.0118 -0.0808,0.0125 -0.0368,0.0308 0.0247,0.0105 0.045,0.0258 0.045,0.0344 0,0.008 0.0106,0.0256 0.0222,0.0378 0.0167,0.0168 0.0252,0.1219 0.034,0.4307 0.006,0.22468 0.0143,0.43796 0.0173,0.47395 0.004,0.036 0.0106,0.213 0.0161,0.39334 0.0117,0.35459 0.006,0.3905 -0.0688,0.43591 -0.0388,0.0236 -0.0219,0.025 0.22619,0.0182 0.29244,-0.008 0.31711,-0.0109 0.26822,-0.0306 -0.0378,-0.0152 -0.0684,-0.0491 -0.0894,-0.0995 -0.0147,-0.0351 -0.0576,-0.95216 -0.045,-0.96466 0.004,-0.002 0.0378,0.069 0.076,0.16127 0.0382,0.0923 0.0792,0.18611 0.0909,0.20861 0.018,0.0343 0.0546,0.12029 0.17107,0.40094 0.007,0.018 0.0263,0.0631 0.0417,0.10031 0.0322,0.0773 0.0218,0.11102 -0.0526,0.17047 l -0.0451,0.0359 0.24546,-0.01 c 0.13497,-0.005 0.26011,-0.0106 0.27811,-0.0106 0.0264,-4e-4 0.0227,-0.007 -0.0202,-0.0345 -0.0349,-0.0223 -0.0584,-0.0544 -0.0689,-0.0939 -0.008,-0.0329 -0.0238,-0.32494 -0.0334,-0.6489 -0.01,-0.32395 -0.0217,-0.67576 -0.0268,-0.78182 l -0.01,-0.19283 0.0631,-0.0595 z m -1.44639,0.0909 c -0.0303,-7e-4 -0.11056,0.008 -0.27973,0.0274 -0.21855,0.0249 -0.24752,0.0313 -0.2095,0.0472 0.0712,0.0297 0.0979,0.0888 0.11374,0.25334 0.008,0.0831 0.0289,0.27991 0.0465,0.4374 0.0177,0.15747 0.036,0.33047 0.0409,0.38446 0.005,0.054 0.0223,0.21224 0.039,0.35172 0.0334,0.27916 0.0258,0.33678 -0.0496,0.37847 l -0.0382,0.0211 0.049,0.01 c 0.0269,0.005 0.0528,0.004 0.0573,-7.1e-4 0.01,-0.0119 0.24283,-0.0364 0.3667,-0.0385 0.0925,-7e-4 0.11557,-0.0306 0.044,-0.0556 -0.0627,-0.0218 -0.0928,-0.083 -0.10616,-0.21569 -0.006,-0.0585 -0.0175,-0.16897 -0.0258,-0.24546 -0.0681,-0.6298 -0.11618,-1.11284 -0.11774,-1.18256 -7.1e-4,-0.074 0.004,-0.0886 0.0496,-0.12941 0.0306,-0.0274 0.0501,-0.0407 0.0198,-0.0424 z m -1.05823,0.14361 c -0.0687,0 -0.51147,0.0668 -0.61225,0.0925 l -0.0409,0.0106 0.0395,0.0106 c 0.0636,0.0165 0.10326,0.0876 0.12613,0.22558 0.0116,0.0701 0.0365,0.21218 0.0552,0.31567 0.0377,0.20865 0.0797,0.45982 0.12882,0.76894 0.0178,0.11248 0.0404,0.23919 0.0499,0.2815 0.0202,0.089 0.004,0.15172 -0.0526,0.19832 l -0.0358,0.0298 0.0571,-0.01 c 0.0315,-0.005 0.15737,-0.0241 0.27971,-0.042 0.12234,-0.0181 0.24747,-0.0414 0.27812,-0.052 0.13111,-0.045 0.2408,-0.14282 0.2849,-0.25404 0.0281,-0.0707 0.0206,-0.14733 -0.0566,-0.58579 -0.007,-0.045 -0.037,-0.21299 -0.0648,-0.37329 -0.0572,-0.33109 -0.0922,-0.42781 -0.18506,-0.51168 -0.0828,-0.0747 -0.15491,-0.10493 -0.25115,-0.10493 z m -0.85033,0.13342 c -0.002,-1.7e-4 -0.006,7e-4 -0.012,0.004 -0.0161,0.005 -0.10808,0.029 -0.20452,0.0517 -0.27139,0.0639 -0.31439,0.077 -0.30487,0.0924 0.005,0.007 0.0217,0.0142 0.0375,0.0142 0.0614,0 0.10615,0.1 0.18703,0.41723 0.10875,0.4264 0.10816,0.42401 0.10433,0.4278 -0.002,0.002 -0.0345,-0.042 -0.0725,-0.0977 -0.038,-0.0556 -0.11754,-0.16737 -0.17685,-0.24836 -0.0594,-0.081 -0.11226,-0.15827 -0.11765,-0.17177 -0.005,-0.0136 -0.0417,-0.0655 -0.0806,-0.11553 -0.0781,-0.10041 -0.0836,-0.12139 -0.0438,-0.16548 0.0375,-0.0414 0.0219,-0.0397 -0.23806,0.0276 -0.27355,0.0707 -0.28571,0.0756 -0.2243,0.0882 0.0595,0.0122 0.10733,0.0752 0.12703,0.16746 0.0178,0.0834 0.0369,0.16008 0.0629,0.25126 0.0216,0.0766 0.0385,0.14289 0.0706,0.27812 0.0232,0.0983 0.0655,0.26985 0.0966,0.39274 0.01,0.036 0.0229,0.0838 0.0306,0.10637 0.007,0.0224 0.0177,0.0594 0.0221,0.0818 0.0218,0.11155 0.0599,0.27418 0.075,0.31996 0.0193,0.0585 0.01,0.0968 -0.0396,0.15279 l -0.0343,0.0392 0.0409,-0.0112 c 0.0224,-0.006 0.0887,-0.0219 0.1472,-0.0349 0.12294,-0.0272 0.32836,-0.0853 0.33883,-0.0958 0.004,-0.004 -0.0157,-0.0122 -0.0436,-0.0183 -0.0279,-0.006 -0.0612,-0.0269 -0.0736,-0.0465 -0.0125,-0.0194 -0.0751,-0.23787 -0.13921,-0.48533 -0.0641,-0.24745 -0.12036,-0.46104 -0.12492,-0.47454 -0.0154,-0.0455 0.0322,0.0158 0.16497,0.21272 0.0698,0.10345 0.14318,0.20657 0.16317,0.22907 0.0908,0.10526 0.16091,0.23568 0.23677,0.34632 0.0306,0.0567 0.0352,0.0893 -0.005,0.14909 -0.0227,0.0335 -0.038,0.0607 -0.0339,0.0607 0.004,0 0.12089,-0.0294 0.25954,-0.0655 0.13864,-0.036 0.25841,-0.0656 0.26613,-0.0658 0.007,-1.9e-4 -0.0168,-0.0143 -0.0544,-0.0315 -0.10104,-0.0489 -0.12087,-0.1995 -0.15569,-0.32027 -0.0141,-0.0229 -0.26581,-1.02166 -0.31006,-1.23 -0.01,-0.0467 -0.0137,-0.0966 -0.008,-0.11063 0.005,-0.0141 0.008,-0.0286 0.006,-0.0323 -0.002,-0.002 0.0148,-0.0268 0.0373,-0.0515 0.0234,-0.0257 0.0308,-0.0367 0.0236,-0.0372 z m 11.53992,0.13012 c 0.008,0.002 0.0153,0.007 0.0186,0.0122 0.004,0.004 0.005,0.008 0.006,0.0123 0.002,0.007 0.004,0.0155 0.004,0.0259 0.004,0.0416 0.004,0.12357 0.004,0.28292 v 0.33323 a 0.02556716,0.02556716 0 0 1 -0.0468,0.0143 l -0.0368,-0.0544 c -0.0409,-0.0602 -0.15273,-0.11923 -0.2267,-0.11903 a 0.02556716,0.02556716 0 0 0 -1.1e-4,0 c -0.0142,4e-5 -0.0569,0.004 -0.10864,0.0119 -0.0517,0.007 -0.11418,0.0175 -0.17457,0.0285 -0.0607,0.0112 -0.11647,0.0213 -0.15727,0.0287 -0.0201,0.004 -0.0363,0.006 -0.0479,0.008 -1.4e-4,0.005 -1.8e-4,0.01 -3.7e-4,0.017 -3.8e-4,0.0244 -7.1e-4,0.0597 -0.002,0.10348 -7.1e-4,0.0874 -7.1e-4,0.20805 -7.1e-4,0.34073 0,0.13267 3.8e-4,0.25325 7.1e-4,0.34061 3.7e-4,0.0438 7e-4,0.0792 0.002,0.10347 5e-5,7.1e-4 5e-5,0.002 1e-4,0.004 0.0148,-0.005 0.0327,-0.012 0.0526,-0.0195 0.0489,-0.0186 0.15034,-0.0443 0.23197,-0.0596 0.16218,-0.0303 0.24287,-0.0677 0.2872,-0.12403 l 0.0342,-0.0435 a 0.02556716,0.02556716 0 0 1 0.0456,0.016 l -0.002,0.41533 c -7.1e-4,0.20557 -7.1e-4,0.30788 -0.005,0.35291 -7.1e-4,0.0112 -7.1e-4,0.018 -0.005,0.0277 -7.1e-4,0.002 -0.002,0.005 -0.005,0.008 -0.002,0.004 -0.01,0.008 -0.0178,0.01 -0.008,7e-4 -0.015,-0.002 -0.0187,-0.005 -0.004,-0.004 -0.005,-0.005 -0.007,-0.007 -0.006,-0.008 -0.007,-0.0136 -0.0106,-0.0216 -0.004,-0.008 -0.005,-0.0173 -0.01,-0.0279 -0.0467,-0.14878 -0.14486,-0.23139 -0.26594,-0.23139 -0.0122,0 -0.043,0.004 -0.0778,0.0122 -0.0349,0.007 -0.0747,0.0186 -0.11095,0.0304 l -0.11803,0.0385 -0.005,0.0981 c -0.004,0.0592 -0.008,0.46489 -0.0105,0.89297 l -0.004,0.74787 0.13842,-0.0244 c 0.0927,-0.0163 0.23515,-0.0414 0.31655,-0.0559 l 0.12932,-0.0228 0.0191,-0.16389 c 0.0228,-0.19525 0.0683,-0.38688 0.12703,-0.54844 0.0587,-0.16155 0.12974,-0.29294 0.2085,-0.36919 l 0.0673,-0.0651 a 0.02556716,0.02556716 0 0 1 0.0405,0.0299 l -0.0572,0.11414 c -0.0298,0.0594 -0.0671,0.16906 -0.0804,0.23617 -0.0448,0.22578 -0.0301,0.63379 0.034,0.91492 0.0127,0.0557 0.0202,0.0897 0.0106,0.12044 -0.005,0.0154 -0.0175,0.029 -0.0319,0.0352 -0.0142,0.006 -0.0289,0.007 -0.0456,0.007 0.004,-4e-5 -6e-5,1e-4 -0.002,3.7e-4 -0.004,4.2e-4 -0.007,7.1e-4 -0.0125,7.1e-4 -0.0107,0.002 -0.0257,0.004 -0.0445,0.007 -0.0377,0.006 -0.0908,0.0152 -0.15529,0.0263 -0.12892,0.0223 -0.30346,0.053 -0.49231,0.0868 -0.18894,0.0338 -0.3625,0.0643 -0.49001,0.0866 -0.0637,0.0111 -0.11598,0.0202 -0.1529,0.0264 -0.0184,0.004 -0.0331,0.005 -0.0435,0.007 -0.005,7e-4 -0.01,0.002 -0.0125,0.002 -0.004,3.9e-4 -0.002,7.1e-4 -0.008,7.1e-4 -0.004,-1e-5 -0.0127,3.9e-4 -0.0212,-0.01 -0.008,-0.01 -0.006,-0.0232 -0.004,-0.0286 0.004,-0.0107 0.008,-0.0122 0.0125,-0.0161 0.008,-0.007 0.0201,-0.0157 0.0351,-0.0249 0.0505,-0.0308 0.11876,-0.11388 0.1411,-0.17267 -7.1e-4,0.004 7.1e-4,-0.006 0.002,-0.0184 7.1e-4,-0.0126 0.002,-0.0302 0.004,-0.0524 0.002,-0.0444 0.005,-0.10677 0.007,-0.18505 0.004,-0.15656 0.008,-0.37659 0.0118,-0.64331 l 0.008,-0.79459 -0.005,0.006 c -0.0261,0.0294 -0.0681,0.0869 -0.09,0.12313 -0.0117,0.0195 -0.0231,0.0372 -0.0322,0.0504 -0.004,0.006 -0.008,0.0119 -0.012,0.0163 -7.1e-4,0.002 -0.004,0.004 -0.005,0.006 -7.1e-4,7e-4 -0.002,0.002 -0.004,0.004 -7e-4,7.1e-4 -0.002,7.1e-4 -0.004,0.004 -7.1e-4,4.2e-4 -0.002,7.1e-4 -0.004,0.002 -7.1e-4,4.1e-4 -0.006,7e-4 -0.006,7e-4 -0.008,0 -0.0182,-0.005 -0.0223,-0.0114 -0.004,-0.005 -0.005,-0.0106 -0.005,-0.0137 -7.1e-4,-0.007 -3.7e-4,-0.0117 3.7e-4,-0.0172 0.002,-0.0111 0.004,-0.0241 0.01,-0.0399 0.008,-0.0318 0.0234,-0.0739 0.0404,-0.11915 0.0339,-0.0906 0.0772,-0.1924 0.10915,-0.24614 l 0.0404,-0.0676 v -0.65861 -0.6554 l -0.0421,-0.0444 c -0.0246,-0.0259 -0.0673,-0.0569 -0.0811,-0.0625 -0.0129,-0.005 -0.0227,-0.0106 -0.0315,-0.0182 -0.004,-0.004 -0.0108,-0.008 -0.0119,-0.0223 -3.7e-4,-0.006 0.002,-0.0156 0.007,-0.0209 0.004,-0.005 0.01,-0.007 0.0134,-0.008 0.004,-0.002 0.005,-0.002 0.007,-0.002 0.002,-3.6e-4 0.005,-7e-4 0.01,-0.002 0.008,-7.1e-4 0.0195,-0.004 0.0335,-0.006 0.0283,-0.005 0.0677,-0.0127 0.11604,-0.0213 0.0965,-0.0175 0.22722,-0.0409 0.36899,-0.066 0.1417,-0.025 0.276,-0.0491 0.37828,-0.0677 0.1023,-0.0186 0.17554,-0.0325 0.18474,-0.0347 0.0542,-0.0131 0.0946,-0.0415 0.12872,-0.0911 0.004,-0.005 0.006,-0.01 0.0113,-0.0147 0.002,-0.002 0.005,-0.005 0.01,-0.007 0.004,-0.004 0.0122,-0.005 0.0209,-0.004 z m -10.7605,0.0465 c 0.0517,3.7e-4 0.10729,0.008 0.12253,0.0242 0.0129,0.0129 0.0233,0.0313 0.0233,0.0412 0,0.01 0.007,0.0305 0.0154,0.0462 l 0.15689,0.84863 c 0.0257,0.171 0.0257,0.18479 -3.9e-4,0.22459 -0.0183,0.0278 -0.0484,0.0458 -0.0875,0.0524 -0.0329,0.005 -0.0726,0.0137 -0.0885,0.018 -0.0351,0.01 -0.0365,0.005 -0.0683,-0.19892 -0.0141,-0.09 -0.0585,-0.35503 -0.099,-0.58899 -0.0404,-0.23397 -0.0736,-0.43463 -0.0737,-0.44588 -1.5e-4,-0.015 0.0477,-0.0219 0.0994,-0.0213 z m -2.18018,0.19732 c -0.004,5e-5 -0.068,0.0228 -0.14449,0.0507 -0.0766,0.0279 -0.18329,0.0656 -0.23729,0.0839 -0.12265,0.0415 -0.13757,0.0547 -0.0763,0.067 0.0643,0.0129 0.10263,0.071 0.16348,0.24836 0.0278,0.081 0.066,0.18778 0.0847,0.23726 0.0457,0.12034 0.19526,0.55192 0.21261,0.61355 0.007,0.0269 0.0298,0.0923 0.0496,0.14502 0.0426,0.11359 0.032,0.17688 -0.038,0.22927 -0.0599,0.0448 -0.16329,0.0456 -0.20711,0.002 -0.0298,-0.0299 -0.0896,-0.18687 -0.27062,-0.71141 -0.0388,-0.11248 -0.10072,-0.28762 -0.1375,-0.38926 -0.0368,-0.10167 -0.0671,-0.20022 -0.0671,-0.219 0,-0.0188 0.0152,-0.0588 0.0339,-0.089 l 0.0339,-0.0549 -0.20162,0.0716 c -0.26434,0.0939 -0.32683,0.12108 -0.28151,0.12283 0.0758,0.002 0.11435,0.0595 0.19294,0.2831 l 0.27162,0.76545 c 0.11715,0.35013 0.15223,0.4063 0.31076,0.4986 0.0675,0.0393 0.0859,0.0424 0.2209,0.0369 0.11407,-0.004 0.16376,-0.0147 0.22081,-0.0442 0.12067,-0.0625 0.17603,-0.11314 0.22009,-0.20152 0.0703,-0.14112 0.0619,-0.19219 -0.11464,-0.69964 -0.23335,-0.67044 -0.30179,-0.87619 -0.30179,-0.90774 0,-0.0156 0.0153,-0.0533 0.0341,-0.0836 0.0187,-0.0303 0.0318,-0.055 0.0286,-0.055 z m 11.35189,0.15269 a 0.02556716,0.02556716 0 0 1 0.0193,0.0435 l -0.0825,0.0831 c -0.0496,0.0499 -0.0854,0.10464 -0.0948,0.13743 -7e-4,0.004 -0.005,0.0334 -0.007,0.077 -0.004,0.0438 -0.005,0.1042 -0.007,0.18085 -0.004,0.15332 -0.008,0.37153 -0.0119,0.6516 -0.005,0.46796 -0.0138,1.186 -0.0192,1.59578 -0.004,0.31666 -0.005,0.50504 -0.004,0.61956 0.002,0.1145 0.008,0.15447 0.016,0.17185 0.0284,0.0671 0.0678,0.10145 0.12801,0.11394 0.007,7.1e-4 0.0125,0.002 0.0208,0.007 0.004,0.002 0.0105,0.007 0.013,0.0177 0.002,0.01 -0.002,0.02 -0.005,0.0247 -0.007,0.01 -0.0134,0.0114 -0.0209,0.0148 -0.007,0.004 -0.0166,0.006 -0.0283,0.0106 -0.0467,0.0155 -0.13416,0.0383 -0.28421,0.076 l -0.36001,0.0902 a 0.02556716,0.02556716 0 0 1 -0.0242,-0.0428 l 0.0847,-0.0847 c 0.054,-0.054 0.0856,-0.10262 0.0942,-0.13649 -5e-5,1.7e-4 7.1e-4,-0.0106 0.002,-0.0242 7.1e-4,-0.0138 0.002,-0.0327 0.004,-0.0556 0.002,-0.046 0.005,-0.10863 0.007,-0.18324 0.004,-0.14921 0.008,-0.34645 0.0116,-0.55553 0.0161,-1.27856 0.0241,-1.88969 0.0246,-2.18746 1.9e-4,-0.14891 -7e-4,-0.2198 -0.004,-0.25456 -0.004,-0.0347 -0.004,-0.0276 -0.013,-0.0445 -0.0141,-0.0274 -0.0378,-0.0554 -0.0621,-0.0751 -0.0243,-0.0199 -0.0504,-0.0304 -0.0618,-0.0304 -0.01,0 -0.0168,-1.8e-4 -0.0246,-7e-4 -0.004,-7.1e-4 -0.007,-7.1e-4 -0.0146,-0.005 -0.004,-0.002 -0.008,-0.007 -0.0106,-0.0142 -0.002,-0.007 -7.1e-4,-0.0156 0.002,-0.0204 0.004,-0.01 0.01,-0.011 0.0127,-0.0132 0.004,-0.002 0.007,-0.004 0.0108,-0.005 0.007,-0.004 0.0177,-0.006 0.0306,-0.011 0.0515,-0.0166 0.15105,-0.0428 0.31486,-0.0839 l 0.34074,-0.0854 a 0.02556716,0.02556716 0 0 1 0.005,-7.1e-4 z m -1.43641,0.43569 c 0.0595,0.002 0.10828,0.019 0.16238,0.046 0.11294,0.0563 0.20009,0.17784 0.22937,0.31537 0.013,0.0609 0.0166,0.1978 0.0125,0.36579 -0.005,0.24529 -0.012,0.29217 -0.0519,0.40325 -0.0503,0.14045 -0.16477,0.32101 -0.25774,0.40263 -0.0107,0.01 -0.0188,0.0173 -0.0272,0.0252 0.005,7e-4 0.008,0.002 0.0147,0.004 0.0465,0.008 0.0962,0.042 0.1435,0.0848 0.0473,0.0428 0.0909,0.0954 0.11654,0.1475 l 0.0383,0.0775 a 0.02556716,0.02556716 0 0 1 0.004,0.0114 v 0.73099 c 0,0.35737 1.8e-4,0.54056 0.004,0.63851 0.002,0.049 0.005,0.0766 0.01,0.0925 0.004,0.016 0.007,0.0204 0.0152,0.0311 0.0141,0.0191 0.0526,0.0465 0.0728,0.0525 0.0153,0.004 0.0293,0.0105 0.0405,0.0156 0.005,0.004 0.0106,0.005 0.0152,0.01 0.002,7.1e-4 0.005,0.002 0.007,0.007 0.004,0.004 0.006,0.008 0.006,0.0184 0,2e-5 -4.2e-4,0.005 -4.2e-4,0.005 0,3e-5 -7e-4,0.002 -7e-4,0.004 -7.1e-4,0.002 -0.002,0.004 -0.004,0.005 -7.1e-4,0.002 -0.004,0.004 -0.004,0.005 -0.002,0.002 -0.004,0.004 -0.005,0.004 -0.004,0.002 -0.005,0.002 -0.007,0.004 -0.005,0.002 -0.012,0.005 -0.0204,0.008 -0.017,0.006 -0.0409,0.0154 -0.0703,0.0257 -0.059,0.0207 -0.13983,0.0479 -0.22888,0.0764 -0.0888,0.0285 -0.17142,0.0552 -0.23288,0.0754 -0.0308,0.0106 -0.0562,0.0184 -0.0745,0.0247 -0.01,0.004 -0.0163,0.005 -0.0216,0.007 -0.005,0.002 -0.0106,0.004 -0.007,0.004 -0.002,7.1e-4 -0.004,0.002 -0.006,0.002 -0.002,3.9e-4 -0.004,7e-4 -0.007,7e-4 -7e-4,-5e-5 -0.006,-7e-4 -0.006,-7e-4 -4e-5,-3e-5 -0.008,-0.004 -0.008,-0.004 -1e-5,-2e-5 -0.007,-0.008 -0.007,-0.01 -1e-5,-4e-5 -0.002,-0.01 -0.002,-0.01 0,-4e-5 5e-5,-0.004 4.2e-4,-0.006 1.8e-4,-7.1e-4 3.8e-4,-0.004 7e-4,-0.004 7.1e-4,-0.004 0.004,-0.006 0.004,-0.007 0.004,-0.006 0.006,-0.008 0.0113,-0.0125 0.008,-0.008 0.0227,-0.0213 0.0398,-0.036 0.0714,-0.0607 0.1297,-0.16175 0.1405,-0.23857 4.1e-4,-0.004 0.002,-0.0339 0.004,-0.0756 7e-4,-0.0417 0.004,-0.0979 0.004,-0.16457 0.002,-0.13331 0.004,-0.30834 0.005,-0.49272 0.002,-0.37095 0.004,-0.56081 -0.008,-0.66887 -0.0118,-0.10808 -0.0319,-0.13101 -0.0811,-0.18855 -0.0596,-0.0696 -0.14421,-0.095 -0.24665,-0.0714 -0.0433,0.01 -0.11116,0.0127 -0.16088,0.007 l -0.0552,-0.006 -0.0107,0.90006 c -0.004,0.25522 -0.005,0.49272 -0.005,0.66976 -1.8e-4,0.0885 -1e-5,0.16197 3.9e-4,0.2148 2.1e-4,0.0264 4.1e-4,0.0478 7.1e-4,0.063 4.1e-4,0.0153 0.002,0.0276 7.1e-4,0.0249 0.004,0.0258 0.0246,0.057 0.0511,0.0803 0.0265,0.0233 0.059,0.0377 0.0821,0.0377 0.0152,0 0.0281,7.1e-4 0.0387,0.004 0.005,7e-4 0.01,0.002 0.0165,0.005 0.004,0.002 0.01,0.005 0.0131,0.0152 0.004,0.0106 -0.002,0.0236 -0.006,0.0283 -0.005,0.005 -0.006,0.004 -0.007,0.005 -7.1e-4,3.7e-4 -0.002,7e-4 -0.002,0.002 -0.002,7e-4 -0.004,7e-4 -0.007,0.002 -0.005,0.002 -0.0133,0.005 -0.0228,0.008 -0.019,0.006 -0.0454,0.0157 -0.077,0.0264 -0.0631,0.0211 -0.14654,0.0486 -0.23028,0.0757 -0.0837,0.0272 -0.16775,0.054 -0.23198,0.0743 -0.0322,0.0106 -0.0592,0.0183 -0.0791,0.0244 -0.01,0.004 -0.018,0.005 -0.0241,0.007 -0.004,7e-4 -0.005,0.002 -0.007,0.002 -0.002,3.9e-4 -0.002,7e-4 -0.01,7e-4 -0.006,0 -0.0182,-0.004 -0.0229,-0.0136 -0.005,-0.008 -0.004,-0.0151 -0.004,-0.0186 7.1e-4,-0.007 0.004,-0.008 0.004,-0.0115 0.004,-0.005 0.007,-0.0106 0.0119,-0.0161 0.01,-0.012 0.0238,-0.0276 0.0404,-0.045 l 1e-4,-1.1e-4 c 0.0299,-0.0311 0.073,-0.0908 0.091,-0.12554 0.008,-0.0172 0.0137,-0.0266 0.0186,-0.052 0.005,-0.0254 0.008,-0.0666 0.0118,-0.13991 0.006,-0.14664 0.01,-0.4218 0.0163,-0.96647 0.007,-0.60467 0.0139,-1.34435 0.0143,-1.64312 l 7.1e-4,-0.53396 -0.0385,-0.0434 c -0.0213,-0.0238 -0.0649,-0.0496 -0.0885,-0.0545 l -0.057,-0.0119 a 0.02556716,0.02556716 0 0 1 -0.002,-0.0494 l 0.10634,-0.0334 c 0.0583,-0.0183 0.25893,-0.0823 0.44549,-0.1422 0.19858,-0.0636 0.31824,-0.0982 0.40923,-0.10784 0.0227,-0.002 0.0438,-0.004 0.0636,-0.002 z m -11.52056,0.0353 c -0.0474,-1.1e-4 -0.0792,0.0122 -0.16127,0.052 -0.14349,0.0692 -0.23476,0.16833 -0.27921,0.30307 -0.0503,0.15242 -0.039,0.20989 0.0969,0.49373 0.0495,0.10347 0.11519,0.24337 0.14599,0.31086 0.228,0.49951 0.25576,0.5439 0.39836,0.63582 0.0671,0.0433 0.0853,0.0472 0.20451,0.0445 0.14883,-0.004 0.28438,-0.0449 0.34512,-0.10557 0.0894,-0.0602 0.14538,-0.2028 0.16447,-0.32375 0.0131,-0.11094 -0.0136,-0.18781 -0.20122,-0.5747 -0.11807,-0.23957 -0.17967,-0.50568 -0.35481,-0.69525 -0.0736,-0.0736 -0.18715,-0.12482 -0.30378,-0.137 -0.0217,-0.002 -0.0392,-0.002 -0.055,-0.002 z m 11.35308,0.11702 c -0.0415,4.1e-4 -0.086,0.0106 -0.12832,0.0293 -0.0846,0.0375 -0.15749,0.10804 -0.17976,0.18894 -7e-4,0.004 -0.004,0.0238 -0.006,0.051 -0.002,0.0272 -0.004,0.063 -0.006,0.10442 -0.004,0.0829 -0.007,0.18897 -0.008,0.29779 -0.002,0.18425 -0.002,0.28373 7.1e-4,0.33473 0.002,0.0248 0.005,0.0374 0.005,0.0398 0.0264,0.004 0.0485,0.0163 0.0685,0.0342 0.0111,0.01 0.0211,0.0206 0.0288,0.0321 0.008,0.0115 0.0147,0.0231 0.0147,0.0397 0,0.005 1.1e-4,0.0115 -0.004,0.0199 -0.004,0.008 -0.0184,0.0156 -0.0276,0.0152 -0.0184,-7e-4 -0.0234,-0.008 -0.0331,-0.0165 -0.0106,-0.008 -0.016,-0.007 -0.0279,7e-4 -0.012,0.008 -0.0258,0.0294 -0.031,0.0581 -0.01,0.0483 -0.008,0.0968 -4.2e-4,0.1371 0.008,0.0402 0.0242,0.0715 0.0417,0.0866 0.0229,0.0199 0.0421,0.0282 0.0698,0.0294 0.0276,7.1e-4 0.0647,-0.006 0.11695,-0.0252 0.15178,-0.0542 0.27742,-0.21237 0.31875,-0.40864 0.0266,-0.12643 0.0394,-0.64637 0.0189,-0.77813 -0.0108,-0.0696 -0.0241,-0.11855 -0.0428,-0.15508 -0.0186,-0.0365 -0.042,-0.0615 -0.0774,-0.0855 -0.0306,-0.0206 -0.0692,-0.0301 -0.11066,-0.0298 z m -1.18556,0.13432 a 0.02556716,0.02556716 0 0 1 0.0263,0.0256 l 1e-4,0.32216 c 0,0.0889 -7.1e-4,0.17048 -0.004,0.23078 -7.1e-4,0.0301 -0.002,0.0549 -0.004,0.0729 -7e-4,0.01 -0.002,0.0163 -0.004,0.0223 -4.2e-4,0.002 -7.1e-4,0.005 -0.002,0.01 -7.1e-4,0.004 0.002,0.007 -0.0122,0.0166 -0.0123,0.007 -0.0221,0.004 -0.0287,0.004 -0.006,-0.002 -0.0124,-0.005 -0.0182,-0.008 -0.0116,-0.007 -0.0236,-0.0172 -0.0353,-0.0294 -0.0337,-0.0349 -0.10936,-0.0561 -0.18345,-0.044 -0.008,7e-4 -0.048,0.0134 -0.0957,0.0308 -0.0476,0.0173 -0.10604,0.04 -0.16357,0.064 l -0.19492,0.0812 -0.004,0.46306 -0.004,0.43161 0.0133,-0.008 c 0.0317,-0.0212 0.0886,-0.0519 0.13072,-0.0708 0.0404,-0.0183 0.12347,-0.0556 0.18435,-0.0832 0.0663,-0.0299 0.13025,-0.0743 0.16756,-0.11474 l 0.0653,-0.0707 a 0.02556716,0.02556716 0 0 1 0.0444,0.0173 l -3.9e-4,0.39646 -4.1e-4,0.39635 a 0.02556716,0.02556716 0 0 1 -0.0491,0.01 l -0.0363,-0.0894 c -0.0346,-0.0853 -0.0815,-0.12953 -0.1425,-0.14271 -0.061,-0.0131 -0.14187,0.006 -0.24166,0.0643 -0.046,0.0268 -0.0785,0.0421 -0.0985,0.0576 -0.0201,0.0155 -0.0298,0.0291 -0.038,0.0643 -0.0163,0.0705 -0.0133,0.2214 -0.0137,0.55763 -4e-4,0.32541 -0.005,0.72183 -0.0113,0.88257 -0.004,0.0797 -0.004,0.15212 -0.005,0.20442 -2.1e-4,0.0208 -7e-5,0.0355 1e-4,0.0489 0.0152,-0.006 0.0339,-0.0134 0.0582,-0.0232 0.0544,-0.0219 0.12838,-0.0521 0.2089,-0.0855 l 0.27933,-0.11554 0.0261,-0.20811 c 0.0479,-0.38149 0.14229,-0.68865 0.27951,-0.90096 0.0211,-0.0325 0.0384,-0.0577 0.0521,-0.0759 0.007,-0.01 0.0127,-0.0163 0.0181,-0.0222 0.005,-0.006 0.008,-0.0106 0.0181,-0.0149 0.005,-0.002 0.017,-0.006 0.0283,0.002 0.0113,0.008 0.0116,0.0182 0.0117,0.0233 1e-4,0.0105 -0.002,0.0151 -0.005,0.0229 -0.005,0.0156 -0.0153,0.0373 -0.0304,0.0671 -0.0829,0.16384 -0.10304,0.29059 -0.10179,0.64731 7.1e-4,0.25648 0.007,0.34723 0.0347,0.47743 0.01,0.0455 0.0169,0.088 0.0213,0.12024 0.002,0.0161 0.004,0.0297 0.004,0.0404 2.1e-4,0.005 4.1e-4,0.01 -1e-4,0.0148 -2e-4,0.002 -4.1e-4,0.005 -7.1e-4,0.008 -7e-4,0.004 -0.002,0.008 -0.008,0.0141 -0.004,0.004 -0.005,0.004 -0.006,0.004 -7.1e-4,7e-4 -0.004,0.002 -0.005,0.002 -0.004,0.002 -0.01,0.004 -0.0157,0.007 -0.0127,0.006 -0.0303,0.0138 -0.0514,0.0229 -0.0421,0.0184 -0.0987,0.0426 -0.15959,0.0677 -0.32194,0.13377 -0.97547,0.402 -1.07211,0.44 l -0.0818,0.0322 a 0.02556716,0.02556716 0 0 1 -0.0279,-0.0415 l 0.0677,-0.0707 c 0.0719,-0.075 0.1056,-0.13425 0.11914,-0.20501 -1e-5,3e-5 7.1e-4,-0.0117 0.002,-0.0274 7.1e-4,-0.0156 0.002,-0.0368 0.004,-0.0626 0.002,-0.0517 0.004,-0.12205 0.005,-0.20451 0.004,-0.16493 0.007,-0.37848 0.01,-0.58989 0.002,-0.21139 0.004,-0.4207 0.005,-0.577 1.9e-4,-0.0781 -2e-5,-0.14304 -4.1e-4,-0.18823 0,-7.1e-4 -9e-5,-0.002 -9e-5,-0.002 -0.004,0.004 -0.004,0.006 -0.007,0.0106 -0.0247,0.0385 -0.0554,0.0905 -0.0829,0.14221 -0.0112,0.0211 -0.0211,0.0373 -0.0304,0.0485 -0.004,0.005 -0.005,0.0112 -0.0207,0.0156 -0.004,7e-4 -0.008,0.002 -0.0152,3.9e-4 -0.006,-7.1e-4 -0.0122,-0.006 -0.0153,-0.0106 -0.006,-0.008 -0.005,-0.0143 -0.005,-0.0187 0,-0.0188 0.005,-0.0399 0.0143,-0.0712 0.008,-0.0315 0.0205,-0.0701 0.0339,-0.11094 0.027,-0.0817 0.06,-0.17176 0.0864,-0.23008 l 0.0449,-0.0993 0.0109,-0.61074 c 0.006,-0.33325 0.007,-0.51069 -7.1e-4,-0.60926 -0.004,-0.0493 -0.0119,-0.0781 -0.0211,-0.0969 -0.01,-0.0188 -0.0202,-0.0293 -0.039,-0.0442 -0.0178,-0.0141 -0.0564,-0.0283 -0.0695,-0.0288 -0.006,-1.5e-4 -0.0124,0 -0.0183,-1e-4 -0.004,-5e-5 -0.005,-3e-5 -0.01,-3.9e-4 -0.004,-3.8e-4 -0.0106,0.002 -0.02,-0.0112 -0.005,-0.006 -0.006,-0.0184 -0.004,-0.0249 0.002,-0.006 0.005,-0.01 0.007,-0.0112 0.004,-0.004 0.007,-0.006 0.0112,-0.008 0.007,-0.004 0.0182,-0.01 0.0342,-0.0166 0.0637,-0.0285 0.21292,-0.0889 0.53497,-0.22019 0.1434,-0.0585 0.27708,-0.1146 0.37677,-0.15788 0.0498,-0.0217 0.0911,-0.0402 0.12083,-0.0539 0.0148,-0.007 0.0268,-0.0127 0.0352,-0.0171 0.008,-0.004 0.0153,-0.01 0.0111,-0.006 0.008,-0.008 0.0399,-0.0519 0.0571,-0.0867 l 0.0335,-0.0677 a 0.02556716,0.02556716 0 0 1 0.0222,-0.0141 z m -10.12617,0.041 c 0.0571,0 0.13518,0.08 0.16767,0.17185 l 0.29429,0.62175 c 0.0247,0.054 0.0622,0.13495 0.0831,0.17996 0.0209,0.045 0.0354,0.0965 0.032,0.11452 -0.002,0.018 -0.006,0.0426 -0.007,0.0547 -7.1e-4,0.0122 -0.0242,0.0435 -0.0521,0.0696 -0.038,0.0354 -0.0659,0.0471 -0.11044,0.0458 -0.14119,-0.004 -0.13874,-7e-4 -0.32055,-0.39924 -0.0617,-0.13499 -0.15174,-0.32914 -0.20033,-0.43141 -0.0485,-0.1023 -0.092,-0.20527 -0.0964,-0.22899 -0.0167,-0.0894 0.0988,-0.19861 0.2101,-0.19861 z m -0.91114,0.1409 c -0.0329,7.1e-4 -0.13586,0.0559 -0.35291,0.18665 -0.47042,0.28337 -0.60128,0.36246 -0.62064,0.37487 -0.0195,0.0125 -0.0152,0.0272 0.0245,0.0858 0.0264,0.039 0.0571,0.0892 0.0684,0.11176 0.0297,0.0591 0.0867,0.15288 0.10399,0.17096 0.01,0.01 0.0151,-0.006 0.0153,-0.0409 7e-4,-0.0723 0.0302,-0.10624 0.17266,-0.19833 l 0.11594,-0.0749 0.0526,0.0921 c 0.0463,0.081 0.20349,0.34361 0.24616,0.41112 0.0241,0.038 0.17352,0.29495 0.2141,0.368 0.02,0.036 0.0501,0.083 0.0671,0.10442 0.017,0.0214 0.0308,0.0453 0.0308,0.0528 0,0.007 0.0226,0.0458 0.0501,0.0848 0.0655,0.0928 0.0874,0.18693 0.0554,0.23596 -0.0131,0.02 -0.0236,0.0401 -0.0236,0.0449 0,0.0106 0.10115,-0.0462 0.30837,-0.17106 0.14336,-0.0865 0.18241,-0.11998 0.12073,-0.10389 -0.0678,0.0178 -0.1399,-0.0646 -0.31567,-0.3604 l -0.43858,-0.74297 -0.0978,-0.16546 0.12702,-0.0744 c 0.12829,-0.0752 0.18895,-0.0891 0.24926,-0.0567 0.0182,0.01 0.0352,0.0153 0.038,0.0122 0.006,-0.006 -0.17695,-0.32016 -0.20132,-0.34453 -0.002,-0.002 -0.005,-0.002 -0.01,-0.002 z m 11.89294,0.7261 c 0.002,-1e-5 0.004,0.002 0.005,0.002 -4.2e-4,-4.2e-4 -4.2e-4,-4.2e-4 -7.1e-4,-7.1e-4 -0.002,-7e-4 -0.005,-7e-4 -0.004,-7e-4 z m -2.77477,0.10905 c 0.0209,3.9e-4 0.0415,0.002 0.0624,0.006 0.10306,0.0195 0.14148,0.0408 0.20503,0.11313 0.0438,0.0496 0.072,0.10305 0.0875,0.18375 0.0155,0.0807 0.0199,0.18928 0.0199,0.358 0,0.13346 7.1e-4,0.20856 0.004,0.25087 0.002,0.0211 0.004,0.0338 0.007,0.0409 0.004,0.007 0.004,0.01 0.01,0.0136 0.0112,0.0105 0.0393,0.0209 0.0446,0.0211 0.002,4e-5 0.005,4e-5 0.0105,0.002 0.005,0.002 0.0131,0.008 0.0156,0.0175 0.002,0.008 -1.1e-4,0.0154 -0.002,0.0188 -7e-4,0.004 -0.004,0.005 -0.004,0.007 -0.005,0.006 -0.01,0.008 -0.0148,0.012 -0.0114,0.007 -0.0281,0.0175 -0.0501,0.0297 -0.0439,0.0244 -0.10802,0.0574 -0.18255,0.0939 -0.18422,0.09 -0.27101,0.13349 -0.31218,0.14679 -0.005,0.002 -0.01,0.002 -0.0147,0.002 -0.005,7e-4 -0.0107,0.002 -0.0202,-0.002 -0.005,-0.002 -0.0106,-0.007 -0.0133,-0.0127 -0.004,-0.006 -0.004,-0.0115 -0.004,-0.0156 7e-4,-0.008 0.004,-0.0122 0.005,-0.0161 0.008,-0.0155 0.0223,-0.0294 0.0402,-0.0504 0.1083,-0.12651 0.14088,-0.21546 0.15131,-0.41484 0.0115,-0.22104 0.004,-0.41599 -0.0186,-0.51228 -0.015,-0.0647 -0.0433,-0.1023 -0.077,-0.12123 -0.0337,-0.0188 -0.0752,-0.0206 -0.12194,-0.004 -0.0933,0.033 -0.20117,0.14176 -0.26003,0.30817 -0.0211,0.0595 -0.0365,0.18224 -0.0463,0.46366 -0.01,0.28142 -0.0147,0.72189 -0.018,1.42144 -0.004,0.60919 -0.004,0.91633 0.005,1.0795 0.004,0.0816 0.0116,0.1268 0.0212,0.15448 0.01,0.0276 0.0202,0.0393 0.0392,0.0602 0.0243,0.0267 0.0422,0.0368 0.068,0.0377 0.0258,7.1e-4 0.063,-0.01 0.11704,-0.0352 0.17061,-0.0807 0.26919,-0.20525 0.31806,-0.40364 0.0226,-0.0919 0.0276,-0.19476 0.0286,-0.63163 3.9e-4,-0.24964 3.9e-4,-0.38135 -0.004,-0.45567 -0.004,-0.0743 -0.01,-0.0862 -0.0252,-0.11194 -0.039,-0.0665 -0.13773,-0.12699 -0.30237,-0.17406 -0.091,-0.0261 -0.14734,-0.046 -0.18446,-0.0789 -0.0371,-0.033 -0.0476,-0.0785 -0.0476,-0.13572 0,-0.0501 0.0106,-0.11318 0.0264,-0.15189 0.0379,-0.0908 0.13245,-0.21676 0.20273,-0.26513 l 0.052,-0.0358 a 0.02556716,0.02556716 0 0 1 0.0334,0.0382 l -0.043,0.0479 c -0.056,0.0622 -0.0732,0.0995 -0.0732,0.14949 0,0.0319 0.008,0.0488 0.0349,0.0665 0.0267,0.0177 0.0748,0.0324 0.14788,0.0433 0.0734,0.011 0.16397,0.0303 0.20802,0.0451 0.0481,0.0163 0.10788,0.0218 0.16057,0.0169 0.0526,-0.005 0.0982,-0.0212 0.11715,-0.039 0.012,-0.0112 0.0227,-0.0202 0.0319,-0.0268 0.004,-0.002 0.008,-0.005 0.0142,-0.008 0.004,-7.1e-4 0.006,-0.004 0.0167,-0.002 0.005,7.1e-4 0.0119,0.004 0.0161,0.0106 0.004,0.005 0.005,0.012 0.005,0.016 0,0.01 -0.002,0.0143 -0.004,0.0214 -0.002,0.007 -0.005,0.0155 -0.008,0.0246 -0.007,0.0182 -0.0168,0.0399 -0.0272,0.0617 -0.0106,0.0218 -0.0213,0.0438 -0.0315,0.0619 -0.0106,0.0183 -0.018,0.0322 -0.0276,0.0429 -0.01,0.011 -0.0106,0.0105 -0.01,0.019 2.1e-4,0.008 0.005,0.0299 0.018,0.0673 0.0254,0.0765 0.0297,0.17243 0.0327,0.61833 0.002,0.28136 0.006,0.45687 0.0197,0.5782 0.0131,0.12132 0.0338,0.18733 0.0689,0.25596 l 0.0349,0.0682 a 0.02556716,0.02556716 0 0 1 -0.0302,0.0361 l -0.0378,-0.0114 c -0.0653,-0.0195 -0.11694,-0.0583 -0.16638,-0.12312 l -0.0209,-0.0274 -0.04,0.0692 c -0.0963,0.16664 -0.29884,0.36199 -0.45536,0.43699 -0.12926,0.0619 -0.26009,0.0864 -0.35282,0.0625 a 0.02556716,0.02556716 0 0 1 -0.006,7.1e-4 l 2.1e-4,-7.1e-4 c -0.002,-3.9e-4 -0.005,3.8e-4 -0.008,-2e-4 a 0.02556716,0.02556716 0 0 1 -0.01,-0.005 c -0.0791,-0.0287 -0.15895,-0.0979 -0.20074,-0.17603 l -0.0368,-0.0687 a 0.02556716,0.02556716 0 0 1 -0.004,-0.0122 l 0.004,-1.31657 c 0.002,-0.7426 0.002,-1.10379 0.0188,-1.31369 0.0158,-0.20989 0.0491,-0.27136 0.11185,-0.39835 0.0619,-0.12548 0.10587,-0.18612 0.2137,-0.29498 0.14269,-0.14404 0.27463,-0.22643 0.40145,-0.24536 0.0211,-0.004 0.0421,-0.004 0.0631,-0.004 z m -10.3993,0.073 c -0.0581,-4.2e-4 -0.12038,0.0127 -0.18813,0.0394 -0.36647,0.14378 -0.44023,0.55919 -0.1507,0.84872 0.13818,0.13818 0.24787,0.16443 0.58739,0.1403 0.21467,-0.0152 0.23932,-0.0141 0.30577,0.0143 0.15705,0.0673 0.22351,0.21662 0.14022,0.31525 -0.11606,0.13743 -0.2899,0.0925 -0.2899,-0.075 0,-0.0656 -0.004,-0.0728 -0.0286,-0.0599 -0.0157,0.008 -0.0471,0.0218 -0.0696,0.0304 -0.14577,0.0566 -0.19632,0.0872 -0.19632,0.11912 0,0.10922 0.14358,0.27645 0.27282,0.31776 0.16773,0.0537 0.37089,0.004 0.49681,-0.12231 0.2301,-0.23011 0.16788,-0.5901 -0.13842,-0.8011 -0.12967,-0.0893 -0.26961,-0.0576 -0.4267,-0.0572 -0.32347,0 -0.34749,-0.002 -0.41133,-0.0363 -0.0921,-0.0491 -0.14774,-0.15882 -0.12133,-0.23888 0.0234,-0.071 0.0948,-0.13875 0.15998,-0.15178 0.0419,-0.008 0.0596,-0.002 0.0954,0.0337 0.0443,0.0443 0.0483,0.0927 0.0149,0.17704 -0.0107,0.0274 -0.006,0.0272 0.0682,-0.004 0.24285,-0.0973 0.25141,-0.10242 0.25104,-0.1472 -5.2e-4,-0.0625 -0.0524,-0.16662 -0.11343,-0.22768 -0.0769,-0.0769 -0.16142,-0.11517 -0.25815,-0.11584 z m -1.37599,0.40704 c -0.0101,0 -0.54265,0.52917 -0.54265,0.53923 0,0.005 0.0283,0.007 0.0628,0.004 0.0593,-0.005 0.0676,-4.2e-4 0.15289,0.0978 0.0496,0.0571 0.0969,0.11585 0.10496,0.13072 0.008,0.0148 0.0455,0.0627 0.0832,0.10635 0.0868,0.10062 0.31137,0.37613 0.3651,0.44788 0.0511,0.0682 0.29536,0.3696 0.38966,0.48082 0.0388,0.0458 0.0852,0.10168 0.10325,0.12414 0.018,0.0224 0.11386,0.14034 0.21301,0.26183 0.27783,0.34041 0.30266,0.38522 0.26903,0.48773 -0.0112,0.034 -0.01,0.0359 0.0183,0.0187 0.0168,-0.0106 0.10706,-0.0948 0.20023,-0.18714 l 0.16937,-0.16797 -0.0698,0.002 c -0.0641,0.002 -0.0756,-0.004 -0.1416,-0.0797 -0.0395,-0.0449 -0.10167,-0.11954 -0.13801,-0.16596 l -0.0661,-0.0845 0.0868,-0.11024 c 0.0477,-0.0607 0.10146,-0.12776 0.11944,-0.149 l 0.0327,-0.0385 0.16548,0.13762 c 0.17538,0.14578 0.21898,0.21068 0.18445,0.27522 -0.012,0.0224 -0.0122,0.031 -5.3e-4,0.0269 0.0181,-0.006 0.37867,-0.35782 0.37867,-0.36909 0,-0.004 -0.0254,-7.1e-4 -0.0564,0.004 -0.0777,0.0146 -0.11881,-0.01 -0.34271,-0.19891 -0.10527,-0.0891 -0.23914,-0.19977 -0.2974,-0.24597 -0.12244,-0.0971 -0.38718,-0.31591 -0.90694,-0.74956 -0.6072,-0.5066 -0.5437,-0.44436 -0.53715,-0.52667 0.003,-0.0393 0.003,-0.0714 0,-0.0714 z m 10.48628,0.13073 c 0.0127,0 0.0186,0.007 0.0213,0.0106 0.002,0.004 0.004,0.005 0.005,0.008 0.002,0.004 0.002,0.008 0.004,0.0141 0.004,0.0106 0.005,0.0236 0.008,0.04 0.005,0.0327 0.0119,0.077 0.0172,0.12593 0.0106,0.0962 0.0523,0.46275 0.0933,0.81367 0.041,0.35099 0.108,0.9327 0.1487,1.29271 0.0406,0.35986 0.0841,0.72689 0.0961,0.81308 0.0114,0.0825 0.0262,0.14409 0.0443,0.18694 0.0182,0.0429 0.0385,0.066 0.0617,0.0774 0.005,0.002 0.0113,0.005 0.0172,0.0129 0.006,0.007 0.01,0.0218 0.006,0.0317 -0.006,0.0199 -0.0188,0.0259 -0.037,0.038 -0.0364,0.0242 -0.10484,0.0601 -0.22938,0.12432 l -0.27902,0.14381 a 0.02556716,0.02556716 0 0 1 -0.032,-0.0383 l 0.057,-0.0747 c 0.0468,-0.0614 0.0678,-0.0941 0.076,-0.1496 0.008,-0.0555 0.002,-0.13717 -0.0146,-0.2867 l -0.0272,-0.24945 -0.0532,-0.024 c -0.0354,-0.0161 -0.11064,-0.039 -0.17636,-0.0552 -0.0328,-0.008 -0.0637,-0.0148 -0.0864,-0.0185 -0.008,-7.1e-4 -0.0137,-7.1e-4 -0.0192,-0.002 -0.002,0.006 -0.004,0.0134 -0.004,0.0236 -0.004,0.0256 -0.01,0.0617 -0.0157,0.10493 -0.012,0.0864 -0.0264,0.20058 -0.04,0.31518 -0.0136,0.11458 -0.0264,0.22958 -0.0351,0.31765 -0.004,0.044 -0.007,0.0814 -0.01,0.10835 -7.1e-4,0.0134 -7.1e-4,0.0244 -7.1e-4,0.0319 -1e-4,0.004 -5e-5,0.005 0,0.007 0.0163,0.044 0.0477,0.0688 0.0777,0.0692 0.004,7e-5 0.006,2.1e-4 0.0113,0.002 0.004,0.002 0.0119,0.004 0.0168,0.0127 0.005,0.008 0.004,0.0188 0.002,0.0243 -0.002,0.005 -0.004,0.008 -0.006,0.0112 -0.008,0.0106 -0.0195,0.017 -0.0363,0.0276 -0.0335,0.0211 -0.0896,0.0514 -0.17076,0.0929 -0.13056,0.0667 -0.25033,0.12719 -0.27353,0.13781 -0.008,0.004 -0.014,0.01 -0.0303,0.008 -0.008,-4e-4 -0.0218,-0.008 -0.0259,-0.0182 -0.004,-0.01 -0.004,-0.0161 -0.002,-0.0218 0.004,-0.0226 0.0172,-0.0485 0.0423,-0.10368 0.0565,-0.12381 0.0741,-0.20671 0.11185,-0.52716 0.0133,-0.11256 0.0364,-0.306 0.0515,-0.43012 0.007,-0.0617 0.0131,-0.11896 0.0163,-0.16107 7.1e-4,-0.0202 0.002,-0.0363 0.002,-0.0479 -0.005,1e-4 -0.008,4e-5 -0.0153,3.9e-4 -0.0218,0.002 -0.0513,0.005 -0.0825,0.0106 -0.2088,0.0345 -0.36933,0.15046 -0.41531,0.28959 -0.005,0.0157 -0.01,0.0274 -0.0125,0.0361 -7e-4,0.004 -0.002,0.007 -0.007,0.0137 -7.1e-4,0.002 -0.004,0.004 -0.006,0.006 -0.004,0.002 -0.0106,0.004 -0.0172,0.002 -0.002,0.21505 -0.006,0.56101 -0.005,0.67137 7.1e-4,0.22499 0.01,0.26936 0.0166,0.28381 0.0113,0.0221 0.0178,0.0303 0.0315,0.0378 0.0136,0.007 0.0383,0.0137 0.0822,0.0211 0.005,7.1e-4 0.016,0.004 0.0214,0.016 0.005,0.012 7.1e-4,0.0218 -0.002,0.0264 -0.005,0.008 -0.01,0.0117 -0.016,0.0163 -0.0121,0.01 -0.0299,0.0207 -0.0549,0.0351 -0.0496,0.0289 -0.12595,0.0696 -0.22558,0.11995 -0.15806,0.0799 -0.23534,0.11946 -0.27342,0.1334 -0.01,0.004 -0.0153,0.006 -0.0276,0.005 -0.006,-4.1e-4 -0.0181,-0.004 -0.0236,-0.0149 -0.005,-0.0106 -0.004,-0.0188 -7.1e-4,-0.0236 0.004,-0.01 0.007,-0.0141 0.0118,-0.0205 0.004,-0.006 0.0106,-0.0134 0.0166,-0.0213 0.0853,-0.10653 0.11632,-0.19774 0.12352,-0.36689 l 0.006,-0.15069 -0.27502,-0.82178 -0.23008,-0.68713 -0.007,0.33604 c -0.008,0.40231 -0.0164,1.53525 -0.0114,1.73309 7.1e-4,0.0329 0.007,0.0547 0.0205,0.0716 0.0127,0.0169 0.0332,0.0306 0.066,0.0418 l 0.0564,0.0194 a 0.02556716,0.02556716 0 0 1 0.004,0.0471 l -0.3077,0.15568 c -0.13116,0.0665 -0.20603,0.10357 -0.24674,0.11993 -0.0106,0.004 -0.0182,0.007 -0.0257,0.008 -0.004,7.1e-4 -0.007,0.002 -0.012,0.002 -0.004,5e-5 -0.0113,-3e-5 -0.0192,-0.006 -0.008,-0.006 -0.0116,-0.0183 -0.011,-0.0252 4.1e-4,-0.006 0.002,-0.0106 0.004,-0.0136 0.002,-0.006 0.007,-0.0114 0.0122,-0.0171 0.0193,-0.0231 0.058,-0.0829 0.0809,-0.12703 l 0.0407,-0.0784 0.0111,-0.61564 c 0.006,-0.34178 0.0157,-1.07632 0.0213,-1.63194 0.005,-0.58078 0.01,-0.86342 -0.005,-0.99952 -0.007,-0.0681 -0.0193,-0.0966 -0.0311,-0.10845 -0.0117,-0.0119 -0.0306,-0.0152 -0.066,-0.0229 -0.006,-7.1e-4 -0.0131,-0.002 -0.0216,-0.01 -0.004,-0.004 -0.008,-0.01 -0.0106,-0.0173 -7.1e-4,-0.007 3e-5,-0.0148 0.002,-0.0197 0.004,-0.01 0.0106,-0.0145 0.0168,-0.02 0.006,-0.005 0.015,-0.0112 0.0257,-0.018 0.0426,-0.0268 0.12313,-0.0696 0.26583,-0.14319 l 0.32977,-0.1699 a 0.02556716,0.02556716 0 0 1 0.0306,0.04 l -0.0707,0.0771 c -0.0772,0.0842 -0.12623,0.18627 -0.12683,0.24636 4e-5,-0.004 7e-5,10e-5 7.1e-4,0.004 7.1e-4,0.004 0.002,0.01 0.004,0.0168 0.004,0.0142 0.01,0.0339 0.0163,0.0582 0.0142,0.0485 0.0349,0.11494 0.0596,0.19323 0.0494,0.15657 0.11565,0.36033 0.18244,0.56232 0.0668,0.20196 0.1342,0.40221 0.18605,0.55184 0.02,0.058 0.0351,0.0998 0.0496,0.13959 7e-4,-0.0351 0.002,-0.0676 0.004,-0.11693 0.004,-0.14436 0.004,-0.34369 0.005,-0.56291 7.1e-4,-0.43872 0.004,-0.87961 0.004,-0.98055 7.1e-4,-0.0807 2e-5,-0.12734 -0.004,-0.15609 -0.004,-0.0287 -0.01,-0.0387 -0.0234,-0.0576 -0.0205,-0.0274 -0.0409,-0.0392 -0.0789,-0.0444 -0.007,-7.1e-4 -0.0147,-0.002 -0.0217,-0.004 -0.007,-0.002 -0.0168,-0.002 -0.0252,-0.0172 -0.004,-0.007 -0.004,-0.0177 -0.002,-0.0243 0.002,-0.006 0.005,-0.0106 0.008,-0.0138 0.006,-0.006 0.0132,-0.0118 0.0228,-0.0182 0.0385,-0.0252 0.12039,-0.0671 0.28082,-0.14889 0.16,-0.0817 0.24136,-0.12312 0.28072,-0.13841 0.01,-0.004 0.0158,-0.006 0.0266,-0.007 0.005,-1.9e-4 0.0158,-1.8e-4 0.0244,0.0106 0.008,0.0107 0.006,0.0224 0.004,0.0277 -0.004,0.0106 -0.008,0.0141 -0.0131,0.0202 -0.005,0.006 -0.0115,0.013 -0.0188,0.0208 -0.0576,0.0615 -0.11176,0.15809 -0.12732,0.22388 7.1e-4,-0.005 -5e-5,0.002 -3.9e-4,0.008 -4e-4,0.006 -7.1e-4,0.016 -7.1e-4,0.0281 -7.1e-4,0.0241 -0.002,0.0585 -0.004,0.10179 -0.002,0.0867 -0.004,0.20952 -0.007,0.35941 -0.005,0.29974 -0.011,0.70759 -0.0161,1.1512 -0.004,0.26223 -0.002,0.30061 -0.004,0.48552 0.055,-0.2353 0.24728,-0.4282 0.52749,-0.50609 0.0267,-0.007 0.051,-0.0155 0.0678,-0.0219 0.006,-0.002 0.0107,-0.004 0.0143,-0.006 4e-4,-0.004 7.1e-4,-0.006 0.002,-0.0112 7.1e-4,-0.0141 0.004,-0.034 0.007,-0.06 0.006,-0.0515 0.015,-0.1253 0.0259,-0.21589 0.0218,-0.18117 0.052,-0.4295 0.0853,-0.70133 0.0333,-0.27172 0.0625,-0.52477 0.0829,-0.7134 0.0106,-0.0943 0.0182,-0.17258 0.0233,-0.22888 0.004,-0.0282 0.004,-0.0508 0.005,-0.0672 3.9e-4,-0.008 7.1e-4,-0.0147 7.1e-4,-0.0193 1.4e-4,-0.004 -2e-4,-0.008 9e-5,-0.006 -0.004,-0.0216 -0.0217,-0.0525 -0.0457,-0.0756 -0.0241,-0.0233 -0.054,-0.0376 -0.0698,-0.0377 -0.004,-3e-5 -0.0122,7e-4 -0.0212,-0.01 -0.004,-0.005 -0.007,-0.0129 -0.006,-0.0186 1.6e-4,-0.005 7.1e-4,-0.01 0.004,-0.0119 0.005,-0.0105 0.008,-0.0116 0.0136,-0.0156 0.01,-0.007 0.0233,-0.017 0.0417,-0.0283 0.0368,-0.0228 0.0917,-0.0537 0.15647,-0.0875 0.0646,-0.0337 0.12456,-0.0643 0.16947,-0.0867 0.0225,-0.0112 0.041,-0.0202 0.0549,-0.0266 0.006,-0.004 0.0125,-0.005 0.017,-0.007 0.002,-7.1e-4 0.004,-7.1e-4 0.006,-0.002 0.002,-7.1e-4 7.1e-4,-0.002 0.0108,-0.002 z m -0.44479,0.24515 c 0.006,4e-5 0.0106,0.006 0.016,0.007 1e-4,-6e-5 1.8e-4,-1.3e-4 4.1e-4,-1.8e-4 -0.008,-0.01 -0.0146,-0.007 -0.0164,-0.007 z m 2.16331,0.17815 c 7.1e-4,3.9e-4 0.002,0.002 0.002,0.002 0.004,0.002 0.006,0.002 0.008,0.002 -0.004,-7e-5 -0.006,-0.004 -0.0106,-0.004 z m -12.16575,0.0344 1.11985,0.93142 -0.18815,0.24585 z m 7.63372,0.84304 a 0.02556716,0.02556716 0 0 1 0.0263,0.0256 l -10e-5,0.35182 c -3e-5,0.16826 -1e-4,0.25482 -0.004,0.29808 -7e-4,0.0108 -0.002,0.0188 -0.004,0.0266 -7e-4,0.004 -0.002,0.007 -0.006,0.0127 -0.004,0.005 -0.0107,0.0112 -0.02,0.0125 -0.01,0.002 -0.0168,-0.002 -0.0211,-0.005 -0.004,-0.004 -0.006,-0.005 -0.008,-0.008 -0.004,-0.005 -0.007,-0.0105 -0.0108,-0.0157 -0.0108,-0.0175 -0.045,-0.0464 -0.0646,-0.0544 -0.041,-0.0171 -0.0741,-0.0213 -0.12862,-0.008 -0.0544,0.0125 -0.12934,0.0435 -0.24306,0.0982 l -0.20582,0.0989 -0.006,0.0654 c -7.1e-4,0.0188 -0.004,0.0858 -0.006,0.17366 -0.002,0.0878 -0.002,0.19811 -0.004,0.30957 l -0.004,0.35661 0.0454,-0.0313 c 0.0496,-0.0342 0.14054,-0.0848 0.20651,-0.11524 0.11815,-0.0546 0.22943,-0.14426 0.27882,-0.22089 l 0.0317,-0.049 a 0.02556716,0.02556716 0 0 1 0.0471,0.0149 l -0.01,0.22758 c -0.005,0.12478 -0.0106,0.30893 -0.0112,0.40814 -7e-4,0.0733 -7e-4,0.11491 -0.004,0.1379 -7.1e-4,0.005 -7.1e-4,0.01 -0.004,0.017 -0.002,0.004 -0.004,0.01 -0.0133,0.0139 -0.01,0.004 -0.0235,7.1e-4 -0.0288,-0.004 -0.0106,-0.008 -0.01,-0.0122 -0.0115,-0.0168 -0.002,-0.004 -0.002,-0.01 -0.005,-0.0157 -0.0212,-0.0735 -0.0549,-0.11886 -0.10082,-0.14261 -0.0385,-0.02 -0.0668,-0.0257 -0.10727,-0.0171 -0.0404,0.008 -0.0934,0.0339 -0.17056,0.0803 l -0.13392,0.0807 -0.008,0.15649 c -0.008,0.14491 -0.0122,0.55109 -0.0125,0.91873 -10e-5,0.18381 7e-4,0.35827 0.004,0.48623 7.1e-4,0.064 0.002,0.11641 0.004,0.15228 3.7e-4,0.008 7e-4,0.0122 7e-4,0.0188 0.0151,-0.007 0.034,-0.0159 0.058,-0.0269 0.0517,-0.0244 0.12123,-0.0573 0.19573,-0.0928 l 0.25825,-0.12293 0.007,-0.0615 c 0.0272,-0.22918 0.0791,-0.52058 0.11695,-0.65289 0.0235,-0.0823 0.0646,-0.18626 0.10775,-0.28001 0.0433,-0.0937 0.0874,-0.17607 0.12313,-0.21929 0.01,-0.0117 0.0168,-0.0202 0.0229,-0.0266 0.004,-0.004 0.004,-0.005 0.0138,-0.0105 0.004,-7e-4 0.007,-0.004 0.0136,-7e-4 0.006,7e-4 0.0151,0.006 0.0186,0.0122 0.007,0.0112 0.004,0.016 0.004,0.0192 -0.002,0.0127 -0.005,0.0177 -0.0117,0.0311 -0.006,0.0136 -0.0149,0.032 -0.0265,0.0562 -0.0817,0.1712 -0.10061,0.29155 -0.10093,0.64771 -3.7e-4,0.29349 0.0188,0.47782 0.0648,0.63293 0.005,0.0174 -0.002,0.0394 -0.0153,0.052 -0.0131,0.0127 -0.0303,0.0213 -0.0535,0.0307 -0.0142,0.005 -0.0754,0.0342 -0.15767,0.0734 -0.0823,0.0392 -0.18737,0.0898 -0.2953,0.1423 -0.10801,0.0525 -0.20984,0.10189 -0.287,0.13892 -0.0385,0.0186 -0.071,0.034 -0.095,0.0453 -0.024,0.0114 -0.0377,0.018 -0.045,0.0209 -0.0134,0.005 -0.11983,0.0543 -0.22768,0.10516 l -0.19633,0.0926 a 0.02556716,0.02556716 0 0 1 -0.0294,-0.0408 l 0.0596,-0.0625 c 0.0689,-0.0722 0.11908,-0.17037 0.12882,-0.24695 3.9e-4,-0.004 0.002,-0.0377 0.004,-0.0871 7e-4,-0.0493 0.004,-0.11671 0.004,-0.19723 0.002,-0.16106 0.006,-0.3747 0.008,-0.60186 l 0.008,-0.74637 c -0.0183,0.0267 -0.0455,0.0696 -0.0694,0.11533 -0.0148,0.0282 -0.0287,0.0533 -0.0396,0.0714 -0.005,0.01 -0.01,0.0163 -0.0138,0.0219 -0.002,0.002 -0.004,0.005 -0.006,0.007 -7.1e-4,7.1e-4 -0.004,0.004 -0.007,0.005 -0.002,0.002 -0.005,0.004 -0.0112,0.004 -7.1e-4,1e-4 -0.004,-1.1e-4 -0.004,-1.1e-4 -3e-5,0 -0.005,-7.1e-4 -0.005,-7.1e-4 -6e-5,-1e-5 -0.01,-0.006 -0.01,-0.006 -0.007,-0.007 -0.007,-0.0132 -0.007,-0.0165 -3.8e-4,-0.004 -3.8e-4,-0.005 -1.9e-4,-0.007 1.9e-4,-0.004 7.1e-4,-0.008 7.1e-4,-0.0138 0.002,-0.0106 0.005,-0.0228 0.008,-0.038 0.008,-0.0305 0.0197,-0.0708 0.0334,-0.11424 0.0271,-0.0869 0.0609,-0.18547 0.0849,-0.24176 l 0.0455,-0.10715 0.005,-0.64851 0.005,-0.64321 -0.0409,-0.0428 c -0.0304,-0.0319 -0.0528,-0.0424 -0.0797,-0.0424 -0.004,-1e-5 -0.01,0.002 -0.0197,-0.006 -0.005,-0.004 -0.0106,-0.0115 -0.011,-0.0189 -7.1e-4,-0.007 7.1e-4,-0.0127 0.004,-0.016 0.007,-0.0137 0.0125,-0.0147 0.0207,-0.0202 0.0163,-0.0113 0.0426,-0.0263 0.0819,-0.0471 0.0785,-0.0415 0.20792,-0.10516 0.39545,-0.19483 0.14599,-0.0698 0.28308,-0.13744 0.38627,-0.18994 0.0516,-0.0263 0.0948,-0.0487 0.12611,-0.0657 0.0156,-0.008 0.0284,-0.0157 0.0376,-0.0212 0.01,-0.005 0.016,-0.0107 0.0145,-0.01 0.0163,-0.015 0.0485,-0.061 0.0636,-0.0934 l 0.0303,-0.0655 a 0.02556716,0.02556716 0 0 1 0.0225,-0.0149 z m 2.67309,0.16237 c -0.0136,0.10904 -0.0306,0.25351 -0.0469,0.39794 -0.0164,0.14454 -0.0322,0.28907 -0.0432,0.39785 -0.005,0.0544 -0.0106,0.0999 -0.0127,0.13182 -7.1e-4,0.0142 -0.002,0.0246 -0.002,0.0328 0.004,0.002 0.01,0.004 0.016,0.005 0.0184,0.005 0.0433,0.011 0.0695,0.0167 0.0524,0.0114 0.11206,0.0221 0.13541,0.0236 2.1e-4,2e-5 2.1e-4,-2e-5 3.9e-4,0 -1e-5,-1.6e-4 2e-5,-1.9e-4 0,-4e-4 -7.1e-4,-0.01 -0.002,-0.024 -0.004,-0.0414 -0.004,-0.0349 -0.01,-0.0834 -0.0156,-0.1408 -0.013,-0.11487 -0.0303,-0.26559 -0.0479,-0.41542 -0.0175,-0.14903 -0.0349,-0.29675 -0.0485,-0.40774 z m -4.08184,0.20951 c 0.004,-4.2e-4 0.0114,-7.1e-4 0.0192,0.005 0.007,0.005 0.011,0.0161 0.011,0.0216 2e-5,0.005 -7.1e-4,0.008 -0.002,0.0106 -0.004,0.01 -0.007,0.013 -0.0122,0.0194 -0.0106,0.013 -0.026,0.0301 -0.0463,0.0505 -0.0373,0.0374 -0.0837,0.10009 -0.0977,0.12963 -0.01,0.0195 -0.0138,0.0263 -0.0173,0.0538 -0.004,0.0274 -0.004,0.0752 -0.002,0.16586 0.005,0.18144 0.0236,0.53522 0.0618,1.25786 0.0266,0.50395 0.0633,1.20705 0.0815,1.56254 0.0265,0.51719 0.0426,0.82917 0.0528,1.0123 0.005,0.0915 0.008,0.15098 0.0112,0.18744 7e-4,0.0129 7e-4,0.0197 0.002,0.0272 0.004,-4.1e-4 0.005,-4.1e-4 0.01,-7e-4 0.0197,-0.002 0.0465,-0.005 0.0755,-0.008 0.0696,-0.01 0.25577,-0.007 0.46514,0.002 0.3257,0.016 0.53148,0.0112 0.68995,-0.0325 0.15845,-0.0438 0.27224,-0.12567 0.41862,-0.27123 0.14212,-0.14133 0.18732,-0.22325 0.18732,-0.32735 0,-0.0216 -0.0111,-0.0487 -0.0301,-0.0714 -0.0189,-0.0227 -0.0451,-0.0409 -0.0706,-0.0476 l -0.0521,-0.0139 a 0.02556716,0.02556716 0 0 1 0.002,-0.0499 l 0.0675,-0.0118 c 0.0941,-0.0166 0.19106,0.0197 0.23937,0.0934 0.0267,0.0408 0.0339,0.0899 0.0339,0.19293 -1.9e-4,0.12403 -0.007,0.15445 -0.0714,0.28281 -0.11554,0.23319 -0.33884,0.44774 -0.58337,0.56113 -0.0454,0.0211 -0.077,0.0338 -0.12314,0.0402 -0.046,0.006 -0.10537,0.007 -0.21271,0.007 -0.21921,4.1e-4 -0.24887,-0.004 -0.54616,-0.0775 -0.17029,-0.0423 -0.36209,-0.0821 -0.41621,-0.0874 l -0.0793,-0.007 0.007,0.13321 c 0.0106,0.18136 -0.0126,0.28641 -0.0925,0.42592 -0.0675,0.11784 -0.15934,0.20845 -0.25424,0.25944 -0.0949,0.051 -0.19584,0.0627 -0.27374,0.0138 a 0.02556716,0.02556716 0 0 1 -0.0105,-0.013 c -0.0356,-0.0261 -0.0657,-0.0575 -0.0813,-0.10083 -0.0177,-0.0489 -0.0224,-0.10803 -0.0178,-0.18074 0.0132,-0.20627 0.14091,-0.42688 0.31716,-0.55024 0.039,-0.0274 0.0569,-0.0422 0.0621,-0.0508 0.005,-0.008 0.005,-0.0172 7e-4,-0.0483 -0.004,-0.0396 -0.0115,-0.17741 -0.0168,-0.31266 -0.005,-0.13458 -0.0235,-0.52491 -0.0408,-0.8668 -0.0172,-0.34204 -0.043,-0.89056 -0.0574,-1.21911 -0.0134,-0.3058 -0.0281,-0.57331 -0.0349,-0.65968 l -0.0331,0.14279 c -0.15081,0.65232 -0.2892,1.24495 -0.39076,1.67449 -0.0508,0.21476 -0.0924,0.38871 -0.12173,0.50909 -0.0147,0.0602 -0.0263,0.10692 -0.0344,0.13881 -0.004,0.016 -0.007,0.0281 -0.01,0.0367 -7e-4,0.004 -0.002,0.007 -0.004,0.0106 -4e-4,7.1e-4 -7.1e-4,0.002 -0.002,0.004 -4e-4,7e-4 -7.1e-4,0.002 -0.002,0.004 -7.1e-4,7.1e-4 -0.004,0.005 -0.004,0.005 -3e-5,4e-5 -0.018,0.007 -0.018,0.007 a 0.02556716,0.02556716 0 0 0 0,-1.1e-4 c -3e-5,0 -0.0106,-0.002 -0.0106,-0.002 -3e-5,-3e-5 -0.004,-0.002 -0.005,-0.004 -0.002,-0.002 -0.004,-0.004 -0.004,-0.005 -0.002,-0.002 -0.002,-0.002 -0.004,-0.005 -7.1e-4,-0.002 -0.002,-0.004 -0.004,-0.006 -0.002,-0.004 -0.004,-0.0106 -0.006,-0.0181 -0.005,-0.0156 -0.0116,-0.0388 -0.0206,-0.0708 -0.018,-0.064 -0.0449,-0.16298 -0.0824,-0.30379 -0.0752,-0.2816 -0.19333,-0.73032 -0.36839,-1.39937 -0.0265,-0.10145 -0.0509,-0.19171 -0.0698,-0.25883 -0.004,0.0322 -0.005,0.0551 -0.0106,0.10854 -0.016,0.17528 -0.0419,0.47679 -0.0851,0.98414 -0.0945,1.10963 -0.10411,1.23258 -0.11584,1.48854 -0.005,0.12202 -0.008,0.18407 -0.005,0.2169 0.004,0.0328 0.007,0.0346 0.0268,0.0572 0.0186,0.0217 0.0523,0.0387 0.0653,0.0397 0.0137,7.1e-4 0.0247,0.002 0.0351,0.006 0.005,0.002 0.0114,0.004 0.018,0.0136 0.002,0.005 0.005,0.0141 0.004,0.0218 -0.002,0.007 -0.006,0.0125 -0.01,0.0156 -0.004,0.004 -0.005,0.004 -0.007,0.004 -0.002,7.1e-4 -0.004,0.002 -0.006,0.002 -0.004,0.002 -0.011,0.005 -0.0187,0.008 -0.0153,0.006 -0.0365,0.0157 -0.0621,0.0264 -0.0512,0.0213 -0.11999,0.0494 -0.19433,0.0789 -0.14844,0.0591 -0.29984,0.11982 -0.33514,0.13442 l -0.0653,0.0269 a 0.02556716,0.02556716 0 0 1 -0.0263,-0.0433 l 0.0594,-0.0499 c 0.072,-0.0605 0.14849,-0.18221 0.16828,-0.26613 1.8e-4,-7e-4 0.002,-0.016 0.005,-0.0368 0.002,-0.0209 0.005,-0.0495 0.008,-0.0848 0.007,-0.0706 0.0163,-0.16792 0.0268,-0.285 0.0211,-0.23417 0.0479,-0.54714 0.075,-0.88229 0.0545,-0.67041 0.12396,-1.52396 0.15448,-1.89677 0.0242,-0.29522 0.0373,-0.46607 0.0418,-0.56702 0.004,-0.10092 -5.8e-4,-0.12986 -0.006,-0.1408 -0.0157,-0.0304 -0.0627,-0.0606 -0.12642,-0.071 -0.004,-4e-4 -0.006,-7.1e-4 -0.0122,-0.005 -0.005,-0.004 -0.0106,-0.0147 -0.0106,-0.0223 7.1e-4,-0.0151 0.006,-0.0166 0.01,-0.0189 0.005,-0.004 0.008,-0.006 0.0131,-0.01 0.01,-0.005 0.0234,-0.0127 0.0415,-0.0213 0.0363,-0.0175 0.0891,-0.0409 0.15188,-0.068 0.12547,-0.054 0.29007,-0.12166 0.4362,-0.17775 0.004,-7e-4 0.007,-0.004 0.016,-7e-4 0.008,0.002 0.0193,0.0143 0.0205,0.0218 0.002,0.015 -0.002,0.016 -0.004,0.0192 -0.004,0.006 -0.007,0.0124 -0.0134,0.02 -0.0116,0.0155 -0.0293,0.0364 -0.0508,0.0605 -0.0474,0.0526 -0.0822,0.11105 -0.0962,0.15778 l -0.0222,0.0747 0.14261,0.53576 c 0.0795,0.2985 0.1952,0.7362 0.25713,0.97286 0.0374,0.14276 0.0665,0.24764 0.0871,0.31375 0.004,0.008 0.004,0.0111 0.006,0.0184 0.008,-0.0335 0.0187,-0.0759 0.0316,-0.12942 0.0276,-0.11493 0.064,-0.26948 0.1024,-0.4359 0.0771,-0.33296 0.19876,-0.85796 0.27044,-1.16667 0.0641,-0.27587 0.0965,-0.41672 0.10934,-0.49343 0.006,-0.0383 0.007,-0.0602 0.006,-0.074 -7.1e-4,-0.0137 -0.004,-0.0202 -0.0107,-0.0338 -0.0158,-0.0334 -0.0249,-0.0474 -0.0364,-0.0555 -0.0115,-0.007 -0.0318,-0.0129 -0.073,-0.0186 -0.008,-7.1e-4 -0.0152,-0.002 -0.0222,-0.004 -0.007,-7.1e-4 -0.0153,-7.1e-4 -0.0247,-0.0153 -0.004,-0.007 -0.005,-0.019 -0.002,-0.0263 0.002,-0.007 0.006,-0.011 0.01,-0.0141 0.006,-0.006 0.0137,-0.0106 0.0233,-0.0155 0.0387,-0.0209 0.12085,-0.0544 0.2807,-0.11933 0.18449,-0.075 0.34611,-0.14061 0.35801,-0.14549 0.002,-7.1e-4 0.004,-7.1e-4 0.008,-0.002 z m 12.12142,0.67556 c 0.25257,1.9836 -0.58764,3.95649 -2.18837,5.57019 -1.65681,1.67025 -4.12665,2.94754 -7.01239,3.42494 -2.88574,0.47743 -5.6364,0.0637 -7.74467,-0.98352 -0.74291,-0.36906 -1.40507,-0.8162 -1.96668,-1.33005 2.38173,-0.48445 4.35126,-1.1492 6.11733,-1.8767 0.0182,0.0257 0.0399,0.0484 0.0644,0.0678 a 0.09715522,0.09715522 0 0 0 0.0236,0.0211 c 0.10602,0.0665 0.23635,0.0472 0.3456,-0.0115 0.10927,-0.0587 0.20897,-0.15843 0.28252,-0.28702 0.0229,-0.04 0.0413,-0.0788 0.0562,-0.11772 0.20707,-0.0901 0.41166,-0.18059 0.61405,-0.27174 0.15686,0.0352 0.22543,0.0395 0.39455,0.0393 0.10763,-2.1e-4 0.1685,-4.2e-4 0.22239,-0.007 0.0539,-0.007 0.0966,-0.0244 0.14339,-0.046 0.26091,-0.12097 0.49326,-0.34375 0.61746,-0.59436 0.007,-0.0143 0.0115,-0.0252 0.0175,-0.0378 3.14781,-1.4922 5.96068,-2.97422 10.01313,-3.55889 z m -2.78344,0.63352 c -0.0131,-0.004 -0.0412,0.0471 -0.0875,0.15469 -0.0696,0.16148 -0.0735,0.2009 -0.0168,0.16597 0.0463,-0.0286 0.11187,0.011 0.6491,0.39196 0.4856,0.34431 0.56227,0.40132 0.55242,0.41113 -0.007,0.007 -0.0976,-0.0126 -0.81846,-0.18525 -0.31494,-0.0754 -0.58694,-0.13934 -0.60435,-0.1421 -0.026,-0.004 -0.0454,0.0265 -0.10885,0.17086 -0.0736,0.16765 -0.077,0.20774 -0.013,0.14971 0.0233,-0.0212 0.0485,-0.024 0.12862,-0.0147 0.11277,0.0132 0.0852,-0.002 0.62204,0.37867 0.41034,0.29232 0.45388,0.32622 0.43859,0.34163 -0.0138,0.0139 -0.13055,-0.0112 -0.73008,-0.15707 -0.51399,-0.12507 -0.60837,-0.15794 -0.60837,-0.21193 0,-0.0735 -0.0399,-0.0155 -0.12452,0.18116 -0.0483,0.11211 -0.0878,0.20936 -0.088,0.2161 -4.1e-4,0.0212 0.0337,0.0134 0.0612,-0.0139 0.0364,-0.0364 0.10682,-0.0253 0.62594,0.0996 1.17349,0.28241 1.25975,0.30774 1.25975,0.36919 0,0.0758 0.0445,0.0121 0.12672,-0.18115 0.0474,-0.11119 0.0859,-0.21179 0.0859,-0.22359 0,-0.0261 -0.0199,-0.0277 -0.0438,-0.004 -0.0125,0.0125 -0.0417,0.005 -0.102,-0.025 -0.0896,-0.0454 -0.74232,-0.50123 -0.8577,-0.59898 -0.0225,-0.0188 0.10494,0.008 0.63671,0.13952 0.27734,0.0681 0.51053,0.12174 0.51808,0.11922 0.0139,-0.004 0.15958,-0.33105 0.15958,-0.3577 0,-0.0223 -0.0454,-0.0173 -0.0533,0.006 -0.0113,0.0334 -0.12623,-0.0317 -0.41292,-0.23408 -0.14399,-0.10157 -0.33173,-0.23364 -0.41722,-0.29339 -0.67596,-0.4724 -0.76905,-0.5468 -0.76905,-0.61536 0,-0.0232 -0.004,-0.0357 -0.008,-0.0372 z m -12.7808,0.31846 c 0.005,3.9e-4 0.0107,0.002 0.0142,0.005 0.0138,0.0108 0.0117,0.0175 0.0131,0.0249 7e-4,0.007 0.002,0.0161 0.004,0.0272 0.004,0.0448 0.004,0.1306 0.004,0.28411 l 3.7e-4,0.3518 a 0.02556716,0.02556716 0 0 1 -0.0455,0.016 l -0.0421,-0.0535 c -0.0446,-0.0566 -0.0852,-0.0832 -0.15259,-0.0892 -0.0675,-0.006 -0.1636,0.0118 -0.30768,0.0543 -0.1083,0.0319 -0.20818,0.0612 -0.22548,0.0662 1e-4,3.9e-4 7e-4,-2.1e-4 2e-4,0.002 -0.002,0.006 -0.005,0.025 -0.007,0.0571 -0.004,0.0643 -0.004,0.18505 -0.004,0.40745 v 0.44029 l 0.0409,-0.0208 c 0.0461,-0.0234 0.13582,-0.0574 0.20472,-0.078 0.16067,-0.0481 0.25791,-0.10019 0.30428,-0.15529 l 0.0429,-0.051 a 0.02556716,0.02556716 0 0 1 0.045,0.0165 l -1.1e-4,0.39806 -1.8e-4,0.39794 a 0.02556716,0.02556716 0 0 1 -0.0484,0.0116 l -0.0531,-0.10526 c -0.0424,-0.0842 -0.0586,-0.10284 -0.11574,-0.13303 -0.0433,-0.0228 -0.0697,-0.0309 -0.11034,-0.0261 -0.0408,0.005 -0.0972,0.0252 -0.18895,0.0653 l -0.11893,0.052 -0.006,0.10984 c -0.006,0.10563 -0.0106,0.52137 -0.0106,0.90774 -3e-5,0.1932 7.1e-4,0.37957 0.002,0.5175 7e-4,0.0689 0.002,0.12589 0.004,0.16527 4.1e-4,0.0136 7.1e-4,0.0218 7.1e-4,0.0309 0.0161,-0.004 0.0385,-0.0106 0.0658,-0.0182 0.0554,-0.0156 0.13032,-0.0372 0.2111,-0.0607 l 0.27783,-0.0813 0.0177,-0.15449 c 0.049,-0.42418 0.16491,-0.77456 0.32176,-0.94739 l 0.066,-0.0726 a 0.02556716,0.02556716 0 0 1 0.0416,0.0289 l -0.0471,0.09 c -0.078,0.14891 -0.10463,0.30399 -0.104,0.61804 6e-4,0.22256 0.008,0.31252 0.0382,0.46626 0.0106,0.0533 0.0195,0.10253 0.0253,0.13901 0.004,0.0182 0.005,0.0333 0.006,0.0444 6e-4,0.005 7.1e-4,0.0106 7.1e-4,0.0142 9e-5,0.002 1.8e-4,0.004 0,0.006 -1.1e-4,0.002 -2e-4,0.002 -7.1e-4,0.005 -3.7e-4,7.1e-4 -7e-4,0.004 -0.002,0.005 -3.9e-4,7.1e-4 -7.1e-4,0.002 -0.002,0.002 -7.1e-4,7.1e-4 -0.004,0.004 -0.004,0.004 -3e-5,3e-5 -0.004,0.002 -0.004,0.002 -7e-4,4.1e-4 -7e-4,7.1e-4 -0.002,0.002 -7.1e-4,4.1e-4 -0.002,7.1e-4 -0.002,7.1e-4 -7.1e-4,3.9e-4 -0.002,7e-4 -0.004,0.002 -0.002,7.1e-4 -0.004,7.1e-4 -0.007,0.002 -0.006,0.002 -0.0145,0.004 -0.025,0.008 -0.0212,0.006 -0.0513,0.0161 -0.0883,0.0272 -0.0739,0.0223 -0.17481,0.0521 -0.2851,0.0844 -0.37514,0.10945 -0.50124,0.14706 -0.85053,0.25374 -0.0766,0.0233 -0.15352,0.0467 -0.17206,0.0521 -0.004,7.1e-4 -0.008,0.004 -0.0156,7.1e-4 -0.004,-4e-4 -0.008,-7.1e-4 -0.0137,-0.005 -0.005,-0.004 -0.01,-0.01 -0.0106,-0.0155 -0.004,-0.0112 4.8e-4,-0.017 0.002,-0.0211 0.002,-0.004 0.004,-0.007 0.006,-0.0108 0.01,-0.0133 0.0252,-0.0286 0.0479,-0.0485 a 0.02556716,0.02556716 0 0 0 1e-4,0 0.02556716,0.02556716 0 0 1 4.1e-4,-3.7e-4 c 0.0373,-0.0332 0.0871,-0.0966 0.10483,-0.13222 0.01,-0.0182 0.0147,-0.0295 0.0195,-0.0521 0.005,-0.0224 0.008,-0.0564 0.0122,-0.11524 0.006,-0.11766 0.0106,-0.33389 0.0175,-0.76005 0.004,-0.23743 0.007,-0.45388 0.008,-0.61125 7.1e-4,-0.0787 7.1e-4,-0.1427 7.1e-4,-0.18704 1e-5,-0.004 0,-0.004 0,-0.007 -0.004,0.005 -0.007,0.008 -0.0118,0.0145 -0.0286,0.0377 -0.0631,0.0874 -0.0877,0.12872 -0.01,0.0161 -0.0172,0.0286 -0.0232,0.0379 -0.006,0.01 -0.007,0.0141 -0.0181,0.0219 -0.002,0.002 -0.006,0.005 -0.0156,0.005 -0.008,4.1e-4 -0.0205,-0.007 -0.0241,-0.013 -0.007,-0.0122 -0.004,-0.0155 -0.004,-0.0195 6e-4,-0.008 0.002,-0.016 0.005,-0.0271 0.0224,-0.10061 0.0773,-0.25094 0.13042,-0.35781 l 0.0503,-0.10135 0.01,-0.62723 0.01,-0.62644 -0.0339,-0.0646 c -0.0249,-0.0474 -0.0431,-0.0642 -0.0738,-0.0733 -0.0155,-0.004 -0.0294,-0.01 -0.0406,-0.0153 -0.005,-0.004 -0.0106,-0.005 -0.0152,-0.008 -0.002,-0.002 -0.005,-0.004 -0.007,-0.007 -0.004,-0.004 -0.007,-0.008 -0.007,-0.0187 0,-3e-5 0.004,-0.0136 0.004,-0.0137 3e-5,-3e-5 0.004,-0.004 0.004,-0.005 0.002,-0.002 0.004,-0.004 0.004,-0.004 0.002,-7.1e-4 0.004,-7.1e-4 0.004,-0.002 0.002,-7.1e-4 0.005,-0.002 0.007,-0.004 0.006,-0.002 0.0143,-0.005 0.0249,-0.008 0.0211,-0.007 0.0513,-0.0168 0.0884,-0.0284 0.0743,-0.0233 0.1761,-0.0545 0.28711,-0.088 0.22202,-0.067 0.48054,-0.14287 0.62783,-0.18344 0.067,-0.0184 0.14555,-0.0845 0.16947,-0.1394 0.002,-0.006 0.005,-0.0114 0.01,-0.0173 0.002,-0.002 0.005,-0.006 0.0123,-0.0106 0.004,-0.002 0.01,-0.002 0.0146,-0.002 z m -3.14096,0.49572 c 0.005,0 0.0164,7e-4 0.0235,0.0122 0.007,0.0107 0.004,0.0206 0.003,0.0253 -0.004,0.01 -0.007,0.0122 -0.0114,0.0168 -0.008,0.01 -0.0203,0.019 -0.0354,0.0302 -0.0634,0.0467 -0.10537,0.10039 -0.13641,0.17465 -10e-4,0.004 -0.008,0.0248 -0.0143,0.0524 -0.006,0.0276 -0.0143,0.0637 -0.0228,0.10565 -0.0171,0.0837 -0.0373,0.19022 -0.0566,0.29739 -0.0193,0.10716 -0.0378,0.21513 -0.0513,0.30188 -0.0136,0.0868 -0.0222,0.15546 -0.0223,0.17236 -1.5e-4,0.0461 0.0191,0.0719 0.042,0.0817 0.023,0.01 0.0542,0.005 0.0867,-0.0269 0.0219,-0.0218 0.0308,-0.0433 0.0313,-0.0557 5.2e-4,-0.0125 -0.002,-0.0177 -0.0174,-0.0234 l -0.0354,-0.0131 a 0.02556716,0.02556716 0 0 1 -0.006,-0.0449 l 0.039,-0.0274 c 0.0306,-0.0214 0.061,-0.0336 0.0925,-0.0292 0.0315,0.004 0.0588,0.0235 0.0878,0.0525 0.0497,0.0498 0.0639,0.12169 0.0484,0.19355 -0.0155,0.0719 -0.0595,0.14544 -0.12773,0.2069 -0.12471,0.11244 -0.27401,0.12774 -0.38996,0.0665 -0.11595,-0.0612 -0.19735,-0.19634 -0.19733,-0.37309 1e-5,-0.0549 0.0184,-0.19687 0.041,-0.34811 0.0227,-0.15123 0.0496,-0.30727 0.0683,-0.38187 l 10e-4,-0.007 -0.0513,0.006 c -0.0471,0.005 -0.11447,0.0182 -0.1446,0.0266 -0.0148,0.004 -0.0251,0.007 -0.0307,0.01 -0.006,0.004 -0.006,0.004 -0.008,0.006 -0.004,0.006 -0.008,0.0299 -0.0123,0.0803 -7e-4,0.0106 -0.003,0.0617 -0.004,0.13909 -0.001,0.0773 -0.003,0.1826 -0.004,0.30818 -0.004,0.25118 -0.006,0.58365 -0.009,0.93681 -0.005,0.70647 -0.013,1.51251 -0.0184,1.79191 -0.004,0.18387 -0.004,0.31386 -0.003,0.40184 7e-4,0.044 0.002,0.0775 0.004,0.10168 0.002,0.0242 0.005,0.0397 0.006,0.0431 0.0272,0.0701 0.0715,0.10779 0.13431,0.11784 0.015,0.002 0.0264,0.004 0.0356,0.006 0.009,0.002 0.0143,-1.5e-4 0.0266,0.0111 0.003,0.004 0.007,0.007 0.008,0.0148 10e-4,0.007 -3.5e-4,0.0147 -0.003,0.0192 -0.005,0.01 -0.009,0.0107 -0.0131,0.0127 -0.007,0.004 -0.0138,0.006 -0.0228,0.01 -0.0276,0.0106 -0.0871,0.0222 -0.1431,0.0306 -0.0541,0.008 -0.20597,0.0338 -0.33633,0.0565 -0.0653,0.0114 -0.12533,0.0218 -0.16956,0.0294 -0.0221,0.004 -0.0402,0.006 -0.0531,0.01 -0.006,7.1e-4 -0.0117,0.002 -0.0153,0.002 -0.002,3.9e-4 -0.004,3.9e-4 -0.005,7.1e-4 -0.001,1.8e-4 -1.6e-4,3.9e-4 -0.005,3.9e-4 -10e-4,2e-5 -0.006,-3.9e-4 -0.006,-3.9e-4 -4e-5,-1e-5 -0.01,-0.004 -0.01,-0.004 -3e-5,-3e-5 -0.009,-0.0108 -0.009,-0.0108 -1e-5,-3e-5 -0.002,-0.0112 -0.002,-0.0114 0,-3e-5 6.3e-4,-0.005 10e-4,-0.007 5.1e-4,-0.002 7.1e-4,-0.002 0.001,-0.004 7e-4,-0.002 0.002,-0.004 0.003,-0.004 0.003,-0.004 0.004,-0.004 0.006,-0.006 0.004,-0.004 0.008,-0.007 0.0136,-0.0115 0.0112,-0.01 0.0271,-0.0211 0.0455,-0.0344 0.0849,-0.0615 0.12285,-0.1184 0.1404,-0.20872 2.2e-4,-7e-4 0.002,-0.016 0.003,-0.0364 10e-4,-0.0205 0.002,-0.0484 0.004,-0.0828 0.002,-0.0687 0.004,-0.16316 0.007,-0.27632 0.004,-0.22633 0.009,-0.52761 0.0112,-0.84923 0.005,-0.64347 0.0142,-1.48093 0.0201,-1.86131 0.005,-0.33657 0.008,-0.5097 0.005,-0.59678 -10e-4,-0.0404 -0.004,-0.0591 -0.006,-0.0667 -0.008,3.8e-4 -0.0232,0.002 -0.0458,0.005 -0.0261,0.004 -0.0581,0.008 -0.0893,0.0143 -0.0409,0.007 -0.0685,0.0139 -0.0828,0.0195 -0.004,7.1e-4 -0.005,0.002 -0.006,0.004 0.001,0.008 0.007,0.0435 0.016,0.0999 0.01,0.0606 0.0233,0.141 0.0375,0.22648 0.0323,0.19437 0.048,0.31625 0.045,0.41082 -0.003,0.0946 -0.0261,0.16174 -0.0679,0.23818 -0.0663,0.12126 -0.17805,0.21951 -0.293,0.25394 -0.17856,0.0535 -0.35731,-0.0716 -0.35731,-0.25244 0,-0.0673 0.0296,-0.13169 0.071,-0.17685 0.0414,-0.0452 0.0987,-0.0743 0.15278,-0.0535 0.007,0.002 0.0133,0.005 0.0206,0.0114 0.007,0.006 0.0131,0.0208 0.0117,0.0313 -0.003,0.0211 -0.0134,0.0299 -0.0283,0.0489 -0.0212,0.0269 -0.0216,0.0451 -0.0155,0.0565 0.006,0.0113 0.0244,0.0233 0.0611,0.0236 0.0523,3.9e-4 0.0887,-0.0346 0.0972,-0.1003 4.7e-4,-0.004 3.1e-4,-0.0252 -0.002,-0.0531 -0.003,-0.0279 -0.006,-0.0641 -0.0121,-0.10566 -0.0108,-0.0831 -0.0264,-0.18778 -0.0436,-0.2919 -0.017,-0.10409 -0.0356,-0.20781 -0.0518,-0.2892 -0.008,-0.0407 -0.0156,-0.0758 -0.0221,-0.1023 -0.006,-0.0266 -0.0134,-0.0467 -0.0141,-0.0484 -0.0292,-0.0561 -0.0882,-0.10658 -0.14939,-0.12763 -0.007,-0.002 -0.0138,-0.005 -0.0198,-0.007 -0.006,-0.002 -0.0112,-0.004 -0.0185,-0.0112 -0.004,-0.004 -0.009,-0.0107 -0.009,-0.0205 -1e-4,-0.01 0.006,-0.0178 0.009,-0.0216 0.008,-0.007 0.0142,-0.008 0.022,-0.0115 0.0311,-0.0106 0.0934,-0.0202 0.21859,-0.0414 0.6344,-0.10716 1.06327,-0.17932 1.33536,-0.22479 0.13604,-0.0227 0.23286,-0.0388 0.29659,-0.0491 0.0319,-0.005 0.0554,-0.01 0.0716,-0.0115 0.008,-7.1e-4 0.0143,-0.002 0.0189,-0.004 0.004,-3.8e-4 0.004,-7e-4 0.0112,-7e-4 z m 1.661,0.039 c 0.004,-4e-4 0.0105,-4e-4 0.0178,0.004 0.007,0.005 0.0114,0.0157 0.0115,0.0217 5e-5,0.006 -7.1e-4,0.01 -0.002,0.0116 -0.004,0.01 -0.007,0.0127 -0.0131,0.0187 -0.0107,0.012 -0.0269,0.0279 -0.0481,0.0464 -0.0464,0.0409 -0.0748,0.0778 -0.0941,0.12753 -0.0192,0.0496 -0.0288,0.11338 -0.0327,0.20501 -0.002,0.0383 -0.004,0.24619 -0.006,0.54505 -0.002,0.29885 -0.004,0.69057 -0.005,1.10297 l -0.005,1.48964 0.0329,0.0352 c 0.0166,0.0177 0.0631,0.046 0.0923,0.0546 l 0.0636,0.0191 a 0.02556716,0.02556716 0 0 1 -7.1e-4,0.0494 l -0.16088,0.0369 c -0.19648,0.0451 -0.32921,0.0754 -0.41512,0.0943 -0.0429,0.01 -0.0742,0.0161 -0.096,0.0204 -0.0219,0.004 -0.0308,0.006 -0.0426,0.006 -0.005,0 -0.0132,-1.9e-4 -0.0213,-0.008 -0.008,-0.008 -0.008,-0.0216 -0.006,-0.0272 0.004,-0.0113 0.007,-0.0137 0.0122,-0.0183 0.009,-0.01 0.0213,-0.0187 0.0375,-0.0294 0.0236,-0.0158 0.072,-0.069 0.0972,-0.10955 l 0.0458,-0.0741 0.008,-0.7959 c 0.002,-0.22079 0.004,-0.42861 0.004,-0.5855 2.4e-4,-0.0785 3.1e-4,-0.14424 1e-4,-0.19243 -2.1e-4,-0.0483 -7.1e-4,-0.0812 -10e-4,-0.0858 -0.001,-0.015 -0.002,-0.0262 -0.004,-0.0325 -6.4e-4,-0.002 9e-5,-7e-4 -1e-4,-0.002 -0.004,4e-5 -0.0125,7.1e-4 -0.0243,0.002 -0.0241,0.004 -0.12222,0.0244 -0.22508,0.0476 -0.10287,0.0233 -0.21306,0.0492 -0.26794,0.0636 l -0.0486,0.0127 -0.0118,0.82906 c -0.006,0.40347 -0.008,0.61656 -0.006,0.73498 0.001,0.0592 0.004,0.0947 0.007,0.11763 0.004,0.0229 0.007,0.0327 0.0144,0.0465 0.0177,0.0363 0.0458,0.0642 0.0872,0.0851 l 0.0683,0.0344 a 0.02556716,0.02556716 0 0 1 -0.006,0.0479 l -0.0929,0.0201 c -0.0612,0.0131 -0.2013,0.0457 -0.33023,0.0764 -0.0645,0.0153 -0.12613,0.0301 -0.17396,0.0418 -0.0478,0.0117 -0.0837,0.0209 -0.0895,0.0227 -0.01,0.004 -0.0182,0.005 -0.0269,0.005 -0.004,1.5e-4 -0.009,2e-4 -0.0153,-0.002 -0.004,-7.1e-4 -0.008,-0.004 -0.0119,-0.007 -0.004,-0.004 -0.008,-0.0124 -0.008,-0.0192 a 0.02556716,0.02556716 0 0 1 10e-4,-0.01 c 0.001,-0.004 0.004,-0.007 0.005,-0.008 0.002,-0.004 0.004,-0.004 0.006,-0.006 0.004,-0.004 0.009,-0.007 0.0142,-0.0118 0.0111,-0.008 0.0256,-0.0183 0.0416,-0.0283 0.032,-0.0197 0.069,-0.0594 0.0977,-0.10358 0.0287,-0.0443 0.0494,-0.0936 0.0538,-0.12962 6.3e-4,-0.005 0.002,-0.0394 0.004,-0.0899 0.001,-0.0506 0.003,-0.11983 0.004,-0.20383 0.003,-0.16799 0.006,-0.39506 0.008,-0.6505 0.005,-0.51085 0.01,-1.13503 0.0105,-1.62674 7.1e-4,-0.56423 -0.006,-0.66622 -0.0216,-0.69484 -0.0297,-0.0574 -0.0739,-0.0865 -0.12383,-0.0865 -0.0143,0 -0.0263,-7.1e-4 -0.0363,-0.002 -0.005,-7.1e-4 -0.009,-7.1e-4 -0.0156,-0.004 -0.004,-0.002 -0.009,-0.004 -0.0133,-0.0141 -0.004,-0.0106 0.001,-0.0248 0.006,-0.0294 3e-5,-4e-5 0.003,-0.004 0.004,-0.004 7e-4,-3.9e-4 10e-4,-7.1e-4 0.002,-0.002 0.001,-3.9e-4 0.002,-7.1e-4 0.003,-0.002 0.001,-3.9e-4 0.003,-7.1e-4 0.004,-7.1e-4 0.002,-7.1e-4 0.005,-7.1e-4 0.008,-0.002 0.006,-7.1e-4 0.0139,-0.004 0.024,-0.006 0.0201,-0.005 0.0482,-0.0125 0.0818,-0.0206 0.0672,-0.0166 0.1563,-0.0379 0.24587,-0.0591 0.0896,-0.0212 0.17962,-0.0421 0.24875,-0.058 0.0346,-0.007 0.0638,-0.0143 0.0854,-0.019 0.0108,-0.002 0.0196,-0.004 0.0263,-0.005 0.006,-0.002 0.007,-0.002 0.0167,-0.002 0.004,0 0.009,1e-4 0.0163,0.005 0.007,0.005 0.0108,0.0171 0.0101,0.0232 -10e-4,0.0123 -0.005,0.0134 -0.007,0.016 -0.004,0.005 -0.007,0.008 -0.0128,0.0123 -0.01,0.008 -0.0243,0.019 -0.0414,0.0306 -0.0272,0.0184 -0.0757,0.072 -0.0984,0.11045 l -0.0421,0.0716 -0.008,0.60675 c -0.002,0.1687 -0.004,0.32285 -0.004,0.43521 -3.6e-4,0.0561 -6e-4,0.10199 -5.1e-4,0.13381 5e-5,0.01 1.5e-4,0.0151 2.1e-4,0.0221 0.0165,-0.004 0.0395,-0.007 0.0674,-0.0129 0.0573,-0.0115 0.13374,-0.0275 0.21021,-0.044 0.0765,-0.0166 0.15306,-0.0336 0.21081,-0.0469 0.0289,-0.006 0.0531,-0.0125 0.07,-0.0168 0.004,-7.1e-4 0.007,-0.002 0.0102,-0.002 3e-4,-0.007 6e-4,-0.0166 7.1e-4,-0.0293 7.1e-4,-0.0298 0.002,-0.0729 0.004,-0.12593 0.002,-0.10597 0.005,-0.25163 0.008,-0.41132 0.004,-0.1883 0.004,-0.33861 0.004,-0.4465 -5.4e-4,-0.0539 -10e-4,-0.0973 -0.004,-0.12921 -0.001,-0.0319 -0.004,-0.0542 -0.006,-0.0582 -0.008,-0.0297 -0.0304,-0.0625 -0.0572,-0.0869 -0.0269,-0.0242 -0.0582,-0.039 -0.0789,-0.0397 -0.0101,-1.8e-4 -0.0178,-4.1e-4 -0.0243,-7e-4 -0.004,-3.9e-4 -0.006,-3.9e-4 -0.01,-0.002 -0.004,-7.1e-4 -0.01,-3.8e-4 -0.0176,-0.0116 -0.004,-0.005 -0.006,-0.0151 -0.004,-0.0216 0.001,-0.006 0.004,-0.01 0.006,-0.012 0.004,-0.004 0.006,-0.006 0.01,-0.007 0.006,-0.004 0.0112,-0.006 0.0188,-0.01 0.0102,-0.004 0.021,-0.007 0.0405,-0.0125 0.0196,-0.005 0.0455,-0.0119 0.076,-0.0192 0.061,-0.0149 0.14059,-0.0332 0.22399,-0.0515 0.0832,-0.0182 0.16137,-0.0358 0.22039,-0.0493 0.0295,-0.006 0.0542,-0.0125 0.0723,-0.0168 0.0181,-0.004 0.032,-0.008 0.0306,-0.007 0.002,-7e-4 0.004,-0.002 0.008,-0.002 z m 8.8141,0.0276 c 3.9e-4,1e-4 7.1e-4,7e-4 7.1e-4,7e-4 0.002,7.1e-4 0.004,3.9e-4 0.004,3.9e-4 -0.002,-2e-5 -0.002,-0.002 -0.004,-0.002 z m 4.73384,1.13092 c -0.0183,5e-5 -0.0369,0.002 -0.0572,0.002 -0.25777,0.0266 -0.43589,0.21763 -0.43399,0.46564 0.002,0.25193 0.0346,0.28978 0.58429,0.67476 0.2505,0.17547 0.49542,0.33925 0.54426,0.36399 0.23526,0.11922 0.54876,-7e-4 0.6412,-0.24605 0.045,-0.11922 0.039,-0.30428 -0.013,-0.40424 -0.0526,-0.10094 -0.1254,-0.16063 -0.60745,-0.49731 -0.42711,-0.29832 -0.53044,-0.36061 -0.65811,-0.3603 z m -0.15368,0.26534 c 0.10135,-0.005 0.19997,0.0331 0.32854,0.12543 0.0622,0.0448 0.27403,0.19339 0.47075,0.33034 0.23513,0.16369 0.37077,0.26896 0.39585,0.30727 0.0513,0.0784 0.0838,0.2092 0.0583,0.23469 -0.0286,0.0285 -0.23022,0.0327 -0.28821,0.006 -0.0477,-0.0219 -0.91859,-0.62606 -0.97934,-0.67934 -0.0537,-0.0472 -0.10606,-0.15552 -0.11156,-0.23109 l -0.005,-0.0736 0.0874,-0.0149 c 0.0147,-0.002 0.0292,-0.004 0.0436,-0.005 z m -6.63643,0.27562 c 4.1e-4,0.002 7.1e-4,0.004 7.1e-4,0.004 0,0.0436 -0.008,0.0806 -0.0367,0.12563 -0.31197,0.14792 -0.62589,0.29538 -0.94278,0.44179 -0.0687,-7e-4 -0.14504,-0.004 -0.2297,-0.007 0.40659,-0.18648 0.80877,-0.375 1.20753,-0.56432 z m 6.01379,0.19144 c -0.0166,-0.004 -0.0694,0.0407 -0.16497,0.1383 -0.0808,0.0828 -0.15773,0.16458 -0.17067,0.18185 -0.0223,0.0297 -0.0206,0.0308 0.0282,0.0211 0.0726,-0.0143 0.12029,0.0238 0.52187,0.41752 l 0.34033,0.33374 -0.0765,0.0707 c -0.0475,0.0438 -0.0837,0.0946 -0.0954,0.13391 -0.0106,0.0349 -0.0259,0.0635 -0.0344,0.0635 -0.0218,0 -0.66097,-0.62184 -0.74457,-0.72439 -0.0564,-0.0692 -0.0677,-0.0942 -0.06,-0.13053 0.005,-0.0248 0.002,-0.045 -0.004,-0.045 -0.0181,0 -0.33283,0.31481 -0.33283,0.33285 0,0.007 0.0174,0.01 0.0387,0.004 0.0274,-0.007 0.0578,0.004 0.10347,0.0372 0.0788,0.0571 1.13368,1.08729 1.22061,1.19205 0.0506,0.061 0.0601,0.0835 0.0519,0.12135 -0.005,0.0256 -0.004,0.0463 0.002,0.0463 0.0228,0 0.35068,-0.33616 0.33915,-0.34771 -0.006,-0.006 -0.0301,-0.007 -0.0538,-0.004 -0.0484,0.008 -0.0926,-0.0166 -0.20061,-0.11664 -0.18673,-0.17269 -0.24625,-0.28406 -0.21021,-0.39324 0.0177,-0.0535 0.10505,-0.13781 0.14289,-0.13781 0.0248,0 0.27187,0.23495 0.3661,0.34801 0.0666,0.0799 0.0772,0.10177 0.0689,0.14311 -0.005,0.0268 -0.004,0.0488 0.004,0.0488 0.0165,0 0.33314,-0.33495 0.33314,-0.35232 0,-0.006 -0.0192,-0.006 -0.0427,-3.7e-4 -0.0572,0.0143 -0.0965,-0.013 -0.2884,-0.20063 -0.1004,-0.0982 -0.15413,-0.16221 -0.14549,-0.17336 0.076,-0.0981 -0.0261,-0.27282 -0.14431,-0.24685 -0.0615,0.0136 -0.0756,0.0343 -0.0474,0.0702 0.0542,0.0689 -0.11822,-0.0902 -0.40095,-0.36979 -0.31199,-0.30858 -0.36382,-0.37267 -0.34632,-0.42781 0.007,-0.0218 0.007,-0.0339 -4.1e-4,-0.0358 z m -7.70684,0.70292 c 3.9e-4,5e-5 0.004,4.1e-4 0.004,7e-4 -7.1e-4,4.1e-4 -0.002,7.1e-4 -0.004,0.002 z m -0.40503,0.002 c -0.005,0.002 -0.0145,0.007 -0.0383,0.0252 -0.14896,0.10804 -0.24514,0.27393 -0.25594,0.4376 -0.004,0.0453 -0.004,0.0698 3.9e-4,0.0837 0.004,0.014 0.01,0.0214 0.0274,0.0397 0.0288,0.0288 0.0531,0.0383 0.0791,0.0353 0.026,-0.004 0.0573,-0.0206 0.0932,-0.0583 0.0791,-0.0831 0.10587,-0.17676 0.10442,-0.38189 -3.9e-4,-0.0448 -0.002,-0.089 -0.004,-0.12352 -7e-4,-0.0173 -0.002,-0.0322 -0.004,-0.0434 -7.1e-4,-0.008 -0.002,-0.0125 -0.002,-0.0142 z m 7.02017,0.0883 c -0.002,-1.5e-4 -0.004,1.1e-4 -0.005,7.1e-4 -0.0136,0.005 -0.0774,0.0404 -0.14209,0.0781 -0.22465,0.13114 -0.36282,0.31489 -0.38217,0.5083 -0.0214,0.21432 0.17476,0.46628 0.43709,0.56133 0.0402,0.0146 0.20784,0.0549 0.37279,0.0895 0.18761,0.0395 0.33823,0.0811 0.40233,0.11104 0.22996,0.10761 0.4178,0.41221 0.36809,0.59679 -0.0462,0.17187 -0.20076,0.19291 -0.3604,0.0491 -0.083,-0.0747 -0.13294,-0.17771 -0.11933,-0.24575 0.008,-0.042 0.004,-0.0509 -0.0385,-0.0682 -0.13468,-0.0557 -0.26561,0.0937 -0.21451,0.24486 0.0445,0.13168 0.16635,0.25551 0.30758,0.31266 0.11421,0.0463 0.28232,0.0332 0.39604,-0.0308 0.33548,-0.18854 0.36549,-0.62136 0.064,-0.92282 -0.12426,-0.12425 -0.29827,-0.20813 -0.55723,-0.26843 -0.40535,-0.0944 -0.45324,-0.1079 -0.55124,-0.15588 -0.15113,-0.074 -0.26872,-0.24285 -0.27091,-0.38887 -7.1e-4,-0.0648 0.006,-0.0806 0.0585,-0.12852 0.10933,-0.10019 0.1966,-0.0576 0.29959,0.14629 0.13039,0.25821 0.2675,0.33769 0.36619,0.21222 0.0687,-0.0872 0.0136,-0.21058 -0.0758,-0.16987 -0.0334,0.0152 -0.0409,0.0282 -0.0349,0.0597 0.004,0.0223 0.002,0.0404 -0.005,0.0404 -0.0165,0 -0.0778,-0.13012 -0.15099,-0.32016 -0.0806,-0.20924 -0.13297,-0.30959 -0.16328,-0.31206 z m -7.08228,0.0673 c 2e-4,0.01 7e-4,0.0165 7e-4,0.0261 a 0.09715522,0.09715522 0 0 0 0,1e-4 c 5e-5,0.01 -1.4e-4,0.0168 -1.8e-4,0.0254 -0.0229,0.01 -0.046,0.0197 -0.0689,0.0298 0.0205,-0.0283 0.0432,-0.0556 0.0682,-0.0814 z m 5.76711,1.04255 c -0.0214,0.002 -0.0744,0.0226 -0.15609,0.0607 -0.16391,0.0766 -0.21317,0.11615 -0.14499,0.11615 0.0224,0 0.0404,0.0155 0.0517,0.045 0.0206,0.0539 0.1395,0.49552 0.17067,0.63403 0.0121,0.0539 0.0268,0.11662 0.0324,0.13911 0.013,0.0513 -0.0205,0.013 -0.29179,-0.33373 -0.21994,-0.28109 -0.25039,-0.32972 -0.2251,-0.36021 0.0274,-0.0332 0.004,-0.0414 -0.0533,-0.0178 -0.15741,0.0658 -0.38995,0.18802 -0.36979,0.19442 0.0129,0.004 0.042,0.0115 0.0648,0.0163 0.0765,0.0166 0.17666,0.12406 0.47872,0.51389 0.43078,0.55594 0.42761,0.55128 0.52808,0.76264 0.0952,0.20042 0.12197,0.29209 0.0908,0.31137 -0.0106,0.006 -0.0182,0.0226 -0.0182,0.0365 0,0.0296 -0.0142,0.0345 0.24087,-0.0853 0.18524,-0.087 0.2287,-0.12194 0.15169,-0.12194 -0.017,0 -0.0493,-0.0242 -0.0717,-0.0535 -0.0731,-0.0958 -0.25085,-0.48945 -0.28621,-0.63371 -0.23453,-0.95679 -0.26511,-1.12932 -0.20852,-1.17628 0.0147,-0.0121 0.0266,-0.0318 0.0266,-0.0435 0,-0.004 -0.004,-0.005 -0.0107,-0.004 z m -1.11775,0.52897 c -0.007,-0.004 -0.15939,0.0428 -0.33813,0.10515 -0.17874,0.0623 -0.42621,0.14769 -0.54995,0.18984 -0.12373,0.0422 -0.22499,0.0835 -0.22498,0.0919 0,0.0291 0.0549,0.12116 0.19882,0.33363 0.15523,0.22902 0.17078,0.26384 0.10432,0.23359 -0.0824,-0.0376 -0.12531,0.0672 -0.0546,0.133 0.0607,0.0566 0.17303,0.0334 0.20781,-0.0429 0.034,-0.0748 0.0206,-0.15775 -0.049,-0.301 -0.12513,-0.25746 -0.12895,-0.3239 -0.0213,-0.36888 0.0327,-0.0136 0.0617,-0.0223 0.0648,-0.0192 0.004,0.004 0.0494,0.1342 0.10304,0.29139 0.0537,0.15719 0.16523,0.48094 0.24795,0.7194 0.0828,0.23848 0.16432,0.47778 0.18135,0.53177 0.034,0.10788 0.0402,0.19702 0.0148,0.21271 -0.008,0.005 -0.0163,0.0205 -0.0163,0.0333 0,0.0173 0.0566,0.004 0.22489,-0.0552 0.12372,-0.0431 0.22361,-0.0853 0.22189,-0.0936 -0.002,-0.008 -0.0202,-0.0193 -0.0409,-0.0242 -0.0219,-0.005 -0.0525,-0.0359 -0.0731,-0.0736 -0.0473,-0.0867 -0.58427,-1.64306 -0.57131,-1.65601 0.005,-0.005 0.044,-0.0107 0.0854,-0.0112 0.1002,-7.1e-4 0.1273,0.0363 0.16976,0.23627 0.0549,0.25811 0.10978,0.34353 0.22101,0.34353 0.0671,0 0.11946,-0.0426 0.13201,-0.10776 0.0182,-0.0945 -0.0894,-0.1467 -0.12803,-0.0621 l -0.0195,0.0428 -0.0127,-0.047 c -0.007,-0.0258 -0.0202,-0.14993 -0.0291,-0.27592 -0.0185,-0.2614 -0.0302,-0.34817 -0.0489,-0.35969 z m -6.61535,0.0624 c -0.004,2e-5 -0.006,3.9e-4 -0.007,7e-4 -0.006,0.006 0.002,0.0229 0.0206,0.0361 0.0288,0.0211 0.0324,0.0414 0.0305,0.16636 -7.1e-4,0.0784 -0.0177,0.26754 -0.0367,0.42053 -0.0188,0.15297 -0.068,0.56527 -0.10895,0.91622 -0.041,0.35094 -0.0816,0.66493 -0.0903,0.69764 -0.01,0.0375 -0.0278,0.0626 -0.0484,0.068 -0.018,0.004 -0.0325,0.0161 -0.0325,0.0257 0,0.0163 0.0628,0.0375 0.33534,0.11372 0.0631,0.0177 0.12007,0.0329 0.12681,0.0339 0.0188,0.004 0.0146,-0.0385 -0.006,-0.0592 -0.0284,-0.0284 0.0112,-0.13113 0.20761,-0.53605 0.096,-0.19798 0.28507,-0.58815 0.4203,-0.86712 0.24388,-0.503 0.32138,-0.64195 0.36571,-0.65557 0.0677,-0.0208 0.0759,-0.025 0.0668,-0.0342 -0.0151,-0.0151 -0.34511,-0.10252 -0.35391,-0.0937 -0.004,0.004 7.1e-4,0.0219 0.012,0.0394 0.0293,0.047 7.1e-4,0.11492 -0.33184,0.80329 l -0.40095,0.80739 0.13952,-1.28382 c 0.0479,-0.39523 0.0555,-0.42849 0.10283,-0.44978 0.0197,-0.008 0.0335,-0.0233 0.0306,-0.032 -0.006,-0.0199 -0.38193,-0.11866 -0.44149,-0.11825 z m 5.32064,0.3545 c -0.008,0 -0.10104,0.0186 -0.20681,0.0413 -0.10578,0.0227 -0.29912,0.0639 -0.42961,0.0915 -0.13049,0.0276 -0.24395,0.0566 -0.25215,0.0646 -0.008,0.008 0.002,0.0208 0.0268,0.0301 0.0564,0.0214 0.0807,0.0923 0.16078,0.46794 0.0364,0.17097 0.0875,0.41029 0.11345,0.53176 0.18196,0.8515 0.17983,0.83739 0.13241,0.87799 -0.0188,0.0161 -0.0341,0.0349 -0.0341,0.0419 0,0.0167 -0.0404,0.0236 0.41093,-0.0696 0.41064,-0.0848 0.52168,-0.1107 0.52168,-0.12144 0,-0.002 -0.0254,-0.0822 -0.0562,-0.17524 -0.0579,-0.17374 -0.0827,-0.3069 -0.0826,-0.44309 4e-5,-0.0632 -0.005,-0.0777 -0.0288,-0.0777 -0.0472,0 -0.0985,0.0627 -0.0874,0.10695 0.0182,0.0725 0.0138,0.32945 -0.006,0.39357 -0.0364,0.11365 -0.10253,0.16392 -0.25585,0.19453 -0.0489,0.01 -0.0517,0.007 -0.0621,-0.052 -0.006,-0.0342 -0.0298,-0.14906 -0.0529,-0.25525 -0.0233,-0.10618 -0.0382,-0.19693 -0.0335,-0.20162 0.004,-0.004 0.053,-0.01 0.10744,-0.0115 0.0821,-0.002 0.10305,0.002 0.12292,0.0298 0.041,0.0559 0.047,0.0161 0.0178,-0.11735 -0.0365,-0.16695 -0.0491,-0.19073 -0.0708,-0.13372 -0.0122,0.0323 -0.0404,0.0525 -0.10965,0.0784 -0.0513,0.0192 -0.096,0.032 -0.0995,0.0286 -0.0151,-0.0151 -0.2373,-1.07758 -0.22738,-1.0875 0.0168,-0.0168 0.19119,-0.049 0.2222,-0.0409 0.0536,0.0141 0.0806,0.0899 0.0988,0.27833 0.0191,0.19672 0.0612,0.30834 0.13081,0.34642 0.081,0.0444 0.19513,-0.0206 0.19513,-0.11095 0,-0.0882 -0.0868,-0.11282 -0.12522,-0.0356 l -0.0199,0.0397 -0.01,-0.0398 c -0.005,-0.0219 -0.004,-0.15033 0.004,-0.28531 0.0143,-0.25848 0.01,-0.38448 -0.0148,-0.38448 z m -3.85237,0.16797 c -0.0107,-2.1e-4 -0.0172,1.9e-4 -0.0184,0.002 -0.006,0.006 -0.002,0.0199 0.008,0.0304 0.0107,0.0107 0.0193,0.0357 0.0193,0.0557 0,0.0383 -0.0859,0.30068 -0.14389,0.4397 -0.0188,0.045 -0.093,0.24013 -0.16508,0.4336 -0.30476,0.8185 -0.34291,0.90425 -0.40684,0.91333 -0.0202,0.002 -0.0368,0.0145 -0.0368,0.0258 0,0.0136 0.053,0.0274 0.15799,0.0413 0.0869,0.0114 0.16781,0.0245 0.17994,0.0292 0.0129,0.005 0.0221,-0.002 0.0221,-0.0178 0,-0.0145 -0.008,-0.0263 -0.0187,-0.0263 -0.0308,0 -0.004,-0.16005 0.0441,-0.25704 0.0759,-0.15519 0.21771,-0.20828 0.38136,-0.14281 0.078,0.0313 0.0865,0.0617 0.0752,0.27332 -0.006,0.12484 -0.0136,0.15571 -0.0405,0.17816 -0.018,0.015 -0.0325,0.0346 -0.0325,0.0433 0,0.008 0.0643,0.0253 0.1431,0.0365 0.0788,0.0112 0.17261,0.0259 0.20861,0.0327 0.036,0.006 0.0747,0.013 0.0858,0.0139 0.0283,0.002 0.0258,-0.0417 -0.004,-0.0528 -0.0354,-0.0136 -0.0582,-0.11812 -0.0576,-0.26444 l 5.9e-4,-0.13092 0.064,-0.0441 c 0.12549,-0.0868 0.10505,-0.25014 -0.0415,-0.33394 -0.0303,-0.0172 -0.032,-0.0433 -0.0365,-0.55074 -0.004,-0.29295 -1.6e-4,-0.55097 0.005,-0.5734 0.005,-0.0223 0.0243,-0.0445 0.0416,-0.049 0.0426,-0.0112 0.0395,-0.0384 -0.005,-0.0494 -0.0792,-0.0193 -0.35589,-0.054 -0.4305,-0.0556 z m 2.73482,0.0474 c -0.0106,3.9e-4 -0.0228,0.002 -0.0383,0.004 -0.0428,0.005 -0.14942,0.0177 -0.23716,0.0281 -0.16023,0.0188 -0.19263,0.0357 -0.12091,0.0629 0.0485,0.0185 0.0658,0.0833 0.0998,0.37718 0.0141,0.12148 0.0365,0.3166 0.0501,0.4336 0.0134,0.11698 0.0428,0.36942 0.0653,0.56102 0.0509,0.43449 0.052,0.50345 0.008,0.53087 -0.018,0.0112 -0.0327,0.029 -0.0327,0.0394 0,0.0125 0.0212,0.0163 0.0614,0.0113 0.0338,-0.004 0.13812,-0.0163 0.23187,-0.0269 0.10693,-0.0122 0.173,-0.0271 0.17725,-0.0399 0.004,-0.0112 -0.005,-0.0205 -0.0199,-0.0205 -0.0383,0 -0.0725,-0.0937 -0.0911,-0.24995 -0.008,-0.074 -0.0272,-0.22295 -0.0408,-0.33094 -0.0551,-0.43854 -0.10794,-0.94354 -0.11733,-1.12435 -0.008,-0.16896 -0.006,-0.19308 0.0171,-0.20221 0.0149,-0.005 0.027,-0.0213 0.027,-0.0346 0,-0.0146 -0.008,-0.02 -0.0395,-0.0186 z m -1.60729,0.0807 c -0.12816,3e-5 -0.2021,0.004 -0.2021,0.0113 0,0.008 0.0166,0.0268 0.0368,0.0402 0.0367,0.0242 0.0368,0.0272 0.045,0.55412 0.004,0.29138 0.004,0.70924 0,0.92862 -0.008,0.39117 -0.008,0.39937 -0.045,0.42332 -0.0202,0.0134 -0.0368,0.0309 -0.0368,0.0388 0,0.007 0.11014,0.0143 0.24486,0.0143 0.21097,0 0.24369,-0.004 0.23557,-0.0247 -0.005,-0.0136 -0.019,-0.0247 -0.0306,-0.0247 -0.0368,0 -0.046,-0.0515 -0.0535,-0.2986 -0.006,-0.2094 -0.004,-0.24136 0.0178,-0.24136 0.0822,0 0.33147,0.39397 0.32864,0.51948 l -7.1e-4,0.0696 h 0.23476 c 0.1291,0 0.23468,-0.006 0.23468,-0.0136 0,-0.007 -0.0235,-0.0238 -0.0523,-0.0368 -0.0303,-0.0136 -0.078,-0.0613 -0.11314,-0.11345 -0.11312,-0.16722 -0.25593,-0.42914 -0.24865,-0.45596 0.004,-0.0147 0.0369,-0.0451 0.0734,-0.0676 0.14314,-0.0885 0.26787,-0.27383 0.30598,-0.45477 0.0702,-0.33345 -0.09,-0.67086 -0.38758,-0.81638 -0.0915,-0.0448 -0.0992,-0.0456 -0.44088,-0.0513 -0.054,-7.1e-4 -0.10273,-7.1e-4 -0.1455,-7.1e-4 z m 0.25815,0.12032 c 0.0714,0.002 0.18819,0.059 0.25436,0.12743 0.15529,0.16073 0.22,0.41234 0.16196,0.63033 -0.0422,0.15878 -0.16119,0.31478 -0.2845,0.37327 -0.0324,0.0154 -0.0906,0.0316 -0.12922,0.036 l -0.0702,0.007 v -0.5812 -0.58109 l 0.04,-0.0106 c 0.008,-0.002 0.0173,-0.002 0.0276,-0.002 z m -1.32156,0.32804 0.0106,0.0655 c 0.005,0.036 0.012,0.21636 0.0138,0.40084 l 0.004,0.33544 h -0.17238 c -0.0948,0 -0.17225,-5e-5 -0.17225,-1.1e-4 -10e-6,-4e-5 0.0175,-0.0479 0.0392,-0.10635 0.10744,-0.2911 0.19832,-0.5242 0.23587,-0.60526 z m 0.34391,0.7294 c 0.004,-0.002 0.01,0.005 0.0158,0.0227 0.005,0.0132 0.002,0.0284 -0.006,0.0338 -0.008,0.005 -0.0157,-0.005 -0.0157,-0.0241 0,-0.0197 0.002,-0.0306 0.006,-0.0322 z"
       id="path1280" />
  </g>
</svg>
