<?xml version="1.0" encoding="UTF-8" standalone="no"?>
<!-- Created with Inkscape (http://www.inkscape.org/) -->

<svg
   xmlns:dc="http://purl.org/dc/elements/1.1/"
   xmlns:cc="http://creativecommons.org/ns#"
   xmlns:rdf="http://www.w3.org/1999/02/22-rdf-syntax-ns#"
   xmlns:svg="http://www.w3.org/2000/svg"
   xmlns="http://www.w3.org/2000/svg"
   xmlns:sodipodi="http://sodipodi.sourceforge.net/DTD/sodipodi-0.dtd"
   xmlns:inkscape="http://www.inkscape.org/namespaces/inkscape"
   width="79.375694"
   height="100"
   viewBox="0 0 21.001485 26.458334"
   version="1.1"
   id="svg1502"
   sodipodi:docname="footer_tempest.svg"
   inkscape:version="0.92.4 (5da689c313, 2019-01-14)">
  <defs
     id="defs1496">
    <clipPath
       id="clipPath8280"
       clipPathUnits="userSpaceOnUse">
      <path
         inkscape:connector-curvature="0"
         id="path8282"
         d="M 0,77.837 H 328.653 V 0.06 H 0 Z" />
    </clipPath>
  </defs>
  <sodipodi:namedview
     id="base"
     pagecolor="#ffffff"
     bordercolor="#666666"
     borderopacity="1.0"
     inkscape:pageopacity="0.0"
     inkscape:pageshadow="2"
     inkscape:zoom="1.63"
     inkscape:cx="35.286407"
     inkscape:cy="67.838186"
     inkscape:document-units="px"
     inkscape:current-layer="layer1"
     showgrid="false"
     units="px"
     fit-margin-top="0"
     fit-margin-left="0"
     fit-margin-right="0"
     fit-margin-bottom="0" />
  <metadata
     id="metadata1499">
    <rdf:RDF>
      <cc:Work
         rdf:about="">
        <dc:format>image/svg+xml</dc:format>
        <dc:type
           rdf:resource="http://purl.org/dc/dcmitype/StillImage" />
        <dc:title></dc:title>
      </cc:Work>
    </rdf:RDF>
  </metadata>
  <g
     inkscape:label="Layer 1"
     inkscape:groupmode="layer"
     id="layer1"
     transform="translate(-115.80471,-189.46445)">
    <g
       transform="matrix(0.04531699,0,0,0.04531699,115.4864,191.95601)"
       id="g1971"
       style="fill:#ffffff;stroke-width:5.8385005">
      <path
         inkscape:connector-curvature="0"
         id="path1210"
         d="m 218.83594,238.57422 -7.96485,11.60742 a 7.50075,7.50075 0 0 1 -4.07617,2.9375 l -0.041,0.0898 a 7.50075,7.50075 0 0 1 3.18554,5.30469 c 2.31944,-6.44087 5.79931,-12.90511 9.75196,-19.28515 z m 30.75,9.97851 -4.55469,1.25391 a 7.50075,7.50075 0 0 1 -5.98828,2.74805 c -1.43559,2.01092 -2.98651,4.16501 -4.58008,6.43945 a 7.50075,7.50075 0 0 1 2.18359,8.9043 c -2.42758,5.45565 -4.59019,10.92318 -6.58007,16.40625 6.84097,-11.59954 14.20868,-22.92469 22.15625,-33.94727 a 7.50075,7.50075 0 0 1 -2.63672,-1.80469 z m -50.48828,30.15821 c -1.27006,1.4388 -2.9611,2.85948 -5.02735,3.34179 l -12.64062,28.7461 c -0.64412,1.46471 -2.13203,3.93639 -2.0586,6.79687 0.0367,1.43024 0.68593,3.08462 2.07618,4.12305 1.39027,1.03842 3.24936,1.5014 5.71679,1.57617 l 26.42578,0.80078 -30.91406,97.03321 c -1.36606,4.28791 -1.91653,7.20181 -1.74805,9.43945 0.0842,1.11882 0.35186,2.15216 1.09766,2.99805 0.7458,0.8459 1.97621,1.22064 2.95313,1.13476 1.95382,-0.17175 3.40416,-1.31266 4.93554,-2.72851 1.53138,-1.41584 3.02536,-3.23131 4.28125,-5.19532 l 82.82031,-129.51562 c 1.64675,-2.57522 2.47286,-5.51964 1.00391,-7.98047 -1.46895,-2.46083 -4.56852,-3.4668 -8.85547,-3.4668 a 2.0002,2.0002 0 0 0 -0.0703,0.002 c -4.78021,1.96165 -10.05228,2.07182 -14.80273,0.57617 l -8.20704,0.32031 c -1.87883,3.05276 -3.7372,6.11498 -5.51757,9.21484 -0.22589,4.08078 -1.6414,8.03017 -5.00782,10.53711 -0.22154,0.16498 -0.44672,0.31595 -0.67382,0.46094 l 13.57421,-3.6914 -30.83789,14.0957 -19.38281,-0.43946 30.08399,-8.17968 c -2.03692,-0.0412 -3.9976,-0.54979 -5.63868,-1.32032 -4.03566,-1.89483 -7.32414,-5.59579 -8.88476,-10.18359 l -29.78321,17.77149 c 0.32754,-0.85975 0.72353,-1.7684 1.07618,-2.57032 l 14.54492,-33.07617 c -0.17844,-0.20814 -0.36983,-0.40731 -0.53906,-0.62109 z"
         style="color:#000000;font-style:normal;font-variant:normal;font-weight:normal;font-stretch:normal;font-size:medium;line-height:normal;font-family:sans-serif;font-variant-ligatures:normal;font-variant-position:normal;font-variant-caps:normal;font-variant-numeric:normal;font-variant-alternates:normal;font-feature-settings:normal;text-indent:0;text-align:start;text-decoration:none;text-decoration-line:none;text-decoration-style:solid;text-decoration-color:#000000;letter-spacing:normal;word-spacing:normal;text-transform:none;writing-mode:lr-tb;direction:ltr;text-orientation:mixed;dominant-baseline:auto;baseline-shift:baseline;text-anchor:start;white-space:normal;shape-padding:0;clip-rule:nonzero;display:inline;overflow:visible;visibility:visible;opacity:1;isolation:auto;mix-blend-mode:normal;color-interpolation:sRGB;color-interpolation-filters:linearRGB;solid-color:#000000;solid-opacity:1;vector-effect:none;fill:#ffffff;fill-opacity:1;fill-rule:nonzero;stroke:none;stroke-width:23.354002;stroke-linecap:butt;stroke-linejoin:round;stroke-miterlimit:4;stroke-dasharray:none;stroke-dashoffset:0;stroke-opacity:1;color-rendering:auto;image-rendering:auto;shape-rendering:auto;text-rendering:auto;enable-background:accumulate" />
      <path
         inkscape:connector-curvature="0"
         id="path1770"
         d="m 276.41797,39.175781 a 2.0002,2.0002 0 0 0 -0.73828,0.166016 L 232.2832,58.208984 a 2.0002,2.0002 0 0 0 -1.04101,1.046875 L 219.36523,86.970703 179.7793,65.826172 A 2.0002,2.0002 0 0 0 177.16016,66.5 l -23.9375,36.82617 h -24.85743 a 2.0002,2.0002 0 0 0 -1.75,1.03125 l -11.6289,21.01953 -22.748049,-2.23047 A 2.0002,2.0002 0 0 0 90.5,123.86719 l -23.521484,28.59375 -38.310547,3.23047 a 2.0002,2.0002 0 0 0 -1.460938,0.83398 L 7.3945312,184.35547 a 2.0002,2.0002 0 0 0 -0.3691406,1.22851 L 7.96875,212.94141 a 2.0002,2.0002 0 0 0 0.8632812,1.57812 l 27.3593748,18.86719 a 2.0002,2.0002 0 0 0 1.466797,0.32617 L 87.265625,225.36914 99.75,235.0332 c 2.75233,-6.70105 5.87409,-13.73736 9.2207,-20.97851 -4.46041,-0.0935 -8.82967,-0.27909 -13.388669,-0.30469 -2.840717,-0.0159 -5.656031,-0.65827 -8.103515,-2.42188 -2.447485,-1.76359 -4.332894,-4.9271 -4.371094,-8.21874 -0.0764,-6.5833 5.909569,-10.66753 11.490234,-11.20118 9.323734,-0.89156 18.380294,-1.1568 27.302734,-1.1914 3.82769,-5.63783 7.82101,-11.11053 12.03125,-16.15039 2.80262,-3.35487 7.0539,-5.45468 11.05664,-5.48829 6.00385,-0.0504 10.51088,3.28784 13.24414,7.48438 2.73325,4.19654 3.85892,10.89377 -0.0586,16.08203 -0.21046,0.27873 -0.40382,0.57914 -0.61328,0.85938 1.4324,0.89582 2.71157,1.94386 3.70117,3.08398 2.3634,2.72289 3.74359,5.79818 4.34375,9.07227 0.60016,3.27409 0.70305,7.21124 -2.37305,10.93945 -1.88982,2.29045 -4.88289,3.31896 -7.86914,3.52734 4.04609,1.77655 7.2841,4.7701 9.89258,7.66211 0.40089,0.44447 0.63625,0.97621 0.97656,1.45508 0.26485,-0.5643 0.71679,-1.37068 0.95508,-1.90039 1.64953,-3.66676 2.36322,-6.9084 2.45508,-6.78711 -0.50102,-3.50694 -0.71563,-6.35831 0.14062,-9.47852 0.48041,-1.75062 1.46424,-3.82049 3.39063,-5.39257 1.52626,-1.24556 3.45802,-1.8753 5.1289,-2.05664 l -48.84375,-96.15039 0.084,-0.15235 h 24.76562 a 2.0002,2.0002 0 0 0 1.67579,-0.91015 l 23.52929,-36.19727 0.21485,0.115234 49.54882,152.271486 c 0.81506,0.72958 1.5427,1.5143 2.16211,2.31445 2.31538,2.99097 3.89147,6.66107 4.2461,10.54883 0.0185,-0.0364 0.0362,-0.073 0.0547,-0.10937 L 220.55664,91.746094 a 2.0002,2.0002 0 0 0 1.62695,-1.197266 l 12.42383,-28.988281 41.91406,-18.222656 0.36133,0.140625 30.85352,175.447264 a 2.0002,2.0002 0 0 0 -0.31641,0.0801 l -4.20312,1.47461 c 0.29081,1.36779 0.4248,2.72716 0.45898,4.07812 l 0.76367,-0.26757 c 0.46243,-0.51043 0.91708,-1.01911 1.46289,-1.54883 1.31412,-1.27537 2.83162,-2.33899 4.44922,-3.14844 l -1.58398,-0.58008 a 2.0002,2.0002 0 0 0 -0.0937,-0.0293 l 32.77734,-105.61915 a 2.0002,2.0002 0 0 0 1.02149,0.043 l 17.07422,77.38477 c 5.74756,-0.39867 11.39784,-0.57842 16.99218,-0.65235 l 5.23828,-53.73046 22.41602,24.20703 2.20117,8.01953 c 4.77907,0.74014 8.43116,3.70153 10.77539,7.30078 2.73325,4.19654 3.85892,10.89377 -0.0586,16.08203 -0.21046,0.27873 -0.40382,0.57914 -0.61328,0.85938 1.4324,0.89582 2.71157,1.94386 3.70117,3.08398 2.3634,2.72289 3.74359,5.79818 4.34375,9.07227 0.60016,3.27409 0.70305,7.21124 -2.37305,10.93945 -1.51365,1.83454 -3.738,2.93028 -6.09765,3.40234 l -23.07813,11.53907 c -1.03465,2.00756 -2.03277,3.99895 -2.99023,5.96875 l 30.62695,-15.31446 33.29492,6.47461 a 2.0002,2.0002 0 0 0 2.2207,-1.17578 l 14.1504,-33.01953 a 2.0002,2.0002 0 0 0 -0.20899,-1.94727 l -30.1875,-42.45312 a 2.0002,2.0002 0 0 0 -1.66016,-0.83984 l -29.19921,0.4375 4.31445,-25.4629 a 2.0002,2.0002 0 0 0 -0.46485,-1.64648 l -25.4707,-29.246094 a 2.0002,2.0002 0 0 0 -2.24804,-0.544922 l -41.6836,16.583986 -10.3418,-46.759767 a 2.0002,2.0002 0 0 0 -1.22851,-1.433594 l -54.7168,-21.226562 a 2.0002,2.0002 0 0 0 -0.7832,-0.134766 z M 68.539062,156.30469 87.242188,221.31641 86.214844,221.49023 30.513672,159.55078 68.154297,156.375 a 2.0002,2.0002 0 0 0 0.384765,-0.0703 z m 76.732418,28.09765 c -4.55145,5.46735 -8.97563,11.51546 -13.12695,17.86328 a 7.50075,7.50075 0 0 1 -4.32617,3.12696 7.50075,7.50075 0 0 1 -0.5957,4.67969 c -2.64772,5.50446 -4.71717,10.43774 -7.04688,15.63671 3.48253,-6.85794 7.3182,-13.85592 11.57617,-20.81054 a 7.50075,7.50075 0 0 1 6.01953,-3.56641 7.50075,7.50075 0 0 1 0.75,-6.95703 c 2.23922,-3.31535 4.57905,-6.57227 6.97266,-9.77734 -0.0766,-0.075 -0.14366,-0.13892 -0.22266,-0.19532 z m 221.29102,28.9961 c 0.31186,0.33883 0.60213,0.68675 0.89062,1.03906 0.15656,-0.3403 0.29728,-0.66637 0.45508,-1.00781 -0.44832,-0.009 -0.89609,-0.0232 -1.3457,-0.0312 z m -224.66602,3.88867 c -0.94186,1.60632 -1.89865,3.21028 -2.79882,4.81641 2.37972,-1.79674 5.06369,-3.13435 7.89257,-3.4336 -1.67056,-0.50432 -3.36095,-0.97762 -5.09375,-1.38281 z m 41.8379,9.16016 c -0.01,0.0313 -0.0154,0.0644 -0.0254,0.0957 0.003,-0.0108 0.0146,-0.0303 0.0176,-0.041 0.006,-0.0232 0.002,-0.0319 0.008,-0.0547 z m 159.05468,5.00585 c -0.0444,0.0766 -0.0958,0.15391 -0.13867,0.23047 0.0577,-0.0778 0.1124,-0.14173 0.16992,-0.21875 z m -122.47656,4.97071 -2.0625,3.0039 1.02148,0.47657 c 0.4158,-0.67772 0.83345,-1.35552 1.25977,-2.03125 -0.0375,0.0594 -0.0894,-0.63317 -0.21875,-1.44922 z m 137.03516,1.20508 c -0.82143,0.86878 -1.66296,1.73873 -2.36524,2.54297 l 1.23242,0.45117 c 0.37586,-0.9966 0.73698,-1.97956 1.13282,-2.99414 z"
         style="fill:#ffffff;stroke:none;stroke-width:5.8385005px;stroke-linecap:butt;stroke-linejoin:miter;stroke-opacity:1" />
      <path
         inkscape:connector-curvature="0"
         id="path1778"
         d="m 276.47852,41.173828 -43.39649,18.869141 75,160.847651 z"
         style="fill:#ffffff;fill-opacity:0.28787878;stroke:none;stroke-width:5.8385005px;stroke-linecap:butt;stroke-linejoin:miter;stroke-opacity:1" />
      <path
         inkscape:connector-curvature="0"
         id="path1784"
         d="M 233.08174,60.042479 220.3459,89.75946 308.08174,220.89154 Z"
         style="fill:#ffffff;fill-opacity:0.68181817;stroke:none;stroke-width:5.8385005px;stroke-linecap:butt;stroke-linejoin:miter;stroke-opacity:1" />
      <path
         inkscape:connector-curvature="0"
         id="path1786"
         d="m 381.77734,136.41016 -5.23828,53.73046 c 1.43461,-0.019 2.87163,-0.0433 4.29883,-0.0488 3.82769,-5.63783 7.82101,-11.11053 12.03125,-16.15039 2.80262,-3.35487 7.0539,-5.45468 11.05664,-5.48829 0.85453,-0.007 1.67567,0.0608 2.46875,0.1836 l -2.20117,-8.01953 z m 22.43164,47.36718 c -4.55145,5.46735 -8.97563,11.51546 -13.12695,17.86328 a 7.50075,7.50075 0 0 1 -4.32617,3.12696 7.50075,7.50075 0 0 1 -0.5957,4.67969 c -2.64772,5.50446 -4.71717,10.43774 -7.04688,15.63671 3.48253,-6.85794 7.3182,-13.85592 11.57617,-20.81054 a 7.50075,7.50075 0 0 1 6.01953,-3.56641 7.50075,7.50075 0 0 1 0.75,-6.95703 c 2.23922,-3.31535 4.57905,-6.57227 6.97266,-9.77734 -0.0766,-0.075 -0.14366,-0.13892 -0.22266,-0.19532 z m -3.375,32.88477 c -3.39419,5.78869 -6.52025,11.58966 -9.35351,17.24805 l 28.86523,-14.4336 -0.43164,-1.57226 c -3.23785,1.98677 -7.68458,2.19228 -10.95117,1.05078 -2.61748,-0.91468 -5.34787,-1.64266 -8.12891,-2.29297 z"
         style="fill:#ffffff;fill-opacity:0.78431373;stroke:none;stroke-width:5.8385005px;stroke-linecap:butt;stroke-linejoin:miter;stroke-opacity:1" />
      <path
         inkscape:connector-curvature="0"
         id="path1816"
         d="m 128.36523,105.32617 49.9375,98.30274 c 0.43804,-0.0475 0.86262,-0.0709 1.25196,-0.0586 1.23837,0.0391 2.26939,0.20764 3.17773,0.44922 l -28.42383,-98.69336 z"
         style="fill:#ffffff;fill-opacity:0.77777782;stroke:none;stroke-width:5.8385005px;stroke-linecap:butt;stroke-linejoin:miter;stroke-opacity:1" />
      <path
         inkscape:connector-curvature="0"
         id="path1818"
         d="m 178.83594,67.589844 8.40234,138.648436 c 0.2621,0.17585 0.53076,0.35638 0.79102,0.52344 4.57342,2.83391 8.01654,6.5079 9.71679,10.83594 0.21146,0.53827 0.30879,1.08008 0.46289,1.62109 4.22805,-0.65335 8.33419,1.27526 11.32422,3.80664 0.44008,0.37257 0.7641,0.85289 1.16016,1.26953 2.67148,-3.05494 6.48442,-5.30099 10.53906,-5.10937 3.3567,0.15863 6.00863,1.59508 8.04688,3.41992 z m 41.47656,168.833986 -0.91406,1.33203 0.93554,0.43555 c 0.0666,-0.10594 0.13047,-0.21248 0.19727,-0.31836 -0.0375,0.0594 -0.0894,-0.63317 -0.21875,-1.44922 z"
         style="fill:#ffffff;fill-opacity:0.60606061;stroke:none;stroke-width:5.8385005px;stroke-linecap:butt;stroke-linejoin:miter;stroke-opacity:1" />
      <path
         inkscape:connector-curvature="0"
         id="path1820"
         d="m 220.3457,89.759766 15.39649,145.597654 c 1.69299,-3.33995 3.38551,-6.68877 5.07422,-10.00781 1.36516,-2.68316 3.29835,-5.71697 7.11718,-7.79297 3.81883,-2.076 9.67825,-1.85066 13.86719,0.7793 0.48744,0.30603 1.41023,0.81417 2.33984,1.42968 2.50663,-2.75743 4.9255,-5.4882 7.55665,-8.31445 3.39666,-3.64851 7.47027,-6.24406 11.91796,-6.41601 4.44769,-0.17196 7.34865,1.61722 9.35938,2.59765 4.74979,2.31601 8.37318,6.53894 9.79687,11.11524 0.38959,1.25228 0.62414,2.49842 0.76368,3.73828 l 4.54687,-1.59571 z"
         style="fill:#ffffff;fill-opacity:0.89393939;stroke:none;stroke-width:5.8385005px;stroke-linecap:butt;stroke-linejoin:miter;stroke-opacity:1" />
      <path
         inkscape:connector-curvature="0"
         id="path1855"
         d="m 403.98828,175.95312 c -1.83255,0.0154 -3.71743,0.82672 -5.36328,2.79688 -4.83072,5.78261 -9.47574,12.14182 -13.82031,18.78516 -10.03266,-0.0519 -20.17384,0.22219 -30.55469,1.21484 -6.24563,0.59723 -6.40591,6.8373 0.3125,6.875 8.31535,0.0467 16.65515,0.0837 24.83984,0.57031 -19.39598,40.32328 -32.05315,74.6535 -17.96484,79.42969 10.26462,3.47989 6.99995,0.66804 6.5625,-3.75 -1.14374,-11.55121 10.5397,-43.39364 29.08594,-73.68555 4.912,0.88011 9.71315,2.06466 14.35156,3.68555 9.71266,3.39408 6.29283,-13.44608 -2.1875,-13.75 -1.8562,-0.0665 -3.71836,-0.11605 -5.57617,-0.17773 2.39917,-3.55218 4.88478,-7.0484 7.45117,-10.44727 3.38,-4.47639 -1.63905,-11.59302 -7.13672,-11.54688 z m -258.9375,0.625 c -1.83255,0.0154 -3.71743,0.82672 -5.36328,2.79688 -4.83072,5.78261 -9.47574,12.14182 -13.82031,18.78516 -10.03266,-0.0519 -20.17384,0.22219 -30.55469,1.21484 -6.245628,0.59723 -6.405915,6.8373 0.3125,6.875 8.31535,0.0467 16.65515,0.0837 24.83984,0.57031 -19.39598,40.32328 -32.053147,74.6535 -17.96484,79.42969 10.26462,3.47989 6.99995,0.66804 6.5625,-3.75 -1.14374,-11.55121 10.5397,-43.39364 29.08594,-73.68555 4.912,0.88011 9.71315,2.06466 14.35156,3.68555 9.71266,3.39408 6.29283,-13.44608 -2.1875,-13.75 -1.8562,-0.0665 -3.71836,-0.11605 -5.57617,-0.17773 2.39917,-3.55218 4.88478,-7.0484 7.45117,-10.44727 3.38,-4.47639 -1.63905,-11.59302 -7.13672,-11.54688 z m 34.26758,34.48829 c -2.15704,-0.0682 -3.27281,2.20405 -2.13086,9.55859 -0.0505,4.15543 -4.86775,13.80901 -10.53125,24.46484 -0.57114,-0.31958 -1.54045,-0.16137 -3.21875,0.84766 -14.68175,18.39811 -20.17604,19.25654 -25.9375,20.625 -1.93314,-2.39583 -0.30525,-4.79167 1.875,-7.1875 8.09821,2.11762 29.83521,-16.00466 20.3125,-26.5625 -3.5045,-3.88543 -7.57518,-7.00811 -11.66016,-6.75195 -1.85681,0.11643 -3.71607,0.93158 -5.52734,2.68945 -24.009,23.30128 -22.02015,38.93367 -4.6875,45.9375 3.99659,1.61495 11.91597,-3.50699 19.33008,-11.73242 -1.56905,3.00996 -3.06502,5.9401 -4.33008,8.60742 -5.65917,11.9321 11.80991,23.02783 11.5625,11.875 L 186.25,252.5 c -0.82145,6.49498 -11.95389,12.63366 3.125,21.25 5.62646,3.21506 4.53241,-2.15697 5.625,-4.0625 l 7.5,-10.3125 c -2.84733,8.63963 2.51768,19.04838 9.65234,18.38281 5.19978,-0.48506 11.6687,-4.72136 17.64258,-12.9082 -3.31885,7.45865 -6.34251,14.99075 -8.85742,22.65039 -4.14113,12.61257 13.23269,20.2423 12.1875,6.25 14.1097,-24.82015 30.89084,-48.30458 50,-70.625 -10.07151,28.62169 -18.7647,38.63592 -27.1875,45 -5.24122,-5.10896 -9.71787,3.38859 -4.6875,8.125 9.57044,9.01119 23.05481,3.31592 35,-22.1875 7.45828,-15.92369 16.26514,-33.43273 3.4375,-39.6875 -4.16358,-2.03016 -7.0923,-3.62117 -12.5,2.1875 -8.90563,9.56596 -17.16593,18.39152 -22.1875,26.875 l 5,-9.0625 c 4.82899,-5.69946 0.66411,-7.89716 -2.1875,-9.6875 -4.95308,-3.10971 -8.40291,0.3093 -10.3125,4.0625 -2.76598,5.43638 -5.5463,10.86982 -8.27148,16.31641 -0.44495,-1.04341 -2.13411,-0.63487 -4.22852,0.24609 -6.18574,7.8057 -10.10825,16.55985 -20,22.8125 1.36954,-7.71448 6.09054,-17.08142 11.875,-26.25 4.60498,-7.29905 -4.49723,-21.71474 -11.25,-11.875 l -10.9375,15.9375 c 3.5724,-6.91997 5.5309,-12.50501 0,-17.1875 -4.67756,-3.96005 -6.96031,-2.26663 -9.6875,1.25 l -11.875,15.3125 c 5.27412,-11.32456 15.41482,-23.23311 0.9375,-32.1875 -1.78042,-1.13484 -3.44992,-2.01769 -4.74414,-2.05859 z m 171.91406,3.2207 c -2.15102,0.10928 -4.31152,0.95379 -6.23242,2.90039 -6.72157,6.81151 -13.9871,14.07318 -11.20312,27.29102 -0.47489,0.15426 -1.04031,0.41669 -1.73438,0.83398 -14.68175,18.39811 -20.17604,19.25654 -25.9375,20.625 -1.93314,-2.39583 -0.30525,-4.79167 1.875,-7.1875 8.09821,2.11762 29.83521,-16.00466 20.3125,-26.5625 -3.5045,-3.88543 -7.57518,-7.00811 -11.66016,-6.75195 -1.85681,0.11643 -3.71607,0.93158 -5.52734,2.68945 -24.009,23.30128 -22.02015,38.93367 -4.6875,45.9375 5.83055,2.35602 20.00131,-9.59285 28.77344,-24.67188 0.80424,2.23321 1.86299,4.61404 3.22656,7.17188 5.7077,10.70676 -4.11721,14.14099 -12.8125,12.5 -8.84965,-1.67012 -6.36922,12.8241 6.875,12.8125 11.25455,-0.01 26.64936,-8.87772 15.3125,-27.8125 -8.65313,-14.45242 4.99912,-20.55953 10.625,-29.6875 11.26273,2.76627 2.11603,-10.56145 -7.20508,-10.08789 z M 322.375,236.875 c -1.78981,6.01636 -5.74433,9.14644 -10,11.875 1.99609,-4.84983 5.50653,-8.69009 10,-11.875 z M 153.75,237.5 c -1.78981,6.01636 -5.74433,9.14644 -10,11.875 1.99609,-4.84983 5.50653,-8.69009 10,-11.875 z"
         style="fill:#ffffff;stroke:none;stroke-width:5.8385005px;stroke-linecap:butt;stroke-linejoin:miter;stroke-opacity:1" />
    </g>
  </g>
</svg>
