<?xml version="1.0" encoding="UTF-8" standalone="no"?>
<!-- Created with Inkscape (http://www.inkscape.org/) -->

<svg
   xmlns:dc="http://purl.org/dc/elements/1.1/"
   xmlns:cc="http://creativecommons.org/ns#"
   xmlns:rdf="http://www.w3.org/1999/02/22-rdf-syntax-ns#"
   xmlns:svg="http://www.w3.org/2000/svg"
   xmlns="http://www.w3.org/2000/svg"
   xmlns:sodipodi="http://sodipodi.sourceforge.net/DTD/sodipodi-0.dtd"
   xmlns:inkscape="http://www.inkscape.org/namespaces/inkscape"
   width="79.375694"
   height="100"
   viewBox="0 0 21.001485 26.458334"
   version="1.1"
   id="svg1502"
   sodipodi:docname="footer_tempest_colour.svg"
   inkscape:version="0.92.4 (5da689c313, 2019-01-14)">
  <defs
     id="defs1496">
    <clipPath
       id="clipPath8280"
       clipPathUnits="userSpaceOnUse">
      <path
         inkscape:connector-curvature="0"
         id="path8282"
         d="M 0,77.837 H 328.653 V 0.06 H 0 Z" />
    </clipPath>
  </defs>
  <sodipodi:namedview
     id="base"
     pagecolor="#ffffff"
     bordercolor="#666666"
     borderopacity="1.0"
     inkscape:pageopacity="0.0"
     inkscape:pageshadow="2"
     inkscape:zoom="0.87"
     inkscape:cx="35.286407"
     inkscape:cy="73.100682"
     inkscape:document-units="px"
     inkscape:current-layer="layer1"
     showgrid="false"
     units="px"
     fit-margin-top="0"
     fit-margin-left="0"
     fit-margin-right="0"
     fit-margin-bottom="0" />
  <metadata
     id="metadata1499">
    <rdf:RDF>
      <cc:Work
         rdf:about="">
        <dc:format>image/svg+xml</dc:format>
        <dc:type
           rdf:resource="http://purl.org/dc/dcmitype/StillImage" />
        <dc:title></dc:title>
      </cc:Work>
    </rdf:RDF>
  </metadata>
  <g
     inkscape:label="Layer 1"
     inkscape:groupmode="layer"
     id="layer1"
     transform="translate(-115.80471,-189.46445)">
    <g
       id="g2379"
       style="fill:#550000">
      <path
         inkscape:connector-curvature="0"
         id="path1210"
         d="m 125.40339,202.76748 -0.36095,0.52601 a 0.33991141,0.33991141 0 0 1 -0.18472,0.13312 l -0.002,0.004 a 0.33991141,0.33991141 0 0 1 0.14435,0.24039 c 0.10511,-0.29188 0.26281,-0.58482 0.44193,-0.87395 z m 1.39349,0.45219 -0.2064,0.0568 a 0.33991141,0.33991141 0 0 1 -0.27137,0.12453 c -0.0651,0.0911 -0.13534,0.18874 -0.20756,0.29181 a 0.33991141,0.33991141 0 0 1 0.099,0.40352 c -0.11001,0.24723 -0.20802,0.49501 -0.29819,0.74348 0.31001,-0.52565 0.64389,-1.03888 1.00405,-1.53839 a 0.33991141,0.33991141 0 0 1 -0.11949,-0.0818 z m -2.28797,1.36668 c -0.0576,0.0652 -0.13419,0.12958 -0.22783,0.15144 l -0.57283,1.30269 c -0.0292,0.0664 -0.0966,0.17838 -0.0933,0.30801 0.002,0.0648 0.0311,0.13979 0.0941,0.18685 0.063,0.0471 0.14726,0.068 0.25907,0.0714 l 1.19754,0.0363 -1.40093,4.39725 c -0.0619,0.19432 -0.0868,0.32637 -0.0792,0.42777 0.004,0.0507 0.0159,0.0975 0.0497,0.13586 0.0338,0.0383 0.0896,0.0553 0.13383,0.0514 0.0885,-0.008 0.15427,-0.0595 0.22366,-0.12365 0.0694,-0.0642 0.1371,-0.14643 0.19402,-0.23544 l 3.75316,-5.86925 c 0.0746,-0.1167 0.11207,-0.25014 0.0455,-0.36165 -0.0666,-0.11152 -0.20703,-0.15711 -0.4013,-0.15711 a 0.09064304,0.09064304 0 0 0 -0.003,9e-5 c -0.21663,0.0889 -0.45554,0.0939 -0.67082,0.0261 l -0.37191,0.0145 c -0.0851,0.13834 -0.16936,0.27711 -0.25004,0.41759 -0.0102,0.18492 -0.0744,0.3639 -0.22694,0.47751 -0.01,0.007 -0.0202,0.0143 -0.0305,0.0209 l 0.61514,-0.16728 -1.39748,0.63878 -0.87837,-0.0199 1.36332,-0.37068 c -0.0923,-0.002 -0.18116,-0.0249 -0.25553,-0.0598 -0.18288,-0.0859 -0.33191,-0.25358 -0.40263,-0.46149 l -1.34969,0.80535 c 0.0149,-0.039 0.0328,-0.0801 0.0488,-0.11648 l 0.65914,-1.49891 c -0.008,-0.009 -0.0168,-0.0185 -0.0244,-0.0281 z"
         style="color:#000000;font-style:normal;font-variant:normal;font-weight:normal;font-stretch:normal;font-size:medium;line-height:normal;font-family:sans-serif;font-variant-ligatures:normal;font-variant-position:normal;font-variant-caps:normal;font-variant-numeric:normal;font-variant-alternates:normal;font-feature-settings:normal;text-indent:0;text-align:start;text-decoration:none;text-decoration-line:none;text-decoration-style:solid;text-decoration-color:#000000;letter-spacing:normal;word-spacing:normal;text-transform:none;writing-mode:lr-tb;direction:ltr;text-orientation:mixed;dominant-baseline:auto;baseline-shift:baseline;text-anchor:start;white-space:normal;shape-padding:0;clip-rule:nonzero;display:inline;overflow:visible;visibility:visible;opacity:1;isolation:auto;mix-blend-mode:normal;color-interpolation:sRGB;color-interpolation-filters:linearRGB;solid-color:#000000;solid-opacity:1;vector-effect:none;fill:#2b0000;fill-opacity:1;fill-rule:nonzero;stroke:none;stroke-width:1.05833304;stroke-linecap:butt;stroke-linejoin:round;stroke-miterlimit:4;stroke-dasharray:none;stroke-dashoffset:0;stroke-opacity:1;color-rendering:auto;image-rendering:auto;shape-rendering:auto;text-rendering:auto;enable-background:accumulate" />
      <path
         inkscape:connector-curvature="0"
         id="path1770"
         d="m 128.01283,193.73134 a 0.09064304,0.09064304 0 0 0 -0.0335,0.008 l -1.96659,0.85501 a 0.09064304,0.09064304 0 0 0 -0.0472,0.0474 l -0.53823,1.25595 -1.79391,-0.95821 a 0.09064304,0.09064304 0 0 0 -0.11869,0.0305 l -1.08478,1.66885 h -1.12646 a 0.09064304,0.09064304 0 0 0 -0.0793,0.0467 l -0.52699,0.95255 -1.03087,-0.10108 a 0.09064304,0.09064304 0 0 0 -0.0788,0.0327 l -1.06593,1.29578 -1.73611,0.1464 a 0.09064304,0.09064304 0 0 0 -0.0662,0.0378 l -0.89784,1.26117 a 0.09064304,0.09064304 0 0 0 -0.0167,0.0557 l 0.0427,1.23975 a 0.09064304,0.09064304 0 0 0 0.0391,0.0715 l 1.23985,0.855 a 0.09064304,0.09064304 0 0 0 0.0665,0.0148 l 2.24806,-0.37811 0.56575,0.43795 c 0.12473,-0.30367 0.2662,-0.62254 0.41785,-0.95069 -0.20213,-0.004 -0.40013,-0.0126 -0.60673,-0.0138 -0.12873,-7.2e-4 -0.25631,-0.0298 -0.36723,-0.10976 -0.11091,-0.0799 -0.19635,-0.22328 -0.19808,-0.37244 -0.003,-0.29834 0.2678,-0.48342 0.5207,-0.50761 0.42252,-0.0404 0.83294,-0.0524 1.23728,-0.054 0.17346,-0.25549 0.35442,-0.50349 0.54522,-0.73189 0.12701,-0.15203 0.31966,-0.24719 0.50105,-0.24871 0.27208,-0.002 0.47632,0.149 0.60019,0.33917 0.12386,0.19018 0.17487,0.49367 -0.003,0.72879 -0.01,0.0126 -0.0183,0.0263 -0.0278,0.0389 0.0649,0.0406 0.12288,0.0881 0.16773,0.13976 0.1071,0.12339 0.16964,0.26276 0.19684,0.41113 0.0272,0.14837 0.0319,0.32679 -0.10754,0.49574 -0.0856,0.1038 -0.22128,0.15041 -0.3566,0.15985 0.18335,0.0805 0.33009,0.21617 0.4483,0.34722 0.0182,0.0202 0.0288,0.0442 0.0442,0.0659 0.012,-0.0256 0.0325,-0.0621 0.0433,-0.0861 0.0748,-0.16616 0.1071,-0.31306 0.11126,-0.30757 -0.0227,-0.15892 -0.0324,-0.28814 0.006,-0.42953 0.0218,-0.0793 0.0664,-0.17314 0.15366,-0.24438 0.0692,-0.0565 0.1567,-0.085 0.23242,-0.0932 l -2.21345,-4.35725 0.004,-0.007 h 1.1223 a 0.09064304,0.09064304 0 0 0 0.0759,-0.0412 l 1.06628,-1.64035 0.01,0.005 2.2454,6.90049 c 0.0369,0.0331 0.0699,0.0686 0.098,0.10488 0.10493,0.13555 0.17635,0.30186 0.19242,0.47804 8.4e-4,-0.002 0.002,-0.003 0.002,-0.005 l -0.68808,-6.50812 a 0.09064304,0.09064304 0 0 0 0.0737,-0.0543 l 0.56301,-1.31366 1.89942,-0.8258 0.0164,0.006 1.39818,7.95074 a 0.09064304,0.09064304 0 0 0 -0.0143,0.004 l -0.19048,0.0668 c 0.0132,0.062 0.0192,0.12359 0.0208,0.18481 l 0.0346,-0.0121 c 0.021,-0.0231 0.0416,-0.0462 0.0663,-0.0702 0.0596,-0.0578 0.12832,-0.106 0.20163,-0.14268 l -0.0718,-0.0263 a 0.09064304,0.09064304 0 0 0 -0.004,-0.001 l 1.48537,-4.78634 a 0.09064304,0.09064304 0 0 0 0.0463,0.002 l 0.77375,3.50684 c 0.26047,-0.0181 0.51652,-0.0262 0.77004,-0.0296 l 0.23738,-2.4349 1.01583,1.09699 0.0998,0.36342 c 0.21657,0.0335 0.38207,0.16774 0.48831,0.33085 0.12386,0.19017 0.17487,0.49367 -0.003,0.72879 -0.01,0.0126 -0.0183,0.0262 -0.0278,0.0389 0.0649,0.0406 0.12288,0.0881 0.16773,0.13976 0.1071,0.12339 0.16964,0.26276 0.19684,0.41113 0.0272,0.14837 0.0319,0.32679 -0.10754,0.49574 -0.0686,0.0831 -0.16939,0.13279 -0.27633,0.15418 l -1.04583,0.52292 c -0.0469,0.091 -0.0921,0.18122 -0.1355,0.27049 l 1.38792,-0.69401 1.50882,0.29341 a 0.09064304,0.09064304 0 0 0 0.10064,-0.0533 l 0.64125,-1.49635 a 0.09064304,0.09064304 0 0 0 -0.009,-0.0882 l -1.36801,-1.92385 a 0.09064304,0.09064304 0 0 0 -0.0752,-0.0381 l -1.32322,0.0198 0.19552,-1.1539 a 0.09064304,0.09064304 0 0 0 -0.0211,-0.0746 l -1.15425,-1.32534 a 0.09064304,0.09064304 0 0 0 -0.10188,-0.0247 l -1.88897,0.75154 -0.46866,-2.11901 a 0.09064304,0.09064304 0 0 0 -0.0557,-0.065 l -2.47961,-0.96192 a 0.09064304,0.09064304 0 0 0 -0.0355,-0.006 z m -9.42045,5.30793 0.84757,2.94613 -0.0465,0.008 -2.52421,-2.80691 1.70576,-0.14392 a 0.09064304,0.09064304 0 0 0 0.0174,-0.003 z m 3.47729,1.2733 c -0.20626,0.24776 -0.40675,0.52184 -0.59488,0.80951 a 0.33991141,0.33991141 0 0 1 -0.19605,0.1417 0.33991141,0.33991141 0 0 1 -0.027,0.21207 c -0.11999,0.24945 -0.21377,0.47301 -0.31935,0.70861 0.15782,-0.31078 0.33164,-0.62791 0.5246,-0.94307 a 0.33991141,0.33991141 0 0 1 0.27279,-0.16162 0.33991141,0.33991141 0 0 1 0.034,-0.31527 c 0.10147,-0.15024 0.20751,-0.29784 0.31598,-0.44308 -0.003,-0.003 -0.007,-0.006 -0.0101,-0.009 z m 10.02824,1.31401 c 0.0141,0.0154 0.0273,0.0311 0.0404,0.0471 0.007,-0.0154 0.0135,-0.0302 0.0206,-0.0457 -0.0203,-4.1e-4 -0.0406,-0.001 -0.061,-0.001 z m -10.18119,0.17623 c -0.0427,0.0728 -0.086,0.14548 -0.12683,0.21826 0.10784,-0.0814 0.22947,-0.14204 0.35766,-0.1556 -0.0757,-0.0228 -0.1523,-0.0443 -0.23083,-0.0627 z m 1.89597,0.41511 c -4.5e-4,0.001 -7e-4,0.003 -0.001,0.004 1.3e-4,-4.9e-4 6.6e-4,-0.001 8e-4,-0.002 2.7e-4,-0.001 9e-5,-0.001 3.6e-4,-0.002 z m 7.20788,0.22685 c -0.002,0.003 -0.004,0.007 -0.006,0.0104 0.003,-0.004 0.005,-0.006 0.008,-0.01 z m -5.55027,0.22526 -0.0935,0.13612 0.0463,0.0216 c 0.0189,-0.0307 0.0378,-0.0614 0.0571,-0.0921 -0.002,0.003 -0.004,-0.0287 -0.01,-0.0657 z m 6.21002,0.0546 c -0.0372,0.0394 -0.0754,0.0788 -0.10719,0.11524 l 0.0559,0.0204 c 0.017,-0.0452 0.0334,-0.0897 0.0513,-0.13568 z"
         style="fill:#2b0000;stroke:none;stroke-width:0.26458326px;stroke-linecap:butt;stroke-linejoin:miter;stroke-opacity:1" />
      <path
         inkscape:connector-curvature="0"
         id="path1778"
         d="m 128.01557,193.82188 -1.96659,0.8551 3.39877,7.28913 z"
         style="fill:#550000;fill-opacity:0.28787878;stroke:none;stroke-width:0.26458326px;stroke-linecap:butt;stroke-linejoin:miter;stroke-opacity:1" />
      <path
         inkscape:connector-curvature="0"
         id="path1784"
         d="m 126.04896,194.67695 -0.57715,1.34669 3.97593,5.94251 z"
         style="fill:#550000;fill-opacity:0.68181817;stroke:none;stroke-width:0.26458326px;stroke-linecap:butt;stroke-linejoin:miter;stroke-opacity:1" />
      <path
         inkscape:connector-curvature="0"
         id="path1786"
         d="m 132.7874,198.13771 -0.23738,2.4349 c 0.065,-8.6e-4 0.13013,-0.002 0.19481,-0.002 0.17346,-0.25549 0.35442,-0.5035 0.54522,-0.73189 0.127,-0.15203 0.31966,-0.24719 0.50105,-0.24871 0.0387,-3.2e-4 0.0759,0.003 0.11188,0.008 l -0.0998,-0.36342 z m 1.01653,2.14654 c -0.20625,0.24776 -0.40674,0.52184 -0.59487,0.80951 a 0.33991141,0.33991141 0 0 1 -0.19605,0.1417 0.33991141,0.33991141 0 0 1 -0.027,0.21207 c -0.11999,0.24945 -0.21377,0.47301 -0.31935,0.70861 0.15782,-0.31078 0.33164,-0.62791 0.5246,-0.94307 a 0.33991141,0.33991141 0 0 1 0.27279,-0.16162 0.33991141,0.33991141 0 0 1 0.034,-0.31527 c 0.10148,-0.15024 0.20751,-0.29784 0.31598,-0.44308 -0.003,-0.003 -0.007,-0.006 -0.0101,-0.009 z m -0.15294,1.49023 c -0.15382,0.26233 -0.29548,0.52521 -0.42387,0.78163 l 1.30808,-0.65408 -0.0196,-0.0712 c -0.14673,0.09 -0.34824,0.0993 -0.49627,0.0476 -0.11862,-0.0415 -0.24235,-0.0745 -0.36838,-0.10392 z"
         style="fill:#550000;fill-opacity:0.78431373;stroke:none;stroke-width:0.26458326px;stroke-linecap:butt;stroke-linejoin:miter;stroke-opacity:1" />
      <path
         inkscape:connector-curvature="0"
         id="path1816"
         d="m 121.30353,196.72907 2.26301,4.45479 c 0.0198,-0.002 0.0391,-0.003 0.0567,-0.003 0.0561,0.002 0.10284,0.009 0.144,0.0204 l -1.28808,-4.47249 z"
         style="fill:#550000;fill-opacity:0.77777782;stroke:none;stroke-width:0.26458326px;stroke-linecap:butt;stroke-linejoin:miter;stroke-opacity:1" />
      <path
         inkscape:connector-curvature="0"
         id="path1818"
         d="m 123.59071,195.01898 0.38077,6.28313 c 0.0119,0.008 0.0241,0.0162 0.0358,0.0237 0.20726,0.12842 0.36329,0.29492 0.44034,0.49105 0.01,0.0244 0.014,0.0489 0.021,0.0735 0.19161,-0.0296 0.37768,0.0578 0.51318,0.17251 0.02,0.0169 0.0346,0.0386 0.0526,0.0575 0.12106,-0.13844 0.29385,-0.24022 0.4776,-0.23154 0.15211,0.007 0.27229,0.0723 0.36466,0.15498 z m 1.87959,7.65105 -0.0414,0.0604 0.0424,0.0197 c 0.003,-0.005 0.006,-0.01 0.009,-0.0144 -0.002,0.003 -0.004,-0.0287 -0.01,-0.0657 z"
         style="fill:#550000;fill-opacity:0.60606061;stroke:none;stroke-width:0.26458326px;stroke-linecap:butt;stroke-linejoin:miter;stroke-opacity:1" />
      <path
         inkscape:connector-curvature="0"
         id="path1820"
         d="m 125.4718,196.02365 0.69773,6.59805 c 0.0767,-0.15136 0.15342,-0.30312 0.22994,-0.45352 0.0619,-0.1216 0.14948,-0.25908 0.32253,-0.35316 0.17306,-0.0941 0.43859,-0.0839 0.62842,0.0353 0.0221,0.0139 0.0639,0.0369 0.10604,0.0648 0.11359,-0.12496 0.22321,-0.24871 0.34244,-0.37679 0.15393,-0.16534 0.33853,-0.28296 0.54009,-0.29075 0.20155,-0.008 0.33302,0.0733 0.42414,0.11771 0.21524,0.10496 0.37944,0.29633 0.44396,0.50371 0.0177,0.0567 0.0283,0.11322 0.0346,0.16941 l 0.20605,-0.0723 z"
         style="fill:#550000;fill-opacity:0.89393939;stroke:none;stroke-width:0.26458326px;stroke-linecap:butt;stroke-linejoin:miter;stroke-opacity:1" />
    </g>
    <path
       inkscape:connector-curvature="0"
       id="path2381"
       d="m 133.79393,199.92968 c -0.083,6.9e-4 -0.16846,0.0375 -0.24304,0.12674 -0.21892,0.26205 -0.42942,0.55023 -0.6263,0.85129 -0.45465,-0.002 -0.91422,0.0101 -1.38465,0.055 -0.28303,0.0271 -0.29029,0.30985 0.0142,0.31156 0.37682,0.002 0.75476,0.004 1.12566,0.0258 -0.87897,1.82733 -1.45255,3.38307 -0.81411,3.59952 0.46516,0.15769 0.31722,0.0303 0.29739,-0.16994 -0.0518,-0.52347 0.47763,-1.96647 1.31809,-3.33921 0.2226,0.0399 0.44017,0.0936 0.65037,0.16702 0.44015,0.15381 0.28517,-0.60934 -0.0991,-0.62311 -0.0841,-0.003 -0.16851,-0.005 -0.2527,-0.008 0.10873,-0.16097 0.22137,-0.31941 0.33767,-0.47343 0.15317,-0.20286 -0.0743,-0.52537 -0.32342,-0.52327 z m -11.73427,0.0283 c -0.083,7e-4 -0.16846,0.0375 -0.24304,0.12675 -0.21892,0.26205 -0.42941,0.55023 -0.6263,0.85128 -0.45465,-0.002 -0.91422,0.0101 -1.38464,0.0551 -0.28304,0.0271 -0.2903,0.30985 0.0142,0.31156 0.37682,0.002 0.75476,0.004 1.12566,0.0258 -0.87896,1.82733 -1.45255,3.38308 -0.81411,3.59952 0.46516,0.1577 0.31722,0.0303 0.29739,-0.16994 -0.0518,-0.52347 0.47763,-1.96647 1.31809,-3.33921 0.2226,0.0399 0.44017,0.0936 0.65037,0.16702 0.44015,0.15381 0.28517,-0.60934 -0.0991,-0.62311 -0.0841,-0.003 -0.1685,-0.005 -0.2527,-0.008 0.10873,-0.16098 0.22137,-0.31941 0.33767,-0.47344 0.15317,-0.20286 -0.0743,-0.52536 -0.32342,-0.52327 z m 1.55291,1.5629 c -0.0978,-0.003 -0.14832,0.0999 -0.0966,0.43317 -0.002,0.18831 -0.22059,0.62578 -0.47724,1.10867 -0.0259,-0.0145 -0.0698,-0.007 -0.14586,0.0384 -0.66534,0.83374 -0.91432,0.87265 -1.17541,0.93466 -0.0876,-0.10857 -0.0138,-0.21714 0.085,-0.32572 0.36698,0.096 1.35204,-0.72528 0.9205,-1.20373 -0.15882,-0.17607 -0.34329,-0.31758 -0.52841,-0.30598 -0.0841,0.005 -0.1684,0.0422 -0.25048,0.12188 -1.08801,1.05595 -0.99789,1.76436 -0.21242,2.08175 0.18111,0.0732 0.53999,-0.15893 0.87598,-0.53168 -0.0711,0.13641 -0.1389,0.26919 -0.19623,0.39007 -0.25645,0.54072 0.53519,1.04355 0.52398,0.53813 l 0.99131,-1.40199 c -0.0372,0.29433 -0.54171,0.57252 0.14161,0.96299 0.25498,0.14569 0.2054,-0.0977 0.25491,-0.1841 l 0.33988,-0.46734 c -0.12903,0.39153 0.11409,0.86322 0.43742,0.83306 0.23563,-0.022 0.52879,-0.21396 0.7995,-0.58496 -0.1504,0.338 -0.28742,0.67933 -0.40139,1.02644 -0.18766,0.57157 0.59967,0.91732 0.5523,0.28324 0.63941,-1.12478 1.39988,-2.18902 2.26585,-3.20052 -0.45641,1.29705 -0.85036,1.75087 -1.23205,2.03927 -0.23752,-0.23152 -0.44039,0.15356 -0.21243,0.3682 0.43371,0.40836 1.04478,0.15027 1.5861,-1.00547 0.33799,-0.72162 0.73709,-1.51507 0.15578,-1.79852 -0.18869,-0.092 -0.32141,-0.1641 -0.56647,0.0991 -0.40357,0.4335 -0.77791,0.83345 -1.00547,1.21789 l 0.22659,-0.41068 c 0.21883,-0.25828 0.0301,-0.35788 -0.0991,-0.43901 -0.22446,-0.14092 -0.3808,0.014 -0.46733,0.1841 -0.12535,0.24636 -0.25135,0.49259 -0.37484,0.73941 -0.0202,-0.0473 -0.0967,-0.0288 -0.19163,0.0112 -0.28032,0.35373 -0.45807,0.75045 -0.90634,1.0338 0.0621,-0.3496 0.27601,-0.77408 0.53814,-1.18957 0.20869,-0.33077 -0.2038,-0.98405 -0.50981,-0.53814 l -0.49566,0.72224 c 0.16189,-0.31359 0.25065,-0.56669 0,-0.77889 -0.21197,-0.17946 -0.31542,-0.10272 -0.43901,0.0566 l -0.53814,0.69391 c 0.23901,-0.51319 0.69856,-1.05285 0.0425,-1.45864 -0.0807,-0.0514 -0.15634,-0.0914 -0.21499,-0.0933 z m 7.79063,0.14596 c -0.0975,0.005 -0.19539,0.0432 -0.28244,0.13143 -0.3046,0.30868 -0.63385,0.63776 -0.50769,1.23675 -0.0215,0.007 -0.0471,0.0189 -0.0786,0.0378 -0.66533,0.83375 -0.91431,0.87265 -1.17541,0.93467 -0.0876,-0.10857 -0.0138,-0.21715 0.085,-0.32572 0.36699,0.096 1.35204,-0.72528 0.9205,-1.20373 -0.15881,-0.17608 -0.34328,-0.31759 -0.5284,-0.30598 -0.0841,0.005 -0.1684,0.0422 -0.25048,0.12188 -1.08802,1.05594 -0.99789,1.76436 -0.21242,2.08175 0.26422,0.10677 0.90639,-0.43472 1.30392,-1.11806 0.0365,0.1012 0.0844,0.2091 0.14622,0.32501 0.25865,0.4852 -0.18658,0.64083 -0.58063,0.56646 -0.40103,-0.0757 -0.28863,0.58115 0.31156,0.58063 0.51002,-4.6e-4 1.20767,-0.40231 0.69392,-1.26038 -0.39214,-0.65494 0.22654,-0.9317 0.48149,-1.34535 0.51039,0.12536 0.0959,-0.47861 -0.32651,-0.45715 z m -1.30774,1.02361 c -0.0811,0.27265 -0.26031,0.41449 -0.45317,0.53814 0.0905,-0.21978 0.24954,-0.39381 0.45317,-0.53814 z m -7.64157,0.0283 c -0.0811,0.27264 -0.26032,0.41448 -0.45317,0.53813 0.0905,-0.21978 0.24954,-0.3938 0.45317,-0.53813 z"
       style="fill:none;stroke:#000000;stroke-width:0.79375;stroke-linecap:butt;stroke-linejoin:miter;stroke-opacity:1;stroke-miterlimit:4;stroke-dasharray:none" />
    <path
       style="fill:#ffffff;stroke:none;stroke-width:0.26458326px;stroke-linecap:butt;stroke-linejoin:miter;stroke-opacity:1"
       d="m 133.79393,199.92968 c -0.083,6.9e-4 -0.16846,0.0375 -0.24304,0.12674 -0.21892,0.26205 -0.42942,0.55023 -0.6263,0.85129 -0.45465,-0.002 -0.91422,0.0101 -1.38465,0.055 -0.28303,0.0271 -0.29029,0.30985 0.0142,0.31156 0.37682,0.002 0.75476,0.004 1.12566,0.0258 -0.87897,1.82733 -1.45255,3.38307 -0.81411,3.59952 0.46516,0.15769 0.31722,0.0303 0.29739,-0.16994 -0.0518,-0.52347 0.47763,-1.96647 1.31809,-3.33921 0.2226,0.0399 0.44017,0.0936 0.65037,0.16702 0.44015,0.15381 0.28517,-0.60934 -0.0991,-0.62311 -0.0841,-0.003 -0.16851,-0.005 -0.2527,-0.008 0.10873,-0.16097 0.22137,-0.31941 0.33767,-0.47343 0.15317,-0.20286 -0.0743,-0.52537 -0.32342,-0.52327 z m -11.73427,0.0283 c -0.083,7e-4 -0.16846,0.0375 -0.24304,0.12675 -0.21892,0.26205 -0.42941,0.55023 -0.6263,0.85128 -0.45465,-0.002 -0.91422,0.0101 -1.38464,0.0551 -0.28304,0.0271 -0.2903,0.30985 0.0142,0.31156 0.37682,0.002 0.75476,0.004 1.12566,0.0258 -0.87896,1.82733 -1.45255,3.38308 -0.81411,3.59952 0.46516,0.1577 0.31722,0.0303 0.29739,-0.16994 -0.0518,-0.52347 0.47763,-1.96647 1.31809,-3.33921 0.2226,0.0399 0.44017,0.0936 0.65037,0.16702 0.44015,0.15381 0.28517,-0.60934 -0.0991,-0.62311 -0.0841,-0.003 -0.1685,-0.005 -0.2527,-0.008 0.10873,-0.16098 0.22137,-0.31941 0.33767,-0.47344 0.15317,-0.20286 -0.0743,-0.52536 -0.32342,-0.52327 z m 1.55291,1.5629 c -0.0978,-0.003 -0.14832,0.0999 -0.0966,0.43317 -0.002,0.18831 -0.22059,0.62578 -0.47724,1.10867 -0.0259,-0.0145 -0.0698,-0.007 -0.14586,0.0384 -0.66534,0.83374 -0.91432,0.87265 -1.17541,0.93466 -0.0876,-0.10857 -0.0138,-0.21714 0.085,-0.32572 0.36698,0.096 1.35204,-0.72528 0.9205,-1.20373 -0.15882,-0.17607 -0.34329,-0.31758 -0.52841,-0.30598 -0.0841,0.005 -0.1684,0.0422 -0.25048,0.12188 -1.08801,1.05595 -0.99789,1.76436 -0.21242,2.08175 0.18111,0.0732 0.53999,-0.15893 0.87598,-0.53168 -0.0711,0.13641 -0.1389,0.26919 -0.19623,0.39007 -0.25645,0.54072 0.53519,1.04355 0.52398,0.53813 l 0.99131,-1.40199 c -0.0372,0.29433 -0.54171,0.57252 0.14161,0.96299 0.25498,0.14569 0.2054,-0.0977 0.25491,-0.1841 l 0.33988,-0.46734 c -0.12903,0.39153 0.11409,0.86322 0.43742,0.83306 0.23563,-0.022 0.52879,-0.21396 0.7995,-0.58496 -0.1504,0.338 -0.28742,0.67933 -0.40139,1.02644 -0.18766,0.57157 0.59967,0.91732 0.5523,0.28324 0.63941,-1.12478 1.39988,-2.18902 2.26585,-3.20052 -0.45641,1.29705 -0.85036,1.75087 -1.23205,2.03927 -0.23752,-0.23152 -0.44039,0.15356 -0.21243,0.3682 0.43371,0.40836 1.04478,0.15027 1.5861,-1.00547 0.33799,-0.72162 0.73709,-1.51507 0.15578,-1.79852 -0.18869,-0.092 -0.32141,-0.1641 -0.56647,0.0991 -0.40357,0.4335 -0.77791,0.83345 -1.00547,1.21789 l 0.22659,-0.41068 c 0.21883,-0.25828 0.0301,-0.35788 -0.0991,-0.43901 -0.22446,-0.14092 -0.3808,0.014 -0.46733,0.1841 -0.12535,0.24636 -0.25135,0.49259 -0.37484,0.73941 -0.0202,-0.0473 -0.0967,-0.0288 -0.19163,0.0112 -0.28032,0.35373 -0.45807,0.75045 -0.90634,1.0338 0.0621,-0.3496 0.27601,-0.77408 0.53814,-1.18957 0.20869,-0.33077 -0.2038,-0.98405 -0.50981,-0.53814 l -0.49566,0.72224 c 0.16189,-0.31359 0.25065,-0.56669 0,-0.77889 -0.21197,-0.17946 -0.31542,-0.10272 -0.43901,0.0566 l -0.53814,0.69391 c 0.23901,-0.51319 0.69856,-1.05285 0.0425,-1.45864 -0.0807,-0.0514 -0.15634,-0.0914 -0.21499,-0.0933 z m 7.79063,0.14596 c -0.0975,0.005 -0.19539,0.0432 -0.28244,0.13143 -0.3046,0.30868 -0.63385,0.63776 -0.50769,1.23675 -0.0215,0.007 -0.0471,0.0189 -0.0786,0.0378 -0.66533,0.83375 -0.91431,0.87265 -1.17541,0.93467 -0.0876,-0.10857 -0.0138,-0.21715 0.085,-0.32572 0.36699,0.096 1.35204,-0.72528 0.9205,-1.20373 -0.15881,-0.17608 -0.34328,-0.31759 -0.5284,-0.30598 -0.0841,0.005 -0.1684,0.0422 -0.25048,0.12188 -1.08802,1.05594 -0.99789,1.76436 -0.21242,2.08175 0.26422,0.10677 0.90639,-0.43472 1.30392,-1.11806 0.0365,0.1012 0.0844,0.2091 0.14622,0.32501 0.25865,0.4852 -0.18658,0.64083 -0.58063,0.56646 -0.40103,-0.0757 -0.28863,0.58115 0.31156,0.58063 0.51002,-4.6e-4 1.20767,-0.40231 0.69392,-1.26038 -0.39214,-0.65494 0.22654,-0.9317 0.48149,-1.34535 0.51039,0.12536 0.0959,-0.47861 -0.32651,-0.45715 z m -1.30774,1.02361 c -0.0811,0.27265 -0.26031,0.41449 -0.45317,0.53814 0.0905,-0.21978 0.24954,-0.39381 0.45317,-0.53814 z m -7.64157,0.0283 c -0.0811,0.27264 -0.26032,0.41448 -0.45317,0.53813 0.0905,-0.21978 0.24954,-0.3938 0.45317,-0.53813 z"
       id="path1855"
       inkscape:connector-curvature="0" />
  </g>
</svg>
